<svg id="Layer_1" data-name="Layer 1" xmlns="http://www.w3.org/2000/svg" viewBox="0 0 297.03 267.52">
  <title>accessory renal artery</title>
  <g id="Layer_1-2" data-name="Layer 1-2">
    <line x1="135.6" y1="43.24" x2="139.6" y2="266.24" fill="none" stroke="#ed1c24" stroke-miterlimit="10"/>
    <path d="M199.1,109.81s-1.7,4.7-9.8,4.5-21-2.7-22.8-4.8,0-15,0-15l-.4-46.8" transform="translate(0 -4.47)" fill="none" stroke="#ed1c24" stroke-miterlimit="10"/>
    <path d="M202,112.61a1.82,1.82,0,0,0-1.1,1l-2.2,3.1a30.36,30.36,0,0,1,8.5-.9,3.75,3.75,0,0,0,1.1-.1c.4-.2.7-.8,1.1-1" transform="translate(0 -4.47)" fill="none" stroke="#ed1c24" stroke-miterlimit="10"/>
    <path d="M208.4,119.31a5.56,5.56,0,0,0-1.7.9c-.1.1-.2.2-.2.3s.3.3.5.3h2.1" transform="translate(0 -4.47)" fill="none" stroke="#ed1c24" stroke-miterlimit="10"/>
    <path d="M209.3,126.71a21.12,21.12,0,0,0-3.1-2.1,8.17,8.17,0,0,0-5.5-1,1.7,1.7,0,0,0-1,.6,1.26,1.26,0,0,0,.2,1.3,4.44,4.44,0,0,0,1.1.8,64.39,64.39,0,0,1,9.7,6.7" transform="translate(0 -4.47)" fill="none" stroke="#ed1c24" stroke-miterlimit="10"/>
    <path d="M165.2,132c.1.4.2.8.3,1.3.2,14.2.9,137.4.9,137.4" transform="translate(0 -4.47)" fill="none" stroke="#ed1c24" stroke-miterlimit="10"/>
    <path d="M197.4,136c-.6-.5-1.3-1.1-2-1.6-7.4-5.3-16.9-6.8-26-6.8a4.9,4.9,0,0,0-3.5.9c-.7.7-.8,3.1-.8,3.5" transform="translate(0 -4.47)" fill="none" stroke="#ed1c24" stroke-miterlimit="10"/>
    <path d="M206.8,143.41c-3.5-1.9-6.3-4.8-9.4-7.4" transform="translate(0 -4.47)" fill="none" stroke="#ed1c24" stroke-miterlimit="10"/>
    <path d="M154.3,99.51c1.6,3.9,1.7,8.1,1.8,12.3l.4,33.2c0,1.3-.6,3.3-1.9,3.1l-7-1.3c-5.3-14-1.9-29.6-3.3-44.4-.1-.9-.6-2.1-1.4-1.9" transform="translate(0 -4.47)" fill="none" stroke="#ed1c24" stroke-miterlimit="10"/>
    <path d="M78.6,135.61a2.48,2.48,0,0,0-1.2,1.6c-1,2.5-1.4,5.2-2.6,7.6-2.3,4.5-7.4,7.1-9.1,11.8a4.15,4.15,0,0,0-.3,1.6,4.89,4.89,0,0,0,1.3,2.7l5,6.9,1-.7" transform="translate(0 -4.47)" fill="none" stroke="#c49a6c" stroke-miterlimit="10" stroke-width="2"/>
    <path d="M139.3,271.41c7.2-.8,14.5-1.6,21.5-.3,1.8.4,4,.8,5.2-.6" transform="translate(0 -4.47)" fill="none" stroke="#ed1c24" stroke-miterlimit="10"/>
    <path d="M135.2,47.61l16.2.8c5,.2,10.1.5,15.2.4" transform="translate(0 -4.47)" fill="none" stroke="#ed1c24" stroke-miterlimit="10"/>
    <path d="M211.87,112.61s-12.2-.1-17.2-6.4-16.3-31.3.5-46c19-16.7,37.3-16.3,61.8,5.5s36.5,98.5,11.5,118.5c-24.3,19.5-40,16-58-6s-3.5-39,1.5-46.3" transform="translate(0 -4.47)" fill="none" stroke="#c49a6c" stroke-miterlimit="10" stroke-width="2"/>
    <path d="M209.4,112.61a27.54,27.54,0,0,0-.3,8.1,37.12,37.12,0,0,0,3.5,11.3" transform="translate(0 -4.47)" fill="none" stroke="#c49a6c" stroke-miterlimit="10"/>
    <path d="M89.7,139.21s12.4-3.8,16.4-15.7S103.4,69.81,65.3,81,3,125.51,1.1,157.41c-1.8,31,19.8,68.3,48.3,61.3s33.2-28.2,26.2-41.5-4-9.3-4-9.3" transform="translate(0 -4.47)" fill="none" stroke="#c49a6c" stroke-miterlimit="10" stroke-width="2"/>
  </g>
  <path d="M131.87,131.63a181,181,0,0,0-20.64.15c-9,.77-20.7,12.66-24.37,5.63" transform="translate(0 -4.47)" fill="none" stroke="#ed1c24" stroke-linecap="round" stroke-miterlimit="10"/>
  <path d="M137.4,148.12S114.87,145,105.2,153s-38.33,12.34-38.33,19.67" transform="translate(0 -4.47)" fill="none" stroke="#ed1c24" stroke-miterlimit="10"/>
  <path d="M63.54,163s21.33-7,23.33-8.67-18.67-3-23.33,0" transform="translate(0 -4.47)" fill="none" stroke="#ed1c24" stroke-miterlimit="10"/>
  <path d="M66.87,143.41,87,149.34s-10.8-10.53-9.6-12.13" transform="translate(0 -4.47)" fill="none" stroke="#ed1c24" stroke-miterlimit="10"/>
  <path d="M136.7,128.92c.08-.15-2.24,3.16-4.83,2.72" transform="translate(0 -4.47)" fill="none" stroke="#ed1c24" stroke-miterlimit="10"/>
  <path d="M136.7,208.33s-50.09-16.49-56.22-25" transform="translate(0 -4.47)" fill="none" stroke="#ed1c24" stroke-miterlimit="10"/>
  <path d="M136.7,215s-26-12.33-27.34-10-2,10-5,12.67-2.4,15.67-2.2,20.67" transform="translate(0 -4.47)" fill="none" stroke="#ed1c24" stroke-miterlimit="10"/>
  <path d="M98,238.33s-.17-16.33,2.58-20.67,4.75-8,4.75-11.33,2.94-1.28-3.2-5-19.64-9.69-21.65-11" transform="translate(0 -4.47)" fill="none" stroke="#ed1c24" stroke-miterlimit="10"/>
  <path d="M73.94,146.23c2.63,11.93,9.59,15.71,18.31,29.6a15.86,15.86,0,0,1,2.23,6c4.18,27,7.75,76.68,7.65,81.48" transform="translate(0 -4.47)" fill="none" stroke="#00a651" stroke-miterlimit="10"/>
  <path d="M71.7,167.81c7.18,3.37,12.42,5.58,17.38,25.52,5.61,22.55,10.41,63.26,8.92,70" transform="translate(0 -4.47)" fill="none" stroke="#00a651" stroke-miterlimit="10"/>
  <path d="M89.08,203.4" transform="translate(0 -4.47)" fill="none" stroke="#00a651" stroke-miterlimit="10"/>
  <text transform="translate(182.41 211.1)" font-size="10" font-family="MyriadPro-Regular, Myriad Pro"><tspan letter-spacing="0.01em">R</tspan><tspan x="5.48" y="0">ig</tspan><tspan x="13.41" y="0" letter-spacing="0em">h</tspan><tspan x="18.92" y="0" letter-spacing="0em">t a</tspan><tspan x="29.17" y="0" letter-spacing="-0.01em">cc</tspan><tspan x="38.01" y="0" letter-spacing="0em">esso</tspan><tspan x="56.43" y="0" letter-spacing="0.03em">r</tspan><tspan x="59.95" y="0">y </tspan><tspan x="66.78" y="0" letter-spacing="-0.01em">r</tspan><tspan x="69.95" y="0">enal a</tspan><tspan x="94.63" y="0" letter-spacing="0.02em">r</tspan><tspan x="98.14" y="0" letter-spacing="-0.01em">t</tspan><tspan x="101.39" y="0" letter-spacing="0em">e</tspan><tspan x="106.4" y="0" letter-spacing="0.02em">r</tspan><tspan x="109.92" y="0">y</tspan><tspan x="0" y="12" letter-spacing="-0.03em">P</tspan><tspan x="5.06" y="12">assing pos</tspan><tspan x="48.54" y="12" letter-spacing="-0.01em">t</tspan><tspan x="51.79" y="12">e</tspan><tspan x="56.8" y="12" letter-spacing="0em">r</tspan><tspan x="60.11" y="12">ior </tspan><tspan x="73.33" y="12" letter-spacing="-0.01em">t</tspan><tspan x="76.58" y="12">o </tspan><tspan x="0" y="24" letter-spacing="0em">r</tspan><tspan x="3.31" y="24">ig</tspan><tspan x="11.24" y="24" letter-spacing="0em">h</tspan><tspan x="16.75" y="24">t gonadal a</tspan><tspan x="63.39" y="24" letter-spacing="0.02em">r</tspan><tspan x="66.9" y="24" letter-spacing="-0.01em">t</tspan><tspan x="70.15" y="24">e</tspan><tspan x="75.16" y="24" letter-spacing="0.03em">r</tspan><tspan x="78.68" y="24">y</tspan></text>
  <line x1="131.87" y1="205.53" x2="178.67" y2="207.53" fill="none" stroke="#000" stroke-miterlimit="10"/>
  <text transform="translate(76.26 13.39)" font-size="16" font-family="MyriadPro-Regular, Myriad Pro"><tspan letter-spacing="0.01em">S</tspan><tspan x="7.98" y="0">chem</tspan><tspan x="45.39" y="0" letter-spacing="0em">a</tspan><tspan x="53.04" y="0">tic d</tspan><tspan x="81.66" y="0" letter-spacing="-0.01em">r</tspan><tspan x="86.82" y="0" letter-spacing="-0.01em">a</tspan><tspan x="94.4" y="0" letter-spacing="0em">wing of </tspan><tspan x="-3.34" y="19.2">a</tspan><tspan x="4.37" y="19.2" letter-spacing="-0.01em">cc</tspan><tspan x="18.51" y="19.2" letter-spacing="0em">esso</tspan><tspan x="47.98" y="19.2" letter-spacing="0.02em">r</tspan><tspan x="53.62" y="19.2">y </tspan><tspan x="64.54" y="19.2" letter-spacing="-0.01em">r</tspan><tspan x="69.62" y="19.2" letter-spacing="0em">enal a</tspan><tspan x="109.1" y="19.2" letter-spacing="0.02em">r</tspan><tspan x="114.72" y="19.2" letter-spacing="-0.01em">t</tspan><tspan x="119.92" y="19.2">e</tspan><tspan x="127.93" y="19.2" letter-spacing="0em">r</tspan><tspan x="133.23" y="19.2" letter-spacing="0em">ies</tspan></text>
</svg>
