<svg xmlns="http://www.w3.org/2000/svg" xmlns:xlink="http://www.w3.org/1999/xlink" viewBox="0 0 609.9 406.8">
  <defs>
    <linearGradient id="linear-gradient" x1="325.6" y1="212.88" x2="325.6" y2="36.5" gradientUnits="userSpaceOnUse">
      <stop offset="0" stop-color="gray" stop-opacity="0.2"/>
      <stop offset="0.12" stop-color="#949494" stop-opacity="0.33"/>
      <stop offset="0.36" stop-color="#bababa" stop-opacity="0.56"/>
      <stop offset="0.57" stop-color="#d7d7d7" stop-opacity="0.75"/>
      <stop offset="0.76" stop-color="#ededed" stop-opacity="0.89"/>
      <stop offset="0.91" stop-color="#fafafa" stop-opacity="0.97"/>
      <stop offset="1" stop-color="#fff"/>
    </linearGradient>
  </defs>
  <title>anorectumlevels</title>
  <g id="Layer_2" data-name="Layer 2">
    <path d="M161,101s19,46,18,60,15,48,30,49,21,10,18,11-19,35-27,41-27,45-87,4-62-47-62-47" transform="translate(-24.1 -6)" fill="none" stroke="#000" stroke-miterlimit="10"/>
    <path d="M160.5,98.5s15,0,25,7,32,16,49,21,46,12,64,27,47,20,38,42-29,32-67,27-32-7-39,4-20,42-29,49-25,27-49,18-25-14-40-23-62-38-68-49" transform="translate(-24.1 -6)" fill="none" stroke="#000" stroke-miterlimit="10"/>
    <path d="M121.5,33.5s14,42,48,53,82,26,104,39,65,35,71,51c5.1,13.5,1,23-2,37" transform="translate(-24.1 -6)" fill="none" stroke="#000" stroke-miterlimit="10"/>
    <path d="M123.5,72.5s39,36,44,69,24,77,40,81l16,4" transform="translate(-24.1 -6)" fill="none" stroke="#000" stroke-miterlimit="10"/>
    <path d="M228.8,229.3s11.7-.8,29.7,2.2,31,9,48,0,32-8,36-18" transform="translate(-24.1 -6)" fill="none" stroke="#000" stroke-miterlimit="10"/>
    <path d="M200.5,224.5s-28,0-27,20-.6,28.6,9.7,33.3" transform="translate(-24.1 -6)" fill="none" stroke="#000" stroke-miterlimit="10"/>
    <path d="M271.5,236.5s21,11,6,24-39,52.3-90.5,27.2" transform="translate(-24.1 -6)" fill="none" stroke="#000" stroke-miterlimit="10"/>
    <path d="M82.5,213.5s71.9,62.6,73.5,70.8" transform="translate(-24.1 -6)" fill="none" stroke="#000" stroke-miterlimit="10"/>
    <path d="M164.5,298.5s36,15,36,26-1,50-36,35-83-89-102-100a171.5,171.5,0,0,1-32-24" transform="translate(-24.1 -6)" fill="none" stroke="#000" stroke-miterlimit="10"/>
    <path d="M441.5,86.5s-13,35-8,49-25,20-37,46-7,36-10,38-11-10-33,0-55,26-70,47-42,41-44,56,17,35,22,40,5,9,1,17-24,79-120-17-114-110-118-114" transform="translate(-24.1 -6)" fill="none" stroke="#000" stroke-miterlimit="10"/>
    <path d="M512.5,98.5s14,33,4,63,9,28-11,68-40,82-87,93-81-11-91,0-26,29-26,40,1,25,16,33,83,26,151-33,120-122,155-201" transform="translate(-24.1 -6)" fill="none" stroke="#000" stroke-miterlimit="10"/>
    <path d="M441.5,100.5s-3,35,0,44-10,4-22,17-25,32-22,52,6,17-31,13-39,23-53,31-49,49-53,57-5,39,0,48" transform="translate(-24.1 -6)" fill="none" stroke="#000" stroke-miterlimit="10"/>
    <path d="M504.5,105.5s4,30-3,56,2,38-3,57-19,68-42,48-24-5-12,5,23,13,6,21-57,28-95,21-47,12-54,26-5,33,0,40" transform="translate(-24.1 -6)" fill="none" stroke="#000" stroke-miterlimit="10"/>
    <path d="M127.5,36.5s12,23,28,32,40,18,48,23,53,16,60,22,67,27,79,48,9,33,7,44,1,7,9,5,17,3,21,0,10-54,72-69,74-9,72-28-16-56-16-56" transform="translate(-24.1 -6)" stroke="#000" stroke-miterlimit="10" fill="url(#linear-gradient)"/>
  </g>
  <g id="Layer_3" data-name="Layer 3">
    <text transform="translate(197.6 162.4)" font-size="16" font-family="MyriadPro-Regular, Myriad Pro">U<tspan x="10.4" y="0" letter-spacing="0em">r</tspan><tspan x="15.6" y="0" letter-spacing="0em">ina</tspan><tspan x="36" y="0" letter-spacing="0.02em">r</tspan><tspan x="41.6" y="0" letter-spacing="0em">y </tspan><tspan x="0.3" y="19.2">bladder</tspan></text>
    <text transform="translate(72.3 118.4)" font-size="16" font-family="MyriadPro-Regular, Myriad Pro"><tspan letter-spacing="-0.01em">P</tspan><tspan x="8.3" y="0">ubic</tspan><tspan font-size="14"><tspan x="-11.6" y="16.8">symp</tspan><tspan x="20.2" y="16.8" letter-spacing="-0.01em">h</tspan><tspan x="27.8" y="16.8" letter-spacing="-0.01em">y</tspan><tspan x="34.3" y="16.8">sis</tspan></tspan></text>
    <text transform="translate(398.1 191.4)" font-size="16" font-family="MyriadPro-Regular, Myriad Pro"><tspan letter-spacing="0em">R</tspan><tspan x="8.7" y="0" letter-spacing="0em">e</tspan><tspan x="16.7" y="0" letter-spacing="0.01em">c</tspan><tspan x="24.1" y="0">tum</tspan></text>
    <line x1="210.9" y1="70" x2="241.9" y2="18" fill="none" stroke="#000" stroke-miterlimit="10"/>
    <line x1="438.9" y1="133" x2="476.9" y2="30" fill="none" stroke="#000" stroke-miterlimit="10"/>
    <text transform="translate(206.8 13.4)" font-size="16" font-family="MyriadPro-Regular, Myriad Pro"><tspan letter-spacing="-0.02em">P</tspan><tspan x="8.1" y="0">e</tspan><tspan x="16.1" y="0" letter-spacing="0em">r</tspan><tspan x="21.4" y="0" letter-spacing="0em">i</tspan><tspan x="25.2" y="0" letter-spacing="-0.01em">t</tspan><tspan x="30.4" y="0" letter-spacing="0em">oneal c</tspan><tspan x="78.1" y="0" letter-spacing="-0.01em">a</tspan><tspan x="85.7" y="0" letter-spacing="0em">vi</tspan><tspan x="97.1" y="0" letter-spacing="0.01em">t</tspan><tspan x="102.6" y="0" letter-spacing="0em">y</tspan></text>
    <text transform="translate(420.6 19.4)" font-size="16" font-family="MyriadPro-Regular, Myriad Pro"><tspan letter-spacing="-0.02em">P</tspan><tspan x="8.1" y="0">e</tspan><tspan x="16.1" y="0" letter-spacing="0em">r</tspan><tspan x="21.4" y="0" letter-spacing="0em">i</tspan><tspan x="25.2" y="0" letter-spacing="-0.01em">t</tspan><tspan x="30.4" y="0" letter-spacing="0em">oneal </tspan><tspan x="70.9" y="0" letter-spacing="-0.01em">r</tspan><tspan x="76" y="0" letter-spacing="0em">efle</tspan><tspan x="100.4" y="0" letter-spacing="0.01em">c</tspan><tspan x="107.8" y="0">tion</tspan></text>
    <text transform="translate(25.9 402.4)" font-size="16" fill="#0023c9" font-family="MyriadPro-Regular, Myriad Pro"><tspan letter-spacing="-0.01em">L</tspan><tspan x="7.3" y="0">e</tspan><tspan x="15.3" y="0" letter-spacing="-0.01em">v</tspan><tspan x="22.9" y="0" letter-spacing="0em">el of anal </tspan><tspan x="86.4" y="0" letter-spacing="-0.01em">v</tspan><tspan x="93.9" y="0">e</tspan><tspan x="101.9" y="0" letter-spacing="-0.01em">r</tspan><tspan x="107" y="0">ge</tspan></text>
    <text transform="translate(4.9 370.4)" font-size="16" fill="#0016bb" font-family="MyriadPro-Regular, Myriad Pro"><tspan letter-spacing="-0.01em">L</tspan><tspan x="7.3" y="0">e</tspan><tspan x="15.3" y="0" letter-spacing="-0.01em">v</tspan><tspan x="22.9" y="0">el of pe</tspan><tspan x="72" y="0" letter-spacing="0.01em">c</tspan><tspan x="79.4" y="0">tin</tspan><tspan x="97.3" y="0" letter-spacing="0em">a</tspan><tspan x="105" y="0" letter-spacing="-0.01em">t</tspan><tspan x="110.2" y="0" letter-spacing="0em">e line</tspan></text>
    <g>
      <line x1="350.9" y1="361.8" x2="350.9" y2="384.2" fill="none" stroke="#0016bb" stroke-miterlimit="10"/>
      <polygon points="349.6 362.2 350.9 360 352.1 362.2 349.6 362.2" fill="#0016bb"/>
      <polygon points="349.6 383.9 350.9 386 352.1 383.9 349.6 383.9" fill="#0016bb"/>
    </g>
    <text transform="translate(335.8 376.4)" font-size="16" font-family="MyriadPro-Regular, Myriad Pro">2 cm</text>
    <g>
      <line x1="386.4" y1="333.8" x2="386.4" y2="383.7" fill="none" stroke="#0016bb" stroke-miterlimit="10"/>
      <polygon points="385.1 334.2 386.4 332 387.6 334.2 385.1 334.2" fill="#0016bb"/>
      <polygon points="385.1 383.4 386.4 385.5 387.6 383.4 385.1 383.4" fill="#0016bb"/>
    </g>
    <text transform="translate(371.3 348.4)" font-size="16" font-family="MyriadPro-Regular, Myriad Pro">4 cm</text>
    <text transform="translate(411.5 348.4)" font-size="16" fill="#0023c9" font-family="MyriadPro-Regular, Myriad Pro"><tspan letter-spacing="0em">A</tspan><tspan x="9.7" y="0">nal canal</tspan></text>
    <g>
      <line x1="495.4" y1="244.3" x2="495.4" y2="321.7" fill="none" stroke="#0016bb" stroke-miterlimit="10"/>
      <polygon points="494.1 244.7 495.4 242.5 496.6 244.7 494.1 244.7" fill="#0016bb"/>
      <polygon points="494.1 321.4 495.4 323.5 496.6 321.4 494.1 321.4" fill="#0016bb"/>
    </g>
    <text transform="translate(480.3 292.4)" font-size="16" font-family="MyriadPro-Regular, Myriad Pro">8 cm</text>
    <text transform="translate(517.8 292.4)" font-size="16" fill="#0023c9" font-family="MyriadPro-Regular, Myriad Pro"><tspan letter-spacing="-0.01em">L</tspan><tspan x="7.3" y="0" letter-spacing="-0.01em">o</tspan><tspan x="16" y="0" letter-spacing="-0.01em">w</tspan><tspan x="27.6" y="0">er </tspan><tspan x="44.3" y="0" letter-spacing="-0.01em">r</tspan><tspan x="49.3" y="0" letter-spacing="0em">e</tspan><tspan x="57.3" y="0" letter-spacing="0.01em">c</tspan><tspan x="64.7" y="0">tum</tspan></text>
  </g>
  <g id="Layer_4" data-name="Layer 4">
    <line x1="19.9" y1="388" x2="499.9" y2="388" fill="none" stroke="#0023c9" stroke-miterlimit="10" stroke-width="2"/>
    <line x1="13.9" y1="357" x2="499.9" y2="357" fill="none" stroke="#0016bb" stroke-miterlimit="10" stroke-width="2"/>
    <line x1="13.9" y1="327" x2="503.9" y2="327" fill="none" stroke="#7550ff" stroke-miterlimit="10" stroke-width="2"/>
    <line x1="4.9" y1="240" x2="563.9" y2="240" fill="none" stroke="#c9e6ff" stroke-miterlimit="10" stroke-width="2"/>
  </g>
</svg>
