<?xml version="1.0" encoding="utf-8"?>
<!-- Generator: Adobe Illustrator 21.0.0, SVG Export Plug-In . SVG Version: 6.00 Build 0)  -->
<svg version="1.1" id="Layer_1" xmlns="http://www.w3.org/2000/svg" xmlns:xlink="http://www.w3.org/1999/xlink" x="0px" y="0px"
	 viewBox="0 0 551.4 283.3" style="enable-background:new 0 0 551.4 283.3;" xml:space="preserve">
<style type="text/css">
	.st0{fill:none;stroke:#ED1C24;stroke-miterlimit:10;}
	.st1{opacity:0.26;fill:none;stroke:#ED1C24;stroke-miterlimit:10;enable-background:new    ;}
	.st2{fill:none;stroke:#2E3192;stroke-miterlimit:10;}
	.st3{fill:none;stroke:#C49A6C;stroke-width:2;stroke-miterlimit:10;}
	.st4{fill:none;stroke:#C49A6C;stroke-miterlimit:10;}
	.st5{fill:none;stroke:#00A651;stroke-miterlimit:10;}
	.st6{fill:#00A79D;}
	.st7{font-family:'CenturyGothic';}
	.st8{font-size:30px;}
	.st9{fill:none;stroke:#BE1E2D;stroke-width:0.5;stroke-miterlimit:10;}
	.st10{fill:none;stroke:#603913;stroke-width:0.5;stroke-miterlimit:10;}
	.st11{fill:none;stroke:#EC008C;stroke-width:0.5;stroke-miterlimit:10;}
	.st12{fill:none;stroke:#D7DF23;stroke-width:0.5;stroke-miterlimit:10;}
	.st13{fill:none;stroke:#231F20;stroke-miterlimit:10;}
	.st14{fill:#231F20;}
	.st15{font-size:12px;}
	.st16{fill:none;stroke:#00A651;stroke-width:0.5;stroke-miterlimit:10;}
	.st17{fill:none;stroke:#00AEEF;stroke-width:0.5;stroke-miterlimit:10;}
</style>
<title>anterior relation of kidneys</title>
<g id="Layer_1_1_">
	<line class="st0" x1="284.4" y1="59" x2="288.4" y2="282"/>
	<path class="st0" d="M347.9,121.1c0,0-1.7,4.7-9.8,4.5s-21-2.7-22.8-4.8s0-15,0-15L314.9,59"/>
	<path class="st0" d="M350.8,123.9c-0.5,0.2-0.9,0.5-1.1,1l-2.2,3.1c2.8-0.7,5.6-1,8.5-0.9c0.4,0,0.8,0,1.1-0.1
		c0.4-0.2,0.7-0.8,1.1-1"/>
	<path class="st0" d="M357.2,130.6c-0.6,0.2-1.2,0.5-1.7,0.9c-0.1,0.1-0.2,0.2-0.2,0.3c0,0.2,0.3,0.3,0.5,0.3h2.1"/>
	<path class="st0" d="M358.1,138c-1-0.8-2-1.5-3.1-2.1c-1.7-1-3.6-1.3-5.5-1c-0.4,0.1-0.8,0.3-1,0.6c-0.2,0.4-0.1,0.9,0.2,1.3
		c0.3,0.3,0.7,0.6,1.1,0.8c3.4,1.9,6.7,4.2,9.7,6.7"/>
	<path class="st0" d="M314,143.3c0.1,0.4,0.2,0.8,0.3,1.3c0.2,14.2,0.9,137.4,0.9,137.4"/>
	<path class="st1" d="M346.2,147.3c-0.6-0.5-1.3-1.1-2-1.6c-7.4-5.3-16.9-6.8-26-6.8c-1.2-0.2-2.5,0.2-3.5,0.9
		c-0.7,0.7-0.8,3.1-0.8,3.5"/>
	<path class="st0" d="M355.6,154.7c-3.5-1.9-6.3-4.8-9.4-7.4"/>
	<path class="st0" d="M303.1,110.8c1.6,3.9,1.7,8.1,1.8,12.3l0.4,33.2c0,1.3-0.6,3.3-1.9,3.1l-7-1.3c-5.3-14-1.9-29.6-3.3-44.4
		c-0.1-0.9-0.6-2.1-1.4-1.9"/>
	<path class="st2" d="M222.1,178.2c4.4-4,9.9-6.7,15.8-7.8c5.6-1,11.3-1.6,17-1.8v109"/>
	<path class="st2" d="M283.1,58.9h-30.3l4,79.9c0,0,2.5,12.6-6,13.1s-24-4.5-24-4.5"/>
	<path class="st2" d="M227.4,146.9c-0.6,0.3-1,0.9-1.2,1.6c-1,2.5-1.4,5.2-2.6,7.6c-2.3,4.5-7.4,7.1-9.1,11.8
		c-0.2,0.5-0.3,1-0.3,1.6c0.1,1,0.6,1.9,1.3,2.7l5,6.9l1-0.7"/>
	<path class="st2" d="M255,276.4c-0.5,1.5,1,3.1,2.6,3.4s3.3-0.2,4.9-0.1c2,0.1,3.8,1,5.8,1.1c1.4,0,2.8-0.2,4.1-0.5
		c5-1,10.2-1.2,15.3-0.5"/>
	<path class="st0" d="M288.1,282.7c7.2-0.8,14.5-1.6,21.5-0.3c1.8,0.4,4,0.8,5.2-0.6"/>
	<path class="st0" d="M284,58.9l16.2,0.8c5,0.2,10.1,0.5,15.2,0.4"/>
	<path class="st3" d="M360.7,123.9c0,0-12.2-0.1-17.2-6.4s-16.3-31.3,0.5-46c19-16.7,37.3-16.3,61.8,5.5s36.5,98.5,11.5,118.5
		c-24.3,19.5-40,16-58-6s-3.5-39,1.5-46.3"/>
	<path class="st4" d="M358.2,123.9c-0.5,2.7-0.6,5.4-0.3,8.1c0.6,3.9,1.7,7.8,3.5,11.3"/>
	<path class="st3" d="M238.5,150.5c0,0,12.4-3.8,16.4-15.7s-2.7-53.7-40.8-42.5s-62.3,44.5-64.2,76.4c-1.8,31,19.8,68.3,48.3,61.3
		s33.2-28.2,26.2-41.5s-4-9.3-4-9.3"/>
	<path class="st2" d="M282.7,124.4c2.1,0.4,3.3,2.5,4.5,4.3c1.2,1.8,3.1,3.6,5.2,3"/>
	<path class="st2" d="M282.5,153.2c0.7-2.5,2.3-4.6,4.4-6.1c2.1-1.4,4.8-1.9,7.3-1.1l-1.2-0.5"/>
	<path class="st2" d="M305.8,132.8c0,0,40.1-0.6,42.5,1.1"/>
	<path class="st2" d="M305.8,144.3c0,0,34.3-0.3,42.1,4.4s7.5,4.4,7.5,4.4"/>
	<path class="st2" d="M347.4,136.7H332c0,0,20.4,8.8,23.6,12"/>
	<path class="st5" d="M241.4,171.9c2.8,12.7,2.8,25.8,0,38.5c-4.7,20.3-2.8,55.7-2.9,60.7"/>
	<path class="st5" d="M224.7,211.3c0,0,2.7,41.2,2.2,57.2"/>
	<path class="st5" d="M339,145.4c0,0-8.4,28.1-12,54.4s-2,71.3-2,71.3"/>
	<path class="st5" d="M353.2,153.9c0,0-22.6,42.5-21.2,85.9c1,30.9-0.9,32.6-0.9,32.6"/>
	<text transform="matrix(1 0 0 1 10.35 28.09)" class="st6 st7 st8">Anterior relation of Kidneys</text>
</g>
<g id="Layer_2">
	<path class="st9" d="M344.6,118.7l45.7-23.8"/>
	<path class="st10" d="M351.5,65.8c0,0-11.5,42.1-6.8,52.9"/>
	<path class="st11" d="M351.5,66.9c0,0,3.4,11,14.4,12s21.5,8.2,24,13.3s12.3,18.3,18.5,18.5s15.7-1.8,15.7-1.8"/>
	<path class="st11" d="M361.4,144.3c0,0,16.3,11.1,26.4,0s33.9-32.9,36.3-32.6"/>
	<path class="st12" d="M425.2,112.6c0,0-12.1,8.5-9.8,13c2.3,4.5,8.7,6.6,8.7,6.6s-12.1,6.8-6.3,12.9s6.3,7.1,6.3,7.1
		s-9.1,6.1-6.7,9.5s6.7,8.9,6.7,8.9s-7.8,5.3-5.8,10s1.9,6,1.9,6s-10.7,2-9.7,7.6l1,5.6"/>
</g>
<g id="Layer_3">
	<line class="st13" x1="343.5" y1="79.8" x2="445" y2="9.8"/>
	<line class="st13" x1="365" y1="94.9" x2="449.4" y2="66.9"/>
	<line class="st13" x1="387.8" y1="125.6" x2="449.4" y2="118.7"/>
	<line class="st13" x1="422" y1="143.4" x2="449.4" y2="138.9"/>
	<line class="st13" x1="387.8" y1="182.8" x2="449.7" y2="166.8"/>
	<line class="st13" x1="387" y1="74.8" x2="443.7" y2="38.1"/>
</g>
<g id="Layer_4">
	<text transform="matrix(1 0 0 1 449.71 10.31)" class="st14 st7 st15">Suprarenal gland</text>
	<text transform="matrix(1 0 0 1 449.71 40.64)" class="st14 st7 st15">Splenic area</text>
	<text transform="matrix(1 0 0 1 456.04 70.97)" class="st14 st7 st15">Gastric area</text>
	<text transform="matrix(1 0 0 1 456.04 122.16)" class="st14 st7 st15">Pancreatic area</text>
	<text transform="matrix(1 0 0 1 457.37 144.34)" class="st14 st7 st15">Colic area</text>
	<text transform="matrix(1 0 0 1 457.37 174.79)" class="st14 st7 st15">Jenunal area</text>
</g>
<g id="Layer_5">
	<path class="st16" d="M254.9,134.8c0,0-1.8-20-13.2-31S214,92.3,214,92.3"/>
	<path class="st16" d="M203.4,203.7l-8.8,3.8c0,0,9.3,7.2,4.4,13.5c-2.8,3.6-6.2,6.7-10.1,9"/>
	<path class="st9" d="M154.7,198.3c0,0,6.5-30.5,30-31s22.8,1.5,22.8,1.5"/>
	<path class="st17" d="M252.6,125.6c0,0-19.9,7.2-27.4,13.7c-13.3,11.4-22.4,36.1-23,47.4c-1.5,24.5,16.9,31.5,16.9,31.5"/>
</g>
<g id="Layer_6">
	<line class="st13" x1="238.5" y1="94.9" x2="115.4" y2="58.9"/>
	<line class="st13" x1="243.7" y1="135.1" x2="115.9" y2="94.9"/>
	<line class="st13" x1="179.8" y1="143.1" x2="115.7" y2="122.2"/>
	<line class="st13" x1="175.4" y1="186.1" x2="115.4" y2="171.9"/>
	<line class="st13" x1="202.8" y1="216.9" x2="115.7" y2="212.6"/>
</g>
<g id="Layer_7">
	<text transform="matrix(1 0 0 1 0 60.07)" class="st14 st7 st15">Suprarenal gland</text>
	<text transform="matrix(1 0 0 1 10.35 93.4)" class="st14 st7 st15">Duodenal area</text>
	<text transform="matrix(1 0 0 1 20.67 122.16)" class="st14 st7 st15">Hepatic area</text>
	<text transform="matrix(1 0 0 1 39.04 174.09)" class="st14 st7 st15">Colic area</text>
	<text transform="matrix(1 0 0 1 15.04 214.77)" class="st14 st7 st15">Coils of intestine</text>
</g>
</svg>
