<svg xmlns="http://www.w3.org/2000/svg" xmlns:xlink="http://www.w3.org/1999/xlink" viewBox="0 0 438.1289 560.1089">
  <defs>
    <linearGradient id="linear-gradient" x1="271.7641" y1="437.1319" x2="320" y2="437.1319" gradientUnits="userSpaceOnUse">
      <stop offset="0" stop-color="#754c24"/>
      <stop offset="0.6179" stop-color="#a67c52"/>
      <stop offset="1" stop-color="#a67c52"/>
    </linearGradient>
    <linearGradient id="linear-gradient-2" x1="178" y1="431.6147" x2="220.0004" y2="431.6147" gradientUnits="userSpaceOnUse">
      <stop offset="0" stop-color="#a67c52"/>
      <stop offset="0.6179" stop-color="#a67c52"/>
      <stop offset="1" stop-color="#754c24"/>
    </linearGradient>
  </defs>
  <title>arteries ureter</title>
  <g id="Layer_1" data-name="Layer 1">
    <g id="Layer_1-2" data-name="Layer 1">
      <line x1="226.9469" y1="35.312" x2="230.9469" y2="258.312" fill="none" stroke="#ed1c24" stroke-miterlimit="10"/>
      <path d="M145.5029,337c-.0806,0-.1616-.0039-.2437-.0117a2.4994,2.4994,0,0,1-2.2476-2.7295c3.0269-31.2783,85.897-153.002,89.4233-158.168a2.5,2.5,0,0,1,4.13,2.8184c-.8564,1.2549-85.6724,125.8193-88.5767,155.832A2.5,2.5,0,0,1,145.5029,337Z" transform="translate(-6.4531 -5.688)" fill="none" stroke="#ed1c24" stroke-miterlimit="10"/>
      <path d="M296.9,103.1s-1.7,4.7-9.8,4.5-21-2.7-22.8-4.8,0-15,0-15L263.9,41" transform="translate(-6.4531 -5.688)" fill="none" stroke="#ed1c24" stroke-miterlimit="10"/>
      <path d="M299.8,105.9a1.8176,1.8176,0,0,0-1.1,1l-2.2,3.1a30.3632,30.3632,0,0,1,8.5-.9,3.75,3.75,0,0,0,1.1-.1c.4-.2.7-.8,1.1-1" transform="translate(-6.4531 -5.688)" fill="none" stroke="#ed1c24" stroke-miterlimit="10"/>
      <path d="M306.2,112.6a5.5591,5.5591,0,0,0-1.7.9c-.1.1-.2.2-.2.3,0,.2.3.3.5.3h2.1" transform="translate(-6.4531 -5.688)" fill="none" stroke="#ed1c24" stroke-miterlimit="10"/>
      <path d="M307.1,120a21.1234,21.1234,0,0,0-3.1-2.1,8.1689,8.1689,0,0,0-5.5-1,1.7006,1.7006,0,0,0-1,.6,1.2576,1.2576,0,0,0,.2,1.3,4.44,4.44,0,0,0,1.1.8,64.3873,64.3873,0,0,1,9.7,6.7" transform="translate(-6.4531 -5.688)" fill="none" stroke="#ed1c24" stroke-miterlimit="10"/>
      <path d="M263,125.3c.1.4.2.8.3,1.3.2,14.2.9,137.4.9,137.4" transform="translate(-6.4531 -5.688)" fill="none" stroke="#ed1c24" stroke-miterlimit="10"/>
      <path d="M295.2,129.3c-.6-.5-1.3-1.1-2-1.6-7.4-5.3-16.9-6.8-26-6.8a4.897,4.897,0,0,0-3.5.9c-.7.7-.8,3.1-.8,3.5" transform="translate(-6.4531 -5.688)" fill="none" stroke="#ed1c24" stroke-miterlimit="10" opacity="0.26" style="isolation: isolate"/>
      <path d="M304.6,136.7c-3.5-1.9-6.3-4.8-9.4-7.4" transform="translate(-6.4531 -5.688)" fill="none" stroke="#ed1c24" stroke-miterlimit="10"/>
      <path d="M252.1,92.8c1.6,3.9,1.7,8.1,1.8,12.3l.4,33.2c0,1.3-.6,3.3-1.9,3.1l-7-1.3c-5.3-14-1.9-29.6-3.3-44.4-.1-.9-.6-2.1-1.4-1.9" transform="translate(-6.4531 -5.688)" fill="none" stroke="#ed1c24" stroke-miterlimit="10"/>
      <path d="M176.4,128.9a2.4839,2.4839,0,0,0-1.2,1.6c-1,2.5-1.4,5.2-2.6,7.6-2.3,4.5-7.4,7.1-9.1,11.8a4.1456,4.1456,0,0,0-.3,1.6,4.8872,4.8872,0,0,0,1.3,2.7l5,6.9,1-.7" transform="translate(-6.4531 -5.688)" fill="none" stroke="#2e3192" stroke-miterlimit="10"/>
      <path d="M263.8,263.8" transform="translate(-6.4531 -5.688)" fill="none" stroke="#ed1c24" stroke-miterlimit="10"/>
      <path d="M237.1,264.7" transform="translate(-6.4531 -5.688)" fill="none" stroke="#ed1c24" stroke-miterlimit="10"/>
      <path d="M233,40.9l16.2.8c5,.2,10.1.5,15.2.4" transform="translate(-6.4531 -5.688)" fill="none" stroke="#ed1c24" stroke-miterlimit="10"/>
      <path d="M309.7,105.9s-12.2-.1-17.2-6.4-16.3-31.3.5-46c19-16.7,37.3-16.3,61.8,5.5s36.5,98.5,11.5,118.5c-24.3,19.5-40,16-58-6s-3.5-39,1.5-46.3" transform="translate(-6.4531 -5.688)" fill="none" stroke="#c49a6c" stroke-miterlimit="10" stroke-width="2"/>
      <path d="M307.2,105.9a27.5428,27.5428,0,0,0-.3,8.1,37.1235,37.1235,0,0,0,3.5,11.3" transform="translate(-6.4531 -5.688)" fill="none" stroke="#c49a6c" stroke-miterlimit="10"/>
      <path d="M187.5,132.5s12.4-3.8,16.4-15.7-2.7-53.7-40.8-42.5-62.3,44.5-64.2,76.4c-1.8,31,19.8,68.3,48.3,61.3s33.2-28.2,26.2-41.5-4-9.3-4-9.3" transform="translate(-6.4531 -5.688)" fill="none" stroke="#c49a6c" stroke-miterlimit="10" stroke-width="2"/>
      <path d="M189.5,133.5c2.8,12.7,5.8,47.3,3,60-.552,2.384-9.419,9.17-10,13-4.3665,28.78-10.9118,88.5872-11,93" transform="translate(-6.4531 -5.688)" fill="none" stroke="#00a651" stroke-miterlimit="10"/>
      <path d="M173.7,193.3s-9.7,90.2-10.2,106.2" transform="translate(-6.4531 -5.688)" fill="none" stroke="#00a651" stroke-miterlimit="10"/>
      <path d="M163.5,299.5s0,19,17,37c7.2819,7.71,8.1327,14.796,10,26,4,24,4.848,60.5926,8,72" transform="translate(-6.4531 -5.688)" fill="none" stroke="#00a651" stroke-miterlimit="10"/>
      <path d="M214.5,437.5" transform="translate(-6.4531 -5.688)" fill="none" stroke="#00a651" stroke-miterlimit="10"/>
      <path d="M171.5,299.5a37.8426,37.8426,0,0,0,15,32c2.3923,1.8294,6.0189,15.8333,7,21,4.3813,23.0727,9.0693,70.9692,11,80" transform="translate(-6.4531 -5.688)" fill="none" stroke="#00a651" stroke-miterlimit="10"/>
      <path d="M258.5,433.5" transform="translate(-6.4531 -5.688)" fill="none" stroke="#00a651" stroke-miterlimit="10"/>
      <path d="M297.5,144.5s1,70,5,90,15,73,14,91-9,18-13,31-14,72-13,78" transform="translate(-6.4531 -5.688)" fill="none" stroke="#00a651" stroke-miterlimit="10"/>
      <path d="M280.5,130.5s7,34,10,41,1,10,0,19,13,84,13,92,7,31,5,35-8,26-12,33-13,78-12,80" transform="translate(-6.4531 -5.688)" fill="none" stroke="#00a651" stroke-miterlimit="10"/>
      <g>
        <path d="M201.5,444.5a26.4537,26.4537,0,0,0,2.0068,5.6391" transform="translate(-6.4531 -5.688)" fill="none" stroke="#00a651" stroke-miterlimit="10"/>
        <path d="M205.6092,453.7672A20.3832,20.3832,0,0,0,211.5,459.5a70,70,0,0,1,13.7292,11.846" transform="translate(-6.4531 -5.688)" fill="none" stroke="#00a651" stroke-miterlimit="10" stroke-dasharray="10.0776 4.199"/>
        <path d="M226.64,472.9083c1.4794,1.6707,2.7792,3.2407,3.86,4.5917" transform="translate(-6.4531 -5.688)" fill="none" stroke="#00a651" stroke-miterlimit="10"/>
      </g>
      <g>
        <path d="M204.5,444.5a40.45,40.45,0,0,0,2.7281,5.3391" transform="translate(-6.4531 -5.688)" fill="none" stroke="#00a651" stroke-miterlimit="10"/>
        <path d="M209.43,453.04a15.8694,15.8694,0,0,0,5.07,4.46c3.6328,1.8164,9.0986,7.2987,13.0679,11.7858" transform="translate(-6.4531 -5.688)" fill="none" stroke="#00a651" stroke-miterlimit="10" stroke-dasharray="9.3231 3.8846"/>
        <path d="M228.8419,470.751A37.9815,37.9815,0,0,1,232.5,475.5" transform="translate(-6.4531 -5.688)" fill="none" stroke="#00a651" stroke-miterlimit="10"/>
      </g>
      <path d="M372.498,336.001a2.5017,2.5017,0,0,1-2.4326-1.9326c-6.792-29.1094-106.8037-153.7466-107.8135-155.002a2.5,2.5,0,1,1,3.8965-3.1328c4.1514,5.1631,101.7383,126.791,108.7861,156.998a2.5038,2.5038,0,0,1-2.4365,3.0693Z" transform="translate(-6.4531 -5.688)" fill="none" stroke="#ed1c24" stroke-miterlimit="10"/>
    </g>
    <g>
      <path d="M201.5,444.5s48-26,86,2" transform="translate(-6.4531 -5.688)" fill="none" stroke="#c69c6d" stroke-miterlimit="10"/>
      <path d="M198.5,434.5s56-18,92,0" transform="translate(-6.4531 -5.688)" fill="none" stroke="#c69c6d" stroke-miterlimit="10"/>
      <path d="M290.5,434.5s21,22,9,37-45,40-42,46" transform="translate(-6.4531 -5.688)" fill="none" stroke="#c69c6d" stroke-miterlimit="10"/>
      <path d="M287.5,446.5s13,15,7,20-37,39-37,45" transform="translate(-6.4531 -5.688)" fill="none" stroke="#c69c6d" stroke-miterlimit="10"/>
      <path d="M201.5,444.5s-19,33,16,48c22.2312,9.5276,28,13,29,19" transform="translate(-6.4531 -5.688)" fill="none" stroke="#c69c6d" stroke-miterlimit="10"/>
      <path d="M198.5,434.5s-20,18-2,51c9.1485,16.7722,37,19,43,26s6,6,6,6" transform="translate(-6.4531 -5.688)" fill="none" stroke="#c69c6d" stroke-miterlimit="10"/>
    </g>
    <path d="M237.5,264.5s-18.9836,21.1036-59,66c-41,46-49,129-69,148" transform="translate(-6.4531 -5.688)" fill="none" stroke="#ed1c24" stroke-miterlimit="10"/>
    <path d="M146.5,469.5c3-30,19-78,47-110s55-65,55-65,38,46,51,60,36,36,47,72" transform="translate(-6.4531 -5.688)" fill="none" stroke="#ed1c24" stroke-miterlimit="10"/>
    <path d="M263.5,263.5s28,38,61,70c31.7341,30.7725,67,103,65,126" transform="translate(-6.4531 -5.688)" fill="none" stroke="#ed1c24" stroke-miterlimit="10"/>
    <path d="M286.6536,369" transform="translate(-6.4531 -5.688)" fill="none" stroke="#00a651" stroke-miterlimit="10"/>
    <path d="M317.502,455a2.4965,2.4965,0,0,1-2.082-1.1133c-3.7129-5.5693-8.4521-11.3838-21.6875-24.6191-3.6348-3.6357-7.0859-5.3115-10.2607-4.958-4.3525.4736-7.0684,4.6494-7.0947,4.6914a2.5,2.5,0,0,1-4.2324-2.6621c.1582-.2539,3.9668-6.2256,10.7256-6.9932,4.7637-.542,9.6162,1.6045,14.3975,6.3867,13.5283,13.5283,18.4258,19.5508,22.3125,25.3809A2.5,2.5,0,0,1,317.502,455Z" transform="translate(-6.4531 -5.688)" fill="url(#linear-gradient)"/>
    <path d="M180.5,446a2.5,2.5,0,0,1-2.5-2.5c0-3.5332,9.1353-18.0967,19.2139-24.1436,9.6074-5.7666,16.479,1.6338,19.7813,5.1885a16.8918,16.8918,0,0,0,1.8916,1.875,2.5,2.5,0,0,1-2.7734,4.16,17.2953,17.2953,0,0,1-2.7812-2.6318c-4.0566-4.3672-7.8755-7.707-13.5459-4.3047-8.75,5.25-16.21,17.6113-16.7925,20.0342A2.5,2.5,0,0,1,180.5,446Zm2.4819-2.2705v0ZM183,443.5v0Z" transform="translate(-6.4531 -5.688)" fill="url(#linear-gradient-2)"/>
    <path d="M227.87,126.16a180.9977,180.9977,0,0,0-20.64.15c-9,.77-20.7,12.66-24.37,5.63" transform="translate(-6.4531 -5.688)" fill="none" stroke="#ed1c24" stroke-linecap="round" stroke-miterlimit="10"/>
    <path d="M233.4,142.65s-22.53-3.12-32.2,4.88-38.33,12.34-38.33,19.67" transform="translate(-6.4531 -5.688)" fill="none" stroke="#ed1c24" stroke-miterlimit="10"/>
    <path d="M159.54,157.53s21.33-7,23.33-8.67-18.67-3-23.33,0" transform="translate(-6.4531 -5.688)" fill="none" stroke="#ed1c24" stroke-miterlimit="10"/>
    <path d="M162.87,137.94,183,143.87s-10.8-10.53-9.6-12.13" transform="translate(-6.4531 -5.688)" fill="none" stroke="#ed1c24" stroke-miterlimit="10"/>
    <path d="M232.7,123.45c.08-.15-2.24,3.16-4.83,2.72" transform="translate(-6.4531 -5.688)" fill="none" stroke="#ed1c24" stroke-miterlimit="10"/>
    <path d="M222.5,125.5s-8,9-4-23" transform="translate(-6.4531 -5.688)" fill="none" stroke="#ed1c24" stroke-miterlimit="10"/>
    <path d="M216.5,116.5s-33,38-32,46" transform="translate(-6.4531 -5.688)" fill="none" stroke="#ed1c24" stroke-miterlimit="10"/>
  </g>
  <g id="Layer_3" data-name="Layer 3">
    <line x1="184.0469" y1="176.812" x2="82.0469" y2="188.812" fill="none" stroke="#000" stroke-miterlimit="10"/>
    <line x1="162.0469" y1="262.812" x2="98.0469" y2="299.812" fill="none" stroke="#000" stroke-miterlimit="10"/>
    <line x1="177.0469" y1="380.812" x2="114.0469" y2="397.812" fill="none" stroke="#000" stroke-miterlimit="10"/>
    <text transform="translate(113.6543 20.6157)" font-size="24" fill="red" font-family="CenturyGothic, Century Gothic">Arterial supply of ureter</text>
    <text transform="translate(19.5972 207.6157)" font-size="14" font-family="CenturyGothic, Century Gothic"><tspan xml:space="preserve"> Branches </tspan><tspan x="-1.3193" y="16.7998">from renal </tspan><tspan x="15.4492" y="33.6001">artery</tspan></text>
    <text transform="translate(11.5972 292.6157)" font-size="14" font-family="CenturyGothic, Century Gothic"><tspan xml:space="preserve"> Branches </tspan><tspan x="-11.5972" y="16.7998">from gonadal</tspan><tspan x="15.4492" y="33.6001">artery</tspan></text>
    <text transform="translate(21.5972 389.6157)" font-size="14" font-family="CenturyGothic, Century Gothic"><tspan xml:space="preserve"> Branches </tspan><tspan x="-14.5332" y="16.7998">from Common</tspan><tspan x="-0.0034" y="33.6001">iliac artery</tspan></text>
    <text transform="translate(333.5972 488.6157)" font-size="14" font-family="CenturyGothic, Century Gothic"><tspan xml:space="preserve"> Branches </tspan><tspan x="-9.3618" y="16.7998">from internal </tspan><tspan x="2.1021" y="33.6001">iliac artey</tspan><tspan x="-34.2993" y="50.3999">inferior vesical artery</tspan><tspan x="-9.9907" y="67.2002">uterine artery</tspan></text>
    <text transform="translate(6.5972 74.6157)" font-size="14" font-family="CenturyGothic, Century Gothic"><tspan xml:space="preserve"> Branches </tspan><tspan x="-4.8877" y="16.7998">from inferior</tspan><tspan x="-0.6255" y="33.6001">suprarenal</tspan><tspan x="15.4492" y="50.3999">artery</tspan></text>
    <line x1="205.0469" y1="116.812" x2="85.0469" y2="96.812" fill="none" stroke="#000" stroke-miterlimit="10"/>
  </g>
  <g id="Layer_4" data-name="Layer 4">
    <path d="M211.5,144.5s-18,38-28,46-9,36-10,42" transform="translate(-6.4531 -5.688)" fill="none" stroke="#ed1c24" stroke-miterlimit="10"/>
    <path d="M185.5,188.5s-3,0-5-8-4-14-4-14" transform="translate(-6.4531 -5.688)" fill="none" stroke="#ed1c24" stroke-miterlimit="10"/>
    <path d="M186.9114,246.4S168.5,264.5,169.5,255.5a108.2769,108.2769,0,0,1,3-16" transform="translate(-6.4531 -5.688)" fill="none" stroke="#ed1c24" stroke-miterlimit="10"/>
    <path d="M170.5,258.5s-2,6-2,10-2,22-1,25" transform="translate(-6.4531 -5.688)" fill="none" stroke="#ed1c24" stroke-miterlimit="10"/>
    <path d="M176.1508,383.623s14.6,7.123,16.9745,0S196.5,362.5,193.5,356.5s-4-10-6-14" transform="translate(-6.4531 -5.688)" fill="none" stroke="#ed1c24" stroke-miterlimit="10"/>
    <path d="M194.5,381.5s5,12,4,16,1,13,1,14" transform="translate(-6.4531 -5.688)" fill="none" stroke="#ed1c24" stroke-miterlimit="10"/>
  </g>
</svg>
