<svg xmlns="http://www.w3.org/2000/svg" viewBox="0 0 504.57 434.37">
  <title>arterial supply appendix</title>
  <g id="Layer_1" data-name="Layer 1">
    <path d="M158.73,241.71c2.4,1.62,4.79,3.25,7.21,4.84,5.06,3.33,5.55,3.09,5.84-3a74.27,74.27,0,0,0-5.49-31.27c-2.86-7.19-6.69-13.57-14.77-16.09a8.47,8.47,0,0,1-4.68-3.94c1.42,0,2.14.89,3,1.39,6.43,3.63,9.89,2.15,11.74-5.1.07-.28.12-.57.18-.85,2.22-10.28-.67-20-3.3-29.73-.36-1.33-1.18-1.44-2.47-1.1a60.77,60.77,0,0,1-6.83,1.36c-12.41,1.82-24.92,2-37.43,2.26-2.59.06-3.63.85-3.88,3.41-1,9.65-1.8,19.3-2.35,29-2,35.5.21,70.53,11.24,104.6C122,313.66,129.63,328.73,140.6,342c11.22,13.54,24.81,23.87,41.27,30.31,2.44,1,4.06.77,5.7-1.46a91.91,91.91,0,0,0,6.27-9.43c1.71-3.06,2.06-6.58,3.92-9.68,2-3.27,2.27-7.36,2.81-11.21a68.52,68.52,0,0,0-1.27-27.1c-1.06-4-2.85-7-4.63-10.54-1.89-3.8-1.84-9.07-2.39-13.23-.62-4.7-2.14-9.2-2.88-13.87-1-6.32-6-13.57-10.19-18.24-2.27-2.53-4.67-5-8-6.13C166,249.62,162.25,245.82,158.73,241.71Z" transform="translate(-46.12 -16)" fill="none" stroke="#231f20" stroke-miterlimit="10"/>
    <path d="M68.4,291.79a15.92,15.92,0,0,1-5.85,7.78,7.44,7.44,0,0,0-3,4.12c-2.39,7.13-2.65,14.47-2,21.86,1.73,18.64,8.4,35,22.75,47.57,11.34,10,25,14.57,39.67,16.53,16.41,2.19,32.32.74,47.43-6.49.65-.31,1.74-.29,1.62-1.33-.09-.79-1.08-.67-1.66-.93-7.79-3.5-15.48-7.18-22.51-12.09-27.17-19-41.22-46.33-49.35-77.42a227.81,227.81,0,0,1-5.91-32.87A351.54,351.54,0,0,1,88.18,199c.76-12.59,2-25.13,3.45-37.64.28-2.41-.41-3.39-2.91-3.35-3.59.06-7.18-.07-10.76-.2-7.75-.27-15.52-.61-23.11-2.34-2.18-.49-2.88-.11-3.47,1.89-4.39,14.9-6.26,30-3.36,45.39a32.92,32.92,0,0,0,6.44,14.77c1.61,2,3,2.09,4.79.45,1.6-1.47,3.25-2.88,5.5-4.88-1.33,3.47-3.07,5.73-5.5,7.06-5.16,2.83-7.45,7.55-8.86,12.76-4.45,16.42-3.68,32.82.69,49.13a35.75,35.75,0,0,0,7.54,14.92c1.3,1.47,2.39,1.53,3.92.33C64.66,295.61,66.17,293.34,68.4,291.79Z" transform="translate(-46.12 -16)" fill="none" stroke="#231f20" stroke-miterlimit="10"/>
    <path d="M155.7,150.23c-4.36-1.51-8.81-1.83-13.22-2.15a477.83,477.83,0,0,0-72-.19,86.52,86.52,0,0,0-14.66,2c-.74.19-1.78.26-1.84,1.14s1,1,1.73,1.15a68.22,68.22,0,0,0,9.74,1.6,409.2,409.2,0,0,0,47,1.34,273.73,273.73,0,0,0,36.18-2.78C151,152,153.53,151.71,155.7,150.23Z" transform="translate(-46.12 -16)" fill="none" stroke="#000" stroke-miterlimit="10"/>
    <path d="M185.62,389.66l0,0a66.39,66.39,0,0,1,10.46,13.54A96.08,96.08,0,0,0,226,434.1a94.47,94.47,0,0,0,23.62,11.1c12.54,3.84,25.26,6.15,38.41,3.59,3.84-.75,7.54-1.89,10.49-4.66.64-.6,1.46-1.25,1.19-2.18-.32-1.08-1.43-.8-2.26-.76-2.42.12-4.84.32-7.26.48-12.06.8-24,.57-35.75-3a104.56,104.56,0,0,1-21.63-9.57c-3.56-2.08-6.4-6.29-9.16-9.3a93.37,93.37,0,0,0-9.52-9.38c-4.43-3.62-5.57-8.37-8.64-13.1s-6.16-9.61-9.62-14.15c-4-5.21-10.35-7.72-16.16-10.24-31.12-13.5-50.88-37.46-62.78-68.58-7.25-19-11-38.74-12.93-58.86-2.64-27.63-1.53-55.22,1.71-82.73.26-2.18-.47-2.84-2.43-2.82-2.33,0-4.66.06-7,0-2-.06-2.93.74-3.13,2.86-1,10.91-2.29,21.78-3.07,32.72-2,28.38-1.22,56.58,4.15,84.58,3.39,17.7,8.74,34.73,17.46,50.59,14.21,25.84,34.71,44.13,63.34,52.64A26.18,26.18,0,0,1,185.62,389.66Z" transform="translate(-46.12 -16)" fill="none" stroke="#000" stroke-miterlimit="10"/>
  </g>
  <g id="Layer_4" data-name="Layer 4">
    <path d="M289.2,218l-.5,0a5,5,0,0,1-4.48-5.47c.08-.83,2.13-20.74,10.13-51.8,7.78-30.19,12.8-138.84,12.85-139.93a5,5,0,0,1,10,.45C317,25.74,312.07,132,304,163.2c-7.79,30.25-9.85,50.1-9.87,50.3A5,5,0,0,1,289.2,218Z" transform="translate(-46.12 -16)" fill="#ed1c24"/>
    <path d="M346.48,315.73a156.9,156.9,0,0,1-22-3.61,154,154,0,0,1-43.22-17.33,107.14,107.14,0,0,1-18.5-13.88,77.15,77.15,0,0,1-7.74-8.46l-1.75-2.26c-.57-.76-1.05-1.58-1.58-2.36s-1.06-1.58-1.53-2.38-.91-1.58-1.27-2.42c-3.12-6.64-4-14.28-3.76-21.84a109.91,109.91,0,0,1,3.41-22.7c3.73-15,9.46-29.55,15.9-43.74s13.78-28,21.56-41.58Q291.87,123,298.07,113c4.13-6.61,8.4-13.23,12.76-19.58l-8.28-5.61c-4.38,6.75-8.47,13.48-12.5,20.33s-7.91,13.74-11.68,20.71c-7.52,14-14.56,28.19-20.78,42.82s-11.65,29.66-15.13,45.34a115.71,115.71,0,0,0-2.95,24,65.94,65.94,0,0,0,1,12.26,44.22,44.22,0,0,0,3.88,11.88c.44,1,1,1.85,1.54,2.77s1.15,1.69,1.73,2.54,1.14,1.7,1.77,2.49l1.93,2.36a81.67,81.67,0,0,0,8.42,8.72A111.17,111.17,0,0,0,279.38,298a157,157,0,0,0,44.56,16.53,159.05,159.05,0,0,0,22.5,3.08A5.83,5.83,0,0,1,346.48,315.73Z" transform="translate(-46.12 -16)" fill="#ed1c24"/>
    <path d="M274.45,149.76a5,5,0,0,0-6.94-1.37l0,0c-1,.65-2.15,1.39-3.27,2.06s-2.28,1.35-3.44,2q-3.48,2-7.07,3.73a129.21,129.21,0,0,1-14.7,6.18,89.78,89.78,0,0,1-15.27,3.92,55.59,55.59,0,0,1-15.38.45,34.88,34.88,0,0,1-25.2-14.91,56.48,56.48,0,0,1-7.06-13.95,94.42,94.42,0,0,1-3.89-15.57,142.79,142.79,0,0,1-1.72-16.16c-.3-5.45-.48-11-.73-16.48l-.23-5.44a4.85,4.85,0,0,1-2.64.72,5.61,5.61,0,0,1-.9-.08l0,4.89c0,5.52,0,11,.11,16.55a147.42,147.42,0,0,0,1.15,16.74,99.67,99.67,0,0,0,3.5,16.6A62.37,62.37,0,0,0,178,155.42,42.42,42.42,0,0,0,190.53,168a43.27,43.27,0,0,0,16.75,6.23,63.32,63.32,0,0,0,17.55.17,98.15,98.15,0,0,0,16.86-3.64,138.22,138.22,0,0,0,16-6q3.89-1.74,7.69-3.69,1.9-1,3.77-2c1.27-.71,2.46-1.38,3.8-2.21l.16-.1A5,5,0,0,0,274.45,149.76Z" transform="translate(-46.12 -16)" fill="#ed1c24"/>
    <path d="M245.11,214.37c-16.31,11.78-32.54,24.33-44,40.84-4.47,6.43-8.18,13.41-13.29,19.35C178,286,163.83,292.66,150.14,299" transform="translate(-46.12 -16)" fill="none" stroke="#ed1c24" stroke-miterlimit="10" stroke-width="3"/>
    <path d="M240.21,250.29a208.59,208.59,0,0,1-25.48,27.49c-4.42,4.1-9,8.12-12.55,13s-6.14,10.69-6,16.72" transform="translate(-46.12 -16)" fill="none" stroke="#ed1c24" stroke-miterlimit="10" stroke-width="3"/>
    <path d="M251.11,273.45l-15.72,16.91c-5.41,5.82-10.89,11.73-14.48,18.82-2.8,5.52-4.35,11.58-5.65,17.63-2.83,13.18-4.53,26.8-2.63,40.15,4.24,29.8,28,55.86,57.24,62.87" transform="translate(-46.12 -16)" fill="none" stroke="#ed1c24" stroke-miterlimit="10" stroke-width="3"/>
    <path d="M217.18,322.59,197.07,342c-3.92,3.79-8.41,7.83-13.86,7.85" transform="translate(-46.12 -16)" fill="none" stroke="#ed1c24" stroke-miterlimit="10"/>
    <path d="M212.37,361.56a228.53,228.53,0,0,1-22.92,28" transform="translate(-46.12 -16)" fill="none" stroke="#ed1c24" stroke-miterlimit="10"/>
    <path d="M213.44,379.69c2.12,6.18-.24,12.88-.62,19.4-.37,6.31,1.14,12.57,2.88,18.65" transform="translate(-46.12 -16)" fill="none" stroke="#ed1c24" stroke-miterlimit="10"/>
    <path d="M229.2,407A27.55,27.55,0,0,1,233,417.88c.65,5.13-.1,10.59,2.09,15.27a12.83,12.83,0,0,1,2.7,4.2" transform="translate(-46.12 -16)" fill="none" stroke="#ed1c24" stroke-miterlimit="10"/>
    <path d="M250.61,422.17a10.93,10.93,0,0,1,3.8,4.4c2,3.63,3.24,7.63,5.28,11.23s5.14,6.92,9.19,7.8" transform="translate(-46.12 -16)" fill="none" stroke="#ed1c24" stroke-miterlimit="10"/>
  </g>
  <g id="Layer_2" data-name="Layer 2">
    <line x1="262.54" y1="42" x2="323.21" y2="42" fill="none" stroke="#231f20" stroke-miterlimit="10"/>
    <text transform="translate(323.21 34.48)" font-size="20" fill="#231f20" font-family="MyriadPro-Regular, Myriad Pro">Supe<tspan x="42.28" y="0" letter-spacing="0em">r</tspan><tspan x="48.9" y="0">ior mese</tspan><tspan x="119.98" y="0" letter-spacing="0em">n</tspan><tspan x="131" y="0" letter-spacing="-0.01em">t</tspan><tspan x="137.5" y="0">e</tspan><tspan x="147.52" y="0" letter-spacing="0em">r</tspan><tspan x="154.14" y="0">ic </tspan><tspan x="0" y="24">a</tspan><tspan x="9.64" y="24" letter-spacing="0.02em">r</tspan><tspan x="16.66" y="24" letter-spacing="-0.01em">t</tspan><tspan x="23.16" y="24" letter-spacing="0em">e</tspan><tspan x="33.18" y="24" letter-spacing="0.02em">r</tspan><tspan x="40.22" y="24">y</tspan></text>
    <line x1="237.87" y1="111.59" x2="317.88" y2="111.59" fill="none" stroke="#231f20" stroke-miterlimit="10"/>
    <text transform="translate(323.21 121.61)" font-size="20" fill="#231f20" font-family="MyriadPro-Regular, Myriad Pro"><tspan letter-spacing="0.01em">I</tspan><tspan x="4.98" y="0">leo</tspan><tspan x="30.7" y="0" letter-spacing="-0.01em">c</tspan><tspan x="39.54" y="0" letter-spacing="0em">olic a</tspan><tspan x="82.76" y="0" letter-spacing="0.02em">r</tspan><tspan x="89.78" y="0" letter-spacing="-0.01em">t</tspan><tspan x="96.28" y="0">e</tspan><tspan x="106.3" y="0" letter-spacing="0.03em">r</tspan><tspan x="113.34" y="0">y</tspan></text>
    <text transform="translate(323.21 232.29)" font-size="20" fill="#231f20" font-family="MyriadPro-Regular, Myriad Pro"><tspan letter-spacing="0em">A</tspan><tspan x="12.18" y="0">ppendicular a</tspan><tspan x="126.78" y="0" letter-spacing="0.02em">r</tspan><tspan x="133.8" y="0" letter-spacing="-0.01em">t</tspan><tspan x="140.3" y="0">e</tspan><tspan x="150.32" y="0" letter-spacing="0.03em">r</tspan><tspan x="157.36" y="0">y</tspan></text>
    <line x1="193.87" y1="225.19" x2="317.88" y2="225.19" fill="none" stroke="#231f20" stroke-miterlimit="10"/>
  </g>
  <g id="Layer_3" data-name="Layer 3">
    <text transform="translate(253.18 349.56)" font-size="40" fill="#ed1c24" font-family="MyriadPro-Regular, Myriad Pro"><tspan letter-spacing="0em">A</tspan><tspan x="24.36" y="0" letter-spacing="0.02em">r</tspan><tspan x="38.4" y="0" letter-spacing="-0.01em">t</tspan><tspan x="51.4" y="0">e</tspan><tspan x="71.44" y="0" letter-spacing="0em">r</tspan><tspan x="84.68" y="0" letter-spacing="0em">ial supply </tspan><tspan x="25.9" y="48">of appendix</tspan></text>
  </g>
</svg>
