<?xml version="1.0" encoding="utf-8"?>
<!-- Generator: Adobe Illustrator 21.0.0, SVG Export Plug-In . SVG Version: 6.00 Build 0)  -->
<svg version="1.1" xmlns="http://www.w3.org/2000/svg" xmlns:xlink="http://www.w3.org/1999/xlink" x="0px" y="0px"
	 viewBox="0 0 841.9 595.3" style="enable-background:new 0 0 841.9 595.3;" xml:space="preserve">
<style type="text/css">
	.st0{fill:#2E3192;}
	.st1{font-family:'CenturyGothic';}
	.st2{font-size:18px;}
	.st3{fill:#BE1E2D;}
	.st4{font-size:42px;}
	.st5{fill:none;stroke:#8B5E3C;stroke-width:4;stroke-linecap:round;stroke-miterlimit:10;}
	.st6{fill:none;stroke:#8B5E3C;stroke-width:3;stroke-miterlimit:10;}
	.st7{fill:none;stroke:#8B5E3C;stroke-width:2;stroke-miterlimit:10;}
	.st8{fill:#ED1C24;}
	.st9{fill:none;stroke:#ED1C24;stroke-width:7;stroke-linecap:round;stroke-miterlimit:10;}
	.st10{fill:none;stroke:#ED1C24;stroke-width:6;stroke-miterlimit:10;stroke-dasharray:10,5;}
	.st11{fill:none;stroke:#ED1C24;stroke-width:6;stroke-miterlimit:10;}
	.st12{fill:none;stroke:#ED1C24;stroke-width:8;stroke-linecap:round;stroke-linejoin:round;stroke-miterlimit:10;}
	.st13{fill:none;stroke:#ED1C24;stroke-width:4;stroke-miterlimit:10;}
	.st14{fill:none;stroke:#000000;stroke-width:2;stroke-miterlimit:10;}
	.st15{font-size:32px;}
	.st16{fill:none;stroke:#A7A9AC;stroke-width:5;stroke-miterlimit:10;}
	.st17{fill:#A7A9AC;}
	.st18{fill:none;}
</style>
<g id="Layer_1">
</g>
<g id="Layer_2">
	<text transform="matrix(1 0 0 1 601.5134 160.8332)" class="st0 st1 st2">Gastroduodenal artery</text>
	<text transform="matrix(1 0 0 1 137.1191 44.0267)" class="st3 st1 st4">Arterial supply of duodenum</text>
	<path class="st5" d="M514,191c0,0-110-73-161-47s-153,75-128,215s113,164,214,134s186.8-78.5,198.8-42.5"/>
	<path class="st6" d="M519.4,193.8c-4.6-2.7-10.3-2.7-14.9-0.2c-13.2,7.1-40.2,26.5-35.2,64.1c6.7,49.3,43.3,17.3,51.3-17.3
		C527.4,211.2,530.8,200.4,519.4,193.8z"/>
	<path class="st7" d="M515.7,206.7c-3.8-3.1-11.7-5-16-2.6c-9.9,5.5-26.2,21.3-22.5,48.2c4.9,36.2,31.8,12.7,37.7-12.7
		C519.3,220,521.8,211.7,515.7,206.7z"/>
	<path class="st5" d="M479.9,281.2c0,0-69.4-38.2-99.9-34.2s-97.7,61.6-57,122c31,46,61,35,93.5,32c62-5.7,152-79.5,195-63.5
		s79.5,37,84.5,62.5s5.4,33.3,5.4,33.3"/>
	<g>
		<g>
			<path class="st6" d="M701.3,435.6c-0.5-3.7-2.9-6.9-6.3-8.6c-9.4-4.6-31.4-12.1-49.5,6c-23.7,23.7,9.2,31.6,31.2,22.1
				C695.3,447.1,702.6,444.7,701.3,435.6z"/>
		</g>
		<path class="st7" d="M692.7,438.7c0-3.4-2.3-8.6-5.5-10.1c-7.2-3.4-22.6-6.2-35.5,6.7c-17.4,17.4,6.7,23.2,22.9,16.2
			C687.1,446.1,692.6,444.2,692.7,438.7z"/>
	</g>
	<g>
		<path class="st8" d="M459.2,336.8c6.9,42.7,13.5,85.3,19.4,128.1l2.2,16.1l2,16.1c1.3,10.8,2.6,21.5,3.4,32.5
			c0.9,11,1.4,21.8,1.9,32.6l1.4,32.3c1.7,43.1,3.1,86.1,4.5,129.2L498,853l-12.2-128.6c-4.1-42.9-8.3-85.7-12.7-128.5l-3.4-32.1
			c-1.2-10.7-2.3-21.3-3.9-31.7c-1.5-10.4-3.5-20.9-5.4-31.4l-3-15.8l-3.1-15.8c-8.6-42-17.8-84.1-27.4-125.9l0-0.1
			c-2-8.9,3.5-17.7,12.4-19.8c8.9-2,17.7,3.5,19.8,12.4C459.1,336.1,459.1,336.5,459.2,336.8z"/>
	</g>
	<path class="st9" d="M431.8,381c0,0-68.3,40.5-101.1-17.2S351,277,351,277s45.2-34,70.4-14"/>
	<path class="st10" d="M468.7,165.3c0,0-41.7,91.7-44.7,100.2"/>
	<line class="st11" x1="486.5" y1="133.5" x2="470.5" y2="163"/>
	<path class="st12" d="M555,120c0,0-19,42-68.5,9s-73-46-89-69"/>
	<path class="st13" d="M476.3,148.3c0,0-20.3-18.9-90.3-14.8s-74,41.5-82,50.2c-8,8.7-20,42-20,42"/>
	<path class="st13" d="M389,265.5c0,0-56,27-53.5,51.5s13,56,30.5,59s50.2,12.9,58,9"/>
	<text transform="matrix(1 0 0 1 24.4295 191.7015)" class="st0 st1 st2">Spraduodenal artery</text>
	<line class="st14" x1="298.2" y1="195.6" x2="210.6" y2="188.4"/>
	<text transform="matrix(1 0 0 1 22.1101 376.0003)"><tspan x="0" y="0" class="st0 st1 st2">Pancreatico</tspan><tspan x="8.6" y="21.6" class="st0 st1 st2">duodenal </tspan><tspan x="22.5" y="43.2" class="st0 st1 st2">arteries</tspan></text>
	<line class="st14" x1="335.8" y1="289.3" x2="129" y2="404"/>
	<line class="st14" x1="350.2" y1="363.8" x2="129" y2="404"/>
	<text transform="matrix(1 0 0 1 22.1407 558.451)" class="st0 st1 st15">Superior mesenteric artery</text>
	<g>
		<polygon points="65,317.5 150.7,316.3 236.5,315.4 408,313.8 579.5,312.6 665.2,312.2 751,312 665.3,313.2 579.5,314.1 408,315.7 
			236.5,316.9 150.8,317.3 		"/>
	</g>
	<line class="st14" x1="476.3" y1="509" x2="411" y2="532"/>
	<text transform="matrix(1 0 0 1 686.2035 219.6667)"><tspan x="0" y="0" class="st0 st1 st2">Upper part by </tspan><tspan x="8.4" y="21.6" class="st0 st1 st2">branches of </tspan><tspan x="10.7" y="43.2" class="st0 st1 st2">Celiac trunk</tspan><tspan x="24.7" y="64.8" class="st0 st1 st2">(foregut)</tspan></text>
	<text transform="matrix(1 0 0 1 697.8451 340.0201)"><tspan x="0" y="0" class="st0 st1 st2">Lower part by </tspan><tspan x="7.7" y="21.6" class="st0 st1 st2">branches of </tspan><tspan x="25" y="43.2" class="st0 st1 st2">Superior </tspan><tspan x="11.9" y="64.8" class="st0 st1 st2">Mesenteric </tspan><tspan x="37.3" y="86.4" class="st0 st1 st2">artery</tspan><tspan x="25.1" y="108" class="st0 st1 st2">(Midgut)</tspan></text>
	<g>
		<g>
			<line class="st16" x1="663.2" y1="303.4" x2="663.2" y2="279.2"/>
			<g>
				<path class="st17" d="M663.2,280.8c-3.9,3.9-11.7,5.8-17,5.9c7.2-5.4,13.5-12.4,17-20.8c3.4,8.4,10.1,15.1,17,20.8
					C674.5,286.2,667.5,284.8,663.2,280.8z"/>
			</g>
		</g>
	</g>
	<g>
		<g>
			<line class="st16" x1="663.2" y1="317.5" x2="663.2" y2="341.6"/>
			<g>
				<path class="st17" d="M663.2,340.1c3.9-3.9,11.7-5.8,17-5.9c-7.2,5.4-13.5,12.4-17,20.8c-3.4-8.4-10.1-15.1-17-20.8
					C651.9,334.6,658.9,336,663.2,340.1z"/>
			</g>
		</g>
	</g>
</g>
<g id="Layer_3">
	<g>
		<path class="st8" d="M369.7,276.9c-2.6-2.9-5.3-5.8-8-8.6c-2.7-2.8-5.6-5.6-8.4-8.3c-2.9-2.7-5.8-5.4-8.7-8c-3-2.6-6-5.1-9.1-7.6
			c3.3,2.2,6.5,4.5,9.7,6.8c3.2,2.3,6.3,4.8,9.4,7.2c3.1,2.5,6.1,5,9.2,7.6c3,2.6,6,5.2,8.9,8L369.7,276.9z"/>
	</g>
	<g>
		<path class="st8" d="M350.6,290.7c-3-3.3-6.2-6.6-9.4-9.9c-3.2-3.2-6.5-6.4-9.8-9.5c-3.3-3.1-6.8-6.1-10.3-9
			c-3.5-2.9-7.1-5.7-10.9-8.3c3.9,2.4,7.7,4.9,11.5,7.5c3.7,2.7,7.4,5.4,11,8.3c3.6,2.9,7.1,5.8,10.6,8.8c3.5,3,6.9,6.1,10.2,9.3
			L350.6,290.7z"/>
	</g>
	<g>
		<path class="st8" d="M324.9,298.8c-1.4-2.3-2.6-4.5-3.8-6.8l-3.7-6.8c-2.4-4.5-4.8-9.1-7.1-13.6c2.9,4.2,5.9,8.4,8.8,12.6l4.5,6.2
			c1.5,2,3,4.2,4.6,6L324.9,298.8z"/>
	</g>
	<g>
		<polygon class="st8" points="317.2,311.1 282,283 319.6,307.9 		"/>
	</g>
	<g>
		<path class="st8" d="M320.8,323.2c-1.8,0.7-3.5,1.1-5.3,1.5c-1.8,0.4-3.5,0.6-5.3,0.7c-3.6,0.3-7.2,0-10.7-1
			c-1.7-0.5-3.4-1.2-5-2.1c-1.6-0.9-3.1-1.9-4.4-3.1c-2.7-2.4-4.8-5.3-6.4-8.4l-1.2-2.3c-0.4-0.8-0.8-1.4-1.3-2.1
			c-0.9-1.3-2-2.7-3.2-3.7c-2.4-2.2-5.6-3.6-8.9-3.7c-3.3-0.2-6.7,0.6-9.8,1.9c-3.1,1.3-6.1,3-8.8,5.1c2.6-2.2,5.5-4.1,8.6-5.6
			c3.1-1.4,6.5-2.4,10.1-2.4c1.8,0,3.5,0.3,5.2,0.9c1.7,0.6,3.2,1.6,4.6,2.7c1.4,1.1,2.6,2.5,3.6,3.9c0.5,0.7,1,1.4,1.5,2.2l1.3,2.2
			c1.7,2.9,3.7,5.5,6.3,7.5c1.3,1,2.6,1.9,4.1,2.6c1.4,0.7,3,1.2,4.5,1.6c3.1,0.7,6.4,0.8,9.6,0.5c1.6-0.2,3.2-0.5,4.8-0.9
			c1.5-0.4,3.2-0.9,4.5-1.5L320.8,323.2z"/>
	</g>
	<g>
		<path class="st18" d="M320,340"/>
	</g>
	<g>
		<path class="st18" d="M277.5,340"/>
	</g>
	<g>
		<path class="st8" d="M320,338.4c-1.1-0.4-2.5-0.8-3.8-1.1c-1.3-0.3-2.6-0.6-4-0.8c-2.7-0.5-5.4-0.7-8.1-0.7
			c-5.4-0.1-10.9,0.4-16.2,1.7c-5.4,1.2-10.5,3.3-15.6,5.5c-2.6,1.1-5.1,2.2-7.6,3.5c-1.2,0.6-2.5,1.3-3.7,2
			c-0.6,0.4-1.2,0.7-1.7,1.2c-0.3,0.2-0.5,0.5-0.7,0.7c-0.1,0.1-0.2,0.3-0.1,0.5c0.1,0.2,0.2,0.2,0.4,0.3c-0.2,0-0.4-0.1-0.4-0.3
			c-0.1-0.2,0-0.4,0.1-0.5c0.2-0.3,0.4-0.6,0.7-0.8c0.5-0.5,1.1-0.9,1.7-1.3c1.2-0.8,2.4-1.5,3.6-2.2c2.4-1.4,4.9-2.7,7.4-3.9
			c4.9-2.5,10.1-4.9,15.5-6.5c5.4-1.6,11.1-2.5,16.7-2.7c2.8-0.1,5.7,0,8.6,0.3c1.4,0.1,2.8,0.3,4.3,0.6c1.4,0.3,2.8,0.5,4.3,1
			L320,338.4z"/>
	</g>
	<g>
		<path class="st8" d="M328.1,356.8c-2.5,2.7-5.2,4.9-8,6.9c-2.8,2-5.7,3.9-8.8,5.5c-3.1,1.6-6.2,3-9.4,4.1c-3.2,1.2-6.5,2-9.9,2.7
			c3.2-1,6.4-2.2,9.5-3.6c3.1-1.4,6-3.1,8.8-4.9c2.8-1.8,5.4-3.9,7.9-6.1c1.2-1.1,2.4-2.3,3.6-3.4c1.1-1.2,2.3-2.5,3.2-3.7
			L328.1,356.8z"/>
	</g>
	<g>
		<path class="st18" d="M331.2,371"/>
	</g>
	<g>
		<path class="st8" d="M331,371c0,0.2,0,0.3-0.1,0.5l0,0.1l-0.1,0.2c-0.1,0.2-0.1,0.2-0.1,0.3c-0.1,0.2-0.2,0.3-0.2,0.4
			c-0.1,0.2-0.3,0.4-0.4,0.5c-0.2,0.3-0.5,0.5-0.7,0.8c-0.5,0.5-0.9,0.9-1.4,1.3c-0.9,0.8-1.9,1.5-2.8,2.3c-1.9,1.4-3.8,2.8-5.8,4.1
			c-2,1.3-3.9,2.6-5.9,3.8c-1,0.6-2,1.2-3,1.9l-2.8,1.9l-2.6,2.2c-0.8,0.8-1.6,1.6-2.3,2.5l-1,1.4l-0.5,0.7l-0.4,0.7l-0.8,1.5
			l-0.6,1.6c-1.5,4.3-1.3,9.2,0.7,13.4c-2.3-4.1-2.9-9.1-1.6-13.7l0.5-1.7l0.7-1.6l0.4-0.8l0.5-0.8l1-1.5c0.7-1,1.5-1.9,2.3-2.8
			l2.6-2.5l2.8-2.2c0.9-0.7,1.9-1.4,2.8-2.1c1.9-1.4,3.7-2.8,5.6-4.2c1.8-1.4,3.6-2.9,5.3-4.4c0.9-0.7,1.7-1.5,2.5-2.3
			c0.4-0.4,0.8-0.8,1.1-1.2c0.1-0.2,0.3-0.4,0.4-0.5c0.1-0.1,0.1-0.2,0.1-0.2c0,0,0,0,0,0l0,0.1c0,0,0,0.1,0,0.1l0,0.1
			c0,0.1,0,0.3,0,0.4L331,371z"/>
	</g>
	<g>
		<path class="st8" d="M367.4,395.3c-1.6,4.9-3.4,9.6-5.5,14.2c-2.1,4.6-4.5,9.1-7.2,13.4c-2.8,4.2-5.9,8.3-9.8,11.6
			c-1.9,1.6-4.1,3.1-6.4,4.1c-2.3,1-4.8,1.6-7.3,1.7c5-0.4,9.5-3.1,13-6.5c3.6-3.4,6.4-7.5,8.8-11.8c2.4-4.3,4.4-8.8,6.2-13.5
			c1.7-4.6,3.3-9.4,4.4-14.1L367.4,395.3z"/>
	</g>
	<g>
		<path class="st18" d="M359,440.1"/>
	</g>
</g>
<g id="Layer_4">
	<line class="st14" x1="455.6" y1="194.2" x2="591.3" y2="159.7"/>
</g>
</svg>
