<?xml version="1.0" encoding="utf-8"?>
<!-- Generator: Adobe Illustrator 21.0.0, SVG Export Plug-In . SVG Version: 6.00 Build 0)  -->
<svg version="1.1" id="Layer_1" xmlns="http://www.w3.org/2000/svg" xmlns:xlink="http://www.w3.org/1999/xlink" x="0px" y="0px"
	 viewBox="0 0 856.7 779.7" style="enable-background:new 0 0 856.7 779.7;" xml:space="preserve">
<style type="text/css">
	.st0{fill:none;stroke:#A97C50;stroke-width:2;stroke-miterlimit:10;}
	.st1{fill:#F1F2F2;stroke:#BCBEC0;stroke-miterlimit:10;}
	.st2{fill:none;stroke:#BCBEC0;stroke-miterlimit:10;}
	.st3{fill:url(#SVGID_1_);stroke:#BCBEC0;stroke-miterlimit:10;}
	.st4{fill:none;stroke:#231F20;stroke-miterlimit:10;}
	.st5{fill:#231F20;}
	.st6{font-family:'CenturyGothic';}
	.st7{font-size:30.4px;}
	.st8{fill:none;stroke:#939598;stroke-width:1.27;stroke-miterlimit:10;}
	.st9{fill:none;}
</style>
<title>bladder2</title>
<g id="Layer_2">
	<path id="contract1" class="st0" d="M511.2,567.8c16,1.3,24.7-6.7,58-17.3c33.3-10.7,172-168,190.3-186.7c18.3-18.7,0-33.3,0-33.3
		v-4c-95.5-125.7-227.8-91.7-296.8-94.7c-114.2-5-247.2,49.7-247.2,49.7l-3,1.5c0,0-65,13,19.5,111s150.5,169.5,173.5,172.5
		s27,0,27,0"/>
	<path id="contract2" class="st0" d="M444.6,553.8c0,0-26.7-28-46.7-26.7c-20,1.3-28-24-28-24s-6.7-18.7-22.7-24s-20-3.3-20-15.3
		s-5.3-22-8.7-22s-10,0.7-8-10.7s-8-23.3-12.7-25.3s-19.3-9.3-18.7-21.3s4.6-9.3,0-24s-21.3-21.3-31.3-26.7s-21.3-18.7-15.3-24
		s35.2,0.4,37.2-3s16.1-26.3,22.7-27s24.4,0.8,25.7-10.5s25.1-1.2,29.8,1.5c4.7,2.7,24.6,3.2,34-3s18.7-8.5,30-4.5s8.8-2.2,31.5-7.5
		c22.7-5.3,36.7-3.5,36.7-3.5s9.2-2.2,24.5,5.1c15.3,7.3,7.4-2.1,22.7-4.8c15.3-2.7,5.5,11.1,8.8,15c3.3,3.9,6-11.3,13.3-14.7
		c7.3-3.3,2-10.7,15.3,6.7c13.3,17.3,15.7,0,29-1.3c13.3-1.3,11.3,1.3,27.9,6c16.7,4.7,36.4-4.7,35.1,6c-1.3,10.7,22,16.5,29.3,18.5
		c7.3,2,42.4,40.9,36.4,42.3s6.7,23.3,6.7,26s-26.7-6.7-32,4c-5.3,10.7-6,29.3-14,35.3s-24,16-23.3,29.3c0.7,13.3-12,9.3-28,20.7
		c-11.8,8.4-20.7,20.3-25.3,34c-2.7,8-21.3,22.7-32.7,24.7s-30,26-33.3,31.3c-3.3,5.3-35.3,4-42,17.3"/>
	<path id="U1s" class="st1" d="M833.4,40.5l-13.3,86.9l-23.4,86.4c-0.5,2.4-1.4,4.8-2.4,7.1l-41,97.7c0,0-3.5,12.7,6.2,12
		c4.6-0.3,49.6-87.5,54.2-101.6c14.3-43.3,15.1-66.3,26.8-97.5c9.5-25.6,15-83,15.8-83.9"/>
	<path id="U2s" class="st1" d="M123.3,148.7l14.6,62.9c0.9,3.9,3,7.5,6.1,10.2l68.6,61.1c0,0-15.9,6.8-18.9,12.9
		c-1.7,3.4-60.8-60.3-72.8-70.1c-9.4-7.7-7.4-74.9-9.5-77"/>
</g>
<g id="Layer_3">
	<g>
		<path class="st2" d="M461.1,573.8c-4.1-8.8-4.9-18.8-2.3-28.1c0.9-3.2,2.3-6.4,4.8-8.6c4.6-4.1,12-3.7,17-0.2s7.7,9.6,8.6,15.7
			s0.1,12.2-0.7,18.3c0,0.8-0.3,1.5-0.7,2.1c-0.5,0.6-1.3,0.7-1.9,0.3h0"/>
		<path class="st2" d="M469.9,584.8c0,0-0.2,17,3.5,28.3s4.9,37.3,0,63.3s-2.9,33.3-4.9,26s-3.3-28-6-46.7s-2.3-22.2,2.7-42
			S465.2,585.8,469.9,584.8z"/>
	</g>
	<g>
		<path class="st2" d="M339.4,399.9c1.2-1.4,1.9-3.2,1.8-5c-0.1-0.8-0.1-1.7,0.2-2.5c1.1-2.4,5.3-0.8,7.1-2.7"/>
		<path class="st2" d="M334.3,396.3c-1.5-2.1,0.3-5.1,2.6-6.3s5-1.6,6.9-3.4"/>
		<path class="st2" d="M322,390.5c0.7-6.2,6.3-10.6,12.4-9.9c1.1,0.1,2.2,0.4,3.3,0.9"/>
		<path class="st2" d="M326.9,391.6l3.9-3.3c1.8-1.5,3.9-3.2,6.3-3"/>
		<path class="st2" d="M316.4,387.7c1.9-5,5.8-8.9,10.8-10.9c0.7-0.3,1.5-0.4,2.2-0.2"/>
		<path class="st2" d="M308.8,383.7c2.6-3.3,5.6-6.3,8.8-8.9c1-0.9,2.1-1.7,3.3-2.4"/>
		<path class="st2" d="M305.4,377.7c0.8-5.7,6-9.7,11.7-9c0.4,0,0.7,0.1,1.1,0.2"/>
		<path class="st2" d="M607.6,387.1c3.6,1.1,6.9,3.1,9.4,5.9c0.7,0.6,1,1.4,0.9,2.3c-0.4,1.4-2.5,1.3-3.3,2.5"/>
		<path class="st2" d="M610.9,381.3l6.4,3.3c0.8,0.4,1.5,0.8,2.2,1.5c1.5,1.6,1.2,4.2,0.9,6.4"/>
		<path class="st2" d="M616.2,379.4c3.2,0,6,1.9,8.4,4c0.9,0.7,1.7,1.7,2.3,2.7c0.5,1.1,0.4,2.4-0.4,3.4"/>
		<path class="st2" d="M623.5,377c0.7,0.1,1.4,0.4,2,0.9c3.7,2.6,7.5,6,7.6,10.5"/>
		<path class="st2" d="M626.6,373.6c5.2,0.8,9.7,4.1,11.9,8.9"/>
		<path class="st2" d="M633.1,369.8c2.1,0.1,4,1,5.5,2.5c1.4,1.5,2.6,3.2,3.6,5"/>
		<path class="st2" d="M636.6,365.3c2.5,1.2,5,2.5,7.4,3.9c2,1.1,4.2,2.7,4.1,5"/>
		<path class="st2" d="M645.6,360.8c-0.4-0.3-0.9-0.5-1.3-0.3c1.1,3,5.5,3.6,6.9,6.5c0.5,1.4,0.6,2.9,0.3,4.4"/>
		
			<linearGradient id="SVGID_1_" gradientUnits="userSpaceOnUse" x1="567.816" y1="541.1472" x2="567.816" y2="152.3032" gradientTransform="matrix(1 0 0 1 -89.44 238.06)">
			<stop  offset="0" style="stop-color:#FFFFFF;stop-opacity:0.1"/>
			<stop  offset="1" style="stop-color:#E6E7E8;stop-opacity:0.5"/>
		</linearGradient>
		<path class="st3" d="M478.2,425.1c0,0,43-7.3,77-20s71.3-20.7,52.3,0s-69.7,68-77.7,84.7s-40.7,60-38.7,84.7s8.7,78.7,4.7,88.7
			s-17.3,79.3-12.7,101.3s-26.7,12.9-26.7,12.9s5.3-47.5-4-68.9s-18-67.3-9.3-102.7s5.3-73.3-16.7-101.3c-22-28-54-76-66-82.7
			s-30-33.3,0-31.3S419.8,428.4,478.2,425.1z"/>
		<path class="st2" d="M314.8,396.6c6.3,3.2,11.9,7.7,16.2,13.4"/>
		<path class="st2" d="M301,392.6c-3.7-3.7-8.2-6.5-12.1-10.1s-7.2-8.1-7.5-13.4c-0.1-2.5,0.6-5.3,2.8-6.5c1.6-0.9,3.5-0.7,5.2-0.5
			l8.4,0.9c1.5,0.2,3.2,0.3,4.5-0.5s1.8-3,0.5-3.8"/>
		<path class="st2" d="M311.3,361.9l25.8-11.1"/>
		<path class="st2" d="M656.8,371.7c1.1-5.2,3.6-9.9,7.2-13.8"/>
		<path class="st4" d="M360.5,414.6c-2.7-0.8-5-2.7-6.1-5.3c-1.2-2.5-1.8-5.3-1.8-8.1c-0.1-1.2,0.1-2.8,1.3-3.2
			c0.5-0.1,1-0.1,1.5,0.1l8.3,1.9c1.1,0.2,2.1,0.6,3,1.2c0.9,0.6,1.4,1.8,1.1,2.9"/>
		<path class="st4" d="M582.7,403c5.5-4.3,13.1-6.5,19.6-3.9c1.1,0.3,2.1,1.1,2.5,2.2c0.2,0.8,0.1,1.6-0.3,2.2
			c-1.2,2.4-4,3.6-6.4,4.9c-3.1,1.6-6,3.7-8.5,6.2"/>
	</g>
</g>
<g id="Layer_4">
	<path class="st2" d="M533,563.9c0,0,41.5-11.4,46.9,15.9c5.3,27.3,4.7,130-95.3,150.7"/>
	<path class="st2" d="M427.2,567.9c0,0-62-4.8-72.7,11.2s-12.7,92,26.7,112s55.3,42.7,77.3,39.3"/>
</g>
<g id="Layer_5">
	<text transform="matrix(1 0 0 1 154.55 169.4091)" class="st5 st6 st7">Ureter</text>
	<g>
		<text transform="matrix(1 0 0 1 0 417.7391)" class="st5 st6 st7">Detrussor</text>
		<text transform="matrix(1 0 0 1 0 454.2191)" class="st5 st6 st7">muscle</text>
	</g>
	<line class="st8" x1="269.8" y1="414.6" x2="154.6" y2="414.6"/>
	<line class="st8" x1="602.3" y1="399.1" x2="856.3" y2="398.7"/>
	<line class="st8" x1="467.5" y1="759.4" x2="675.6" y2="759.4"/>
</g>
<rect x="0.2" y="11.8" class="st9" width="856.3" height="769.5"/>
</svg>
