<?xml version="1.0" encoding="utf-8"?>
<svg xmlns="http://www.w3.org/2000/svg" xmlns:xlink="http://www.w3.org/1999/xlink" 
	 viewBox="0 0 436.5 359" style="enable-background:new 0 0 436.5 359;" xml:space="preserve">
<style type="text/css">
	.st0{fill:#FF0000;}
	.st1{fill:none;stroke:#000000;stroke-miterlimit:10;}
	.st2{font-family:'CenturyGothic';}
	.st3{font-size:20px;}
	.st4{font-size:14px;}
	.st5{font-size:13px;}
</style>
<path class="st0" d="M242.5,53.5c-3.3-4.6-6.7-9.2-10.3-13.6c-1.7-2-3.3-4.1-5.1-6c-0.4,0.5-0.8,0.9-1.2,1.2c1.6,2,3.3,4,4.8,6
	c3.5,4.5,6.7,9.1,9.9,13.7c6.4,9.3,12.4,18.9,18.1,28.6l2.6-1.5C255.3,72.2,249.1,62.8,242.5,53.5z"/>
<title>blood supply of gall bladder</title>
<path class="st1" d="M165.8,123.9c0,0-59,27-71,51s-22,74,15,91s41-55,41-71s1-24,15-36s19-16,21-29s5-26,14-26s16,3,16,30
	s-13,107-34,135s-57,45-57,45"/>
<path class="st1" d="M237.8,17.9c0,0,10,12,5,27s-20,77-20,77c-2-23-6-24-14-29c-7.8-4.9-23,5-28,11s-15,20-15,20"/>
<path class="st1" d="M243.8,10.9c0,0,9,12,7,19s14-14,19-12"/>
<path class="st1" d="M271.8,26.9c0,0-18,8-28,48s-15.3,99.2-20,116c-5,18-19,99-73,116"/>
<path class="st1" d="M337.8,261.9c0,0-173,31-207,55"/>
<path class="st1" d="M337.8,269.9c0,0-108,25-140,31s-59,18-63,22"/>
<path class="st1" d="M132.9,319.4c0.8,1.2,1.3,2.5,1.5,3.9c0,0.2,0,0.5-0.1,0.7c-0.2,0.2-0.4,0.3-0.6,0.3c-1.4,0.4-2.8,0.5-4.2,0.5
	c-1.4,0-2.8-0.5-3.8-1.5c-0.8-0.9-1.4-2-1.9-3.1c-0.5-0.9-0.9-1.9-1-2.9C122.8,310.3,131.5,317.2,132.9,319.4z"/>
<text transform="matrix(1 0 0 1 18 289.36)" class="st2 st3">Gall bladder</text>
<g>
	<text transform="matrix(1 0 0 1 271.8299 99.25)" class="st2 st4">Common hepatic duct</text>
</g>
<text transform="matrix(1 0 0 1 260.2914 200.5267)" class="st2 st4">Common bile duct</text>
<text transform="matrix(1 0 0 1 230 313.75)" class="st2 st5">Gastroduodenal artery</text>
<text transform="matrix(1 0 0 1 53.33 82.75)" class="st2 st3">Cystic artery</text>

<path class="st0" d="M327.8,247.2c-0.7-1.5-2.5-2.1-4-1.4h-0.1c-3.3,1.6-6.7,3-10.1,4.3c-3.5,1.3-7,2.3-10.6,3.3
	c-7.1,1.9-14.4,2.8-21.7,2.6c-7.2-0.3-14.3-2.1-20.2-6c-2.9-1.9-5.5-4.4-7.6-7.2c-0.6-0.7-1.1-1.5-1.6-2.2l-1.5-2.3
	c-1.1-1.5-2-3.1-2.9-4.7c-3.7-6.3-6.3-13.2-7.5-20.3c-1.2-7.2-0.6-14.6,0.7-21.9c2.7-14.7,7.4-29.3,10.3-44.2
	c2.8-14.9,4.9-30,7.3-44.9c1.2-7.5,2.3-14.9,3.8-22.4s3-14.8,5-22.1c1.8-7.3,4.5-14.3,7.8-21.1c0.5-0.8,0.9-1.6,1.4-2.4l1.5-2.3
	c1.1-1.6,2.1-3.1,3.2-4.7c1.2-1.9,2.4-3.7,3.5-5.6c-0.3-0.5-0.5-1-0.8-1.6c-1.3,2.1-2.6,4.3-4,6.3c-1,1.6-2.1,3.1-3.2,4.7l-1.6,2.4
	c-0.5,0.8-1,1.7-1.5,2.5c-3.5,6.8-6.3,13.9-8.3,21.3c-2.1,7.3-3.8,14.7-5.3,22.2c-1.5,7.4-2.9,14.9-4.2,22.4
	c-2.6,14.9-5,29.9-7.9,44.7c-2.9,14.7-7.9,29.1-10.9,44.1c-0.4,1.9-0.6,3.8-0.9,5.7c-0.2,1-0.2,1.9-0.3,2.9l-0.3,2.9
	c-0.1,0.9-0.1,2-0.1,2.9s-0.1,1.9,0,2.9l0.2,2.9l0.1,1.5c0,0.5,0.1,1,0.2,1.5c1.2,7.8,3.7,15.3,7.6,22.1c1,1.7,1.9,3.4,3,5l1.6,2.4
	c0.5,0.8,4.1,5.5,5.5,6.9c1.5,1.5,3.1,2.8,4.8,4c3.4,2.3,7,4,10.9,5.2c3.8,1.1,7.8,1.8,11.8,2c7.8,0.3,15.7-0.5,23.3-2.5
	c3.8-0.9,7.5-2,11.2-3.3c3.7-1.3,7.3-2.7,10.9-4.4l0,0C327.9,250.5,328.5,248.7,327.8,247.2z"/>
<g>
	<path class="st0" d="M236.9,48.1c-6,4.3-11.9,8.7-17.6,13.3c-5.7,4.6-11.4,9.4-16.7,14.5c-5.3,5.1-10.3,10.5-13.9,16.9
		c-3.6,6.4-5.8,13.4-8.2,20.4c-1.2,3.5-2.6,7-4.4,10.3c-1.8,3.3-4.1,6.3-6.9,8.8c-1.4,1.2-2.9,2.3-4.5,3.3c-1.6,1-3.2,2-4.8,2.9
		c-3.2,1.8-6.5,3.5-9.8,5.2c-6.6,3.3-13.3,6.4-19.9,9.8c-3.3,1.7-6.5,3.5-9.6,5.4c-1.5,1-3.1,2-4.5,3.2c-1.4,1.2-2.8,2.5-3.7,4.1
		c0.9-1.6,2.2-2.9,3.6-4.1c1.4-1.2,2.9-2.2,4.5-3.3c3.1-2,6.3-3.8,9.6-5.5c6.5-3.5,13.2-6.7,19.8-10c3.3-1.7,6.6-3.4,9.7-5.2
		c1.6-0.9,3.2-1.9,4.7-2.9c1.5-1,3-2.1,4.4-3.3c2.7-2.4,4.9-5.4,6.6-8.6c1.7-3.2,3-6.7,4.2-10.2c2.3-7,4.5-14.1,8.1-20.7
		c3.6-6.6,8.6-12.2,13.9-17.4c5.3-5.2,10.9-10.1,16.6-14.8c5.7-4.7,11.6-9.2,17.6-13.6L236.9,48.1z"/>
</g>
<text transform="matrix(1 0 0 1 260.2917 228.5267)" class="st2 st4">Common hepatic artery</text>
<g>
	<path class="st0" d="M250.1,246.6c-1.7,1.5-3.5,2.9-5.2,4.3c-1.7,1.4-3.4,2.7-4.9,4.3c-1.5,1.6-2.8,3.2-3.8,5.1
		c-0.3,0.5-0.4,0.9-0.7,1.4c-0.1,0.2-0.2,0.5-0.3,0.7l-0.2,0.7l-0.5,1.6l-0.4,1l-0.4,0.9c-1.2,2.3-2.6,4.2-4.1,6.1
		c-1.4,1.9-2.9,3.7-4.4,5.5c-3,3.6-5.9,7.1-8.8,10.7c-2.9,3.6-5.6,7.2-8.1,11c-2.5,3.8-4.7,7.8-6.3,11.9c-1.6,4.2-2.7,8.5-2.5,12.9
		c0.2,4.4,1.8,8.6,4.4,12.3l-1.6,1.2c-0.7-1-1.5-1.9-2.1-3c-0.6-1.1-1.2-2.1-1.6-3.2c-0.2-0.6-0.5-1.1-0.7-1.7l-0.5-1.8l-0.2-0.9
		l-0.1-0.9l-0.3-1.8c-0.4-4.9,0.5-9.8,2.1-14.3c1.6-4.5,3.9-8.7,6.3-12.7c2.5-4,5.2-7.8,8-11.6c2.8-3.7,5.8-7.3,8.7-10.9
		c1.4-1.8,2.9-3.6,4.2-5.4c1.3-1.8,2.7-3.7,3.6-5.5l0.3-0.7l0.2-0.6l0.1-0.3l0.1-0.5l0.3-0.9l0.3-0.9c0.1-0.3,0.3-0.6,0.4-0.9
		c0.3-0.6,0.5-1.2,0.8-1.7c1.2-2.3,2.8-4.2,4.4-6.1c3.4-3.6,7.5-6.5,12.5-7.4L250.1,246.6z"/>
</g>
<text transform="matrix(1 0 0 1 23.33 31.2945)" class="st2 st3">Right hepatic artery</text>
<line class="st1" x1="222.5" y1="196.2" x2="256.8" y2="196.2"/>
<line class="st1" x1="241.7" y1="223.9" x2="256.8" y2="223.9"/>
<line class="st1" x1="201.6" y1="308.4" x2="223.8" y2="308.4"/>
<line class="st1" x1="239.7" y1="93.8" x2="269.8" y2="93.8"/>
<line class="st1" x1="201.1" y1="76.4" x2="177.3" y2="76.4"/>
<line class="st1" x1="229" y1="39" x2="216.3" y2="31.3"/>
</svg>
