<?xml version="1.0" encoding="utf-8"?>
<!-- Generator: Adobe Illustrator 19.2.1, SVG Export Plug-In . SVG Version: 6.00 Build 0)  -->
<svg version="1.1" xmlns="http://www.w3.org/2000/svg" xmlns:xlink="http://www.w3.org/1999/xlink" x="0px" y="0px"
	 viewBox="0 0 771.3 600" enable-background="new 0 0 771.3 600" xml:space="preserve">
<g id="Layer_1">
	<path fill="none" stroke="#000000" stroke-miterlimit="10" d="M92.9,192.5c0,0,125.6-3,128.4,0c2.7,3,4.8,12,0,21
		c-4.8,9,2,16.5,2.9,23c0.9,6.5,1.9,11-19.6,11.5s-101-1-107,0s-13,3-11.5-5.5s7.5-22.5,4-29.5S86.2,192.7,92.9,192.5z"/>
	<path fill="none" stroke="#000000" stroke-miterlimit="10" d="M92.9,266.5c0,0,0.9-0.1,2.6-0.2c18.2-1.2,126.6-8.1,132.5-5.3
		c6.5,3,0.5,15,4,21.5s15,22.5,6.5,26.5S112,318,105,316.5S93,310,96.5,292s-9.5-21-8-23s5.3-2.6,5.3-2.6"/>
	<path fill="none" stroke="#000000" stroke-miterlimit="10" d="M99,334.5c0,0,7.5,18.5,0,35s-1.3,21,3.3,20.5
		c4.7-0.5,144.7,3.5,147.2-2.5s-3.5-11-5-30.5s4.5-29-5.5-29.5S92.5,331,99,334.5z"/>
	<path fill="none" stroke="#000000" stroke-miterlimit="10" d="M101.5,410c0,0,154.7-8.5,155.1-3c0.4,5.5,14.9,65.5,8.4,66
		s-158-4-158.5-10s-14.1-53.8-7.5-53.5"/>
	<path fill="none" stroke="#000000" stroke-miterlimit="10" d="M107.5,481.5c0,0,164.3,4.5,159.2,11C261.5,499,258,531,261,538
		s0.5,17-37.5,11s-112.5-11.5-116-11s-21.1-6.7-10.3-21.8c10.8-15.2,9.8-22.7,5.3-30.2S107.5,481.5,107.5,481.5z"/>
	<path fill="none" stroke="#C49A6C" stroke-miterlimit="10" d="M375.5,159c0,0,29.5-21.5,13-36.5s-102.5-37.4-116-29
		s-93.9,75.4-99.7,83.9c-5.8,8.6,11.1,77.6,9.1,96.1C180,292,158.3,378,155.1,398s-2.1,111.2-2.6,117.9"/>
	<path fill="none" stroke="#C49A6C" stroke-miterlimit="10" d="M319,291.5c0,0-51-19-80.5,17.5s-49.6,73.5-56.6,104
		c-6.9,30.5-14.4,132.5-14.4,132.5"/>
	<path fill="none" stroke="#C49A6C" stroke-miterlimit="10" d="M289.5,253c1-2-7.7-64.5,8.1-73.5c11.9-6.8,40.5-22.2,53.4-25.9
		c4.3-1.2,6.9-1.2,6.5,0.9"/>
	<path fill="none" stroke="#C49A6C" stroke-miterlimit="10" d="M351,153.6c0,0,6,17.3,16,23.9c10,6.6,21,11.6,21,11.6"/>
	<path fill="none" stroke="#C49A6C" stroke-miterlimit="10" d="M359,169.1c0,0,73-24.8,131,4s109,49.7,94,154.3S528,572,454,555
		s-110.1-90.1-120-89.1"/>
	<g>
		<g id="XMLID_2_">
			<g>
				<path fill="#FFFFFF" d="M319,427c1.7,18.3,1.2,38.7-13.8,48.3c-2.3,1.1-4.9,2.3-7.6,3.5c-16.3,6.9-38.4,12.8-54.4,2.2
					c-26.8-17.6-7.8-58.9,3.3-69.4c2.3-2.2,5.6-4,9.8-5.4l0.3,0.9C256.6,407,317,406,319,427z"/>
			</g>
			<g>
				<path fill="none" stroke="#C49A6C" stroke-miterlimit="10" d="M309.1,173.2c0,0-17.6,19.6-14.6,29.7c3,10.1,46.5,63.6,53,76.1
					s33.5,53,21,77.5s-8.5,36.5-42,40c-26.5,2.8-54.4,4-70.2,9.6c-4.1,1.5-7.5,3.2-9.8,5.4c-11,10.5-30,51.8-3.3,69.4
					c16,10.5,38.1,4.7,54.4-2.2c2.7-1.1,5.2-2.3,7.6-3.5c7-3.4,12.1-6.5,13.8-7.3c5.5-2.5,58-6.5,74.5,8"/>
				<path fill="none" stroke="#C49A6C" stroke-miterlimit="10" d="M256.6,407c0,0,60.4-1,62.4,20c1.7,18.3,1.2,38.7-13.8,48.3
					c-2.2,1.4-4.7,2.6-7.6,3.5"/>
			</g>
		</g>
	</g>
	<path fill="none" stroke="#000000" stroke-miterlimit="10" d="M284.9,430.6c0.8,1.3,1.4,3,0.8,4.4c-0.4,0.8-1.1,1.4-1.7,2
		c-1.4,1.3-2.7,2.9-3.2,4.8c-0.5,1.9-0.1,4.1,1.3,5.4c0.9,0.8,2.2,1.2,3.3,1.9c1.1,0.7,2,1.8,1.8,3c-0.2,1.2-1.5,1.9-2.6,2.3
		c-4.4,1.7-9.2,2.2-13.9,1.4c-1.2-0.2-2.5-0.5-3.6-0.1c-2,0.6-3.1,2.9-4.8,4c-2.5,1.6-6.2,0.6-7.9-1.9c-1.7-2.5-1.6-5.9-0.1-8.5
		c0.7-1.3,1.8-2.6,1.5-4c-0.2-1.5-1.8-2.5-3.2-2.9c-1.5-0.4-3.1-0.6-4.3-1.5c-2.6-1.8-2.4-6.1,0-8.1s6.3-1.4,8.6,0.8
		c0.8,0.8,1.9,1.9,2.9,1.4c0.6-0.3,0.8-0.9,1-1.5c0.6-1.8,1.2-3.5,1.8-5.3c1.9-5.4,6,4.8,7.4,4.6c0.4-0.1,0.6-0.5,0.7-0.8
		c0.9-2.5,2.5-4.9,4.9-6.1C280.2,423.6,282.8,427.2,284.9,430.6z"/>
	<path fill="none" stroke="#C49A6C" stroke-miterlimit="10" d="M321.3,406.7c6.4,6.9,13.1,13.6,20.1,19.9"/>
	<path fill="none" stroke="#000000" stroke-miterlimit="10" d="M338.7,407.9c6.7,5.7,14,12.4,14.8,21.2"/>
	<path fill="none" stroke="#000000" stroke-miterlimit="10" d="M358.2,405.3c6.9,4.4,11.4,12.2,11.7,20.4"/>
	<path fill="none" stroke="#000000" stroke-miterlimit="10" d="M374.6,395.3c4.5,5,9.1,9.9,13.6,14.9c1.8,1.9,3.7,4.2,3.6,6.8"/>
	<path fill="none" stroke="#000000" stroke-miterlimit="10" d="M384.9,388.6c9.7,4.7,19.8,8.7,30.1,11.7"/>
	<path fill="none" stroke="#000000" stroke-miterlimit="10" d="M389.7,380.7c10.5,1,20.9,2.1,31.4,3.3c7.4,0.8,15,1.8,21.4,5.4"/>
	<path fill="none" stroke="#000000" stroke-miterlimit="10" d="M396,371.4c3.1-3.2,7.6-4.6,11.9-5.8c12.3-3.6,25.1-7.3,37.8-5.4"/>
	<path fill="none" stroke="#000000" stroke-miterlimit="10" d="M391.7,349c0.2-0.2,0.4-0.4,0.7-0.7"/>
	<path fill="none" stroke="#000000" stroke-miterlimit="10" d="M397.8,349.5c5.2-12.9,24.3-18.9,37.2-18.5"/>
	<path fill="none" stroke="#000000" stroke-miterlimit="10" d="M398.6,322.8c5.5-8.8,15.3-14.9,25.7-15.9"/>
	<path fill="none" stroke="#000000" stroke-miterlimit="10" d="M418.9,356.9c4-6.8,11-11.8,18.8-13.3"/>
	<path fill="none" stroke="#C49A6C" stroke-miterlimit="10" d="M484.8,465.2c6.2-2.3,13-2.9,19.6-3.5c9.1-0.7,18.2-1.5,27.3-2.2"/>
	<path fill="none" stroke="#C49A6C" stroke-miterlimit="10" d="M505.8,446c5.7-3.6,12.5-5,18.9-7.2s12.9-5.4,16.4-11.1"/>
	<path fill="none" stroke="#C49A6C" stroke-miterlimit="10" d="M525.4,425.4c10.8-9.6,20.9-20,30.1-31.2"/>
	<path fill="none" stroke="#C49A6C" stroke-miterlimit="10" d="M533.2,401c3.5-2.7,7-5.4,10.4-8.1c6-4.6,12.3-9.7,14.9-16.8"/>
	<path fill="none" stroke="#C49A6C" stroke-miterlimit="10" d="M541.6,363.6c10.6-11.1,18.7-24.6,23.5-39.2"/>
	<path fill="none" stroke="#C49A6C" stroke-miterlimit="10" d="M545.1,374.4c4.3-11.3,17.4-16.8,23.2-27.4"/>
	<path fill="none" stroke="#C49A6C" stroke-miterlimit="10" d="M550.8,330.9c7.9-14.2,15.4-28.5,22.6-43"/>
	<path fill="none" stroke="#C49A6C" stroke-miterlimit="10" d="M560.5,297.2c9.4-10.4,16.1-23.2,19.3-36.8"/>
	<path fill="none" stroke="#C49A6C" stroke-miterlimit="10" d="M561.1,276.1c3.8-8.3,7.6-16.6,11.4-24.9c1.3-2.9,2.6-5.7,3.6-8.7"/>
	<path fill="none" stroke="#C49A6C" stroke-miterlimit="10" d="M560.2,266.3c-0.8,0.2-1-1-0.8-1.8c2.9-10.9,9.2-21.6,7.4-32.8"/>
	<path fill="none" stroke="#C49A6C" stroke-miterlimit="10" d="M553.7,263.7c-0.8-14.4-3.4-28.8-7.8-42.5"/>
	<path fill="none" stroke="#C49A6C" stroke-miterlimit="10" d="M543.1,247.6c-4.3-6.7-7.9-13.9-10.6-21.5
		c-1.8-5.1-3.6-10.9-8.3-13.7"/>
	<path fill="none" stroke="#000000" stroke-miterlimit="10" d="M97.2,119c0,0,103.8,0,113.1,0c9.3,0,7.7,4.3,8.2,22.5
		s9,31.7,2.8,35.9c-6.3,4.2-90.3,0.4-107.6,0c-17.3-0.4-35,0.9-27.9-14.4c7.2-15.3,5.3-24,2.6-31.3C85.7,124.3,90.1,115.7,97.2,119z
		"/>
</g>
<g id="Layer_2">
	<g>
		<g id="XMLID_1_">
			<g>
				<path fill="#FBD0D0" d="M331.5,293.4L331.5,293.4c-3.2-0.2-7.1,0.4-10.3,1l-0.3-1.3c1.8-0.4,3.3-1.3,4.3-3.2
					c4.7-8.7,4-19.7,6-19.7c2,0,10,0.3,7.3,3.7C336,277.3,333.5,293.4,331.5,293.4z"/>
				<path fill="#FBD0D0" d="M331.3,308.2c1.1,3-0.2,1.3-0.9,4.3c-0.9,3.8-3.1,7.1-5.4,10.2c-0.9,1.2-1.9,2.4-3.3,2.9l17,68.5l-76,10
					l-21.3-98.5c0,0,26.3-21,63-17.9c0,0,10.1,6.7,16.7,5.3l0.3,1.3c3.1-0.6,7-1.2,10.3-1c2.6,0.2,4.7,0.8,5.8,2.4
					c3.7,5.4,16.2,7.9,16.2,7.9v9.6C353.5,313.3,336.3,311.4,331.3,308.2z"/>
			</g>
			<g>
				<path fill="none" stroke="#EC008C" stroke-miterlimit="10" d="M321.3,324.4l0.3,1.3l17,68.5l-76,10l-21.3-98.5
					c0,0,26.3-21,63-17.9c0,0,10.1,6.7,16.7,5.3c1.8-0.4,3.3-1.3,4.3-3.2c4.7-8.7,4-19.7,6-19.7c2,0,10,0.3,7.3,3.7
					c-2.7,3.3-5.2,19.4-7.2,19.4"/>
				<path fill="none" stroke="#EC008C" stroke-miterlimit="10" d="M315.6,295.8c0,0,2.4-0.7,5.6-1.4c3.1-0.6,7-1.2,10.3-1
					c2.6,0.2,4.7,0.8,5.8,2.4c3.7,5.4,16.2,7.9,16.2,7.9v9.6c0,0-17.2-1.9-22.2-5.1c-0.9-0.6-1.5-1.2-1.4-1.9"/>
				<path fill="none" stroke="#EC008C" stroke-miterlimit="10" d="M317,300.7c0.5,8.5-3.1,17.1-9.5,22.6c3.6,1.4,7.4,2.3,11.3,2.6
					c0.8,0.1,1.6,0.1,2.4-0.1c0.1,0,0.3-0.1,0.4-0.1c1.4-0.5,2.4-1.7,3.3-2.9c2.4-3.1,4.6-6.4,5.4-10.2c0.7-3.1,2-1.4,0.9-4.3"/>
				<path fill="none" stroke="#EC008C" stroke-miterlimit="10" d="M304.4,302.3c0.8,1.7,2.8,2.5,4.7,2.5c1.9,0,3.7-0.6,5.5-1
					c0.5-0.1,1.2,0.2,1,0.6"/>
			</g>
		</g>
	</g>
</g>
<g id="Layer_3">
	<text transform="matrix(1 0 0 1 128.7246 152.7363)" font-family="'MyriadPro-Regular'" font-size="24px">T10</text>
	<text transform="matrix(1 0 0 1 128.7248 293.4075)" font-family="'MyriadPro-Regular'" font-size="24px">T12</text>
	<text transform="matrix(1 0 0 1 128.7246 230.012)" font-family="'MyriadPro-Regular'" font-size="24px">T11</text>
	<text transform="matrix(1 0 0 1 118.1802 442.8457)" font-family="'MyriadPro-Regular'" font-size="24px">L2</text>
	<text transform="matrix(1 0 0 1 128.1802 360.6851)" font-family="'MyriadPro-Regular'" font-size="24px">L1</text>
	<text transform="matrix(1 0 0 1 90.9077 45.04)" font-family="'CenturyGothic'" font-size="24px">Diaphragm</text>
	<text transform="matrix(1 0 0 1 347.4473 80.04)" font-family="'CenturyGothic'" font-size="24px">Median arcuate ligament</text>
	<text transform="matrix(1 0 0 1 594.5449 350.2883)" font-family="'CenturyGothic'" font-size="24px">Celiac trunk</text>
	<text transform="matrix(1 0 0 1 498.4078 145.2549)" font-family="'CenturyGothic'" font-size="24px">Left gastric artery</text>
	<text transform="matrix(1 0 0 1 585.6152 191.1669)" font-family="'CenturyGothic'" font-size="24px">Splenic artery</text>
	<text transform="matrix(1 0 0 1 614.8516 252.9999)" font-family="'CenturyGothic'" font-size="24px">Hepatic artery</text>
	<line fill="none" stroke="#000000" stroke-miterlimit="10" x1="334" y1="276.1" x2="484.8" y2="145.3"/>
	<line fill="none" stroke="#000000" stroke-miterlimit="10" x1="341.3" y1="303.8" x2="573.4" y2="189"/>
	<line fill="none" stroke="#000000" stroke-miterlimit="10" x1="321.3" y1="324.4" x2="605" y2="253"/>
	<line fill="none" stroke="#000000" stroke-miterlimit="10" x1="304.4" y1="374.4" x2="591" y2="347"/>
	<text transform="matrix(1 0 0 1 302.1706 524.6641)"><tspan x="0" y="0" font-family="'CenturyGothic'" font-size="24px">Right</tspan><tspan x="-9.1" y="28.8" font-family="'CenturyGothic'" font-size="24px">crus of</tspan><tspan x="-36.3" y="57.6" font-family="'CenturyGothic'" font-size="24px">diaphragm</tspan></text>
	<line fill="none" stroke="#000000" stroke-miterlimit="10" x1="167.5" y1="436.8" x2="287.2" y2="524.7"/>
	<line fill="none" stroke="#000000" stroke-miterlimit="10" x1="273" y1="101.9" x2="213" y2="65"/>
</g>
</svg>
