<svg xmlns="http://www.w3.org/2000/svg" xmlns:xlink="http://www.w3.org/1999/xlink" viewBox="0 0 369.5134 548.605">
  <defs>
    <linearGradient id="linear-gradient" x1="271.7641" y1="437.1319" x2="320" y2="437.1319" gradientUnits="userSpaceOnUse">
      <stop offset="0" stop-color="#754c24"/>
      <stop offset="0.6179" stop-color="#a67c52"/>
      <stop offset="1" stop-color="#a67c52"/>
    </linearGradient>
    <linearGradient id="linear-gradient-2" x1="178" y1="431.6147" x2="220.0004" y2="431.6147" gradientUnits="userSpaceOnUse">
      <stop offset="0" stop-color="#a67c52"/>
      <stop offset="0.6179" stop-color="#a67c52"/>
      <stop offset="1" stop-color="#754c24"/>
    </linearGradient>
  </defs>
  <title>constrictions of ureter</title>
  <g id="Layer_1" data-name="Layer 1">
    <g id="Layer_1-2" data-name="Layer 1">
      <line x1="212.8321" y1="35.312" x2="216.8321" y2="258.312" fill="none" stroke="#ed1c24" stroke-miterlimit="10"/>
      <path d="M296.9,103.1s-1.7,4.7-9.8,4.5-21-2.7-22.8-4.8,0-15,0-15L263.9,41" transform="translate(-20.5679 -5.688)" fill="none" stroke="#ed1c24" stroke-miterlimit="10"/>
      <path d="M299.8,105.9a1.8176,1.8176,0,0,0-1.1,1l-2.2,3.1a30.3632,30.3632,0,0,1,8.5-.9,3.75,3.75,0,0,0,1.1-.1c.4-.2.7-.8,1.1-1" transform="translate(-20.5679 -5.688)" fill="none" stroke="#ed1c24" stroke-miterlimit="10"/>
      <path d="M306.2,112.6a5.5591,5.5591,0,0,0-1.7.9c-.1.1-.2.2-.2.3,0,.2.3.3.5.3h2.1" transform="translate(-20.5679 -5.688)" fill="none" stroke="#ed1c24" stroke-miterlimit="10"/>
      <path d="M307.1,120a21.1234,21.1234,0,0,0-3.1-2.1,8.1689,8.1689,0,0,0-5.5-1,1.7006,1.7006,0,0,0-1,.6,1.2576,1.2576,0,0,0,.2,1.3,4.44,4.44,0,0,0,1.1.8,64.3873,64.3873,0,0,1,9.7,6.7" transform="translate(-20.5679 -5.688)" fill="none" stroke="#ed1c24" stroke-miterlimit="10"/>
      <path d="M263,125.3c.1.4.2.8.3,1.3.2,14.2.9,137.4.9,137.4" transform="translate(-20.5679 -5.688)" fill="none" stroke="#ed1c24" stroke-miterlimit="10"/>
      <path d="M295.2,129.3c-.6-.5-1.3-1.1-2-1.6-7.4-5.3-16.9-6.8-26-6.8a4.897,4.897,0,0,0-3.5.9c-.7.7-.8,3.1-.8,3.5" transform="translate(-20.5679 -5.688)" fill="none" stroke="#ed1c24" stroke-miterlimit="10" opacity="0.26" style="isolation: isolate"/>
      <path d="M304.6,136.7c-3.5-1.9-6.3-4.8-9.4-7.4" transform="translate(-20.5679 -5.688)" fill="none" stroke="#ed1c24" stroke-miterlimit="10"/>
      <path d="M252.1,92.8c1.6,3.9,1.7,8.1,1.8,12.3l.4,33.2c0,1.3-.6,3.3-1.9,3.1l-7-1.3c-5.3-14-1.9-29.6-3.3-44.4-.1-.9-.6-2.1-1.4-1.9" transform="translate(-20.5679 -5.688)" fill="none" stroke="#ed1c24" stroke-miterlimit="10"/>
      <path d="M171.1,160.2a32.3156,32.3156,0,0,1,15.8-7.8,120.9987,120.9987,0,0,1,17-1.8v109" transform="translate(-20.5679 -5.688)" fill="none" stroke="#2e3192" stroke-miterlimit="10"/>
      <path d="M232.1,40.9H201.8l4,79.9s2.5,12.6-6,13.1-24-4.5-24-4.5" transform="translate(-20.5679 -5.688)" fill="none" stroke="#2e3192" stroke-miterlimit="10"/>
      <path d="M176.4,128.9a2.4839,2.4839,0,0,0-1.2,1.6c-1,2.5-1.4,5.2-2.6,7.6-2.3,4.5-7.4,7.1-9.1,11.8a4.1456,4.1456,0,0,0-.3,1.6,4.8872,4.8872,0,0,0,1.3,2.7l5,6.9,1-.7" transform="translate(-20.5679 -5.688)" fill="none" stroke="#2e3192" stroke-miterlimit="10"/>
      <path d="M204,258.4c-.5,1.5,1,3.1,2.6,3.4s3.3-.2,4.9-.1c2,.1,3.8,1,5.8,1.1a18.4067,18.4067,0,0,0,4.1-.5,46.2039,46.2039,0,0,1,15.3-.5" transform="translate(-20.5679 -5.688)" fill="none" stroke="#2e3192" stroke-miterlimit="10"/>
      <path d="M263.8,263.8" transform="translate(-20.5679 -5.688)" fill="none" stroke="#ed1c24" stroke-miterlimit="10"/>
      <path d="M237.1,264.7" transform="translate(-20.5679 -5.688)" fill="none" stroke="#ed1c24" stroke-miterlimit="10"/>
      <path d="M233,40.9l16.2.8c5,.2,10.1.5,15.2.4" transform="translate(-20.5679 -5.688)" fill="none" stroke="#ed1c24" stroke-miterlimit="10"/>
      <path d="M309.7,105.9s-12.2-.1-17.2-6.4-16.3-31.3.5-46c19-16.7,37.3-16.3,61.8,5.5s36.5,98.5,11.5,118.5c-24.3,19.5-40,16-58-6s-3.5-39,1.5-46.3" transform="translate(-20.5679 -5.688)" fill="none" stroke="#c49a6c" stroke-miterlimit="10" stroke-width="2"/>
      <path d="M307.2,105.9a27.5428,27.5428,0,0,0-.3,8.1,37.1235,37.1235,0,0,0,3.5,11.3" transform="translate(-20.5679 -5.688)" fill="none" stroke="#c49a6c" stroke-miterlimit="10"/>
      <path d="M187.5,132.5s12.4-3.8,16.4-15.7-2.7-53.7-40.8-42.5-62.3,44.5-64.2,76.4c-1.8,31,19.8,68.3,48.3,61.3s33.2-28.2,26.2-41.5-4-9.3-4-9.3" transform="translate(-20.5679 -5.688)" fill="none" stroke="#c49a6c" stroke-miterlimit="10" stroke-width="2"/>
      <path d="M231.7,106.4c2.1.4,3.3,2.5,4.5,4.3s3.1,3.6,5.2,3" transform="translate(-20.5679 -5.688)" fill="none" stroke="#2e3192" stroke-miterlimit="10"/>
      <path d="M231.5,135.2a11.2829,11.2829,0,0,1,4.4-6.1,8.5469,8.5469,0,0,1,7.3-1.1l-1.2-.5" transform="translate(-20.5679 -5.688)" fill="none" stroke="#2e3192" stroke-miterlimit="10"/>
      <path d="M254.8,114.8s40.1-.6,42.5,1.1" transform="translate(-20.5679 -5.688)" fill="none" stroke="#2e3192" stroke-miterlimit="10"/>
      <path d="M254.8,126.3s34.3-.3,42.1,4.4,7.5,4.4,7.5,4.4" transform="translate(-20.5679 -5.688)" fill="none" stroke="#2e3192" stroke-miterlimit="10"/>
      <path d="M296.4,118.7H281s20.4,8.8,23.6,12" transform="translate(-20.5679 -5.688)" fill="none" stroke="#2e3192" stroke-miterlimit="10"/>
      <path d="M178.5,155.5c2.8,12.7,10.8,23.3,8,36-.552,2.384-7.419,7.17-8,11-4.3665,28.78-6.9118,92.5872-7,97" transform="translate(-20.5679 -5.688)" fill="none" stroke="#00a651" stroke-miterlimit="10"/>
      <path d="M173.7,193.3s-9.7,90.2-10.2,106.2" transform="translate(-20.5679 -5.688)" fill="none" stroke="#00a651" stroke-miterlimit="10"/>
      <path d="M163.5,299.5s0,19,17,37c7.2819,7.71,8.1327,14.796,10,26,4,24,4.848,60.5926,8,72" transform="translate(-20.5679 -5.688)" fill="none" stroke="#00a651" stroke-miterlimit="10"/>
      <path d="M214.5,437.5" transform="translate(-20.5679 -5.688)" fill="none" stroke="#00a651" stroke-miterlimit="10"/>
      <path d="M171.5,299.5a37.8426,37.8426,0,0,0,15,32c2.3923,1.8294,6.0189,15.8333,7,21,4.3813,23.0727,9.0693,70.9692,11,80" transform="translate(-20.5679 -5.688)" fill="none" stroke="#00a651" stroke-miterlimit="10"/>
      <path d="M258.5,433.5" transform="translate(-20.5679 -5.688)" fill="none" stroke="#00a651" stroke-miterlimit="10"/>
      <path d="M297.5,144.5s1,70,5,90,15,73,14,91-9,18-13,31-14,72-13,78" transform="translate(-20.5679 -5.688)" fill="none" stroke="#00a651" stroke-miterlimit="10"/>
      <path d="M280.5,130.5s7,34,10,41,1,10,0,19,13,84,13,92,7,31,5,35-8,26-12,33-13,78-12,80" transform="translate(-20.5679 -5.688)" fill="none" stroke="#00a651" stroke-miterlimit="10"/>
      <g>
        <path d="M201.5,444.5a26.4537,26.4537,0,0,0,2.0068,5.6391" transform="translate(-20.5679 -5.688)" fill="none" stroke="#00a651" stroke-miterlimit="10"/>
        <path d="M205.6092,453.7672A20.3832,20.3832,0,0,0,211.5,459.5a70,70,0,0,1,13.7292,11.846" transform="translate(-20.5679 -5.688)" fill="none" stroke="#00a651" stroke-miterlimit="10" stroke-dasharray="10.0776 4.199"/>
        <path d="M226.64,472.9083c1.4794,1.6707,2.7792,3.2407,3.86,4.5917" transform="translate(-20.5679 -5.688)" fill="none" stroke="#00a651" stroke-miterlimit="10"/>
      </g>
      <g>
        <path d="M204.5,444.5a40.45,40.45,0,0,0,2.7281,5.3391" transform="translate(-20.5679 -5.688)" fill="none" stroke="#00a651" stroke-miterlimit="10"/>
        <path d="M209.43,453.04a15.8694,15.8694,0,0,0,5.07,4.46c3.6328,1.8164,9.0986,7.2987,13.0679,11.7858" transform="translate(-20.5679 -5.688)" fill="none" stroke="#00a651" stroke-miterlimit="10" stroke-dasharray="9.3231 3.8846"/>
        <path d="M228.8419,470.751A37.9815,37.9815,0,0,1,232.5,475.5" transform="translate(-20.5679 -5.688)" fill="none" stroke="#00a651" stroke-miterlimit="10"/>
      </g>
    </g>
    <g>
      <path d="M201.5,444.5s48-26,86,2" transform="translate(-20.5679 -5.688)" fill="none" stroke="#c69c6d" stroke-miterlimit="10"/>
      <path d="M198.5,434.5s56-18,92,0" transform="translate(-20.5679 -5.688)" fill="none" stroke="#c69c6d" stroke-miterlimit="10"/>
      <path d="M290.5,434.5s21,22,9,37-45,40-42,46" transform="translate(-20.5679 -5.688)" fill="none" stroke="#c69c6d" stroke-miterlimit="10"/>
      <path d="M287.5,446.5s13,15,7,20-37,39-37,45" transform="translate(-20.5679 -5.688)" fill="none" stroke="#c69c6d" stroke-miterlimit="10"/>
      <path d="M201.5,444.5s-19,33,16,48c22.2312,9.5276,28,13,29,19" transform="translate(-20.5679 -5.688)" fill="none" stroke="#c69c6d" stroke-miterlimit="10"/>
      <path d="M198.5,434.5s-20,18-2,51c9.1485,16.7722,37,19,43,26s6,6,6,6" transform="translate(-20.5679 -5.688)" fill="none" stroke="#c69c6d" stroke-miterlimit="10"/>
    </g>
    <text transform="translate(286.4946 482.832)" font-size="14" font-family="CenturyGothic, Century Gothic">Urinary <tspan x="-2.2661" y="16.7998">bladder</tspan></text>
    <path d="M237.5,264.5s-18.9836,21.1036-59,66c-41,46-49,129-69,148" transform="translate(-20.5679 -5.688)" fill="none" stroke="#ed1c24" stroke-miterlimit="10"/>
    <path d="M146.5,469.5c3-30,19-78,47-110s55-65,55-65,38,46,51,60,36,36,47,72" transform="translate(-20.5679 -5.688)" fill="none" stroke="#ed1c24" stroke-miterlimit="10"/>
    <path d="M263.5,263.5s28,38,61,70c31.7341,30.7725,67,103,65,126" transform="translate(-20.5679 -5.688)" fill="none" stroke="#ed1c24" stroke-miterlimit="10"/>
    <path d="M286.6536,369" transform="translate(-20.5679 -5.688)" fill="none" stroke="#00a651" stroke-miterlimit="10"/>
    <path d="M317.502,455a2.4965,2.4965,0,0,1-2.082-1.1133c-3.7129-5.5693-8.4521-11.3838-21.6875-24.6191-3.6348-3.6357-7.0859-5.3115-10.2607-4.958-4.3525.4736-7.0684,4.6494-7.0947,4.6914a2.5,2.5,0,0,1-4.2324-2.6621c.1582-.2539,3.9668-6.2256,10.7256-6.9932,4.7637-.542,9.6162,1.6045,14.3975,6.3867,13.5283,13.5283,18.4258,19.5508,22.3125,25.3809A2.5,2.5,0,0,1,317.502,455Z" transform="translate(-20.5679 -5.688)" fill="url(#linear-gradient)"/>
    <path d="M180.5,446a2.5,2.5,0,0,1-2.5-2.5c0-3.5332,9.1353-18.0967,19.2139-24.1436,9.6074-5.7666,16.479,1.6338,19.7813,5.1885a16.8918,16.8918,0,0,0,1.8916,1.875,2.5,2.5,0,0,1-2.7734,4.16,17.2953,17.2953,0,0,1-2.7812-2.6318c-4.0566-4.3672-7.8755-7.707-13.5459-4.3047-8.75,5.25-16.21,17.6113-16.7925,20.0342A2.5,2.5,0,0,1,180.5,446Zm2.4819-2.2705v0ZM183,443.5v0Z" transform="translate(-20.5679 -5.688)" fill="url(#linear-gradient-2)"/>
  </g>
  <g id="Layer_2" data-name="Layer 2">
    <text transform="translate(100.4321 106.832)" font-size="14" font-family="CenturyGothic, Century Gothic">Right kidney</text>
    <text transform="translate(270.4321 81.832)" font-size="14" font-family="CenturyGothic, Century Gothic">Left kidney</text>
  </g>
  <g id="Layer_3" data-name="Layer 3">
    <text transform="translate(0 226.6157)" font-size="14" font-family="CenturyGothic, Century Gothic">Pelviureteral <tspan x="20.8599" y="16.7998">juntion</tspan></text>
    <text transform="translate(4.4321 322.312)" font-size="14" font-family="CenturyGothic, Century Gothic">Pelvic brim <tspan x="0" y="16.7998">(sacroiliac joint)</tspan></text>
    <text transform="translate(9.4321 390.312)" font-size="14" font-family="CenturyGothic, Century Gothic">Crossing of <tspan x="0" y="16.7998">vas deferens </tspan><tspan x="0" y="33.5996">in males</tspan></text>
    <text transform="translate(9.4321 486.312)" font-size="14" font-family="CenturyGothic, Century Gothic">Intramural part <tspan x="0" y="16.7998">(at ischial spine)</tspan></text>
    <text transform="translate(65.4321 544.312)" font-size="14" font-family="CenturyGothic, Century Gothic">Ureteric orifice</text>
    <line x1="157.4321" y1="196.312" x2="88.4321" y2="229.312" fill="none" stroke="#000" stroke-miterlimit="10"/>
    <line x1="150.9321" y1="320.812" x2="103.9321" y2="322.812" fill="none" stroke="#000" stroke-miterlimit="10"/>
    <line x1="178.9321" y1="417.812" x2="99.9321" y2="397.812" fill="none" stroke="#000" stroke-miterlimit="10"/>
    <line x1="190.9321" y1="453.812" x2="129.9321" y2="484.812" fill="none" stroke="#000" stroke-miterlimit="10"/>
    <line x1="209.9321" y1="471.812" x2="159.9321" y2="534.812" fill="none" stroke="#000" stroke-miterlimit="10"/>
    <text transform="translate(9.2505 20.6157)" font-size="24" fill="red" font-family="CenturyGothic, Century Gothic">Constrictions of ureter</text>
  </g>
</svg>
