<?xml version="1.0" encoding="utf-8"?>
<!-- Generator: Adobe Illustrator 21.0.0, SVG Export Plug-In . SVG Version: 6.00 Build 0)  -->
<svg version="1.1" id="Layer_1" xmlns="http://www.w3.org/2000/svg" xmlns:xlink="http://www.w3.org/1999/xlink" x="0px" y="0px"
	 viewBox="0 0 717.5 423.7" style="enable-background:new 0 0 717.5 423.7;" xml:space="preserve">
<style type="text/css">
	.st0{fill:none;stroke:#231F20;stroke-miterlimit:10;}
	.st1{fill:none;stroke:#A97C50;stroke-miterlimit:10;}
	.st2{fill:none;stroke:#00A651;stroke-miterlimit:10;}
	.st3{fill:none;stroke:#726658;stroke-miterlimit:10;}
	.st4{fill:none;stroke:#000099;stroke-miterlimit:10;}
	.st5{fill:none;stroke:#9B8579;stroke-width:0.5;stroke-miterlimit:10;}
	.st6{fill:none;stroke:#ED1C24;stroke-miterlimit:10;}
	.st7{fill:none;stroke:#2BB673;stroke-width:2;stroke-miterlimit:10;}
	.st8{fill:none;stroke:#231F20;stroke-width:2;stroke-miterlimit:10;}
	.st9{fill:#231F20;}
	.st10{font-family:'CenturyGothic';}
	.st11{font-size:18px;}
	.st12{fill:#058800;}
	.st13{font-size:30px;}
	.st14{fill:#999999;}
</style>
<title>coverings of kidney</title>
<g id="Layer_1_1_">
	<path class="st0" d="M544.2,219.2c-99.5-4.5-61.3,68.5-61.3,68.5s6.3,19.5-28.2,25s-30,13-30,13s12.5,3,29.5-2.5s17,3.3,17,3.3
		s-6,5.2-2.5,10.7s7,11,18,5s-3-4,0-9.5s2.5-14,9-16.5s-7-9,8-28c15-19,40.5-6.3,40.5-6.3"/>
	<path class="st0" d="M544.2,317.7c0,0-10.5,20-17,15.5s-15.5-19-23.5-18s-11,10-11,13s-4.5,10.5,7,8.5s12-6.5,18.3,4.5
		c10.3,18,5.2,33,4.2,40s0,16.5,4,10.5s4-7,5-30.5s17.5-22.5,17.5-22.5"/>
	<path class="st1" d="M429.7,319.4c0,0-20.1-12.9-3.1-38.7s27-40.3,29.3-44.8s22-6.3,23-3.5s2.3,6.1,2.3,6.1"/>
	<path class="st1" d="M432.4,326.5c0,0-14.8-1.3-15.1,4.7s3,22,7.7,26.7s15,18.3,17.3,27s5.3,18.3,12.7,18.3s55,2.7,65.2-12"/>
	<path class="st1" d="M445,403.4c5.5-3.1-5.3-6.2-9.7-19.2c-2.5-7.6-9.3-19.3-14-25s-4-23-8-26s-37.3,2.7-53.3,0s-26.3-4.7-23,2.3
		s24.7,47.8,51.3,58.1S434,409.6,445,403.4z"/>
	<path class="st1" d="M331,320.2c0,0,77.2-14.3,88.1-2.5s-29.1,12.2-32.8,11.5S301.7,330.9,331,320.2z"/>
	<path class="st1" d="M281.7,308.9c0,0,27.3,15.1,33.7,20.5s25.7,24.5,22.7,28.8S275.7,326.5,281.7,308.9z"/>
	<path class="st1" d="M268.7,310.9c0,0,50.7,51.3,65.3,57.5s22,16.9,16.3,17.5s-60.7-14.5-81.7-41.1s-62.3-78.9-52.3-82.3
		S258.5,300.7,268.7,310.9z"/>
	<path class="st1" d="M190.3,130.2c0,0,1.3,64.3,6.3,77.3s6.3,35.7,19.7,46.3s10,1.7,6.3-6s-20.3-59-18.7-117.7"/>
	<path class="st1" d="M208.1,130.2c0,0,0.2,45.7,2.9,55.3s1.9,70.9,39.7,99s19,5.7,19,5.7s-33.3-30-40.3-73.7s-7-86.3-7-86.3"/>
	<path class="st1" d="M225.9,130.2c0,0,1.1,79.7,12.4,104.7s38.3,61.3,41,54.3s-30.5-44.5-35.2-70.2s-6-88.8-6-88.8"/>
	<path class="st2" d="M241.2,130.2c0,0,0.6,65.6,11.5,97.5s36,62.4,36,62.4s14.5,33.6,41.5,27.6s69-8.2,75.5-8.8s4.6-17.4,18.8-34.5
		c14.6-17.7,16.1-31,31.6-43.3c14-11.1,15-1.9,21-2.4s20.5-12.5,32-14.3c11.5-1.8,33,0,33,0"/>
	<path class="st2" d="M243.3,130.2c0,0,2.3,53.3,5.3,61.3s22,34.3,25.6,47.7s25,63.3,52.7,63.7s57.3,9.8,80.2-18.4
		c27.3-33.8,49-53.3,49-53.3"/>
	<path class="st2" d="M261.1,213.2c0,0,17.9,16.3,27.5,13.3s41.8-23,49-26c14.6-6.1,37.3-13.7,71.3-3s50.7-24.7,63-28.7
		c10.8-3.5,18.7,4,32.3,8.7c13.7,4.7,37.8-1.3,37.8-1.3"/>
	<path class="st3" d="M370,229.6c0,0,12,7.9,24.3-5.2s2.3-23.4-14-25.4s-48.7,7-60.7,23.3s-29.7,44.4-11.3,59.7s62.7,24.6,87,4.6
		s20.7-39.3,10-42s-22-1.3-26,8s-2.7,8.8-2.7,8.8s-4.1-7.3-8.5-4.1c-2.2,1.5-4.3,3.2-6.1,5.1c0,0,3-15-4.3-14.6
		c-4.3,0.2-8.4,1.4-12.1,3.6c0,0,6.6-6.5,0.9-10.6s7.6,4.6,13.3,1.4S372.1,240.6,370,229.6z"/>
	<path class="st4" d="M451.9,197.5c0,0,6.3-19,15.5-21.5s24.5-6.5,30.3,4.8s7.8,32.9-7.3,38.3s-24-1.7-38.5,0s-10.8-5.8-5.5-10.1
		S451.9,197.5,451.9,197.5z"/>
	<path class="st5" d="M454.5,197.9c0,0,5.6-17,13.8-19.2s21.9-5.8,27,4.2s6.9,29.4-6.5,34.2s-21.4-1.5-34.4,0s-9.6-5.2-4.9-9
		S454.5,197.9,454.5,197.9z"/>
	<path class="st6" d="M516.7,184.7c0,0-12.5,8.8-8.3,16.5c4.3,7.8,20,14,24.5,9.8s15.8-18.3,7.8-22S521.7,177.7,516.7,184.7z"/>
	<path class="st7" d="M256.2,130.2c0,0-4.5,32,0,48s20.5,43,47,23.5s74.1-26,88.5-22.5s25.5,12,53.7-18.5s49.5-5.5,62.1-15
		c12.6-9.5,32.6-14,36.6-8"/>
	<path class="st8" d="M171.3,130.2c0,0,4,157.1,57.3,200.5s82.3,87.5,170.5,91.5s105.5-19.3,133.5-8c28,11.3,16,5.3,16,5.3"/>
</g>
<g id="Layer_2">
	<line class="st0" x1="194.7" y1="138.2" x2="196" y2="86.2"/>
	<line class="st0" x1="214.8" y1="142.2" x2="214.8" y2="85.6"/>
	<line class="st0" x1="232" y1="142.2" x2="233.3" y2="85.6"/>
	<line class="st0" x1="246.1" y1="197.1" x2="132.7" y2="198.6"/>
	<line class="st0" x1="288.7" y1="226.6" x2="132" y2="262.4"/>
	<line class="st0" x1="301.6" y1="289" x2="132" y2="298"/>
	<line class="st0" x1="316.7" y1="308.9" x2="171.3" y2="372.2"/>
	<line class="st0" x1="454" y1="265.5" x2="558" y2="244.5"/>
	<line class="st0" x1="525.5" y1="197.1" x2="562" y2="186.8"/>
	<line class="st0" x1="477.3" y1="194.5" x2="563.3" y2="142.2"/>
	<line class="st0" x1="292.7" y1="241.6" x2="388" y2="117.6"/>
	<line class="st0" x1="375.5" y1="221.1" x2="456" y2="74.8"/>
	<line class="st0" x1="487.2" y1="146.1" x2="517.3" y2="104.9"/>
</g>
<g id="Layer_3">
	<text transform="matrix(1 0 0 1 111.08 74.8)" class="st9 st10 st11">Abdominal wall muscles</text>
	<text transform="matrix(1 0 0 1 225.08 34.8)" class="st12 st10 st13">Coverings of kidney</text>
	<text transform="matrix(1 0 0 1 68 186.8)" class="st9 st10 st11">Fascia </text>
	<text transform="matrix(1 0 0 1 26.2 208.4)" class="st9 st10 st11">transversalis</text>
	<text transform="matrix(1 0 0 1 7.92 248.29)" class="st9 st10 st11">Anterior layer</text>
	<text transform="matrix(1 0 0 1 0 269.89)" class="st9 st10 st11">of renal fascia</text>
	<text transform="matrix(1 0 0 1 8.2 297.97)" class="st9 st10 st11">Posteior layer</text>
	<text transform="matrix(1 0 0 1 0 319.57)" class="st9 st10 st11">of renal fascia</text>
	<text transform="matrix(1 0 0 1 23.26 377.36)" class="st9 st10 st11">Paranephric fat</text>
	<text transform="matrix(1 0 0 1 290.31 112.19)" class="st9 st10 st11">Perinephric fat</text>
	<text transform="matrix(1 0 0 1 425.42 67.46)" class="st9 st10 st11">Kidney</text>
	<text transform="matrix(1 0 0 1 504.45 102.02)" class="st9 st10 st11">Peritoneum</text>
	<text transform="matrix(1 0 0 1 557.73 134.22)" class="st9 st10 st11">Inferior vena cava</text>
	<text transform="matrix(1 0 0 1 567.52 186.8)" class="st9 st10 st11">Abdominal aorta</text>
	<text transform="matrix(1 0 0 1 566.72 248.29)" class="st9 st10 st11">Psoas major</text>
</g>
<g>
	<path class="st14" d="M374.3,225.7c-3.8-4.3-5.3-10.3-4.2-15.7c-0.8,5.5,1.1,11.2,4.9,15L374.3,225.7z"/>
</g>
<g>
	<path class="st14" d="M365.8,231.2c-4.1-3.9-6.2-9.7-5.8-15.2c-0.1,5.5,2.4,11,6.5,14.5L365.8,231.2z"/>
</g>
<g>
	<path class="st14" d="M361,232.3c-1.6,0.2-3.3,0.3-5,0.2c-1.7-0.1-3.4-0.4-4.9-1.1c-1.5-0.7-2.8-1.8-4.1-2.8
		c-1.3-0.9-2.9-1.7-4.5-1.4c0.8-0.2,1.7-0.2,2.4,0.1c0.8,0.2,1.5,0.6,2.2,1.1c1.4,0.9,2.7,1.9,4.2,2.5c1.5,0.6,3.1,0.8,4.7,0.8
		c1.6,0,3.2-0.2,4.8-0.5L361,232.3z"/>
</g>
<g>
	<path class="st14" d="M353.2,238c-1.8-1-3.7-1.6-5.7-2c-2-0.4-4.1-0.6-6.1-0.7c-2.1-0.1-4.1-0.2-6.2-0.1c-1,0-2.1,0.1-3.1,0.4
		c-1,0.3-1.9,0.8-2.6,1.6c0.7-0.8,1.6-1.4,2.6-1.7c1-0.3,2-0.5,3.1-0.5c2.1-0.1,4.2-0.1,6.2-0.1c2.1,0,4.2,0.2,6.2,0.5
		c2.1,0.4,4.1,1,6,1.9L353.2,238z"/>
</g>
<g>
	<polygon class="st14" points="339.2,245.4 319.9,248.7 339,244.4 	"/>
</g>
<g>
	<path class="st14" d="M337.6,253.2c-2.2,0.7-4.2,1.7-6.2,2.9c-1.9,1.2-3.7,2.7-5.5,4.3c-1.7,1.6-3.4,3.2-5,4.9
		c-1.6,1.6-3.3,3.4-3.8,5.7c0.4-2.3,2-4.2,3.6-5.9c1.6-1.7,3.2-3.4,4.8-5c1.7-1.6,3.4-3.2,5.4-4.5c1.9-1.4,4-2.5,6.3-3.3
		L337.6,253.2z"/>
</g>
<g>
	<path class="st14" d="M336.6,258.5c-3.3,3.2-6.5,6.6-9.4,10.3c-1.4,1.8-2.9,3.6-4,5.6c-1.1,2-1.9,4.3-1.3,6.6l0,0l1.7-0.9l-1.7,1
		l0,0l0,0c-0.7-2.3,0-4.7,1.1-6.8c1.1-2.1,2.5-4,3.9-5.8c2.8-3.7,5.8-7.3,9.1-10.6L336.6,258.5z"/>
</g>
<g>
	<path class="st14" d="M340.5,262.4c-0.5-0.1-1.1,0.3-1.6,0.9l-1.5,1.9c-1,1.3-1.9,2.6-2.8,4c-1.7,2.7-3.2,5.7-3.7,8.9l-0.1,0
		l0.6-1.6l-0.5,1.7l-0.1,0.4l0-0.4c0.3-3.3,1.6-6.4,3.3-9.2c0.8-1.4,1.7-2.8,2.6-4.1l1.4-2c0.3-0.3,0.6-0.7,0.9-1
		c0.4-0.3,0.9-0.5,1.5-0.4L340.5,262.4z"/>
</g>
<g>
	<path class="st14" d="M346.7,262.1c-4.2,5.3-6.2,12.2-5.6,19l-0.1,0l0-2.6l0.1,2.6l-0.1,0c-1-6.8,0.8-14,4.9-19.6L346.7,262.1z"/>
</g>
<g>
	<path class="st14" d="M354,266c0,4.9-0.5,9.8-1.6,14.5c0.8-4.8,1-9.7,0.6-14.5L354,266z"/>
</g>
<g>
	<path class="st14" d="M360.3,268.9c1,5.1,1.2,10.4,0.6,15.6l0,0.1l0,0c-0.6,0-1.2-0.5-1.3-1.1c0.2,0.6,0.7,1,1.3,1l-0.1,0
		c0.3-5.2-0.2-10.4-1.5-15.4L360.3,268.9z"/>
</g>
<g>
	<path class="st14" d="M368.2,267.4c2.3,6,3.5,12.4,3.5,18.8l0,0.9l-0.2-0.8c-0.4-1.7-0.6-3.5-0.4-5.2c-0.1,1.7,0.2,3.5,0.7,5.2
		l-0.2,0c-0.2-6.3-1.7-12.6-4.2-18.4L368.2,267.4z"/>
</g>
<g>
	<path class="st14" d="M374.7,265.9l4,4.3c1.3,1.5,2.7,2.9,3.9,4.4c1.3,1.5,2.5,3.1,3.4,4.8c0.9,1.7,1.5,3.7,1.6,5.6
		c-0.2-2-0.9-3.8-1.8-5.5c-1-1.7-2.2-3.2-3.5-4.6c-1.3-1.4-2.7-2.8-4.1-4.2l-4.1-4.2L374.7,265.9z"/>
</g>
<g>
	<polygon class="st14" points="384.2,261.3 396.4,274.1 383.5,262 	"/>
</g>
<g>
	<polygon class="st14" points="388.4,254.3 395.5,258.5 387.9,255.2 	"/>
</g>
</svg>
