<?xml version="1.0" encoding="utf-8"?>
<!-- Generator: Adobe Illustrator 19.2.1, SVG Export Plug-In . SVG Version: 6.00 Build 0)  -->
<svg version="1.1" id="Layer_1" xmlns="http://www.w3.org/2000/svg" xmlns:xlink="http://www.w3.org/1999/xlink" x="0px" y="0px"
	 viewBox="0 0 522.6 531" enable-background="new 0 0 522.6 531" xml:space="preserve">
<g>
	<path fill="none" stroke="#000000" stroke-width="2" stroke-linecap="round" stroke-linejoin="round" stroke-miterlimit="10" d="
		M106.9,45.3c8,5.1,15.1,10.8,19.1,19.9c5.7,13.1-0.2,31.5-12.6,37.5c-6,2.9-7.7,8.3-4.5,14.5c3.6,7.1,9.8,11.2,17,14
		c1.3,0.5,2.6,1.1,4,1.5c12,3.7,21.4,4,26.3-13c4.4-15.1,14.8-15.6,27.1-14.8c6.1,0.4,12.2,1.9,16.5,7.3c2.4,3,3.2,6.6,4.4,10
		c3,8.6,8.7,14.6,19,12.5"/>
	<path fill="none" stroke="#EC008C" stroke-width="2" stroke-linecap="round" stroke-linejoin="round" stroke-miterlimit="10" d="
		M342.3,199.6c-0.2,3.8-4.4,19.8-5.4,23.3c-4.8,17-8.1,24.5-16.4,40.1c-6.8,12.9-4,24-14.9,35.8c-0.5,0.5-5.2,6-5.5,6.7
		c-6.3,13.1-15.7,21.1-18,35.4c-1.6,9.8,10.1,28.4,21.9,31.6c6.7,1.8,13,3.2,19.5-0.1"/>
	<path fill="none" stroke="#2E3192" stroke-width="2" stroke-linecap="round" stroke-linejoin="round" stroke-miterlimit="10" d="
		M218.7,127.2c4.2,4.4,8.5,8.7,14.5,11c8.4,3.2,16.4,1.4,24.5-1.5c8.4-3,14.2-10,21.9-14.1c6.3-3.4,12.3-7.3,19-9.9
		c19.4-7.3,30.9,1.3,38.3,16.6c4.7,9.7,6.6,20.7,6.4,31.4c-0.3,13,2.7,27.5,1.8,41"/>
	<path fill="none" stroke="#000000" stroke-width="2" stroke-linecap="round" stroke-linejoin="round" stroke-miterlimit="10" d="
		M229.7,35.8c-5.7,11-12.9,21.1-21.1,30.4c-6.6,7.6-14.5,13.7-24.9,15.5c-9.8,1.7-17.8-2.5-24.9-8.5c-11.4-9.6-19.6-21.7-27-34.4
		c-0.5-0.9-1.3-1.7-2-2.5"/>
	<path fill="none" stroke="#000000" stroke-width="2" stroke-linecap="round" stroke-linejoin="round" stroke-miterlimit="10" d="
		M255.2,44.3c-8.6,5.6-16.8,11.2-21.1,21.4c-5.8,13.7-0.3,32,13.2,37.9c5.6,2.4,7,10.6,1.9,17.1c-5.1,6.5-12,10.7-19.9,13"/>
	<path fill="none" stroke="#39B54A" stroke-width="2" stroke-linecap="round" stroke-linejoin="round" stroke-miterlimit="10" d="
		M249.2,39.8c10.4,5.2,19.2,12.2,23.4,23.5c2.8,7.4,3.9,15.1,4.6,22.9c1.2,12.9,0.8,25.5-5.1,37.4c-0.6,1.3-0.2,2.4-0.4,3.5"/>
	<path fill="none" stroke="#2E3192" stroke-width="2" stroke-linecap="round" stroke-linejoin="round" stroke-miterlimit="10" d="
		M345.1,201.6c-1.1,15.2-7.7,30-13.5,44.4c-6.2,15.2-11.1,30.7-10.4,47.4c0.4,9.7,2.5,18.7,10.4,25.6c4.5,3.9,9.5,7.1,14,10.9
		c6.5,5.4,9.9,12.2,8,20.9"/>
	<path fill="none" stroke="#EC008C" stroke-width="2" stroke-linecap="round" stroke-linejoin="round" stroke-miterlimit="10" d="
		M221.7,116.7c-6.5-3.6-7.9-9.7-8.6-16.5c-1.4-15.1,0.5-29.4,10.6-41.4c6.4-7.6,14.1-13.8,22.9-18.5l0-0.7c0.8,0.1,1.5-0.2,2.6-0.7
		c10.9-5.1,22.4-6.4,33.9-3c15.8,4.7,27.9,14.8,37.4,27.9c18.7,25.5,17.5,40.2,18.8,71.3c0.5,11.3,0.5,27.9,2,40.8
		c-0.5,6,1.3,17.8,0.9,23.7"/>
	<path fill="none" stroke="#000000" stroke-width="2" stroke-linecap="round" stroke-linejoin="round" stroke-miterlimit="10" d="
		M341.6,446.8c-5.2,19.1-9.2,38.5-13,57.9"/>
	<path fill="none" stroke="#000000" stroke-width="2" stroke-linecap="round" stroke-linejoin="round" stroke-miterlimit="10" d="
		M362,363.4c1.9,0.2,2-1,2-2.5c0.1-8.3,0.3-16.6,0.5-25c0.1-3-1.2-5.1-4-6c-5.4-1.5-10.8-2.9-16.5-2"/>
	<path fill="none" stroke="#000000" stroke-width="2" stroke-linecap="round" stroke-linejoin="round" stroke-miterlimit="10" d="
		M206.7,259c3.2,4.9,8.1,8.4,11.7,12.7c8.4,10.1,19.6,15.6,30.3,22.2c12.3,7.7,25.7,13,39,18.5"/>
	<path fill="none" stroke="#EC008C" stroke-width="2" stroke-linecap="round" stroke-linejoin="round" stroke-miterlimit="10" d="
		M282,341.8c0.3,8,0.7,22,2.3,28.1c2.1,8.1,6.4,15.4,10.9,22.5c2.1,3.2,5.8,4.8,9.4,6c1,0.3,1.2,0.8,1.5,1.6"/>
	<path fill="none" stroke="#000000" stroke-width="2" stroke-linecap="round" stroke-linejoin="round" stroke-miterlimit="10" d="
		M181.3,100.7c3.9-1,6.5-3.2,5.9-7.5c-0.4-3-2.4-5.1-5.4-5.4c-3.4-0.4-5.8,1.1-7,4.4c-1.2,3.5,0.1,5.8,3,7.5c0.9,0.5,2,0.7,3,1"/>
	<path fill="none" stroke="#000000" stroke-width="2" stroke-linecap="round" stroke-linejoin="round" stroke-miterlimit="10" d="
		M343.3,327.9c-8.4-0.9-16.8-2.1-25.1-3.5c-5-0.9-9.4-2.3-14.5-4c-4.5-1.5-10-6-14.5-7.5"/>
	<path fill="none" stroke="#000000" stroke-width="2" stroke-linecap="round" stroke-linejoin="round" stroke-miterlimit="10" d="
		M204.7,259c-1,3.1-3.2,5.9-1,9.5c2.7,4.4,5.8,8,11,9.6c2.7,0.8,4.3,0,6-1.6"/>
	<path fill="none" stroke="#EC008C" stroke-width="2" stroke-linecap="round" stroke-linejoin="round" stroke-miterlimit="10" d="
		M297.1,395.3c-0.3,3.2-0.7,6.3-1,9.5"/>
	<path fill="none" stroke="#EC008C" stroke-width="2" stroke-linecap="round" stroke-linejoin="round" stroke-miterlimit="10" d="
		M214.7,110.2c-2.2,2.7-4.3,5.3-6.5,8"/>
	<path fill="none" stroke="#EC008C" stroke-width="2" stroke-linecap="round" stroke-linejoin="round" stroke-miterlimit="10" d="
		M314.1,375.4c1.6,3,5.2,4.7,5.5,8.5"/>
	<g>
		<path fill="none" stroke="#C49A6C" stroke-linecap="round" stroke-linejoin="round" stroke-miterlimit="10" d="M271.2,304
			c1.5-1.6,3.3-2.2,5.5-2.6c11.2-2,22.6,2.3,31.4,9.1c8.2,6.3,12.2,17.2,16.8,26.1c5.5,10.5,9,22,10.2,33.8c0.7,6.6,2.2,11.8,4.1,18
			c1.7,5.5,0.6,13-0.5,18.5c-1.3,6.4-2.1,13-2,19.4c0.3,12.4,6.1,22.5,15.9,29.9c11,8.2,18.6,7.8,26.8,2.5
			c6.9-4.5,10.7-11.3,12-19.4c2.5-15.2-2.1-29.2-8-42.9c-2.2-5.1-5.9-9.4-8.7-14.1c-7.2-12.1-16-22.8-25.2-33.3
			c-5.7-6.6-12-12.9-15-21.4"/>
		<g>
			<path fill="none" stroke="#C49A6C" stroke-linecap="round" stroke-linejoin="round" stroke-miterlimit="10" d="M319.6,312.4
				c0,0,30.7,69,27.7,92.4s-1.3,40.1,4.7,43.7c6,3.7,18,9.7,24.7,2c6.7-7.7,11.7-22,7.7-31.3s-23.7-46.3-23.7-46.3"/>
			<path fill="none" stroke="#C49A6C" stroke-linecap="round" stroke-linejoin="round" stroke-miterlimit="10" d="M346.3,355.2
				c0,0,9.9,42.3,8,57.7c-2,15.3-3,27.3,3.4,31c6.3,3.7,19.3,1.7,17.7-7c-1.7-8.7,8.3-9-8.3-44"/>
		</g>
	</g>
	<g>
		<g>
			
				<line fill="none" stroke="#EC008C" stroke-linecap="round" stroke-linejoin="round" x1="297.5" y1="291.9" x2="313.6" y2="260.2"/>
			<g>
				<polygon fill="#EC008C" points="316.8,253.9 315.9,264.6 313.4,260.7 308.7,260.9 				"/>
			</g>
		</g>
	</g>
	<g>
		<g>
			<line fill="none" stroke="#2E3192" stroke-linecap="round" stroke-linejoin="round" x1="335.5" y1="258" x2="329.4" y2="288"/>
			<g>
				<polygon fill="#2E3192" points="328,294.9 326,284.3 329.5,287.5 334,286 				"/>
			</g>
		</g>
	</g>
	<text transform="matrix(1 0 0 1 168.1729 66.2267)" font-family="'MyriadPro-Regular'" font-size="23px">L1</text>
	<text transform="matrix(1 0 0 1 364.0889 189.7267)" font-family="'MyriadPro-Regular'" font-size="16px">Genitofemoral nerve</text>
	<text transform="matrix(1 0 0 1 358.4365 281.7267)" font-family="'MyriadPro-Regular'" font-size="16px">Genital branch</text>
	<text transform="matrix(1 0 0 1 186.4888 392.7054)" font-family="'MyriadPro-Regular'" font-size="16px">Femoral branch</text>
	<text transform="matrix(1 0 0 1 379.3447 386.3432)" font-family="'MyriadPro-Regular'" font-size="16px">Cremaster muscle</text>
	<text transform="matrix(1 0 0 1 69.1555 179.5636)" font-family="'MyriadPro-Regular'" font-size="30px">Cremasteric reflex</text>
	<text transform="matrix(0.9081 0 0 1 46.2111 253.3261)"><tspan x="0" y="0" fill="#2B3990" font-family="'CenturyGothic'" font-size="16px">May be absent in </tspan><tspan x="15.4" y="19.2" fill="#2B3990" font-family="'CenturyGothic'" font-size="16px">testicular torsion</tspan><tspan x="-46.2" y="57.6" fill="#2B3990" font-family="'CenturyGothic'" font-size="16px"> Bulbocavernosus reflex </tspan><tspan x="103.8" y="76.8" fill="#2B3990" font-family="'CenturyGothic'" font-size="16px">and </tspan><tspan x="-2.4" y="96" fill="#2B3990" font-family="'CenturyGothic'" font-size="16px">cremasteric reflex </tspan><tspan x="47.2" y="115.2" fill="#2B3990" font-family="'CenturyGothic'" font-size="16px">are used to </tspan><tspan x="25" y="134.4" fill="#2B3990" font-family="'CenturyGothic'" font-size="16px">determine the </tspan><tspan x="27" y="153.6" fill="#2B3990" font-family="'CenturyGothic'" font-size="16px">recovery from </tspan><tspan x="46.4" y="172.8" fill="#2B3990" font-family="'CenturyGothic'" font-size="16px">spinal shock</tspan></text>
	<path fill="none" stroke="#2BB673" stroke-width="2" stroke-linecap="round" stroke-linejoin="round" stroke-miterlimit="10" d="
		M246.7,39.6c-0.3,0-0.6-0.1-1-0.3c-15.8-6.3-31.5-6.6-46.9,1.5c-0.7,0.3-1.3,0.6-2,1c-7.7,4.2-14.6,4-22.6-0.8
		c-17.9-10.8-36.9-9.2-55.8-2.2c-11.1,4.1-21.3,9.6-27.5,20.4c-4.3,7.6-5.8,15.9-6.5,24.5c-1.1,12-1.4,24.1,2.7,35.4
		c5.5,15.1,16.7,25,31.8,30.5c13.1,4.8,25.9,5,38.5-1.9c6.3-3.5,10.5-7.7,10.6-15.5c0.1-4.2,2.1-8.3,5.3-11.5
		c5.3-5.5,12.3-3.4,15.6,1c2.7,3.7,4.6,7.9,4.7,12c0.1,7.3,4.7,11,9.8,13.9c15.9,8.9,31.8,6.6,47.3-1.4c3.2-1.7,6-4.3,9-6.4
		c1.7-1.1,3.4-2.1,3-4.5"/>
	<path fill="none" stroke="#000000" stroke-width="2" stroke-linecap="round" stroke-linejoin="round" stroke-miterlimit="10" d="
		M191.8,187.6c9.9,21.6,16.1,43.9,13.5,67.9c-0.1,1,0.1,1.9,1,2.5l-3.5,10c-3.4,5.9-4,12.6-6,19c-5,16.4-8.9,33-11.5,49.9
		c-3.1,19.9-4.2,39.8-3.6,59.9c0.9,32.9,7.9,64.8,14.1,96.9c0.7,3.7,1.3,7.3,2,11"/>
</g>
</svg>
