<?xml version="1.0" encoding="utf-8"?>
<!-- Generator: Adobe Illustrator 19.2.1, SVG Export Plug-In . SVG Version: 6.00 Build 0)  -->
<svg version="1.1" xmlns="http://www.w3.org/2000/svg" xmlns:xlink="http://www.w3.org/1999/xlink" x="0px" y="0px"
	 viewBox="0 0 540.7 365.6" enable-background="new 0 0 540.7 365.6" xml:space="preserve">
<g id="Layer_1">
	<g id="XMLID_2_">
		<g>
			<path fill="#EACECE" d="M308.7,52c0.4-0.5,0.6-0.8,0.6-0.9c-0.1,0.2-0.8,1.1-1.9,2.7C308,52.9,308.4,52.3,308.7,52z"/>
			<path fill="#FFFFFF" d="M332.9,254.3c-1.2,0.3-2.3,0.5-3.1,0.8C330.7,254.7,331.8,254.5,332.9,254.3z"/>
			<path fill="#A4D5A8" d="M53.3,118c3.1-0.3,13.1,3.3,12.3-2.5c0,0,59.2,40,66.2,46.5c4.2,3.9,45.7,26.6,79.6,44.7l-5.7-3.1
				c0,0,0,0,0,0c1.2,0.7,2.4,1.3,3.7,1.9c23.4,12.5,43.7,22.9,46.5,24c7,2.5,42,15,44,15.5s21.9,6.1,33.5,7l0.2,2.1
				c-0.2,0.1-0.5,0.1-0.7,0.1c-1.1,0.2-2.2,0.4-3.1,0.8c-11,3.5-3,7.5-2.5,17.5c0,0-1.4-1-3.3-2.4c0,0,0,0,0,0
				c-3.7-2.7-9.6-7-11.2-8.6c-2.5-2.5-51-22-61.9-27s-72.6-33-80.1-37.1c-7.5-4.1-87.5-59.4-91.5-62.4c-0.2-0.1-0.4-0.3-0.6-0.4
				c-2.4-1.7-8-5.4-13.3-8.8c-1.9-1.3-3.8-2.5-5.5-3.6c0,0-0.1,0-0.1,0C56.1,119.8,53.3,118,53.3,118z"/>
			<path fill="#FFFFFF" d="M279.8,91c4.5-5,21.7-28.9,27.6-37.1c-12.6,18.7-97.6,150.9-97.6,150.9l-0.4,0.7
				c-1.2-0.6-2.4-1.3-3.7-1.9C206.5,202.3,273.8,97.6,279.8,91z"/>
			<circle fill="#FFFFFF" cx="203.3" cy="169.4" r="14.4"/>
			<path fill="#A4D5A8" d="M205.7,203.6l5.7,3.1c-33.9-18-75.4-40.8-79.6-44.7c-7-6.5-66.2-46.5-66.2-46.5v0h0.1
				c0,0,59.2,40,66.2,46.5c3.9,3.6,39.3,23.1,71.4,40.3l1.6,0.8L205.7,203.6z"/>
			<path fill="#A4D5A8" d="M205.7,203.6C205.7,203.6,205.7,203.6,205.7,203.6l-0.9-0.5C205.1,203.3,205.4,203.4,205.7,203.6z"/>
			<path fill="#A4D5A8" d="M65.4,125.8c5.3,3.4,10.9,7.1,13.3,8.8C76.3,132.9,70.8,129.3,65.4,125.8z"/>
		</g>
		<g>
			<path fill="none" stroke="#000000" stroke-width="2" stroke-miterlimit="10" d="M65.6,115.5c-0.3-2.6-2.9-7.2-9.3-15
				c-20.5-25-18.2-19-13.1-34.5"/>
			<path fill="none" stroke="#000000" stroke-width="2" stroke-miterlimit="10" d="M22.8,66c0,0-4.5,15,0,25.5s26,27,30.5,26.5
				c3.1-0.3,13.1,3.3,12.3-2.5"/>
			<path fill="none" stroke="#000000" stroke-width="2" stroke-miterlimit="10" d="M332.9,254.3c0.2-0.1,0.4-0.1,0.7-0.1
				c13.1-2.4,38.5-1.6,38.7-1.6c3.6,0.1,7-0.9,10.1-0.4c1.6,0.3,3.2,1.1,4.7,2.6c0.4,0.4,0.8,0.9,1.2,1.5c3.8,5.7,1.7,13.5,0.9,19.7
				c-1.2,9,4.5,19.2,1,27.8c-1.9,4.6-6.3,7.5-10.1,10.7c-10.4,8.8-17.3,20.9-24,32.8"/>
			<path fill="none" stroke="#000000" stroke-width="2" stroke-miterlimit="10" d="M337.3,290c0,0-9.5-7.5-10-17.5s-8.5-14,2.5-17.5
				"/>
			<path fill="none" stroke="#00A651" stroke-width="2" stroke-miterlimit="10" d="M324,270.1c1.9,1.4,3.3,2.4,3.3,2.4"/>
			<path fill="none" stroke="#00A651" stroke-width="2" stroke-miterlimit="10" d="M53.3,118c0,0,2.8,1.8,6.5,4.2c0,0,0,0,0.1,0
				c1.7,1.1,3.6,2.3,5.5,3.6c5.3,3.4,10.9,7.1,13.3,8.8c0.2,0.1,0.4,0.3,0.6,0.4c4,3,84,58.3,91.5,62.4c7.5,4.1,69.2,32.1,80.1,37.1
				s59.4,24.5,61.9,27c1.6,1.6,7.5,5.9,11.2,8.6c0,0,0,0,0,0"/>
			<path fill="none" stroke="#000000" stroke-miterlimit="10" d="M59.8,122.2c0,0,12.4,22.3,18.4,30.3s51.4,56.6,75.4,70.6
				s48.1,27.6,73.7,32.7c20.9,4.1,95.6,14.2,96.6,14.4"/>
			<path fill="none" stroke="#00A651" stroke-width="2" stroke-miterlimit="10" d="M212.7,207.4c21.9,11.6,40.4,21.2,43.1,22.1
				c7,2.5,42,15,44,15.5s21.9,6.1,33.5,7"/>
			<path fill="none" stroke="#000000" stroke-width="2" stroke-miterlimit="10" d="M65.6,115.5L65.6,115.5c0,0,59.2,40,66.2,46.5
				c4.2,3.9,45.7,26.6,79.6,44.7"/>
			<circle fill="none" stroke="#000000" stroke-miterlimit="10" cx="203.3" cy="169.4" r="14.4"/>
			<path fill="none" stroke="#ED1E26" stroke-miterlimit="10" d="M307.4,53.9c-12.6,18.7-97.6,150.9-97.6,150.9"/>
			<path fill="none" stroke="#ED1E26" stroke-miterlimit="10" d="M309.3,51.1C309.3,51.1,309.3,51.1,309.3,51.1
				c-0.1,0.1-0.3,0.4-0.7,0.9c-0.2,0.3-0.7,1-1.3,1.8"/>
			<path fill="none" stroke="#ED1E26" stroke-miterlimit="10" d="M307.4,53.8c1.1-1.5,1.8-2.5,1.9-2.7"/>
			<path fill="none" stroke="#ED1E26" stroke-miterlimit="10" d="M307.4,53.8C307.4,53.8,307.4,53.8,307.4,53.8
				C307.4,53.8,307.4,53.9,307.4,53.8"/>
			<path fill="none" stroke="#ED1E26" stroke-miterlimit="10" d="M205.7,203.6C205.7,203.6,205.7,203.6,205.7,203.6
				c0.8-1.3,68.1-106,74.1-112.6c4.5-5,21.7-28.9,27.6-37.1"/>
		</g>
	</g>
	<path fill="#1D18EF" d="M212.7,204.8l33.7-49.9c0,0,60.7-90.3,60.7-92.9"/>
</g>
<g id="Layer_2">
	<line fill="none" stroke="#070707" stroke-miterlimit="10" x1="274.9" y1="98.7" x2="258.7" y2="36.7"/>
	<line fill="none" stroke="#070707" stroke-miterlimit="10" x1="193.5" y1="157.6" x2="143.3" y2="115.5"/>
	<line fill="none" stroke="#070707" stroke-miterlimit="10" x1="269.7" y1="237.7" x2="153.3" y2="240.7"/>
	<text transform="matrix(1 0 0 1 124.833 34.5265)" font-family="'MyriadPro-Regular'" font-size="16px">Inferior epigastric artery and vein</text>
	<text transform="matrix(1 0 0 1 100.9997 107.5002)" font-family="'MyriadPro-Regular'" font-size="16px">Deep inguinal ring</text>
	<text transform="matrix(1 0 0 1 32.8246 247.3599)" font-family="'MyriadPro-Regular'" font-size="16px">Inguinal ligament</text>
	<text transform="matrix(1 0 0 1 298.0967 107.5)"><tspan x="0" y="0" fill="#1D18EF" font-family="'MyriadPro-Regular'" font-size="28px">Deep ring is </tspan><tspan x="0" y="33.6" fill="#1D18EF" font-family="'MyriadPro-Regular'" font-size="28px">lateral to </tspan><tspan x="0" y="67.2" fill="#1D18EF" font-family="'MyriadPro-Regular'" font-size="28px">Inferior epigastric </tspan><tspan x="0" y="100.8" fill="#1D18EF" font-family="'MyriadPro-Regular'" font-size="28px">Vessels</tspan></text>
</g>
</svg>
