<?xml version="1.0" encoding="utf-8"?>
<!-- Generator: Adobe Illustrator 21.0.0, SVG Export Plug-In . SVG Version: 6.00 Build 0)  -->
<svg version="1.1" id="Layer_1" xmlns="http://www.w3.org/2000/svg" xmlns:xlink="http://www.w3.org/1999/xlink" x="0px" y="0px"
	 viewBox="0 0 600 400" style="enable-background:new 0 0 600 400;" xml:space="preserve">
<style type="text/css">
	.st0{display:none;}
	.st1{fill:none;stroke:#CC9933;stroke-miterlimit:10;}
	.st2{fill:none;stroke:#333333;stroke-width:1.4659;stroke-miterlimit:10;}
	.st3{fill:none;stroke:#333333;stroke-width:1.4659;stroke-miterlimit:10;stroke-dasharray:9.1156,2.2789;}
	.st4{fill:none;stroke:#CCCC99;stroke-width:0.8133;stroke-miterlimit:10;}
	.st5{fill:#CCCC99;}
	.st6{fill:none;stroke:#666666;stroke-miterlimit:10;}
	.st7{fill:url(#SVGID_1_);stroke:#CC9966;stroke-width:0.8133;stroke-miterlimit:10;}
	.st8{fill:#6699FF;stroke:#000000;stroke-miterlimit:10;}
	.st9{fill:none;stroke:#FF0033;stroke-width:0.8133;stroke-miterlimit:10;}
	.st10{fill:none;stroke:#FF0033;stroke-width:0.8501;stroke-miterlimit:10;}
	.st11{fill:none;stroke:#0033CC;stroke-width:0.8133;stroke-miterlimit:10;}
	.st12{fill:none;stroke:#0033CC;stroke-width:0.7809;stroke-miterlimit:10;}
	.st13{font-family:'MyriadPro-Regular';}
	.st14{font-size:14px;}
	.st15{fill:#62BB46;}
	.st16{font-size:30px;}
	.st17{fill:#FFFFFF;}
	.st18{font-size:20px;}
	.st19{fill:none;stroke:#666666;stroke-width:0.8133;stroke-miterlimit:10;}
</style>
<g id="Layer_1_1_" class="st0">
	
		<image style="display:inline;overflow:visible;opacity:0.2;enable-background:new    ;" width="1286" height="723" xlink:href="C74680BA.jpg"  transform="matrix(0.6484 0 0 0.6484 -218.0519 -65.9076)">
	</image>
</g>
<g id="Layer_2">
	<path class="st1" d="M144,64c0,0,19,3,26,11s13,11,8,12s-22-12-32-8s-10,0-10,0"/>
	<path class="st1" d="M292.8,74c10.8,1.4,10.9,4.8,5.7,13.5c-6,10-26,43-44,53s-53,27-61,53s-19,68-27,76s-24,40-22,60s5,49,30,53
		s47-45,37-81s-8.7-62.8-6-71c6-18,27-52,44-61s43-26,48-38s33-43,37-48s43-24,53-25s39-18,39-18"/>
	<path class="st1" d="M145.5,58.5c0,0,19,4,25,11s16,17,23,36s20,29,41,28s41-15,40-33c-0.7-12.4-1.8-20.9,2.7-24.8"/>
	<g>
		<g>
			<path class="st2" d="M238.3,190.9c-1.3,0.5-2.7,0.8-4.2,1.1"/>
			<path class="st3" d="M231.8,192.4c-2.7,0.4-5.7,0.6-8.8,0.6c-13.3,0-24.7-8.3-27.8-18.5"/>
			<path class="st2" d="M194.9,173.4c-0.3-1.4-0.5-2.9-0.5-4.4"/>
		</g>
	</g>
	<path class="st4" d="M177,284.2c0,0-22,15-22.8,37.4s4.1,46.8,22,44.7c17.9-2,34.2-30.9,25.2-56.9S186,281.4,177,284.2z"/>
	<path class="st4" d="M181.1,262.7c0,0-7.7,16.3-15.9,22.4c-8.1,6.1-16.3,27.7-15,39.9s7.3,49.6,28.1,44.7s30.1-28.1,28.9-43.9
		c-1.2-15.9-5.3-26-13-41.9s-5.6-25-7-26C184.8,256.4,182.5,256.1,181.1,262.7z"/>
	<g>
		<path class="st5" d="M184.8,257.2c0.6-1.7,1.2-3.4,1.8-5.2c0.6-1.7,1.2-3.4,2-5.1c-0.3,1.8-0.6,3.6-0.8,5.4
			c-0.2,1.8-0.4,3.6-0.6,5.4L184.8,257.2z"/>
	</g>
	<g>
		
			<image style="overflow:visible;opacity:0.75;enable-background:new    ;" width="77" height="59" xlink:href="C74680BA.png"  transform="matrix(0.9855 0 0 0.9855 185.261 144.131)">
		</image>
		<g>
			<path class="st2" d="M194.4,169.1c0-12.5,11.2-15.9,26.9-15.9s28.3,10.2,28.3,22.7c0,7.8-4.3,12.6-11.3,15"/>
		</g>
	</g>
	<path class="st1" d="M425.5,58.5c0,0-75,32-85,33s-11-3,10-12s71-29,77-35"/>
	<path class="st1" d="M433.5,58.5c0,0-42,15-57,22s-41,19-53,30s-24,20-27,24"/>
	<path class="st1" d="M440.5,66.5c0,0-56,20-74,29s-40,20-46,25s-27,23-36,30"/>
	<path class="st6" d="M445.5,69.5c0,0-77,28-109,50s-36,25-58,39s-31,22-41,30s-16,22-20,36s-9,45-2,68s13,49,1,66s-27,39-45,34
		s-39-23-37-57s24-65,29-78s15-59,20-69s31-31,30-37s-4-4-18-12s-12-26-22-35s-52-10-52-10"/>
	<path class="st1" d="M243.5,144.5c0,0,11-2,11-6s-11,2-24,9s-34,25-39,34s-13,30-15,39s-4,32-13,46s-19,37-20,42s-9,31,0,51
		s20,27,30,27s20-5,29-14s16-38,15-51s-12-51-11-60s1.1-27.6,5-36c7-15,19-40,31-47s39-25,42-28"/>
	<path class="st6" d="M145.5,82.5c0,0,13-3,25,8s15,21,24,30s36,23,55,15"/>
	<path class="st6" d="M195.5,126.5c0,0,23,19,42,13"/>
	<path class="st6" d="M211.5,159.5c0,0,12-9,6-14s-23-7-27-15s-5-21-11-25s-23-12-33-13s-3-10,12-2s22,9,29,26"/>
	
		<linearGradient id="SVGID_1_" gradientUnits="userSpaceOnUse" x1="230" y1="284.5" x2="230" y2="332.5" gradientTransform="matrix(1 0 0 -1 0 400)">
		<stop  offset="0" style="stop-color:#FEE93D"/>
		<stop  offset="1" style="stop-color:#FFFFFF"/>
	</linearGradient>
	<polyline class="st7" points="212.5,68.5 222.5,84.5 208.5,83.5 232.5,115.5 251.5,84.5 235.5,84.5 247.5,67.5 	"/>
	<path class="st8" d="M501.5,306h-153c-6.6,0-12-5.4-12-12v-79c0-6.6,5.4-12,12-12h153c6.6,0,12,5.4,12,12v79
		C513.5,300.6,508.1,306,501.5,306z"/>
	<path class="st9" d="M300,78.3c0,0-9.5,0.3-10.3-13.8"/>
	<path class="st9" d="M299.4,80.9c0,0-6.2,8.7-12.5,0.3c-6.2-8.4-5.4-15.7-3.8-19.2"/>
	<ellipse class="st10" cx="286.5" cy="62.7" rx="4" ry="2.6"/>
	<path class="st11" d="M286.8,80.8c0,0-6.2,3.1-8.9-4.9c-2.7-8-3.9-10.7-3.8-13.8"/>
	<ellipse class="st12" cx="278.2" cy="61.7" rx="4" ry="2.7"/>
	<text transform="matrix(1 0 0 1 321.1396 164.7598)" class="st13 st14">Superficial inguinal ring</text>
	<text transform="matrix(1 0 0 1 250.4729 49.7598)" class="st13 st14">Inferior epigastric vessels</text>
	<text transform="matrix(1 0 0 1 293.1543 349.5996)" class="st15 st13 st16">Direct inguinal hernia</text>
	<text transform="matrix(1 0 0 1 352.0308 225.7598)" class="st17 st13 st18">Defined as arising </text>
	<text transform="matrix(1 0 0 1 370.6308 249.7598)" class="st17 st13 st18">medial to the </text>
	<text transform="matrix(1 0 0 1 352.8308 273.7598)" class="st17 st13 st18">Inferior epigastric </text>
	<text transform="matrix(1 0 0 1 399.0308 297.7598)" class="st17 st13 st18">vessels</text>
	<text transform="matrix(1 0 0 1 72.1396 119.7598)" class="st13 st14">Peritoneal sac</text>
	<text transform="matrix(1 0 0 1 87.1396 330.7598)" class="st13 st14">Testis</text>
	<line class="st19" x1="241.8" y1="162.6" x2="309.5" y2="162.6"/>
	<line class="st19" x1="121.9" y1="328.9" x2="174.5" y2="328.9"/>
	<line class="st19" x1="162.9" y1="116.9" x2="215.5" y2="116.9"/>
</g>
</svg>
