<svg xmlns="http://www.w3.org/2000/svg" viewBox="0 0 459.8 246.2">
  <title>duct system of pancreas</title>
  <g id="Layer_1" data-name="Layer 1">
    <g id="Layer_2" data-name="Layer 2">
      <path d="M184.39,64.48s-22.87-27.23-43-17.42-40.3,37-31,76.79,26.14,74.61,44.66,78.42,87.68.62,101.52-19.95" transform="translate(-2.31 -6.55)" fill="none" stroke="#c49a6c" stroke-miterlimit="10" stroke-width="0.82"/>
      <path d="M238.83,164.69s28.89,25.63,31.61,39,13.07,20.14,29.41,12.25c14.26-6.89,1.41-18.6-13.54-45.31" transform="translate(-2.31 -6.55)" fill="none" stroke="#c49a6c" stroke-miterlimit="10" stroke-width="0.82"/>
      <path d="M253.62,129.56a12.87,12.87,0,0,1,7.7,1c14,6.79,25,40,25,40" transform="translate(-2.31 -6.55)" fill="none" stroke="#c49a6c" stroke-miterlimit="10" stroke-width="0.82"/>
      <line x1="249.48" y1="122.28" x2="247.44" y2="124.29" fill="none" stroke="#c49a6c" stroke-miterlimit="10" stroke-width="0.82"/>
      <g opacity="0.8">
        <g>
          <path d="M377.67,66.38c5.31,4.9,13.89,4.08,13.07,10.62s-8.58,11.85-15.52,15.11-6.54-7.76-14.7,0-9.8,13.89-17.56,14.7-13.89-1.23-20-2.45A15.24,15.24,0,0,0,310.27,107c-2.45,1.82-10.62,4.71-12.66,2.26S286.38,108,286.38,108l-5.52,2.17s-10.21,4.77-11.44,3.14-5.31-4.08-5.31-4.08l-5.72,9.39s-1.42.36-8.58.07l-1.63-.07c-7.21-.34-8.17,3.12-9,4.9L152.6,87.18s12.66-2.45,16.34-6.54,4.49-5.31,10.21-6.94,8.17-4.08,11-6.54S200.8,57.77,202,57s19.2,0,19.2,0,9-4.9,13.48-6.13,3.27-.82,11,0,9.39-.32,19.2-.82,12.67,1.63,21.45,4.9,15.31,3.27,24.7,6.94,7.76,1.23,16.34,4.49,5.72,1.23,16.34,0,9.8,2,18.79-2S372.36,61.48,377.67,66.38Z" transform="translate(-2.31 -6.55)" fill="#d2ead5"/>
          <path d="M249.82,118.74l3.88,10.95-14.49-6.09c.82-1.81,1.77-5.28,9-4.9Z" transform="translate(-2.31 -6.55)" fill="#d2ead5"/>
          <path d="M239.21,123.6l14.49,6.09c-3.81.65-7.23,2.83-8.37,6.14-12.2,35.3-50.65,32.68-69,32.68s-22.87-20-26.14-35.54,2.45-45.75,2.45-45.75l50.77,65.88-2.57,3.55h5.31l-2.74-3.55,6-8.29,8.38-13.48s7.55-1.23,14.08-2.37,5.72-3.35,6.87-4.53A2.74,2.74,0,0,0,239.21,123.6Z" transform="translate(-2.31 -6.55)" fill="#d2ead5"/>
          <path d="M152.6,87.21,239.2,123.6a2.74,2.74,0,0,1-.49.82c-1.15,1.18-.33,3.39-6.87,4.53s-14.08,2.37-14.08,2.37l-8.38,13.48-6,8.29Z" transform="translate(-2.31 -6.55)" fill="#d2ead5"/>
          <polygon points="201.07 146.55 203.8 150.1 198.49 150.1 201.07 146.55" fill="#d2ead5"/>
        </g>
        <g>
          <path d="M152.6,87.21s-5.72,30.23-2.45,45.75,7.76,35.54,26.14,35.54,56.82,2.62,69-32.68c1.14-3.27,4.57-5.49,8.37-6.14" transform="translate(-2.31 -6.55)" fill="none" stroke="#c49a6c" stroke-miterlimit="10" stroke-width="0.82"/>
          <line x1="247.51" y1="112.19" x2="251.39" y2="123.13" fill="none" stroke="#c49a6c" stroke-miterlimit="10" stroke-width="0.82"/>
          <path d="M152.6,87.21s12.66-2.45,16.34-6.54,4.49-5.31,10.21-6.94a24.67,24.67,0,0,0,13.57-9.5c1.5-2.22,4-3.52,6.38-4.72a38,38,0,0,1,5.47-2.41,19.47,19.47,0,0,1,10.22-.36c2.94.66,4.35,1.23,7.17-.15,4.16-2,8.24-4.5,12.74-5.73s3.27-.82,11,0,9.39-.32,19.2-.82,12.67,1.63,21.45,4.9,15.31,3.27,24.7,6.94,7.76,1.23,16.34,4.49,5.72,1.23,16.34,0,9.8,2,18.79-2,9.8-2.86,15.11,2S391.55,70.46,390.74,77s-8.58,11.85-15.52,15.11-6.54-7.76-14.7,0-9.8,13.89-17.56,14.7-13.89-1.23-20-2.45A15.24,15.24,0,0,0,310.27,107c-2.45,1.82-10.62,4.71-12.66,2.26S286.38,108,286.38,108l-5.52,2.17c-2.19,1-4.86,2.64-7.17,3.14-3,.65-5.2-2.29-7.71-3.64a1.7,1.7,0,0,0-1.17-.28,1.84,1.84,0,0,0-1,.84c-1.67,2.38-3.56,6.78-6,8.28-2.62,1.61-6.83.23-9.66.1-7.2-.34-8.17,3.12-9,4.9a2.74,2.74,0,0,1-.49.82c-1.15,1.18-.33,3.39-6.87,4.53s-14.08,2.37-14.08,2.37l-8.38,13.48-6,8.29-2.57,3.55h5.31" transform="translate(-2.31 -6.55)" fill="none" stroke="#c49a6c" stroke-miterlimit="10" stroke-width="0.82"/>
        </g>
      </g>
    </g>
    <path d="M173.26,42c-.53,16.78-1.35,33.62-3.2,50.31a123.25,123.25,0,0,1-2,13.16c-.83,3.73-2.62,6.81-4.29,10.22-4.34,8.87-8.34,17.91-12.24,27a9.31,9.31,0,0,0-.29,5c.11.49.49,2.74,1.11,1.32q4.43-10.3,9.14-20.48c3-6.4,6.62-12.28,8-19.25,3.25-16.43,3.83-33.55,4.65-50.23.25-5,.47-10.07.63-15.11.08-2.59-1.4-7.08-1.56-2Z" transform="translate(-2.31 -6.55)" fill="#138e0d"/>
  </g>
  <g id="Layer_2-2" data-name="Layer 2">
    <path d="M362.06,80.17q-14.23,1-28.51,1.43c-4.76.12-9.52.22-14.28.17s-9.53-.18-14.3-.71c-2.4-.29-4.72-.74-7.07-1s-4.7-.54-7.06-.71a86.16,86.16,0,0,0-14.14.22,78.25,78.25,0,0,0-27,7.65,51.89,51.89,0,0,0-11.43,8c-3.48,3.14-6.61,6.65-9.87,10.16-1.63,1.75-3.34,3.47-5.17,5.1a31,31,0,0,1-6.18,4.19L204.31,121c-8.5,4.26-17,8.57-25.37,13-4.2,2.21-8.38,4.45-12.51,6.76-2.06,1.16-4.11,2.33-6.11,3.54-1,.61-2,1.23-2.92,1.86-.47.32-.93.64-1.34,1a6.21,6.21,0,0,0-.56.46c-.23.19-.18.2-.25.23l-1.44.52a1.76,1.76,0,0,1-2.26-1.05,1.78,1.78,0,0,1,.25-1.66,6.09,6.09,0,0,1,1-1.06,10,10,0,0,1,.83-.67c.53-.4,1.06-.75,1.58-1.09,1-.68,2.08-1.3,3.13-1.92,2.09-1.22,4.19-2.37,6.3-3.5,4.21-2.26,8.46-4.44,12.71-6.58,8.51-4.29,17.07-8.45,25.66-12.57l12.9-6.13a28.25,28.25,0,0,0,5.66-3.7c1.75-1.5,3.43-3.12,5.07-4.83,3.28-3.39,6.55-6.94,10.2-10.11a54.07,54.07,0,0,1,12-8.09A80,80,0,0,1,276.59,78,87.56,87.56,0,0,1,291,78c2.38.21,4.76.47,7.13.85,1.18.17,2.36.38,3.53.6s2.33.37,3.5.57c4.68.61,9.44.81,14.18,1s9.5.12,14.26.09Q347.81,80.92,362.06,80.17Z" transform="translate(-2.31 -6.55)" fill="#0ff908"/>
    <path d="M238.7,94.05A137.29,137.29,0,0,1,216,101a140,140,0,0,1-23.58,3c-4,.11-7.94.15-11.9-.07-2-.08-4-.25-5.94-.41s-4-.44-5.89-.61a9,9,0,0,0-2.76.18,8.31,8.31,0,0,0-2.49,1.14c-1.57,1-3.16,2.35-4.83,3.43a66.24,66.24,0,0,1-10.54,5.72.82.82,0,1,1-.65-1.5h0a64.71,64.71,0,0,0,10.39-5.41c1.67-1,3.17-2.23,4.91-3.35a9.59,9.59,0,0,1,2.9-1.26,10.23,10.23,0,0,1,3.14-.16c2,.22,3.94.49,5.91.72s3.92.39,5.89.51c3.93.28,7.88.31,11.82.27a139.35,139.35,0,0,0,23.52-2.54A137.08,137.08,0,0,0,238.7,94.05Z" transform="translate(-2.31 -6.55)" fill="#0ff908"/>
  </g>
  <g id="Layer_3" data-name="Layer 3">
    <g>
      <path d="M163.42,144.33a2.22,2.22,0,0,1-.87-1.57c0-.64-.07-1.25-.13-1.93-.11-1.15-1.44-1.42-2-2.31,0,0,0,0-.07,0s-.05.06,0,.07a2.61,2.61,0,0,0,.77,1,2.16,2.16,0,0,1,1,1.35,10.25,10.25,0,0,1,.21,1.87,1.59,1.59,0,0,0,.55,1.06,2.5,2.5,0,0,0,.48.44h0Z" transform="translate(-2.31 -6.55)" fill="#e0a728"/>
      <path d="M162.46,144.72a2,2,0,0,1-.84-1.51l-.09-1.86c-.08-1.1-1.39-1.33-1.85-2.15,0,0,0,0-.07,0s-.05.06,0,.07a2.19,2.19,0,0,0,.7.92,1.94,1.94,0,0,1,1,1.27,9.77,9.77,0,0,1,.17,1.8,1.46,1.46,0,0,0,.53,1,2.35,2.35,0,0,0,.47.42h0Z" transform="translate(-2.31 -6.55)" fill="#e0a728"/>
      <path d="M161.49,145.11a1.87,1.87,0,0,1-.81-1.44l0-1.79c-.05-1.06-1.33-1.24-1.73-2,0,0,0,0-.07,0s-.05.06,0,.07a1.81,1.81,0,0,0,.64.85,1.73,1.73,0,0,1,.94,1.19,9.35,9.35,0,0,1,.13,1.73,1.34,1.34,0,0,0,.51,1,2.21,2.21,0,0,0,.46.4h0Z" transform="translate(-2.31 -6.55)" fill="#e0a728"/>
      <path d="M160.52,145.5a1.71,1.71,0,0,1-.78-1.37v-1.72c0-1-1.27-1.15-1.61-1.83,0,0,0,0-.07,0s-.05.06,0,.07a1.48,1.48,0,0,0,.58.77,1.53,1.53,0,0,1,.88,1.11,8.91,8.91,0,0,1,.09,1.66,1.22,1.22,0,0,0,.49.92,2.08,2.08,0,0,0,.45.37h0Z" transform="translate(-2.31 -6.55)" fill="#e0a728"/>
    </g>
    <g>
      <path d="M158.2,148.13a15.08,15.08,0,0,1-1-2.84,12.05,12.05,0,0,0-.86-2.84,3.56,3.56,0,0,0-1.93-1.71,18.59,18.59,0,0,0-2.65-.81s0,0-.05.07,0,.08,0,.09c.76.22,1.38.56,2.09.78a3.82,3.82,0,0,1,2.27,1.76,8.31,8.31,0,0,1,.91,2.74,6.22,6.22,0,0,0,.69,1.8c.14.31.26.63.42,1h0S158.21,148.14,158.2,148.13Z" transform="translate(-2.31 -6.55)" fill="#e0a728"/>
      <path d="M157.16,148.21a9.21,9.21,0,0,1-.86-2.48,11.1,11.1,0,0,0-.71-2.61,2.93,2.93,0,0,0-1.7-1.51,22.53,22.53,0,0,0-2.24-.65s0,0,0,.07,0,.08,0,.09c.61.2,1.12.49,1.73.66a3.11,3.11,0,0,1,2,1.53,7.4,7.4,0,0,1,.76,2.51,4.52,4.52,0,0,0,.62,1.59c.13.26.24.53.4.81h0Z" transform="translate(-2.31 -6.55)" fill="#e0a728"/>
      <path d="M156.12,148.29a5.62,5.62,0,0,1-.76-2.11,10.14,10.14,0,0,0-.56-2.37,2.33,2.33,0,0,0-1.48-1.31c-.64-.23-1.25-.3-1.83-.49,0,0,0,0,0,.07s0,.08,0,.08a8.53,8.53,0,0,0,1.38.53,2.45,2.45,0,0,1,1.72,1.3,6.52,6.52,0,0,1,.61,2.27,3.19,3.19,0,0,0,.54,1.38,6.39,6.39,0,0,0,.38.65h0Z" transform="translate(-2.31 -6.55)" fill="#e0a728"/>
      <path d="M155.08,148.36a3.32,3.32,0,0,1-.67-1.75,9.2,9.2,0,0,0-.41-2.14,1.78,1.78,0,0,0-1.25-1.11c-.54-.17-1-.17-1.42-.33,0,0,0,0,0,.07s0,.08,0,.08a3,3,0,0,0,1,.4,1.83,1.83,0,0,1,1.44,1.07,5.66,5.66,0,0,1,.46,2,2.17,2.17,0,0,0,.47,1.17,2.92,2.92,0,0,0,.35.5h0Z" transform="translate(-2.31 -6.55)" fill="#e0a728"/>
    </g>
    <g>
      <path d="M159.31,136.53a2.22,2.22,0,0,1-1.73-.48c-.48-.42-.94-.82-1.47-1.26-.9-.72-2,0-3-.21,0,0,0,0,0,.08s0,.08,0,.08a2.61,2.61,0,0,0,1.25.15,2.16,2.16,0,0,1,1.7.2,10.25,10.25,0,0,1,1.48,1.16,1.59,1.59,0,0,0,1.15.35,2.5,2.5,0,0,0,.65,0v0S159.31,136.53,159.31,136.53Z" transform="translate(-2.31 -6.55)" fill="#e0a728"/>
      <path d="M158.92,137.5a2,2,0,0,1-1.66-.45l-1.39-1.24c-.85-.71-1.92.06-2.83-.18,0,0,0,0,0,.08s0,.08,0,.08a2.19,2.19,0,0,0,1.15.14,1.94,1.94,0,0,1,1.6.18,9.77,9.77,0,0,1,1.41,1.14,1.46,1.46,0,0,0,1.1.33,2.35,2.35,0,0,0,.62,0v0S158.92,137.5,158.92,137.5Z" transform="translate(-2.31 -6.55)" fill="#e0a728"/>
      <path d="M158.52,138.47a1.87,1.87,0,0,1-1.59-.43l-1.31-1.21c-.8-.7-1.82.08-2.63-.15,0,0,0,0,0,.08s0,.08,0,.08A1.81,1.81,0,0,0,154,137a1.73,1.73,0,0,1,1.5.16,9.35,9.35,0,0,1,1.33,1.12,1.34,1.34,0,0,0,1,.31,2.21,2.21,0,0,0,.6,0v0S158.52,138.47,158.52,138.47Z" transform="translate(-2.31 -6.55)" fill="#e0a728"/>
      <path d="M158.13,139.43a1.71,1.71,0,0,1-1.52-.4l-1.23-1.19c-.75-.69-1.71.11-2.44-.12,0,0,0,0,0,.08s0,.08,0,.08a1.48,1.48,0,0,0,1,.12,1.53,1.53,0,0,1,1.41.14,8.91,8.91,0,0,1,1.25,1.1,1.22,1.22,0,0,0,1,.29,2.08,2.08,0,0,0,.58-.06v0S158.13,139.43,158.13,139.43Z" transform="translate(-2.31 -6.55)" fill="#e0a728"/>
    </g>
  </g>
  <g id="Layer_4" data-name="Layer 4">
    <line x1="208.04" y1="109.76" x2="346.19" y2="135.72" fill="none" stroke="#000" stroke-miterlimit="10"/>
    <text transform="translate(356.69 122.28)" font-size="20" font-family="MyriadPro-Regular, Myriad Pro"><tspan letter-spacing="0.01em">M<tspan x="16.2" y="0" letter-spacing="0em">ain </tspan></tspan><tspan x="0" y="24">panc</tspan><tspan x="41.08" y="24" letter-spacing="-0.01em">r</tspan><tspan x="47.42" y="24">e</tspan><tspan x="57.44" y="24" letter-spacing="0em">a</tspan><tspan x="67" y="24">tic </tspan><tspan x="0" y="48">du</tspan><tspan x="22.3" y="48" letter-spacing="0.01em">c</tspan><tspan x="31.52" y="48">t</tspan></text>
    <line x1="194.98" y1="96.74" x2="236.39" y2="18.45" fill="none" stroke="#000" stroke-miterlimit="10"/>
    <text transform="translate(242.94 16.74)" font-size="20" font-family="MyriadPro-Regular, Myriad Pro"><tspan letter-spacing="-0.01em">A</tspan><tspan x="12" y="0" letter-spacing="-0.01em">cc</tspan><tspan x="29.68" y="0" letter-spacing="0em">esso</tspan><tspan x="66.52" y="0" letter-spacing="0.03em">r</tspan><tspan x="73.56" y="0">y panc</tspan><tspan x="128.3" y="0" letter-spacing="-0.01em">r</tspan><tspan x="134.64" y="0">e</tspan><tspan x="144.66" y="0" letter-spacing="0em">a</tspan><tspan x="154.22" y="0" letter-spacing="0em">tic du</tspan><tspan x="201.02" y="0" letter-spacing="0.01em">c</tspan><tspan x="210.24" y="0">t</tspan></text>
    <text transform="translate(67.44 28.74)" font-size="20" font-family="MyriadPro-Regular, Myriad Pro"><tspan letter-spacing="-0.01em">C</tspan><tspan x="11.38" y="0" letter-spacing="0em">ommon bile du</tspan><tspan x="139.38" y="0" letter-spacing="0.01em">c</tspan><tspan x="148.6" y="0">t</tspan></text>
    <text transform="translate(0 164)" font-size="20" font-family="MyriadPro-Regular, Myriad Pro">Sphin<tspan x="48.12" y="0" letter-spacing="0.01em">c</tspan><tspan x="57.34" y="0" letter-spacing="-0.01em">t</tspan><tspan x="63.84" y="0">er of </tspan><tspan x="64.6" y="24" letter-spacing="0em">O</tspan><tspan x="78.46" y="24">ddi</tspan></text>
    <line x1="158.58" y1="135.72" x2="103.19" y2="168.95" fill="none" stroke="#000" stroke-miterlimit="10"/>
    <text transform="translate(110.84 239.2)" font-size="28" fill="#fc0d19" font-family="MyriadPro-Regular, Myriad Pro"><tspan letter-spacing="-0.03em">P</tspan><tspan x="14.17" y="0">anc</tspan><tspan x="55.75" y="0" letter-spacing="-0.01em">r</tspan><tspan x="64.62" y="0">e</tspan><tspan x="78.65" y="0" letter-spacing="0em">a</tspan><tspan x="92.04" y="0" letter-spacing="0em">tic du</tspan><tspan x="157.55" y="0" letter-spacing="0.01em">c</tspan><tspan x="170.46" y="0" letter-spacing="0em">t s</tspan><tspan x="196.75" y="0" letter-spacing="-0.01em">y</tspan><tspan x="209.77" y="0">s</tspan><tspan x="220.86" y="0" letter-spacing="-0.01em">t</tspan><tspan x="229.96" y="0" letter-spacing="0em">em</tspan></text>
  </g>
</svg>
