<?xml version="1.0" encoding="utf-8"?>
<!-- Generator: Adobe Illustrator 19.2.1, SVG Export Plug-In . SVG Version: 6.00 Build 0)  -->
<svg version="1.1" xmlns="http://www.w3.org/2000/svg" xmlns:xlink="http://www.w3.org/1999/xlink" x="0px" y="0px"
	 viewBox="0 0 1726.3 1380.2" style="enable-background:new 0 0 1726.3 1380.2;" xml:space="preserve">
<style type="text/css">
	.st0{fill:#F9F9E8;}
	.st1{fill:#F2F2C0;}
	.st2{fill:#F9FC6B;}
	.st3{fill:#F7F7F0;}
	.st4{fill:none;stroke:#754C24;stroke-width:2;stroke-miterlimit:10;}
	.st5{fill:none;stroke:#42210B;stroke-width:2;stroke-miterlimit:10;}
	.st6{fill:none;stroke:#C69C6D;stroke-width:2;stroke-miterlimit:10;}
	.st7{fill:none;stroke:#C69C6D;stroke-miterlimit:10;}
	.st8{opacity:0.6;fill:none;stroke:#534741;stroke-width:5;stroke-miterlimit:10;}
	.st9{fill:none;stroke:#534741;stroke-width:3;stroke-miterlimit:10;}
	.st10{font-family:'CenturyGothic';}
	.st11{font-size:60px;}
	.st12{font-size:40px;}
	.st13{font-size:38px;}
	.st14{fill:#FF00FF;}
	.st15{font-size:98px;}
	.st16{fill:none;stroke:#000000;stroke-width:2;stroke-miterlimit:10;}
</style>
<g id="Layer_1">
	<g id="XMLID_1_">
		<g>
			<path class="st0" d="M1237.8,171.4c61.5,67.5,147,198.1,114,331.5c-12.8,51.9-38,76.1-64.8,85.1c-35.4,11.8-73.9-2.8-91.2-15.4
				c-3.3-2.4-5.8-4.7-7.4-6.7c-13.7-17.5-39.7-70.6-36.9-82.2c19.9-72.9,25.6-145.3,24.9-192.4c-1-68.3-31.1-113.7-63-142.4
				C1113.3,148.8,1176.3,103.9,1237.8,171.4z"/>
			<path class="st1" d="M780.3,923.9c0.1,0.5,0.1,1,0.1,1.3C780.4,924.8,780.4,924.4,780.3,923.9z M1135.1,672.6
				c5.6-6.4,12.4-10.7,20.3-10.7c0,0,4.5-99.3,40.4-89.3l0,0c17.3,12.6,55.8,27.3,91.2,15.4c23.9,17.8,2.9,109.9,2.9,109.9l-2.3,0.7
				c11.8,37.4-36.4,106.4-40.7,112.3c-13.4,44.8-67.7,92.4-67.7,92.4c-0.8,3.8-1.8,7.8-2.9,12c-15,54-150,81.6-150,81.6
				c-1.7,1.9-3.4,3.6-5.1,5.3c-36,33.9-112.4,17.8-112.4,17.8c-8.1,12.5-17.3,24.3-27.6,33.2c-41,36-123.3-9.1-123.3-9.1
				c-3,3.5-6.3,6.6-9.6,9.1c-24,17.9-118.5,4.6-150,0c-5.5-0.8-10-2.7-13.7-5.4c-41.2,8.8-66.6-3.1-82.2-22.4
				c0,0-65.7,35.4-122.7-3.6c-15-10.3-24.8-26.2-31.1-44.2c-85.9,0-114.4-78.8-127.9-114.8c-1.1-3-1.9-6.2-2.3-9.6
				c-16.5-15.3-40.6-40-40.6-40c38.4-47.7,80.6-106,116-144.2c0,0,29.9,21.7,41.7,44.3c0,0,0,0,0,0c1,0.6,61.8,35,82.7,75.9
				c5.3,1.1,114.6,24,138.2,61.5l1.8-0.6c0,0,151.3-38.1,200.9-2v0c0,0,41.7-24.5,88.3-35.5c25.8-6.1,53.1-8.1,75.7,0.5
				c3.6,1.3,6.9,2.7,9.9,4.1c0,0,9.8-34.7,54.3-40.6c5-0.7,10.5-1,16.4-0.8c8.7,0.2,16.4,1.4,23.2,3.2l0.2-0.8
				c0,0,24.6-54.9,63.6-53.4c7.4,0.3,14.3,1,20.7,1.9l0.3-2C1111.8,724.8,1119.2,690.5,1135.1,672.6z"/>
			<path class="st2" d="M847.6,812.7c-46.6,11-88.3,35.5-88.3,35.5v0c-49.7-36.1-200.9,2-200.9,2l-1.8,0.6
				c-23.6-37.5-132.9-60.5-138.2-61.5c-20.9-40.9-81.7-75.4-82.7-75.9c0,0,0,0,0,0c-11.8-22.6-41.7-44.3-41.7-44.3
				c13.7-14.8,26.3-26.5,37.3-33.4c34.7-21.8,79.3-46.2,128.2-70.8c0,0,155.8,170.5,413.8,174.5c164.5,2.5,243.2-127.4,278.1-255.6
				c-2.7,11.6,23.2,64.7,36.9,82.2c1.6,2,4.1,4.3,7.4,6.7l0,0c-35.9-10.1-40.4,89.3-40.4,89.3c-7.9,0-14.6,4.3-20.3,10.7
				c-15.9,18-23.3,52.2-23.3,52.2l-0.3,2c-6.4-1-13.3-1.6-20.7-1.9c-39-1.5-63.6,53.4-63.6,53.4l-0.2,0.8c-6.8-1.8-14.5-3-23.2-3.2
				c-5.9-0.2-11.4,0.1-16.4,0.8c-44.5,5.9-54.3,40.6-54.3,40.6c-3.1-1.4-6.4-2.8-9.9-4.1C900.7,804.6,873.4,806.6,847.6,812.7z"/>
			<path class="st3" d="M877.3,95.5c72.3-3.1,128.2-6.6,135.6-8.1c21-4.4-57.9,143-100,177.2c-18.6,15.1-57.3,51.3-103.8,91.1
				c-58.6,50.2-129.6,106.1-188.3,132.5c-1.8,0.8-3.6,1.6-5.4,2.5h0c-52.2,23.6-106.2,49-155.8,74.1c-48.9,24.7-93.6,49-128.2,70.8
				c-11,6.9-23.6,18.7-37.3,33.4c-35.4,38.1-77.6,96.4-116,144.2c-42.6,53-80.6,92.9-99.3,77.7C36.5,856.7,52.3,733,52.3,733
				s13.2-168.4,0-239.5C39.1,422.5,26,209.3,126,154s315.8-78.9,384.2-60.5C554.6,105.4,743.9,101.2,877.3,95.5z"/>
		</g>
		<g>
			<path class="st4" d="M615.3,490.7c-52.2,23.6-106.2,49-155.8,74.1c-48.9,24.7-93.6,49-128.2,70.8c-11,6.9-23.6,18.7-37.3,33.4
				c-35.4,38.1-77.6,96.4-116,144.2c-42.6,53-80.6,92.9-99.3,77.7C36.5,856.7,52.3,733,52.3,733s13.2-168.4,0-239.5
				C39.1,422.5,26,209.3,126,154s315.8-78.9,384.2-60.5c44.4,11.9,233.7,7.7,367,2c72.3-3.1,128.2-6.6,135.6-8.1
				c21-4.4-57.9,143-100,177.2c-18.6,15.1-57.3,51.3-103.8,91.1c-58.6,50.2-129.6,106.1-188.3,132.5
				C618.9,489.1,617.1,489.9,615.3,490.7"/>
			<path class="st4" d="M859.3,35.2c0,0,2,43.8,10,52c7.3,7.4,7.9,8.1,8,8.2c0,0,0,0,0,0"/>
			<path class="st4" d="M758.6,40.6c0,0,0,43.8,8.7,54.9"/>
			<path class="st4" d="M1000.3,144.2c0,0,17-44,42-37c11.9,3.3,42.2,15.7,71,41.6c31.9,28.7,62,74.1,63,142.4
				c0.7,47.1-5,119.5-24.9,192.4c-34.9,128.2-113.7,258.1-278.1,255.6c-258-4-413.8-174.5-413.8-174.5"/>
			<path class="st4" d="M809.1,355.7c0,0,8.5,99.5-46.1,127.5c-54.7,28-103.6,21.9-147.6,7.5h0"/>
			<path class="st4" d="M767.3,106.5c0,0,43.6,155.8,42.3,241.8"/>
			<path class="st5" d="M1113.3,148.8c0,0,63.1-45,124.6,22.5c61.5,67.5,147,198.1,114,331.5c-12.8,51.9-38,76.1-64.8,85.1
				c-35.4,11.8-73.9-2.8-91.2-15.4c-3.3-2.4-5.8-4.7-7.4-6.7c-13.7-17.5-39.7-70.6-36.9-82.2c0,0,0-0.1,0-0.1"/>
			<path class="st6" d="M178,813.2c0,0,24.1,24.8,40.6,40c0.8,0.7,1.6,1.4,2.3,2.1"/>
			<path class="st6" d="M247.9,759.3c0,0-34,56.7-29.3,93.9c0.4,3.4,1.2,6.6,2.3,9.6c13.5,36,42,114.8,127.9,114.8"/>
			<path class="st6" d="M340.9,862.1c0,0-9.8,65.5,7.9,115.6c6.3,17.9,16.1,33.9,31.1,44.2c57,39,122.7,3.6,122.7,3.6"/>
			<path class="st6" d="M478.9,924.3c0,0-6.1,64.2,23.7,101.1c15.6,19.3,41,31.1,82.2,22.4"/>
			<path class="st6" d="M568.4,1006.8c0,0-1,28.5,16.3,41c3.7,2.7,8.2,4.6,13.7,5.4c31.5,4.6,126,17.9,150,0
				c3.4-2.5,6.6-5.6,9.6-9.1c18.7-21.5,30.3-58,23.9-66.5"/>
			<path class="st6" d="M758,1044.1c0,0,82.3,45.1,123.3,9.1c10.2-9,19.5-20.7,27.6-33.2c24.4-37.7,38.4-82.7,38.4-82.7"/>
			<path class="st6" d="M908.8,1020c0,0,76.4,16.2,112.4-17.8c1.7-1.6,3.4-3.4,5.1-5.3c32.8-36.9,50.9-115.7,50.9-115.7"/>
			<path class="st6" d="M1026.4,996.9c0,0,135-27.6,150-81.6c1.2-4.2,2.1-8.2,2.9-12c9.8-46-2.9-69.1-2.9-69.1"/>
			<path class="st6" d="M1179.3,903.3c0,0,54.3-47.6,67.7-92.4c2.2-7.4,3.3-14.6,2.9-21.6c-3-49.5-11.3-50-11.3-50"/>
			<path class="st6" d="M1246.6,811.4c0,0,0.1-0.1,0.3-0.4c4.2-5.9,52.4-74.9,40.7-112.3c-0.8-2.4-1.7-4.6-3-6.7
				c-22-36.7-18.7-60-18.7-60"/>
			<path class="st6" d="M1289.9,697.9c0,0,21.1-92.1-2.9-109.9"/>
			<path class="st6" d="M335.6,713.4c4.7,8.9,6.5,18,2.6,25.9"/>
			<path class="st6" d="M293.9,669c0,0,29.9,21.7,41.7,44.3"/>
			<path class="st6" d="M335.6,713.4C335.6,713.4,335.6,713.4,335.6,713.4c1,0.6,61.9,35,82.7,75.9c5.3,10.4,8,21.2,6.5,32
				c-7.5,53.5,0.4,67,0.4,67"/>
			<path class="st6" d="M418.1,789.2c0,0,0.1,0,0.2,0c5.3,1.1,114.6,24,138.2,61.5c2.3,3.6,3.8,7.4,4.3,11.3
				c6,45.2,7.3,55.2,7.3,55.2"/>
			<path class="st6" d="M780.2,923.3c-0.2-1.4-0.3-2.8-0.3-2.8"/>
			<path class="st6" d="M780.4,925.2c0-0.4-0.1-0.8-0.1-1.3"/>
			<path class="st6" d="M558.3,850.2c0,0,151.3-38.1,200.9-2c8.5,6.2,14.1,14.6,15.3,25.7c3.5,30.7,5,44.2,5.7,49.4
				c0,0.2,0,0.4,0.1,0.5c0.1,0.5,0.1,1,0.1,1.3c0,0.1,0,0.2,0,0.3c0,0,0,0.1,0,0.1c0,0.1,0,0.2,0,0.2c0,0.1,0,0.2,0,0.2
				c0,0.1,0,0.1,0,0.1"/>
			<path class="st6" d="M759.3,848.2c0,0,41.7-24.5,88.3-35.5c25.8-6.1,53.1-8.1,75.7,0.5c3.6,1.3,6.9,2.7,9.9,4.1
				c51.8,23.4,38.7,51.2,38.7,51.2"/>
			<path class="st6" d="M933.2,817.3c0,0,9.8-34.7,54.3-40.6c5-0.7,10.5-1,16.4-0.8c8.7,0.2,16.4,1.4,23.2,3.2v0
				c39.4,10.4,50.2,42.3,50.2,42.3"/>
			<path class="st6" d="M1027.3,778.2c0,0,24.6-54.9,63.6-53.4c7.4,0.3,14.3,1,20.7,1.9c27.1,4,43.8,12.5,43.8,12.5"/>
			<path class="st6" d="M1111.8,724.8c0,0,7.3-34.3,23.3-52.2c5.6-6.4,12.4-10.7,20.3-10.7c30,0,37.5,0,37.5,0"/>
			<path class="st6" d="M1155.3,661.8c0,0,4.5-99.3,40.4-89.3"/>
			<path class="st7" d="M510.8,635.1c-7.2,23.9-14.4,47.9-24.7,70.7c-12.9,28.6-30.3,54.8-47.7,80.8"/>
			<path class="st7" d="M541.4,659.4c-11.4,3.8-17.7,15.6-22.8,26.4c-6,12.6-12.1,25.3-18.1,37.9c-5.4,11.4-10.9,22.8-14.6,34.9
				c-3.9,12.6-5.8,25.7-7.6,38.7"/>
			<path class="st7" d="M579.6,677.2c-15.4,17-31,34.1-43.1,53.7c-12.1,19.5-20.7,41.8-20.8,64.8"/>
			<path class="st7" d="M558.3,801.5c2.1-44.4,26.8-84.1,50.8-121.6c2.6,21.1,1.5,52.4-6.3,72.3c-8.1,20.7-12.7,42.8-13.4,65.1"/>
			<path class="st7" d="M651.6,713.4c-10.6,36.3-24.2,71.7-40.6,105.8"/>
			<path class="st7" d="M683.6,723.4c-16.2,26.1-28.4,54.7-36.2,84.4"/>
			<path class="st7" d="M714.6,731.9c-12.3,26.6-21,54.9-25.9,83.8"/>
			<path class="st7" d="M739.5,745.2c2.7,25.7-19.2,50.2-13.7,75.5"/>
			<path class="st7" d="M773.3,749.3c-5.3-0.6-7.9,6.3-8.5,11.7c-2.9,24.2-4.6,48.5-5,72.9c-0.2-2.9-0.4-5.7-0.6-8.6"/>
			<path class="st7" d="M794.4,747.1c-2.4,22-4.3,44-5.5,66.1"/>
			<path class="st7" d="M815.4,753.3c-1,17.3-0.7,34.8,1.1,52.1"/>
			<path class="st7" d="M840.3,757.1c2.4,18.5,4.9,37,7.3,55.6c0.1,1,0.3,2,0.4,3"/>
			<path class="st7" d="M877.1,753.3c1.3,16.5,4.8,32.8,10.6,48.3c0.3,0.9,1.1,1.8,2.1,1.6"/>
			<path class="st7" d="M903.3,753.2c-1.3,17.9,2.3,36.2,10.2,52.3"/>
			<path class="st7" d="M931.5,747.2c4.7,12.7,9.4,25.3,14.2,37.9"/>
			<path class="st7" d="M963.4,735.2c6.2,14.8,14.3,28.8,24,41.5c0.4,0.6,0.9,1.1,1.3,1.7"/>
			<path class="st7" d="M989.3,715.2c-2.2,9.2,3.7,18.3,9.3,25.9c6.9,9.3,13.7,18.7,20.6,28"/>
			<path class="st7" d="M1021.4,709.2c5.7,13.3,14.5,25.2,25.5,34.5"/>
			<path class="st7" d="M1048.8,689.4c5.1,11.5,12.9,21.7,22.7,29.5"/>
			<path class="st7" d="M1073.9,660.7c13.1,16.6,26.2,33.2,39.3,49.7c0-4.4,0-8.8,0.1-13.2"/>
			<path class="st7" d="M1098.5,637.8c10.3,13.4,22.7,25.2,36.6,34.8c0.1,0.1,0.3,0.2,0.4,0.3"/>
			<path class="st7" d="M1107.5,603c12.7,12,25.3,24,38,36"/>
			<path class="st7" d="M1120.8,571.5c8.3,15,20.3,28,34.5,37.7"/>
			<path class="st7" d="M1129.6,556.8c9.8,8.9,19.1,18.3,27.8,28.3"/>
			<path class="st7" d="M1141.5,533c11.5,10.9,22.1,22.7,31.9,35.2"/>
			<path class="st7" d="M493.1,615.2c-12.1,8.7-18.1,23.3-23.6,37.2c-5.7,14.5-11.3,28.9-17,43.4c-3.2,8-6.3,16.1-11.1,23.3
				c-6,9.1-14.4,16.3-22.6,23.4"/>
			<path class="st7" d="M459.8,612.1c-14.1,26.3-28.2,52.6-42.3,78.9c-3.6,6.7-7.3,13.5-12,19.5c-5.4,6.7-12.2,12.2-19.3,17.1"/>
			<path class="st7" d="M431.1,594.9c-12.6,29.9-25.2,59.9-37.9,89.8c-6.2,14.8-14.5,31.3-30,35.2"/>
			<path class="st7" d="M400.5,608.5c-22.7,27.2-43.5,55.8-62.5,85.6"/>
		</g>
	</g>
</g>
<g id="Layer_2">
	<g>
		<g>
			<path class="st8" d="M459.5,564.8c0,0-47.5-28.7-73.2,12.3c-25.8,40.9-11.9,145.2,14.2,179.7c48.2,63.6,108.9,135.6,167.8,45
				S665.1,542.5,840.3,621"/>
			<path class="st8" d="M615.3,490.7c0,0-146.7-64.2-218.1-61.4c-153.4,6-217.6,193.1-113.7,404.5s255.8,138,313.8,118.7
				s112-247.1,170-253.2c0,0-14.7-34.8,13.3-51.6c31.8-19.1,38.2-27,57.2-26.7c19,0.2-2.7,63.6-12,72.3
				c-17,15.9-45.5,41.3-56.7,10.8"/>
		</g>
		<path class="st9" d="M459.5,564.8c0,0,132.7-83.7,307.2-83.6c14.7,0,363.3-20.5,394.4-38.2c31.1-17.7,21.9,34.4,21.9,34.4
			s-11.3,80.6-194.2,117.6c-151.5,30.6-295,35-359,63.6c-13.3,5.9-23.1,12.9-28.9,21.4"/>
	</g>
	<line class="st9" x1="614.3" y1="710.9" x2="624.3" y2="663.7"/>
</g>
<g id="Layer_3">
	<g>
		<g>
			<text transform="matrix(1 0 0 1 335.5026 313.4018)" class="st10 st11">Liver</text>
			<text transform="matrix(1 0 0 1 845.0037 381.4018)" class="st10 st11">Stomach</text>
			<text transform="matrix(1 -8.247552e-003 8.247552e-003 1 1202.2362 414.1516)" class="st10 st12">Spleen</text>
			<text transform="matrix(1 0 0 1 682.4269 926.1425)" class="st10 st11">Transverse colon</text>
			<text transform="matrix(1 0 0 1 1293.7377 821.2985)" class="st10 st13">Transverse mesocolon</text>
			<text transform="matrix(1 0 0 1 128.4481 1210.4717)" class="st14 st10 st15">Anterior relations of duodenum</text>
		</g>
		<line class="st16" x1="1091.3" y1="704.9" x2="1393.3" y2="782.9"/>
	</g>
</g>
</svg>
