<?xml version="1.0" encoding="utf-8"?>
<!-- Generator: Adobe Illustrator 19.2.1, SVG Export Plug-In . SVG Version: 6.00 Build 0)  -->
<svg version="1.1" xmlns="http://www.w3.org/2000/svg" xmlns:xlink="http://www.w3.org/1999/xlink" x="0px" y="0px"
	 viewBox="0 0 831.6 474" enable-background="new 0 0 831.6 474" xml:space="preserve">
<g id="Layer_1">
	<g>
		<g>
			<path fill="#D1D3D4" d="M426.2,182.7c49.2,21.3,95.4,50.1,145.9,68.4c9.1,3.3,13-11.2,4-14.5c-23.5-8.5-45.8-19.9-68.1-31.1
				c-24.6-12.3-49-24.9-74.3-35.8c-3.7-1.6-8-1.1-10.3,2.7C421.7,175.6,422.5,181.1,426.2,182.7L426.2,182.7z"/>
		</g>
	</g>
	<path fill="none" stroke="#000000" stroke-width="2" stroke-miterlimit="10" d="M246.4,65.9c0,0-4.5,15,0,25.5s26,27,30.5,26.5
		s23.5,7.5,3-17.5s-18.2-19-13.1-34.5s15.6-24.5,15.6-24.5"/>
	<path fill="none" stroke="#000000" stroke-width="2" stroke-miterlimit="10" d="M560.9,289.9c0,0-9.5-7.5-10-17.5s-8.5-14,2.5-17.5
		c11-3.5,42.4-2.5,42.5-2.5c6.1,0.2,11.6-2.8,16,3.8c3.8,5.7,1.7,13.5,0.9,19.7c-1.2,9,4.5,19.2,1,27.8c-1.9,4.6-6.3,7.5-10,10.7
		c-10.4,8.8-17.3,20.9-24,32.8"/>
	<path fill="none" stroke="#00A651" stroke-miterlimit="10" d="M276.9,117.9c0,0,22,14,26,17s84,58.3,91.5,62.4s69.2,32.1,80.1,37.1
		s59.4,24.5,61.9,27s14.5,11,14.5,11"/>
	<path fill="none" stroke="#000000" stroke-miterlimit="10" d="M283.4,122.1c0,0,12.4,22.3,18.4,30.3s50,64,74,78s68.4,35,91.2,40.3
		c18.5,4.3,80.6-0.6,80.6-0.6"/>
	<path fill="none" stroke="#8DC63F" stroke-miterlimit="10" d="M506.1,249.1c0,0,1.3,17.8-38.3,13.8s-52.4-13-52.4-13"/>
	<path fill="none" stroke="#8DC63F" stroke-miterlimit="10" d="M510.8,249.8c0,0,0.6,13.9-22.1,15.6s-38.1-1.4-38.1-1.4"/>
	<path fill="none" stroke="#8DC63F" stroke-miterlimit="10" d="M515.9,253.4c0,0,2.5,5.3-5.1,8.3s-30.1,12-42.8,8"/>
	<path fill="none" stroke="#8DC63F" stroke-miterlimit="10" d="M525.4,257.8c0,0-1.5,5.3-9.1,6.8s-25.4,7.9-29.6,7.8"/>
	<path fill="none" stroke="#8DC63F" stroke-miterlimit="10" d="M533.9,262c0,0-14.8,9.6-25.3,9.9"/>
	<path fill="none" stroke="#2BB673" stroke-miterlimit="10" d="M289.2,109.6c0,0,107.2,65,117.2,68.7c10,3.7,148.3,73.4,148.3,73.4"
		/>
	<path fill="none" stroke="#8DC63F" stroke-width="2" stroke-miterlimit="10" d="M407.7,155.9c0,0,0.9,20.1,7.3,24.7
		s12.1,3,15.6-2.2s-7.6-25.5-7.6-25.5"/>
	<path fill="none" stroke="#EC008C" stroke-miterlimit="10" d="M426,187.4l66.2-95.9c0,0,3.9-3.3,4.9-4s2,0,2,0s3.3,0,3,3.7
		c-0.3,3.7-69.1,99.6-69.1,99.6"/>
	<path fill="none" stroke="#00A651" stroke-width="2" stroke-miterlimit="10" d="M289.2,115.4c0,0,59.2,40,66.2,46.5
		s117,65,124,67.5s42,15,44,15.5s21.9,6.1,33.5,7c0,0-26.8-24.7-26.8-31.7s7.3-14.7,13.7-11c6.3,3.7,62.3,42.4,62.3,42.4"/>
</g>
<g id="Layer_2">
	<line fill="none" stroke="#000000" stroke-miterlimit="10" x1="257.1" y1="87.3" x2="192.4" y2="80.1"/>
	<line fill="none" stroke="#000000" stroke-miterlimit="10" x1="581.3" y1="253.4" x2="667.7" y2="335.9"/>
	<line fill="none" stroke="#000000" stroke-miterlimit="10" x1="557.7" y1="262" x2="641.1" y2="365.9"/>
	<line fill="none" stroke="#000000" stroke-miterlimit="10" x1="606.1" y1="257.8" x2="659.7" y2="270.7"/>
	<line fill="none" stroke="#000000" stroke-miterlimit="10" x1="566.4" y1="229.2" x2="656.4" y2="203.2"/>
	<line fill="none" stroke="#000000" stroke-miterlimit="10" x1="510.8" y1="261.6" x2="589.7" y2="389.2"/>
	<line fill="none" stroke="#000000" stroke-miterlimit="10" x1="426" y1="254.4" x2="313.7" y2="373.2"/>
	<line fill="none" stroke="#000000" stroke-miterlimit="10" x1="421.9" y1="206.8" x2="239.1" y2="294.6"/>
	<line fill="none" stroke="#000000" stroke-miterlimit="10" x1="330.5" y1="139.1" x2="196.4" y2="168.1"/>
	<line fill="none" stroke="#000000" stroke-miterlimit="10" x1="419.5" y1="173.2" x2="224.7" y2="233.9"/>
	<line fill="none" stroke="#000000" stroke-miterlimit="10" x1="486.6" y1="111.9" x2="654.4" y2="109.6"/>
	<text transform="matrix(1 0 0 1 97.333 75.3647)"><tspan x="0" y="0" font-family="'MyriadPro-Regular'" font-size="20px">Anterior superior </tspan><tspan x="0" y="24" font-family="'MyriadPro-Regular'" font-size="20px">ilac sine</tspan></text>
	<text transform="matrix(1 0 0 1 39.9996 172.3647)" font-family="'MyriadPro-Regular'" font-size="20px">Iliopubic ligament</text>
	<text transform="matrix(1 0 0 1 59.9996 237.698)" font-family="'MyriadPro-Regular'" font-size="20px">Deep inguinal ring</text>
	<text transform="matrix(1 0 0 1 74.6663 299.5445)" font-family="'MyriadPro-Regular'" font-size="20px">Inguinal ligament</text>
	<text transform="matrix(1 0 0 1 154.9996 379.8778)" font-family="'MyriadPro-Regular'" font-size="20px">pectineal ligament</text>
	<g>
		<text transform="matrix(1 0 0 1 664.1663 203.5656)"><tspan x="0" y="0" font-family="'MyriadPro-Regular'" font-size="20px">Superficial </tspan><tspan x="0" y="24" font-family="'MyriadPro-Regular'" font-size="20px">Inguinal ring</tspan></text>
		<text transform="matrix(1 0 0 1 467.9988 409.8778)" font-family="'MyriadPro-Regular'" font-size="20px">Lacunar ligament</text>
		<text transform="matrix(1 0 0 1 618.3329 382.5445)" font-family="'MyriadPro-Regular'" font-size="20px">Pubic tubercle</text>
		<text transform="matrix(1 0 0 1 647.1663 354.5445)" font-family="'MyriadPro-Regular'" font-size="20px">Pubic crest</text>
		<text transform="matrix(1 0 0 1 632.8889 290.6554)" font-family="'MyriadPro-Regular'" font-size="20px">Pubic symphysis</text>
	</g>
	<text transform="matrix(1 0 0 1 664.1667 92.7685)"><tspan x="0" y="0" font-family="'MyriadPro-Regular'" font-size="20px">Inferior </tspan><tspan x="0" y="24" font-family="'MyriadPro-Regular'" font-size="20px">epigastric</tspan><tspan x="0" y="48" font-family="'MyriadPro-Regular'" font-size="20px">artery</tspan></text>
	<text transform="matrix(1 0 0 1 345.6647 53.8426)" font-family="'MyriadPro-Regular'" font-size="34px">Extension of inguinal canal</text>
</g>
</svg>
