<?xml version="1.0" encoding="utf-8"?>
<!-- Generator: Adobe Illustrator 19.2.1, SVG Export Plug-In . SVG Version: 6.00 Build 0)  -->
<svg version="1.1" xmlns="http://www.w3.org/2000/svg" xmlns:xlink="http://www.w3.org/1999/xlink" x="0px" y="0px"
	 viewBox="0 0 540.7 365.6" enable-background="new 0 0 540.7 365.6" xml:space="preserve">
<g id="Layer_1">
	<g id="XMLID_2_">
		<g>
			<path fill="#EACECE" d="M307.4,53.8c0.5-0.7,0.9-1.3,1.3-1.8c0.6,19,6.7,124.1,6.7,138.6c0,11,8.4,42.2,13.7,60.9
				c-11.6-1.6-27.4-6.1-29.2-6.5c-2-0.5-37-13-44-15.5c-2.9-1-23.2-11.5-46.5-24l0.4-0.7C209.8,204.8,294.8,72.6,307.4,53.8
				C307.4,53.9,307.4,53.8,307.4,53.8C307.4,53.8,307.4,53.8,307.4,53.8z"/>
			<path fill="#FFFFFF" d="M309,51.6L309,51.6c-0.1,0.2-0.2,0.3-0.3,0.5c0,0,0,0,0,0c0,0,0,0,0,0C308.8,51.8,308.9,51.7,309,51.6z"
				/>
			<path fill="#FFFFFF" d="M328.8,226.5l2.9,25.4c-0.8-0.1-1.7-0.2-2.6-0.3c-5.3-18.6-13.7-49.9-13.7-60.9
				c0-14.6-6.1-119.7-6.7-138.6c0.1-0.2,0.2-0.3,0.3-0.4l8.4,74c0.9,21.4,2.1,42.8,3.6,54.3C322.6,192.4,325.7,210.3,328.8,226.5z"
				/>
			<path fill="#EACECE" d="M308.7,52c-0.3,0.5-0.7,1-1.3,1.8C308,52.9,308.4,52.3,308.7,52C308.7,52,308.7,52,308.7,52z"/>
			<path fill="#A4D5A8" d="M299.8,245c-2-0.5-37-13-44-15.5c-2.7-1-21.2-10.5-43.1-22.1l-1.3-0.7l-5.7-3.1c0,0,0,0,0,0
				c1.2,0.7,2.4,1.3,3.7,1.9c23.4,12.5,43.7,22.9,46.5,24c7,2.5,42,15,44,15.5c1.8,0.4,17.5,4.9,29.2,6.5c0,0,0,0,0,0
				C317.4,249.9,301.6,245.4,299.8,245z"/>
			<path fill="#FFFFFF" d="M309,51.6c-0.1,0.1-0.2,0.2-0.3,0.4c-0.1-1.8-0.1-2.8,0-2.9L309,51.6z"/>
			<path fill="#A4D5A8" d="M131.9,162c3.9,3.6,39.3,23.1,71.4,40.3l1.6,0.8l0.9,0.5l5.7,3.1C177.5,188.6,136,165.9,131.9,162
				c-7.1-6.5-66.3-46.5-66.3-46.5v0h0.1C65.7,115.5,124.9,155.5,131.9,162z"/>
			<path fill="#FFFFFF" d="M307.4,53.9c-12.6,18.7-97.6,150.9-97.6,150.9l-0.4,0.7c-1.2-0.6-2.4-1.3-3.7-1.9
				c0.8-1.3,68.1-106,74.1-112.6C284.3,86,301.5,62.1,307.4,53.9z"/>
			<path fill="#A4D5A8" d="M205.7,203.6C205.7,203.6,205.7,203.6,205.7,203.6l-0.9-0.5C205.1,203.3,205.4,203.4,205.7,203.6z"/>
			<path fill="#FFFFFF" d="M387.1,254.7l19.4-205.6c0,0-2.5,140.2-3.8,158.3c-1,12.9-9.1,37.3-13.6,50.2c-0.2-0.5-0.5-0.9-0.8-1.3
				C387.9,255.6,387.5,255.1,387.1,254.7z"/>
			<path fill="#FFFFFF" d="M388.3,256.2c0.3,0.4,0.5,0.9,0.8,1.3c-1.8,5.1-3.1,8.5-3.1,8.5l1.1-11.3
				C387.5,255.1,387.9,255.6,388.3,256.2z"/>
			<path fill="#FFFFFF" d="M345,252.9l1,13.1l-1.4-13.1C344.8,252.9,344.9,252.9,345,252.9z"/>
			<path fill="#FFFFFF" d="M331.5,66L345,252.9c-0.1,0-0.3,0-0.4,0l-7.9-74.2L331.5,66z"/>
			<path fill="#FFFFFF" d="M340.6,253.2l1.3,12.8c-0.1-0.6-0.9-5.4-2.1-12.7C340.2,253.2,340.4,253.2,340.6,253.2z"/>
			<path fill="#FFFFFF" d="M321,66l19.7,187.2c-0.2,0-0.5,0.1-0.7,0.1c-3.7-22.8-11.1-69.5-12.6-83.9C325.3,150,321,66,321,66z"/>
			<path fill="#FFFFFF" d="M335.4,253.8l1.3,12.2c0,0-1-4.7-2.5-12C334.6,253.9,335,253.9,335.4,253.8z"/>
			<path fill="#FFFFFF" d="M326.6,169.4l8.8,84.4c-0.4,0.1-0.8,0.1-1.2,0.2c-1.5-7.2-3.4-17-5.4-27.5l-11.5-100.8
				c-1.3-31.8-2-63.7-2-63.7L326.6,169.4z"/>
			<path fill="#A4D5A8" d="M331.7,251.9L331.7,251.9c0.6,0.1,1.2,0.1,1.7,0.1l0.2,2.1c-0.2,0.1-0.5,0.1-0.7,0.1
				c-0.3,0.1-0.6,0.1-0.9,0.2L331.7,251.9z"/>
			<path fill="#FFFFFF" d="M332,254.4l1.3,11.5c-0.1-0.5-1.4-4.7-3.2-11C330.6,254.8,331.3,254.6,332,254.4z"/>
			<path fill="#A4D5A8" d="M332,254.4c0.3-0.1,0.6-0.1,0.9-0.2C332.6,254.3,332.3,254.4,332,254.4L332,254.4z"/>
			<path fill="#FFFFFF" d="M332,254.4L332,254.4c-0.7,0.2-1.4,0.3-1.9,0.5c0,0,0,0,0,0C330.6,254.7,331.3,254.6,332,254.4z"/>
			<path fill="#FFFFFF" d="M331.7,251.9l0.3,2.6c-0.7,0.1-1.3,0.3-1.9,0.5c-0.3-1.1-0.6-2.2-1-3.4
				C330,251.7,330.9,251.8,331.7,251.9z"/>
			<path fill="#FFFFFF" d="M331.7,251.9L331.7,251.9c-0.8-0.1-1.7-0.2-2.6-0.3c0,0,0,0,0,0C330,251.6,330.9,251.8,331.7,251.9z"/>
			<path fill="#A4D5A8" d="M330,254.9C330,254.9,330,254.9,330,254.9c-0.1,0-0.2,0.1-0.3,0.1C329.9,255,330,254.9,330,254.9z"/>
			<path fill="#A4D5A8" d="M330,254.9c-0.1,0-0.2,0.1-0.3,0.1c-11,3.5-3,7.5-2.5,17.5c0,0-1.4-1-3.3-2.4c0,0,0,0,0,0
				c-3.7-2.7-9.6-7-11.2-8.6c-2.5-2.5-51-22-61.9-27s-72.6-33-80.1-37.1c-7.5-4.1-87.5-59.4-91.5-62.4c-0.2-0.1-0.4-0.3-0.6-0.4
				c-2.4-1.7-8-5.4-13.3-8.8c-1.9-1.3-3.8-2.5-5.5-3.6c0,0-0.1,0-0.1,0c-3.8-2.4-6.5-4.2-6.5-4.2c3.1-0.3,13.1,3.3,12.3-2.5
				c0,0,59.2,40,66.2,46.5c4.2,3.9,45.7,26.6,79.6,44.7l1.3,0.7c21.9,11.6,40.4,21.2,43.1,22.1c7,2.5,42,15,44,15.5
				c1.8,0.4,17.6,4.9,29.3,6.5C329.4,252.7,329.7,253.9,330,254.9z"/>
			<path fill="#FFFFFF" d="M317.4,125.7l11.5,100.8c-3.1-16.2-6.2-34-7.9-46.5C319.5,168.4,318.3,147.1,317.4,125.7z"/>
			<circle fill="#FFFFFF" cx="203.3" cy="169.4" r="14.4"/>
			<path fill="#A4D5A8" d="M65.4,125.8c5.3,3.4,10.9,7.1,13.3,8.8C76.3,132.9,70.8,129.3,65.4,125.8z"/>
		</g>
		<g>
			<path fill="none" stroke="#000000" stroke-width="2" stroke-miterlimit="10" d="M65.6,115.5c-0.3-2.6-2.9-7.2-9.3-15
				c-20.5-25-18.2-19-13.1-34.5"/>
			<path fill="none" stroke="#000000" stroke-width="2" stroke-miterlimit="10" d="M22.8,66c0,0-4.5,15,0,25.5s26,27,30.5,26.5
				c3.1-0.3,13.1,3.3,12.3-2.5"/>
			<path fill="none" stroke="#000000" stroke-width="2" stroke-miterlimit="10" d="M389.1,257.5c2.7,5.5,0.9,12.6,0.1,18.4
				c-1.2,9,4.5,19.2,1,27.8c-1.9,4.6-6.3,7.5-10.1,10.7c-10.4,8.8-17.3,20.9-24,32.8"/>
			<path fill="none" stroke="#000000" stroke-width="2" stroke-miterlimit="10" d="M345,252.9c1.4-0.1,2.8-0.2,4.2-0.2
				c2.6-0.1,5.3-0.2,7.8-0.2c2,0,3.9,0,5.6,0c5.6,0,9.5,0.1,9.6,0.1c3.6,0.1,7-0.9,10.1-0.4c1.6,0.3,3.2,1.1,4.7,2.6"/>
			<path fill="none" stroke="#000000" stroke-width="2" stroke-miterlimit="10" d="M340.6,253.2c1.3-0.1,2.6-0.2,4-0.3"/>
			<path fill="none" stroke="#000000" stroke-width="2" stroke-miterlimit="10" d="M335.4,253.8c1.4-0.2,2.9-0.4,4.5-0.6"/>
			<path fill="none" stroke="#000000" stroke-width="2" stroke-miterlimit="10" d="M332,254.4c0.3-0.1,0.6-0.1,0.9-0.2
				c0.2-0.1,0.4-0.1,0.7-0.1c0.2,0,0.4-0.1,0.6-0.1"/>
			<path fill="none" stroke="#000000" stroke-width="2" stroke-miterlimit="10" d="M337.3,290c0,0-9.5-7.5-10-17.5s-8.5-14,2.5-17.5
				c0.1,0,0.2-0.1,0.3-0.1"/>
			<path fill="none" stroke="#00A651" stroke-width="2" stroke-miterlimit="10" d="M324,270.1c1.9,1.4,3.3,2.4,3.3,2.4"/>
			<path fill="none" stroke="#00A651" stroke-width="2" stroke-miterlimit="10" d="M53.3,118c0,0,2.8,1.8,6.5,4.2c0,0,0,0,0.1,0
				c1.7,1.1,3.6,2.3,5.5,3.6c5.3,3.4,10.9,7.1,13.3,8.8c0.2,0.1,0.4,0.3,0.6,0.4c4,3,84,58.3,91.5,62.4c7.5,4.1,69.2,32.1,80.1,37.1
				s59.4,24.5,61.9,27c1.6,1.6,7.5,5.9,11.2,8.6c0,0,0,0,0,0"/>
			<path fill="none" stroke="#000000" stroke-miterlimit="10" d="M59.8,122.2c0,0,12.4,22.3,18.4,30.3s51.4,56.6,75.4,70.6
				s48.1,27.6,73.7,32.7c20.9,4.1,95.6,14.2,96.6,14.4"/>
			<path fill="none" stroke="#00A651" stroke-width="2" stroke-miterlimit="10" d="M331.7,251.9c0.5,0.1,1.1,0.1,1.6,0.1"/>
			<path fill="none" stroke="#00A651" stroke-width="2" stroke-miterlimit="10" d="M212.7,207.4c21.9,11.6,40.4,21.2,43.1,22.1
				c7,2.5,42,15,44,15.5c1.8,0.4,17.6,4.9,29.3,6.5"/>
			<path fill="none" stroke="#000000" stroke-width="2" stroke-miterlimit="10" d="M65.6,115.5L65.6,115.5c0,0,59.2,40,66.2,46.5
				c4.2,3.9,45.7,26.6,79.6,44.7"/>
			<circle fill="none" stroke="#000000" stroke-miterlimit="10" cx="203.3" cy="169.4" r="14.4"/>
			<path fill="none" stroke="#ED1E26" stroke-miterlimit="10" d="M307.4,53.9c-12.6,18.7-97.6,150.9-97.6,150.9"/>
			<path fill="none" stroke="#ED1E26" stroke-miterlimit="10" d="M308.7,52c-0.3,0.3-0.7,0.9-1.3,1.8"/>
			<path fill="none" stroke="#ED1E26" stroke-miterlimit="10" d="M309.3,51.1C309.3,51.1,309.3,51.1,309.3,51.1
				c-0.1,0.1-0.2,0.2-0.4,0.5c-0.1,0.1-0.2,0.2-0.3,0.4"/>
			<path fill="none" stroke="#ED1E26" stroke-miterlimit="10" d="M307.4,53.8c0.5-0.7,0.9-1.3,1.3-1.8c0.1-0.2,0.2-0.3,0.3-0.4
				c0.2-0.3,0.3-0.5,0.4-0.5"/>
			<path fill="none" stroke="#ED1E26" stroke-miterlimit="10" d="M307.4,53.8C307.4,53.8,307.4,53.8,307.4,53.8
				C307.4,53.8,307.4,53.9,307.4,53.8"/>
			<path fill="none" stroke="#ED1E26" stroke-miterlimit="10" d="M205.7,203.6C205.7,203.6,205.7,203.6,205.7,203.6
				c0.8-1.3,68.1-106,74.1-112.6c4.5-5,21.7-28.9,27.6-37.1"/>
			<path fill="none" stroke="#8F695E" stroke-width="2" stroke-miterlimit="10" d="M308.7,52c-0.1-1.8-0.1-2.8,0-2.9"/>
			<path fill="none" stroke="#ED1E26" stroke-miterlimit="10" d="M308.7,52C308.7,52,308.7,52,308.7,52"/>
			<path fill="none" stroke="#8F695E" stroke-width="2" stroke-miterlimit="10" d="M333.3,266c-0.1-0.5-1.4-4.7-3.2-11c0,0,0,0,0,0
				c-0.3-1.1-0.6-2.2-1-3.4c0,0,0,0,0,0c-5.3-18.6-13.7-49.9-13.7-60.9c0-14.6-6.1-119.7-6.7-138.6c0,0,0,0,0,0"/>
			<line fill="none" stroke="#8F695E" stroke-width="2" stroke-miterlimit="10" x1="333.3" y1="266" x2="333.3" y2="266"/>
			<polyline fill="none" stroke="#8F695E" stroke-width="2" stroke-miterlimit="10" points="357.7,270.2 357.1,252.4 350,49.1 			
				"/>
			<polyline fill="none" stroke="#8F695E" stroke-width="2" stroke-miterlimit="10" points="362.7,272.5 362.7,252.4 362.7,49.1 			
				"/>
			<path fill="none" stroke="#8F695E" stroke-width="2" stroke-miterlimit="10" d="M386,266c0,0,1.3-3.3,3.1-8.5
				c4.5-12.9,12.6-37.3,13.6-50.2c1.3-18,3.8-158.3,3.8-158.3"/>
			<path fill="none" stroke="#8F695E" stroke-miterlimit="10" d="M315.3,62c0,0,0.7,31.9,2,63.7c0.9,21.4,2.1,42.8,3.6,54.3
				c1.6,12.4,4.8,30.3,7.9,46.5c2,10.5,3.9,20.3,5.4,27.5c1.5,7.3,2.5,12,2.5,12"/>
			<path fill="none" stroke="#8F695E" stroke-miterlimit="10" d="M321,66c0,0,4.3,84,6.3,103.3c1.5,14.4,9,61.1,12.6,83.9
				c1.2,7.3,2,12.1,2.1,12.7"/>
			<line fill="none" stroke="#8F695E" stroke-miterlimit="10" x1="342" y1="266" x2="342" y2="265.9"/>
			<polyline fill="none" stroke="#8F695E" stroke-miterlimit="10" points="331.5,66 336.7,178.7 344.6,252.9 346,266 			"/>
			<polyline fill="none" stroke="#8F695E" stroke-miterlimit="10" points="338.7,66 349.3,252.6 350,266 			"/>
		</g>
	</g>
	<path fill="#1D18EF" d="M212.7,204.8l33.7-49.9c0,0,60.7-90.3,60.7-92.9"/>
</g>
<g id="Layer_2">
	<line fill="none" stroke="#070707" stroke-miterlimit="10" x1="274.9" y1="98.7" x2="258.7" y2="36.7"/>
	<line fill="none" stroke="#070707" stroke-miterlimit="10" x1="193.5" y1="157.6" x2="143.3" y2="115.5"/>
	<line fill="none" stroke="#070707" stroke-miterlimit="10" x1="313.4" y1="146.6" x2="421.3" y2="85.8"/>
	<line fill="none" stroke="#070707" stroke-miterlimit="10" x1="269.7" y1="237.7" x2="153.3" y2="240.7"/>
	<line fill="none" stroke="#070707" stroke-miterlimit="10" x1="291.3" y1="196.2" x2="419.3" y2="183.8"/>
	<text transform="matrix(1 0 0 1 124.833 34.5265)" font-family="'MyriadPro-Regular'" font-size="16px">Inferior epigastric artery and vein</text>
	<text transform="matrix(1 0 0 1 100.9997 107.5002)" font-family="'MyriadPro-Regular'" font-size="16px">Deep inguinal ring</text>
	<text transform="matrix(1 0 0 1 420.833 79.0265)"><tspan x="0" y="0" font-family="'MyriadPro-Regular'" font-size="16px">Lateral border of </tspan><tspan x="0" y="19.2" font-family="'MyriadPro-Regular'" font-size="16px">Rectus abdominis</tspan></text>
	<text transform="matrix(1 0 0 1 423.333 175.5265)"><tspan x="0" y="0" font-family="'MyriadPro-Regular'" font-size="16px">Fascia </tspan><tspan x="0" y="19.2" font-family="'MyriadPro-Regular'" font-size="16px">Transversalis</tspan></text>
	<text transform="matrix(1 0 0 1 32.8246 247.3599)" font-family="'MyriadPro-Regular'" font-size="16px">Inguinal ligament</text>
	<text transform="matrix(1 0 0 1 8.337 327.314)" fill="#1D18EF" font-family="'MyriadPro-Regular'" font-size="28px">Hesselbach’s triangle</text>
	<rect x="25.8" y="335.6" fill="none" width="301.5" height="36.6"/>
	<text transform="matrix(1 0 0 1 25.8332 348.9726)"><tspan x="0" y="0" font-family="'MyriadPro-Regular'" font-size="16px">Most direct inguinal hernias occur in this </tspan><tspan x="0" y="19.2" font-family="'MyriadPro-Regular'" font-size="16px">area</tspan></text>
</g>
</svg>
