<?xml version="1.0" encoding="utf-8"?>
<!-- Generator: Adobe Illustrator 21.0.0, SVG Export Plug-In . SVG Version: 6.00 Build 0)  -->
<svg version="1.1" xmlns="http://www.w3.org/2000/svg" xmlns:xlink="http://www.w3.org/1999/xlink" x="0px" y="0px"
	 viewBox="0 0 600 400" style="enable-background:new 0 0 600 400;" xml:space="preserve">
<style type="text/css">
	.st0{display:none;}
	.st1{fill:#6699FF;stroke:#000000;stroke-miterlimit:10;}
	.st2{fill:none;stroke:#333333;stroke-width:1.6266;stroke-miterlimit:10;}
	.st3{fill:none;stroke:#333333;stroke-width:1.6266;stroke-miterlimit:10;stroke-dasharray:10.1153,2.5288;}
	.st4{fill:none;stroke:#33CC33;stroke-width:0.8133;stroke-miterlimit:10;}
	.st5{fill:none;stroke:#FF6699;stroke-width:0.8133;stroke-miterlimit:10;}
	.st6{fill:none;stroke:#CC9966;stroke-width:0.8133;stroke-miterlimit:10;}
	.st7{fill:none;stroke:#CC6600;stroke-width:0.8133;stroke-miterlimit:10;}
	.st8{fill:none;stroke:#CCCC99;stroke-width:0.8133;stroke-miterlimit:10;}
	.st9{fill:#CCCC99;}
	.st10{fill:none;stroke:#FF0033;stroke-width:0.8133;stroke-miterlimit:10;}
	.st11{fill:none;stroke:#FF0033;stroke-width:0.8501;stroke-miterlimit:10;}
	.st12{fill:none;stroke:#0033CC;stroke-width:0.8133;stroke-miterlimit:10;}
	.st13{fill:none;stroke:#0033CC;stroke-width:0.7809;stroke-miterlimit:10;}
	.st14{fill:url(#SVGID_1_);stroke:#CC9966;stroke-width:0.8133;stroke-miterlimit:10;}
	.st15{fill:none;stroke:#CC9999;stroke-width:0.8133;stroke-miterlimit:10;}
	.st16{font-family:'MyriadPro-Regular';}
	.st17{font-size:14px;}
	.st18{fill:#62BB46;}
	.st19{font-size:30px;}
	.st20{fill:#FFFFFF;}
	.st21{font-size:20px;}
	.st22{fill:none;stroke:#666666;stroke-width:0.8133;stroke-miterlimit:10;}
</style>
<g id="Layer_1" class="st0">
	
		<image style="display:inline;overflow:visible;opacity:0.2;" width="1280" height="720" xlink:href="8CA8D11C.jpg"  transform="matrix(0.7175 0 0 0.7175 -263.999 -109.0025)">
	</image>
</g>
<g id="Layer_2">
	<path class="st1" d="M539.5,315h-153c-6.6,0-12-5.4-12-12v-79c0-6.6,5.4-12,12-12h153c6.6,0,12,5.4,12,12v79
		C551.5,309.6,546.1,315,539.5,315z"/>
	<g>
		<g>
			<path class="st2" d="M208.1,197c-1.5,0.5-3,0.9-4.7,1.3"/>
			<path class="st3" d="M200.9,198.7c-3,0.4-6.3,0.6-9.8,0.6c-14.8,0-27.4-9.2-30.8-20.5"/>
			<path class="st2" d="M159.9,177.6c-0.4-1.6-0.6-3.2-0.6-4.8"/>
		</g>
	</g>
	<path class="st4" d="M156.1,90.7c0,0,71,2.2,85.7,4.3c14.6,2.2,27.1,2.7,23.3,10.3c-3.8,7.6-56.4,45-64.5,50.4
		c-8.1,5.4-41.2,29.8-44.5,38s-12.5,34.7-10.8,46.1s1.1,30.4-8.7,42.3c-9.8,11.9-22.2,46.6-19,60.2c3.3,13.6,12.5,48.8,43.9,36.9
		s19.5-62.4,19.5-72.1s-7.6-27.1-3.3-38.5s11.9-26.6,12.5-34.7c0.5-8.1,3.3-43.4,27.1-66.2s66.7-46.1,72.1-54.2
		c5.4-8.1,35.2-22.2,58-30.4s28.7-14.6,28.7-14.6"/>
	<path class="st5" d="M158.3,80.9c0,0,67.2,13.6,88.9,6"/>
	<path class="st5" d="M264.6,86.3c0,0,14.6-0.5,10.3,11.9c-4.3,12.5-38,34.2-48.3,41.8c-10.3,7.6-54.8,43.9-60.7,51.5
		c-6,7.6-21.1,47.7-11.9,58c9.2,10.3,23.3,8.1,28.2-20.1s18.4-54.8,33.1-66.7c14.6-11.9,58.6-38.5,62.4-45.5
		c3.8-7,15.7-24.4,18.4-26c2.7-1.6,65.6-20.6,72.1-28.2"/>
	<path class="st6" d="M152.9,93.9c5.4,0.5,33.1,2.2,41.2,3.8s-14.1,11.4-33.6,8.1"/>
	<path class="st6" d="M376.8,72.2c0,0-67.8,26.6-72.7,29.8s-14.1,14.1,14.1,2.2c28.2-11.9,67.2-26.6,67.2-26.6"/>
	<path class="st6" d="M384.9,82.5c0,0-97.1,33.6-139.3,63.4"/>
	<path class="st6" d="M391.4,87.4c0,0-104.6,31.4-135,54.8s-49.9,40.1-55.3,55.3c-5.4,15.2,0.5,33.1-8.1,46.1
		c-8.7,13-13,27.1-12.5,36.3c0.5,9.2,9.5,45.3,4.9,64.8c-4.6,19.5-9.5,35.5-26.8,38.8s-29.6-4.3-35-17.9
		c-5.4-13.6-9.5-23.3-8.7-30.4s2.7-33.3,13-46.1c10.3-12.7,17.4-39,14.9-52.9s5.7-43.6,16.5-54.8c10.8-11.1,70.8-52.1,73.7-55
		s6-3.5,4.3,0"/>
	<path class="st7" d="M148.3,118.6c0,0,58.3,2.4,62.4,4.9s12.7,6.8-14.6,24.7s-44.7,33.3-48,43.6s-13.6,19.2-8.7,42.6
		s-10.6,43.6-11.9,45.5c-1.4,1.9-19.2,36.7-17.6,57.1s10.2,40.7,22,47.6c11.8,6.9,29.7,14.2,48-10.2s11-61.4,6.9-79.7
		c-4.1-18.3,2.4-33.8,9.4-46.4c6.9-12.6,7.3-27.7,6.9-39.9s34.6-49.6,48.8-57.7c14.2-8.1,129.7-60.6,148.8-57.3"/>
	<path class="st8" d="M150,292.2c0,0-22,15-22.8,37.4c-0.8,22.4,4.1,46.8,22,44.7c17.9-2,34.2-30.9,25.2-56.9S159,289.4,150,292.2z"
		/>
	<path class="st8" d="M154.1,270.7c0,0-7.7,16.3-15.9,22.4c-8.1,6.1-16.3,27.7-15,39.9s7.3,49.6,28.1,44.7s30.1-28.1,28.9-43.9
		c-1.2-15.9-5.3-26-13-41.9c-7.7-15.9-5.6-25-7-26C157.8,264.4,155.5,264.1,154.1,270.7z"/>
	<g>
		<path class="st9" d="M157.8,265.2c0.6-1.7,1.2-3.4,1.8-5.2c0.6-1.7,1.2-3.4,2-5.1c-0.3,1.8-0.6,3.6-0.8,5.4
			c-0.2,1.8-0.4,3.6-0.6,5.4L157.8,265.2z"/>
	</g>
	<path class="st10" d="M270,88.8c0,0-9.5,0.3-10.3-13.8"/>
	<path class="st10" d="M269.4,90.4c0,0-6.2,8.7-12.5,0.3c-6.2-8.4-5.4-15.7-3.8-19.2"/>
	<ellipse class="st11" cx="256.5" cy="73.2" rx="4" ry="2.6"/>
	<path class="st12" d="M256.8,91.3c0,0-6.2,3.1-8.9-4.9c-2.7-8-3.9-10.7-3.8-13.8"/>
	<ellipse class="st13" cx="248.2" cy="72.2" rx="4" ry="2.7"/>
	<linearGradient id="SVGID_1_" gradientUnits="userSpaceOnUse" x1="148.0865" y1="232.8153" x2="309.6669" y2="71.2349">
		<stop  offset="0" style="stop-color:#FEE93D"/>
		<stop  offset="1" style="stop-color:#FFFFFF"/>
	</linearGradient>
	<path class="st14" d="M285.4,65.3c0,0-2.4,38.6-18.7,49.6s-45,32.7-53.7,39.7c-8.7,7-30.1,25.5-36.1,40.4s-12.5,33.3-12.5,33.3
		l-8.1-2.7l6.8,22.2l14.9-17.1l-8.9-1.6c0,0,8.4-26,12.5-33.9c4.1-7.9,30.1-34.2,37.4-39.3s37.4-27.1,40.4-29.6
		c3-2.4,16.3-8.4,24.7-26c8.4-17.6,20.6-30.4,22.2-32.5"/>
	<g>
		
			<image style="overflow:visible;opacity:0.75;" width="84" height="64" xlink:href="8CA8D11C.png"  transform="matrix(1 0 0 1 148.7401 145.2401)">
		</image>
		<g>
			<path class="st2" d="M159.4,172.8c0-13.9,12.5-17.6,29.8-17.6s31.4,11.3,31.4,25.2c0,8.7-4.8,13.9-12.6,16.6"/>
		</g>
	</g>
	<path class="st15" d="M208.7,142.7c0,0,9.2-3.3,10.3-12.7c1.1-9.5-15.2-12.7-34.2-13.3c-19-0.5-29.6,1.4-27.9-2.4
		c1.6-3.8,13.6-4.9,24.7-5.2c11.1-0.3,25.8,4.6,35.5,4.6s21.4,1.4,22.5,3"/>
	<path class="st15" d="M239.1,112.3c0,0-34.4-3.5-40.1-4.6c-5.7-1.1-1.4-12.7,21.7-7.6c23,5.2,37.1,2.7,37.1,2.7s3.5-4.3-12.7-5.4
		c-16.3-1.1-44.7-0.8-51.8-1.9s-24.7-2.2-32-2.4"/>
	<text transform="matrix(1 0 0 1 259.1396 189.7598)" class="st16 st17">Superficial inguinal ring</text>
	<text transform="matrix(1 0 0 1 220.1396 61.7598)" class="st16 st17">Inferior epigastric vessels</text>
	<text transform="matrix(1 0 0 1 142.1543 35.5996)" class="st18 st16 st19">Indirect inguinal hernia</text>
	<text transform="matrix(1 0 0 1 390.0308 234.7598)"><tspan x="0" y="0" class="st20 st16 st21">Defined as arising </tspan><tspan x="21.1" y="24" class="st20 st16 st21">lateral to the </tspan><tspan x="0.8" y="48" class="st20 st16 st21">Inferior epigastric </tspan><tspan x="47" y="72" class="st20 st16 st21">vessels</tspan></text>
	<text transform="matrix(1 0 0 1 266.1396 246.7598)" class="st16 st17">Peritoneal sac</text>
	<text transform="matrix(1 0 0 1 234.1396 339.7598)" class="st16 st17">Testis</text>
	<line class="st22" x1="220.6" y1="185" x2="248.8" y2="185"/>
	<line class="st22" x1="171.8" y1="244.6" x2="257" y2="244.6"/>
	<line class="st22" x1="159.9" y1="337.9" x2="224.4" y2="337.9"/>
</g>
</svg>
