<svg xmlns="http://www.w3.org/2000/svg" xmlns:xlink="http://www.w3.org/1999/xlink" viewBox="0 0 1083.7754 764.2607">
  <defs>
    <linearGradient id="linear-gradient" x1="567.8608" y1="784.7501" x2="567.8608" y2="395.9083" gradientUnits="userSpaceOnUse">
      <stop offset="0" stop-color="#fff" stop-opacity="0.1"/>
      <stop offset="1" stop-color="#e6e7e8" stop-opacity="0.5"/>
    </linearGradient>
  </defs>
  <title>ineterior of bladder trigone of bladder</title>
  <g id="Layer_2" data-name="Layer 2">
    <path d="M600.6667,573.3333c16,1.3333,24.6667-6.6667,58-17.3333S830.6667,388,849,369.3333,849,336,849,336v-4C742,189,566,187,492,199s-187,88-187,88l-3,1.5s-65,13,19.5,111S472,569,495,572s27,0,27,0" transform="translate(-44.2236 -21.2656)" fill="none" stroke="#a97c50" stroke-miterlimit="10" stroke-width="2"/>
    <path d="M534,559.3333s-26.6667-28-46.6667-26.6667-28-24-28-24-6.6667-18.6667-22.6667-24-20-3.3333-20-15.3333-5.3333-22-8.6667-22-10,.6667-8-10.6667-8-23.3333-12.6667-25.3333S368,402,368.6667,390s4.6227-9.3333-.022-24-21.3113-21.3333-31.3113-26.6667S316,320.6667,322,315.3333s5.3333-16.6667,7.3333-20,17.3333-11.3333,24-12S390.6667,278,392,266.6667s8.6667-20,13.3333-17.3333,9.3333,5.6952,18.6667-.4857S433.3333,226,444.6667,230s0,13.3333,22.6667,8S496,226,496,226s-.6667-16.6667,14.6667-9.3333,16,7.3333,31.3333,4.6667,27.3333-10.3954,30.6667-6.531,32,13.8644,39.3333,10.531,21.3333-14,34.6667,3.3333S678.6667,247.3333,692,246s20,26,36.6667,30.6667,43.3333,2,42,12.6667S790,314,797.3333,316,818,335.3333,812,336.6667s6.6667,23.3333,6.6667,26-26.6667-6.6667-32,4-6,29.3333-14,35.3333-24,16-23.3333,29.3333-12,9.3333-28,20.6667A68.1876,68.1876,0,0,0,696,486c-2.6667,8-21.3333,22.6667-32.6667,24.6667s-30,26-33.3333,31.3333-35.3333,4-42,17.3333" transform="translate(-44.2236 -21.2656)" fill="none" stroke="#a97c50" stroke-miterlimit="10" stroke-width="2"/>
    <path d="M902,283.3333l-59.1779,40.6613S839.3333,336.6667,849,336s56.3333-32.6667,58.3333-35.3333" transform="translate(-44.2236 -21.2656)" fill="#f1f2f2" stroke="#bcbec0" stroke-miterlimit="10"/>
    <path d="M246,251.3333,302,288.5s-15.8909,6.7825-18.9462,12.8543S240.6667,272.6667,236,268" transform="translate(-44.2236 -21.2656)" fill="#f1f2f2" stroke="#bcbec0" stroke-miterlimit="10"/>
  </g>
  <g id="Layer_3" data-name="Layer 3">
    <path d="M428.8035,405.4516a7.3616,7.3616,0,0,0,1.8294-5.03,5.4752,5.4752,0,0,1,.1673-2.4583c1.1068-2.4038,5.3246-.75,7.1157-2.6981" transform="translate(-44.2236 -21.2656)" fill="none" stroke="#bcbec0" stroke-miterlimit="10"/>
    <path d="M423.72,401.8885c-1.5179-2.0813.3256-5.0683,2.5859-6.304s4.9918-1.6544,6.9144-3.369" transform="translate(-44.2236 -21.2656)" fill="none" stroke="#bcbec0" stroke-miterlimit="10"/>
    <path d="M411.453,396.0138a11.2419,11.2419,0,0,1,15.723-8.992" transform="translate(-44.2236 -21.2656)" fill="none" stroke="#bcbec0" stroke-miterlimit="10"/>
    <path d="M416.3823,397.1772l3.923-3.3179c1.8341-1.5512,3.9437-3.1963,6.3376-2.998" transform="translate(-44.2236 -21.2656)" fill="none" stroke="#bcbec0" stroke-miterlimit="10"/>
    <path d="M405.8588,393.3078a18.6507,18.6507,0,0,1,10.7629-10.8553,2.9006,2.9006,0,0,1,2.1944-.1709" transform="translate(-44.2236 -21.2656)" fill="none" stroke="#bcbec0" stroke-miterlimit="10"/>
    <path d="M398.23,389.2672a57.6355,57.6355,0,0,1,8.8176-8.8854,13.9089,13.9089,0,0,1,3.2968-2.3489" transform="translate(-44.2236 -21.2656)" fill="none" stroke="#bcbec0" stroke-miterlimit="10"/>
    <path d="M394.83,383.311a10.4373,10.4373,0,0,1,12.7919-8.791" transform="translate(-44.2236 -21.2656)" fill="none" stroke="#bcbec0" stroke-miterlimit="10"/>
    <path d="M697,392.6717a21.0773,21.0773,0,0,1,9.4155,5.89,2.5677,2.5677,0,0,1,.9192,2.26c-.3882,1.3737-2.5127,1.3439-3.3133,2.5258" transform="translate(-44.2236 -21.2656)" fill="none" stroke="#bcbec0" stroke-miterlimit="10"/>
    <path d="M700.3919,386.8829l6.41,3.2686a7.3767,7.3767,0,0,1,2.1678,1.4529c1.4975,1.6329,1.2339,4.1617.8761,6.3483" transform="translate(-44.2236 -21.2656)" fill="none" stroke="#bcbec0" stroke-miterlimit="10"/>
    <path d="M705.6715,384.9351c3.1834-.0422,6.0271,1.919,8.4247,4.0135a8.2252,8.2252,0,0,1,2.2808,2.734,3.125,3.125,0,0,1-.3786,3.3638" transform="translate(-44.2236 -21.2656)" fill="none" stroke="#bcbec0" stroke-miterlimit="10"/>
    <path d="M712.9879,382.5918a3.848,3.848,0,0,1,2,.8717c3.6927,2.5741,7.4682,6.0318,7.6373,10.53" transform="translate(-44.2236 -21.2656)" fill="none" stroke="#bcbec0" stroke-miterlimit="10"/>
    <path d="M716.027,379.1351a15.6264,15.6264,0,0,1,11.91,8.8931" transform="translate(-44.2236 -21.2656)" fill="none" stroke="#bcbec0" stroke-miterlimit="10"/>
    <path d="M722.5466,375.3756a7.9544,7.9544,0,0,1,5.4811,2.4937,23.6135,23.6135,0,0,1,3.5788,5.0165" transform="translate(-44.2236 -21.2656)" fill="none" stroke="#bcbec0" stroke-miterlimit="10"/>
    <path d="M726.0654,370.8377q3.742,1.8485,7.4,3.86c1.9848,1.0914,4.2237,2.6929,4.0811,4.9535" transform="translate(-44.2236 -21.2656)" fill="none" stroke="#bcbec0" stroke-miterlimit="10"/>
    <path d="M735.0021,366.33a1.2778,1.2778,0,0,0-1.3309-.2941c1.0715,3.05,5.5192,3.6252,6.9286,6.5346a8.1419,8.1419,0,0,1,.35,4.4241" transform="translate(-44.2236 -21.2656)" fill="none" stroke="#bcbec0" stroke-miterlimit="10"/>
    <path d="M567.6365,430.6667s43.03-7.3333,77.03-20S716,390,697,410.6667s-69.6666,68-77.6666,84.6667-40.6667,60-38.6667,84.6667,8.6667,78.6667,4.6667,88.6667S568,748,572.6667,770,546,782.8735,546,782.8735s5.3333-47.54-4-68.8735-18-67.3333-9.3333-102.6667S538,538,516,510s-54-76-66-82.6667-30-33.3058,0-31.32S509.273,434,567.6365,430.6667Z" transform="translate(-44.2236 -21.2656)" stroke="#bcbec0" stroke-miterlimit="10" fill="url(#linear-gradient)"/>
    <path d="M550.5121,579.3175a40.5331,40.5331,0,0,1-2.2868-28.1092c.9125-3.1983,2.299-6.389,4.7778-8.6065,4.57-4.0884,12.033-3.7148,17.03-.1609s7.7437,9.6119,8.6222,15.68.1091,12.2409-.6606,18.3243a4.0178,4.0178,0,0,1-.6981,2.1345,1.387,1.387,0,0,1-1.9942.2295" transform="translate(-44.2236 -21.2656)" fill="none" stroke="#bcbec0" stroke-miterlimit="10"/>
    <path d="M559.3333,590.3292s-.2434,17.0041,3.545,28.3375,4.8783,37.3333,0,63.3333S560,715.3333,558,708s-3.3333-28-6-46.6667-2.3-22.1629,2.6667-42S554.6667,591.3251,559.3333,590.3292Z" transform="translate(-44.2236 -21.2656)" fill="none" stroke="#bcbec0" stroke-miterlimit="10"/>
    <path d="M390.4607,319.9436a43.0425,43.0425,0,0,1,10.695-12.6325,15.1309,15.1309,0,0,1,5.9622-3.2289c8.3739-1.8714,16.0553,8.1269,24.4075,6.1608,3.08-.7251,5.5355-2.9779,7.84-5.1471l7.8493-7.39" transform="translate(-44.2236 -21.2656)" fill="none" stroke="#bcbec0" stroke-miterlimit="10"/>
    <path d="M435.8228,325.6255c4.8624-3.6737,9.7882-7.3845,15.3984-9.7646s12.0664-3.329,17.8193-1.3185c2.1883.7647,4.5185,1.9535,6.6982,1.1646a8.0407,8.0407,0,0,0,2.9786-2.3467l12.4342-13.5093" transform="translate(-44.2236 -21.2656)" fill="none" stroke="#bcbec0" stroke-miterlimit="10"/>
    <path d="M492.0286,330.0143a30.8363,30.8363,0,0,1,21.715,3.0577c4.3154,2.4,7.9789,5.8038,12.0743,8.5622s8.9345,4.92,13.8353,4.3166c3.61-.4443,6.8572-2.3336,9.9892-4.1825l7.625-4.5011" transform="translate(-44.2236 -21.2656)" fill="none" stroke="#bcbec0" stroke-miterlimit="10"/>
    <path d="M525.5437,293.5269q13.5474-4.1074,27.1818-7.92c5.7032-1.5947,11.5411-3.1646,17.4532-2.824a27.6375,27.6375,0,0,1,14.1783,4.9244c3.8151,2.6722,6.9084,6.2831,10.7764,8.8783s9.0464,4.0606,13.1633,1.8818" transform="translate(-44.2236 -21.2656)" fill="none" stroke="#bcbec0" stroke-miterlimit="10"/>
    <path d="M594.1223,343.6376a216.9808,216.9808,0,0,1,50.1683-14.2092c7.606-1.1917,16.0368-1.8009,22.37,2.5767" transform="translate(-44.2236 -21.2656)" fill="none" stroke="#bcbec0" stroke-miterlimit="10"/>
    <path d="M591.3407,365.9986c11.6193-4.6814,23.563-9.4317,36.0877-9.6633,4.2145-.0779,8.62.425,12.155,2.7214,3.8066,2.4731,6.5677,6.9576,11.0557,7.6391" transform="translate(-44.2236 -21.2656)" fill="none" stroke="#bcbec0" stroke-miterlimit="10"/>
    <path d="M556.9738,397.5409a458.8942,458.8942,0,0,0,56.2009-20.5132,22.6817,22.6817,0,0,1,7.1559-2.2674c4.8543-.3966,9.334,2.3861,13.4061,5.0581" transform="translate(-44.2236 -21.2656)" fill="none" stroke="#bcbec0" stroke-miterlimit="10"/>
    <path d="M600.7486,410.7817l32.6352-22.3562c2.7015-1.8506,5.4828-3.7375,8.6679-4.4976,2.7805-.6636,5.7-.4245,8.52-.8905,6.4235-1.0613,11.6414-5.5955,16.4865-9.9444" transform="translate(-44.2236 -21.2656)" fill="none" stroke="#bcbec0" stroke-miterlimit="10"/>
    <path d="M662.288,396.2174c3.418-5.6126,9.07-9.4049,14.29-13.3958a142.5486,142.5486,0,0,0,23.6723-22.8873c2.11-2.5751,4.19-5.3547,4.8246-8.6226" transform="translate(-44.2236 -21.2656)" fill="none" stroke="#bcbec0" stroke-miterlimit="10"/>
    <path d="M679.97,444.7963c-1.1972-.6691-.5347-2.4973.2725-3.6061,3.5844-4.9233,7.7433-9.8135,13.4239-12.0084s13.2067-.7069,15.994,4.7077l9.5986-7.3206" transform="translate(-44.2236 -21.2656)" fill="none" stroke="#bcbec0" stroke-miterlimit="10"/>
    <path d="M669.0782,463.1773a25.7756,25.7756,0,0,1,9.9286-9.2887c3.47-1.8227,7.7335-2.8067,11.2839-1.1449,1.8368.86,3.3,2.34,4.983,3.4713,6.3713,4.2818,16.0216,2.52,20.4692-3.7366" transform="translate(-44.2236 -21.2656)" fill="none" stroke="#bcbec0" stroke-miterlimit="10"/>
    <path d="M630.0327,491.16a24.0633,24.0633,0,0,0,14.9582-2.0787c3.9609-1.9625,7.64-5.1011,12.0606-5.1474,3.4949-.0366,6.93,1.9234,10.3467,1.1878,3.7235-.8016,6.0155-4.448,7.8826-7.7678" transform="translate(-44.2236 -21.2656)" fill="none" stroke="#bcbec0" stroke-miterlimit="10"/>
    <path d="M613.1845,516.0718c1.2564,2.1916,4.1235,2.8422,6.6493,2.7994a20.6172,20.6172,0,0,0,14.0214-5.9212c1.4114-1.4024,2.6115-3.0053,4.021-4.41a20.6866,20.6866,0,0,1,9.4-5.3507" transform="translate(-44.2236 -21.2656)" fill="none" stroke="#bcbec0" stroke-miterlimit="10"/>
    <path d="M512.4311,525.297c-2.04-6.55-8.086-11.2509-14.6136-13.3619s-13.5435-2.0145-20.3952-1.6679c-2.8889.1462-5.8494.3249-8.6148-.5235s-5.3405-2.9717-5.8355-5.8217" transform="translate(-44.2236 -21.2656)" fill="none" stroke="#bcbec0" stroke-miterlimit="10"/>
    <path d="M484.8108,489.9129a67.97,67.97,0,0,0-25.7958-18.0941c-3.1055-1.2285-6.2968-2.2252-9.4846-3.2206L437.9124,464.97" transform="translate(-44.2236 -21.2656)" fill="none" stroke="#bcbec0" stroke-miterlimit="10"/>
    <path d="M456.5914,449.3019l-10.3993-7.4112a44.1877,44.1877,0,0,0-18.6249-8.6821c-4.2174-1.1546-8.553-2.32-12.9029-1.8752" transform="translate(-44.2236 -21.2656)" fill="none" stroke="#bcbec0" stroke-miterlimit="10"/>
    <path d="M427.525,453.65a17.0613,17.0613,0,0,1,15.0992.0343c1.9911,1.0085,3.9789,2.4617,6.1987,2.23a22.9833,22.9833,0,0,0,3.5745-1.1189,7.16,7.16,0,0,1,7.4924,2.6233" transform="translate(-44.2236 -21.2656)" fill="none" stroke="#bcbec0" stroke-miterlimit="10"/>
    <path d="M474.7458,472.0688c-.7935,2.9281,1.6342,5.6576,3.854,7.7252l9.3752,8.7324c2.3675,2.2052,4.9218,4.8358,4.8105,8.0693-.091,2.643-2.052,4.9322-4.3882,6.1716a22.7764,22.7764,0,0,1-7.6363,1.9873" transform="translate(-44.2236 -21.2656)" fill="none" stroke="#bcbec0" stroke-miterlimit="10"/>
    <path d="M460.7238,485.2669a18.99,18.99,0,0,0-17.94-3.5747" transform="translate(-44.2236 -21.2656)" fill="none" stroke="#bcbec0" stroke-miterlimit="10"/>
    <path d="M414.0193,444.7142a19.5994,19.5994,0,0,1,15.9711.6382" transform="translate(-44.2236 -21.2656)" fill="none" stroke="#bcbec0" stroke-miterlimit="10"/>
    <path d="M440.378,430.821a45.5086,45.5086,0,0,0-23.9769-11.2946c-4.6845-.6725-9.8366-.7505-13.4635-3.7908" transform="translate(-44.2236 -21.2656)" fill="none" stroke="#bcbec0" stroke-miterlimit="10"/>
    <path d="M404.28,402.1032a46.4217,46.4217,0,0,1,16.1949,13.3763" transform="translate(-44.2236 -21.2656)" fill="none" stroke="#bcbec0" stroke-miterlimit="10"/>
    <path d="M390.4769,398.1791c-3.707-3.7038-8.1955-6.5323-12.0585-10.0731s-7.2079-8.1232-7.5323-13.3534c-.1539-2.4815.6078-5.2938,2.79-6.4851,1.5584-.8507,3.452-.6776,5.2166-.4811l8.4178.9375c1.5171.169,3.1665.31,4.4609-.4989s1.7718-2.9822.4905-3.812" transform="translate(-44.2236 -21.2656)" fill="none" stroke="#bcbec0" stroke-miterlimit="10"/>
    <path d="M400.7178,367.4522l25.811-11.1059" transform="translate(-44.2236 -21.2656)" fill="none" stroke="#bcbec0" stroke-miterlimit="10"/>
    <path d="M438.6378,374.5413a32.1528,32.1528,0,0,0,22.9487-21.1271" transform="translate(-44.2236 -21.2656)" fill="none" stroke="#bcbec0" stroke-miterlimit="10"/>
    <path d="M456.6129,383.8359c4.0123-1.7474,8.7562.05,12.1595,2.801s5.9966,6.3931,9.371,9.18a2.0422,2.0422,0,0,0,1.1691.5826,2.07,2.07,0,0,0,1.3882-.7441,31.662,31.662,0,0,0,6.1573-8.2127" transform="translate(-44.2236 -21.2656)" fill="none" stroke="#bcbec0" stroke-miterlimit="10"/>
    <path d="M505.8918,407.2075a29.5914,29.5914,0,0,1,18.4968-14.2361c4.133-1.033,8.693-1.2491,12.0638-3.8542,4.5577-3.5225,5.2647-10.0106,5.6015-15.761" transform="translate(-44.2236 -21.2656)" fill="none" stroke="#bcbec0" stroke-miterlimit="10"/>
    <path d="M532.7213,407.3688l1.563-3.0664A25.5725,25.5725,0,0,1,550,399.9846" transform="translate(-44.2236 -21.2656)" fill="none" stroke="#bcbec0" stroke-miterlimit="10"/>
    <path d="M553.2725,423.3579c-.4894-3.5887,1.9734-6.88,4.5533-9.4225,4.2542-4.192,10.0064-7.82,15.8612-6.64,4.22.8506,7.5359,4.0109,10.601,7.0331" transform="translate(-44.2236 -21.2656)" fill="none" stroke="#bcbec0" stroke-miterlimit="10"/>
    <path d="M593.56,398.1322a24.7675,24.7675,0,0,1,15.76-11.5279" transform="translate(-44.2236 -21.2656)" fill="none" stroke="#bcbec0" stroke-miterlimit="10"/>
    <path d="M558.8186,363.1545a27.6124,27.6124,0,0,0,22.4884,6.0341" transform="translate(-44.2236 -21.2656)" fill="none" stroke="#bcbec0" stroke-miterlimit="10"/>
    <path d="M486.6561,366.2059c7.39-.3953,14.4471-3.0144,21.5943-4.9333s14.8535-3.128,21.8567-.7365" transform="translate(-44.2236 -21.2656)" fill="none" stroke="#bcbec0" stroke-miterlimit="10"/>
    <path d="M510.2544,378.4975a22.0412,22.0412,0,0,1,22.4074-13.1242" transform="translate(-44.2236 -21.2656)" fill="none" stroke="#bcbec0" stroke-miterlimit="10"/>
    <path d="M490.0106,351.9357a25.1612,25.1612,0,0,0-6.6325-4.1809c-2.6965-1.1582-5.6037-1.8478-8.1434-3.3184s-4.7519-4.01-4.7144-6.9447c.05-3.8853,3.7729-6.5691,7.1087-8.5618" transform="translate(-44.2236 -21.2656)" fill="none" stroke="#bcbec0" stroke-miterlimit="10"/>
    <path d="M425.3446,338.3789c3.8863-1.1905,8.0688.0406,12.13-.1341s8.7691-2.9626,8.2652-6.9958" transform="translate(-44.2236 -21.2656)" fill="none" stroke="#bcbec0" stroke-miterlimit="10"/>
    <path d="M435.3242,347.3688c-4.1664-.94-8.3686,1.8809-12.6213,1.4853-3.1571-.2937-5.8569-2.3027-8.3484-4.2636s-5.1267-4.024-8.2672-4.4606-6.8458,1.4981-7.0916,4.6592" transform="translate(-44.2236 -21.2656)" fill="none" stroke="#bcbec0" stroke-miterlimit="10"/>
    <path d="M377.5591,344.493a22.731,22.731,0,0,1-2.3139-5.8562c-3.8262-11.7664-13.9721-21.2545-15.299-33.556-.4207-3.9.1852-8.0869,2.6-11.1782" transform="translate(-44.2236 -21.2656)" fill="none" stroke="#bcbec0" stroke-miterlimit="10"/>
    <path d="M385.5574,316.6816c-1.2358-4.9311,1.1371-10.2044,4.7624-13.7682s8.346-5.7528,12.9661-7.8736" transform="translate(-44.2236 -21.2656)" fill="none" stroke="#bcbec0" stroke-miterlimit="10"/>
    <path d="M337.0037,303.37c1.1242,10.0325,10.2569,18.5464,20.3434,18.9652" transform="translate(-44.2236 -21.2656)" fill="none" stroke="#bcbec0" stroke-miterlimit="10"/>
    <path d="M396.0132,287.34c2.2157-4.8324,6.5606-8.4316,11.3342-10.7714s10.0052-3.5563,15.1846-4.7545l.1921-6.4824" transform="translate(-44.2236 -21.2656)" fill="none" stroke="#bcbec0" stroke-miterlimit="10"/>
    <path d="M434.5172,273.2425c4.1189-2.7842,9.0586-4.0247,13.8853-5.2161l20.1778-4.9807a7.8389,7.8389,0,0,0,3.8651-1.7542c1.0038-1.0245,1.27-2.9111.159-3.8188" transform="translate(-44.2236 -21.2656)" fill="none" stroke="#bcbec0" stroke-miterlimit="10"/>
    <path d="M440.4632,249.5754c7.9408,6.6737,20.8372,6.4069,28.4952-.5895" transform="translate(-44.2236 -21.2656)" fill="none" stroke="#bcbec0" stroke-miterlimit="10"/>
    <path d="M446.9171,290.4427c-1.3813-2.0806.8466-4.6315,2.85-6.1229l8.2142-6.1157c3.5632-2.6529,8.0136-5.4444,12.1409-3.8015,3.9207,1.5607,6.2212,6.7735,10.44,6.661" transform="translate(-44.2236 -21.2656)" fill="none" stroke="#bcbec0" stroke-miterlimit="10"/>
    <path d="M483.918,268.9316c6.17-.1751,11.956-3.608,15.9076-8.3494s6.2316-10.6812,7.5578-16.7092" transform="translate(-44.2236 -21.2656)" fill="none" stroke="#bcbec0" stroke-miterlimit="10"/>
    <path d="M494.85,287.6925a81.9268,81.9268,0,0,0,25.6216-20.5208" transform="translate(-44.2236 -21.2656)" fill="none" stroke="#bcbec0" stroke-miterlimit="10"/>
    <path d="M535.6547,280.2677A81.5972,81.5972,0,0,1,567.31,262.351c7.6808-2.2863,15.8579-3.5024,22.6723-7.72" transform="translate(-44.2236 -21.2656)" fill="none" stroke="#bcbec0" stroke-miterlimit="10"/>
    <path d="M541.6394,247.6912c4.0335-3.6974,9.4353-5.4655,14.7138-6.9065a194.2638,194.2638,0,0,1,70.934-5.8122" transform="translate(-44.2236 -21.2656)" fill="none" stroke="#bcbec0" stroke-miterlimit="10"/>
    <path d="M601.9433,270.6378c.0252-1.911,2.1583-2.9818,3.96-3.6184,6.83-2.4127,13.77-4.8486,21.0006-5.2849s14.9187,1.3853,20.08,6.4675c1.3306,1.31,2.934,2.9607,4.7257,2.4341a4.6941,4.6941,0,0,0,2.2385-1.9818l5.8829-8.103" transform="translate(-44.2236 -21.2656)" fill="none" stroke="#bcbec0" stroke-miterlimit="10"/>
    <path d="M630.7065,286.8783a180.6727,180.6727,0,0,1,22.1813-2.9091c4.2027-.2881,8.5053-.4186,12.5437.78s7.8256,3.9451,9.2745,7.9007" transform="translate(-44.2236 -21.2656)" fill="none" stroke="#bcbec0" stroke-miterlimit="10"/>
    <path d="M680.1406,277.7183l24.6543,14.2976c2.4085,1.3967,5.026,2.8421,7.7967,2.5687s5.411-3.1614,4.329-5.7268" transform="translate(-44.2236 -21.2656)" fill="none" stroke="#bcbec0" stroke-miterlimit="10"/>
    <path d="M671.2367,306.1626a63.32,63.32,0,0,0,24.1185,8.3362" transform="translate(-44.2236 -21.2656)" fill="none" stroke="#bcbec0" stroke-miterlimit="10"/>
    <path d="M635.0612,299.2363c5.7415,3.031,10.869,7.1035,16.4938,10.3459s12.0391,5.6838,18.4918,4.9666" transform="translate(-44.2236 -21.2656)" fill="none" stroke="#bcbec0" stroke-miterlimit="10"/>
    <path d="M696.0016,327.3l13.011.0974a7.87,7.87,0,0,0,3.1525-.4077,9.54,9.54,0,0,0,2.9128-2.4528,22.6092,22.6092,0,0,1,9.1486-5.7775" transform="translate(-44.2236 -21.2656)" fill="none" stroke="#bcbec0" stroke-miterlimit="10"/>
    <path d="M713.8056,304.3808l15.1969,7.7891c6.5413,3.3527,13.8305,6.8034,20.9571,5.0032" transform="translate(-44.2236 -21.2656)" fill="none" stroke="#bcbec0" stroke-miterlimit="10"/>
    <path d="M707.3832,333.2158a91.0374,91.0374,0,0,1,31.3283,22.0763" transform="translate(-44.2236 -21.2656)" fill="none" stroke="#bcbec0" stroke-miterlimit="10"/>
    <path d="M675.2839,344.9789a100.9577,100.9577,0,0,0,24.04.9019" transform="translate(-44.2236 -21.2656)" fill="none" stroke="#bcbec0" stroke-miterlimit="10"/>
    <path d="M731.52,333.216c3.66,5.1007,10.0123,7.371,15.9676,9.3577,3.0508,1.0178,6.6312,1.9737,9.2883.1619" transform="translate(-44.2236 -21.2656)" fill="none" stroke="#bcbec0" stroke-miterlimit="10"/>
    <path d="M756.6608,309.3466c2.933-.7289,5.8808.9359,8.4024,2.6018a163.3436,163.3436,0,0,1,22.11,17.53" transform="translate(-44.2236 -21.2656)" fill="none" stroke="#bcbec0" stroke-miterlimit="10"/>
    <path d="M765.9,334.7634a71.2264,71.2264,0,0,0,27.3231,17.5483" transform="translate(-44.2236 -21.2656)" fill="none" stroke="#bcbec0" stroke-miterlimit="10"/>
    <path d="M759.8905,370.7034c-.3383-2.9858,1.9258-5.5792,4.1039-7.6493a119.3568,119.3568,0,0,1,15.0319-12.1291" transform="translate(-44.2236 -21.2656)" fill="none" stroke="#bcbec0" stroke-miterlimit="10"/>
    <path d="M744.8377,394.7888a21.3289,21.3289,0,0,1,13.8642-8.5657" transform="translate(-44.2236 -21.2656)" fill="none" stroke="#bcbec0" stroke-miterlimit="10"/>
    <path d="M746.2467,377.2469a28.2483,28.2483,0,0,1,7.2346-13.7717" transform="translate(-44.2236 -21.2656)" fill="none" stroke="#bcbec0" stroke-miterlimit="10"/>
    <path d="M734.6134,422.8132a2.1721,2.1721,0,0,0,1.2192,1.8,193.6374,193.6374,0,0,1,22.1216-23.33" transform="translate(-44.2236 -21.2656)" fill="none" stroke="#bcbec0" stroke-miterlimit="10"/>
    <path d="M723.6046,409.9141a26.7531,26.7531,0,0,1,8.9314-14.7375" transform="translate(-44.2236 -21.2656)" fill="none" stroke="#bcbec0" stroke-miterlimit="10"/>
    <path d="M523.6542,311.76a56.87,56.87,0,0,0,45.2171,6.44c1.1087-.3161,2.4395-.9795,2.37-2.13" transform="translate(-44.2236 -21.2656)" fill="none" stroke="#bcbec0" stroke-miterlimit="10"/>
    <path d="M573.4173,308.43c6.6578,2.1542,12.41,6.3729,18.4509,9.9045s12.87,6.4869,19.8221,5.6887a4.67,4.67,0,0,0,3.11-1.2867" transform="translate(-44.2236 -21.2656)" fill="none" stroke="#bcbec0" stroke-miterlimit="10"/>
    <path d="M449.9722,420.1313a9.7594,9.7594,0,0,1-6.1518-5.2759,20.5807,20.5807,0,0,1-1.8386-8.1018c-.0717-1.2415.1241-2.8157,1.3086-3.1943a2.939,2.939,0,0,1,1.546.0767l8.3218,1.9347a7.7962,7.7962,0,0,1,3.0387,1.1763,2.6612,2.6612,0,0,1,1.07,2.874" transform="translate(-44.2236 -21.2656)" fill="none" stroke="#231f20" stroke-miterlimit="10"/>
    <path d="M672.16,408.5478c5.5289-4.258,13.1308-6.4913,19.6229-3.9316a3.86,3.86,0,0,1,2.5159,2.1883,3.1415,3.1415,0,0,1-.3292,2.2413c-1.2193,2.4333-3.97,3.5909-6.3829,4.85a35.3253,35.3253,0,0,0-8.5055,6.2107" transform="translate(-44.2236 -21.2656)" fill="none" stroke="#231f20" stroke-miterlimit="10"/>
  </g>
  <g id="Layer_4" data-name="Layer 4">
    <path d="M622.4545,569.4334S664,558,669.3333,585.3333,674,715.3333,574,736" transform="translate(-44.2236 -21.2656)" fill="none" stroke="#bcbec0" stroke-miterlimit="10"/>
    <path d="M516.6667,573.4787s-62-4.8121-72.6667,11.1879-12.6667,92,26.6667,112S526,739.3333,548,736" transform="translate(-44.2236 -21.2656)" fill="none" stroke="#bcbec0" stroke-miterlimit="10"/>
  </g>
  <g id="Layer_5" data-name="Layer 5">
    <text transform="translate(132.9746 212.6863)" font-size="30.4046" fill="#231f20" font-family="CenturyGothic, Century Gothic">Ureter</text>
    <text transform="translate(881.4372 272.9193)" font-size="30.4046" fill="#231f20" font-family="CenturyGothic, Century Gothic">Ureter</text>
    <text transform="translate(712.4371 192.4749)" font-size="30.4046" fill="#231f20" font-family="CenturyGothic, Century Gothic">Interureteric ridge</text>
    <text transform="translate(110 538.7266)" font-size="30.4046" fill="#231f20" font-family="CenturyGothic, Century Gothic">Uvula vesicae</text>
    <text transform="translate(0 485.7266)" font-size="30.4046" fill="#231f20" font-family="CenturyGothic, Century Gothic">Trigone of bladder</text>
    <text transform="translate(45.2236 402.0126)" font-size="30.4046" fill="#231f20" font-family="CenturyGothic, Century Gothic">Detrussor<tspan x="0" y="36.4854">muscle</tspan></text>
    <text transform="translate(132.9746 598.3721)" font-size="30.4046" fill="#231f20" font-family="CenturyGothic, Century Gothic">Prostate gland</text>
    <text transform="translate(774.9114 649.5267)" font-size="30.4046" fill="#231f20" font-family="CenturyGothic, Century Gothic">Urethral crest</text>
    <text transform="translate(736.3828 754.9375)" font-size="30.4046" fill="#231f20" font-family="CenturyGothic, Century Gothic">Urethra</text>
    <text transform="translate(852.0898 511.1025)" font-size="30.4046" fill="#231f20" font-family="CenturyGothic, Century Gothic">Uretero-urethral<tspan x="0" y="36.4854">ridge</tspan></text>
    <text transform="translate(905.2083 339.5485)" font-size="30.4046" fill="#231f20" font-family="CenturyGothic, Century Gothic">Ureteric fold</text>
    <text transform="translate(912.0527 394.8682)" font-size="30.4046" fill="#231f20" font-family="CenturyGothic, Century Gothic">Ureteric <tspan x="0" y="36.4854">Orifice</tspan></text>
    <line x1="512.7502" y1="534.1957" x2="328.9449" y2="534.1957" fill="none" stroke="#939598" stroke-miterlimit="10" stroke-width="1.2669"/>
    <line x1="508.9863" y1="477.7344" x2="293.1133" y2="477.7344" fill="none" stroke="#939598" stroke-miterlimit="10" stroke-width="1.2669"/>
    <line x1="314.9863" y1="398.8406" x2="199.7764" y2="398.8406" fill="none" stroke="#939598" stroke-miterlimit="10" stroke-width="1.2669"/>
    <line x1="419.2838" y1="591.4788" x2="359.276" y2="591.4788" fill="none" stroke="#939598" stroke-miterlimit="10" stroke-width="1.2669"/>
    <line x1="534.8227" y1="403.3472" x2="763.0547" y2="206.3345" fill="none" stroke="#939598" stroke-miterlimit="10" stroke-width="1.2669"/>
    <line x1="683.8041" y1="356.6037" x2="900.7199" y2="327.6238" fill="none" stroke="#939598" stroke-miterlimit="10" stroke-width="1.2669"/>
    <line x1="647.5594" y1="383.3506" x2="901.5645" y2="383.0174" fill="none" stroke="#939598" stroke-miterlimit="10" stroke-width="1.2669"/>
    <line x1="575.1097" y1="474.0677" x2="844.1336" y2="500.4129" fill="none" stroke="#939598" stroke-miterlimit="10" stroke-width="1.2669"/>
    <line x1="514.025" y1="638.9226" x2="763.0547" y2="638.9226" fill="none" stroke="#939598" stroke-miterlimit="10" stroke-width="1.2669"/>
    <line x1="512.7502" y1="743.6495" x2="720.8262" y2="743.6495" fill="none" stroke="#939598" stroke-miterlimit="10" stroke-width="1.2669"/>
  </g>
  <g id="Layer_6" data-name="Layer 6">
    <text transform="translate(182.5949 51.5393)" font-size="60" fill="#39b54a" font-family="CenturyGothic, Century Gothic">Interior of urinary bladder</text>
  </g>
</svg>
