<?xml version="1.0" encoding="utf-8"?>
<!-- Generator: Adobe Illustrator 19.2.1, SVG Export Plug-In . SVG Version: 6.00 Build 0)  -->
<svg version="1.1" id="Layer_1" xmlns="http://www.w3.org/2000/svg" xmlns:xlink="http://www.w3.org/1999/xlink" x="0px" y="0px"
	 viewBox="0 0 639.2 501" enable-background="new 0 0 639.2 501" xml:space="preserve">
<linearGradient id="SVGID_1_" gradientUnits="userSpaceOnUse" x1="241.3948" y1="193.5132" x2="361.1882" y2="193.5132">
	<stop  offset="0" style="stop-color:#603913"/>
	<stop  offset="1.804195e-002" style="stop-color:#604118"/>
	<stop  offset="8.670506e-002" style="stop-color:#595D28"/>
	<stop  offset="0.1552" style="stop-color:#467536"/>
	<stop  offset="0.2224" style="stop-color:#1C8740"/>
	<stop  offset="0.2879" style="stop-color:#009447"/>
	<stop  offset="0.351" style="stop-color:#009B4C"/>
	<stop  offset="0.4089" style="stop-color:#009E4D"/>
	<stop  offset="0.6019" style="stop-color:#00A24F"/>
	<stop  offset="1" style="stop-color:#00A651"/>
</linearGradient>
<path fill="none" stroke="url(#SVGID_1_)" stroke-width="2" stroke-miterlimit="10" d="M242.7,21.9c0,0-4.7,284,24.7,314.7
	c29.3,30.7,70,38,80.7,15.3c10.7-22.7,14.7-47.3,10.7-56c-4-8.7-11.3-12-11.3,0.7c0,12.7-4,49.3-19.3,51.3s-30.7,2-49.3-24
	c-18.4-25.7-15.3-68.7-16-76.7c-0.7-8-2.7-72.7,0.7-94.7c3.3-22,2-130.7,2-130.7H242.7z"/>
<path fill="none" stroke="#C49A6C" stroke-miterlimit="10" d="M275.3,116.6c0,0-4,121.3,0,132c4,10.7,16,26.7,15.3-18
	C290,185.9,300,73.9,288,77.9S275.5,111.3,275.3,116.6z"/>
<path fill="none" stroke="#C49A6C" stroke-miterlimit="10" d="M304,133.2c0,2,0,48,0,76.7s4.7,54.7,12,46s6.7-76.7,6.7-79.3
	c0-2.7,3.3-72.7-9.3-64S304,133.2,304,133.2z"/>
<path fill="none" stroke="#000000" stroke-width="2" stroke-miterlimit="10" d="M311.4,279.1c-6.2-0.3-13.7,1.5-19.1,4.7
	c-0.8,0.4-1.4,1.1-2,1.7c-3.3,3.5-7.2,7.2-7.1,12.1c0.1,5.4,2.8,10.3,5.4,14.9c4.7,8.4,10.2,17.4,19.3,20.5c6.1,2.1,13,1.1,18.6-2
	c5.6-3.1,9.9-8.3,12.7-14c3.4-6.9,2.5-12.2,0.7-19.3c-1.8-7-7.6-13.5-14.4-16.2C321.1,279.8,316.2,279.3,311.4,279.1z"/>
<path fill="none" stroke="#00A651" stroke-width="2" stroke-miterlimit="10" d="M342.8,114.8c0,0-5,98.1-3,113.1s9,62,9,62"/>
<g>
	<line fill="none" stroke="#000000" stroke-miterlimit="10" x1="255.3" y1="69.2" x2="179.3" y2="69.2"/>
	<line fill="none" stroke="#000000" stroke-miterlimit="10" x1="283.3" y1="135.9" x2="179.3" y2="135.9"/>
	<line fill="none" stroke="#000000" stroke-miterlimit="10" x1="312.5" y1="171.9" x2="400.7" y2="171.9"/>
	<line fill="none" stroke="#000000" stroke-miterlimit="10" x1="339.3" y1="202.4" x2="400.7" y2="202.4"/>
	<line fill="none" stroke="#000000" stroke-miterlimit="10" x1="278.8" y1="346.9" x2="230.6" y2="395.1"/>
	<line fill="none" stroke="#000000" stroke-miterlimit="10" x1="323.1" y1="311.2" x2="398.2" y2="386.4"/>
	<g>
		<path d="M409,161.8v-1.4h7.9v1.4h-3.2v13h-1.5v-13H409z"/>
		<path d="M418.2,164.1h1.4v1.6c0.4-0.6,0.9-1.1,1.3-1.4s0.9-0.5,1.4-0.5c0.4,0,0.8,0.1,1.2,0.4l-0.7,1.2c-0.3-0.1-0.5-0.2-0.7-0.2
			c-0.5,0-0.9,0.2-1.3,0.6s-0.7,1-1,1.7c-0.2,0.6-0.3,1.8-0.3,3.7v3.6h-1.4V164.1z"/>
		<path d="M435.3,164.1v10.6H434v-1.8c-0.6,0.7-1.2,1.2-1.9,1.6s-1.5,0.5-2.3,0.5c-1.5,0-2.8-0.5-3.9-1.6c-1.1-1.1-1.6-2.4-1.6-4
			c0-1.5,0.5-2.8,1.6-3.9c1.1-1.1,2.4-1.6,3.9-1.6c0.9,0,1.7,0.2,2.4,0.6c0.7,0.4,1.3,0.9,1.9,1.7v-2H435.3z M429.8,165.2
			c-0.8,0-1.5,0.2-2.1,0.6c-0.6,0.4-1.2,0.9-1.5,1.6s-0.6,1.4-0.6,2.1c0,0.7,0.2,1.5,0.6,2.1c0.4,0.7,0.9,1.2,1.5,1.6
			c0.6,0.4,1.3,0.6,2.1,0.6c0.7,0,1.5-0.2,2.1-0.6c0.7-0.4,1.2-0.9,1.5-1.5c0.4-0.6,0.5-1.4,0.5-2.2c0-1.2-0.4-2.3-1.2-3.1
			C432,165.6,431,165.2,429.8,165.2z"/>
		<path d="M438.4,164.1h1.4v1.9c0.5-0.7,1.2-1.3,1.8-1.6s1.4-0.5,2.2-0.5c0.8,0,1.5,0.2,2.1,0.6s1.1,0.9,1.4,1.6s0.4,1.7,0.4,3.2
			v5.5h-1.4v-5.1c0-1.2-0.1-2-0.2-2.5c-0.2-0.7-0.5-1.2-0.9-1.6s-1-0.5-1.8-0.5c-0.8,0-1.6,0.3-2.2,0.8s-1.1,1.2-1.3,2
			c-0.1,0.5-0.2,1.5-0.2,2.9v3.9h-1.4V164.1z"/>
		<path d="M455.9,165.3l-0.9,0.9c-0.7-0.7-1.4-1.1-2.1-1.1c-0.4,0-0.8,0.1-1.1,0.4s-0.5,0.6-0.5,1c0,0.3,0.1,0.7,0.4,1
			c0.3,0.3,0.8,0.7,1.6,1.1c1,0.5,1.7,1,2.1,1.5c0.4,0.5,0.5,1.1,0.5,1.7c0,0.9-0.3,1.6-0.9,2.2c-0.6,0.6-1.4,0.9-2.3,0.9
			c-0.6,0-1.2-0.1-1.8-0.4s-1-0.6-1.4-1.1l0.9-1c0.7,0.8,1.4,1.2,2.2,1.2c0.5,0,1-0.2,1.4-0.5c0.4-0.4,0.6-0.8,0.6-1.2
			c0-0.4-0.1-0.7-0.4-1c-0.3-0.3-0.8-0.7-1.7-1.1c-1-0.5-1.6-1-2-1.5s-0.5-1-0.5-1.7c0-0.8,0.3-1.5,0.8-2c0.6-0.5,1.2-0.8,2.1-0.8
			C453.9,163.8,454.9,164.3,455.9,165.3z"/>
		<path d="M457.3,164.1h1.5l3.6,7.7l3.5-7.7h1.5l-4.9,10.6h-0.3L457.3,164.1z"/>
		<path d="M478.4,171.2l1.2,0.6c-0.4,0.7-0.8,1.3-1.3,1.8s-1.1,0.8-1.7,1s-1.3,0.4-2.1,0.4c-1.7,0-3.1-0.6-4.1-1.7s-1.5-2.4-1.5-3.9
			c0-1.3,0.4-2.5,1.2-3.6c1-1.3,2.5-2,4.2-2c1.8,0,3.3,0.7,4.3,2.1c0.8,1,1.2,2.2,1.2,3.6h-9.6c0,1.2,0.4,2.2,1.2,3
			c0.8,0.8,1.7,1.2,2.8,1.2c0.5,0,1.1-0.1,1.6-0.3c0.5-0.2,0.9-0.4,1.3-0.7C477.6,172.4,478,171.9,478.4,171.2z M478.4,168.3
			c-0.2-0.7-0.4-1.3-0.8-1.7s-0.8-0.8-1.4-1.1c-0.6-0.3-1.2-0.4-1.8-0.4c-1,0-1.9,0.3-2.7,1c-0.5,0.5-1,1.2-1.2,2.2H478.4z"/>
		<path d="M481.9,164.1h1.4v1.6c0.4-0.6,0.9-1.1,1.3-1.4s0.9-0.5,1.4-0.5c0.4,0,0.8,0.1,1.2,0.4l-0.7,1.2c-0.3-0.1-0.5-0.2-0.7-0.2
			c-0.5,0-0.9,0.2-1.3,0.6s-0.7,1-1,1.7c-0.2,0.6-0.3,1.8-0.3,3.7v3.6h-1.4V164.1z"/>
		<path d="M493.8,165.3l-0.9,0.9c-0.7-0.7-1.4-1.1-2.1-1.1c-0.4,0-0.8,0.1-1.1,0.4s-0.5,0.6-0.5,1c0,0.3,0.1,0.7,0.4,1
			c0.3,0.3,0.8,0.7,1.6,1.1c1,0.5,1.7,1,2.1,1.5c0.4,0.5,0.5,1.1,0.5,1.7c0,0.9-0.3,1.6-0.9,2.2c-0.6,0.6-1.4,0.9-2.3,0.9
			c-0.6,0-1.2-0.1-1.8-0.4s-1-0.6-1.4-1.1l0.9-1c0.7,0.8,1.4,1.2,2.2,1.2c0.5,0,1-0.2,1.4-0.5c0.4-0.4,0.6-0.8,0.6-1.2
			c0-0.4-0.1-0.7-0.4-1c-0.3-0.3-0.8-0.7-1.7-1.1c-1-0.5-1.6-1-2-1.5s-0.5-1-0.5-1.7c0-0.8,0.3-1.5,0.8-2c0.6-0.5,1.2-0.8,2.1-0.8
			C491.8,163.8,492.8,164.3,493.8,165.3z"/>
		<path d="M496,164.1h1.4v5c0,1.2,0.1,2,0.2,2.5c0.2,0.7,0.6,1.2,1.1,1.5s1.2,0.6,2,0.6s1.4-0.2,1.9-0.6s0.9-0.9,1.1-1.5
			c0.1-0.4,0.2-1.3,0.2-2.6v-5h1.4v5.2c0,1.5-0.2,2.6-0.5,3.3s-0.9,1.3-1.5,1.7s-1.5,0.6-2.6,0.6s-1.9-0.2-2.6-0.6s-1.2-1-1.6-1.8
			s-0.5-1.9-0.5-3.4V164.1z"/>
		<path d="M513.7,165.3l-0.9,0.9c-0.7-0.7-1.4-1.1-2.1-1.1c-0.4,0-0.8,0.1-1.1,0.4s-0.5,0.6-0.5,1c0,0.3,0.1,0.7,0.4,1
			c0.3,0.3,0.8,0.7,1.6,1.1c1,0.5,1.7,1,2.1,1.5c0.4,0.5,0.5,1.1,0.5,1.7c0,0.9-0.3,1.6-0.9,2.2c-0.6,0.6-1.4,0.9-2.3,0.9
			c-0.6,0-1.2-0.1-1.8-0.4s-1-0.6-1.4-1.1l0.9-1c0.7,0.8,1.4,1.2,2.2,1.2c0.5,0,1-0.2,1.4-0.5c0.4-0.4,0.6-0.8,0.6-1.2
			c0-0.4-0.1-0.7-0.4-1c-0.3-0.3-0.8-0.7-1.7-1.1c-1-0.5-1.6-1-2-1.5s-0.5-1-0.5-1.7c0-0.8,0.3-1.5,0.8-2c0.6-0.5,1.2-0.8,2.1-0.8
			C511.7,163.8,512.7,164.3,513.7,165.3z"/>
		<path d="M532.3,164.1v10.6h-1.3v-1.8c-0.6,0.7-1.2,1.2-1.9,1.6s-1.5,0.5-2.3,0.5c-1.5,0-2.8-0.5-3.9-1.6s-1.6-2.4-1.6-4
			c0-1.5,0.5-2.8,1.6-3.9s2.4-1.6,3.9-1.6c0.9,0,1.7,0.2,2.4,0.6s1.3,0.9,1.9,1.7v-2H532.3z M526.8,165.2c-0.8,0-1.5,0.2-2.1,0.6
			c-0.6,0.4-1.2,0.9-1.5,1.6c-0.4,0.7-0.6,1.4-0.6,2.1c0,0.7,0.2,1.5,0.6,2.1s0.9,1.2,1.5,1.6c0.6,0.4,1.3,0.6,2.1,0.6
			c0.7,0,1.5-0.2,2.1-0.6c0.7-0.4,1.2-0.9,1.5-1.5c0.4-0.6,0.5-1.4,0.5-2.2c0-1.2-0.4-2.3-1.2-3.1C529,165.6,528,165.2,526.8,165.2z
			"/>
		<path d="M535.4,174.7V160h1.4v5.9c0.6-0.7,1.2-1.2,1.9-1.6s1.5-0.5,2.3-0.5c1.5,0,2.8,0.5,3.8,1.6c1.1,1.1,1.6,2.4,1.6,4
			c0,1.5-0.5,2.8-1.6,3.9c-1.1,1.1-2.4,1.6-3.9,1.6c-0.9,0-1.6-0.2-2.4-0.6s-1.3-0.9-1.9-1.7v2H535.4z M540.9,173.7
			c0.8,0,1.5-0.2,2.1-0.6s1.2-0.9,1.5-1.6s0.6-1.4,0.6-2.1s-0.2-1.5-0.6-2.2c-0.4-0.7-0.9-1.2-1.5-1.6s-1.3-0.6-2.1-0.6
			c-0.7,0-1.5,0.2-2.1,0.6s-1.2,0.9-1.5,1.5s-0.5,1.4-0.5,2.2c0,1.2,0.4,2.3,1.2,3.1S539.7,173.7,540.9,173.7z"/>
		<path d="M559.6,160v14.7h-1.3v-1.8c-0.6,0.7-1.2,1.2-1.9,1.6s-1.5,0.5-2.3,0.5c-1.5,0-2.8-0.5-3.9-1.6s-1.6-2.4-1.6-4
			c0-1.5,0.5-2.8,1.6-3.9s2.4-1.6,3.9-1.6c0.9,0,1.7,0.2,2.4,0.6s1.3,0.9,1.9,1.7V160H559.6z M554.1,165.2c-0.8,0-1.5,0.2-2.1,0.6
			c-0.6,0.4-1.2,0.9-1.5,1.6c-0.4,0.7-0.6,1.4-0.6,2.1c0,0.7,0.2,1.5,0.6,2.1s0.9,1.2,1.5,1.6c0.6,0.4,1.3,0.6,2.1,0.6
			c0.7,0,1.5-0.2,2.1-0.6c0.7-0.4,1.2-0.9,1.5-1.5c0.4-0.6,0.5-1.4,0.5-2.2c0-1.2-0.4-2.3-1.2-3.1
			C556.3,165.6,555.3,165.2,554.1,165.2z"/>
		<path d="M567.7,163.8c1.6,0,3,0.6,4.1,1.8c1,1.1,1.5,2.4,1.5,3.8c0,1.5-0.5,2.8-1.6,3.9c-1,1.1-2.4,1.7-4,1.7c-1.6,0-3-0.6-4-1.7
			c-1-1.1-1.6-2.4-1.6-3.9c0-1.5,0.5-2.7,1.5-3.8C564.7,164.4,566.1,163.8,567.7,163.8z M567.7,165.2c-1.1,0-2.1,0.4-2.9,1.3
			c-0.8,0.8-1.2,1.9-1.2,3c0,0.8,0.2,1.5,0.6,2.1s0.9,1.2,1.5,1.5c0.6,0.4,1.3,0.5,2.1,0.5s1.5-0.2,2.1-0.5s1.1-0.9,1.5-1.5
			s0.6-1.4,0.6-2.1c0-1.2-0.4-2.2-1.2-3C569.8,165.6,568.8,165.2,567.7,165.2z"/>
		<path d="M575.8,164.1h1.4v1.8c0.5-0.7,1-1.2,1.5-1.5c0.7-0.4,1.4-0.6,2.2-0.6c0.5,0,1,0.1,1.5,0.3s0.8,0.5,1.1,0.8
			c0.3,0.3,0.5,0.8,0.8,1.4c0.5-0.8,1-1.5,1.7-1.9s1.4-0.6,2.2-0.6c0.7,0,1.4,0.2,1.9,0.6s1,0.9,1.3,1.6s0.4,1.7,0.4,3v5.8h-1.4
			v-5.8c0-1.1-0.1-1.9-0.2-2.3s-0.4-0.8-0.8-1s-0.9-0.4-1.4-0.4c-0.7,0-1.3,0.2-1.8,0.6c-0.5,0.4-0.9,0.9-1.2,1.6s-0.4,1.7-0.4,3.3
			v4.2H583v-5.4c0-1.3-0.1-2.2-0.2-2.6s-0.4-0.8-0.8-1.1s-0.9-0.4-1.4-0.4c-0.6,0-1.2,0.2-1.8,0.6s-1,0.9-1.2,1.5s-0.4,1.6-0.4,3
			v4.5h-1.4V164.1z"/>
		<path d="M595,159.7c0.3,0,0.6,0.1,0.8,0.3c0.2,0.2,0.3,0.5,0.3,0.8c0,0.3-0.1,0.6-0.3,0.8c-0.2,0.2-0.5,0.3-0.8,0.3
			c-0.3,0-0.6-0.1-0.8-0.3c-0.2-0.2-0.3-0.5-0.3-0.8c0-0.3,0.1-0.6,0.3-0.8C594.4,159.8,594.7,159.7,595,159.7z M594.3,164.1h1.4
			v10.6h-1.4V164.1z"/>
		<path d="M598.5,164.1h1.4v1.9c0.5-0.7,1.2-1.3,1.8-1.6s1.4-0.5,2.2-0.5c0.8,0,1.5,0.2,2.1,0.6s1.1,0.9,1.4,1.6s0.4,1.7,0.4,3.2
			v5.5h-1.4v-5.1c0-1.2-0.1-2-0.2-2.5c-0.2-0.7-0.5-1.2-0.9-1.6s-1-0.5-1.8-0.5c-0.8,0-1.6,0.3-2.2,0.8s-1.1,1.2-1.3,2
			c-0.1,0.5-0.2,1.5-0.2,2.9v3.9h-1.4V164.1z"/>
		<path d="M611.2,159.7c0.3,0,0.6,0.1,0.8,0.3c0.2,0.2,0.3,0.5,0.3,0.8c0,0.3-0.1,0.6-0.3,0.8c-0.2,0.2-0.5,0.3-0.8,0.3
			c-0.3,0-0.6-0.1-0.8-0.3c-0.2-0.2-0.3-0.5-0.3-0.8c0-0.3,0.1-0.6,0.3-0.8C610.6,159.8,610.9,159.7,611.2,159.7z M610.5,164.1h1.4
			v10.6h-1.4V164.1z"/>
		<path d="M620.1,165.3l-0.9,0.9c-0.7-0.7-1.4-1.1-2.1-1.1c-0.4,0-0.8,0.1-1.1,0.4s-0.5,0.6-0.5,1c0,0.3,0.1,0.7,0.4,1
			c0.3,0.3,0.8,0.7,1.6,1.1c1,0.5,1.7,1,2.1,1.5c0.4,0.5,0.5,1.1,0.5,1.7c0,0.9-0.3,1.6-0.9,2.2c-0.6,0.6-1.4,0.9-2.3,0.9
			c-0.6,0-1.2-0.1-1.8-0.4s-1-0.6-1.4-1.1l0.9-1c0.7,0.8,1.4,1.2,2.2,1.2c0.5,0,1-0.2,1.4-0.5c0.4-0.4,0.6-0.8,0.6-1.2
			c0-0.4-0.1-0.7-0.4-1c-0.3-0.3-0.8-0.7-1.7-1.1c-1-0.5-1.6-1-2-1.5s-0.5-1-0.5-1.7c0-0.8,0.3-1.5,0.8-2c0.6-0.5,1.2-0.8,2.1-0.8
			C618.1,163.8,619.1,164.3,620.1,165.3z"/>
	</g>
	<g>
		<path d="M410.4,196h7.2v1.4h-5.8v4.5h5.8v1.4h-5.8v7.1h-1.4V196z"/>
		<path d="M430.5,199.8v10.6h-1.3v-1.8c-0.6,0.7-1.2,1.2-1.9,1.6s-1.5,0.5-2.3,0.5c-1.5,0-2.8-0.5-3.9-1.6s-1.6-2.4-1.6-4
			c0-1.5,0.5-2.8,1.6-3.9s2.4-1.6,3.9-1.6c0.9,0,1.7,0.2,2.4,0.6c0.7,0.4,1.3,0.9,1.9,1.7v-2H430.5z M425,200.8
			c-0.8,0-1.5,0.2-2.1,0.6c-0.6,0.4-1.2,0.9-1.5,1.6c-0.4,0.7-0.6,1.4-0.6,2.1c0,0.7,0.2,1.5,0.6,2.1c0.4,0.7,0.9,1.2,1.5,1.6
			c0.6,0.4,1.3,0.6,2.1,0.6c0.7,0,1.5-0.2,2.1-0.6c0.7-0.4,1.2-0.9,1.5-1.5c0.4-0.6,0.5-1.4,0.5-2.2c0-1.2-0.4-2.3-1.2-3.1
			C427.2,201.2,426.2,200.8,425,200.8z"/>
		<path d="M438.9,200.9l-0.9,0.9c-0.7-0.7-1.4-1.1-2.1-1.1c-0.4,0-0.8,0.1-1.1,0.4s-0.5,0.6-0.5,1c0,0.3,0.1,0.7,0.4,1
			c0.3,0.3,0.8,0.7,1.6,1.1c1,0.5,1.7,1,2.1,1.5c0.4,0.5,0.5,1.1,0.5,1.7c0,0.9-0.3,1.6-0.9,2.2c-0.6,0.6-1.4,0.9-2.3,0.9
			c-0.6,0-1.2-0.1-1.8-0.4s-1-0.6-1.4-1.1l0.9-1c0.7,0.8,1.4,1.2,2.2,1.2c0.5,0,1-0.2,1.4-0.5c0.4-0.4,0.6-0.8,0.6-1.2
			c0-0.4-0.1-0.7-0.4-1c-0.3-0.3-0.8-0.7-1.7-1.1c-1-0.5-1.6-1-2-1.5s-0.5-1-0.5-1.7c0-0.8,0.3-1.5,0.8-2c0.6-0.5,1.2-0.8,2.1-0.8
			C436.9,199.5,437.9,200,438.9,200.9z"/>
		<path d="M451.6,202l-1.1,0.7c-0.9-1.2-2.2-1.9-3.8-1.9c-1.3,0-2.4,0.4-3.2,1.2c-0.9,0.8-1.3,1.8-1.3,3c0,0.8,0.2,1.5,0.6,2.2
			s0.9,1.2,1.6,1.6c0.7,0.4,1.5,0.6,2.3,0.6c1.6,0,2.8-0.6,3.8-1.9l1.1,0.7c-0.5,0.8-1.2,1.4-2,1.8c-0.9,0.4-1.8,0.6-2.9,0.6
			c-1.7,0-3.1-0.5-4.2-1.6s-1.7-2.4-1.7-3.9c0-1,0.3-2,0.8-2.9s1.2-1.6,2.1-2.1s1.9-0.7,3-0.7c0.7,0,1.4,0.1,2,0.3s1.2,0.5,1.7,0.8
			S451.3,201.4,451.6,202z"/>
		<path d="M454.7,195.4c0.3,0,0.6,0.1,0.8,0.3c0.2,0.2,0.3,0.5,0.3,0.8c0,0.3-0.1,0.6-0.3,0.8c-0.2,0.2-0.5,0.3-0.8,0.3
			c-0.3,0-0.6-0.1-0.8-0.3c-0.2-0.2-0.3-0.5-0.3-0.8c0-0.3,0.1-0.6,0.3-0.8C454.2,195.5,454.4,195.4,454.7,195.4z M454,199.8h1.4
			v10.6H454V199.8z"/>
		<path d="M468.8,199.8v10.6h-1.3v-1.8c-0.6,0.7-1.2,1.2-1.9,1.6s-1.5,0.5-2.3,0.5c-1.5,0-2.8-0.5-3.9-1.6s-1.6-2.4-1.6-4
			c0-1.5,0.5-2.8,1.6-3.9s2.4-1.6,3.9-1.6c0.9,0,1.7,0.2,2.4,0.6s1.3,0.9,1.9,1.7v-2H468.8z M463.4,200.8c-0.8,0-1.5,0.2-2.1,0.6
			c-0.6,0.4-1.2,0.9-1.5,1.6c-0.4,0.7-0.6,1.4-0.6,2.1c0,0.7,0.2,1.5,0.6,2.1s0.9,1.2,1.5,1.6c0.6,0.4,1.3,0.6,2.1,0.6
			c0.7,0,1.5-0.2,2.1-0.6c0.7-0.4,1.2-0.9,1.5-1.5c0.4-0.6,0.5-1.4,0.5-2.2c0-1.2-0.4-2.3-1.2-3.1
			C465.6,201.2,464.6,200.8,463.4,200.8z"/>
		<path d="M478.6,195.8h1.4v3.9h2.2v1.2H480v9.4h-1.4V201h-1.9v-1.2h1.9V195.8z"/>
		<path d="M483.7,199.8h1.4v1.6c0.4-0.6,0.9-1.1,1.3-1.4s0.9-0.5,1.4-0.5c0.4,0,0.8,0.1,1.2,0.4l-0.7,1.2c-0.3-0.1-0.5-0.2-0.7-0.2
			c-0.5,0-0.9,0.2-1.3,0.6s-0.7,1-1,1.7c-0.2,0.6-0.3,1.8-0.3,3.7v3.6h-1.4V199.8z"/>
		<path d="M500.8,199.8v10.6h-1.3v-1.8c-0.6,0.7-1.2,1.2-1.9,1.6s-1.5,0.5-2.3,0.5c-1.5,0-2.8-0.5-3.9-1.6s-1.6-2.4-1.6-4
			c0-1.5,0.5-2.8,1.6-3.9s2.4-1.6,3.9-1.6c0.9,0,1.7,0.2,2.4,0.6s1.3,0.9,1.9,1.7v-2H500.8z M495.4,200.8c-0.8,0-1.5,0.2-2.1,0.6
			c-0.6,0.4-1.2,0.9-1.5,1.6c-0.4,0.7-0.6,1.4-0.6,2.1c0,0.7,0.2,1.5,0.6,2.1s0.9,1.2,1.5,1.6c0.6,0.4,1.3,0.6,2.1,0.6
			c0.7,0,1.5-0.2,2.1-0.6c0.7-0.4,1.2-0.9,1.5-1.5c0.4-0.6,0.5-1.4,0.5-2.2c0-1.2-0.4-2.3-1.2-3.1
			C497.6,201.2,496.6,200.8,495.4,200.8z"/>
		<path d="M503.9,199.8h1.4v1.9c0.5-0.7,1.2-1.3,1.8-1.6s1.4-0.5,2.2-0.5c0.8,0,1.5,0.2,2.1,0.6s1.1,0.9,1.4,1.6s0.4,1.7,0.4,3.2
			v5.5h-1.4v-5.1c0-1.2-0.1-2-0.2-2.5c-0.2-0.7-0.5-1.2-0.9-1.6s-1-0.5-1.8-0.5c-0.8,0-1.6,0.3-2.2,0.8s-1.1,1.2-1.3,2
			c-0.1,0.5-0.2,1.5-0.2,2.9v3.9h-1.4V199.8z"/>
		<path d="M521.5,200.9l-0.9,0.9c-0.7-0.7-1.4-1.1-2.1-1.1c-0.4,0-0.8,0.1-1.1,0.4s-0.5,0.6-0.5,1c0,0.3,0.1,0.7,0.4,1
			c0.3,0.3,0.8,0.7,1.6,1.1c1,0.5,1.7,1,2.1,1.5c0.4,0.5,0.5,1.1,0.5,1.7c0,0.9-0.3,1.6-0.9,2.2c-0.6,0.6-1.4,0.9-2.3,0.9
			c-0.6,0-1.2-0.1-1.8-0.4s-1-0.6-1.4-1.1l0.9-1c0.7,0.8,1.4,1.2,2.2,1.2c0.5,0,1-0.2,1.4-0.5c0.4-0.4,0.6-0.8,0.6-1.2
			c0-0.4-0.1-0.7-0.4-1c-0.3-0.3-0.8-0.7-1.7-1.1c-1-0.5-1.6-1-2-1.5s-0.5-1-0.5-1.7c0-0.8,0.3-1.5,0.8-2c0.6-0.5,1.2-0.8,2.1-0.8
			C519.5,199.5,520.5,200,521.5,200.9z"/>
		<path d="M522.9,199.8h1.5l3.6,7.7l3.5-7.7h1.5l-4.9,10.6h-0.3L522.9,199.8z"/>
		<path d="M543.9,206.9l1.2,0.6c-0.4,0.7-0.8,1.3-1.3,1.8s-1.1,0.8-1.7,1s-1.3,0.4-2.1,0.4c-1.7,0-3.1-0.6-4.1-1.7s-1.5-2.4-1.5-3.9
			c0-1.3,0.4-2.5,1.2-3.6c1-1.3,2.5-2,4.2-2c1.8,0,3.3,0.7,4.3,2.1c0.8,1,1.2,2.2,1.2,3.6h-9.6c0,1.2,0.4,2.2,1.2,3
			c0.8,0.8,1.7,1.2,2.8,1.2c0.5,0,1.1-0.1,1.6-0.3c0.5-0.2,0.9-0.4,1.3-0.7C543.1,208.1,543.5,207.6,543.9,206.9z M543.9,204
			c-0.2-0.7-0.4-1.3-0.8-1.7s-0.8-0.8-1.4-1.1c-0.6-0.3-1.2-0.4-1.8-0.4c-1,0-1.9,0.3-2.7,1c-0.5,0.5-1,1.2-1.2,2.2H543.9z"/>
		<path d="M547.4,199.8h1.4v1.6c0.4-0.6,0.9-1.1,1.3-1.4s0.9-0.5,1.4-0.5c0.4,0,0.8,0.1,1.2,0.4l-0.7,1.2c-0.3-0.1-0.5-0.2-0.7-0.2
			c-0.5,0-0.9,0.2-1.3,0.6s-0.7,1-1,1.7c-0.2,0.6-0.3,1.8-0.3,3.7v3.6h-1.4V199.8z"/>
		<path d="M559.3,200.9l-0.9,0.9c-0.7-0.7-1.4-1.1-2.1-1.1c-0.4,0-0.8,0.1-1.1,0.4s-0.5,0.6-0.5,1c0,0.3,0.1,0.7,0.4,1
			c0.3,0.3,0.8,0.7,1.6,1.1c1,0.5,1.7,1,2.1,1.5c0.4,0.5,0.5,1.1,0.5,1.7c0,0.9-0.3,1.6-0.9,2.2c-0.6,0.6-1.4,0.9-2.3,0.9
			c-0.6,0-1.2-0.1-1.8-0.4s-1-0.6-1.4-1.1l0.9-1c0.7,0.8,1.4,1.2,2.2,1.2c0.5,0,1-0.2,1.4-0.5c0.4-0.4,0.6-0.8,0.6-1.2
			c0-0.4-0.1-0.7-0.4-1c-0.3-0.3-0.8-0.7-1.7-1.1c-1-0.5-1.6-1-2-1.5s-0.5-1-0.5-1.7c0-0.8,0.3-1.5,0.8-2c0.6-0.5,1.2-0.8,2.1-0.8
			C557.3,199.5,558.3,200,559.3,200.9z"/>
		<path d="M572.3,199.8v10.6H571v-1.8c-0.6,0.7-1.2,1.2-1.9,1.6s-1.5,0.5-2.3,0.5c-1.5,0-2.8-0.5-3.9-1.6s-1.6-2.4-1.6-4
			c0-1.5,0.5-2.8,1.6-3.9s2.4-1.6,3.9-1.6c0.9,0,1.7,0.2,2.4,0.6s1.3,0.9,1.9,1.7v-2H572.3z M566.9,200.8c-0.8,0-1.5,0.2-2.1,0.6
			c-0.6,0.4-1.2,0.9-1.5,1.6c-0.4,0.7-0.6,1.4-0.6,2.1c0,0.7,0.2,1.5,0.6,2.1s0.9,1.2,1.5,1.6c0.6,0.4,1.3,0.6,2.1,0.6
			c0.7,0,1.5-0.2,2.1-0.6c0.7-0.4,1.2-0.9,1.5-1.5c0.4-0.6,0.5-1.4,0.5-2.2c0-1.2-0.4-2.3-1.2-3.1C569,201.2,568,200.8,566.9,200.8z
			"/>
		<path d="M575.2,195.7h1.4v14.7h-1.4V195.7z"/>
		<path d="M579.9,195.4c0.3,0,0.6,0.1,0.8,0.3c0.2,0.2,0.3,0.5,0.3,0.8c0,0.3-0.1,0.6-0.3,0.8c-0.2,0.2-0.5,0.3-0.8,0.3
			c-0.3,0-0.6-0.1-0.8-0.3c-0.2-0.2-0.3-0.5-0.3-0.8c0-0.3,0.1-0.6,0.3-0.8C579.3,195.5,579.6,195.4,579.9,195.4z M579.2,199.8h1.4
			v10.6h-1.4V199.8z"/>
		<path d="M588.7,200.9l-0.9,0.9c-0.7-0.7-1.4-1.1-2.1-1.1c-0.4,0-0.8,0.1-1.1,0.4s-0.5,0.6-0.5,1c0,0.3,0.1,0.7,0.4,1
			c0.3,0.3,0.8,0.7,1.6,1.1c1,0.5,1.7,1,2.1,1.5c0.4,0.5,0.5,1.1,0.5,1.7c0,0.9-0.3,1.6-0.9,2.2c-0.6,0.6-1.4,0.9-2.3,0.9
			c-0.6,0-1.2-0.1-1.8-0.4s-1-0.6-1.4-1.1l0.9-1c0.7,0.8,1.4,1.2,2.2,1.2c0.5,0,1-0.2,1.4-0.5c0.4-0.4,0.6-0.8,0.6-1.2
			c0-0.4-0.1-0.7-0.4-1c-0.3-0.3-0.8-0.7-1.7-1.1c-1-0.5-1.6-1-2-1.5s-0.5-1-0.5-1.7c0-0.8,0.3-1.5,0.8-2c0.6-0.5,1.2-0.8,2.1-0.8
			C586.8,199.5,587.8,200,588.7,200.9z"/>
	</g>
	<g>
		<path d="M385.3,401.1l1.2-0.7c0.9,1.6,1.9,2.4,3,2.4c0.5,0,0.9-0.1,1.4-0.3s0.7-0.5,1-0.9c0.2-0.4,0.3-0.8,0.3-1.2
			c0-0.5-0.2-1-0.5-1.4c-0.4-0.6-1.3-1.4-2.5-2.3c-1.2-0.9-1.9-1.6-2.2-2c-0.5-0.7-0.8-1.4-0.8-2.2c0-0.6,0.1-1.2,0.4-1.7
			c0.3-0.5,0.7-0.9,1.3-1.2c0.5-0.3,1.1-0.4,1.8-0.4c0.7,0,1.3,0.2,1.9,0.5c0.6,0.3,1.2,1,1.9,1.9l-1.2,0.9c-0.5-0.7-1-1.2-1.4-1.4
			c-0.4-0.2-0.8-0.3-1.2-0.3c-0.6,0-1.1,0.2-1.4,0.5s-0.6,0.8-0.6,1.3c0,0.3,0.1,0.6,0.2,0.9s0.4,0.6,0.7,1c0.2,0.2,0.8,0.7,1.9,1.4
			c1.2,0.9,2.1,1.7,2.6,2.5c0.5,0.7,0.7,1.4,0.7,2.2c0,1-0.4,1.9-1.2,2.7c-0.8,0.8-1.8,1.2-2.9,1.2c-0.9,0-1.7-0.2-2.4-0.7
			C386.5,402.9,385.9,402.1,385.3,401.1z"/>
		<path d="M396.5,393.1h1.4v2c0.5-0.7,1.2-1.3,1.9-1.7c0.7-0.4,1.5-0.6,2.4-0.6c1.5,0,2.8,0.5,3.9,1.6c1.1,1.1,1.6,2.4,1.6,3.9
			c0,1.6-0.5,2.9-1.6,4c-1.1,1.1-2.3,1.6-3.8,1.6c-0.8,0-1.6-0.2-2.3-0.5s-1.3-0.9-1.9-1.6v5.7h-1.4V393.1z M402,394.2
			c-1.2,0-2.2,0.4-3,1.2s-1.2,1.9-1.2,3.1c0,0.8,0.2,1.5,0.5,2.2c0.4,0.6,0.9,1.2,1.5,1.5s1.4,0.6,2.1,0.6c0.7,0,1.4-0.2,2.1-0.6
			s1.2-0.9,1.5-1.6c0.4-0.7,0.6-1.4,0.6-2.1c0-0.8-0.2-1.5-0.6-2.1c-0.4-0.7-0.9-1.2-1.5-1.6S402.7,394.2,402,394.2z"/>
		<path d="M419.1,400.2l1.2,0.6c-0.4,0.7-0.8,1.3-1.3,1.8c-0.5,0.5-1.1,0.8-1.7,1c-0.6,0.2-1.3,0.4-2.1,0.4c-1.7,0-3.1-0.6-4.1-1.7
			c-1-1.1-1.5-2.4-1.5-3.9c0-1.3,0.4-2.5,1.2-3.6c1-1.3,2.5-2,4.2-2c1.8,0,3.3,0.7,4.3,2.1c0.8,1,1.2,2.2,1.2,3.6H411
			c0,1.2,0.4,2.2,1.2,3s1.7,1.2,2.8,1.2c0.5,0,1.1-0.1,1.6-0.3c0.5-0.2,0.9-0.4,1.3-0.7C418.3,401.4,418.7,400.9,419.1,400.2z
			 M419.1,397.3c-0.2-0.7-0.4-1.3-0.8-1.7c-0.3-0.4-0.8-0.8-1.4-1.1c-0.6-0.3-1.2-0.4-1.8-0.4c-1,0-1.9,0.3-2.7,1
			c-0.5,0.5-1,1.2-1.2,2.2H419.1z"/>
		<path d="M422.6,393.1h1.4v1.6c0.4-0.6,0.9-1.1,1.3-1.4s0.9-0.5,1.4-0.5c0.4,0,0.8,0.1,1.2,0.4l-0.7,1.2c-0.3-0.1-0.5-0.2-0.7-0.2
			c-0.5,0-0.9,0.2-1.3,0.6c-0.4,0.4-0.7,1-1,1.7c-0.2,0.6-0.3,1.8-0.3,3.7v3.6h-1.4V393.1z"/>
		<path d="M429.1,393.1h1.4v1.8c0.5-0.7,1-1.2,1.5-1.5c0.7-0.4,1.4-0.6,2.2-0.6c0.5,0,1,0.1,1.5,0.3c0.5,0.2,0.8,0.5,1.1,0.8
			c0.3,0.3,0.5,0.8,0.8,1.4c0.5-0.8,1-1.5,1.7-1.9c0.7-0.4,1.4-0.6,2.2-0.6c0.7,0,1.4,0.2,1.9,0.6s1,0.9,1.3,1.6s0.4,1.7,0.4,3v5.8
			h-1.4v-5.8c0-1.1-0.1-1.9-0.2-2.3c-0.2-0.4-0.4-0.8-0.8-1c-0.4-0.3-0.9-0.4-1.4-0.4c-0.7,0-1.3,0.2-1.8,0.6
			c-0.5,0.4-0.9,0.9-1.2,1.6c-0.3,0.7-0.4,1.7-0.4,3.3v4.2h-1.4v-5.4c0-1.3-0.1-2.2-0.2-2.6s-0.4-0.8-0.8-1.1
			c-0.4-0.3-0.9-0.4-1.4-0.4c-0.6,0-1.2,0.2-1.8,0.6s-1,0.9-1.2,1.5s-0.4,1.6-0.4,3v4.5h-1.4V393.1z"/>
		<path d="M458.5,393.1v10.6h-1.3v-1.8c-0.6,0.7-1.2,1.2-1.9,1.6s-1.5,0.5-2.3,0.5c-1.5,0-2.8-0.5-3.9-1.6c-1.1-1.1-1.6-2.4-1.6-4
			c0-1.5,0.5-2.8,1.6-3.9c1.1-1.1,2.4-1.6,3.9-1.6c0.9,0,1.7,0.2,2.4,0.6s1.3,0.9,1.9,1.7v-2H458.5z M453,394.2
			c-0.8,0-1.5,0.2-2.1,0.6c-0.6,0.4-1.2,0.9-1.5,1.6c-0.4,0.7-0.6,1.4-0.6,2.1c0,0.7,0.2,1.5,0.6,2.1s0.9,1.2,1.5,1.6
			c0.6,0.4,1.3,0.6,2.1,0.6c0.7,0,1.5-0.2,2.1-0.6c0.7-0.4,1.2-0.9,1.5-1.5c0.4-0.6,0.5-1.4,0.5-2.2c0-1.2-0.4-2.3-1.2-3.1
			S454.2,394.2,453,394.2z"/>
		<path d="M462.8,389.2h1.4v3.9h2.2v1.2h-2.2v9.4h-1.4v-9.4h-1.9v-1.2h1.9V389.2z"/>
		<path d="M468.8,388.7c0.3,0,0.6,0.1,0.8,0.3c0.2,0.2,0.3,0.5,0.3,0.8c0,0.3-0.1,0.6-0.3,0.8c-0.2,0.2-0.5,0.3-0.8,0.3
			c-0.3,0-0.6-0.1-0.8-0.3c-0.2-0.2-0.3-0.5-0.3-0.8c0-0.3,0.1-0.6,0.3-0.8C468.2,388.8,468.5,388.7,468.8,388.7z M468.1,393.1h1.4
			v10.6h-1.4V393.1z"/>
		<path d="M482.7,395.3l-1.1,0.7c-0.9-1.2-2.2-1.9-3.8-1.9c-1.3,0-2.4,0.4-3.2,1.2c-0.9,0.8-1.3,1.8-1.3,3c0,0.8,0.2,1.5,0.6,2.2
			s0.9,1.2,1.6,1.6c0.7,0.4,1.5,0.6,2.3,0.6c1.6,0,2.8-0.6,3.8-1.9l1.1,0.7c-0.5,0.8-1.2,1.4-2,1.8c-0.9,0.4-1.8,0.6-2.9,0.6
			c-1.7,0-3.1-0.5-4.2-1.6c-1.1-1.1-1.7-2.4-1.7-3.9c0-1,0.3-2,0.8-2.9c0.5-0.9,1.2-1.6,2.1-2.1c0.9-0.5,1.9-0.7,3-0.7
			c0.7,0,1.4,0.1,2,0.3s1.2,0.5,1.7,0.8C482,394.3,482.3,394.8,482.7,395.3z"/>
		<path d="M501.1,395.3L500,396c-0.9-1.2-2.2-1.9-3.8-1.9c-1.3,0-2.4,0.4-3.2,1.2c-0.9,0.8-1.3,1.8-1.3,3c0,0.8,0.2,1.5,0.6,2.2
			s0.9,1.2,1.6,1.6c0.7,0.4,1.5,0.6,2.3,0.6c1.6,0,2.8-0.6,3.8-1.9l1.1,0.7c-0.5,0.8-1.2,1.4-2,1.8c-0.9,0.4-1.8,0.6-2.9,0.6
			c-1.7,0-3.1-0.5-4.2-1.6c-1.1-1.1-1.7-2.4-1.7-3.9c0-1,0.3-2,0.8-2.9c0.5-0.9,1.2-1.6,2.1-2.1c0.9-0.5,1.9-0.7,3-0.7
			c0.7,0,1.4,0.1,2,0.3s1.2,0.5,1.7,0.8C500.4,394.3,500.8,394.8,501.1,395.3z"/>
		<path d="M508.8,392.8c1.6,0,3,0.6,4.1,1.8c1,1.1,1.5,2.4,1.5,3.8c0,1.5-0.5,2.8-1.6,3.9c-1,1.1-2.4,1.7-4,1.7c-1.6,0-3-0.6-4-1.7
			c-1-1.1-1.6-2.4-1.6-3.9c0-1.5,0.5-2.7,1.5-3.8C505.8,393.4,507.1,392.8,508.8,392.8z M508.8,394.2c-1.1,0-2.1,0.4-2.9,1.3
			c-0.8,0.8-1.2,1.9-1.2,3c0,0.8,0.2,1.5,0.6,2.1s0.9,1.2,1.5,1.5c0.6,0.4,1.3,0.5,2.1,0.5s1.5-0.2,2.1-0.5s1.1-0.9,1.5-1.5
			s0.6-1.4,0.6-2.1c0-1.2-0.4-2.2-1.2-3C510.9,394.6,509.9,394.2,508.8,394.2z"/>
		<path d="M516.3,393.1h1.4v1.6c0.4-0.6,0.9-1.1,1.3-1.4s0.9-0.5,1.4-0.5c0.4,0,0.8,0.1,1.2,0.4l-0.7,1.2c-0.3-0.1-0.5-0.2-0.7-0.2
			c-0.5,0-0.9,0.2-1.3,0.6c-0.4,0.4-0.7,1-1,1.7c-0.2,0.6-0.3,1.8-0.3,3.7v3.6h-1.4V393.1z"/>
		<path d="M533.5,389v14.7h-1.3v-1.8c-0.6,0.7-1.2,1.2-1.9,1.6s-1.5,0.5-2.3,0.5c-1.5,0-2.8-0.5-3.9-1.6c-1.1-1.1-1.6-2.4-1.6-4
			c0-1.5,0.5-2.8,1.6-3.9c1.1-1.1,2.4-1.6,3.9-1.6c0.9,0,1.7,0.2,2.4,0.6s1.3,0.9,1.9,1.7V389H533.5z M528,394.2
			c-0.8,0-1.5,0.2-2.1,0.6c-0.6,0.4-1.2,0.9-1.5,1.6c-0.4,0.7-0.6,1.4-0.6,2.1c0,0.7,0.2,1.5,0.6,2.1s0.9,1.2,1.5,1.6
			c0.6,0.4,1.3,0.6,2.1,0.6c0.7,0,1.5-0.2,2.1-0.6c0.7-0.4,1.2-0.9,1.5-1.5c0.4-0.6,0.5-1.4,0.5-2.2c0-1.2-0.4-2.3-1.2-3.1
			S529.2,394.2,528,394.2z"/>
	</g>
	<g>
		<path d="M141.3,403.4h1.4v14.4h-1.4V403.4z"/>
		<path d="M145.8,407.1h1.4v1.9c0.5-0.7,1.2-1.3,1.8-1.6s1.4-0.5,2.2-0.5c0.8,0,1.5,0.2,2.1,0.6c0.6,0.4,1.1,0.9,1.4,1.6
			s0.4,1.7,0.4,3.2v5.5h-1.4v-5.1c0-1.2-0.1-2-0.2-2.5c-0.2-0.7-0.5-1.2-0.9-1.6c-0.4-0.4-1-0.5-1.8-0.5c-0.8,0-1.6,0.3-2.2,0.8
			s-1.1,1.2-1.3,2c-0.1,0.5-0.2,1.5-0.2,2.9v3.9h-1.4V407.1z"/>
		<path d="M159.2,403.2h1.4v3.9h2.2v1.2h-2.2v9.4h-1.4v-9.4h-1.9v-1.2h1.9V403.2z"/>
		<path d="M173.7,414.2l1.2,0.6c-0.4,0.7-0.8,1.3-1.3,1.8c-0.5,0.5-1.1,0.8-1.7,1c-0.6,0.2-1.3,0.4-2.1,0.4c-1.7,0-3.1-0.6-4.1-1.7
			c-1-1.1-1.5-2.4-1.5-3.9c0-1.3,0.4-2.5,1.2-3.6c1-1.3,2.5-2,4.2-2c1.8,0,3.3,0.7,4.3,2.1c0.8,1,1.2,2.2,1.2,3.6h-9.6
			c0,1.2,0.4,2.2,1.2,3s1.7,1.2,2.8,1.2c0.5,0,1.1-0.1,1.6-0.3c0.5-0.2,0.9-0.4,1.3-0.7C172.9,415.4,173.3,414.9,173.7,414.2z
			 M173.7,411.3c-0.2-0.7-0.4-1.3-0.8-1.7c-0.3-0.4-0.8-0.8-1.4-1.1c-0.6-0.3-1.2-0.4-1.8-0.4c-1,0-1.9,0.3-2.7,1
			c-0.5,0.5-1,1.2-1.2,2.2H173.7z"/>
		<path d="M177.2,407.1h1.4v1.6c0.4-0.6,0.9-1.1,1.3-1.4s0.9-0.5,1.4-0.5c0.4,0,0.8,0.1,1.2,0.4l-0.7,1.2c-0.3-0.1-0.5-0.2-0.7-0.2
			c-0.5,0-0.9,0.2-1.3,0.6c-0.4,0.4-0.7,1-1,1.7c-0.2,0.6-0.3,1.8-0.3,3.7v3.6h-1.4V407.1z"/>
		<path d="M183.8,407.1h1.4v1.9c0.5-0.7,1.2-1.3,1.8-1.6s1.4-0.5,2.2-0.5c0.8,0,1.5,0.2,2.1,0.6c0.6,0.4,1.1,0.9,1.4,1.6
			s0.4,1.7,0.4,3.2v5.5h-1.4v-5.1c0-1.2-0.1-2-0.2-2.5c-0.2-0.7-0.5-1.2-0.9-1.6c-0.4-0.4-1-0.5-1.8-0.5c-0.8,0-1.6,0.3-2.2,0.8
			s-1.1,1.2-1.3,2c-0.1,0.5-0.2,1.5-0.2,2.9v3.9h-1.4V407.1z"/>
		<path d="M204.9,414.2l1.2,0.6c-0.4,0.7-0.8,1.3-1.3,1.8c-0.5,0.5-1.1,0.8-1.7,1c-0.6,0.2-1.3,0.4-2.1,0.4c-1.7,0-3.1-0.6-4.1-1.7
			c-1-1.1-1.5-2.4-1.5-3.9c0-1.3,0.4-2.5,1.2-3.6c1-1.3,2.5-2,4.2-2c1.8,0,3.3,0.7,4.3,2.1c0.8,1,1.2,2.2,1.2,3.6h-9.6
			c0,1.2,0.4,2.2,1.2,3s1.7,1.2,2.8,1.2c0.5,0,1.1-0.1,1.6-0.3c0.5-0.2,0.9-0.4,1.3-0.7C204.1,415.4,204.5,414.9,204.9,414.2z
			 M204.9,411.3c-0.2-0.7-0.4-1.3-0.8-1.7c-0.3-0.4-0.8-0.8-1.4-1.1c-0.6-0.3-1.2-0.4-1.8-0.4c-1,0-1.9,0.3-2.7,1
			c-0.5,0.5-1,1.2-1.2,2.2H204.9z"/>
		<path d="M219.6,403v14.7h-1.3v-1.8c-0.6,0.7-1.2,1.2-1.9,1.6s-1.5,0.5-2.3,0.5c-1.5,0-2.8-0.5-3.9-1.6c-1.1-1.1-1.6-2.4-1.6-4
			c0-1.5,0.5-2.8,1.6-3.9c1.1-1.1,2.4-1.6,3.9-1.6c0.9,0,1.7,0.2,2.4,0.6s1.3,0.9,1.9,1.7V403H219.6z M214.1,408.2
			c-0.8,0-1.5,0.2-2.1,0.6c-0.6,0.4-1.2,0.9-1.5,1.6c-0.4,0.7-0.6,1.4-0.6,2.1c0,0.7,0.2,1.5,0.6,2.1c0.4,0.7,0.9,1.2,1.5,1.6
			s1.3,0.6,2.1,0.6c0.7,0,1.5-0.2,2.1-0.6s1.2-0.9,1.5-1.5s0.5-1.4,0.5-2.2c0-1.2-0.4-2.3-1.2-3.1S215.3,408.2,214.1,408.2z"/>
		<path d="M232.6,403v1.3c-0.5-0.2-0.9-0.3-1.3-0.3c-0.3,0-0.5,0.1-0.7,0.2s-0.3,0.2-0.3,0.4c0,0.1-0.1,0.5-0.1,1.1l0,1.4h2.2v1.2
			h-2.2l0,9.4h-1.4v-9.4h-1.4v-1.2h1.4v-1.7c0-0.8,0.1-1.3,0.2-1.6c0.1-0.3,0.4-0.6,0.7-0.8c0.3-0.2,0.7-0.3,1.2-0.3
			C231.4,402.7,231.9,402.8,232.6,403z"/>
		<path d="M234.9,402.7c0.3,0,0.6,0.1,0.8,0.3c0.2,0.2,0.3,0.5,0.3,0.8c0,0.3-0.1,0.6-0.3,0.8c-0.2,0.2-0.5,0.3-0.8,0.3
			c-0.3,0-0.6-0.1-0.8-0.3c-0.2-0.2-0.3-0.5-0.3-0.8c0-0.3,0.1-0.6,0.3-0.8C234.4,402.8,234.6,402.7,234.9,402.7z M234.3,407.1h1.4
			v10.6h-1.4V407.1z"/>
		<path d="M238.6,417.7V403h1.4v5.9c0.6-0.7,1.2-1.2,1.9-1.6c0.7-0.3,1.5-0.5,2.3-0.5c1.5,0,2.8,0.5,3.8,1.6c1.1,1.1,1.6,2.4,1.6,4
			c0,1.5-0.5,2.8-1.6,3.9c-1.1,1.1-2.4,1.6-3.9,1.6c-0.9,0-1.7-0.2-2.4-0.6c-0.7-0.4-1.3-0.9-1.9-1.7v2H238.6z M244,416.7
			c0.8,0,1.5-0.2,2.1-0.6c0.6-0.4,1.2-0.9,1.5-1.6c0.4-0.7,0.6-1.4,0.6-2.1c0-0.8-0.2-1.5-0.6-2.2c-0.4-0.7-0.9-1.2-1.5-1.6
			s-1.3-0.6-2.1-0.6c-0.7,0-1.5,0.2-2.1,0.6s-1.2,0.9-1.5,1.5c-0.4,0.6-0.5,1.4-0.5,2.2c0,1.2,0.4,2.3,1.2,3.1
			C241.9,416.3,242.8,416.7,244,416.7z"/>
		<path d="M251.6,407.1h1.4v1.6c0.4-0.6,0.9-1.1,1.3-1.4s0.9-0.5,1.4-0.5c0.4,0,0.8,0.1,1.2,0.4l-0.7,1.2c-0.3-0.1-0.5-0.2-0.7-0.2
			c-0.5,0-0.9,0.2-1.3,0.6c-0.4,0.4-0.7,1-1,1.7c-0.2,0.6-0.3,1.8-0.3,3.7v3.6h-1.4V407.1z"/>
		<path d="M267.1,414.2l1.2,0.6c-0.4,0.7-0.8,1.3-1.3,1.8c-0.5,0.5-1.1,0.8-1.7,1c-0.6,0.2-1.3,0.4-2.1,0.4c-1.7,0-3.1-0.6-4.1-1.7
			c-1-1.1-1.5-2.4-1.5-3.9c0-1.3,0.4-2.5,1.2-3.6c1-1.3,2.5-2,4.2-2c1.8,0,3.3,0.7,4.3,2.1c0.8,1,1.2,2.2,1.2,3.6H259
			c0,1.2,0.4,2.2,1.2,3s1.7,1.2,2.8,1.2c0.5,0,1.1-0.1,1.6-0.3c0.5-0.2,0.9-0.4,1.3-0.7C266.3,415.4,266.7,414.9,267.1,414.2z
			 M267.1,411.3c-0.2-0.7-0.4-1.3-0.8-1.7c-0.3-0.4-0.8-0.8-1.4-1.1c-0.6-0.3-1.2-0.4-1.8-0.4c-1,0-1.9,0.3-2.7,1
			c-0.5,0.5-1,1.2-1.2,2.2H267.1z"/>
		<path d="M276.5,408.3l-0.9,0.9c-0.7-0.7-1.4-1.1-2.1-1.1c-0.4,0-0.8,0.1-1.1,0.4s-0.5,0.6-0.5,1c0,0.3,0.1,0.7,0.4,1
			c0.3,0.3,0.8,0.7,1.6,1.1c1,0.5,1.7,1,2.1,1.5c0.4,0.5,0.5,1.1,0.5,1.7c0,0.9-0.3,1.6-0.9,2.2c-0.6,0.6-1.4,0.9-2.3,0.9
			c-0.6,0-1.2-0.1-1.8-0.4c-0.6-0.3-1-0.6-1.4-1.1l0.9-1c0.7,0.8,1.4,1.2,2.2,1.2c0.5,0,1-0.2,1.4-0.5c0.4-0.4,0.6-0.8,0.6-1.2
			c0-0.4-0.1-0.7-0.4-1c-0.3-0.3-0.8-0.7-1.7-1.1c-1-0.5-1.6-1-2-1.5c-0.3-0.5-0.5-1-0.5-1.7c0-0.8,0.3-1.5,0.8-2
			c0.6-0.5,1.2-0.8,2.1-0.8C274.5,406.8,275.5,407.3,276.5,408.3z"/>
		<path d="M289.5,406.8c1.6,0,3,0.6,4.1,1.8c1,1.1,1.5,2.4,1.5,3.8c0,1.5-0.5,2.8-1.6,3.9c-1,1.1-2.4,1.7-4,1.7c-1.6,0-3-0.6-4-1.7
			c-1-1.1-1.6-2.4-1.6-3.9c0-1.5,0.5-2.7,1.5-3.8C286.5,407.4,287.8,406.8,289.5,406.8z M289.5,408.2c-1.1,0-2.1,0.4-2.9,1.3
			c-0.8,0.8-1.2,1.9-1.2,3c0,0.8,0.2,1.5,0.6,2.1s0.9,1.2,1.5,1.5c0.6,0.4,1.3,0.5,2.1,0.5s1.5-0.2,2.1-0.5s1.1-0.9,1.5-1.5
			s0.6-1.4,0.6-2.1c0-1.2-0.4-2.2-1.2-3C291.6,408.6,290.6,408.2,289.5,408.2z"/>
		<path d="M301.9,403v1.3c-0.5-0.2-0.9-0.3-1.3-0.3c-0.3,0-0.5,0.1-0.7,0.2s-0.3,0.2-0.3,0.4c0,0.1-0.1,0.5-0.1,1.1l0,1.4h2.2v1.2
			h-2.2l0,9.4h-1.4v-9.4h-1.4v-1.2h1.4v-1.7c0-0.8,0.1-1.3,0.2-1.6c0.1-0.3,0.4-0.6,0.7-0.8c0.3-0.2,0.7-0.3,1.2-0.3
			C300.7,402.7,301.3,402.8,301.9,403z"/>
		<path d="M142.5,427.4h8.2v1.4h-6.8v4.5h6.7v1.4h-6.7v5.6h6.7v1.4h-8.2V427.4z"/>
		<path d="M151.7,431.1h1.6l2.8,3.9l2.8-3.9h1.6l-3.6,5l4.1,5.6h-1.7l-3.2-4.5l-3.2,4.5h-1.6l4-5.6L151.7,431.1z"/>
		<path d="M163.7,427.2h1.4v3.9h2.2v1.2h-2.2v9.4h-1.4v-9.4h-1.9v-1.2h1.9V427.2z"/>
		<path d="M178.3,438.2l1.2,0.6c-0.4,0.7-0.8,1.3-1.3,1.8c-0.5,0.5-1.1,0.8-1.7,1c-0.6,0.2-1.3,0.4-2.1,0.4c-1.7,0-3.1-0.6-4.1-1.7
			c-1-1.1-1.5-2.4-1.5-3.9c0-1.3,0.4-2.5,1.2-3.6c1-1.3,2.5-2,4.2-2c1.8,0,3.3,0.7,4.3,2.1c0.8,1,1.2,2.2,1.2,3.6h-9.6
			c0,1.2,0.4,2.2,1.2,3s1.7,1.2,2.8,1.2c0.5,0,1.1-0.1,1.6-0.3c0.5-0.2,0.9-0.4,1.3-0.7C177.5,439.4,177.9,438.9,178.3,438.2z
			 M178.3,435.3c-0.2-0.7-0.4-1.3-0.8-1.7c-0.3-0.4-0.8-0.8-1.4-1.1c-0.6-0.3-1.2-0.4-1.8-0.4c-1,0-1.9,0.3-2.7,1
			c-0.5,0.5-1,1.2-1.2,2.2H178.3z"/>
		<path d="M181.8,431.1h1.4v1.6c0.4-0.6,0.9-1.1,1.3-1.4s0.9-0.5,1.4-0.5c0.4,0,0.8,0.1,1.2,0.4l-0.7,1.2c-0.3-0.1-0.5-0.2-0.7-0.2
			c-0.5,0-0.9,0.2-1.3,0.6c-0.4,0.4-0.7,1-1,1.7c-0.2,0.6-0.3,1.8-0.3,3.7v3.6h-1.4V431.1z"/>
		<path d="M188.3,431.1h1.4v1.9c0.5-0.7,1.2-1.3,1.8-1.6s1.4-0.5,2.2-0.5c0.8,0,1.5,0.2,2.1,0.6c0.6,0.4,1.1,0.9,1.4,1.6
			s0.4,1.7,0.4,3.2v5.5h-1.4v-5.1c0-1.2-0.1-2-0.2-2.5c-0.2-0.7-0.5-1.2-0.9-1.6c-0.4-0.4-1-0.5-1.8-0.5c-0.8,0-1.6,0.3-2.2,0.8
			s-1.1,1.2-1.3,2c-0.1,0.5-0.2,1.5-0.2,2.9v3.9h-1.4V431.1z"/>
		<path d="M211.1,431.1v10.6h-1.3v-1.8c-0.6,0.7-1.2,1.2-1.9,1.6s-1.5,0.5-2.3,0.5c-1.5,0-2.8-0.5-3.9-1.6c-1.1-1.1-1.6-2.4-1.6-4
			c0-1.5,0.5-2.8,1.6-3.9c1.1-1.1,2.4-1.6,3.9-1.6c0.9,0,1.7,0.2,2.4,0.6s1.3,0.9,1.9,1.7v-2H211.1z M205.7,432.2
			c-0.8,0-1.5,0.2-2.1,0.6c-0.6,0.4-1.2,0.9-1.5,1.6c-0.4,0.7-0.6,1.4-0.6,2.1c0,0.7,0.2,1.5,0.6,2.1c0.4,0.7,0.9,1.2,1.5,1.6
			s1.3,0.6,2.1,0.6c0.7,0,1.5-0.2,2.1-0.6s1.2-0.9,1.5-1.5s0.5-1.4,0.5-2.2c0-1.2-0.4-2.3-1.2-3.1S206.8,432.2,205.7,432.2z"/>
		<path d="M214,427h1.4v14.7H214V427z"/>
		<path d="M228.8,430.8c1.6,0,3,0.6,4.1,1.8c1,1.1,1.5,2.4,1.5,3.8c0,1.5-0.5,2.8-1.6,3.9c-1,1.1-2.4,1.7-4,1.7c-1.6,0-3-0.6-4-1.7
			c-1-1.1-1.6-2.4-1.6-3.9c0-1.5,0.5-2.7,1.5-3.8C225.8,431.4,227.1,430.8,228.8,430.8z M228.8,432.2c-1.1,0-2.1,0.4-2.9,1.3
			c-0.8,0.8-1.2,1.9-1.2,3c0,0.8,0.2,1.5,0.6,2.1s0.9,1.2,1.5,1.5s1.3,0.5,2.1,0.5s1.5-0.2,2.1-0.5s1.1-0.9,1.5-1.5
			c0.4-0.7,0.6-1.4,0.6-2.1c0-1.2-0.4-2.2-1.2-3S229.9,432.2,228.8,432.2z"/>
		<path d="M236.9,441.7V427h1.4v5.9c0.6-0.7,1.2-1.2,1.9-1.6c0.7-0.3,1.5-0.5,2.3-0.5c1.5,0,2.8,0.5,3.8,1.6c1.1,1.1,1.6,2.4,1.6,4
			c0,1.5-0.5,2.8-1.6,3.9c-1.1,1.1-2.4,1.6-3.9,1.6c-0.9,0-1.6-0.2-2.4-0.6c-0.7-0.4-1.3-0.9-1.9-1.7v2H236.9z M242.4,440.7
			c0.8,0,1.5-0.2,2.1-0.6c0.6-0.4,1.2-0.9,1.5-1.6c0.4-0.7,0.6-1.4,0.6-2.1c0-0.8-0.2-1.5-0.6-2.2s-0.9-1.2-1.5-1.6
			s-1.3-0.6-2.1-0.6c-0.7,0-1.5,0.2-2.1,0.6s-1.2,0.9-1.5,1.5c-0.4,0.6-0.5,1.4-0.5,2.2c0,1.2,0.4,2.3,1.2,3.1
			C240.2,440.3,241.2,440.7,242.4,440.7z"/>
		<path d="M250.3,427h1.4v14.7h-1.4V427z"/>
		<path d="M255,426.7c0.3,0,0.6,0.1,0.8,0.3c0.2,0.2,0.3,0.5,0.3,0.8c0,0.3-0.1,0.6-0.3,0.8c-0.2,0.2-0.5,0.3-0.8,0.3
			c-0.3,0-0.6-0.1-0.8-0.3c-0.2-0.2-0.3-0.5-0.3-0.8c0-0.3,0.1-0.6,0.3-0.8C254.4,426.8,254.7,426.7,255,426.7z M254.3,431.1h1.4
			v10.6h-1.4V431.1z"/>
		<path d="M269.1,431.1v14.5h-1.3v-5.7c-0.6,0.7-1.2,1.2-1.9,1.6s-1.5,0.5-2.3,0.5c-1.5,0-2.8-0.5-3.9-1.6c-1.1-1.1-1.6-2.4-1.6-4
			c0-1.5,0.5-2.8,1.6-3.9c1.1-1.1,2.4-1.6,3.9-1.6c0.9,0,1.7,0.2,2.4,0.6s1.3,0.9,1.9,1.7v-2H269.1z M263.6,432.2
			c-0.8,0-1.5,0.2-2.1,0.6c-0.6,0.4-1.2,0.9-1.5,1.6c-0.4,0.7-0.6,1.4-0.6,2.1c0,0.7,0.2,1.5,0.6,2.1s0.9,1.2,1.5,1.6
			c0.6,0.4,1.3,0.6,2.1,0.6c0.7,0,1.5-0.2,2.1-0.6c0.7-0.4,1.2-0.9,1.5-1.5c0.4-0.6,0.5-1.4,0.5-2.2c0-1.2-0.4-2.3-1.2-3.1
			S264.8,432.2,263.6,432.2z"/>
		<path d="M272,431.1h1.4v5c0,1.2,0.1,2,0.2,2.5c0.2,0.7,0.6,1.2,1.1,1.5c0.6,0.4,1.2,0.6,2,0.6s1.4-0.2,1.9-0.6
			c0.5-0.4,0.9-0.9,1.1-1.5c0.1-0.4,0.2-1.3,0.2-2.6v-5h1.4v5.2c0,1.5-0.2,2.6-0.5,3.3s-0.9,1.3-1.5,1.7s-1.5,0.6-2.6,0.6
			s-1.9-0.2-2.6-0.6s-1.2-1-1.6-1.8s-0.5-1.9-0.5-3.4V431.1z"/>
		<path d="M293.2,438.2l1.2,0.6c-0.4,0.7-0.8,1.3-1.3,1.8c-0.5,0.5-1.1,0.8-1.7,1c-0.6,0.2-1.3,0.4-2.1,0.4c-1.7,0-3.1-0.6-4.1-1.7
			c-1-1.1-1.5-2.4-1.5-3.9c0-1.3,0.4-2.5,1.2-3.6c1-1.3,2.5-2,4.2-2c1.8,0,3.3,0.7,4.3,2.1c0.8,1,1.2,2.2,1.2,3.6h-9.6
			c0,1.2,0.4,2.2,1.2,3s1.7,1.2,2.8,1.2c0.5,0,1.1-0.1,1.6-0.3c0.5-0.2,0.9-0.4,1.3-0.7C292.4,439.4,292.8,438.9,293.2,438.2z
			 M293.2,435.3c-0.2-0.7-0.4-1.3-0.8-1.7c-0.3-0.4-0.8-0.8-1.4-1.1c-0.6-0.3-1.2-0.4-1.8-0.4c-1,0-1.9,0.3-2.7,1
			c-0.5,0.5-1,1.2-1.2,2.2H293.2z"/>
		<path d="M97.8,451.4h7.2v1.4h-5.8v4.5h5.8v1.4h-5.8v7.1h-1.4V451.4z"/>
		<path d="M112.3,454.8c1.6,0,3,0.6,4.1,1.8c1,1.1,1.5,2.4,1.5,3.8c0,1.5-0.5,2.8-1.6,3.9c-1,1.1-2.4,1.7-4,1.7c-1.6,0-3-0.6-4-1.7
			c-1-1.1-1.6-2.4-1.6-3.9c0-1.5,0.5-2.7,1.5-3.8C109.3,455.4,110.7,454.8,112.3,454.8z M112.3,456.2c-1.1,0-2.1,0.4-2.9,1.3
			c-0.8,0.8-1.2,1.9-1.2,3c0,0.8,0.2,1.5,0.6,2.1s0.9,1.2,1.5,1.5s1.3,0.5,2.1,0.5s1.5-0.2,2.1-0.5s1.1-0.9,1.5-1.5
			c0.4-0.7,0.6-1.4,0.6-2.1c0-1.2-0.4-2.2-1.2-3S113.5,456.2,112.3,456.2z"/>
		<path d="M119.9,455.1h1.4v1.6c0.4-0.6,0.9-1.1,1.3-1.4s0.9-0.5,1.4-0.5c0.4,0,0.8,0.1,1.2,0.4l-0.7,1.2c-0.3-0.1-0.5-0.2-0.7-0.2
			c-0.5,0-0.9,0.2-1.3,0.6c-0.4,0.4-0.7,1-1,1.7c-0.2,0.6-0.3,1.8-0.3,3.7v3.6h-1.4V455.1z"/>
		<path d="M126.4,455.1h1.4v1.8c0.5-0.7,1-1.2,1.5-1.5c0.7-0.4,1.4-0.6,2.2-0.6c0.5,0,1,0.1,1.5,0.3c0.5,0.2,0.8,0.5,1.1,0.8
			c0.3,0.3,0.5,0.8,0.8,1.4c0.5-0.8,1-1.5,1.7-1.9c0.7-0.4,1.4-0.6,2.2-0.6c0.7,0,1.4,0.2,1.9,0.6c0.6,0.4,1,0.9,1.3,1.6
			s0.4,1.7,0.4,3v5.8h-1.4v-5.8c0-1.1-0.1-1.9-0.2-2.3c-0.2-0.4-0.4-0.8-0.8-1c-0.4-0.3-0.9-0.4-1.4-0.4c-0.7,0-1.3,0.2-1.8,0.6
			s-0.9,0.9-1.2,1.6c-0.3,0.7-0.4,1.7-0.4,3.3v4.2h-1.4v-5.4c0-1.3-0.1-2.2-0.2-2.6s-0.4-0.8-0.8-1.1c-0.4-0.3-0.9-0.4-1.4-0.4
			c-0.6,0-1.2,0.2-1.8,0.6s-1,0.9-1.2,1.5c-0.3,0.6-0.4,1.6-0.4,3v4.5h-1.4V455.1z"/>
		<path d="M145.6,450.7c0.3,0,0.6,0.1,0.8,0.3c0.2,0.2,0.3,0.5,0.3,0.8c0,0.3-0.1,0.6-0.3,0.8c-0.2,0.2-0.5,0.3-0.8,0.3
			c-0.3,0-0.6-0.1-0.8-0.3c-0.2-0.2-0.3-0.5-0.3-0.8c0-0.3,0.1-0.6,0.3-0.8C145.1,450.8,145.3,450.7,145.6,450.7z M145,455.1h1.4
			v10.6H145V455.1z"/>
		<path d="M149.2,455.1h1.4v1.9c0.5-0.7,1.2-1.3,1.8-1.6s1.4-0.5,2.2-0.5c0.8,0,1.5,0.2,2.1,0.6c0.6,0.4,1.1,0.9,1.4,1.6
			s0.4,1.7,0.4,3.2v5.5h-1.4v-5.1c0-1.2-0.1-2-0.2-2.5c-0.2-0.7-0.5-1.2-0.9-1.6c-0.4-0.4-1-0.5-1.8-0.5c-0.8,0-1.6,0.3-2.2,0.8
			s-1.1,1.2-1.3,2c-0.1,0.5-0.2,1.5-0.2,2.9v3.9h-1.4V455.1z"/>
		<path d="M170.5,455.1h1.4v8.5c0,1.5-0.1,2.6-0.4,3.3c-0.4,1-1,1.7-1.9,2.3s-1.9,0.8-3.2,0.8c-0.9,0-1.7-0.1-2.5-0.4
			s-1.3-0.6-1.8-1s-0.9-1.1-1.3-1.9h1.5c0.4,0.7,0.9,1.2,1.6,1.6c0.6,0.3,1.4,0.5,2.4,0.5c0.9,0,1.7-0.2,2.4-0.5s1.1-0.8,1.4-1.3
			c0.3-0.5,0.4-1.4,0.4-2.5v-0.5c-0.5,0.7-1.1,1.2-1.9,1.5c-0.7,0.3-1.5,0.5-2.4,0.5c-1,0-1.9-0.2-2.8-0.7c-0.9-0.5-1.5-1.1-2-2
			s-0.7-1.7-0.7-2.7c0-1,0.2-1.9,0.7-2.7c0.5-0.8,1.2-1.5,2-2c0.9-0.5,1.8-0.7,2.7-0.7c0.8,0,1.5,0.2,2.2,0.5c0.7,0.3,1.4,0.9,2,1.6
			V455.1z M166.5,456.2c-0.8,0-1.5,0.2-2.2,0.6c-0.7,0.4-1.2,0.9-1.6,1.6c-0.4,0.7-0.6,1.4-0.6,2.1c0,1.2,0.4,2.1,1.2,2.9
			s1.8,1.1,3,1.1c1.3,0,2.3-0.4,3-1.1c0.8-0.8,1.1-1.7,1.1-3c0-0.8-0.2-1.5-0.5-2.1c-0.4-0.6-0.8-1.1-1.5-1.5
			C167.9,456.3,167.2,456.2,166.5,456.2z"/>
		<path d="M180.8,450.7c0.3,0,0.6,0.1,0.8,0.3c0.2,0.2,0.3,0.5,0.3,0.8c0,0.3-0.1,0.6-0.3,0.8c-0.2,0.2-0.5,0.3-0.8,0.3
			c-0.3,0-0.6-0.1-0.8-0.3c-0.2-0.2-0.3-0.5-0.3-0.8c0-0.3,0.1-0.6,0.3-0.8C180.3,450.8,180.5,450.7,180.8,450.7z M180.2,455.1h1.4
			v10.6h-1.4V455.1z"/>
		<path d="M184.4,455.1h1.4v1.9c0.5-0.7,1.2-1.3,1.8-1.6s1.4-0.5,2.2-0.5c0.8,0,1.5,0.2,2.1,0.6c0.6,0.4,1.1,0.9,1.4,1.6
			s0.4,1.7,0.4,3.2v5.5h-1.4v-5.1c0-1.2-0.1-2-0.2-2.5c-0.2-0.7-0.5-1.2-0.9-1.6c-0.4-0.4-1-0.5-1.8-0.5c-0.8,0-1.6,0.3-2.2,0.8
			s-1.1,1.2-1.3,2c-0.1,0.5-0.2,1.5-0.2,2.9v3.9h-1.4V455.1z"/>
		<path d="M205.7,455.1h1.4v8.5c0,1.5-0.1,2.6-0.4,3.3c-0.4,1-1,1.7-1.9,2.3s-1.9,0.8-3.2,0.8c-0.9,0-1.7-0.1-2.5-0.4
			s-1.3-0.6-1.8-1s-0.9-1.1-1.3-1.9h1.5c0.4,0.7,0.9,1.2,1.6,1.6c0.6,0.3,1.4,0.5,2.4,0.5c0.9,0,1.7-0.2,2.4-0.5s1.1-0.8,1.4-1.3
			c0.3-0.5,0.4-1.4,0.4-2.5v-0.5c-0.5,0.7-1.1,1.2-1.9,1.5c-0.7,0.3-1.5,0.5-2.4,0.5c-1,0-1.9-0.2-2.8-0.7c-0.9-0.5-1.5-1.1-2-2
			s-0.7-1.7-0.7-2.7c0-1,0.2-1.9,0.7-2.7c0.5-0.8,1.2-1.5,2-2c0.9-0.5,1.8-0.7,2.7-0.7c0.8,0,1.5,0.2,2.2,0.5c0.7,0.3,1.4,0.9,2,1.6
			V455.1z M201.7,456.2c-0.8,0-1.5,0.2-2.2,0.6c-0.7,0.4-1.2,0.9-1.6,1.6c-0.4,0.7-0.6,1.4-0.6,2.1c0,1.2,0.4,2.1,1.2,2.9
			s1.8,1.1,3,1.1c1.3,0,2.3-0.4,3-1.1c0.8-0.8,1.1-1.7,1.1-3c0-0.8-0.2-1.5-0.5-2.1c-0.4-0.6-0.8-1.1-1.5-1.5
			C203.1,456.3,202.4,456.2,201.7,456.2z"/>
		<path d="M209.8,455.1h1.4v5c0,1.2,0.1,2,0.2,2.5c0.2,0.7,0.6,1.2,1.1,1.5c0.6,0.4,1.2,0.6,2,0.6s1.4-0.2,1.9-0.6
			c0.5-0.4,0.9-0.9,1.1-1.5c0.1-0.4,0.2-1.3,0.2-2.6v-5h1.4v5.2c0,1.5-0.2,2.6-0.5,3.3s-0.9,1.3-1.5,1.7s-1.5,0.6-2.6,0.6
			s-1.9-0.2-2.6-0.6s-1.2-1-1.6-1.8s-0.5-1.9-0.5-3.4V455.1z"/>
		<path d="M222.7,450.7c0.3,0,0.6,0.1,0.8,0.3c0.2,0.2,0.3,0.5,0.3,0.8c0,0.3-0.1,0.6-0.3,0.8c-0.2,0.2-0.5,0.3-0.8,0.3
			c-0.3,0-0.6-0.1-0.8-0.3c-0.2-0.2-0.3-0.5-0.3-0.8c0-0.3,0.1-0.6,0.3-0.8C222.1,450.8,222.4,450.7,222.7,450.7z M222,455.1h1.4
			v10.6H222V455.1z"/>
		<path d="M226.2,455.1h1.4v1.9c0.5-0.7,1.2-1.3,1.8-1.6s1.4-0.5,2.2-0.5c0.8,0,1.5,0.2,2.1,0.6c0.6,0.4,1.1,0.9,1.4,1.6
			s0.4,1.7,0.4,3.2v5.5h-1.4v-5.1c0-1.2-0.1-2-0.2-2.5c-0.2-0.7-0.5-1.2-0.9-1.6c-0.4-0.4-1-0.5-1.8-0.5c-0.8,0-1.6,0.3-2.2,0.8
			s-1.1,1.2-1.3,2c-0.1,0.5-0.2,1.5-0.2,2.9v3.9h-1.4V455.1z"/>
		<path d="M249,455.1v10.6h-1.3v-1.8c-0.6,0.7-1.2,1.2-1.9,1.6s-1.5,0.5-2.3,0.5c-1.5,0-2.8-0.5-3.9-1.6c-1.1-1.1-1.6-2.4-1.6-4
			c0-1.5,0.5-2.8,1.6-3.9c1.1-1.1,2.4-1.6,3.9-1.6c0.9,0,1.7,0.2,2.4,0.6c0.7,0.4,1.3,0.9,1.9,1.7v-2H249z M243.5,456.2
			c-0.8,0-1.5,0.2-2.1,0.6c-0.6,0.4-1.2,0.9-1.5,1.6c-0.4,0.7-0.6,1.4-0.6,2.1c0,0.7,0.2,1.5,0.6,2.1c0.4,0.7,0.9,1.2,1.5,1.6
			s1.3,0.6,2.1,0.6c0.7,0,1.5-0.2,2.1-0.6s1.2-0.9,1.5-1.5c0.4-0.6,0.5-1.4,0.5-2.2c0-1.2-0.4-2.3-1.2-3.1
			C245.7,456.6,244.7,456.2,243.5,456.2z"/>
		<path d="M251.8,451h1.4v14.7h-1.4V451z"/>
		<path d="M261.4,451h1.4v14.7h-1.4V451z"/>
		<path d="M266.1,450.7c0.3,0,0.6,0.1,0.8,0.3c0.2,0.2,0.3,0.5,0.3,0.8c0,0.3-0.1,0.6-0.3,0.8c-0.2,0.2-0.5,0.3-0.8,0.3
			c-0.3,0-0.6-0.1-0.8-0.3c-0.2-0.2-0.3-0.5-0.3-0.8c0-0.3,0.1-0.6,0.3-0.8C265.5,450.8,265.8,450.7,266.1,450.7z M265.4,455.1h1.4
			v10.6h-1.4V455.1z"/>
		<path d="M278.8,455.1h1.4v8.5c0,1.5-0.1,2.6-0.4,3.3c-0.4,1-1,1.7-1.9,2.3s-2,0.8-3.2,0.8c-0.9,0-1.7-0.1-2.5-0.4s-1.3-0.6-1.8-1
			s-0.9-1.1-1.3-1.9h1.5c0.4,0.7,0.9,1.2,1.6,1.6c0.6,0.3,1.4,0.5,2.4,0.5c0.9,0,1.7-0.2,2.4-0.5c0.6-0.3,1.1-0.8,1.4-1.3
			c0.3-0.5,0.4-1.4,0.4-2.5v-0.5c-0.5,0.7-1.1,1.2-1.9,1.5c-0.7,0.3-1.5,0.5-2.4,0.5c-1,0-1.9-0.2-2.8-0.7c-0.9-0.5-1.5-1.1-2-2
			c-0.5-0.8-0.7-1.7-0.7-2.7c0-1,0.2-1.9,0.7-2.7c0.5-0.8,1.2-1.5,2-2c0.9-0.5,1.8-0.7,2.7-0.7c0.8,0,1.5,0.2,2.2,0.5
			c0.7,0.3,1.4,0.9,2,1.6V455.1z M274.7,456.2c-0.8,0-1.5,0.2-2.2,0.6c-0.7,0.4-1.2,0.9-1.6,1.6c-0.4,0.7-0.6,1.4-0.6,2.1
			c0,1.2,0.4,2.1,1.2,2.9s1.8,1.1,3,1.1c1.3,0,2.3-0.4,3-1.1c0.8-0.8,1.1-1.7,1.1-3c0-0.8-0.2-1.5-0.5-2.1c-0.4-0.6-0.8-1.1-1.5-1.5
			C276.2,456.3,275.5,456.2,274.7,456.2z"/>
		<path d="M293.6,455.1v10.6h-1.3v-1.8c-0.6,0.7-1.2,1.2-1.9,1.6s-1.5,0.5-2.3,0.5c-1.5,0-2.8-0.5-3.9-1.6c-1.1-1.1-1.6-2.4-1.6-4
			c0-1.5,0.5-2.8,1.6-3.9c1.1-1.1,2.4-1.6,3.9-1.6c0.9,0,1.7,0.2,2.4,0.6s1.3,0.9,1.9,1.7v-2H293.6z M288.2,456.2
			c-0.8,0-1.5,0.2-2.1,0.6c-0.6,0.4-1.2,0.9-1.5,1.6c-0.4,0.7-0.6,1.4-0.6,2.1c0,0.7,0.2,1.5,0.6,2.1s0.9,1.2,1.5,1.6
			c0.6,0.4,1.3,0.6,2.1,0.6c0.7,0,1.5-0.2,2.1-0.6c0.7-0.4,1.2-0.9,1.5-1.5c0.4-0.6,0.5-1.4,0.5-2.2c0-1.2-0.4-2.3-1.2-3.1
			S289.4,456.2,288.2,456.2z"/>
		<path d="M296.7,455.1h1.4v1.8c0.5-0.7,1-1.2,1.5-1.5c0.7-0.4,1.4-0.6,2.2-0.6c0.5,0,1,0.1,1.5,0.3c0.5,0.2,0.8,0.5,1.1,0.8
			c0.3,0.3,0.5,0.8,0.8,1.4c0.5-0.8,1-1.5,1.7-1.9c0.7-0.4,1.4-0.6,2.2-0.6c0.7,0,1.4,0.2,1.9,0.6s1,0.9,1.3,1.6s0.4,1.7,0.4,3v5.8
			h-1.4v-5.8c0-1.1-0.1-1.9-0.2-2.3c-0.2-0.4-0.4-0.8-0.8-1c-0.4-0.3-0.9-0.4-1.4-0.4c-0.7,0-1.3,0.2-1.8,0.6
			c-0.5,0.4-0.9,0.9-1.2,1.6c-0.3,0.7-0.4,1.7-0.4,3.3v4.2h-1.4v-5.4c0-1.3-0.1-2.2-0.2-2.6s-0.4-0.8-0.8-1.1
			c-0.4-0.3-0.9-0.4-1.4-0.4c-0.6,0-1.2,0.2-1.8,0.6s-1,0.9-1.2,1.5s-0.4,1.6-0.4,3v4.5h-1.4V455.1z"/>
		<path d="M324.4,462.2l1.2,0.6c-0.4,0.7-0.8,1.3-1.3,1.8c-0.5,0.5-1.1,0.8-1.7,1c-0.6,0.2-1.3,0.4-2.1,0.4c-1.7,0-3.1-0.6-4.1-1.7
			c-1-1.1-1.5-2.4-1.5-3.9c0-1.3,0.4-2.5,1.2-3.6c1-1.3,2.5-2,4.2-2c1.8,0,3.3,0.7,4.3,2.1c0.8,1,1.2,2.2,1.2,3.6h-9.6
			c0,1.2,0.4,2.2,1.2,3s1.7,1.2,2.8,1.2c0.5,0,1.1-0.1,1.6-0.3c0.5-0.2,0.9-0.4,1.3-0.7C323.6,463.4,324,462.9,324.4,462.2z
			 M324.4,459.3c-0.2-0.7-0.4-1.3-0.8-1.7c-0.3-0.4-0.8-0.8-1.4-1.1c-0.6-0.3-1.2-0.4-1.8-0.4c-1,0-1.9,0.3-2.7,1
			c-0.5,0.5-1,1.2-1.2,2.2H324.4z"/>
		<path d="M328.5,455.1h1.4v1.9c0.5-0.7,1.2-1.3,1.8-1.6s1.4-0.5,2.2-0.5c0.8,0,1.5,0.2,2.1,0.6c0.6,0.4,1.1,0.9,1.4,1.6
			s0.4,1.7,0.4,3.2v5.5h-1.4v-5.1c0-1.2-0.1-2-0.2-2.5c-0.2-0.7-0.5-1.2-0.9-1.6c-0.4-0.4-1-0.5-1.8-0.5c-0.8,0-1.6,0.3-2.2,0.8
			s-1.1,1.2-1.3,2c-0.1,0.5-0.2,1.5-0.2,2.9v3.9h-1.4V455.1z"/>
		<path d="M341.9,451.2h1.4v3.9h2.2v1.2h-2.2v9.4h-1.4v-9.4H340v-1.2h1.9V451.2z"/>
	</g>
	<g>
		<path d="M18.5,128H20v14.4h-1.4V128z"/>
		<path d="M23,131.8h1.4v1.9c0.5-0.7,1.2-1.3,1.8-1.6s1.4-0.5,2.2-0.5c0.8,0,1.5,0.2,2.1,0.6s1.1,0.9,1.4,1.6
			c0.3,0.7,0.4,1.7,0.4,3.2v5.5h-1.4v-5.1c0-1.2-0.1-2-0.2-2.5c-0.2-0.7-0.5-1.2-0.9-1.6s-1-0.5-1.8-0.5c-0.8,0-1.6,0.3-2.2,0.8
			s-1.1,1.2-1.3,2c-0.1,0.5-0.2,1.5-0.2,2.9v3.9H23V131.8z"/>
		<path d="M36.4,127.8h1.4v3.9H40v1.2h-2.2v9.4h-1.4V133h-1.9v-1.2h1.9V127.8z"/>
		<path d="M51,138.9l1.2,0.6c-0.4,0.7-0.8,1.3-1.3,1.8s-1.1,0.8-1.7,1s-1.3,0.4-2.1,0.4c-1.7,0-3.1-0.6-4.1-1.7s-1.5-2.4-1.5-3.9
			c0-1.3,0.4-2.5,1.2-3.6c1-1.3,2.5-2,4.2-2c1.8,0,3.3,0.7,4.3,2.1c0.8,1,1.2,2.2,1.2,3.6h-9.6c0,1.2,0.4,2.2,1.2,3
			c0.8,0.8,1.7,1.2,2.8,1.2c0.5,0,1.1-0.1,1.6-0.3c0.5-0.2,0.9-0.4,1.3-0.7C50.2,140.1,50.5,139.6,51,138.9z M51,136
			c-0.2-0.7-0.4-1.3-0.8-1.7s-0.8-0.8-1.4-1.1c-0.6-0.3-1.2-0.4-1.8-0.4c-1,0-1.9,0.3-2.7,1c-0.5,0.5-1,1.2-1.2,2.2H51z"/>
		<path d="M54.5,131.8h1.4v1.6c0.4-0.6,0.9-1.1,1.3-1.4s0.9-0.5,1.4-0.5c0.4,0,0.8,0.1,1.2,0.4l-0.7,1.2c-0.3-0.1-0.5-0.2-0.7-0.2
			c-0.5,0-0.9,0.2-1.3,0.6s-0.7,1-1,1.7c-0.2,0.6-0.3,1.8-0.3,3.7v3.6h-1.4V131.8z"/>
		<path d="M61,131.8h1.4v1.9c0.5-0.7,1.2-1.3,1.8-1.6c0.7-0.4,1.4-0.5,2.2-0.5c0.8,0,1.5,0.2,2.1,0.6s1.1,0.9,1.4,1.6
			s0.4,1.7,0.4,3.2v5.5h-1.4v-5.1c0-1.2-0.1-2-0.2-2.5c-0.2-0.7-0.5-1.2-0.9-1.6s-1-0.5-1.8-0.5c-0.8,0-1.6,0.3-2.2,0.8
			c-0.7,0.5-1.1,1.2-1.3,2c-0.1,0.5-0.2,1.5-0.2,2.9v3.9H61V131.8z"/>
		<path d="M83.8,131.8v10.6h-1.3v-1.8c-0.6,0.7-1.2,1.2-1.9,1.6s-1.5,0.5-2.3,0.5c-1.5,0-2.8-0.5-3.9-1.6s-1.6-2.4-1.6-4
			c0-1.5,0.5-2.8,1.6-3.9s2.4-1.6,3.9-1.6c0.9,0,1.7,0.2,2.4,0.6s1.3,0.9,1.9,1.7v-2H83.8z M78.4,132.8c-0.8,0-1.5,0.2-2.1,0.6
			c-0.6,0.4-1.2,0.9-1.5,1.6c-0.4,0.7-0.6,1.4-0.6,2.1c0,0.7,0.2,1.5,0.6,2.1s0.9,1.2,1.5,1.6c0.6,0.4,1.3,0.6,2.1,0.6
			c0.7,0,1.5-0.2,2.1-0.6c0.7-0.4,1.2-0.9,1.5-1.5c0.4-0.6,0.5-1.4,0.5-2.2c0-1.2-0.4-2.3-1.2-3.1C80.5,133.2,79.5,132.8,78.4,132.8
			z"/>
		<path d="M86.7,127.7h1.4v14.7h-1.4V127.7z"/>
		<path d="M101.5,131.5c1.6,0,3,0.6,4.1,1.8c1,1.1,1.5,2.4,1.5,3.8c0,1.5-0.5,2.8-1.6,3.9c-1,1.1-2.4,1.7-4,1.7c-1.6,0-3-0.6-4-1.7
			c-1-1.1-1.6-2.4-1.6-3.9c0-1.5,0.5-2.7,1.5-3.8C98.5,132.1,99.8,131.5,101.5,131.5z M101.5,132.8c-1.1,0-2.1,0.4-2.9,1.3
			c-0.8,0.8-1.2,1.9-1.2,3c0,0.8,0.2,1.5,0.6,2.1s0.9,1.2,1.5,1.5c0.6,0.4,1.3,0.5,2.1,0.5s1.5-0.2,2.1-0.5s1.1-0.9,1.5-1.5
			s0.6-1.4,0.6-2.1c0-1.2-0.4-2.2-1.2-3C103.6,133.3,102.6,132.8,101.5,132.8z"/>
		<path d="M109.6,142.4v-14.7h1.4v5.9c0.6-0.7,1.2-1.2,1.9-1.6s1.5-0.5,2.3-0.5c1.5,0,2.8,0.5,3.8,1.6c1.1,1.1,1.6,2.4,1.6,4
			c0,1.5-0.5,2.8-1.6,3.9c-1.1,1.1-2.4,1.6-3.9,1.6c-0.9,0-1.6-0.2-2.4-0.6s-1.3-0.9-1.9-1.7v2H109.6z M115.1,141.4
			c0.8,0,1.5-0.2,2.1-0.6s1.2-0.9,1.5-1.6s0.6-1.4,0.6-2.1s-0.2-1.5-0.6-2.2c-0.4-0.7-0.9-1.2-1.5-1.6s-1.3-0.6-2.1-0.6
			c-0.7,0-1.5,0.2-2.1,0.6s-1.2,0.9-1.5,1.5s-0.5,1.4-0.5,2.2c0,1.2,0.4,2.3,1.2,3.1S113.9,141.4,115.1,141.4z"/>
		<path d="M123,127.7h1.4v14.7H123V127.7z"/>
		<path d="M127.7,127.4c0.3,0,0.6,0.1,0.8,0.3c0.2,0.2,0.3,0.5,0.3,0.8c0,0.3-0.1,0.6-0.3,0.8c-0.2,0.2-0.5,0.3-0.8,0.3
			c-0.3,0-0.6-0.1-0.8-0.3c-0.2-0.2-0.3-0.5-0.3-0.8c0-0.3,0.1-0.6,0.3-0.8C127.1,127.5,127.3,127.4,127.7,127.4z M127,131.8h1.4
			v10.6H127V131.8z"/>
		<path d="M141.8,131.8v14.5h-1.3v-5.7c-0.6,0.7-1.2,1.2-1.9,1.6s-1.5,0.5-2.3,0.5c-1.5,0-2.8-0.5-3.9-1.6s-1.6-2.4-1.6-4
			c0-1.5,0.5-2.8,1.6-3.9s2.4-1.6,3.9-1.6c0.9,0,1.7,0.2,2.4,0.6s1.3,0.9,1.9,1.7v-2H141.8z M136.3,132.8c-0.8,0-1.5,0.2-2.1,0.6
			c-0.6,0.4-1.2,0.9-1.5,1.6c-0.4,0.7-0.6,1.4-0.6,2.1c0,0.7,0.2,1.5,0.6,2.1s0.9,1.2,1.5,1.6c0.6,0.4,1.3,0.6,2.1,0.6
			c0.7,0,1.5-0.2,2.1-0.6c0.7-0.4,1.2-0.9,1.5-1.5c0.4-0.6,0.5-1.4,0.5-2.2c0-1.2-0.4-2.3-1.2-3.1
			C138.5,133.2,137.5,132.8,136.3,132.8z"/>
		<path d="M144.6,131.8h1.4v5c0,1.2,0.1,2,0.2,2.5c0.2,0.7,0.6,1.2,1.1,1.5s1.2,0.6,2,0.6s1.4-0.2,1.9-0.6s0.9-0.9,1.1-1.5
			c0.1-0.4,0.2-1.3,0.2-2.6v-5h1.4v5.2c0,1.5-0.2,2.6-0.5,3.3s-0.9,1.3-1.5,1.7s-1.5,0.6-2.6,0.6s-1.9-0.2-2.6-0.6s-1.2-1-1.6-1.8
			s-0.5-1.9-0.5-3.4V131.8z"/>
		<path d="M165.9,138.9l1.2,0.6c-0.4,0.7-0.8,1.3-1.3,1.8s-1.1,0.8-1.7,1s-1.3,0.4-2.1,0.4c-1.7,0-3.1-0.6-4.1-1.7s-1.5-2.4-1.5-3.9
			c0-1.3,0.4-2.5,1.2-3.6c1-1.3,2.5-2,4.2-2c1.8,0,3.3,0.7,4.3,2.1c0.8,1,1.2,2.2,1.2,3.6h-9.6c0,1.2,0.4,2.2,1.2,3
			c0.8,0.8,1.7,1.2,2.8,1.2c0.5,0,1.1-0.1,1.6-0.3c0.5-0.2,0.9-0.4,1.3-0.7C165.1,140.1,165.5,139.6,165.9,138.9z M165.9,136
			c-0.2-0.7-0.4-1.3-0.8-1.7s-0.8-0.8-1.4-1.1c-0.6-0.3-1.2-0.4-1.8-0.4c-1,0-1.9,0.3-2.7,1c-0.5,0.5-1,1.2-1.2,2.2H165.9z"/>
	</g>
	<g>
		<path d="M16.1,58.7h8.2v1.4h-6.8v4.5h6.7V66h-6.7v5.6h6.7v1.4h-8.2V58.7z"/>
		<path d="M25.4,62.4H27l2.8,3.9l2.8-3.9h1.6l-3.6,5l4.1,5.6h-1.7l-3.2-4.5l-3.2,4.5H25l4-5.6L25.4,62.4z"/>
		<path d="M37.4,58.5h1.4v3.9h2.2v1.2h-2.2v9.4h-1.4v-9.4h-1.9v-1.2h1.9V58.5z"/>
		<path d="M51.9,69.5l1.2,0.6c-0.4,0.7-0.8,1.3-1.3,1.8s-1.1,0.8-1.7,1s-1.3,0.4-2.1,0.4c-1.7,0-3.1-0.6-4.1-1.7s-1.5-2.4-1.5-3.9
			c0-1.3,0.4-2.5,1.2-3.6c1-1.3,2.5-2,4.2-2c1.8,0,3.3,0.7,4.3,2.1c0.8,1,1.2,2.2,1.2,3.6h-9.6c0,1.2,0.4,2.2,1.2,3
			c0.8,0.8,1.7,1.2,2.8,1.2c0.5,0,1.1-0.1,1.6-0.3c0.5-0.2,0.9-0.4,1.3-0.7C51.1,70.7,51.5,70.2,51.9,69.5z M51.9,66.7
			c-0.2-0.7-0.4-1.3-0.8-1.7s-0.8-0.8-1.4-1.1c-0.6-0.3-1.2-0.4-1.8-0.4c-1,0-1.9,0.3-2.7,1c-0.5,0.5-1,1.2-1.2,2.2H51.9z"/>
		<path d="M55.4,62.4h1.4V64c0.4-0.6,0.9-1.1,1.3-1.4s0.9-0.5,1.4-0.5c0.4,0,0.8,0.1,1.2,0.4l-0.7,1.2c-0.3-0.1-0.5-0.2-0.7-0.2
			c-0.5,0-0.9,0.2-1.3,0.6c-0.4,0.4-0.7,1-1,1.7c-0.2,0.6-0.3,1.8-0.3,3.7v3.6h-1.4V62.4z"/>
		<path d="M62,62.4h1.4v1.9c0.5-0.7,1.2-1.3,1.8-1.6s1.4-0.5,2.2-0.5c0.8,0,1.5,0.2,2.1,0.6s1.1,0.9,1.4,1.6
			c0.3,0.7,0.4,1.7,0.4,3.2v5.5h-1.4V68c0-1.2-0.1-2-0.2-2.5c-0.2-0.7-0.5-1.2-0.9-1.6c-0.4-0.4-1-0.5-1.8-0.5
			c-0.8,0-1.6,0.3-2.2,0.8c-0.7,0.5-1.1,1.2-1.3,2c-0.1,0.5-0.2,1.5-0.2,2.9v3.9H62V62.4z"/>
		<path d="M84.8,62.4v10.6h-1.3v-1.8c-0.6,0.7-1.2,1.2-1.9,1.6s-1.5,0.5-2.3,0.5c-1.5,0-2.8-0.5-3.9-1.6s-1.6-2.4-1.6-4
			c0-1.5,0.5-2.8,1.6-3.9c1.1-1.1,2.4-1.6,3.9-1.6c0.9,0,1.7,0.2,2.4,0.6s1.3,0.9,1.9,1.7v-2H84.8z M79.3,63.5
			c-0.8,0-1.5,0.2-2.1,0.6c-0.6,0.4-1.2,0.9-1.5,1.6c-0.4,0.7-0.6,1.4-0.6,2.1c0,0.7,0.2,1.5,0.6,2.1s0.9,1.2,1.5,1.6
			c0.6,0.4,1.3,0.6,2.1,0.6c0.7,0,1.5-0.2,2.1-0.6c0.7-0.4,1.2-0.9,1.5-1.5c0.4-0.6,0.5-1.4,0.5-2.2c0-1.2-0.4-2.3-1.2-3.1
			C81.5,63.9,80.5,63.5,79.3,63.5z"/>
		<path d="M87.6,58.3H89v14.7h-1.4V58.3z"/>
		<path d="M102.4,62.2c1.6,0,3,0.6,4.1,1.8c1,1.1,1.5,2.4,1.5,3.8c0,1.5-0.5,2.8-1.6,3.9c-1,1.1-2.4,1.7-4,1.7c-1.6,0-3-0.6-4-1.7
			c-1-1.1-1.6-2.4-1.6-3.9c0-1.5,0.5-2.7,1.5-3.8C99.4,62.8,100.8,62.2,102.4,62.2z M102.4,63.5c-1.1,0-2.1,0.4-2.9,1.3
			c-0.8,0.8-1.2,1.9-1.2,3c0,0.8,0.2,1.5,0.6,2.1s0.9,1.2,1.5,1.5c0.6,0.4,1.3,0.5,2.1,0.5s1.5-0.2,2.1-0.5s1.1-0.9,1.5-1.5
			s0.6-1.4,0.6-2.1c0-1.2-0.4-2.2-1.2-3C104.5,63.9,103.5,63.5,102.4,63.5z"/>
		<path d="M110.6,73.1V58.3h1.4v5.9c0.6-0.7,1.2-1.2,1.9-1.6s1.5-0.5,2.3-0.5c1.5,0,2.8,0.5,3.8,1.6c1.1,1.1,1.6,2.4,1.6,4
			c0,1.5-0.5,2.8-1.6,3.9c-1.1,1.1-2.4,1.6-3.9,1.6c-0.9,0-1.6-0.2-2.4-0.6s-1.3-0.9-1.9-1.7v2H110.6z M116,72
			c0.8,0,1.5-0.2,2.1-0.6s1.2-0.9,1.5-1.6s0.6-1.4,0.6-2.1s-0.2-1.5-0.6-2.2c-0.4-0.7-0.9-1.2-1.5-1.6c-0.6-0.4-1.3-0.6-2.1-0.6
			c-0.7,0-1.5,0.2-2.1,0.6c-0.7,0.4-1.2,0.9-1.5,1.5s-0.5,1.4-0.5,2.2c0,1.2,0.4,2.3,1.2,3.1S114.8,72,116,72z"/>
		<path d="M123.9,58.3h1.4v14.7h-1.4V58.3z"/>
		<path d="M128.6,58.1c0.3,0,0.6,0.1,0.8,0.3c0.2,0.2,0.3,0.5,0.3,0.8c0,0.3-0.1,0.6-0.3,0.8c-0.2,0.2-0.5,0.3-0.8,0.3
			c-0.3,0-0.6-0.1-0.8-0.3c-0.2-0.2-0.3-0.5-0.3-0.8c0-0.3,0.1-0.6,0.3-0.8C128,58.2,128.3,58.1,128.6,58.1z M127.9,62.4h1.4v10.6
			h-1.4V62.4z"/>
		<path d="M142.7,62.4V77h-1.3v-5.7c-0.6,0.7-1.2,1.2-1.9,1.6s-1.5,0.5-2.3,0.5c-1.5,0-2.8-0.5-3.9-1.6s-1.6-2.4-1.6-4
			c0-1.5,0.5-2.8,1.6-3.9c1.1-1.1,2.4-1.6,3.9-1.6c0.9,0,1.7,0.2,2.4,0.6s1.3,0.9,1.9,1.7v-2H142.7z M137.2,63.5
			c-0.8,0-1.5,0.2-2.1,0.6c-0.6,0.4-1.2,0.9-1.5,1.6c-0.4,0.7-0.6,1.4-0.6,2.1c0,0.7,0.2,1.5,0.6,2.1s0.9,1.2,1.5,1.6
			c0.6,0.4,1.3,0.6,2.1,0.6c0.7,0,1.5-0.2,2.1-0.6c0.7-0.4,1.2-0.9,1.5-1.5c0.4-0.6,0.5-1.4,0.5-2.2c0-1.2-0.4-2.3-1.2-3.1
			C139.4,63.9,138.4,63.5,137.2,63.5z"/>
		<path d="M145.6,62.4h1.4v5c0,1.2,0.1,2,0.2,2.5c0.2,0.7,0.6,1.2,1.1,1.5s1.2,0.6,2,0.6s1.4-0.2,1.9-0.6s0.9-0.9,1.1-1.5
			c0.1-0.4,0.2-1.3,0.2-2.6v-5h1.4v5.2c0,1.5-0.2,2.6-0.5,3.3s-0.9,1.3-1.5,1.7s-1.5,0.6-2.6,0.6s-1.9-0.2-2.6-0.6s-1.2-1-1.6-1.8
			s-0.5-1.9-0.5-3.4V62.4z"/>
		<path d="M166.9,69.5l1.2,0.6c-0.4,0.7-0.8,1.3-1.3,1.8s-1.1,0.8-1.7,1s-1.3,0.4-2.1,0.4c-1.7,0-3.1-0.6-4.1-1.7s-1.5-2.4-1.5-3.9
			c0-1.3,0.4-2.5,1.2-3.6c1-1.3,2.5-2,4.2-2c1.8,0,3.3,0.7,4.3,2.1c0.8,1,1.2,2.2,1.2,3.6h-9.6c0,1.2,0.4,2.2,1.2,3
			c0.8,0.8,1.7,1.2,2.8,1.2c0.5,0,1.1-0.1,1.6-0.3c0.5-0.2,0.9-0.4,1.3-0.7C166.1,70.7,166.4,70.2,166.9,69.5z M166.9,66.7
			c-0.2-0.7-0.4-1.3-0.8-1.7s-0.8-0.8-1.4-1.1c-0.6-0.3-1.2-0.4-1.8-0.4c-1,0-1.9,0.3-2.7,1c-0.5,0.5-1,1.2-1.2,2.2H166.9z"/>
	</g>
</g>
<g>
</g>
<g>
</g>
<g>
</g>
<g>
</g>
<g>
</g>
<g>
</g>
</svg>
