<?xml version="1.0" encoding="utf-8"?>
<!-- Generator: Adobe Illustrator 19.2.1, SVG Export Plug-In . SVG Version: 6.00 Build 0)  -->
<svg version="1.1" id="Layer_1" xmlns="http://www.w3.org/2000/svg" xmlns:xlink="http://www.w3.org/1999/xlink" x="0px" y="0px"
	 viewBox="0 0 406.5 316.5" enable-background="new 0 0 406.5 316.5" xml:space="preserve">
<g id="XMLID_1_">
	<g>
		<path fill="#A4D5A8" d="M333.6,205c-1.5,0.3-2.8,0.6-3.8,0.9c-11,3.5-3,7.5-2.5,17.5c0,0-1.4-1-3.3-2.4l0,0
			c-3.7-2.7-9.6-7-11.2-8.6c-2.5-2.5-51-22-61.9-27c-10.9-5-72.6-33-80.1-37.1S83.3,88.9,79.3,85.9c-2.6-1.9-12.6-8.4-19.4-12.8
			c-3.8-2.4-6.6-4.2-6.6-4.2c3.1-0.3,13.1,3.3,12.3-2.5h0.1c0,0,59.2,40,66.2,46.5s117,65,124,67.5c7,2.5,42,15,44,15.5
			s21.9,6.1,33.5,7L333.6,205z"/>
	</g>
	<g>
		<path fill="none" stroke="#000000" stroke-width="2" stroke-miterlimit="10" d="M22.8,16.9c0,0-4.5,15,0,25.5s26,27,30.5,26.5
			c3.1-0.3,13.1,3.3,12.3-2.5c-0.3-2.6-2.9-7.2-9.3-15c-20.5-25-18.2-19-13.1-34.5"/>
		<path fill="none" stroke="#000000" stroke-width="2" stroke-miterlimit="10" d="M337.3,240.9c0,0-9.5-7.5-10-17.5
			s-8.5-14,2.5-17.5c1.1-0.4,2.4-0.6,3.8-0.9c13.1-2.4,38.5-1.6,38.7-1.6c3.6,0.1,7-0.9,10.1-0.4c2.1,0.4,4.1,1.5,5.9,4.1
			c3.8,5.7,1.7,13.5,0.9,19.7c-1.2,9,4.5,19.2,1,27.8c-1.9,4.6-6.3,7.5-10.1,10.7c-10.4,8.8-17.3,20.9-24,32.8"/>
		<path fill="none" stroke="#00A651" stroke-width="2" stroke-miterlimit="10" d="M324,221c1.9,1.4,3.3,2.4,3.3,2.4"/>
		<path fill="none" stroke="#00A651" stroke-width="2" stroke-miterlimit="10" d="M53.3,68.9c0,0,2.8,1.8,6.6,4.2
			c6.8,4.4,16.9,10.9,19.4,12.8c4,3,84,58.3,91.5,62.4s69.2,32.1,80.1,37.1c10.9,5,59.4,24.5,61.9,27c1.6,1.6,7.5,5.9,11.2,8.6"/>
		<path fill="none" stroke="#000000" stroke-miterlimit="10" d="M59.8,73.1c0,0,12.4,22.3,18.4,30.3s51.4,56.6,75.4,70.6
			s48.1,27.6,73.7,32.7c20.9,4.1,95.6,14.2,96.6,14.4l0,0"/>
		<path fill="none" stroke="#00A651" stroke-width="2" stroke-miterlimit="10" d="M382.5,202.6"/>
		<path fill="none" stroke="#00A651" stroke-width="2" stroke-miterlimit="10" d="M65.6,66.4c0,0,59.2,40,66.2,46.5s117,65,124,67.5
			c7,2.5,42,15,44,15.5s21.9,6.1,33.5,7"/>
	</g>
</g>
</svg>
