<?xml version="1.0" encoding="utf-8"?>
<!-- Generator: Adobe Illustrator 21.0.0, SVG Export Plug-In . SVG Version: 6.00 Build 0)  -->
<svg version="1.1" xmlns="http://www.w3.org/2000/svg" xmlns:xlink="http://www.w3.org/1999/xlink" x="0px" y="0px"
	 viewBox="0 0 841.9 595.3" style="enable-background:new 0 0 841.9 595.3;" xml:space="preserve">
<style type="text/css">
	.st0{fill:#BE1E2D;}
	.st1{font-family:'CenturyGothic';}
	.st2{font-size:42px;}
	.st3{fill:none;stroke:#8B5E3C;stroke-width:4;stroke-linecap:round;stroke-miterlimit:10;}
	.st4{fill:none;stroke:#8B5E3C;stroke-width:3;stroke-miterlimit:10;}
	.st5{fill:none;stroke:#8B5E3C;stroke-width:2;stroke-miterlimit:10;}
	.st6{fill:#9B9A7C;}
	.st7{fill:#F9E593;}
	.st8{fill:#BDF4D1;}
	.st9{fill:none;stroke:#000000;stroke-width:0.5;stroke-linecap:round;stroke-linejoin:round;}
	.st10{fill:none;stroke:#4DB748;stroke-width:3;stroke-linecap:round;stroke-miterlimit:10;}
	.st11{fill:none;stroke:#4DB748;stroke-width:3;stroke-miterlimit:10;stroke-dasharray:10,5;}
	.st12{fill:none;stroke:#4DB748;stroke-width:3;stroke-linecap:round;stroke-linejoin:round;stroke-miterlimit:10;}
	.st13{fill:#FFD758;stroke:#1DB04B;stroke-miterlimit:10;}
	.st14{fill:none;stroke:#231F20;stroke-width:2;stroke-linecap:round;stroke-miterlimit:10;}
	.st15{fill:#F9E593;stroke:#4DB748;stroke-miterlimit:10;}
	.st16{font-family:'CenturySchoolbook';}
	.st17{font-size:24px;}
</style>
<g id="Layer_1">
	<g id="Layer_2">
		<text transform="matrix(1 0 0 1 57.3306 93.7977)" class="st0 st1 st2">Interior of second part of duodenum</text>
		<path class="st3" d="M516.3,204.5c0,0-110-73-161-47s-153,75-128,215s113,164,214,134c101-30,186.8-78.5,198.8-42.5"/>
		<path class="st4" d="M521.7,207.3c-4.6-2.7-10.3-2.7-14.9-0.2c-13.2,7.1-40.2,26.5-35.2,64.1c6.7,49.3,43.3,17.3,51.3-17.3
			C529.7,224.7,533.1,213.9,521.7,207.3z"/>
		<path class="st5" d="M518,220.2c-3.8-3.1-11.7-5-16-2.6c-9.9,5.5-26.2,21.3-22.5,48.2c4.9,36.2,31.8,12.7,37.7-12.7
			C521.6,233.5,524.1,225.2,518,220.2z"/>
		<path class="st3" d="M482.2,294.7c0,0-69.4-38.2-99.9-34.2s-97.7,61.6-57,122c31,46,61,35,93.5,32c62-5.7,152-79.5,195-63.5
			s79.5,37,84.5,62.5s5.4,33.3,5.4,33.3"/>
		<g>
			<g>
				<path class="st4" d="M703.6,449.1c-0.5-3.7-2.9-6.9-6.3-8.6c-9.4-4.6-31.4-12.1-49.5,6c-23.7,23.7,9.2,31.6,31.2,22.1
					C697.6,460.6,704.9,458.2,703.6,449.1z"/>
			</g>
			<path class="st5" d="M695,452.2c0-3.4-2.3-8.6-5.5-10.1c-7.2-3.4-22.6-6.2-35.5,6.7c-17.4,17.4,6.7,23.2,22.9,16.2
				C689.4,459.6,694.9,457.7,695,452.2z"/>
		</g>
	</g>
</g>
<g id="Layer_2_1_">
	<g>
		<path class="st6" d="M298.2,367.5c0.5,0.5,1.1,0.9,1.8,1.3c0.6,0.4,1.3,0.7,2,1c1.4,0.6,2.8,1.2,4.1,1.5l0.5,0.1
			c0.1,0,0.3,0,0.4,0c0,0,0,0,0.1,0l0.3-0.1l0.5-0.3c0.7-0.3,1.4-0.6,2.2-0.9c0.7-0.3,1.5-0.5,2.4-0.7c0.4-0.1,0.9-0.1,1.4-0.1
			c0.3,0,0.6,0.1,0.9,0.3c0.3,0.2,0.6,0.6,0.7,0.9c0.1,0.4,0.1,0.7,0,0.9c-0.1,0.2-0.1,0.4-0.2,0.7c-0.1,0.4-0.3,0.8-0.5,1.1
			c-0.4,0.7-0.7,1.4-1.1,2.1c-0.8,1.3-1.6,2.6-2.2,4c-0.1,0.3-0.3,0.7-0.3,1c0,0.2-0.1,0.3-0.1,0.5c0,0.1,0,0.4,0,0.5
			c0.1,0.2,0.4,0.4,0.7,0.5c0.3,0.1,0.7,0.2,1.1,0.3c1.5,0.2,3,0.2,4.6,0.3c0.8,0,1.6,0.1,2.3,0.1c0.8,0.1,1.6,0.1,2.5,0.6
			c0.2,0.1,0.5,0.3,0.7,0.6c0.2,0.3,0.3,0.8,0.3,1.1c0,0.4-0.2,0.6-0.2,0.8c-0.1,0.2-0.2,0.4-0.3,0.6c-0.5,0.7-1,1.3-1.5,1.9
			c-1,1.2-2,2.3-3,3.5c-0.9,1.2-1.8,2.3-2.4,3.6c-0.3,0.6-0.5,1.2-0.5,1.8c0,0.6,0.2,1.1,0.5,1.5c0.6,0.9,1.9,1.3,3.4,1.3
			c1.4,0,3-0.2,4.5-0.3c0.8,0,1.6-0.1,2.4,0.2c0.4,0.1,0.8,0.5,1,0.9c0.2,0.4,0.2,0.8,0.1,1.2c0,0.1-0.1,0.1-0.1,0.1
			c0,0-0.1,0-0.1-0.1l0,0c0-0.4-0.1-0.7-0.3-1c-0.2-0.3-0.5-0.4-0.8-0.5c-0.7-0.1-1.4,0-2.1,0.2c-1.5,0.3-3,0.7-4.6,0.9
			c-0.8,0.1-1.7,0.1-2.6-0.1c-0.9-0.2-1.8-0.7-2.4-1.5c-0.6-0.7-1-1.7-1-2.7c0-1,0.2-1.9,0.6-2.7c1.5-3.1,3.9-5.2,5.9-7.4
			c0.5-0.5,1-1.1,1.4-1.7c0.1-0.1,0.2-0.3,0.2-0.4c0.1-0.1,0.1-0.3,0.1-0.3c0,0,0,0,0,0c0,0,0-0.1-0.2-0.2c-0.4-0.3-1.2-0.5-1.9-0.6
			c-0.7-0.2-1.5-0.3-2.2-0.4c-1.5-0.2-3-0.4-4.6-0.7c-0.4-0.1-0.8-0.2-1.2-0.3c-0.4-0.2-0.8-0.3-1-0.9c-0.1-0.5-0.1-0.9,0-1.3
			c0.1-0.4,0.2-0.8,0.3-1.2c0.5-1.5,1.2-2.9,1.8-4.3c0.3-0.7,0.6-1.4,0.8-2.1c0.1-0.3,0.2-0.7,0.3-1l0.1-0.5c0-0.1,0-0.2,0-0.2
			c0,0,0,0.1,0,0c0,0-0.1,0-0.2,0c-0.2,0-0.6,0-0.9,0.1c-0.7,0.1-1.4,0.4-2.1,0.6c-0.7,0.2-1.4,0.5-2.1,0.8l-0.5,0.2l-0.3,0.1
			c-0.2,0-0.3,0.1-0.5,0.1c-0.3,0-0.5,0-0.8,0c-0.2,0-0.4-0.1-0.7-0.1c-1.6-0.5-3-1.3-4.3-2.1c-0.7-0.4-1.3-0.9-1.9-1.4
			c-0.6-0.5-1.2-1-1.6-1.8c0,0,0-0.1,0-0.1C298.1,367.4,298.1,367.4,298.2,367.5L298.2,367.5z"/>
	</g>
	<g>
		<path class="st6" d="M321.9,401.8c0.7-0.6,1.5-1.1,2.4-1.4c0.4-0.2,0.9-0.2,1.4-0.1c0.5,0.1,0.9,0.5,1.2,0.9
			c0.5,0.9,0.5,1.8,0.5,2.8c0,0.9-0.1,1.8-0.3,2.7c-0.6,3.6-2.1,7-2.8,10.4c-0.1,0.8-0.2,1.7,0.1,2.4c0.1,0.3,0.3,0.6,0.6,0.8
			c0.2,0.2,0.6,0.3,1,0.4c1.6,0.4,3.5,0.5,5.2,0.5c3.6,0.1,7.2,0.1,10.8,0.2c1.8,0.1,3.6,0.1,5.4,0.3c0.9,0.1,1.8,0.2,2.8,0.5
			c0.5,0.1,0.9,0.3,1.4,0.5c0.5,0.2,1.1,0.6,1.3,1.4c0,0.2,0.1,0.4,0.1,0.5l0,0.4c0,0.3,0,0.5,0,0.8c0,0.5-0.1,1-0.2,1.4
			c-0.2,0.9-0.4,1.8-0.6,2.7c-0.5,1.8-1.1,3.5-1.7,5.2c-1.3,3.4-2.8,6.7-4.5,9.9c-1.7,3.2-3.6,6.3-5.8,9.2c-2.2,2.9-4.8,5.6-7.8,7.7
			c-1.5,1-3.2,1.9-5,2.4c-1.8,0.5-3.5,0.8-5.3,1.2c-3.6,0.6-7.1,1.1-10.7,1.5c-3.6,0.4-7.2,0.7-10.8,0.9c-3.6,0.2-7.2,0.2-10.8,0.2
			c-3.6,0-7.2-0.2-10.8-0.8c-1.8-0.3-3.6-0.6-5.3-1.3c-0.9-0.3-1.7-0.8-2.5-1.4c-0.8-0.6-1.3-1.6-1.4-2.5c-0.3-2,0.4-3.8,1.2-5.5
			c0.8-1.7,1.8-3.2,2.8-4.7c2-3,4.3-5.8,6.1-8.8c0.5-0.7,0.9-1.5,1.2-2.3c0.3-0.8,0.4-1.5,0.1-1.8c0,0-0.1-0.1-0.1-0.1
			c0,0-0.2-0.1-0.2-0.1l-0.5-0.3c-0.4-0.1-0.7-0.3-1.1-0.3c-0.8-0.1-1.6,0-2.5,0c-1.8,0.1-3.8,0-5.6-0.6c-1.8-0.6-3.5-1.4-5.1-2.4
			l-1.2-0.7l-1.1-0.8c-0.8-0.5-1.5-1.1-2.2-1.7c-1.4-1.1-2.8-2.4-4-3.9c-0.6-0.7-1.1-1.6-1.6-2.5c-0.4-0.9-0.7-2-0.7-3
			c0-1.1,0.4-2.1,0.9-3c0.5-0.9,1.2-1.6,1.8-2.3c2.7-2.6,5.9-4.4,8.4-6.8c0.6-0.6,1.2-1.2,1.6-1.9c0.1-0.2,0.2-0.3,0.3-0.5
			c0.1-0.2,0.2-0.4,0.2-0.5c0.1-0.3,0.1-0.4,0-0.6c-0.1-0.4-0.7-0.9-1.4-1.3c-0.7-0.4-1.5-0.7-2.3-1c-3.3-1.1-6.8-1.8-10.3-2.7
			c-1.8-0.4-3.5-0.9-5.3-1.4c-1.7-0.5-3.5-1.2-5.2-2.1c-0.8-0.5-1.7-1-2.4-1.9c-0.7-0.8-1.2-2-1.1-3.2c0.1-1.2,0.6-2.1,1.2-3
			c0.6-0.8,1.3-1.6,2.2-2.1c1.7-1.1,3.6-1.6,5.4-1.9c1.9-0.3,3.7-0.4,5.5-0.3c3.7,0.1,7.2,0.4,10.8,0.7c3.6,0.3,7.1,0.6,10.7,0.5
			c1.8,0,3.5-0.2,5.3-0.5c1.7-0.3,3.4-0.9,4.9-1.7c1.5-0.9,2.7-2.1,3.6-3.6l2.6-4.7l5.3-9.4c0,0,0.1-0.1,0.1,0c0,0,0.1,0.1,0,0.1
			l-4.9,9.6l-2.4,4.8c-0.8,1.7-2.2,3.1-3.8,4.1c-1.6,1-3.4,1.6-5.2,2c-1.8,0.4-3.6,0.6-5.4,0.7c-3.6,0.2-7.3,0-10.8-0.3
			c-3.6-0.2-7.2-0.5-10.7-0.5c-1.8,0-3.5,0.1-5.2,0.4c-1.7,0.3-3.3,0.8-4.6,1.7c-0.7,0.4-1.2,1-1.6,1.6c-0.5,0.6-0.7,1.4-0.8,2
			c-0.1,1.2,1,2.4,2.5,3.2c1.4,0.8,3.1,1.4,4.8,1.9c1.7,0.5,3.4,0.9,5.2,1.4c3.5,0.8,7,1.5,10.5,2.7c0.9,0.3,1.8,0.7,2.6,1.1
			c0.4,0.2,0.9,0.5,1.3,0.9c0.4,0.4,0.8,0.8,1.1,1.5c0.2,0.7,0.2,1.4,0,2c-0.1,0.3-0.2,0.5-0.4,0.8c-0.1,0.2-0.2,0.5-0.4,0.7
			c-0.6,0.8-1.2,1.6-1.9,2.2c-2.8,2.6-6,4.3-8.4,6.7c-1.2,1.2-2.1,2.5-2.2,4c-0.1,1.4,0.7,3,1.8,4.3c1.1,1.3,2.3,2.5,3.7,3.6
			c0.7,0.6,1.3,1.1,2.1,1.7l1.1,0.8l1.1,0.7c2.9,2,6.1,3.2,9.6,2.9c1.7-0.1,4-0.3,5.7,1.4c0.4,0.5,0.6,1.3,0.5,1.8
			c0,0.6-0.2,1-0.4,1.5c-0.4,0.9-0.9,1.7-1.4,2.5c-2,3.1-4.3,5.8-6.4,8.7c-1,1.5-2,2.9-2.8,4.5c-0.8,1.5-1.4,3.3-1.2,4.9
			c0.1,0.8,0.5,1.5,1.1,2.1c0.6,0.5,1.4,1,2.2,1.3c1.6,0.6,3.4,1,5.1,1.3c7.1,1.1,14.3,1,21.4,0.5c7.2-0.4,14.3-1.3,21.3-2.7
			c1.7-0.4,3.5-0.8,5.2-1.3c1.6-0.5,3.2-1.3,4.6-2.3c2.8-2,5.2-4.7,7.3-7.6c4.2-5.7,7.4-12.1,10-18.7c0.6-1.7,1.2-3.3,1.7-5
			c0.2-0.8,0.5-1.7,0.6-2.5c0.1-0.4,0.1-0.8,0.2-1.2c0-0.2,0-0.4,0-0.6l0-0.3c0-0.1,0-0.1,0-0.2c0-0.3-0.9-0.7-1.6-0.9
			c-0.8-0.2-1.7-0.3-2.5-0.5c-1.7-0.2-3.5-0.3-5.3-0.4c-3.6-0.1-7.2-0.2-10.8-0.4c-1.8-0.1-3.6-0.2-5.5-0.7
			c-0.5-0.2-0.9-0.3-1.4-0.7c-0.4-0.4-0.8-0.9-0.9-1.4c-0.3-1-0.2-2,0-2.9c0.8-3.6,2.4-6.9,3.1-10.3c0.2-0.9,0.3-1.7,0.4-2.6
			c0-0.9,0-1.8-0.4-2.5c-0.2-0.3-0.5-0.7-0.9-0.8c-0.4-0.1-0.8-0.1-1.2,0c-0.8,0.2-1.6,0.7-2.3,1.2l0,0c0,0-0.1,0-0.1,0
			C321.9,401.9,321.9,401.9,321.9,401.8z"/>
	</g>
	<g>
		<path class="st6" d="M295.8,365.5c-1.6,3.8-4.4,7.1-7.9,9.3c-3.5,2.3-7.5,3.7-11.5,4.5c-4.1,0.8-8.2,1.1-12.3,1.1
			c-4.1-0.1-8.2-0.5-12.3-1.1c-2-0.3-4-0.7-6-1.2c-0.5-0.1-1-0.2-1.5-0.4c-0.5-0.2-1-0.3-1.5-0.5c-0.5-0.2-1-0.4-1.4-0.7
			c-0.5-0.3-0.9-0.5-1.3-0.9c-1.7-1.3-2.9-3-3.9-4.9c-0.9-1.9-1.6-3.8-2-5.8c-0.9-4-1.1-8.1-1-12.2c0.1-4.1,0.4-8.2,1.1-12.2
			c0.1-0.3,0.4-0.6,0.7-0.5l0,0l0,0c3.7,0.6,7.4,1.2,11.1,1.7c1.9,0.2,3.7,0.4,5.5,0.6c0.9,0.1,1.8,0.1,2.8,0.1c0.2,0,0.5,0,0.6,0
			c0,0,0.1,0,0,0l-0.1,0l-0.1,0l-0.1,0.1c-0.1,0.1-0.2,0.1-0.2,0.2c0,0.1-0.1,0.2-0.1,0.4c0,0.2,0,0.4,0.1,0.5c0,0,0,0.1,0.1,0.1
			c0.2,0.3,0.2,0.2,0.2,0.2l-0.1-0.1l-1.2-0.6c-1.7-0.8-3.5-1.9-4.9-3.4c-1.4-1.5-2.5-3.5-2.6-5.6c-0.1-2.1,0.5-4.2,1.3-6
			c0.4-0.9,1-1.9,1.9-2.6c0.4-0.4,0.9-0.6,1.4-1c0.5-0.2,1-0.4,1.5-0.6c2.1-0.6,4.1-0.4,6-0.1c1.9,0.3,3.8,0.9,5.6,1.6
			c3.6,1.4,7,3,10.3,4.9c6.6,3.8,12.8,8.1,18.6,12.8c0,0,0,0.1,0,0.1c0,0-0.1,0-0.1,0c-3.1-2.1-6.3-4.1-9.5-6.1
			c-3.2-2-6.4-3.8-9.8-5.5c-3.3-1.7-6.7-3.3-10.2-4.5c-1.7-0.6-3.5-1-5.3-1.3c-1.8-0.3-3.6-0.3-5.1,0.1c-1.6,0.5-2.7,1.5-3.4,3.1
			c-0.7,1.6-1.2,3.3-1.1,4.9c0.1,1.6,0.8,3.2,1.9,4.4c1.2,1.3,2.7,2.2,4.3,3l1.3,0.6l0.2,0.1c0.1,0.1,0.1,0,0.4,0.4
			c0,0.1,0.1,0.1,0.1,0.2c0,0.1,0.1,0.3,0.1,0.5c0,0.2-0.1,0.3-0.2,0.4c-0.1,0.1-0.2,0.2-0.3,0.3c-0.1,0.1-0.1,0.1-0.2,0.1l-0.1,0
			c-0.1,0-0.1,0-0.2,0c-0.2,0-0.2,0-0.3,0c-0.3,0-0.5,0-0.8,0c-1,0-1.9-0.1-2.9-0.2c-1.9-0.2-3.8-0.4-5.6-0.7
			c-3.7-0.6-7.4-1.3-11.1-2.1l0.7-0.5c-1.6,7.8-2.4,16.1-0.7,24.1c0.5,2,1.1,3.9,2,5.6c0.9,1.8,2.2,3.3,3.8,4.4
			c0.4,0.3,0.8,0.5,1.2,0.8c0.4,0.3,0.9,0.4,1.3,0.6c0.4,0.2,0.9,0.3,1.4,0.4c0.5,0.1,1,0.2,1.5,0.3c2,0.3,4,0.6,6,0.9
			c8,0.9,16.1,1.5,24,0.1c2-0.4,3.9-0.8,5.8-1.4c1.9-0.6,3.7-1.4,5.4-2.5c1.7-1,3.3-2.2,4.7-3.7c1.4-1.4,2.6-3.1,3.6-4.8
			c0,0,0.1-0.1,0.1,0C295.8,365.4,295.9,365.4,295.8,365.5z"/>
	</g>
	<g>
		<path class="st6" d="M296.9,340.7c-2.6-2.1-5.2-4.2-7.5-6.7c-1.2-1.2-2.3-2.5-3.2-4c-0.2-0.4-0.4-0.8-0.5-1.3c0-0.2-0.1-0.5,0-0.8
			c0-0.3,0.2-0.6,0.4-0.8c0.7-0.7,1.6-1,2.4-1.4c3.2-1.2,6.5-1.9,9.7-2.7c1.6-0.4,3.2-0.9,4.7-1.4c0.7-0.3,1.5-0.6,1.9-1
			c0.1-0.1,0.1-0.2,0.1-0.2c0,0,0,0,0,0l0-0.1l0-0.2c0-0.1-0.1-0.3-0.2-0.5c-0.1-0.2-0.1-0.3-0.2-0.5c-0.7-1.4-1.7-2.8-2.6-4.2
			c-0.9-1.4-1.8-2.8-2.7-4.3c-0.8-1.5-1.6-3.1-1.9-4.9c-0.2-0.9-0.2-1.9,0-2.9c0.1-0.5,0.4-1,0.7-1.5c0.3-0.4,0.8-0.8,1.2-1
			c0.9-0.5,1.8-0.7,2.7-0.9c0.9-0.1,1.7-0.2,2.6-0.3c1.7-0.1,3.4-0.1,5-0.2c1.6-0.1,3.3-0.2,4.8-0.5c1.6-0.3,3.1-0.8,4.3-1.7
			c0.6-0.4,1.2-0.9,1.7-1.6l0.4-0.4l0.3-0.5l0.3-0.5l0.2-0.5c0.6-1.3,0-2.7-0.8-4.1c-0.4-0.7-0.8-1.5-1.1-2.3
			c-0.3-0.9-0.6-1.8-0.5-2.7c0-0.9,0.3-1.8,0.7-2.6c0.4-0.8,0.9-1.6,1.5-2.2c0.3-0.4,0.7-0.6,1.1-0.9c0.4-0.3,0.8-0.4,1.2-0.6
			c0.9-0.3,1.7-0.5,2.6-0.5c1.7-0.1,3.4,0,5.1,0c1.7,0,3.3,0.1,4.9-0.3c0.8-0.2,1.6-0.3,2.3-0.6c0.8-0.2,1.4-0.6,1.3-1.3
			c-0.1-0.7-0.5-1.4-1-2c-0.5-0.6-1.1-1.2-1.7-1.8c-1.2-1.1-2.5-2.2-3.8-3.1c-2.7-1.9-5.6-3.6-8.5-5.2c-5.9-3-12.2-5.5-18.7-6.5
			c-1.6-0.2-3.3-0.3-4.9-0.2c-0.8,0.1-1.6,0.2-2.4,0.4c-0.8,0.2-1.6,0.4-2.5,0.6c-3.3,0.7-6.7,1-10,1.3c-6.7,0.6-13.4,0.9-20,1.5
			c-3.3,0.3-6.6,0.7-9.9,1.2c-3.2,0.6-6.5,1.3-9.4,2.6c-1.4,0.7-2.7,1.5-3.5,2.7c-0.4,0.6-0.6,1.2-0.7,1.8c0,0.3,0,0.7,0,1l0.1,0.5
			l0.1,0.6c0.6,3.3,1.4,6.5,2.1,9.8c0.7,3.3,1.4,6.6,1.8,10c0.1,0.9,0.1,1.7,0.1,2.6c-0.1,0.9-0.2,1.9-0.7,2.8
			c-0.2,0.5-0.6,1-1.2,1.3c-0.5,0.3-1.1,0.5-1.7,0.5c-1.1,0.1-2.1-0.3-2.7-0.4c-1.4-0.3-2.7,0.1-3.3,1.3c-0.6,1.1-0.5,2.7,0.1,4
			c0.6,1.3,1.7,2.3,3.1,2.6c0.3,0.1,0.7,0.1,1.1,0.2c0.4,0,0.9,0,1.3,0.1c0.5,0,0.9,0.1,1.4,0.3c0.1,0,0.3,0.1,0.4,0.2
			c0.1,0.1,0.3,0.2,0.4,0.3c0.3,0.2,0.5,0.8,0.5,1.2c-0.1,0.8-0.5,1.2-0.8,1.6c-0.3,0.4-0.7,0.7-1,1c-0.7,0.6-1.4,1.1-2.1,1.5
			c-1.5,0.9-2.9,1.7-4.5,2.4c-0.8,0.4-1.6,0.7-1.9,1c-0.1,0.1-0.1,0.1-0.1,0.1c0,0,0,0.1,0.1,0.2c0.1,0.3,0.4,0.5,0.7,0.8
			c0.6,0.6,1.2,1.2,1.7,2.1c0.5,0.9,0.5,2.1,0.1,2.9c-0.9,1.7-2.3,2.8-3.7,3.8c-1.4,0.9-2.7,1.9-3.6,3.2c-0.4,0.6-0.7,1.4-0.7,2.1
			c0,0.7,0.5,1.4,1,2c1.1,1.1,2.6,1.9,4.2,2.4l0,0c0.1,0,0.1,0.1,0.1,0.2l-0.1,5.7c0,0.1,0,0.1-0.1,0.1c-0.1,0-0.1,0-0.1-0.1
			l-0.1-5.7l0.2,0.2c-1.6-0.5-3.2-1.2-4.5-2.4c-0.6-0.6-1.2-1.4-1.3-2.4c-0.1-1,0.2-1.9,0.7-2.6c1.9-3.1,5.7-4.2,6.9-7
			c0.3-0.7,0.2-1.3-0.1-1.9c-0.3-0.6-0.9-1.2-1.5-1.7c-0.3-0.3-0.6-0.6-0.9-1.1c-0.1-0.2-0.3-0.5-0.3-0.9c0-0.4,0.2-0.8,0.4-1
			c0.4-0.5,0.8-0.7,1.2-0.9l1.1-0.6c1.5-0.7,2.9-1.5,4.3-2.4c0.7-0.4,1.3-0.9,1.9-1.4c0.3-0.3,0.6-0.5,0.8-0.8
			c0.2-0.2,0.4-0.6,0.3-0.6c0,0,0,0.1,0,0.1c0,0,0,0-0.1-0.1c0,0-0.1,0-0.2-0.1c-0.3-0.1-0.6-0.2-1-0.2c-0.4,0-0.7,0-1.2,0
			c-0.5,0-0.9-0.1-1.4-0.2c-1.9-0.4-3.5-1.8-4.3-3.6c-0.8-1.7-1-3.8-0.1-5.7c0.5-0.9,1.3-1.7,2.3-2.1c1-0.4,2.1-0.4,3-0.2
			c1,0.2,1.6,0.4,2.2,0.4c0.6-0.1,0.9-0.2,1.2-0.7c0.3-0.5,0.4-1.3,0.4-2c0-0.8,0-1.6-0.1-2.4c-0.3-3.2-1-6.5-1.8-9.7
			c-0.7-3.3-1.5-6.5-2.1-9.8l-0.1-0.6l-0.1-0.7l0-0.7c0-0.3,0-0.5,0.1-0.8c0.1-1,0.5-2,1.1-2.8c1.2-1.6,2.8-2.6,4.4-3.3
			c3.2-1.4,6.6-2.1,9.9-2.7c3.3-0.5,6.7-0.9,10-1.1c6.7-0.5,13.4-0.7,20-1.2c3.3-0.2,6.6-0.5,9.9-1.1c0.8-0.1,1.6-0.3,2.4-0.5
			c0.9-0.2,1.7-0.3,2.6-0.3c1.7-0.1,3.4,0.1,5.1,0.3c3.4,0.5,6.6,1.5,9.7,2.7c3.1,1.2,6.2,2.6,9.2,4.2c3,1.6,5.8,3.3,8.6,5.3
			c1.4,1,2.7,2,3.9,3.2c0.6,0.6,1.2,1.2,1.8,1.9c0.5,0.7,1.1,1.4,1.2,2.4c0.1,0.5-0.1,1.1-0.5,1.4c-0.4,0.4-0.8,0.5-1.2,0.7
			c-0.8,0.3-1.6,0.5-2.5,0.7c-1.7,0.3-3.4,0.4-5.1,0.4c-1.7,0-3.4-0.1-5,0.1c-0.8,0.1-1.6,0.3-2.3,0.5c-0.3,0.2-0.7,0.3-1,0.5
			c-0.3,0.3-0.6,0.4-0.9,0.7c-1,1.1-1.7,2.6-1.7,4.1c-0.1,0.7,0.2,1.5,0.4,2.2c0.3,0.7,0.7,1.4,1.1,2.1c0.4,0.7,0.9,1.5,1.1,2.4
			c0.2,0.4,0.2,1,0.2,1.4c-0.1,0.5-0.1,1-0.3,1.5l-0.2,0.7l-0.4,0.6l-0.4,0.6l-0.4,0.5c-0.5,0.7-1.2,1.4-2,1.9c-1.5,1-3.2,1.6-4.9,2
			c-1.7,0.4-3.4,0.5-5.1,0.6l-5,0.2c-1.6,0.1-3.3,0.2-4.5,0.9c-0.6,0.3-1,0.7-1.1,1.4c-0.1,0.7-0.2,1.4,0,2.1c0.3,1.5,1,3,1.7,4.4
			c0.8,1.4,1.7,2.8,2.6,4.2c0.9,1.4,1.8,2.8,2.6,4.4c0.1,0.2,0.2,0.4,0.3,0.6c0.1,0.2,0.2,0.4,0.2,0.7l0.1,0.4l0,0.2
			c0,0.1,0,0.2,0,0.3c-0.1,0.4-0.3,0.7-0.5,0.9c-0.4,0.4-0.8,0.6-1.2,0.8c-0.4,0.2-0.8,0.4-1.2,0.5c-1.6,0.6-3.3,1-4.9,1.4
			c-3.3,0.8-6.6,1.4-9.7,2.4c-0.7,0.3-1.6,0.6-2,1c-0.4,0.3-0.2,1.1,0.2,1.8c0.7,1.4,1.8,2.7,2.9,3.9c2.2,2.5,4.7,4.7,7.2,7
			c0,0,0,0.1,0,0.1C297,340.7,297,340.7,296.9,340.7z"/>
	</g>
	<g>
		<path class="st6" d="M245.6,287.1c2.2-2.6,4.8-4.8,7.6-6.7c2.8-1.9,5.8-3.6,9-4.9c3.2-1.2,6.5-2.1,9.8-2.8c3.3-0.7,6.6-1.4,10-1.8
			c1.7-0.2,3.4-0.3,5.1-0.4c1.7,0,3.4,0,5.1,0.2c1.7,0.1,3.4,0.4,5.1,0.6c0.8,0.1,1.7,0.3,2.5,0.5c0.8,0.2,1.7,0.4,2.5,0.6
			c6.6,1.9,12.7,5,18.2,9c0,0,0.1,0.1,0,0.1c0,0-0.1,0.1-0.1,0c-6.1-2.9-12.3-5.4-18.6-7.1c-6.4-1.8-13-2.6-19.6-2.6
			c-3.3,0.1-6.7,0.5-9.9,1.3c-3.2,0.9-6.3,2.3-9.3,3.7c-6,2.8-11.7,6.1-17.1,10.2l0,0c0,0-0.1,0-0.1,0
			C245.6,287.2,245.6,287.2,245.6,287.1z"/>
	</g>
	<g>
		<path class="st6" d="M255.6,250.4c2.4-1,4.8-2.1,7-3.5c2.2-1.4,4.3-2.9,6-4.9c1.7-1.9,3-4.2,3.2-6.7c0-0.6,0-1.2-0.1-1.9
			c-0.1-0.7-0.2-1.3-0.2-2c-0.1-1.3-0.2-2.7-0.2-4c0.1-2.7,0.4-5.4,1.5-8c0.6-1.3,1.5-2.5,2.7-3.3c0.3-0.2,0.6-0.4,1-0.5l1.1-0.3
			c0.4-0.1,0.7-0.1,1.1-0.1c0.4-0.1,0.7,0,1.1,0c0.4,0,0.7,0.1,1.1,0.1l1,0.3c0.7,0.2,1.3,0.4,1.9,0.7c1.2,0.5,2.5,1,3.7,1.5
			c1.2,0.5,2.4,0.9,3.6,1.2c1.2,0.3,2.4,0.4,3.4,0c2.1-0.7,3.6-3,4.7-5.2c1.1-2.3,2-4.8,2.6-7.2c0.7-2.5,1-5,0.9-7.6
			c0-0.7,0-1.4,0.1-2.1c0.1-0.4,0.1-0.7,0.3-1.1c0.1-0.4,0.3-0.7,0.5-1c0.8-1.3,1.9-2.2,3-3c1.1-0.8,2.3-1.5,3.4-2.1
			c1.2-0.6,2.3-1.3,3.5-1.9l0.9-0.4c0.3-0.1,0.7-0.2,1-0.3c0.3-0.1,0.7-0.2,1.1-0.2c0.4,0,0.8,0,1.2,0.1c0.2,0,0.4,0.2,0.6,0.3
			c0.2,0.1,0.4,0.3,0.5,0.5c0.2,0.2,0.2,0.4,0.3,0.6c0.1,0.2,0.1,0.4,0.2,0.6c0.1,0.8,0.1,1.5-0.1,2.2c-0.5,2.7-1.6,5.1-2.8,7.5
			c-1.2,2.4-2.4,4.7-3.8,7l-0.6-0.6c4.5-2.5,8.8-5.3,12.8-8.4c2-1.6,4-3.2,5.7-5.1c0.8-0.9,1.6-1.9,2.3-3c0.6-1.1,1.1-2.3,1.1-3.5
			c-0.3-2.3-1.8-5-0.5-7.7c0.3-0.6,0.9-1.2,1.6-1.4c0.7-0.3,1.4-0.3,2.1-0.2c1.3,0.1,2.6,0.6,3.8,1.1c1.2,0.5,2.4,1.1,3.5,1.8
			c1.1,0.6,2.2,1.3,3.3,1.8c1.1,0.5,2.3,0.8,3.5,1c1.2,0.1,2.4,0,3.6-0.4c2.3-0.8,4.2-2.6,5.8-4.4c1.7-1.9,3.1-3.9,4.7-6
			c1.6-2.1,3.5-4,5.6-5.5c1.1-0.8,2.2-1.5,3.4-2c1.2-0.5,2.5-1,4-1.1c1.4-0.1,3.1,0.4,4.2,1.6c1.1,1.2,1.4,2.7,1.6,4
			c0.2,1.4,0.1,2.7,0,4.1c-0.1,1.2-0.1,2.4-0.1,3.7c0.3,5,1,10.1,1.7,15.2c1.3,10.2,2.4,20.5,2.3,30.8c-0.1,5.2-0.5,10.4-1.7,15.5
			c-1.2,5.1-3.2,10.2-7,14.1c-0.9,1-2,1.8-3.1,2.6c-1.1,0.7-2.3,1.4-3.6,1.8c-2.5,1-5.2,1.4-7.8,1.5c-2.7,0.1-5.2-0.2-7.7-0.2
			c-2.6-0.1-5.1-0.1-7.7,0c-1.3,0.1-2.5,0.1-3.8,0.3c-1.2,0.2-2.5,0.4-3.5,0.9c-0.2,0.1-0.4,0.3-0.5,0.4c-0.1,0.1-0.1,0.3,0,0.5
			c0.2,0.4,0.7,0.9,1.1,1.3c1,0.8,2.1,1.4,3.2,2.1l1.7,1c0.3,0.2,0.6,0.3,0.8,0.5c0.1,0.1,0.3,0.2,0.4,0.3c0.1,0.1,0.2,0.1,0.2,0.3
			c0,0.1,0,0.3-0.1,0.4c0,0-0.1,0.1-0.1,0.1l-0.1,0c-1.2,0.4-2.2,1.1-3.3,1.8c-2,1.5-3.9,3.3-5.8,5c0,0-0.1,0-0.1,0c0,0,0-0.1,0-0.1
			c1.8-1.8,3.6-3.6,5.6-5.3c1-0.8,2.1-1.6,3.3-2l0,0c0,0,0,0,0,0c0,0-0.1,0.2,0,0.2c0,0.1,0,0-0.1,0c-0.1-0.1-0.2-0.2-0.3-0.3
			c-0.3-0.2-0.5-0.3-0.8-0.5l-1.7-0.9c-1.1-0.6-2.3-1.2-3.3-2c-0.5-0.4-1.1-0.8-1.4-1.6c-0.2-0.3-0.3-0.9-0.1-1.3
			c0.2-0.4,0.5-0.7,0.8-0.9c1.3-0.7,2.6-0.9,3.9-1.1c1.3-0.2,2.6-0.3,3.9-0.4c2.6-0.2,5.2-0.2,7.7-0.2l3.9,0c1.3,0,2.5,0.1,3.8,0
			c2.5-0.1,5-0.6,7.2-1.5c1.1-0.5,2.2-1.1,3.2-1.7c1-0.7,1.9-1.5,2.8-2.4c3.4-3.6,5.2-8.4,6.3-13.3c1.1-4.9,1.5-10,1.6-15.1
			c0.1-10.2-1.1-20.4-2.2-30.5c-0.6-5.1-1.3-10.2-1.5-15.4c0-1.3-0.1-2.6,0.1-4c0.2-1.2,0.2-2.5,0.1-3.6c-0.1-1.2-0.4-2.3-1.1-3
			c-0.6-0.8-1.7-1.1-2.8-1.1c-1.1,0-2.3,0.4-3.4,0.9c-1.1,0.5-2.2,1.1-3.2,1.8c-2,1.4-3.9,3.2-5.4,5.1c-1.6,2-3.1,4.1-4.9,6
			c-1.8,1.9-3.8,3.7-6.4,4.6c-1.3,0.4-2.7,0.6-4,0.4c-1.3-0.2-2.6-0.6-3.8-1.1c-1.2-0.5-2.3-1.2-3.4-1.9c-1.1-0.7-2.2-1.3-3.3-1.8
			c-1.1-0.5-2.3-0.9-3.6-1.1c-1.2-0.1-2.5,0.2-3,1.2c-0.5,1-0.5,2.3-0.3,3.5c0.1,0.6,0.3,1.2,0.4,1.8c0.1,0.3,0.2,0.6,0.3,0.9
			l0.1,0.5l0,0.5c0,1.4-0.5,2.7-1.2,3.8c-0.7,1.1-1.5,2.1-2.4,3.1c-1.7,1.9-3.7,3.6-5.7,5.2c-4,3.2-8.4,6-12.8,8.7
			c-0.2,0.1-0.5,0.1-0.6-0.2c-0.1-0.1-0.1-0.3,0-0.4l0,0c1.3-2.3,2.5-4.6,3.6-7c1-2.4,2.1-4.8,2.5-7.3c0.2-1.2,0.1-2.5-0.7-2.6
			c-0.2-0.1-0.5,0-0.7,0c-0.3,0.1-0.6,0.1-0.8,0.2c-0.3,0.1-0.6,0.2-0.9,0.3l-0.9,0.4c-2.2,1.2-4.5,2.6-6.6,4.1
			c-1,0.7-2,1.6-2.6,2.5c-0.6,0.9-0.6,2.1-0.6,3.4c0.1,2.6-0.2,5.4-0.9,8c-0.7,2.6-1.6,5.1-2.8,7.6c-0.6,1.2-1.3,2.4-2.2,3.5
			c-0.9,1.1-2.1,2.1-3.5,2.6c-1.5,0.5-3,0.3-4.3,0c-1.4-0.3-2.6-0.8-3.8-1.3c-1.2-0.5-2.4-1-3.6-1.5c-0.6-0.2-1.2-0.5-1.8-0.6
			l-0.9-0.2c-0.3-0.1-0.6-0.1-0.9-0.1c-1.2-0.1-2.4,0-3.3,0.7c-0.9,0.6-1.7,1.6-2.2,2.7c-1.1,2.2-1.4,4.8-1.5,7.4
			c0,1.3,0,2.6,0.1,3.9c0,0.6,0.1,1.3,0.2,1.9c0.1,0.7,0.1,1.4,0,2.1c-0.2,2.8-1.7,5.3-3.6,7.2c-1.9,1.9-4.1,3.5-6.4,4.8
			c-2.3,1.3-4.7,2.4-7.2,3.2c-0.1,0-0.1,0-0.1-0.1C255.6,250.4,255.6,250.4,255.6,250.4z"/>
	</g>
	<g>
		<path class="st6" d="M300,216.8c2.8-1.4,5.8-2.4,8.8-3.1c3-0.8,6.2-1.3,9.4-1.2c1.6,0.1,3.2,0.3,4.8,1.1c0.4,0.2,0.7,0.4,1.1,0.6
			c0.3,0.3,0.7,0.6,0.9,0.8l1.7,1.6c2.2,2.2,4.5,4.3,6.7,6.5c2.2,2.2,4.4,4.5,6.3,7c1.9,2.5,3.6,5.2,4.9,8.1
			c1.2,2.9,2.1,6.2,1.8,9.5c-0.2,1.6-0.7,3.2-1.5,4.7c-0.8,1.4-2,2.6-3.2,3.5c0,0-0.1,0-0.1,0c0,0,0-0.1,0-0.1l0,0
			c1-1.2,1.9-2.5,2.4-3.8c0.5-1.4,0.8-2.8,0.8-4.3c0-2.9-0.9-5.8-2.2-8.5c-1.3-2.7-2.8-5.4-4.5-7.9c-1.8-2.5-3.6-5-5.5-7.4
			c-1.9-2.4-4.1-4.7-6.4-6.7c-0.6-0.5-1.2-1-1.8-1.5c-0.3-0.3-0.6-0.4-0.9-0.6c-0.3-0.2-0.6-0.3-1-0.4c-1.4-0.4-2.9-0.5-4.4-0.4
			c-6,0.2-12.1,1.6-18.1,2.9c-0.1,0-0.1,0-0.1-0.1C299.9,216.9,299.9,216.8,300,216.8z"/>
	</g>
	<g>
		<path class="st6" d="M350.7,186.2c2.2,1.4,3.9,3.4,5.4,5.5c1.5,2.1,2.8,4.3,3.9,6.7c1,2.4,1.7,4.8,2.5,7.3
			c0.7,2.4,1.5,4.9,1.8,7.5c0.1,1.3,0.2,2.7-0.2,4c-0.1,0.3-0.2,0.7-0.4,1c-0.2,0.3-0.4,0.7-0.5,0.9c-0.3,0.5-0.6,1-0.9,1.6
			c-1.1,2.2-1.9,4.5-2.4,6.8c-0.5,2.3-0.7,4.8-0.2,7.1c0.4,2.4,1.4,4.6,3,6.6c0,0,0,0.1,0,0.1c0,0-0.1,0-0.1,0
			c-2.1-1.5-3.6-3.8-4.4-6.4c-0.8-2.6-0.8-5.3-0.3-7.9c0.5-2.6,1.5-5.1,2.8-7.3c0.3-0.6,0.7-1.1,1.1-1.7c0.2-0.3,0.3-0.5,0.5-0.7
			c0.1-0.2,0.2-0.5,0.4-0.7c0.4-1,0.6-2.3,0.6-3.5c0-2.5-0.5-5-1.3-7.3c-0.9-2.4-2.1-4.6-3.3-6.7c-2.4-4.4-4.7-8.8-7.9-12.7
			c0,0,0-0.1,0-0.1C350.6,186.2,350.7,186.2,350.7,186.2z"/>
	</g>
	<g>
		<path class="st6" d="M387.2,248c-0.1-1.1,0.4-2.2,0.9-3.1c0.5-1,1.1-1.9,1.8-2.7c0.7-0.8,1.5-1.6,2.4-2.2c0.9-0.6,2-1.1,3.3-1
			c0.6,0.1,1.2,0.3,1.7,0.7c0.5,0.4,0.9,0.9,1.2,1.4c0.6,0.9,1.1,1.8,1.6,2.8c1,1.9,2.1,3.7,3.2,5.5c1.1,1.8,2.3,3.6,3.7,4.9
			c0.7,0.7,1.5,1.2,2.1,1.1c0.1,0,0.2,0,0.2,0c0.1,0,0.1-0.1,0.2-0.1l0.2-0.1c0.1,0,0.2-0.1,0.3-0.2c0.5-0.3,0.9-0.6,1.4-0.9
			c1.9-1.1,3.8-2,5.5-3.1c0.8-0.6,1.6-1.2,2.2-1.9c0.2-0.2,0.3-0.4,0.4-0.6c0.1-0.2,0.3-0.4,0.4-0.6l0.4-0.7
			c0.1-0.3,0.3-0.5,0.5-0.8c1.4-1.9,3-3.2,4.2-4.8c1.3-1.6,2.3-3.4,2.8-5.4c0.5-2,0.5-4.1,0.1-6.1c-0.1-0.5-0.1-1.1-0.2-1.6
			c0-0.6,0-1.1,0.2-1.7c0.2-1.1,0.5-2.1,0.9-3.1c1.6-4,3.8-7.7,6-11.3c2.2-3.6,4.4-7.3,6.6-10.9c2.1-3.7,4.1-7.4,5.6-11.3
			c0.8-1.9,1.4-3.9,1.6-5.9c0.3-2,0.1-4-0.7-5.7c-0.3-0.4-0.5-0.8-0.8-1.1c-0.4-0.3-0.6-0.7-1-1l-1.2-0.9c-0.4-0.3-0.8-0.6-1.3-0.9
			c-0.9-0.5-1.7-1.1-2.7-1.5c-0.9-0.5-1.9-0.7-2.8-1.1c-1.9-0.5-3.9-0.6-5.9-0.3c-1.9,0.3-3.8,1.1-5.4,2.2c-0.2,0.1-0.4,0.3-0.6,0.4
			c-0.2,0.2-0.4,0.3-0.5,0.5l-0.4,0.5c-0.1,0.2-0.2,0.3-0.3,0.5c0,0.1,0,0.1-0.1,0.2l0,0c0,0,0,0.1,0,0.2c0,0.1,0,0.2-0.1,0.4
			c-0.1,0.3-0.4,0.6-0.8,0.8c-0.2,0.1-0.3,0.1-0.5,0.1c-0.1,0-0.3,0-0.4,0c-0.9-0.1-1.4-0.4-1.9-0.6c-2-1.1-3.7-2.5-5.3-3.9
			c-1.6-1.4-3.2-2.9-4.6-4.5c-1.2-1.3-3.2-2-5.2-2.4c-2-0.3-4.1-0.3-6.1,0.1c-1,0.2-1.9,0.6-2.6,1.1c-0.2,0.1-0.3,0.3-0.4,0.5
			c-0.1,0.1-0.1,0.2-0.1,0.3c-0.1,0.2-0.2,0.3-0.3,0.5c-0.6,0.6-1.4,0.6-1.9,0.6c-1.2-0.2-2.2-0.6-3.2-1.1c-1-0.5-1.9-1-2.8-1.6
			c-1.8-1.1-3.6-2.4-5.2-3.7c0,0-0.1-0.1,0-0.1c0,0,0.1,0,0.1,0c1.8,1.2,3.6,2.3,5.4,3.3c0.9,0.5,1.9,1,2.8,1.4c1,0.4,2,0.8,2.9,0.8
			c0.5,0,0.9-0.1,1-0.3c0.1,0,0.1-0.1,0.1-0.2c0.1-0.1,0.1-0.3,0.2-0.4c0.2-0.3,0.4-0.5,0.6-0.7c0.9-0.8,2-1.2,3.1-1.5
			c2.2-0.6,4.4-0.7,6.6-0.4c2.2,0.3,4.5,0.9,6.3,2.7c1.4,1.5,3,2.9,4.6,4.3c1.6,1.3,3.3,2.6,5,3.5c0.4,0.2,0.9,0.4,1.1,0.4
			c0,0,0,0-0.1,0c-0.1,0-0.2,0.2-0.2,0.2c-0.1,0.3,0.1-0.4,0.2-0.7c0.2-0.3,0.3-0.6,0.5-0.9c0.2-0.2,0.4-0.5,0.6-0.7
			c0.2-0.2,0.4-0.4,0.6-0.6c0.2-0.2,0.4-0.4,0.7-0.6c3.8-2.8,8.7-3.4,13.1-2.1c1.1,0.4,2.1,0.7,3.1,1.2c1,0.4,2,1.1,2.9,1.7
			c0.5,0.3,0.9,0.6,1.3,1l1.3,1c0.4,0.3,0.8,0.8,1.2,1.2c0.4,0.5,0.7,1,1,1.5c1.1,2.2,1.2,4.6,0.8,6.8c-0.4,2.2-1.1,4.3-1.9,6.3
			c-1.7,4-3.9,7.7-6.2,11.3c-2.2,3.6-4.7,7.1-6.9,10.8c-2.2,3.6-4.5,7.2-6,11.2c-0.7,2-1.2,4-0.7,6c0.5,2.1,0.6,4.4,0.1,6.5
			c-0.4,2.2-1.5,4.2-2.7,6c-1.3,1.8-2.9,3.3-4,4.9c-0.1,0.2-0.3,0.4-0.4,0.6l-0.2,0.3l-0.2,0.4c-0.1,0.3-0.3,0.5-0.4,0.8
			c-0.2,0.3-0.3,0.5-0.5,0.7c-0.7,0.9-1.7,1.6-2.6,2.3c-1.9,1.2-3.8,2.1-5.6,3.2c-0.4,0.3-0.9,0.5-1.3,0.8l-0.3,0.2
			c-0.2,0.1-0.3,0.2-0.5,0.3c-0.2,0.1-0.3,0.1-0.5,0.2c-0.2,0-0.4,0.1-0.6,0.1c-0.8,0-1.5-0.2-2-0.5c-0.5-0.3-1-0.7-1.4-1.1
			c-1.6-1.6-2.7-3.5-3.8-5.4c-1.1-1.9-2-3.8-3-5.7c-0.5-0.9-1-1.9-1.5-2.8c-0.5-0.8-1.1-1.5-2-1.6c-0.9-0.1-1.8,0.2-2.7,0.7
			c-0.9,0.5-1.7,1.2-2.4,1.9c-0.7,0.7-1.4,1.6-1.9,2.5c-0.5,0.9-1,1.8-1.1,2.9l0,0C387.4,248,387.3,248,387.2,248
			C387.2,248,387.2,248,387.2,248z"/>
	</g>
	<g>
		<path class="st6" d="M403.4,171.3c2.1,2.4,3.7,5,5.2,7.8c1.5,2.8,2.8,5.6,3.7,8.6c0.9,3,1.5,6.1,2.1,9.2c0.6,3.1,1.1,6.1,1.4,9.3
			c0.3,3.1,0.3,6.3-0.2,9.4c-0.2,1.6-0.6,3.1-0.9,4.7c-0.5,1.5-0.9,3.1-1.6,4.5c-0.6,1.5-1.4,2.9-2.2,4.2c-0.9,1.3-1.7,2.7-2.8,3.9
			c-2,2.5-4.3,4.6-6.8,6.5c0,0-0.1,0-0.1,0c0,0,0-0.1,0-0.1l0,0c2-2.4,4.1-4.7,5.7-7.3c0.4-0.6,0.9-1.3,1.2-1.9l1.1-2
			c0.6-1.4,1.4-2.7,1.9-4.1c2.4-5.5,3.4-11.6,3.6-17.8c0-3.1-0.2-6.2-1-9.2c-0.7-3-1.8-5.9-3-8.7c-2.2-5.7-4.7-11.3-7.5-16.9
			c0,0,0-0.1,0-0.1C403.3,171.2,403.4,171.2,403.4,171.3z"/>
	</g>
	<g>
		<path class="st6" d="M500.3,205.4c-1.9-0.1-3.7-0.4-5.5-0.8c-0.9-0.2-1.8-0.4-2.6-0.7c-0.9-0.3-1.7-0.7-2.6-1.1
			c-1.7-0.7-3.5-1-5.4-1.2c-1.8-0.1-3.7-0.5-5.5-0.8c-0.4-0.1-0.7-0.4-0.8-0.8l0-0.1c-0.3-1.8-0.5-3.6-0.6-5.4l-0.2-2.7
			c-0.1-0.9-0.1-1.8-0.3-2.7l0,0c0-0.1,0-0.1,0.1-0.1c0,0,0.1,0,0.1,0c0.6,0.8,1,1.7,1.3,2.5c0.3,0.9,0.6,1.8,0.8,2.7
			c0.4,1.8,0.7,3.6,0.8,5.4l-0.8-0.9c1.8,0.5,3.6,1,5.3,1.7c1.7,0.7,3.5,1.2,5.3,1.4c0.9,0.1,1.9,0.2,2.8,0.3
			c0.9,0.1,1.8,0.4,2.7,0.7c1.8,0.6,3.5,1.3,5.1,2.3C500.4,205.2,500.4,205.3,500.3,205.4C500.4,205.3,500.3,205.4,500.3,205.4z"/>
	</g>
	<g>
		<path class="st6" d="M471.9,279.4c-5-3.3-10.1-6.6-15.6-8.6c-1.4-0.5-2.8-0.8-4.3-1.1l-4.5-0.8c-1.5-0.3-3-0.6-4.4-1.2l-0.5-0.2
			l-0.5-0.3c-0.4-0.2-0.7-0.4-1-0.7c-0.3-0.3-0.6-0.6-0.8-0.9c-0.2-0.3-0.5-0.7-0.6-1.1c-0.4-0.7-0.6-1.5-0.7-2.3l-0.1-0.6l0-0.3
			l-0.1-0.2c0-0.1,0-0.3-0.1-0.4c-0.1-0.1-0.1-0.2-0.2-0.3c-0.3-0.3-0.8-0.5-1.5-0.6c-0.6-0.1-1.3-0.1-2.1,0c-2.9,0.3-5.8,1-8.8,1.5
			c-1.5,0.2-3,0.4-4.6,0.5c-1.6,0-3.2,0-4.8-0.8c-0.8-0.4-1.5-1-1.9-1.8c-0.4-0.9-0.5-1.5-0.7-2.3c-0.2-0.7-0.3-1.5-0.5-2.2
			c-0.1-0.4-0.1-0.8-0.1-1.2c0-0.1,0-0.1,0-0.2c0-0.1,0-0.2,0.2-0.3c0.2,0,0.2,0.1,0.3,0.1c0,0,0.1,0.1,0.1,0.1
			c0.1,0.2,0.2,0.3,0.3,0.5c0,0,0,0.1,0,0.1c0,0-0.1,0-0.1,0c-0.1-0.1-0.2-0.3-0.4-0.4c0-0.1-0.2-0.1-0.1-0.1c0.1-0.1,0,0,0.1,0.1
			c0,0.3,0.2,0.7,0.3,1c0.2,0.7,0.5,1.4,0.8,2.1c0.3,0.7,0.6,1.5,0.9,2c0.4,0.5,0.9,0.8,1.4,1c1.2,0.4,2.7,0.4,4.1,0.3
			c1.4-0.1,2.9-0.4,4.4-0.6c2.9-0.5,5.9-1.1,9.1-1.3c0.8,0,1.6,0,2.5,0.1c0.8,0.2,1.8,0.5,2.5,1.4c0.2,0.2,0.3,0.5,0.4,0.7
			c0.1,0.2,0.1,0.5,0.2,0.7l0,0.4l0,0.3l0,0.5c0,0.7,0.2,1.4,0.4,2c0.4,1.3,1.5,2.4,2.8,3c1.3,0.6,2.8,0.9,4.3,1.2
			c3,0.5,6,0.2,9.1,1c1.5,0.4,3,1,4.3,1.7c1.4,0.7,2.7,1.5,4,2.4c2.5,1.7,4.9,3.7,6.9,6c0,0,0,0.1,0,0.1
			C472,279.4,471.9,279.4,471.9,279.4z"/>
	</g>
	<g>
		<path class="st6" d="M449.1,186.2c0.9-1,1.9-1.8,3-2.4c0.6-0.3,1.2-0.6,1.8-0.8c0.6-0.2,1.2-0.4,1.9-0.5c1.3-0.2,2.6-0.1,3.9-0.2
			c1.3,0,2.5-0.1,3.9-0.1c0.7,0,1.3,0,2,0.2c0.3,0.1,0.6,0.1,1,0.2c0.3,0.1,0.6,0.2,0.9,0.3l0.9,0.4c0.3,0.1,0.6,0.3,0.9,0.4
			c0.6,0.3,1.1,0.6,1.7,0.9c2.2,1.3,4.3,2.6,6.2,4.4c0,0,0,0.1,0,0.1c0,0-0.1,0-0.1,0c-2.5-0.6-4.8-1.6-7.1-2.7
			c-1.1-0.5-2.2-1.3-3.2-1.8c-0.3-0.1-0.5-0.3-0.8-0.4c-0.3-0.1-0.5-0.2-0.8-0.3c-0.5-0.3-1.1-0.5-1.7-0.6c-1.2-0.4-2.4-0.5-3.6-0.4
			c-1.2,0.2-2.4,0.7-3.5,1.1c-2.3,0.8-4.5,1.5-7,2.3c-0.1,0-0.1,0-0.1-0.1C449.1,186.3,449.1,186.2,449.1,186.2z"/>
	</g>
	<g>
		<path class="st6" d="M479.1,199.8c0,3.3-0.3,6.6-0.7,9.9c-0.4,3.3-0.9,6.5-1.7,9.8c-0.8,3.2-1.8,6.4-2.7,9.5
			c-0.9,3.2-1.6,6.4-2.4,9.6c-0.8,3.2-1.7,6.4-3,9.5c-1.2,3.1-2.5,6.2-4.3,9.1c-1.7,2.9-3.8,5.6-6.4,7.8c-1.3,1.1-2.8,2-4.4,2.6
			c-1.6,0.6-3.3,0.9-5,0.8c-0.1,0-0.1-0.1-0.1-0.1c0,0,0-0.1,0.1-0.1c3.3-0.4,6.1-2.1,8.3-4.4c2.2-2.2,4.1-4.9,5.7-7.7
			c1.6-2.8,3.1-5.7,4.4-8.7c1.3-3,2.5-6,3.7-9.1c1.1-3.1,2.1-6.2,2.8-9.4c0.7-3.2,1.1-6.5,1.7-9.7c0.5-3.2,1.2-6.5,1.8-9.7
			c0.6-3.2,1.3-6.4,2-9.7C478.9,199.7,479,199.7,479.1,199.8C479.1,199.7,479.1,199.7,479.1,199.8z"/>
	</g>
	<g>
		<path class="st6" d="M281.5,438.2c1.5-0.5,3-0.5,4.4-0.5c0.7,0,1.4,0,2.1,0c0.7,0,1.4,0,2.1,0c1.4,0.1,2.9,0.3,4.3,0
			c1.4-0.2,2.8-0.7,4.1-1.3l1.9-1c0.6-0.4,1.2-0.7,1.8-1.1c0.6-0.4,1.2-0.8,1.7-1.2c0.6-0.4,1.1-0.8,1.7-1.2
			c2.3-1.6,4.4-3.5,6.8-5.2l0,0c0,0,0.1,0,0.1,0c0,0,0,0.1,0,0.1c-1.4,2.6-3.3,5-5.7,6.8c-0.6,0.5-1.2,0.9-1.9,1.3
			c-0.7,0.4-1.3,0.8-2,1.1c-0.7,0.3-1.4,0.6-2.1,0.9c-0.7,0.2-1.5,0.4-2.2,0.6l-4.3,0.9c-1.4,0.3-2.9,0.8-4.3,1
			c-3,0.3-5.9-0.4-8.7-0.9l0,0C281.4,438.4,281.4,438.3,281.5,438.2C281.4,438.2,281.5,438.2,281.5,438.2z"/>
	</g>
	<g>
		<path class="st6" d="M352.3,426.7c3.1-0.9,6.2-1.5,9.4-2c3.2-0.5,6.4-0.9,9.7-0.4c0.8,0.1,1.6,0.4,2.4,0.8c0.8,0.4,1.6,1.1,1.9,2
			c0.1,0.2,0.1,0.5,0.2,0.7l0,0.7c0,0.4-0.2,0.9-0.2,1.3c-0.2,0.7-0.2,1.4-0.1,2.1c0.2,1.4,1,2.7,2,3.8c1,1.1,2.2,2,3.6,2.8
			c1.3,0.7,2.8,1.3,4.2,1.6c0.7,0.1,1.5,0.2,2.2,0.1c0.7-0.1,1.3-0.3,1.6-0.7c0.2-0.2,0.3-0.4,0.3-0.7l0-0.5c0-0.2,0-0.4,0.1-0.7
			c0.1-0.9,0.3-1.7,0.5-2.5c0.5-1.6,1.1-3.1,1.9-4.6c0.8-1.5,1.6-2.9,2.7-4.2c1-1.3,2.2-2.5,3.7-3.4c0.8-0.4,1.6-0.8,2.5-1
			c0.9-0.2,1.9,0,2.8,0.4c0.9,0.4,1.6,1,2.2,1.7c0.6,0.8,0.9,1.5,1.3,2.3c1.3,3,2.1,6.1,2.8,9.3c0.7,3.1,1.4,6.3,1.9,9.4
			c1,6.3,1.7,12.7,2.1,19c0.2,3.2,0.2,6.4,0.2,9.6c0,3.2-0.2,6.4-0.5,9.6c-0.4,3.2-0.9,6.3-1.7,9.5c-0.9,3.1-2,6.1-3.8,8.9
			c-1.8,2.7-4.2,5.2-7.3,6.5c-1.5,0.7-3.1,1.2-4.8,1.4c-1.6,0.2-3.3,0.2-4.9,0.1c-1.6-0.2-3.3-0.5-4.8-0.8c-1.6-0.4-3.1-0.7-4.7-1.1
			c-3.1-0.8-6.2-1.7-9.2-2.6c-3.1-1-6.1-2-9.1-3.3c-3-1.2-5.9-2.6-8.7-4.4c-1.4-0.9-2.7-2-3.9-3c-0.3-0.3-0.6-0.5-0.8-0.6
			c-0.2-0.1-0.2-0.1-0.4-0.1c-0.5,0.1-1.2,0.5-1.8,0.9c-2.7,1.6-5.4,3.4-8.3,4.8c-2.9,1.5-5.9,2.8-9.2,3.4c-1.6,0.3-3.4,0.4-5.1,0.2
			c-1.7-0.2-3.4-0.9-4.8-1.9c-1.4-1-2.6-2.3-3.5-3.7c-0.8-1.3-1.8-2.4-3-3.3c-2.4-1.8-5.5-2.1-8.6-1.9c-3.1,0.2-6.2,0.9-9.5,1
			c-0.8,0-1.7-0.1-2.5-0.3c-0.8-0.2-1.7-0.7-2.3-1.3c-0.6-0.7-1.1-1.5-1.3-2.3c-0.2-0.8-0.3-1.6-0.5-2.4c-0.5-3.2-0.6-6.4-0.5-9.6
			c0.2-3.2,0.6-6.4,1.3-9.5c0-0.1,0.1-0.1,0.1-0.1c0.1,0,0.1,0.1,0.1,0.1l0,0c-1.1,6.3-1.2,12.7,0,18.9c0.4,1.5,0.6,3.1,1.6,4.1
			c1,1,2.5,1.2,4,1.1c3.1-0.1,6.2-1,9.4-1.2c1.6-0.1,3.3-0.1,5,0.1c1.7,0.3,3.3,0.9,4.7,1.9c1.4,1,2.6,2.3,3.5,3.7
			c0.8,1.3,1.8,2.3,3,3.1c2.4,1.6,5.5,1.9,8.5,1.3c3-0.6,5.9-1.8,8.6-3.2c2.8-1.4,5.4-3.1,8.2-4.8c0.4-0.2,0.7-0.4,1.1-0.6
			c0.4-0.2,0.8-0.4,1.4-0.5c0.3-0.1,0.6-0.1,1,0c0.4,0,0.7,0.2,0.9,0.3c0.5,0.3,0.8,0.6,1.1,0.9c1.2,1.1,2.3,2,3.6,2.9
			c2.6,1.7,5.4,3.1,8.3,4.3c2.9,1.2,5.9,2.3,8.9,3.3c3,1,6.1,1.9,9.1,2.7c1.5,0.4,3.1,0.8,4.6,1.2c1.5,0.4,3,0.7,4.6,0.9
			c1.5,0.2,3.1,0.2,4.6,0c1.5-0.2,3-0.6,4.4-1.2c2.8-1.2,5.1-3.4,6.9-5.9c1.8-2.6,3-5.5,3.9-8.5c0.9-3,1.5-6.1,1.9-9.3
			c0.8-6.3,0.8-12.7,0.3-19c-0.2-3.2-0.5-6.3-1-9.5c-0.4-3.1-1-6.3-1.6-9.4c-0.6-3.1-1.3-6.2-2.1-9.3c-0.8-3-1.7-6.1-3-8.9
			c-0.3-0.7-0.7-1.4-1.1-1.9c-0.4-0.5-1-1-1.6-1.2c-1.2-0.5-2.5-0.2-3.8,0.5c-1.2,0.7-2.3,1.8-3.2,3c-0.9,1.2-1.8,2.5-2.5,3.9
			c-0.7,1.4-1.4,2.8-1.8,4.2c-0.2,0.7-0.4,1.5-0.5,2.2c0,0.2,0,0.4,0,0.5c0,0.2-0.1,0.5-0.1,0.7c-0.1,0.3-0.2,0.5-0.3,0.8
			c-0.2,0.2-0.3,0.5-0.5,0.7c-0.8,0.8-1.8,1.1-2.7,1.1c-0.9,0.1-1.8,0-2.6-0.2c-1.7-0.3-3.2-1-4.7-1.8c-1.4-0.8-2.8-1.8-3.9-3.1
			c-1.1-1.3-2-2.8-2.2-4.6c-0.1-0.9-0.1-1.8,0.1-2.6c0.1-0.5,0.2-0.7,0.2-1.1l0-0.5c0-0.2-0.1-0.3-0.1-0.5c-0.3-1.2-1.9-1.8-3.3-2.1
			c-1.5-0.3-3.1-0.3-4.7-0.3c-1.6,0-3.2,0.2-4.7,0.3c-3.2,0.4-6.3,0.9-9.4,1.6c-0.1,0-0.1,0-0.1-0.1
			C352.2,426.7,352.2,426.7,352.3,426.7z"/>
	</g>
	<g>
		<path class="st6" d="M374.6,446.7c2.1,1.7,4,3.7,5.7,5.8c1.7,2.1,3.3,4.3,4.5,6.8c1.3,2.4,2.2,5,3,7.6c0.8,2.6,1.6,5.2,1.8,7.9
			c0.3,2.7-0.1,5.7-1.5,8.2c-1.3,2.5-3.5,4.6-5.8,6.1c-4.8,2.9-10.3,4-15.7,4.2c-0.1,0-0.1,0-0.1-0.1c0,0,0-0.1,0.1-0.1
			c5.2-1.4,10.3-3,14.6-5.8c2.1-1.4,4.1-3.1,5.4-5.2c1.3-2.1,2-4.6,2.1-7.3c0.1-2.6-0.4-5.3-1.4-7.8c-1-2.5-2.4-4.7-3.8-7
			c-1.4-2.2-2.8-4.5-4.3-6.7l-4.6-6.6c0,0,0-0.1,0-0.1C374.5,446.7,374.5,446.7,374.6,446.7z"/>
	</g>
	<g>
		<path class="st6" d="M452.5,419.9c-1,0.4-1.7,1.2-2.4,1.9c-0.7,0.8-1.3,1.6-1.9,2.5c-0.6,0.9-1.3,1.7-2.1,2.5
			c-0.8,0.8-1.7,1.5-2.8,2c-1.1,0.5-2.3,0.7-3.5,0.6c-0.6-0.1-1.1-0.1-1.7-0.3c-0.5-0.1-1.1-0.3-1.6-0.5c-2.1-0.7-4-1.6-6-2.5
			c-1-0.4-2-0.9-2.9-1.2c-1-0.4-1.9-0.7-2.9-0.9c-1.9-0.5-3.7,0-5.8,0.6c-4,1.1-7.9,2.8-11.9,4.4c-0.1,0-0.1,0-0.1-0.1
			c0,0,0-0.1,0-0.1c1.7-1.4,3.5-2.6,5.4-3.6c1.9-1.1,3.9-2,6-2.6c0.5-0.2,1.1-0.3,1.6-0.4c0.5-0.1,1.1-0.2,1.7-0.3
			c1.2-0.1,2.4,0,3.5,0.4c2.3,0.6,4.1,1.8,5.9,3c1.8,1.2,3.6,2.3,5.6,2.8c1,0.3,2.1,0.4,3,0.3c1-0.1,1.9-0.4,2.7-1
			c1.6-1,3-2.5,4.5-4.1c0.7-0.8,1.5-1.6,2.4-2.2c0.9-0.7,1.9-1.3,3.1-1.3C452.5,419.7,452.6,419.7,452.5,419.9
			C452.6,419.8,452.6,419.9,452.5,419.9z"/>
	</g>
	<g>
		<path class="st6" d="M408.4,500.1c2.8,1.5,5.9,2.6,9,3.3c3.1,0.8,6.3,1,9.3,0.5c1.5-0.2,3-0.7,4.4-1.3c1.4-0.6,2.7-1.4,3.9-2.4
			c2.3-2,4-4.7,5.9-7.3c1-1.3,2.1-2.7,3.6-3.6c1.5-1,3.3-1.3,5-1.1c1.7,0.1,3.3,0.7,4.8,1.2c1.5,0.5,3,1.2,4.5,1.8
			c3,1.2,5.9,2.5,9,3.1c0.8,0.1,1.6,0.2,2.3,0.2c0.8,0,1.5-0.2,2.2-0.5c0.7-0.3,1.3-0.7,1.9-1.2c0.5-0.5,1.1-1.1,1.5-1.7
			c0.9-1.3,1.5-2.7,2-4.2c0.5-1.5,0.9-3,1.2-4.6c0.5-3.1,0.7-6.3,0.7-9.5c0-6.4-0.7-12.7-1.6-19.1c-0.5-3.2-1-6.3-1.7-9.4
			c-0.7-3.1-1.4-6.2-2.4-9.3c-1-3-2-6.1-3.5-8.9c-0.7-1.4-1.6-2.8-2.6-3.9c-1-1.2-2.3-2.2-3.9-2.3c-0.1,0-0.1,0-0.1-0.1
			c0-0.1,0-0.1,0.1-0.1c1.7-0.1,3.2,0.9,4.4,2c1.2,1.2,2.2,2.5,3,3.9c1.7,2.8,3,5.8,4.1,8.9c2.2,6.1,3.7,12.5,4.7,18.9
			c1,6.4,1.5,12.9,1.4,19.4c-0.1,3.3-0.3,6.5-1,9.7c-0.2,0.8-0.4,1.6-0.6,2.4c-0.3,0.8-0.5,1.6-0.8,2.3c-0.6,1.5-1.4,3-2.4,4.4
			c-0.5,0.7-1.1,1.3-1.7,1.9c-0.7,0.5-1.4,1-2.2,1.3c-1.6,0.6-3.4,0.5-5,0.2c-3.2-0.7-6.2-2.1-9.2-3.2c-1.5-0.6-3-1.1-4.5-1.6
			c-1.5-0.5-3.1-0.9-4.6-0.9c-1.5,0-3,0.3-4.2,1.2c-1.2,0.8-2.1,2.1-3,3.4c-1.7,2.6-3.4,5.6-6.1,7.7c-2.6,2.2-5.9,3.5-9.2,3.9
			c-3.3,0.4-6.7-0.1-9.8-1c-1.6-0.4-3.1-1.1-4.6-1.8c-1.5-0.7-2.9-1.5-4.2-2.4c0,0-0.1-0.1,0-0.1
			C408.3,500.1,408.4,500.1,408.4,500.1z"/>
	</g>
	<g>
		<path class="st6" d="M455.2,419.7c0.4,1.1,0.9,2.2,1.5,3.3c0.6,1,1.3,2.1,2.1,2.8c0.4,0.4,0.9,0.7,1.4,0.7c0.5,0.1,1-0.1,1.4-0.4
			c0.8-0.7,1.5-1.7,2-2.8c0.6-1,0.9-2.2,1.2-3.3c0.3-1.1,0.4-2.3,0.4-3.5c0.1-1.2,0.1-2.5,0.5-3.8c0.4-1.3,1.3-2.5,2.3-3.3
			c0.5-0.4,1-0.8,1.6-1.1c0.6-0.3,1.1-0.6,1.7-0.9c0.6-0.3,1.2-0.5,1.8-0.8l1.8-0.6c2.4-0.7,4.9-1,7.4-1.2c2.5-0.2,5-0.2,7.4,0
			c2.5,0.2,4.9,0.5,7.4,1.2c0.6,0.2,1.2,0.4,1.8,0.6c0.3,0.2,0.6,0.3,0.9,0.5l0.5,0.4c0.2,0.1,0.3,0.2,0.5,0.5
			c0.3,0.4,0.4,0.9,0.3,1.3c0,0.4-0.1,0.8-0.2,1.1c-0.2,0.7-0.5,1.2-0.8,1.8c-0.6,1.1-1.3,2.1-2,3.1c-0.7,1-1.4,2-1.8,3
			c-0.1,0.3-0.2,0.5-0.2,0.7c0,0.2,0,0.1,0.1,0.2c0.3,0.1,1,0,1.6-0.1c1.2-0.2,2.4-0.4,3.6-0.6c2.3-0.5,4.6-1.4,6.4-3
			c1.8-1.6,2.9-3.8,3.4-6.1c0.5-2.4,0.3-4.8,0.3-7.2c-0.1-2.4-0.3-4.9-0.2-7.4c0.1-1.2,0.2-2.5,0.7-3.7c0.5-1.2,1.4-2.3,2.6-2.9
			c1.2-0.6,2.4-1,3.7-1.2c1.3-0.2,2.5-0.3,3.7-0.3c2.5,0,5.1,0.5,7.4,1.4c4.7,1.8,8.9,4.6,12.6,8c1.8,1.8,3.5,3.6,4.7,6
			c0.3,0.7,0.6,1.3,0.4,2.4c0,0.1-0.1,0.3-0.1,0.4l-0.1,0.2c0,0.1-0.1,0.2,0,0.1c0.1-0.2,0-0.1,0,0c0,0.2,0,0.4,0.1,0.7
			c0.2,1.1,0.5,2.3,0.9,3.4c1.4,4.7,2.7,9.4,3.7,14.3c0.9,4.8,1.5,9.8,1.3,14.8c-0.2,5-1.2,10-3.3,14.5c-2.1,4.6-5.5,8.5-9.6,11.3
			c-4.1,2.8-8.7,4.7-13.5,5.8c-0.1,0-0.1,0-0.1-0.1c0-0.1,0-0.1,0.1-0.1c4.6-1.5,9.1-3.5,12.9-6.5c1.9-1.5,3.6-3.1,5.1-5
			c1.5-1.9,2.7-3.9,3.6-6.1c1.9-4.4,2.7-9.2,2.8-13.9c0.1-4.8-0.5-9.6-1.5-14.3c-0.9-4.7-2.3-9.4-3.6-14.1c-0.3-1.2-0.7-2.4-0.9-3.7
			c0-0.3-0.1-0.7-0.1-1.1c0-0.2,0-0.5,0.2-0.9c0.1-0.1,0.1-0.1,0.1-0.1l0,0c0,0,0,0,0,0c0-0.2-0.1-0.7-0.3-1.2
			c-0.9-2-2.5-3.8-4.2-5.5c-3.4-3.3-7.4-6.1-11.8-7.9c-1.1-0.4-2.2-0.8-3.4-1.1c-1.1-0.3-2.3-0.4-3.5-0.5c-2.4,0-4.8,0.1-6.9,1.1
			c-1,0.5-1.8,1.3-2.2,2.4c-0.5,1-0.6,2.2-0.7,3.4c-0.2,2.4,0,4.8,0.1,7.3c0,2.4,0.2,4.9-0.4,7.4c-0.5,2.4-1.7,4.8-3.6,6.5
			c-1.9,1.7-4.3,2.7-6.7,3.3c-1.2,0.3-2.4,0.6-3.6,0.8c-0.6,0.1-1.2,0.3-2.1,0.1c-0.1,0-0.2-0.1-0.3-0.2c-0.1-0.1-0.2-0.2-0.3-0.3
			c-0.1-0.1-0.1-0.2-0.2-0.4c0-0.1,0-0.2-0.1-0.4c0-0.4,0.1-0.8,0.2-1.1c0.5-1.3,1.1-2.3,1.8-3.3c0.6-1,1.3-2.1,1.8-3.1
			c0.3-0.5,0.5-1.1,0.6-1.6c0.1-0.5,0.2-1,0-1.1c0,0-0.1-0.1-0.2-0.2l-0.3-0.2c-0.2-0.1-0.5-0.2-0.7-0.3c-0.5-0.2-1.1-0.4-1.6-0.5
			c-2.3-0.6-4.7-0.9-7.1-1c-2.4-0.2-4.8-0.2-7.2,0c-4.7,0.3-9.6,1.3-13.3,4.1c-0.9,0.7-1.6,1.5-2,2.5c-0.4,1-0.5,2.2-0.6,3.4
			c-0.1,1.2-0.3,2.5-0.6,3.7c-0.4,1.2-0.8,2.4-1.5,3.5c-0.6,1.1-1.3,2.2-2.4,3c-0.6,0.4-1.3,0.6-2,0.5c-0.7-0.1-1.3-0.5-1.8-1
			c-0.9-0.9-1.5-2-2.1-3.1c-0.5-1.1-1-2.3-1.3-3.5c0-0.1,0-0.1,0.1-0.1C455.1,419.7,455.2,419.7,455.2,419.7z"/>
	</g>
	<g>
		<path class="st6" d="M480.5,478.3c0.1,2.7,0.2,5.5,1.2,7.8c0.2,0.6,0.6,1.1,1,1.4c0.4,0.3,0.8,0.4,1.4,0.2c1-0.3,2.1-1.2,3-2.1
			c1.8-1.8,3.3-4.1,5-6.2c1.7-2.1,3.4-4.3,5.5-6.2c1.1-0.9,2.1-1.8,3.6-2.4c0.7-0.3,1.7-0.3,2.5,0c0.8,0.4,1.2,1,1.7,1.6
			c0.4,0.6,0.8,1.1,1.2,1.6c0.5,0.5,0.9,1.1,1.3,1.6c0.9,1,1.8,2,2.9,2.7c1.1,0.7,2.3,1.3,3.6,1c1.3-0.2,2.4-1,3.2-1.9
			c0.9-1,1.6-2.1,2.2-3.3c0.6-1.2,1.1-2.4,1.7-3.6c2.1-5.1,4.9-9.8,7.8-14.3c1.5-2.3,2.9-4.5,4.3-6.8c1.4-2.3,2.7-4.6,3.7-7
			c1.1-2.4,1.7-4.9,1.6-7.4c0-0.6-0.1-1.2-0.2-1.8c-0.1-0.6-0.4-1.2-0.5-1.8c-0.2-0.6-0.5-1.2-0.7-1.8c-0.3-0.6-0.6-1.1-0.9-1.7
			c-1.3-2.2-3.1-4.2-5.2-5.9c-2.1-1.7-4.3-3.1-6.8-4.2l0,0c-0.1,0-0.1-0.1,0-0.1c0,0,0.1-0.1,0.1-0.1c1.3,0.4,2.6,0.9,3.8,1.5
			c1.2,0.6,2.4,1.3,3.5,2.1c2.2,1.6,4.3,3.5,5.9,5.8c0.8,1.2,1.5,2.4,2,3.7c0.2,0.7,0.5,1.3,0.7,2c0.2,0.7,0.3,1.4,0.4,2.2
			c0.2,2.9-0.6,5.8-1.6,8.4c-2.2,5.2-5.5,9.6-8.5,14c-3,4.5-6,8.9-8.4,13.7c-1.2,2.4-2.5,4.9-4.4,6.9c-1,1-2.2,1.9-3.6,2.1
			c-1.5,0.2-2.9-0.3-4-1.1c-1.2-0.8-2.2-1.7-3.1-2.7c-0.5-0.5-0.9-1-1.4-1.5c-0.5-0.5-1-1.1-1.4-1.5c-0.4-0.5-0.9-0.9-1.3-1.1
			c-0.4-0.2-0.9-0.1-1.5,0.1c-1.1,0.5-2,1.4-3,2.3c-1.9,1.9-3.5,4-5.2,6c-1.7,2.1-3.3,4.4-5.3,6.3c-1,0.9-2.2,1.9-3.8,2.3
			c-0.8,0.2-1.8,0-2.4-0.6c-0.6-0.6-1-1.3-1.2-2c-0.5-1.4-0.6-2.8-0.6-4.1c0-1.4,0-2.7,0.2-4.1c0-0.1,0.1-0.1,0.1-0.1
			C480.5,478.2,480.5,478.2,480.5,478.3z"/>
	</g>
	<g>
		<path class="st6" d="M554.4,453c2,1.1,4.1,2,6.2,2.7c2.1,0.7,4.3,1.2,6.4,1c2.1-0.2,3.8-1.4,4.6-3.2c0.1-0.3,0.3-0.6,0.5-0.9
			c0.2-0.3,0.4-0.5,0.7-0.8c0.2-0.2,0.5-0.4,0.8-0.6c0.3-0.2,0.6-0.3,0.9-0.5c1.2-0.5,2.4-0.7,3.6-0.8c2.3-0.2,4.6,0,6.7-0.3
			c1.1-0.2,2.1-0.4,3-1c0.8-0.6,1.4-1.6,1.6-2.6c0.1-0.3,0.1-0.5,0.1-0.8c0-0.3,0.1-0.5,0.1-0.8c0-0.6,0-1.1-0.1-1.7
			c-0.1-1.1-0.4-2.2-0.7-3.3l-0.5-1.6c-0.2-0.5-0.4-1.1-0.6-1.6c-0.4-1.1-0.9-2.1-1.3-3.1c-1.9-4.1-4-8.1-6.2-12
			c-2.2-4-4.5-7.8-6.9-11.6l-1.8-2.8c-0.6-0.9-1.3-1.8-1.9-2.8l-1-1.4c-0.3-0.4-0.7-0.9-1-1.3c-0.7-0.9-1.3-1.8-2.1-2.6
			c-0.8-0.8-1.5-1.7-2.3-2.4c-0.4-0.3-0.8-0.8-1.3-1.1l-1.4-0.9l-1.5-0.7l-0.8-0.2l-0.4-0.1c-0.1,0-0.3,0-0.4,0
			c-1-0.1-2.2,0.2-2.9,1l0,0c0,0-0.1,0-0.1,0c0,0,0-0.1,0-0.1c0.7-1,1.9-1.5,3.1-1.6c0.2,0,0.3,0,0.5,0l0.4,0.1l0.9,0.1
			c0.6,0.2,1.1,0.4,1.7,0.6l1.5,0.9c0.5,0.3,0.9,0.7,1.4,1c1,0.7,1.8,1.5,2.6,2.3c0.9,0.8,1.6,1.7,2.4,2.5c0.4,0.4,0.8,0.9,1.1,1.3
			l1,1.4c0.7,0.9,1.4,1.8,2.1,2.8l1.9,2.8c2.5,3.8,4.7,7.8,6.7,11.9c2.1,4,4,8.2,5.6,12.5c0.8,2.1,1.5,4.3,2,6.5
			c0.2,1.1,0.5,2.2,0.6,3.4c0.1,0.6,0.1,1.2,0.1,1.7c0,0.3,0,0.6-0.1,0.9c0,0.3,0,0.6-0.1,0.9c-0.2,1.2-0.8,2.3-1.7,3.1
			c-0.9,0.8-2.1,1.2-3.3,1.5c-2.3,0.5-4.6,0.6-6.8,0.9c-1.1,0.1-2.1,0.4-3,0.7c-0.9,0.4-1.5,1-1.9,1.9c-0.5,1.1-1.4,2.2-2.5,2.9
			c-1.1,0.7-2.4,1.1-3.6,1.1c-2.5,0.1-4.8-0.6-6.9-1.6c-2.1-1-4.1-2.1-5.9-3.5c0,0-0.1-0.1,0-0.1C554.3,453,554.3,453,554.4,453z"/>
	</g>
	<g>
		<path class="st6" d="M582.1,379.5c4.6,6.7,8.7,13.8,12.3,21.1c3.6,7.3,6.6,15,8.1,23.1c0.2,1,0.3,2,0.4,3.1c0.1,1,0.2,2.1,0.2,3.1
			c0.1,2.1-0.2,4.2-0.7,6.3c-0.6,2.1-1.5,4-2.8,5.8c-1.5,1.7-3,2.9-4.2,4.4c-0.6,0.7-1.2,1.5-1.6,2.3c-0.2,0.4-0.3,0.8-0.2,0.9
			c0,0.1,0.2,0.3,0.6,0.4c0.8,0.2,1.8,0.2,2.7,0.1c1-0.1,2-0.2,2.9-0.4c3.9-0.8,7.8-2,11.6-3.3l-0.1,0c3.4-2.1,6.5-4.9,8.9-8.2
			c1.2-1.6,2.2-3.4,2.8-5.3c0.2-0.5,0.3-1,0.4-1.5c0.1-0.2,0.1-0.5,0.2-0.7l0.1-0.7c0.1-1,0.2-2,0-3c-0.3-2-1.1-3.9-1.9-5.7
			c-0.8-1.9-1.8-3.7-2.8-5.5c-2-3.6-4-7.2-5.5-11c-0.8-1.9-1.4-3.9-1.7-6c-0.3-2.1-0.2-4.3,0.4-6.4c0.7-2.1,1.9-4,3.5-5.4l2.2-2.1
			c0.7-0.8,1.3-1.5,2-2.3c1.2-1.6,2.2-3.3,2.9-5c0.6-1.8,0.7-3.7,0.2-5.5c-1-3.7-3.6-6.9-6.1-10.1c-1.3-1.6-2.5-3.2-4-4.1
			c-0.4-0.2-0.7-0.3-1-0.4c-0.3,0-0.6,0-0.9,0.1c-0.6,0.3-1.2,1-1.7,1.8c-1,1.6-1.7,3.5-2.4,5.4c-0.7,1.9-1.4,3.9-2.4,5.8
			c-0.1,0.2-0.3,0.5-0.4,0.7c-0.1,0.1-0.1,0.2-0.2,0.4l-0.3,0.4c-0.2,0.3-0.4,0.5-0.7,0.7c-0.2,0.2-0.5,0.4-0.7,0.5
			c-1,0.7-2,1-3,1.4c-2,0.7-4.1,1.1-6.1,1.5c-4.1,0.7-8.2,1.1-12.3,1.3c-8.2,0.5-16.5,0.5-24.7-0.1c-1-0.1-2.1-0.2-3.1-0.3
			c-1.1-0.2-2-0.4-2.9-0.2c-1.9,0.3-3.4,1.7-4.7,3.3c-1.3,1.6-2.3,3.3-3.1,5.2c-0.9,1.8-1.6,3.8-2.2,5.7c0,0.1-0.1,0.1-0.1,0.1
			c-0.1,0-0.1-0.1-0.1-0.1c0.5-2,1.2-3.9,2-5.9c0.8-1.9,1.7-3.8,3-5.5c1.2-1.7,2.8-3.3,5.1-3.8c1.1-0.3,2.3,0,3.2,0.1
			c1,0.1,2,0.2,3,0.2c8.1,0.3,16.3,0.1,24.5-0.5c4.1-0.3,8.1-0.8,12.1-1.5c2-0.4,4-0.8,5.8-1.5c0.9-0.4,1.8-0.7,2.5-1.2
			c0.8-0.5,1.1-1,1.6-1.9c0.9-1.7,1.6-3.7,2.3-5.6c0.7-1.9,1.4-3.9,2.6-5.8c0.6-0.9,1.3-1.9,2.5-2.6c0.6-0.3,1.4-0.4,2.1-0.3
			c0.7,0.1,1.3,0.4,1.8,0.7c2,1.3,3.2,3.1,4.5,4.7c1.3,1.6,2.5,3.3,3.7,5.1c1.1,1.8,2.1,3.7,2.7,5.8c0.5,2.1,0.5,4.5-0.3,6.6
			c-0.8,2.1-1.9,3.9-3.3,5.5c-0.7,0.8-1.4,1.6-2.1,2.3l-2.3,2.1c-1.5,1.3-2.6,2.9-3.2,4.7c-0.6,1.8-0.8,3.8-0.5,5.8
			c0.2,2,0.8,3.9,1.5,5.8c1.4,3.8,3.3,7.4,5.2,11.1c0.9,1.8,1.9,3.6,2.7,5.5c0.8,1.9,1.6,3.8,1.9,5.9c0.4,4.2-1.1,8.4-3.5,11.7
			c-2.4,3.4-5.5,6.2-9,8.6c0,0,0,0-0.1,0l0,0c-3.8,1.5-7.7,2.8-11.7,3.7c-1,0.2-2,0.4-3.1,0.6c-1.1,0.1-2.1,0.2-3.3-0.1
			c-0.3-0.1-0.6-0.2-0.9-0.5c-0.3-0.2-0.6-0.6-0.7-1c-0.2-0.8,0.1-1.5,0.3-2c0.5-1.1,1.1-1.9,1.8-2.7c1.3-1.6,3-3,4.1-4.4
			c1.1-1.5,1.9-3.3,2.4-5.2c0.9-3.8,0.8-7.8,0.1-11.7c-0.7-3.9-1.8-7.8-3.1-11.6c-1.3-3.8-2.8-7.6-4.5-11.2
			c-3.4-7.4-7.2-14.5-11.4-21.5c0,0,0-0.1,0-0.1C582,379.4,582.1,379.4,582.1,379.5z"/>
	</g>
</g>
<g id="Layer_4">
	<g id="XMLID_2_">
		<g>
			<path class="st7" d="M465.8,287.9l8.8,9.1c-22.7,4.9-28.6,30-50.4,46.3c-21.8,16.3-123.1,21.9-123.1,21.9l-0.5-11.4l17.4-3.1
				c0,0,90.4-5.4,109.5-25.2C446.4,305.7,444.4,297.9,465.8,287.9z"/>
			<path class="st8" d="M427.6,274c16.8-41.9,23.6-76.4,25.7-101l16,7.7c-2.7,24.6-9.9,57.4-25.6,96.7c-0.8,1.9-1.1,4.1-2.4,5.8
				c-44.4,58.1-123.4,67.5-123.4,67.5l-17.4,3.1l-0.5-11.2c0,0,80.8-15.3,127.4-68.7L427.6,274z"/>
		</g>
		<g>
			<path class="st9" d="M427.4,274.7c0.1-0.2,0.2-0.4,0.3-0.6c16.8-41.9,23.6-76.4,25.7-101"/>
			<path class="st9" d="M427.4,273.9C380.8,327.3,300,342.6,300,342.6"/>
			<path class="st9" d="M443.7,277.5c15.8-39.3,22.9-72.1,25.6-96.7"/>
			<path class="st9" d="M317.9,350.8c0,0,79.1-9.4,123.4-67.5c1.3-1.7,1.6-3.9,2.4-5.8"/>
			<path class="st9" d="M317.9,350.8c0,0,90.4-5.4,109.5-25.2c19.1-19.8,17.1-27.6,38.4-37.6"/>
			<path class="st9" d="M301.1,365.3c0,0,101.3-5.6,123.1-21.9c21.8-16.3,27.7-41.4,50.4-46.3"/>
			<polyline class="st9" points="300,342.6 300.5,353.9 301.1,365.3 			"/>
			<line class="st9" x1="453.3" y1="173.1" x2="469.3" y2="180.8"/>
			<line class="st9" x1="465.8" y1="287.9" x2="474.6" y2="297.1"/>
			<polyline class="st9" points="300,353.9 300.5,353.9 317.9,350.8 			"/>
		</g>
	</g>
</g>
<g id="Layer_3">
	<path class="st10" d="M455.1,171.3c1.5-17.8,0.6-30.4-0.8-37"/>
	<path class="st11" d="M427.3,273.9c17.5-42.6,24.6-77.7,26.8-102.6"/>
	<path class="st10" d="M428.3,273.2C380.3,327,297,342.5,297,342.5"/>
	<path class="st12" d="M471.6,179.1c2.4-21.7,1.4-37.1-0.3-44.8"/>
	<path class="st11" d="M444.2,276.7c16.3-39.6,23.6-72.8,26.4-97.6"/>
	<path class="st10" d="M315.5,350.8c0,0,67-8.2,111.9-51.4c1.5-1.5,16-20.7,16.8-22.6"/>
	<path class="st10" d="M429.6,322c5.9-6.5,10.8-13.8,16.4-20.5c5.4-6.4,12.1-10.8,19.6-14.3"/>
	<path class="st10" d="M315.5,350.8c33.5-2.5,67.5-5.5,99.5-17.5c3-2,7-3,10.2-6.8"/>
	<path class="st10" d="M298.1,365.4c0,0,103-5.7,125.2-22.2c22.2-16.5,28.2-41.9,51.3-46.8"/>
	<path class="st13" d="M295.3,343.3c0,0-8.6,19.6,1.1,21.4S305.1,342.7,295.3,343.3z"/>
</g>
<g id="Layer_5">
	<line class="st14" x1="295.9" y1="356.2" x2="171.1" y2="383.4"/>
	<line class="st14" x1="401.3" y1="345.6" x2="569" y2="330.9"/>
	<path class="st15" d="M429.1,324.3c0.3-0.1,0.6-0.2,0.9-0.3c-8-6.5-36.1-27.9-57.2-27.9c-0.2,0-0.4,0-0.6,0c-0.2,0-0.4,0-0.7,0
		c-22.2,0-45.2-21-45.5-21.2c-1-1-2.6-0.9-3.6,0.2c-0.9,1.1-0.9,2.7,0.2,3.6c1,0.9,24.7,22.5,48.9,22.5c0.3,0,0.5,0,0.8,0
		c0.2,0,0.3,0,0.5,0c19,0,45.7,20.1,53.7,26.6c0.1-0.5,0.2-0.9,0.4-1.3"/>
	<path class="st15" d="M323.4,278.7c0,0,4.3,0.3,2.7-3.7"/>
	<line class="st14" x1="362.7" y1="292.5" x2="572" y2="253.2"/>
	<line class="st14" x1="455.9" y1="205.3" x2="572" y2="162.5"/>
	<line class="st14" x1="309" y1="343.3" x2="174" y2="282.5"/>
	<line class="st14" x1="322.5" y1="275.1" x2="166" y2="182.9"/>
	<line class="st14" x1="413" y1="459.2" x2="264.6" y2="541.9"/>
</g>
<g id="Layer_6">
	<text transform="matrix(1 0 0 1 582.0522 162.468)" class="st16 st17">Common bile duct</text>
	<text transform="matrix(1 0 0 1 589.7498 241.2761)"><tspan x="0" y="0" class="st16 st17">Accessary </tspan><tspan x="0" y="28.8" class="st16 st17">pancreatic duct</tspan></text>
	<text transform="matrix(1 0 0 1 582.0521 329.7654)" class="st16 st17">Major pancreatic duct</text>
	<text transform="matrix(1 0 0 1 32.8335 268.228)"><tspan x="0" y="0" class="st16 st17">Pancreatico</tspan><tspan x="-26.7" y="28.8" class="st16 st17">duodenal duct</tspan></text>
	<text transform="matrix(1 0 0 1 97.2979 378.1989)"><tspan x="0" y="0" class="st16 st17">Major</tspan><tspan x="-40.9" y="28.8" class="st16 st17">Duodenal</tspan><tspan x="-13.4" y="57.6" class="st16 st17">Papilla</tspan></text>
	<text transform="matrix(1 0 0 1 95.5283 162.4675)"><tspan x="0" y="0" class="st16 st17">Minor</tspan><tspan x="-39.2" y="28.8" class="st16 st17">Duodenal</tspan><tspan x="-11.6" y="57.6" class="st16 st17">Papilla</tspan></text>
	<text transform="matrix(1 0 0 1 121.4727 566.5633)" class="st16 st17">Circular mucosal folds</text>
</g>
</svg>
