<?xml version="1.0" encoding="utf-8"?>
<!-- Generator: Adobe Illustrator 21.0.0, SVG Export Plug-In . SVG Version: 6.00 Build 0)  -->
<svg version="1.1" xmlns="http://www.w3.org/2000/svg" xmlns:xlink="http://www.w3.org/1999/xlink" x="0px" y="0px"
	 viewBox="0 0 595.3 841.9" style="enable-background:new 0 0 595.3 841.9;" xml:space="preserve">
<style type="text/css">
	.st0{fill:none;}
	.st1{fill:none;stroke:#000000;stroke-width:0.3;}
	.st2{display:none;}
	.st3{fill:#F9F06C;}
	.st4{opacity:0.2;fill:url(#SVGID_1_);stroke:url(#SVGID_2_);stroke-miterlimit:10;}
	.st5{fill:#F7ED38;}
	.st6{opacity:0.2;fill:url(#SVGID_3_);stroke:url(#SVGID_4_);stroke-miterlimit:10;}
	.st7{fill:#666766;}
	.st8{fill:none;stroke:#666766;stroke-miterlimit:10;}
	.st9{fill:#CB9831;}
	.st10{fill:#FFFFFF;}
	.st11{fill:none;stroke:#CB9831;stroke-miterlimit:10;}
	.st12{fill:#999999;}
	.st13{fill:none;stroke:#51B848;stroke-miterlimit:10;}
	.st14{fill:none;stroke:#EF3B39;stroke-miterlimit:10;}
	.st15{fill:none;stroke:#3953A4;stroke-miterlimit:10;}
	.st16{fill:#F7ED38;stroke:#CCCCCB;stroke-width:0.25;stroke-miterlimit:10;}
	.st17{font-family:'MyriadPro-Regular';}
	.st18{font-size:12px;}
	.st19{fill:#40B549;}
	.st20{font-family:'Candara';}
	.st21{font-size:30px;}
	.st22{fill:none;stroke:#000000;stroke-miterlimit:10;}
</style>
<pattern  width="72" height="72" patternUnits="userSpaceOnUse" id="Grid_1_pica_Lines" viewBox="72.3 -144.3 72 72" style="overflow:visible;">
	<g>
		<rect x="72.3" y="-144.3" class="st0" width="72" height="72"/>
		<g>
			<line class="st1" x1="78.3" y1="-72.5" x2="78.3" y2="0"/>
			<line class="st1" x1="102.3" y1="-72.5" x2="102.3" y2="0"/>
			<line class="st1" x1="126.3" y1="-72.5" x2="126.3" y2="0"/>
			<line class="st1" x1="90.3" y1="-72.5" x2="90.3" y2="0"/>
			<line class="st1" x1="114.3" y1="-72.5" x2="114.3" y2="0"/>
			<line class="st1" x1="138.3" y1="-72.5" x2="138.3" y2="0"/>
		</g>
		<g>
			<line class="st1" x1="144" y1="-78.3" x2="216.5" y2="-78.3"/>
			<line class="st1" x1="144" y1="-102.3" x2="216.5" y2="-102.3"/>
			<line class="st1" x1="144" y1="-126.3" x2="216.5" y2="-126.3"/>
			<line class="st1" x1="144" y1="-90.3" x2="216.5" y2="-90.3"/>
			<line class="st1" x1="144" y1="-114.3" x2="216.5" y2="-114.3"/>
			<line class="st1" x1="144" y1="-138.3" x2="216.5" y2="-138.3"/>
		</g>
		<g>
			<line class="st1" x1="78.3" y1="-144.5" x2="78.3" y2="-72"/>
			<line class="st1" x1="102.3" y1="-144.5" x2="102.3" y2="-72"/>
			<line class="st1" x1="126.3" y1="-144.5" x2="126.3" y2="-72"/>
			<line class="st1" x1="72" y1="-78.3" x2="144.5" y2="-78.3"/>
			<line class="st1" x1="72" y1="-102.3" x2="144.5" y2="-102.3"/>
			<line class="st1" x1="72" y1="-126.3" x2="144.5" y2="-126.3"/>
			<line class="st1" x1="72" y1="-90.3" x2="144.5" y2="-90.3"/>
			<line class="st1" x1="72" y1="-114.3" x2="144.5" y2="-114.3"/>
			<line class="st1" x1="72" y1="-138.3" x2="144.5" y2="-138.3"/>
			<line class="st1" x1="90.3" y1="-144.5" x2="90.3" y2="-72"/>
			<line class="st1" x1="114.3" y1="-144.5" x2="114.3" y2="-72"/>
			<line class="st1" x1="138.3" y1="-144.5" x2="138.3" y2="-72"/>
		</g>
		<g>
			<line class="st1" x1="0" y1="-78.3" x2="72.5" y2="-78.3"/>
			<line class="st1" x1="0" y1="-102.3" x2="72.5" y2="-102.3"/>
			<line class="st1" x1="0" y1="-126.3" x2="72.5" y2="-126.3"/>
			<line class="st1" x1="0" y1="-90.3" x2="72.5" y2="-90.3"/>
			<line class="st1" x1="0" y1="-114.3" x2="72.5" y2="-114.3"/>
			<line class="st1" x1="0" y1="-138.3" x2="72.5" y2="-138.3"/>
		</g>
		<g>
			<line class="st1" x1="78.3" y1="-216.5" x2="78.3" y2="-144"/>
			<line class="st1" x1="102.3" y1="-216.5" x2="102.3" y2="-144"/>
			<line class="st1" x1="126.3" y1="-216.5" x2="126.3" y2="-144"/>
			<line class="st1" x1="90.3" y1="-216.5" x2="90.3" y2="-144"/>
			<line class="st1" x1="114.3" y1="-216.5" x2="114.3" y2="-144"/>
			<line class="st1" x1="138.3" y1="-216.5" x2="138.3" y2="-144"/>
		</g>
	</g>
</pattern>
<pattern  width="54" height="54" patternUnits="userSpaceOnUse" id="USGS_21_Intricate_Surface" viewBox="10.5 -67.3 54 54" style="overflow:visible;">
	<g>
		<rect x="10.5" y="-67.3" class="st0" width="54" height="54"/>
		<g>
			<path d="M33.1-11.8c-0.8,0.5-1.3,4.7-2.1,5.3c-0.3,0.2-0.8,0.7-0.8,0.9c0,0.5-0.3,0.4-0.3,0.9c0,1-0.7,2.3-2.1,2
				c-0.4-0.1-0.7-1,1.4-2.1c0.2-0.1,0-0.9,0.1-1.3c2-5.3,3.9-9.6,4.4-8.3L33.1-11.8z"/>
			<path d="M38.8-10.8c-0.2-0.5-0.4-0.8-0.4-1.2c-1.1,0.2-2.2,0.5-3.3,0.7c-0.9-1,1.1-1.4,2.5-2.1c0.5-0.2,2.2-1.3,2.7-1.4
				C40.1-13.8,39.1-12.1,38.8-10.8z"/>
			<path d="M59.3-8.3c0.2,0.7-0.2,1.3-0.8,1.4c-0.9,0.1-2,0.4-2,0.9c-0.1,1.6-1.2,2.6-2.5,3c1.2-2.3,2.9-3.8,5.2-5.4
				c0.2-0.2-0.1-0.9,0.1-1.3C60-11,62-9.6,62.2-12c0-0.2-0.4-0.5-0.7-0.7c2.1,0.6,1.9-2.1,3.8-2.3c0,0.5,0,1,0,1.5
				c-0.9-0.2-1.5,0.4-2.3,0.7C60.7-11.6,63.1-8.7,59.3-8.3z"/>
			<path d="M14.4-6.8c-0.3-2,2.6-5.8,3.6-7.5c0.5,0.5,0.3,1.3,0.3,1.7c-0.4,2-2.6,3.3-2.6,5.9c-0.6,0.9-0.5,1.6-2.1,1.5L14.4-6.8z"
				/>
			<path d="M21.9-12c0.2-0.9-0.3-1.6-0.8-2.3c0.7-0.2,1.3,0.2,1.4,0.8C22.6-12.9,22.2-12.5,21.9-12z"/>
			<path d="M12.8-12.2c-1.8-0.2-0.2-1.6-0.8-2.3C14.2-14.3,11.4-12.6,12.8-12.2z"/>
			<path d="M24.1-11.1c1.7-1.2,2.3-4.9,4.1-5.7c-1.5,1.2-1.7,4.9-2.9,6.2c-2.3,2.5-5.6,3.8-7.3,6.9C17.5-2.6,18.8-1,17.3,0
				C17-2.4,17-5,18.9-6.6C20.9-8.1,22.1-9.6,24.1-11.1z"/>
			<path d="M47-11.6c-0.4,0.5-1.2-0.1-1.3-0.7c-0.2-1-1.2-2.6-0.1-3c0.9,0.8,1.9,0.8,3,0.8C46-14.5,47.7-12.4,47-11.6z"/>
			<path d="M54.5-10.9c0.2,0.3,0.7-0.1,1-0.4c-1.1-0.6,0.1-2.2-1.2-2.4c-0.5-0.1-1,0.5-1.7,0.4C53.1-12.2,53.9-12,54.5-10.9z"/>
		</g>
		<g>
			<path d="M5.3-8.3c0.2,0.7-0.2,1.3-0.8,1.4c-0.9,0.1-2,0.4-2,0.9C2.4-4.4,1.3-3.4,0-3c1.2-2.3,2.9-3.8,5.2-5.4
				c0.2-0.2-0.1-0.9,0.1-1.3C6-11,8-9.6,8.2-12c0-0.2-0.4-0.5-0.7-0.7c2.1,0.6,1.9-2.1,3.8-2.3c0,0.5,0,1,0,1.5
				c-0.9-0.2-1.5,0.4-2.3,0.7C6.7-11.6,9.1-8.7,5.3-8.3z"/>
		</g>
		<g>
			<path d="M63.8-24.1c0.8-0.3,1.7,0.7,2.1,0.5c2.1-1,2-3.6,4.7-1.4c0,0,0.6-0.4,0.6-0.6c-0.1-0.8-0.9-1.4-0.6-2.2
				c0.2-0.6,0.8-0.7,1.4-0.9c1.9-0.6-0.5-2.5,2.2-3.8c0.3-0.2,0.3-1.4,0-2c-0.8-1.3-2.3-0.8-3.6-0.8c1.3,0.1,2.2-0.6,3-1.5
				c-0.3,0.5-0.5,1-0.8,1.5c1,0.5,2,1,3,1.5c-0.5,0.3-1.2,0.4-1.4,0.8c-0.3,0.9,0.2,2.1-0.3,2.9c-0.1,0.2-1-0.1-1.3,0.2
				c-1.2,1.4-0.6,4-1.8,4.8c-2,1.4-6,1-7,4.1c-0.2,0.6,1.1,1.3,2,1.3c1,0.1,1.9-0.7,2.2-2.1c-0.2,0.9,0.2,1.9,0.8,2.1
				c1.5,0.6,1.4-2.5,2.9-2c0.4,0.1,0.8,0.9,0.7,1.3c-0.1,0.4-0.9,0.7-1.4,0.7c-0.3,0-0.6-0.6-0.7-0.6c-1.5,0.7-3.6,0.5-4.5,2.2
				c-0.2,0.4-0.1,1-0.1,1.5c-0.8-0.1-2.2,0.3-2.1-0.7c0.1-1,1-2,0.5-3c-0.2-0.4-0.9-0.5-1.4-0.8L63.8-24.1z"/>
			<path d="M65.3-33.2c-1.6,0.2-0.7-0.9-0.8-1.5C64.8-34.2,65-33.7,65.3-33.2z"/>
			<path d="M64.9-57.9c-0.1,2.4-0.2,1.6-2.6,2.4c0.5-0.3,2-0.9,2.1-1.3c0.2-0.8-0.1-1.1,0.3-1.8c-0.2-0.8-1.5-0.7-0.8-1.8
				c1-1.5,0.2-3.7,2.1-4.5c0.4-0.2,0.2,0.5,0.7,0.5C66.8-62.4,65-60.1,64.9-57.9z"/>
			<path d="M63-30c0.5-1.5,1.8-1.3,3-1.5C65.3-30.5,64.1-30.3,63-30z"/>
		</g>
		<g>
			<path d="M16.1-38.3c-0.2,0.1-0.5,0-0.7,0c0.4-0.8,0.7-1.7,1.5-2.3c0.3,0.5,0.7,1.1,0.6,1.5C17.4-38.6,16.7-38.4,16.1-38.3z"/>
			<path d="M33.1-65.8c-0.8,0.5-1.3,4.7-2.1,5.3c-0.3,0.2-0.8,0.7-0.8,0.9c0,0.5-0.3,0.4-0.3,0.9c0,1-0.7,2.3-2.1,2
				c-0.4-0.1-0.7-1,1.4-2.1c0.2-0.1,0-0.9,0.1-1.3c2-5.3,3.9-9.6,4.4-8.3L33.1-65.8z"/>
			<path d="M24.8-57.3c-0.7-0.2-1.7-1.1-1.6-1.3C24.1-61,25-62,25.9-62c0.9,0-1.2,1.4-1.7,2.5c-0.5,1,1.9,2.5,1.5,3.1
				C25.3-55.8,25.3-56.7,24.8-57.3z"/>
			<path d="M22.5-56.3c-0.6,1.9-0.4,2.1-3,3c0.8-0.2,0.6,0.1,0.8-2.3C20.3-55.8,22-56,22.5-56.3z"/>
			<path d="M20.2-47.3c-0.2,0.5-0.5,1.3-0.7,1.3c-2,0.2-2.4,1.7-3,3.2c1.3,0.4,2.2,1.7,3.8,1.5c-0.7,0.4-1.5,1.1-2.2,0.6
				c-0.3-0.2,0-1.2-0.1-1.2c-2.9-1-2.2-3.1-0.6-4.5c0.2-0.1,1,0.6,1.3,0.5c1.3-0.7-0.5-4.5,0.8-3.6c0.7,0.7,1.7,1.5,2.8-0.1
				c0.5-0.7,0.2-1.9,0.2-2.9c0.4-0.8,2.1-0.3,2.1,0.8C24.7-49.2,21.1-49.5,20.2-47.3z"/>
			<path d="M29.2-49.5c-0.2,0.3-0.5,0.7-0.7,0.7c-0.3,0-0.5-0.4-0.8-0.7c0.5-0.3,1.3-0.5,1.3-0.8c0.1-1.5-0.2-3.2-2.1-3.7
				C30-54.9,30.9-51.6,29.2-49.5z"/>
			<path d="M32.4-48c0.3-3.9-0.5-6,3.6-4.5c0.9,1.3-1.8,0.2-2.1,0.8c-0.2,0.3,1.7,1.1,1.6,1.4c-0.1,0.4-2.1,0.4-2.3,0.8
				c-0.4,0.7,0.3,1.5,0.7,2.2C33.2-47.5,32.4-47.8,32.4-48z"/>
			<path d="M36.7-47.4c-0.1,0.1-0.5-0.4-0.7-0.6c0.8-0.4,1.3-2.1,2.1-1.3C38.8-48.6,37.5-47.1,36.7-47.4z"/>
			<path d="M26-40.6c-0.4,0.5-1.2-0.1-1.3-0.7c-0.2-1-1.2-2.6-0.1-3c0.9,0.8,1.9,0.8,3,0.8C25-43.5,26.7-41.4,26-40.6z"/>
			<path d="M41.5-51.2c2.8-0.4,3.1-2.8,4.6-4.2c0.3-0.3,1,0.1,1.4-0.2c0.9-0.7,1-1.8,0.8-2.9c1.3,1.7,2.6-0.6,3.6,0.2
				c1.7,1.5,1.5,4,3.9,5c-0.4,1.9-2.1,2.9-3,4.5c0.8-2.6,2.8-5.4-0.8-6.8c0.3-0.3,0.7-0.5,0.7-0.8c0-0.5-0.3-1.2-0.7-1.4
				c-0.9-0.4-2.3-0.3-2.8,0.7c-0.9,1.8-1.5,1.9-2.9,3.2c-0.7,0.6,0,2.4-1,3.5c-0.3-0.3-0.6-0.8-0.7-0.7c-1,1.8-2.3,1.6-2.6,0.5
				L41.5-51.2z"/>
			<path d="M40.9-55L40.9-55c-0.2-0.2-1.3,0.4-1.3,0.7c-0.1,1.6-0.4,3.3-2.4,3c2.4-2,3.1-4.9,4.4-7.5c0.4-0.9-2.7-3.1-1.4-3.9
				l2.3,0.9c0.7-0.7,1.4-1.2,3,0c-1.1,0-2.3-0.2-2.9,0.8c-0.9,1.7-0.1,2.6-0.3,4.4c0,0.3-1.1,0.4-1.2,0.8C41-55.5,40.9-55.2,40.9-55
				z"/>
			<path d="M38.8-64.8c-0.2-0.5-0.4-0.8-0.4-1.2c-1.1,0.2-2.2,0.5-3.3,0.7c-0.9-1,1.1-1.4,2.5-2.1c0.5-0.2,2.2-1.3,2.7-1.4
				C40.1-67.8,39.1-66.1,38.8-64.8z"/>
			<path d="M48.8-26.3c0.5-1.1,1.4-0.7,2.3-0.8C50.5-26.1,49.6-26.1,48.8-26.3z"/>
			<path d="M58.1-65.2c-0.5,4.3-0.6,0-0.8,0c0.7-0.3,1.8-0.2,1.5-1.5C58.5-66.2,58.1-65.8,58.1-65.2z"/>
			<path d="M59.3-62.3c0.2,0.7-0.2,1.3-0.8,1.4c-0.9,0.1-2,0.4-2,0.9c-0.1,1.6-1.2,2.6-2.5,3c1.2-2.3,2.9-3.8,5.2-5.4
				c0.2-0.2-0.1-0.9,0.1-1.3C60-65,62-63.6,62.2-66c0-0.2-0.4-0.5-0.7-0.7c2.1,0.6,1.9-2.1,3.8-2.3c0,0.5,0,1,0,1.5
				c-0.9-0.2-1.5,0.4-2.3,0.7C60.7-65.6,63.1-62.7,59.3-62.3z"/>
			<path d="M61.4-56.3c-0.2,0.9-0.6,2-1.5,2.1c-0.7,0.1-1.5,1.1-2.2-1.4c2.3,0.7,3-1.2,3.8-3C61.5-57.7,61.6-57,61.4-56.3z"/>
			<path d="M57.8-48.7c-0.2,0.4-0.1,1-0.1,1.5c-0.8-0.9-1.1-2.1-0.6-2.9c0.3-0.4,1.3-0.1,2.1-0.1C58.7-49.7,58.1-49.3,57.8-48.7z"/>
			<path d="M45.3-45c0-0.5,0.3-1.2,0.1-1.4c-0.8-0.5-1.9-0.3-2.9-0.4c0.3-0.2,0.5-0.5,0.8-0.6c0.9-0.2,1.7,0.9,2,0.7
				c1.9-1.1,4.2-4.7,5.8-6.3c0.2,0.3-1,2.6-1,2.7C48.2-48.1,47-47.2,45.3-45z"/>
			<path d="M49.3-43.1c-0.7-0.4-2-0.4-1.3-1.5c1.3-2.2,4.1-2.2,5.9-3.8c0.4,2.1,3.2,1.6,4.4,3.1c0.3,0.3,0,0.9,0.1,1.4
				c0.2,0.8,0.2,1.8,1.5,1.5c-0.3,0.3-0.5,0.5-0.8,0.8c-1.3-2-1.6,0.2-3,0c0.5-0.3,1.3-0.4,1.4-0.8c0.4-1.2,0.5-2.7-0.7-3.7
				c-0.4-0.4-1.1-0.8-1.4-0.6c-0.9,0.5-1,1.7-0.8,2.9c-1.2-1.1-1.8-3.8-3.6-2.8c-0.6,0.3-1.3,1.2-2.1,2.2c-1.1,1.3,2.4,0.9,2,2.8
				C50.3-42.1,49.9-42.7,49.3-43.1z"/>
			<path d="M42.3-42.8c0.1,0.2,1-0.3,1.2-0.1c0.5,0.5,1.8,1.1,2,1.9c0.4-0.3,1.2-0.7,1.2-1c0-1-2.5-1.2-3.9-1.7
				c-0.7-0.2-1.2-1-1.2-1.9C41.8-44.7,41.8-43.5,42.3-42.8z"/>
			<path d="M38.9-43.2c0.5,1.6-0.8,1.1-1.4,0.2c-0.4-0.9-0.9-3.7,1.5-3.8c0.2,0,0.5,0.4,0.7,0.7C39.2-45.8,37.2-48.8,38.9-43.2z"/>
			<path d="M14.4-60.8c-0.3-2,2.6-5.8,3.6-7.5c0.5,0.5,0.3,1.3,0.3,1.7c-0.4,2-2.6,3.3-2.6,5.9c-0.6,0.9-0.5,1.6-2.1,1.5L14.4-60.8z
				"/>
			<path d="M11.8-52.9c2.3-1.3,0-1.4,2.7-2.6c1.3,0.4,1.6,2,1.7,3.4c0,0.3-0.4,1.4-0.4,1.9c-0.3-0.5-0.5-1-0.8-1.5
				c-0.3-0.5-0.5-1.8-0.6-1.8C13-53.8,11.8-52.9,11.8-52.9z"/>
			<path d="M27.6-64.9c0-0.5,0-1,0-1.5c0.7,0.4,1.4,0.9,2.3,0.8C29.1-65.4,28.4-65.2,27.6-64.9z"/>
			<path d="M14.3-45.9c0.5,1.6-0.8,1.1-1.4,0.2c-0.4-0.9-0.9-3.7,1.5-3.8c0.2,0,0.5,0.4,0.7,0.7C14.7-48.5,12.6-51.5,14.3-45.9z"/>
			<path d="M9.8-24.1c0.8-0.3,1.7,0.7,2.1,0.5c2.1-1,2-3.6,4.7-1.4c0,0,0.6-0.4,0.6-0.6c-0.1-0.8-0.9-1.4-0.6-2.2
				c0.2-0.6,0.8-0.7,1.4-0.9c1.9-0.6-0.5-2.5,2.2-3.8c0.3-0.2,0.3-1.4,0-2c-0.8-1.3-2.3-0.8-3.6-0.8c1.3,0.1,2.2-0.6,3-1.5
				c-0.3,0.5-0.5,1-0.8,1.5c1,0.5,2,1,3,1.5c-0.5,0.3-1.2,0.4-1.4,0.8c-0.3,0.9,0.2,2.1-0.3,2.9c-0.1,0.2-1-0.1-1.3,0.2
				c-1.2,1.4-0.6,4-1.8,4.8c-2,1.4-6,1-7,4.1c-0.2,0.6,1.1,1.3,2,1.3c1,0.1,1.9-0.7,2.2-2.1c-0.2,0.9,0.2,1.9,0.8,2.1
				c1.5,0.6,1.4-2.5,2.9-2c0.4,0.1,0.8,0.9,0.7,1.3c-0.1,0.4-0.9,0.7-1.4,0.7c-0.3,0-0.6-0.6-0.7-0.6c-1.5,0.7-3.6,0.5-4.5,2.2
				c-0.2,0.4-0.1,1-0.1,1.5c-0.8-0.1-2.2,0.3-2.1-0.7c0.1-1,1-2,0.5-3c-0.2-0.4-0.9-0.5-1.4-0.8L9.8-24.1z"/>
			<path d="M20.7-16.7c0.4-0.1,0.5-0.9,0.8-1.4c0.5,0.3,1,0.5,1.5,0.8c1.3-3.2,3.6-7.4,7.5-7.5c0,0.5,0,1,0,1.5
				c-0.9-0.2-1.8,0.2-2.1,0.8c-0.7,1.2,1.6,1.9-0.1,3.7c0-1.3,0.4-3.1-0.8-3.5c-1.5-0.5-2.5,1.9-2.2,3.5c-0.5,0-1.3-0.1-1.4,0.1
				c-0.9,2-3.3,2.4-3.9,4.4c-1.2-1.3-3.4-1.6-3.8-3.7C18.1-18.6,19.1-16.1,20.7-16.7z"/>
			<path d="M11.3-33.2c-1.6,0.2-0.7-0.9-0.8-1.5C10.8-34.2,11-33.7,11.3-33.2z"/>
			<path d="M15.1-33.3c0.6,0.8,0.8,1.5,0.6,2.3c-0.5-0.3-1.3-0.5-1.3-0.7c0.1-1.7-1.5-2.9-0.9-4.5C14.5-35.5,14.5-34.2,15.1-33.3z"
				/>
			<path d="M11.3-37.7c-0.2-1.7,1.1-0.3,1.5-0.8C12.2-38.2,11.7-37.9,11.3-37.7z"/>
			<path d="M24.8-36.2c-0.1,2.5,1.8,4,3.7,5.2c-0.6-0.8-1.4-1.3-2.3-1.4c-0.2,0-0.5,0.6-0.7,0.6c-0.5,0-1.3-0.4-1.3-0.7
				c-0.1-1.5-0.8-2.9,0.5-4.6c0.2-0.2-0.4-0.9-0.6-1.4c-0.5,0.3-1,0.5-1.5,0.8c-0.5-1-1-2-1.5-3c2.3,0.3,2.6,3,4.5,3.8
				C25.2-36.7,24.8-36.4,24.8-36.2z"/>
			<path d="M29.6-32.7c1.3,0.1,1.3-0.9,1.3-1.6c0-0.7-0.5-1,1.2-2.6c0.3-0.3,0.4-1.4,0.7-2.1c0.3,0.2,0.5,0.4,0.8,0.7
				c-0.5,0.3-1.2,0.5-1.3,0.9c-0.2,0.6,0.3,1.7,0,2.1c-0.6,0.7-1.8,1.1-1.8,2.6c0,0.2,0.7,0.5,0.6,0.6c-0.4,1.1-0.5,2-0.4,3.1
				C29.2-29.9,29.7-31.4,29.6-32.7z"/>
			<path d="M37-35.5c-1.3,1.6-2.9-0.1-3.8,1.9c1.3-0.5,0.5,0.4,3,0.8c-0.1-0.6-0.3-1.4-0.1-1.5c2.4-1.4,1.2-4.5,3-6.4
				c-0.3-0.1-0.7-0.2-1-0.2c0.1,0.6-0.7,2.9-0.9,3.1C35.4-36.8,38-36.9,37-35.5z"/>
			<path d="M31.6-26.6c-1.8-1.5-1.8,0.4-3.1,0.2c0.3-0.5,0.5-1,0.8-1.5c1.3,1.7,2.6-0.6,3.6,0.2C33.6-27.1,31.9-26.4,31.6-26.6z"/>
			<path d="M33.1-22.6c0,0.3-1,0.4-1.2,0.8c-1,2.2-0.3,2.8,0.7,4.4c-0.7,0.2-1.3-0.2-1.4-0.8c-0.2-1.3,0.6-1.2-0.7-2.4
				c-0.4-0.4,1.3-1.3,1.7-2.2c0.6-1.6,1.9-2.1,2.8-3.5c0.3-0.5,1.3,0.2,1.2,0.6C35.9-23.9,33.3-26.2,33.1-22.6z"/>
			<path d="M33.5-59.3c-0.4-0.3,0.3-0.9,0.9-1.2c0.6,1.5,3.2,0.4,3.2,2.1c0,0.6-0.9,1.2-1,2.1C35.2-57.3,35.1-58.2,33.5-59.3z"/>
			<path d="M39.8-26.8c0.8,1.6-1.2,1-1.5,1.8C37.2-26.9,40.1-25.5,39.8-26.8z"/>
			<path d="M41.6-26c0.5,0.2,1,0.5,1.5,0.7c0.2-0.5,0.8-1.1,0.6-1.4c-1-2.2,0.3-4.4,1-6.4c1,0.4,1.8,0,2.2-0.8
				c0.9-1.8,2.8-4.6,3-6.7c-0.6,0.1-1.4,0.1-1.5,0.4c-0.9,3.2-3.6,8.1-7.1,8.9c-0.1,0-0.2,0.6-0.1,0.9c0.3,0.8,1.5,0.9,1.8,1.4
				C43.4-27.9,42.3-26.9,41.6-26z"/>
			<path d="M39.9-35.4c0.1,0.5-0.3,1.1,0.2,1.6c0.9-2.2,0.9-4.6,3.3-6.3c-0.9-0.7-1.6,0.1-2.3,0.5C42.2-37.8,39.4-37.3,39.9-35.4z"
				/>
			<path d="M44.3-20.4c-0.6,1.2,1.5,2.9,2.1,2.7c0.8-0.2,2-0.8,1.6-2.8c3.1,0.2,6.8,3.3,4.3,5.8c-0.5,0.5-1.9-0.2-2.8-0.6
				c1.7-0.3,2.8-2.2,2.1-3.7c-0.3-0.6-1.2-0.9-2.1-0.8c-2,0.2-1.1,2-2.3,3c-0.4,0.4-1,0.7-1.5,0.7c-0.9-0.1-1.6-0.9-2.3-1.3
				c-0.3-0.2-1.1,0.3-1.3,0.7c-0.4,0.8-0.3,1.7,0.7,2.2c-1.3,0.3-1.5-0.9-1.3-1.5c0.3-1.4,2.8-1.2,2.8-3c0-1-0.7-1.9-2.2-2.3
				c3.3,0.7,2.5-2.9,4.9-3.7c1.5-0.5,0.8,0.8,0.6,1.4C47.1-22.1,45-21.7,44.3-20.4z"/>
			<path d="M49.3-29.6c-0.5,0.1-1,0.5-1.5,0.7c1.2-0.8,0.1-2.1,2.1-3.2c0.5-0.3,0.3-1.5-0.6-2c0.3-0.3,0.5-0.5,0.8-0.8
				c-0.3,1.8,0.4,3.5,0.8,5.3C50.2-29.7,49.7-29.8,49.3-29.6z"/>
			<path d="M54.7-32.9c0,0.5-0.4,1-0.7,1.5c-0.3-0.3-0.7-0.6-0.6-0.7c0.5-1,0.7-2,0.6-3.1C54.3-34.4,54.7-33.7,54.7-32.9z"/>
			<path d="M53.6-38.6c-1.3,0.3-1.4-0.8-1.4-1.5c0-0.5,0.8-1.1,1.3-0.7c0.5,0.5,0,1.7,2.3,1.4C55.1-39.1,54.4-38.8,53.6-38.6z"/>
			<path d="M57.6-38.2c-0.7,0.8-1,3-2,2C54.7-37.2,56.7-37.5,57.6-38.2z"/>
			<path d="M57.6-18.2c-0.2,0.9-0.5,2.8-2,2.1c-0.2-0.1-0.1-0.9-0.1-1.4c1.3,0.1,2.7-0.3,2.8-2.3c0-0.2-1.1-0.4-1.2-0.8
				c-0.1-0.7-1.1-1.5,1.4-2.2C57.5-21.3,57.9-19.7,57.6-18.2z"/>
			<path d="M10.9-57.9c-0.1,2.4-0.2,1.6-2.6,2.4c0.5-0.3,2-0.9,2.1-1.3c0.2-0.8-0.1-1.1,0.3-1.8c-0.2-0.8-1.5-0.7-0.8-1.8
				c1-1.5,0.2-3.7,2.1-4.5c0.4-0.2,0.2,0.5,0.7,0.5C12.8-62.4,11-60.1,10.9-57.9z"/>
			<path d="M59-33.1c0.3-3.9-0.5-6,3.6-4.5c0.9,1.3-1.8,0.2-2.1,0.8c-0.2,0.3,1.7,1.1,1.6,1.4C61.9-35,60-35,59.7-34.6
				c-0.4,0.7,0.3,1.5,0.7,2.2C59.9-32.7,59-32.9,59-33.1z"/>
			<path d="M57.4-28.7c-1.3-0.2-1.3,0.8-1.4,1.5c0,0.2,0.6,0.6,0.6,0.7c-0.7,1.6-2.4,0.5-3.6,0.8c0.5,0,1.2,0.2,1.4-0.1
				c0.9-1.4,2.8-3.6,0.9-5.2c1,1.2,3.2,0.4,3.8,2.3C58.4-28.7,57.9-28.6,57.4-28.7z"/>
			<path d="M53.8-21.7c-1.5,0.1-3.3,0.6-4.9,0.2c0.3-0.3,1.1-0.8,1.3-0.8c0.5,0,0.5,0.7,0.9,0.6c0.4-0.1,0.5-1.2,0.8-1.2
				c1.6-0.1,3-0.8,4.5-0.9c-0.3,0.5-0.4,1.2-0.8,1.4C55-22,54.6-21.7,53.8-21.7z"/>
			<path d="M60.8-25.3c-0.2,0.5-1-0.1-1.3-0.7c1.4-0.9-0.1-3.2,1.5-3.6c0.6-0.1,1.3,0.7,2.2,0.6C62.4-27.3,61.5-27,60.8-25.3z"/>
			<path d="M32-44.6c-1.3-0.2-1.3,0.8-1.4,1.5c0,0.2,0.6,0.6,0.6,0.7c-0.7,1.6-2.4,0.5-3.6,0.8c0.5,0,1.2,0.2,1.4-0.1
				c0.9-1.4,2.8-3.6,0.9-5.2c1,1.2,3.2,0.4,3.8,2.3C33-44.6,32.5-44.5,32-44.6z"/>
			<path d="M27-36.6c0.5-1.5,1.8-1.3,3-1.5C29.3-37,28.1-36.9,27-36.6z"/>
			<path d="M12.9-40.6c-0.1,0.1-0.5-0.4-0.7-0.6c0.8-0.4,1.3-2.1,2.1-1.3C15-41.8,13.7-40.3,12.9-40.6z"/>
			<path d="M12.8-28.3c0.5-1.1,1.4-0.7,2.3-0.8C14.5-28.1,13.6-28.2,12.8-28.3z"/>
			<path d="M37.8-28.7c-0.5,0.5-0.4,0.6-0.7,0.7c-0.8,0.3-1.5-0.3-2.2-0.7c2.6,0.5,3.6-1.5,3-3.8c0.5,0.3,1.3,0.5,1.3,0.8
				C39.2-30.7,38.4-29.7,37.8-28.7z"/>
			<path d="M50.7-61c-0.5,0.5-0.4,0.6-0.7,0.7c-0.8,0.3-1.5-0.3-2.2-0.7c2.6,0.5,3.6-1.5,3-3.8c0.5,0.3,1.3,0.5,1.3,0.8
				C52.1-63,51.3-62,50.7-61z"/>
			<path d="M26.3-27.6c0.2-0.9-0.3-1.6-0.8-2.3c0.7-0.2,1.3,0.2,1.4,0.8C26.9-28.5,26.5-28.1,26.3-27.6z"/>
			<path d="M21.9-66c0.2-0.9-0.3-1.6-0.8-2.3c0.7-0.2,1.3,0.2,1.4,0.8C22.6-66.9,22.2-66.5,21.9-66z"/>
			<path d="M9-30c0.5-1.5,1.8-1.3,3-1.5C11.3-30.5,10.1-30.3,9-30z"/>
			<path d="M12.8-66.2c-1.8-0.2-0.2-1.6-0.8-2.3C14.2-68.3,11.4-66.6,12.8-66.2z"/>
			<path d="M65.1-45c-0.1,0.9-1.8,1.1-1.8,1.6c-0.2,1.9-0.9,2.2-1.8,3.7c-0.3-0.3-0.7-0.5-0.7-0.8c0-1,1.5-1.6,1.8-2.4
				c0.9-2.4,0.7-6.2,1.3-7.2c0.2,0.1,1.4-1.2,1.8-1.6L65.1-45z"/>
			<path d="M24.1-65.1c1.7-1.2,2.3-4.9,4.1-5.7c-1.5,1.2-1.7,4.9-2.9,6.2c-2.3,2.5-5.6,3.8-7.3,6.9c-0.6,1.1,0.7,2.7-0.8,3.7
				c-0.3-2.4-0.2-5,1.7-6.6C20.9-62.1,22.1-63.6,24.1-65.1z"/>
			<path d="M44.5-66.1c-0.7,0.8-1,3-2,2C41.5-65,43.6-65.4,44.5-66.1z"/>
			<path d="M47-65.6c-0.4,0.5-1.2-0.1-1.3-0.7c-0.2-1-1.2-2.6-0.1-3c0.9,0.8,1.9,0.8,3,0.8C46-68.5,47.7-66.4,47-65.6z"/>
			<path d="M54.5-64.9c0.2,0.3,0.7-0.1,1-0.4c-1.1-0.6,0.1-2.2-1.2-2.4c-0.5-0.1-1,0.5-1.7,0.4C53.1-66.2,53.9-66,54.5-64.9z"/>
			<path d="M31.3-54.3c0.5-1.5,1.8-1.3,3-1.5C33.5-54.8,32.4-54.6,31.3-54.3z"/>
			<path d="M61.5-51.6c0.5-1.1,1.4-0.7,2.3-0.8C63.2-51.4,62.4-51.4,61.5-51.6z"/>
			<path d="M66-16.7c-0.8-0.1-2.2,0.3-2.1-0.7c0.1-1,1-2,0.5-3c-0.2-0.4-0.9-0.5-1.4-0.8c-0.8,2.3-3.3,3.4-3.8,6
				c-0.1,0.8-0.5,2.1-1.3,1.3c-0.8-0.8,1.1-1,1.1-1.3c0.2-2.9,1.9-4.9,3.8-6.9c0.4-0.4-0.1-1.7,0.9-2c0.8-0.3,1.7,0.7,2.1,0.5
				l-0.1,0.3c-0.8,0.5-1.5,1.1-1.8,2.2c-0.2,0.6,1.1,1.3,2,1.3L66-16.7z"/>
			<path d="M37.3-60.8c0.2-0.9-0.3-1.6-0.8-2.3c0.7-0.2,1.3,0.2,1.4,0.8C37.9-61.8,37.5-61.3,37.3-60.8z"/>
			<path d="M34.7-44.4c1.7,0,0.1,1.1,0.5,1.6C35.1-43.3,34.9-43.9,34.7-44.4z"/>
			<path d="M60.8-45.6c0.2-0.9-0.3-1.6-0.8-2.3c0.7-0.2,1.3,0.2,1.4,0.8C61.4-46.5,61-46.1,60.8-45.6z"/>
			<path d="M54.3-59.8c0-0.9,0.6-1.5,1.1-2.1c-0.7-0.3-1.4,0-1.5,0.6C53.7-60.8,54.1-60.3,54.3-59.8z"/>
			<path d="M19.8-64.4c0.8,1.6-1.2,1-1.5,1.8C17.2-64.5,20.1-63.1,19.8-64.4z"/>
			<path d="M46-58.3c-1.6,0.2-0.7-0.9-0.8-1.5C45.5-59.3,45.7-58.8,46-58.3z"/>
			<path d="M36.5-17c1.3-0.3,0.9-1.3,0.7-2c-0.1-0.2-0.8-0.3-0.8-0.4c0.1-1.7,2-1.4,3-2.2c-0.5,0.2-1.2,0.3-1.2,0.6
				c-0.3,1.6-1.2,4.4,1.2,5.1c-1.4-0.8-3.1,0.9-4.3-0.6C35.6-16.6,36-16.8,36.5-17z"/>
			<path d="M21.8-42.8c-1.6,0.2-0.7-0.9-0.8-1.5C21.3-43.8,21.5-43.3,21.8-42.8z"/>
			<path d="M24-48.3c0.5-1.1,1.4-0.7,2.3-0.8C25.7-48.1,24.9-48.2,24-48.3z"/>
			<path d="M45.5-36.8c-1.6,0.2-0.7-0.9-0.8-1.5C45-37.8,45.2-37.3,45.5-36.8z"/>
			<path d="M41-22.3c0.1-0.6-0.3-1-0.6-1.5c0.6-0.1,1.1,0.1,1.1,0.5C41.5-22.9,41.2-22.6,41-22.3z"/>
			<path d="M35.6-22.1c-0.5,4.3-0.6,0-0.8,0c0.7-0.3,1.8-0.2,1.5-1.5C36-23.1,35.6-22.6,35.6-22.1z"/>
			<path d="M20.1-28.1c2.5-0.8,0.3-1.4,3.2-2c1.2,0.6,1.2,2.3,1,3.7c0,0.3-0.7,1.3-0.8,1.8c-0.1-0.5-0.3-1.1-0.4-1.6
				c-0.1-0.6-0.1-1.8-0.2-1.9C21.5-28.7,20.1-28.1,20.1-28.1z"/>
			<path d="M20.8-21.6c0.3,1.3,1.4,0.8,2,0.5c0.5-0.3,0.6-1.3-0.1-1.5c-0.7-0.2-1.5,0.8-2.4-1.3C20.5-23.1,20.6-22.4,20.8-21.6z"/>
		</g>
		<g>
			<path d="M5.3-62.3c0.2,0.7-0.2,1.3-0.8,1.4c-0.9,0.1-2,0.4-2,0.9c-0.1,1.6-1.2,2.6-2.5,3c1.2-2.3,2.9-3.8,5.2-5.4
				c0.2-0.2-0.1-0.9,0.1-1.3C6-65,8-63.6,8.2-66c0-0.2-0.4-0.5-0.7-0.7c2.1,0.6,1.9-2.1,3.8-2.3c0,0.5,0,1,0,1.5
				c-0.9-0.2-1.5,0.4-2.3,0.7C6.7-65.6,9.1-62.7,5.3-62.3z"/>
			<path d="M11.1-45c-0.1,0.9-1.8,1.1-1.8,1.6c-0.2,1.9-0.9,2.2-1.8,3.7c-0.3-0.3-0.7-0.5-0.7-0.8c0-1,1.5-1.6,1.8-2.4
				c0.9-2.4,0.7-6.2,1.3-7.2c0.2,0.1,1.4-1.2,1.8-1.6L11.1-45z"/>
			<path d="M12-16.7c-0.8-0.1-2.2,0.3-2.1-0.7c0.1-1,1-2,0.5-3c-0.2-0.4-0.9-0.5-1.4-0.8c-0.8,2.3-3.3,3.4-3.8,6
				c-0.1,0.8-0.5,2.1-1.3,1.3c-0.8-0.8,1.1-1,1.1-1.3c0.2-2.9,1.9-4.9,3.8-6.9c0.4-0.4-0.1-1.7,0.9-2c0.8-0.3,1.7,0.7,2.1,0.5
				l-0.1,0.3c-0.8,0.5-1.5,1.1-1.8,2.2c-0.2,0.6,1.1,1.3,2,1.3L12-16.7z"/>
		</g>
	</g>
</pattern>
<g id="Layer_1" class="st2">
	
		<image style="display:inline;overflow:visible;opacity:0.2;" width="500" height="268" xlink:href="AC1B3B9B.jpg"  transform="matrix(1 0 0 1 48 287.89)">
	</image>
</g>
<g id="Layer_2">
	<path class="st3" d="M162,462.8l-8,1.9c0,0,11,17.3,22.3,25.7c11.3,8.3,21,15,38.3,15s49.3-6,59.7-19.7c10.3-13.7,5.3-9,5.3-9
		s-3.7-13.3-19.7-9.3s-42.7,4.5-56,3.4s-45-5.8-46-7.4"/>
	<pattern  id="SVGID_1_" xlink:href="#USGS_21_Intricate_Surface" patternTransform="matrix(1 0 0 1 -13 -4.6667)">
	</pattern>
	<pattern  id="SVGID_2_" xlink:href="#Grid_1_pica_Lines" patternTransform="matrix(1 0 0 1 -13 -58.6667)">
	</pattern>
	<path class="st4" d="M160.7,462.4l-8,1.9c0,0,11,17.3,22.3,25.7s21,15,38.3,15s49.3-6,59.7-19.7c10.3-13.7,5.3-9,5.3-9
		s-3.7-13.3-19.7-9.3s-42.7,4.5-56,3.4c-13.3-1.1-45-5.8-46-7.4"/>
	<path class="st5" d="M266.5,464.5c0,0,4.5-53.8-3.5-63.3s-20-13-24.5-15S203,364,201.8,364.8s5.8,21.8,5,28s2.5,32.8-5.3,45
		S176,463.8,163,463s32,7.5,41,7.8S247.8,472.3,266.5,464.5z"/>
	<pattern  id="SVGID_3_" xlink:href="#USGS_21_Intricate_Surface" patternTransform="matrix(1 0 0 1 -1 0)">
	</pattern>
	<pattern  id="SVGID_4_" xlink:href="#Grid_1_pica_Lines" patternTransform="matrix(1 0 0 1 -1 0)">
	</pattern>
	<path class="st6" d="M265.5,464.3c0,0,4.5-53.8-3.5-63.3s-20-13-24.5-15s-35.5-22.3-36.8-21.5s5.8,21.8,5,28s2.5,32.8-5.3,45
		s-25.5,26-38.5,25.3s32,7.5,41,7.8S246.8,472,265.5,464.3z"/>
	<g>
		<path class="st7" d="M172.3,436.6c3.1-5.1,4.5-11,5.4-16.9c0.8-5.9,1-11.8,0.8-17.8c-0.2-5.9-0.7-11.8-1.3-17.8
			c-0.6-5.9-1-11.9-1.5-17.8c-0.5-5.9-0.8-11.9-1.5-17.8c-0.4-2.9-0.8-5.9-1.5-8.7c-0.4-1.4-0.9-2.8-1.6-4.1
			c-0.4-0.6-0.9-1.2-1.5-1.5c-0.6-0.4-1.3-0.6-2-0.4c-1.4,0.2-2.7,1-3.9,1.9c-1.1,0.9-2.1,2.1-2.8,3.4c-0.8,1.3-1.3,2.6-1.8,4
			c-0.5,1.4-0.8,2.8-1.1,4.3c-1.1,5.8-1.2,11.8-1.3,17.7c0,5.9,0.2,11.9,0,17.9c-0.1,1.5-0.2,3-0.3,4.5c-0.1,1.5-0.1,3-0.1,4.4
			c0,3,0.2,5.9,0.3,8.9c0,1.5,0,3-0.3,4.5c-0.3,1.5-0.9,3.1-2.2,4.1c-1.3,1-2.9,1.4-4.4,1.5c-0.8,0.1-1.5,0.1-2.3,0.1
			c-0.7,0-1.4,0-2.2,0.1c-1.4,0.2-2.8,0.7-3.8,1.5c-1,0.9-1.7,2.2-2,3.5c-0.7,2.8-0.4,5.8,0,8.7c0.9,5.8,2.6,11.6,4.1,17.3
			c0.8,2.9,1.7,5.7,2.8,8.4c1.2,2.7,2.5,5.4,4.5,7.5c1,1,2.3,1.8,3.7,2c1.4,0.2,2.8-0.3,4-1.1c2.4-1.6,4.3-4,5.9-6.5
			c1.6-2.5,3.1-5.1,4.4-7.8C170,442.1,171.1,439.4,172.3,436.6z M172.4,436.7c-2.2,5.5-4.7,11-7.8,16c-1.6,2.5-3.4,5-5.9,6.7
			c-1.2,0.9-2.8,1.5-4.4,1.3c-1.6-0.2-3-1-4.1-2.1c-2.2-2.1-3.6-4.9-4.8-7.6c-1.2-2.8-2.1-5.6-3-8.5c-0.8-2.9-1.6-5.7-2.4-8.6
			c-0.7-2.9-1.4-5.8-1.8-8.8c-0.4-3-0.7-6,0-9.1c0.4-1.5,1.1-3,2.4-4.1c1.2-1.1,2.8-1.6,4.3-1.8c0.8-0.1,1.6-0.1,2.3-0.1
			c0.7,0,1.5,0,2.2-0.1c1.4-0.1,2.8-0.5,3.9-1.3c1.1-0.8,1.7-2.1,1.9-3.5c0.3-1.4,0.3-2.9,0.3-4.4c0-3-0.2-5.9-0.2-8.9
			c0-1.5,0-3,0.1-4.5c0.1-1.5,0.3-3,0.3-4.4c0.3-5.9,0.2-11.9,0.3-17.8c0.1-5.9,0.3-11.9,1.4-17.8c0.3-1.5,0.7-2.9,1.2-4.3
			c0.5-1.4,1.1-2.8,1.9-4.1c0.8-1.3,1.7-2.5,2.9-3.4c1.2-0.9,2.5-1.8,4-2c0.8-0.1,1.6,0.1,2.2,0.5c0.7,0.4,1.2,1,1.6,1.6
			c0.8,1.3,1.3,2.7,1.7,4.2c0.8,2.9,1.3,5.8,1.7,8.8c0.8,5.9,1.3,11.8,1.8,17.8l1.5,17.8c0.6,5.9,1.1,11.9,1.1,17.8
			c0.1,6-0.2,11.9-1.2,17.8C177,425.7,175.6,431.6,172.4,436.7z"/>
	</g>
	<path class="st8" d="M128.3,357"/>
	<g>
		<path class="st7" d="M152.7,463.3c1.6,2.8,3.5,5.5,5.4,8.2c1.9,2.6,4,5.2,6.1,7.6c2.1,2.5,4.4,4.8,6.8,7c1.2,1.1,2.4,2.2,3.6,3.3
			c1.3,1,2.5,2.1,3.8,3c2.6,2,5.3,3.8,8.1,5.4c1.4,0.8,2.9,1.5,4.3,2.3c0.7,0.3,1.5,0.7,2.2,1l1.1,0.5l1.1,0.4c3,1.2,6.2,2,9.4,2.6
			c1.6,0.2,3.2,0.6,4.8,0.7l2.4,0.2l2.4,0c13-0.4,26-2.4,38.4-6.4c6.1-2.2,12.1-4.9,17.3-8.8l1.9-1.5l1.8-1.6
			c0.6-0.5,1.2-1.1,1.7-1.7c0.5-0.6,1.1-1.2,1.6-1.8c2.1-2.5,3.8-5.3,5.1-8.3l0.1,0c-2.2,6.2-6.7,11.4-11.8,15.5
			c-5.2,4.1-11.2,7-17.4,9.2c-6.2,2.2-12.7,3.5-19.1,4.6l-4.9,0.6c-1.6,0.2-3.3,0.3-4.9,0.4c-1.6,0.1-3.3,0.3-4.9,0.4
			c-1.6,0-3.3,0.1-4.9,0l-2.5-0.1l-2.4-0.3c-1.6-0.1-3.2-0.5-4.9-0.7c-3.2-0.7-6.4-1.5-9.5-2.7c-3.1-1.1-6.1-2.4-9-4
			c-2.9-1.5-5.7-3.3-8.3-5.2c-5.3-3.8-10-8.5-14.3-13.5C159.4,474.6,155.6,469.2,152.7,463.3L152.7,463.3z"/>
	</g>
	<g>
		<path class="st9" d="M175.2,349c0-1.6,0.2-3.3,0.4-4.9c0.3-1.6,0.7-3.2,1.4-4.8c0.7-1.5,1.7-2.9,3-4c0.7-0.5,1.4-1,2.3-1.2
			c0.5-0.1,0.9-0.1,1.4,0.1c0.4,0.1,0.9,0.4,1.2,0.6c1.4,1.2,2.1,2.7,2.8,4.2c0.7,1.5,1.2,3.1,1.7,4.7c1,3.2,1.7,6.4,2.5,9.6
			c1.4,6.5,2,13,2.7,19.5c0.6,6.5,1.2,13.1,1.6,19.7c0.3,6.6,0.5,13.1,0.3,19.7c-0.3,6.6-0.7,13.2-2.6,19.6c-0.5,1.6-1,3.2-1.8,4.7
			c-0.4,0.8-0.9,1.5-1.4,2.1l-0.9,0.9c-0.3,0.3-0.6,0.5-0.9,0.8c-2.5,2.1-4.8,4.4-7.2,6.7c-2.4,2.2-4.8,4.6-7.7,6.3
			c-1.4,0.8-3.1,1.5-4.8,1.2c-0.8-0.1-1.6-0.5-2.3-1c-0.7-0.5-1.2-1.1-1.8-1.8l0.1-0.1c0.5,0.6,1.1,1.2,1.8,1.6
			c0.7,0.4,1.4,0.7,2.2,0.8c1.6,0.2,3.1-0.5,4.5-1.3c2.7-1.7,5.1-4.1,7.4-6.4c2.3-2.3,4.7-4.6,7.1-6.9c0.3-0.3,0.6-0.5,0.9-0.8
			l0.8-0.8c0.5-0.6,0.9-1.3,1.3-2c0.8-1.4,1.3-2.9,1.7-4.5c0.9-3.1,1.4-6.4,1.8-9.6c0.4-3.2,0.6-6.5,0.8-9.8
			c0.3-6.5,0.3-13.1,0.1-19.7c-0.2-6.6-0.6-13.1-1.4-19.6c-0.3-3.3-0.8-6.5-1.3-9.8c-0.5-3.2-1.1-6.5-1.9-9.6
			c-0.7-3.2-1.6-6.4-2.5-9.5c-0.5-1.6-1-3.1-1.6-4.6c-0.6-1.5-1.4-3-2.6-3.9c-0.3-0.2-0.6-0.4-0.9-0.5c-0.3-0.1-0.7-0.1-1.1-0.1
			c-0.7,0.1-1.4,0.5-2,1c-1.3,1-2.2,2.3-2.9,3.7c-1.4,2.9-2.1,6.2-2.2,9.5H175.2z"/>
	</g>
	<g>
		<path class="st9" d="M175.7,355.5c0.3-1.5,0.9-2.9,1.7-4.2c0.4-0.6,1-1.2,1.4-1.8c0.5-0.6,0.9-1.2,1.3-1.9
			c0.4-0.6,0.8-1.3,1.4-1.8c0.5-0.6,1.1-1.1,1.7-1.6c1.3-0.9,2.7-1.6,4.3-1.7l0,0.1c-1.3,0.8-2.5,1.6-3.6,2.5
			c-1.2,0.9-2.2,1.9-3.3,2.9c-0.5,0.5-1,1.1-1.4,1.7c-0.4,0.6-0.7,1.3-1,2C177.5,353,176.7,354.3,175.7,355.5L175.7,355.5z"/>
	</g>
	<g>
		<path class="st9" d="M176.6,364.3c0.5-1.5,1.4-2.8,2.5-3.9c0.6-0.5,1.2-1,1.8-1.5c0.6-0.5,1.1-1.1,1.6-1.7c1-1.2,2.2-2.2,3.5-3
			c1.3-0.8,2.8-1.4,4.3-1.7l0,0.1c-1.3,0.9-2.6,1.6-3.8,2.5c-0.6,0.4-1.3,0.8-1.9,1.2c-0.6,0.4-1.2,0.9-1.9,1.3
			c-0.6,0.4-1.2,0.9-1.7,1.5c-0.5,0.6-0.9,1.2-1.4,1.8C178.8,362.1,177.8,363.3,176.6,364.3L176.6,364.3z"/>
	</g>
	<g>
		<path class="st9" d="M177,371.6c0.6-1.6,1.5-3.2,2.6-4.5c0.6-0.6,1.3-1.2,1.9-1.8c0.6-0.6,1.3-1.2,1.9-1.7
			c1.3-1.2,3.1-1.9,4.9-2.1c1.8-0.1,3.5,0.2,5.2,0.2l0,0.1c-1.7,0.6-3.5,0.6-5.1,0.8c-0.8,0.1-1.6,0.2-2.4,0.5
			c-0.8,0.3-1.5,0.6-2.3,1c-0.7,0.4-1.4,0.9-2,1.5c-0.6,0.6-1,1.4-1.5,2.1C179.3,369,178.3,370.4,177,371.6L177,371.6z"/>
	</g>
	<g>
		<path class="st9" d="M177.9,381.4c0.9-1.4,1.4-2.9,2.2-4.3c0.4-0.7,1-1.3,1.5-2c0.5-0.6,1.1-1.3,1.8-1.8c0.7-0.5,1.5-0.8,2.3-1
			c0.8-0.2,1.6-0.4,2.4-0.5c1.6-0.2,3.3-0.4,4.9-0.1l0,0.1c-1.6,0.4-3.2,0.8-4.8,1.1c-1.6,0.3-3.2,0.4-4.7,0.9
			c-0.7,0.3-1.4,0.8-1.8,1.5c-0.5,0.7-0.7,1.4-1,2.2C180.2,378.9,179.4,380.5,177.9,381.4L177.9,381.4z"/>
	</g>
	<g>
		<path class="st9" d="M179.7,387.1c0.1-0.8,0.7-1.4,1.1-2c0.5-0.6,0.9-1.2,1.5-1.7c0.6-0.5,1.2-0.9,1.8-1.4c0.6-0.5,1.1-1,1.6-1.5
			c1.1-1.1,2.4-1.9,3.8-2.5c1.4-0.5,3-0.7,4.5-0.4l0,0.1c-1.5,0.3-2.8,0.7-4.1,1.3c-1.3,0.5-2.6,1.2-3.8,2c-0.6,0.4-1.2,0.8-1.7,1.4
			c-0.5,0.5-0.9,1.2-1.4,1.7c-0.5,0.6-1,1.1-1.5,1.6C180.9,386.2,180.2,386.6,179.7,387.1L179.7,387.1z"/>
	</g>
	<g>
		<path class="st9" d="M180.6,394.7c0,0-0.1,0.1-0.2,0c-0.1,0-0.1-0.1-0.1-0.2c0-0.1-0.1-0.2,0-0.4c0.1-0.3,0.2-0.4,0.3-0.6
			c0.2-0.3,0.4-0.7,0.6-1c0.5-0.6,1-1.2,1.5-1.8c0.6-0.5,1.2-1,1.8-1.5c0.6-0.5,1.1-1.1,1.7-1.6c1.1-1.1,2.3-2.1,3.7-2.9
			c1.3-0.8,2.8-1.4,4.3-1.8l0,0.1c-1.3,0.9-2.5,1.8-3.8,2.6l-3.9,2.5c-0.6,0.4-1.3,0.9-1.8,1.4c-0.5,0.5-1,1.2-1.5,1.8
			c-0.5,0.6-1,1.1-1.5,1.7c-0.3,0.3-0.5,0.5-0.8,0.8c-0.1,0.1-0.3,0.3-0.4,0.4C180.5,394.4,180.5,394.6,180.6,394.7L180.6,394.7z"/>
	</g>
	<g>
		<path class="st9" d="M180.1,402.4c0.7-1.4,1.7-2.6,2.8-3.6c0.6-0.5,1.3-0.9,1.8-1.4c0.6-0.5,1.1-1,1.7-1.6
			c0.5-0.6,1.1-1.1,1.7-1.5c0.6-0.5,1.3-0.9,2-1.2c1.4-0.7,3.1-1,4.6-0.7l0,0.1c-1.5,0.3-2.9,0.8-4.2,1.5c-1.3,0.6-2.6,1.4-3.9,2.2
			c-0.6,0.4-1.3,0.9-1.8,1.4c-0.5,0.5-1,1.2-1.5,1.7C182.5,400.5,181.4,401.6,180.1,402.4L180.1,402.4z"/>
	</g>
	<g>
		<path class="st9" d="M179.5,410.5c0.4-0.1,0.5-0.3,0.7-0.6c0.2-0.3,0.4-0.6,0.6-0.9c0.5-0.6,0.9-1.1,1.5-1.7
			c0.5-0.5,1.2-0.9,1.7-1.4c0.5-0.5,1-1,1.6-1.6c1.1-1.1,2.4-1.9,3.7-2.5c1.4-0.6,2.8-1,4.3-1.1l0,0.1c-1.3,0.8-2.6,1.4-3.9,2
			c-1.3,0.6-2.6,1.2-3.8,2c-0.6,0.4-1.2,0.8-1.7,1.4c-0.5,0.5-0.9,1.2-1.3,1.8c-0.5,0.6-1,1.1-1.5,1.6c-0.3,0.3-0.5,0.5-0.8,0.7
			C180.3,410.5,179.9,410.7,179.5,410.5L179.5,410.5z"/>
	</g>
	<g>
		<path class="st9" d="M179.8,417.8c0.9-1.2,2-2.3,3.2-3.2c0.6-0.4,1.3-0.8,1.9-1.2c0.6-0.4,1.2-1,1.7-1.5c0.6-0.5,1.2-1,1.8-1.4
			c0.7-0.4,1.4-0.8,2.1-1c1.5-0.5,3.1-0.7,4.6-0.3l0,0.1c-1.5,0.2-2.9,0.6-4.2,1.2c-1.4,0.5-2.7,1.2-4,1.9c-0.7,0.4-1.3,0.8-1.9,1.3
			c-0.6,0.5-1,1.1-1.6,1.6C182.4,416.2,181.2,417.1,179.8,417.8L179.8,417.8z"/>
	</g>
	<g>
		<path class="st9" d="M177.3,426.3c0.9-1.4,1.9-2.7,3.2-3.7c0.7-0.5,1.4-0.8,2.1-1.2c0.7-0.4,1.4-0.8,2.1-1.2
			c1.5-0.8,3.2-1.1,4.8-1.2c1.7,0,3.3,0.2,4.9,0.6l0,0.1c-1.6,0.2-3.2,0.2-4.8,0.3c-1.6,0.1-3.1,0.2-4.7,0.6c-0.8,0.2-1.5,0.5-2.2,1
			c-0.7,0.5-1.2,1-1.8,1.6C179.9,424.4,178.8,425.5,177.3,426.3L177.3,426.3z"/>
	</g>
	<g>
		<path class="st9" d="M176,432.8c0.7-0.3,1-1,1.5-1.6c0.5-0.7,1.2-1.2,1.9-1.5c0.7-0.3,1.5-0.5,2.2-0.8c0.7-0.3,1.4-0.6,2.1-1
			c1.4-0.7,2.9-1.2,4.5-1.5c1.6-0.2,3.2,0,4.6,0.7l0,0.1c-1.6-0.1-3,0-4.5,0.2c-0.7,0.1-1.5,0.2-2.2,0.4l-2.2,0.5
			c-0.7,0.2-1.5,0.4-2.1,0.8c-0.7,0.3-1.3,0.8-2,1.2c-0.7,0.4-1.2,0.7-1.7,1.2c-0.3,0.3-0.5,0.6-0.9,0.8
			C176.9,432.7,176.4,432.9,176,432.8L176,432.8z"/>
	</g>
	<g>
		<path class="st9" d="M171.6,441.1c1.5-0.8,2.9-1.6,4.4-2.4l2.3-1c0.8-0.4,1.5-0.8,2.3-1.1c0.8-0.4,1.7-0.6,2.5-0.7
			c0.9-0.1,1.7-0.3,2.5-0.3c1.7-0.1,3.5-0.1,5.1,0.6l0,0.1c-1.7,0-3.3,0.2-5,0.4c-1.7,0.2-3.3,0.2-5,0.5c-0.8,0.2-1.6,0.5-2.3,0.9
			c-0.7,0.4-1.4,1-2.1,1.5C175.1,440.3,173.4,441.1,171.6,441.1L171.6,441.1z"/>
	</g>
	<g>
		<path class="st9" d="M168.3,447.2c0.8-0.7,1.8-1.3,2.8-1.6c0.5-0.1,1.1-0.2,1.6-0.3c0.5-0.1,1-0.3,1.5-0.5c1-0.4,2.1-0.6,3.2-0.6
			c1.1,0,2.2,0.3,3.1,1l0,0.1c-1.1,0-2.1,0-3.1,0c-1,0-2,0.1-3.1,0.1c-0.5,0-1.1,0.1-1.5,0.3c-0.5,0.2-0.9,0.5-1.4,0.8
			C170.5,446.9,169.5,447.2,168.3,447.2L168.3,447.2z"/>
	</g>
	<g>
		<path class="st9" d="M167.9,449.9c0.6-0.5,1.3-0.8,2.1-0.9c0.4,0,0.8,0.1,1.1,0.1c0.4,0,0.7-0.1,1.1-0.2c0.7-0.3,1.5-0.3,2.2-0.3
			c0.7,0.1,1.5,0.2,2.2,0.6l0,0.1c-0.8,0.2-1.5,0.3-2.2,0.3c-0.7,0-1.4,0-2.1-0.2c-0.4-0.1-0.7-0.1-1.1,0c-0.4,0.1-0.7,0.3-1,0.4
			C169.4,450.1,168.7,450.2,167.9,449.9L167.9,449.9z"/>
	</g>
	<g>
		<path class="st9" d="M186.7,315.3c7.1,6,14.1,12,21.1,18.1c7,6.1,13.9,12.3,20.7,18.5c6.8,6.3,13.5,12.7,20.2,19.1
			c1.7,1.6,3.3,3.3,4.9,4.9c1.6,1.7,3.3,3.3,4.6,5.2c1.2,2,2.1,4.2,2.6,6.5c0.5,2.3,0.8,4.6,0.4,7l-0.1,0.4l-0.3-0.2
			c-7.7-5.4-15.3-10.8-22.8-16.4c-7.5-5.6-15-11.3-22.2-17.3c-3.6-3-7.2-6.1-10.5-9.4c-3.3-3.3-6.5-6.8-9.6-10.3l-9.3-10.5
			c-3.2-3.4-6.2-7-10.2-9.6l0.1-0.1c2,1.2,3.8,2.8,5.5,4.4c1.7,1.6,3.4,3.3,5,5l9.5,10.3c3.2,3.4,6.4,6.8,9.7,10.1
			c3.3,3.3,6.9,6.3,10.5,9.3c7.2,5.9,14.6,11.7,22.1,17.3c7.5,5.6,15,11.3,22.5,16.7l-0.4,0.2c0.4-2.2,0.2-4.6-0.3-6.8
			c-0.5-2.2-1.3-4.4-2.5-6.4c-1.3-1.9-3-3.5-4.5-5.2c-1.6-1.7-3.3-3.3-4.9-4.9c-6.7-6.4-13.6-12.6-20.5-18.8L186.7,315.3
			L186.7,315.3z"/>
	</g>
	<g>
		<path class="st9" d="M188.9,332.3c-0.3-0.9-0.3-1.7-0.2-2.5c0.1-0.4,0.3-0.8,0.3-1.2c0.1-0.4,0-0.8-0.1-1.3
			c-0.2-0.8-0.2-1.7-0.2-2.5c0.1-0.8,0.2-1.7,0.5-2.5l0.1,0c0.3,0.8,0.4,1.7,0.5,2.5c0,0.8-0.1,1.7-0.3,2.5
			c-0.1,0.4-0.2,0.8-0.2,1.2c0,0.4,0.1,0.8,0.2,1.3C189.6,330.7,189.4,331.5,188.9,332.3L188.9,332.3z"/>
	</g>
	<g>
		<path class="st9" d="M195.9,339.7c-0.9-1-1.5-2.2-1.8-3.5l-0.1-1c0-0.3,0-0.7-0.1-1c-0.1-0.7-0.2-1.3-0.3-2c-0.3-1.3-0.2-2.7,0-4
			c0.3-1.3,0.8-2.6,1.6-3.7l0.1,0c-0.2,1.3-0.4,2.6-0.6,3.8c-0.2,1.2-0.4,2.5-0.5,3.8c0,0.3,0,0.6,0,1c0,0.3,0.1,0.6,0.1,1
			c0.1,0.6,0.4,1.2,0.7,1.8C195.3,337.2,195.7,338.4,195.9,339.7L195.9,339.7z"/>
	</g>
	<g>
		<path class="st9" d="M205.8,349.4c-0.5-1.3-0.7-2.6-0.7-3.9c0-0.7,0.1-1.3,0.1-2c0-0.7-0.1-1.3-0.2-2c-0.2-1.3-0.3-2.6-0.2-4
			c0.1-1.3,0.3-2.6,0.7-3.9l0.1,0c0.2,1.3,0.2,2.6,0.2,3.9c-0.1,1.3-0.1,2.6-0.3,3.9c-0.1,0.7-0.1,1.3-0.1,2
			c0.1,0.7,0.2,1.3,0.4,1.9C206.1,346.7,206.1,348,205.8,349.4L205.8,349.4z"/>
	</g>
	<g>
		<path class="st9" d="M201.8,346.7c-0.7-1.2-1.2-2.5-1.5-3.8c-0.1-0.7-0.1-1.4-0.2-2.1c-0.1-0.7-0.3-1.3-0.5-2
			c-0.4-1.3-0.7-2.7-0.9-4c-0.1-1.4-0.1-2.8,0.1-4.1l0.1,0c0.4,1.3,0.6,2.7,0.8,4c0.1,1.3,0.3,2.7,0.3,4.1c0,0.7,0.1,1.4,0.3,2
			c0.2,0.7,0.5,1.3,0.7,1.9C201.6,344,201.8,345.3,201.8,346.7L201.8,346.7z"/>
	</g>
	<g>
		<path class="st9" d="M213.5,359c-0.6-1.4-1-3-1.1-4.5c0-0.8,0.1-1.6,0.1-2.3c0-0.8-0.1-1.5-0.2-2.3c-0.2-1.5-0.2-3.1,0-4.7
			c0.2-1.5,0.5-3.1,1.2-4.5l0.1,0c0,1.6-0.1,3.1-0.2,4.6c-0.2,1.5-0.3,3-0.5,4.6c-0.1,0.8-0.1,1.5-0.1,2.3c0.1,0.8,0.3,1.5,0.4,2.3
			C213.5,355.9,213.6,357.4,213.5,359L213.5,359z"/>
	</g>
	<g>
		<path class="st9" d="M221,364.7c-0.4-1.4-0.6-2.9-0.5-4.3c0-0.7,0.2-1.4,0.2-2.2c0-0.7-0.1-1.4-0.2-2.2c-0.2-1.4-0.3-2.9-0.3-4.3
			c0-1.4,0.2-2.9,0.5-4.3l0.1,0c0.3,1.4,0.4,2.9,0.4,4.3c0,1.4,0,2.9-0.2,4.3c-0.1,0.7-0.1,1.4-0.1,2.2c0.1,0.7,0.2,1.4,0.3,2.1
			C221.4,361.9,221.4,363.3,221,364.7L221,364.7z"/>
	</g>
	<g>
		<path class="st9" d="M230,371.4c-1.1-1.2-1.9-2.6-2.4-4.2c-0.2-0.8-0.3-1.6-0.4-2.4c-0.1-0.8-0.4-1.5-0.5-2.3
			c-0.2-0.8-0.3-1.6-0.4-2.4c-0.1-0.8-0.1-1.6,0-2.4c0.1-0.8,0.3-1.6,0.6-2.4c0.3-0.8,0.8-1.5,1.5-2l0.1,0.1c-0.8,1.4-1,2.9-1.1,4.4
			c-0.1,1.5-0.2,3.1-0.2,4.6c0,0.8,0.1,1.6,0.3,2.3c0.2,0.8,0.6,1.5,0.9,2.2C229,368.4,229.6,369.9,230,371.4L230,371.4z"/>
	</g>
	<g>
		<path class="st9" d="M237.6,376.6c-1.1-0.8-1.8-2-2.2-3.2l-0.2-1c0-0.3-0.1-0.7-0.1-1c-0.1-0.6-0.3-1.3-0.4-1.9
			c-0.3-1.3-0.3-2.6-0.1-3.9c0.3-1.3,0.9-2.5,1.7-3.5l0.1,0c-0.3,1.3-0.6,2.5-0.8,3.7c-0.2,1.2-0.4,2.4-0.4,3.7c0,0.3,0,0.6,0,0.9
			c0,0.3,0.1,0.6,0.2,0.9c0.2,0.6,0.5,1.2,0.8,1.7C236.7,374.3,237.2,375.4,237.6,376.6L237.6,376.6z"/>
	</g>
	<g>
		<path class="st9" d="M243.5,382.5c-0.3-1.2-0.4-2.4-0.3-3.6c0.1-0.6,0.2-1.2,0.3-1.8c0-0.6,0-1.2-0.1-1.8
			c-0.2-1.2-0.2-2.4-0.2-3.6c0.1-1.2,0.2-2.4,0.5-3.6l0.1,0c0.3,1.2,0.4,2.4,0.5,3.6c0,1.2-0.1,2.4-0.3,3.6
			c-0.1,0.6-0.2,1.2-0.1,1.8c0,0.6,0.2,1.2,0.2,1.8C244,380.1,243.9,381.3,243.5,382.5L243.5,382.5z"/>
	</g>
	<g>
		<path class="st9" d="M250.4,386.2c-0.7-0.9-1-2-1.1-3c0-0.5,0.1-1.1,0.1-1.6c0-0.5-0.1-1.1-0.1-1.6c-0.2-1.1-0.1-2.2,0.1-3.2
			c0.2-1.1,0.6-2.1,1.3-3l0.1,0c-0.1,1.1-0.2,2.1-0.4,3.1c-0.2,1-0.4,2-0.6,3.1c-0.1,0.5-0.1,1-0.1,1.6c0.1,0.5,0.3,1,0.4,1.5
			C250.4,384.1,250.5,385.1,250.4,386.2L250.4,386.2z"/>
	</g>
	<g>
		<path class="st9" d="M256.8,391.5c-0.4-1-0.6-2-0.6-3c0-0.5,0.1-1,0.1-1.5c0-0.5-0.1-1-0.3-1.5c-0.3-1-0.4-2-0.5-3
			c0-1,0.1-2.3,1-3l0.1,0.1c-0.2,1-0.1,1.9,0,2.9c0.1,1,0.1,2,0,3c0,0.5-0.1,1,0,1.5c0.1,0.5,0.3,1,0.4,1.5
			C257.1,389.4,257.1,390.4,256.8,391.5L256.8,391.5z"/>
	</g>
	<g>
		<path class="st9" d="M264,387.3l1.1,11.7l1.2,11.7c0.8,7.8,1.5,15.6,2.1,23.5c0.1,2,0.3,3.9,0.4,5.9c0.1,2,0.2,3.9,0.2,5.9
			c0.1,3.9,0.2,7.8,0.7,11.7c0.3,1.9,0.6,3.9,1.3,5.7c0.4,0.9,0.8,1.8,1.5,2.4c0.4,0.3,0.8,0.6,1.2,0.6c0.5,0.1,1,0.2,1.4,0.3
			c0.9,0.2,1.9,0.5,2.8,0.2c0.8-0.3,1.1-1.4,1.3-2.3c0.4-1.9,0.4-3.9,0.4-5.8c0-7.8-0.5-15.7-0.9-23.5c-0.4-7.8-0.9-15.7-1.5-23.5
			c-0.6-7.8-1.2-15.6-2.4-23.4c-0.3-1.9-0.7-3.9-1.2-5.7c-0.3-0.9-0.6-1.9-1.2-2.6c-0.2-0.2-0.3-0.3-0.5-0.4c-0.2,0-0.5-0.1-0.7-0.1
			l-1.5-0.1c-1-0.1-2-0.1-2.9,0.2c-0.9,0.3-1.7,0.9-2.1,1.8C264.1,383.4,264,385.4,264,387.3z M264,387.3c-0.1-2,0-4,0.8-5.8
			c0.5-0.9,1.3-1.6,2.2-1.9c1-0.3,2-0.3,3-0.3l1.5,0.1c0.3,0,0.5,0,0.8,0.1c0.3,0.1,0.5,0.3,0.7,0.5c0.7,0.8,1,1.8,1.4,2.7
			c0.6,1.9,1.1,3.8,1.4,5.7c1.5,7.7,2.2,15.6,2.8,23.4c0.6,7.8,1,15.7,1.4,23.5c0.2,3.9,0.3,7.8,0.4,11.8c0.1,3.9,0.2,7.9,0.1,11.8
			c-0.1,2-0.1,3.9-0.6,5.9c-0.1,0.5-0.3,1-0.5,1.4c-0.2,0.5-0.6,0.9-1.1,1.1c-0.5,0.2-1.1,0.1-1.5,0.1c-0.5-0.1-1-0.2-1.5-0.3
			c-0.5-0.1-0.9-0.2-1.4-0.3c-0.5-0.1-1-0.4-1.4-0.7c-0.8-0.7-1.2-1.6-1.6-2.5c-0.7-1.9-1.1-3.8-1.3-5.8c-1-7.8-0.9-15.7-1.8-23.5
			c-0.7-7.8-1.4-15.6-1.9-23.5l-0.8-11.7L264,387.3z"/>
	</g>
	<g>
		<path class="st9" d="M265.3,388.2c0.7-0.3,1.3-0.3,2-0.1c0.3,0.1,0.6,0.3,0.9,0.4c0.3,0.1,0.6,0.1,1,0c0.7-0.1,1.3-0.1,2,0
			c0.6,0.1,1.3,0.3,1.8,0.7l0,0.1c-0.7,0.2-1.3,0.3-2,0.2c-0.6-0.1-1.3-0.2-1.9-0.5c-0.3-0.1-0.6-0.2-0.9-0.2c-0.3,0-0.7,0.1-1,0.1
			C266.5,389,265.9,388.8,265.3,388.2L265.3,388.2z"/>
	</g>
	<g>
		<path class="st9" d="M265,396c0.7-0.5,1.4-0.8,2.2-0.9c0.4,0,0.8,0.1,1.2,0.1c0.4,0,0.8-0.1,1.2-0.2c0.8-0.2,1.6-0.3,2.4-0.3
			c0.8,0.1,1.6,0.3,2.3,0.7l0,0.1c-0.8,0.2-1.6,0.3-2.4,0.3c-0.8,0-1.5-0.1-2.3-0.2c-0.4-0.1-0.8-0.1-1.2,0
			c-0.4,0.1-0.7,0.3-1.1,0.4C266.6,396.2,265.9,396.3,265,396L265,396z"/>
	</g>
	<g>
		<path class="st9" d="M265.4,404.4c0.4-0.9,1.1-1.5,2-1.9c0.4-0.2,0.9-0.2,1.3-0.4c0.4-0.1,0.8-0.3,1.3-0.5
			c0.8-0.4,1.8-0.6,2.7-0.7c0.9,0,1.9,0.2,2.7,0.8l0,0.1c-0.9,0.1-1.8,0.1-2.6,0.2c-0.8,0-1.7,0.1-2.6,0.1c-0.4,0-0.9,0.1-1.3,0.3
			c-0.4,0.2-0.7,0.5-1.1,0.8C267.1,403.7,266.3,404.1,265.4,404.4L265.4,404.4z"/>
	</g>
	<g>
		<path class="st9" d="M266.4,411.2c0.1-1.2,0.8-2.3,1.7-3c0.2-0.2,0.5-0.3,0.7-0.5c0.3-0.1,0.5-0.3,0.8-0.4c0.5-0.3,1-0.6,1.5-0.9
			c1-0.6,2.1-1,3.3-1.1c1.2,0,2.4,0.3,3.3,0.9l0,0.1c-1.1-0.1-2.2-0.1-3.2,0c-1.1,0.1-2.1,0.3-3.2,0.5c-0.3,0.1-0.5,0.2-0.8,0.3
			c-0.2,0.1-0.5,0.3-0.7,0.4c-0.2,0.2-0.4,0.4-0.6,0.6c-0.2,0.2-0.3,0.4-0.5,0.6C267.9,409.6,267.2,410.4,266.4,411.2L266.4,411.2z"
			/>
	</g>
	<g>
		<path class="st9" d="M267.4,419.3c0.1-1.1,0.6-2.1,1.3-2.9c0.4-0.4,0.8-0.7,1.2-1c0.4-0.3,0.7-0.7,1.1-1.1
			c0.7-0.8,1.6-1.4,2.5-1.9c1-0.4,2.1-0.7,3.1-0.5l0,0.1c-0.9,0.5-1.8,0.9-2.7,1.4c-0.9,0.4-1.8,0.9-2.7,1.4
			c-0.4,0.3-0.9,0.5-1.2,0.9c-0.3,0.4-0.5,0.9-0.8,1.3C268.8,417.8,268.2,418.6,267.4,419.3L267.4,419.3z"/>
	</g>
	<g>
		<path class="st9" d="M267.3,426.7c0-1.3,0.5-2.5,1.3-3.4c0.2-0.2,0.4-0.4,0.7-0.6c0.2-0.2,0.5-0.4,0.7-0.6
			c0.5-0.4,0.9-0.9,1.3-1.3c0.8-0.9,1.9-1.6,3.1-2c1.2-0.4,2.5-0.5,3.7-0.3l0,0.1c-1.2,0.4-2.3,0.7-3.3,1.2
			c-1.1,0.4-2.1,0.9-3.1,1.5c-0.2,0.2-0.5,0.3-0.7,0.5c-0.2,0.2-0.4,0.4-0.6,0.6c-0.4,0.5-0.6,1-0.9,1.5
			C268.7,424.7,268.1,425.7,267.3,426.7L267.3,426.7z"/>
	</g>
	<g>
		<path class="st9" d="M269.5,432.5c0.1-1.1,0.6-2.1,1.3-2.9c0.4-0.4,0.8-0.7,1.2-1c0.4-0.3,0.7-0.7,1.1-1.2c0.7-0.8,1.6-1.5,2.5-2
			c1-0.5,2-0.7,3.1-0.7l0,0.1c-0.9,0.6-1.8,1-2.7,1.6c-0.9,0.5-1.7,1-2.6,1.5c-0.4,0.3-0.9,0.6-1.2,1c-0.3,0.4-0.5,0.9-0.8,1.3
			C270.9,431,270.3,431.7,269.5,432.5L269.5,432.5z"/>
	</g>
	<g>
		<path class="st9" d="M268.8,441.6c0.2-1,0.7-1.9,1.3-2.7c0.3-0.4,0.8-0.7,1.1-1.1c0.3-0.4,0.6-0.8,0.9-1.2
			c0.5-0.9,1.2-1.7,2.1-2.3c0.9-0.6,1.9-1,2.9-1.1l0,0.1c-0.8,0.6-1.6,1.2-2.3,1.8l-2.3,1.8c-0.4,0.3-0.7,0.7-1,1.1
			c-0.3,0.4-0.4,0.9-0.7,1.4C270.3,440.2,269.7,441,268.8,441.6L268.8,441.6z"/>
	</g>
	<g>
		<path class="st9" d="M269.2,447.6c0.9-0.5,0.9-1.5,1.5-2.4c0.3-0.4,0.7-0.8,1-1.2c0.3-0.4,0.6-0.9,0.9-1.3
			c0.6-0.9,1.4-1.7,2.4-2.1c1-0.4,2.2-0.5,3.2-0.1l0,0.1c-1,0.2-1.9,0.5-2.8,1c-0.9,0.4-1.7,0.9-2.5,1.5c-0.4,0.3-0.8,0.7-1,1.1
			c-0.3,0.4-0.4,1-0.5,1.4c-0.2,0.5-0.4,0.9-0.7,1.4C270.4,447.4,269.8,447.8,269.2,447.6L269.2,447.6z"/>
	</g>
	<g>
		<path class="st9" d="M270.9,454c-0.1-1,0.3-2.1,0.9-2.8c0.2-0.2,0.4-0.4,0.6-0.5c0.2-0.2,0.4-0.3,0.6-0.5c0.4-0.3,0.7-0.7,1-1.1
			c0.7-0.8,1.6-1.3,2.5-1.6c1-0.3,2.1-0.3,3,0l0,0.1c-1,0.3-1.8,0.5-2.7,0.9c-0.9,0.3-1.7,0.7-2.5,1.1c-0.2,0.1-0.4,0.2-0.6,0.4
			c-0.2,0.1-0.4,0.3-0.5,0.5c-0.3,0.4-0.5,0.8-0.7,1.2C272,452.4,271.6,453.2,270.9,454L270.9,454z"/>
	</g>
	<g>
		<path class="st9" d="M272.1,460.3c-0.4-0.2-0.5-0.8-0.5-1.2c0-0.4,0.2-0.9,0.5-1.2c0.3-0.3,0.6-0.5,0.9-0.8
			c0.3-0.3,0.5-0.6,0.8-0.9c0.5-0.6,1.2-1.1,2-1.4c0.8-0.2,1.6-0.3,2.4,0l0,0.1c-0.7,0.3-1.4,0.6-2.1,0.9c-0.7,0.2-1.3,0.5-2,0.8
			c-0.3,0.2-0.7,0.4-0.9,0.7c-0.2,0.3-0.3,0.7-0.5,1C272.6,459,272.2,459.5,272.1,460.3L272.1,460.3z"/>
	</g>
	<g>
		<path class="st9" d="M275,465.5c-0.4-0.6-0.4-1.3-0.1-1.9c0.2-0.3,0.5-0.5,0.6-0.8c0.2-0.2,0.3-0.5,0.4-0.8
			c0.3-0.6,0.7-1.1,1.3-1.4c0.6-0.3,1.3-0.4,1.9-0.1l0,0.1l-1.4,0.9c-0.5,0.3-0.9,0.5-1.4,0.8c-0.2,0.2-0.5,0.4-0.6,0.6
			c-0.1,0.3-0.1,0.6-0.1,0.9C275.6,464.4,275.4,464.9,275,465.5L275,465.5z"/>
	</g>
	<g>
		<path class="st10" d="M248.7,394c0,0-6.7,20.7,4,22s12.7-12.3,9.3-17S254.7,389.7,248.7,394z"/>
		<path class="st9" d="M248.7,394c-0.6,2.6-1.1,5.3-1.4,8c-0.3,2.7-0.4,5.4,0.1,8c0.2,1.3,0.7,2.6,1.5,3.6c0.4,0.5,0.9,1,1.4,1.3
			c0.6,0.3,1.2,0.6,1.8,0.7c1.3,0.3,2.7,0.3,4,0c1.3-0.3,2.5-1,3.5-1.9c1.9-1.8,2.9-4.4,3.3-7c0.2-1.3,0.2-2.6,0-3.9
			c-0.2-1.3-0.6-2.6-1.3-3.6c-0.8-1.1-1.6-2.2-2.5-3.2c-0.9-1-1.8-1.9-3-2.6c-1.1-0.7-2.4-1-3.7-0.8
			C251.1,392.8,249.9,393.3,248.7,394z M248.6,394c1.1-0.8,2.3-1.6,3.7-1.9c1.4-0.3,2.9,0,4.2,0.7c2.5,1.4,4.3,3.7,5.9,5.9
			c0.9,1.2,1.3,2.7,1.5,4.1c0.2,1.4,0.1,2.8-0.1,4.2c-0.4,2.8-1.7,5.5-3.8,7.3c-1.1,0.9-2.4,1.5-3.8,1.8c-1.4,0.3-2.8,0.3-4.1,0
			c-1.4-0.3-2.7-0.9-3.6-2c-0.9-1.1-1.5-2.4-1.8-3.8c-0.6-2.8-0.4-5.6,0-8.3C247,399.2,247.6,396.6,248.6,394z"/>
	</g>
	<g>
		<path class="st10" d="M251.7,421.7c0,0,5-7.3,8.7-1c3.7,6.3,3.3,28-4,28.7C249,450,249.3,432.7,251.7,421.7z"/>
		<path class="st9" d="M251.6,421.6c0.4-0.7,0.9-1.3,1.4-1.8c0.5-0.6,1.1-1.1,1.8-1.5c0.7-0.4,1.5-0.7,2.4-0.6
			c0.8,0.1,1.6,0.5,2.2,1.1c1.2,1.1,1.9,2.6,2.3,4.1c0.5,1.5,0.7,3,0.9,4.5c0.3,3.1,0.2,6.1,0,9.2c-0.3,3-0.7,6.1-1.9,9
			c-0.6,1.4-1.5,2.9-3,3.6c-0.8,0.4-1.6,0.5-2.5,0.4c-0.8-0.1-1.7-0.5-2.3-1.1c-0.6-0.6-1.1-1.3-1.5-2c-0.4-0.7-0.7-1.5-0.9-2.2
			c-0.4-1.5-0.7-3-0.8-4.6c-0.3-3.1-0.1-6.2,0.1-9.2C250.3,427.6,250.8,424.6,251.6,421.6z M251.7,421.7c-0.9,6-1.4,12.1-0.8,18.1
			c0.1,1.5,0.4,3,0.8,4.4c0.2,0.7,0.4,1.4,0.8,2.1c0.3,0.6,0.7,1.3,1.2,1.7c1,1,2.5,1.2,3.8,0.7c1.3-0.6,2.2-1.8,2.8-3.1
			c0.7-1.3,1.1-2.8,1.4-4.3c0.3-1.5,0.5-3,0.6-4.5c0.2-3,0-6.1-0.5-9.1c-0.2-1.5-0.5-3-0.9-4.4c-0.4-1.4-1-2.8-2-3.8
			c-0.5-0.5-1.1-0.9-1.8-1c-0.7-0.1-1.4,0.1-2,0.4C253.8,419.5,252.7,420.6,251.7,421.7z"/>
	</g>
	<g>
		<path class="st10" d="M244,471.3c0,0,23.7-6.3,26.3-5.3c2.7,1,14,6.7-0.7,12C255,483.3,231.3,489.7,244,471.3z"/>
		<path class="st9" d="M244,471.3c3.5-1.1,7-2.1,10.6-3c3.5-0.9,7.1-1.7,10.7-2.3c0.9-0.1,1.8-0.3,2.7-0.3c0.5,0,0.9-0.1,1.4-0.1
			c0.2,0,0.5,0,0.7,0.1c0.3,0.1,0.5,0.2,0.7,0.3c0.8,0.4,1.7,0.8,2.4,1.3c0.8,0.5,1.5,1,2.2,1.7c0.7,0.6,1.3,1.4,1.6,2.3
			c0.1,0.5,0.2,1,0.1,1.4c-0.1,0.5-0.3,0.9-0.6,1.3c-1.1,1.6-2.8,2.5-4.4,3.3c-1.7,0.8-3.4,1.4-5.1,2.1c-1.7,0.6-3.5,1.2-5.2,1.8
			c-3.5,1.1-7,2.1-10.7,2.6c-1.8,0.3-3.7,0.4-5.6,0.3c-0.9-0.1-1.9-0.2-2.8-0.6c-0.9-0.3-1.8-0.9-2.3-1.9c-0.5-0.9-0.5-2-0.3-2.9
			c0.2-0.9,0.5-1.8,0.9-2.7C241.8,474.3,242.9,472.8,244,471.3z M244,471.4c-0.9,1.5-1.8,3.1-2.5,4.8c-0.3,0.8-0.6,1.7-0.7,2.6
			c-0.1,0.9,0,1.7,0.4,2.4c0.4,0.7,1.1,1.2,1.9,1.4c0.8,0.3,1.7,0.4,2.6,0.4c1.8,0.1,3.6-0.1,5.3-0.4c3.6-0.6,7.1-1.4,10.6-2.5
			c1.7-0.5,3.5-1,5.2-1.6c1.7-0.6,3.5-1.1,5.1-1.8c0.8-0.4,1.6-0.8,2.4-1.2c0.8-0.5,1.5-1,2-1.8c0.3-0.4,0.4-0.8,0.5-1.2
			c0.1-0.4,0.1-0.9-0.1-1.3c-0.3-0.8-0.8-1.6-1.5-2.2c-1.3-1.2-3-2.1-4.6-2.7c-0.2-0.1-0.4-0.2-0.6-0.2c-0.2,0-0.4,0-0.6,0
			c-0.4,0-0.9,0.1-1.3,0.1c-0.9,0.1-1.8,0.3-2.7,0.4C258.3,468.2,251.1,469.9,244,471.4z"/>
	</g>
	<g>
		<path class="st9" d="M247.3,405c0.3-1.2,0.8-2.4,1.5-3.4c0.4-0.5,0.8-1,1.1-1.5c0.4-0.5,0.6-1.1,0.9-1.6c0.3-0.6,0.5-1.1,0.9-1.7
			c0.4-0.5,0.8-1.1,1.5-1.4c0.7-0.3,1.3-0.4,1.9-0.4c0.6-0.1,1.2-0.1,1.9-0.1l0,0.1c-1.1,0.7-2.4,0.9-3.3,1.4
			c-0.9,0.4-1.6,1.5-2.4,2.4c-0.4,0.5-0.8,1-1.1,1.5c-0.3,0.5-0.5,1.2-0.7,1.7C249,403.1,248.3,404.1,247.3,405L247.3,405z"/>
	</g>
	<g>
		<path class="st9" d="M247.3,410.7c0.4-1.5,1.1-2.8,2-4c0.5-0.6,1-1.1,1.5-1.7c0.5-0.6,0.9-1.2,1.3-1.8c0.4-0.6,0.8-1.2,1.3-1.8
			c0.5-0.6,1.1-1.1,1.7-1.6c1.3-0.8,2.9-1.3,4.4-1.1l0,0.1c-1.4,0.4-2.7,1-3.8,1.9c-1.1,0.8-2.1,1.9-3.2,2.8c-0.5,0.5-1.1,1-1.5,1.6
			c-0.4,0.6-0.7,1.3-1.1,1.9C249.2,408.4,248.4,409.6,247.3,410.7L247.3,410.7z"/>
	</g>
	<g>
		<path class="st9" d="M249.8,415.2c0.3-1.5,1.1-2.8,2.1-3.9c0.5-0.5,1.1-1,1.6-1.5c0.5-0.5,1-1.1,1.4-1.7c0.4-0.6,0.9-1.2,1.4-1.7
			c0.5-0.5,1-1.1,1.6-1.5c1.2-0.9,2.7-1.6,4.3-1.4l0,0.1c-1.4,0.5-2.5,1.3-3.6,2.2c-1.1,0.9-2.1,1.9-3.3,2.8c-0.6,0.5-1.1,1-1.5,1.5
			c-0.5,0.6-0.8,1.2-1.2,1.8C251.7,412.9,250.8,414.1,249.8,415.2L249.8,415.2z"/>
	</g>
	<g>
		<path class="st9" d="M255.6,415.7c-0.3-0.4-0.2-0.9-0.1-1.3c0.2-0.4,0.4-0.7,0.7-1c0.3-0.3,0.7-0.5,0.9-0.8c0.3-0.3,0.5-0.6,0.6-1
			c0.3-0.7,0.8-1.4,1.4-2c0.6-0.5,1.6-0.9,2.4-0.7l0,0.1c-0.7,0.4-1.2,0.9-1.7,1.4c-0.5,0.5-1.1,1-1.7,1.5c-0.3,0.2-0.6,0.5-0.8,0.8
			c-0.2,0.3-0.3,0.7-0.5,1.1C256.5,414.6,255.9,414.9,255.6,415.7L255.6,415.7z"/>
	</g>
	<g>
		<path class="st9" d="M250.6,430.1c-0.2-0.2-0.3-0.6-0.2-0.9c0-0.3,0.2-0.6,0.3-0.8c0.3-0.5,0.5-0.9,0.9-1.3
			c0.4-0.4,0.8-0.7,1.1-1.1c0.4-0.4,0.6-0.8,0.9-1.3c0.5-0.9,1.3-1.7,2.1-2.4c0.9-0.6,1.9-1.1,3-1.2l0,0.1l-2.4,2
			c-0.8,0.6-1.5,1.3-2.4,1.9c-0.4,0.3-0.8,0.7-1.1,1.1c-0.3,0.4-0.5,0.9-0.7,1.4c-0.3,0.5-0.6,0.9-0.9,1.2
			C251,429.3,250.7,429.6,250.6,430.1L250.6,430.1z"/>
	</g>
	<g>
		<path class="st9" d="M250.9,434c-0.2-0.5,0.1-1.1,0.4-1.5c0.3-0.4,0.6-0.8,0.9-1.1c0.4-0.3,0.8-0.6,1.2-0.9
			c0.4-0.3,0.6-0.7,0.9-1.1c0.5-0.8,1.2-1.6,1.8-2.3c0.7-0.6,1.6-1.3,2.7-1.3l0,0.1c-0.8,0.6-1.3,1.3-2,2c-0.7,0.7-1.4,1.3-2.2,1.9
			c-0.4,0.3-0.8,0.6-1.1,1c-0.3,0.4-0.5,0.8-0.8,1.2c-0.3,0.4-0.6,0.7-1,1.1C251.6,433.3,251.2,433.5,250.9,434L250.9,434z"/>
	</g>
	<g>
		<path class="st9" d="M251.6,439.9c0.3-1.1,0.8-2.2,1.5-3.1c0.4-0.4,0.8-0.8,1.2-1.2c0.4-0.4,0.7-0.9,1-1.4c0.6-1,1.4-1.8,2.4-2.5
			c1-0.7,2.1-1.1,3.3-1.2l0,0.1c-0.9,0.7-1.8,1.3-2.7,2c-0.9,0.6-1.7,1.3-2.6,2c-0.4,0.4-0.8,0.8-1.1,1.2c-0.3,0.5-0.5,1-0.8,1.5
			C253.2,438.2,252.5,439.1,251.6,439.9L251.6,439.9z"/>
	</g>
	<g>
		<path class="st9" d="M252.3,446.7c-0.1-1.2,0.6-2.4,1.3-3.3c0.4-0.4,0.9-0.8,1.3-1.2c0.4-0.4,0.8-0.9,1.1-1.3
			c0.7-1,1.6-1.8,2.5-2.5c1-0.7,2-1.2,3.2-1.4l0,0.1c-0.9,0.8-1.8,1.5-2.6,2.2c-0.9,0.7-1.8,1.3-2.7,2c-0.5,0.3-0.9,0.7-1.3,1.2
			c-0.3,0.5-0.6,1-0.9,1.5C253.6,444.9,253,445.7,252.3,446.7L252.3,446.7z"/>
	</g>
	<g>
		<path class="st9" d="M255.4,448.3c-0.1-0.6,0-1.2,0.4-1.6c0.2-0.2,0.5-0.3,0.6-0.5c0.2-0.2,0.3-0.4,0.4-0.7c0.2-0.5,0.5-1,0.9-1.3
			c0.4-0.3,0.9-0.6,1.5-0.6l0.1,0.1c-0.2,0.6-0.5,1-0.9,1.3c-0.4,0.3-0.7,0.6-1.2,0.9c-0.2,0.1-0.4,0.3-0.5,0.5
			c-0.1,0.2-0.1,0.5-0.2,0.8C256.3,447.6,256,448,255.4,448.3L255.4,448.3z"/>
	</g>
	<g>
		<path class="st9" d="M243,482.7c-0.6-1.1-0.5-2.5,0-3.7c0.3-0.6,0.8-1,1.1-1.5c0.4-0.5,0.6-1,0.9-1.5c0.5-1.1,1.1-2.1,1.8-3.1
			c0.7-1,1.6-1.9,2.8-2.3l0.1,0.1c-0.8,1-1.4,1.9-2,2.9c-0.7,1-1.4,1.9-2.2,2.8c-0.4,0.4-0.8,0.9-1.1,1.4c-0.3,0.5-0.4,1.1-0.6,1.6
			C243.5,480.4,243.2,481.4,243,482.7L243,482.7z"/>
	</g>
	<g>
		<path class="st9" d="M248.6,483.5c-0.6-1.4-0.2-3,0.5-4.3c0.4-0.6,0.8-1.2,1.2-1.8c0.4-0.6,0.7-1.2,1-1.9c0.3-0.7,0.7-1.3,1.1-1.9
			c0.4-0.6,0.8-1.2,1.3-1.7c1-1.1,2.1-2,3.4-2.7l0.1,0.1c-0.9,1.2-1.8,2.2-2.7,3.3l-2.8,3.2c-0.5,0.5-0.9,1.1-1.2,1.7
			c-0.3,0.6-0.5,1.3-0.7,2C249.3,480.8,248.8,482,248.6,483.5L248.6,483.5z"/>
	</g>
	<g>
		<path class="st9" d="M255.4,481.2c0.2-1.3,0.7-2.5,1.2-3.7c0.3-0.6,0.6-1.2,0.9-1.8c0.2-0.6,0.4-1.2,0.5-1.9
			c0.3-1.3,0.8-2.6,1.5-3.7c0.7-1.1,1.8-2.1,3-2.7l0.1,0.1c-0.9,1-1.6,2-2.2,3.1c-0.3,0.5-0.6,1.1-0.9,1.6c-0.3,0.6-0.6,1.1-0.9,1.7
			c-0.3,0.6-0.6,1.2-0.7,1.8c-0.2,0.6-0.2,1.3-0.4,1.9c-0.2,0.6-0.5,1.2-0.8,1.8C256.3,480.1,255.9,480.7,255.4,481.2L255.4,481.2z"
			/>
	</g>
	<g>
		<path class="st9" d="M261.9,479.4c-0.3-1.3,0-2.7,0.6-3.9c0.3-0.6,0.7-1.1,1.1-1.6c0.3-0.5,0.6-1.1,0.9-1.7
			c0.3-0.6,0.6-1.2,0.9-1.7c0.4-0.5,0.7-1.1,1.2-1.6c0.9-1,1.9-1.8,3.1-2.4l0.1,0.1c-0.8,1.1-1.6,2-2.4,3c-0.8,0.9-1.6,1.9-2.5,2.9
			c-0.4,0.5-0.8,1-1.1,1.6c-0.3,0.6-0.4,1.2-0.6,1.8c-0.4,1.2-0.9,2.3-1.2,3.5L261.9,479.4z"/>
	</g>
	<g>
		<path class="st9" d="M267.6,478.3c-0.1-0.1-0.2-0.2-0.2-0.4c0-0.2,0-0.3,0.1-0.4c0.1-0.3,0.2-0.5,0.3-0.7c0.2-0.4,0.5-0.9,0.8-1.2
			c0.3-0.4,0.7-0.7,1-1.1c0.3-0.4,0.5-0.8,0.7-1.3c0.2-0.5,0.4-0.9,0.7-1.3c0.2-0.4,0.5-0.9,0.8-1.3c0.6-0.8,1.6-1.5,2.7-1.6l0,0.1
			c-0.8,0.6-1.3,1.4-1.9,2.1c-0.6,0.7-1.2,1.6-1.9,2.3c-0.4,0.4-0.7,0.7-0.9,1.2c-0.3,0.4-0.4,0.9-0.6,1.4c-0.2,0.4-0.5,0.8-0.9,1.2
			C268.1,477.6,267.6,477.8,267.6,478.3L267.6,478.3z"/>
	</g>
	<path class="st11" d="M267.7,464.7c7-40.3-18-121.3-18-121.3"/>
	<g>
		<path class="st7" d="M446.3,434.2c-3.2-5.1-4.6-11-5.6-16.9c-1-5.9-1.3-11.9-1.2-17.8c0-6,0.5-11.9,1.1-17.8l1.5-17.8
			c0.5-5.9,1-11.9,1.8-17.8c0.4-3,0.9-5.9,1.7-8.8c0.4-1.4,0.9-2.9,1.7-4.2c0.4-0.6,0.9-1.3,1.6-1.6c0.7-0.4,1.5-0.6,2.2-0.5
			c1.6,0.2,2.9,1,4,2c1.2,1,2.1,2.2,2.9,3.4c0.8,1.3,1.4,2.7,1.9,4.1c0.5,1.4,0.9,2.9,1.2,4.3c1.2,5.9,1.4,11.9,1.4,17.8
			c0.1,6,0,11.9,0.3,17.8c0.1,1.5,0.2,2.9,0.3,4.4c0.1,1.5,0.1,3,0.1,4.5c0,3-0.2,6-0.2,8.9c0,1.5,0,2.9,0.3,4.4
			c0.2,1.4,0.8,2.7,1.9,3.5c1.1,0.8,2.5,1.2,3.9,1.3c0.7,0.1,1.4,0.1,2.2,0.1c0.7,0,1.5,0,2.3,0.1c1.5,0.2,3.1,0.7,4.3,1.8
			c1.2,1.1,2,2.6,2.4,4.1c0.7,3,0.5,6.1,0,9.1c-0.4,3-1.1,5.9-1.8,8.8c-0.7,2.9-1.5,5.8-2.4,8.6c-0.8,2.9-1.8,5.7-3,8.5
			c-1.2,2.7-2.6,5.5-4.8,7.6c-1.1,1-2.5,1.9-4.1,2.1c-1.6,0.2-3.1-0.4-4.4-1.3c-2.5-1.8-4.3-4.2-5.9-6.7
			C451,445.2,448.5,439.7,446.3,434.2z M446.4,434.1c1.1,2.7,2.3,5.5,3.6,8.1c1.3,2.7,2.7,5.3,4.4,7.8c1.6,2.4,3.5,4.8,5.9,6.5
			c1.2,0.8,2.6,1.3,4,1.1c1.4-0.2,2.7-1,3.7-2c2-2.1,3.3-4.8,4.5-7.5c1.1-2.7,2-5.5,2.8-8.4c1.5-5.7,3.2-11.5,4.1-17.3
			c0.4-2.9,0.6-5.9,0-8.7c-0.4-1.4-1-2.7-2-3.5c-1-0.9-2.4-1.4-3.8-1.5c-0.7-0.1-1.4-0.1-2.2-0.1c-0.8,0-1.5,0-2.3-0.1
			c-1.5-0.2-3.1-0.5-4.4-1.5c-1.3-1-2-2.6-2.2-4.1c-0.3-1.5-0.3-3-0.3-4.5c0-3,0.2-6,0.3-8.9c0-1.5,0-3-0.1-4.4
			c-0.1-1.5-0.2-3-0.3-4.5c-0.2-6,0-11.9,0-17.9c0-5.9-0.2-11.9-1.3-17.7c-0.3-1.5-0.6-2.9-1.1-4.3c-0.5-1.4-1-2.8-1.8-4
			c-0.7-1.3-1.7-2.4-2.8-3.4c-1.1-0.9-2.5-1.7-3.9-1.9c-0.7-0.1-1.4,0.1-2,0.4c-0.6,0.3-1.1,1-1.5,1.5c-0.8,1.2-1.3,2.6-1.6,4.1
			c-0.8,2.9-1.2,5.8-1.5,8.7c-0.7,5.9-1.1,11.8-1.5,17.8c-0.5,5.9-0.9,11.9-1.5,17.8c-0.6,5.9-1.1,11.8-1.3,17.8
			c-0.2,5.9,0,11.9,0.8,17.8C441.8,423.1,443.2,429,446.4,434.1z"/>
	</g>
	<path class="st8" d="M490.3,354.5"/>
	<g>
		<path class="st7" d="M466,460.9c-3,5.8-6.8,11.2-11,16.2c-4.3,5-9,9.6-14.3,13.5c-2.7,1.9-5.4,3.7-8.3,5.2c-2.9,1.6-5.9,2.9-9,4
			c-3.1,1.2-6.3,2-9.5,2.7c-1.6,0.2-3.2,0.6-4.9,0.7l-2.4,0.3l-2.5,0.1c-1.6,0.1-3.3,0-4.9,0c-1.6-0.1-3.3-0.2-4.9-0.4
			c-1.6-0.2-3.3-0.2-4.9-0.4l-4.9-0.6c-6.5-1-12.9-2.4-19.1-4.6c-6.2-2.2-12.2-5.1-17.4-9.2c-5.2-4-9.6-9.3-11.8-15.5l0.1,0
			c1.3,3,3,5.8,5.1,8.3c0.5,0.7,1.1,1.2,1.6,1.8c0.5,0.6,1.1,1.2,1.7,1.7l1.8,1.6l1.9,1.5c5.2,3.9,11.2,6.6,17.3,8.8
			c12.3,4.1,25.4,6.1,38.4,6.4l2.4,0l2.4-0.2c1.6-0.1,3.2-0.4,4.8-0.7c3.2-0.7,6.4-1.4,9.4-2.6l1.1-0.4l1.1-0.5
			c0.7-0.3,1.5-0.6,2.2-1c1.4-0.7,2.9-1.4,4.3-2.3c2.8-1.6,5.5-3.4,8.1-5.4c1.3-1,2.6-2,3.8-3c1.2-1.1,2.4-2.1,3.6-3.3
			c2.4-2.2,4.6-4.6,6.8-7c2.1-2.5,4.2-5,6.1-7.6C462.5,466.3,464.3,463.7,466,460.9L466,460.9z"/>
	</g>
	<g>
		<path class="st9" d="M443.4,346.5c-0.2-3.3-0.8-6.5-2.2-9.5c-0.7-1.4-1.7-2.8-2.9-3.7c-0.6-0.5-1.3-0.9-2-1
			c-0.4-0.1-0.7,0-1.1,0.1c-0.3,0.1-0.7,0.3-0.9,0.5c-1.2,1-1.9,2.5-2.6,3.9c-0.6,1.5-1.2,3-1.6,4.6c-0.9,3.1-1.8,6.3-2.5,9.5
			c-0.8,3.2-1.4,6.4-1.9,9.6c-0.5,3.2-1,6.5-1.3,9.8c-0.7,6.5-1.2,13.1-1.4,19.6c-0.2,6.6-0.2,13.1,0.1,19.7
			c0.2,3.3,0.4,6.5,0.8,9.8c0.4,3.2,0.9,6.5,1.8,9.6c0.5,1.5,1,3.1,1.7,4.5c0.3,0.7,0.8,1.4,1.3,2l0.8,0.8c0.3,0.3,0.6,0.6,0.9,0.8
			c2.4,2.2,4.8,4.5,7.1,6.9c2.3,2.3,4.7,4.6,7.4,6.4c1.4,0.8,2.9,1.5,4.5,1.3c0.8-0.1,1.6-0.4,2.2-0.8c0.7-0.5,1.3-1,1.8-1.6
			l0.1,0.1c-0.5,0.6-1.1,1.3-1.8,1.8c-0.7,0.5-1.5,0.8-2.3,1c-1.7,0.3-3.4-0.4-4.8-1.2c-2.9-1.7-5.3-4-7.7-6.3
			c-2.4-2.3-4.8-4.5-7.2-6.7c-0.3-0.3-0.6-0.5-0.9-0.8l-0.9-0.9c-0.5-0.7-1-1.4-1.4-2.1c-0.8-1.5-1.3-3.1-1.8-4.7
			c-1.8-6.4-2.3-13.1-2.6-19.6c-0.2-6.6,0-13.2,0.3-19.7c0.4-6.6,0.9-13.1,1.6-19.7c0.7-6.5,1.3-13.1,2.7-19.5
			c0.7-3.2,1.5-6.4,2.5-9.6c0.5-1.6,1-3.1,1.7-4.7c0.7-1.5,1.5-3.1,2.8-4.2c0.4-0.3,0.8-0.5,1.2-0.6c0.5-0.1,0.9-0.1,1.4-0.1
			c0.9,0.2,1.7,0.7,2.3,1.2c1.3,1.1,2.3,2.5,3,4c0.7,1.5,1.1,3.1,1.4,4.8c0.3,1.6,0.4,3.3,0.4,4.9H443.4z"/>
	</g>
	<g>
		<path class="st9" d="M442.9,353c-0.9-1.2-1.7-2.5-2.3-3.8c-0.3-0.7-0.6-1.4-1-2c-0.4-0.6-0.9-1.2-1.4-1.7c-1.1-1-2.2-2-3.3-2.9
			c-1.1-0.9-2.3-1.7-3.6-2.5l0-0.1c1.5,0.2,3,0.8,4.3,1.7c0.6,0.5,1.2,1,1.7,1.6c0.5,0.5,1,1.2,1.4,1.8c0.4,0.6,0.8,1.3,1.3,1.9
			c0.5,0.6,1,1.2,1.4,1.8C442.1,350,442.7,351.5,442.9,353L442.9,353z"/>
	</g>
	<g>
		<path class="st9" d="M442,361.9c-1.1-1.1-2.1-2.2-3-3.4c-0.4-0.6-0.8-1.3-1.4-1.8c-0.5-0.6-1.1-1.1-1.7-1.5
			c-0.6-0.4-1.3-0.9-1.9-1.3c-0.6-0.4-1.3-0.8-1.9-1.2c-1.2-0.9-2.5-1.6-3.8-2.5l0-0.1c1.5,0.3,3,0.9,4.3,1.7c1.3,0.9,2.5,1.8,3.5,3
			c0.5,0.6,1,1.2,1.6,1.7c0.6,0.5,1.2,1,1.8,1.5C440.6,359,441.5,360.3,442,361.9L442,361.9z"/>
	</g>
	<g>
		<path class="st9" d="M441.6,369.2c-1.2-1.3-2.2-2.6-3.2-4c-0.5-0.7-0.9-1.4-1.5-2.1c-0.6-0.6-1.3-1.1-2-1.5
			c-0.7-0.4-1.5-0.7-2.3-1c-0.8-0.3-1.6-0.4-2.4-0.5c-1.6-0.2-3.4-0.2-5.1-0.8l0-0.1c1.7,0,3.4-0.3,5.2-0.2c1.8,0.2,3.5,1,4.9,2.1
			c0.7,0.6,1.3,1.2,1.9,1.7c0.6,0.6,1.3,1.1,1.9,1.8C440.2,366,441.1,367.5,441.6,369.2L441.6,369.2z"/>
	</g>
	<g>
		<path class="st9" d="M440.7,379c-1.4-1-2.2-2.5-2.9-4c-0.3-0.7-0.6-1.5-1-2.2c-0.5-0.7-1.1-1.2-1.8-1.5c-1.4-0.6-3.1-0.6-4.7-0.9
			c-1.6-0.3-3.2-0.7-4.8-1.1l0-0.1c1.7-0.2,3.3-0.1,4.9,0.1c0.8,0.1,1.6,0.3,2.4,0.5c0.8,0.2,1.6,0.5,2.3,1c0.7,0.5,1.3,1.1,1.8,1.8
			c0.5,0.6,1.1,1.3,1.5,2C439.4,376,439.9,377.5,440.7,379L440.7,379z"/>
	</g>
	<g>
		<path class="st9" d="M438.9,384.7c-0.4-0.6-1.1-1-1.6-1.5c-0.5-0.5-1.1-1-1.5-1.6c-0.5-0.6-0.9-1.2-1.4-1.7
			c-0.5-0.5-1.1-1-1.7-1.4c-1.3-0.7-2.5-1.4-3.8-2c-1.3-0.6-2.7-1-4.1-1.3l0-0.1c1.5-0.4,3.1-0.1,4.5,0.4c1.4,0.6,2.7,1.4,3.8,2.5
			c0.5,0.5,1.1,1.1,1.6,1.5c0.6,0.5,1.2,0.9,1.8,1.4c0.6,0.5,1,1.1,1.5,1.7C438.3,383.2,438.8,383.8,438.9,384.7L438.9,384.7z"/>
	</g>
	<g>
		<path class="st9" d="M438.1,392.1c0.1,0,0.1-0.2,0-0.3c0-0.1-0.2-0.2-0.4-0.4c-0.3-0.3-0.5-0.5-0.8-0.8c-0.5-0.6-1.1-1.1-1.5-1.7
			c-0.5-0.6-0.9-1.2-1.5-1.8c-0.5-0.6-1.2-1-1.8-1.4l-3.9-2.5c-1.3-0.8-2.5-1.7-3.8-2.6l0-0.1c1.5,0.4,3,1,4.3,1.8
			c1.3,0.8,2.6,1.8,3.7,2.9c0.5,0.6,1.1,1.1,1.7,1.6c0.6,0.5,1.3,0.9,1.8,1.5c0.6,0.5,1.1,1.1,1.5,1.8c0.2,0.3,0.4,0.6,0.6,1
			c0.1,0.2,0.2,0.3,0.3,0.6c0,0.1,0,0.2,0,0.4c0,0.1-0.1,0.1-0.1,0.2C438.2,392.3,438.1,392.2,438.1,392.1L438.1,392.1z"/>
	</g>
	<g>
		<path class="st9" d="M438.5,400c-1.2-0.9-2.3-2-3.4-3.1c-0.5-0.6-0.9-1.2-1.5-1.7c-0.5-0.5-1.2-1-1.8-1.4
			c-1.3-0.8-2.5-1.6-3.9-2.2c-1.3-0.7-2.6-1.2-4.2-1.5l0-0.1c1.5-0.3,3.2,0,4.6,0.7c0.7,0.3,1.4,0.8,2,1.2c0.6,0.5,1.2,1,1.7,1.5
			c0.5,0.5,1.1,1.1,1.7,1.6c0.6,0.5,1.3,0.9,1.8,1.4C436.9,397.3,437.8,398.5,438.5,400L438.5,400z"/>
	</g>
	<g>
		<path class="st9" d="M439.2,408.1c-0.4,0.1-0.8-0.1-1.1-0.4c-0.3-0.2-0.6-0.5-0.8-0.7c-0.5-0.5-1.1-1-1.5-1.6
			c-0.4-0.6-0.8-1.2-1.3-1.8c-0.5-0.5-1.1-1-1.7-1.4c-1.3-0.7-2.5-1.4-3.8-2c-1.3-0.6-2.6-1.2-3.9-2l0-0.1c1.5,0.2,2.9,0.6,4.3,1.1
			c1.4,0.6,2.7,1.4,3.7,2.5c0.5,0.5,1,1.1,1.6,1.6c0.5,0.5,1.1,0.9,1.7,1.4c0.5,0.5,1,1.1,1.5,1.7c0.2,0.3,0.4,0.6,0.6,0.9
			C438.6,407.7,438.8,407.9,439.2,408.1L439.2,408.1z"/>
	</g>
	<g>
		<path class="st9" d="M438.8,415.3c-1.4-0.7-2.6-1.6-3.7-2.6c-0.5-0.5-1-1.1-1.6-1.6c-0.6-0.5-1.2-0.9-1.9-1.3
			c-1.3-0.7-2.6-1.4-4-1.9c-1.3-0.5-2.7-0.9-4.2-1.2l0-0.1c1.5-0.4,3.1-0.2,4.6,0.3c0.7,0.3,1.4,0.6,2.1,1c0.7,0.4,1.3,0.9,1.8,1.4
			c0.6,0.5,1.1,1,1.7,1.5c0.6,0.4,1.3,0.8,1.9,1.2C436.9,413,438,414,438.8,415.3L438.8,415.3z"/>
	</g>
	<g>
		<path class="st9" d="M441.3,423.9c-1.4-0.9-2.5-2-3.7-3.1c-0.6-0.6-1.1-1.2-1.8-1.6c-0.7-0.5-1.4-0.8-2.2-1
			c-1.5-0.4-3.1-0.5-4.7-0.6c-1.6-0.1-3.2-0.1-4.8-0.3l0-0.1c1.6-0.4,3.2-0.6,4.9-0.6c1.6,0.1,3.3,0.4,4.8,1.2
			c0.7,0.4,1.4,0.8,2.1,1.2c0.7,0.4,1.5,0.8,2.1,1.2C439.4,421.2,440.5,422.4,441.3,423.9L441.3,423.9z"/>
	</g>
	<g>
		<path class="st9" d="M442.7,430.4c-0.4,0-0.8-0.1-1.2-0.4c-0.3-0.2-0.6-0.5-0.9-0.8c-0.5-0.5-1.1-0.8-1.7-1.2
			c-0.6-0.4-1.3-0.9-2-1.2c-0.7-0.4-1.4-0.6-2.1-0.8l-2.2-0.5c-0.7-0.2-1.5-0.3-2.2-0.4c-1.5-0.2-2.9-0.3-4.5-0.2l0-0.1
			c1.4-0.7,3.1-0.9,4.6-0.7c1.6,0.2,3.1,0.7,4.5,1.5c0.7,0.4,1.4,0.7,2.1,1c0.7,0.3,1.5,0.5,2.2,0.8c0.7,0.3,1.5,0.8,1.9,1.5
			C441.7,429.3,442,430,442.7,430.4L442.7,430.4z"/>
	</g>
	<g>
		<path class="st9" d="M447,438.7c-1.8-0.1-3.4-0.9-4.8-1.8c-0.7-0.5-1.3-1-2.1-1.5c-0.7-0.4-1.5-0.7-2.3-0.9
			c-1.6-0.3-3.3-0.4-5-0.5c-1.7-0.2-3.3-0.4-5-0.4l0-0.1c1.6-0.7,3.4-0.7,5.1-0.6c0.8,0.1,1.7,0.2,2.5,0.3c0.9,0.1,1.7,0.4,2.5,0.7
			c0.8,0.3,1.5,0.8,2.3,1.1l2.3,1C444.1,436.9,445.5,437.8,447,438.7L447,438.7z"/>
	</g>
	<g>
		<path class="st9" d="M450.3,444.8c-1.1-0.1-2.1-0.4-3.1-0.9c-0.5-0.2-0.9-0.6-1.4-0.8c-0.5-0.2-1-0.3-1.5-0.3
			c-1.1,0-2.1-0.1-3.1-0.1c-1,0-2,0-3.1,0l0-0.1c0.9-0.6,2-0.9,3.1-1c1.1,0,2.2,0.2,3.2,0.6c0.5,0.2,1,0.4,1.5,0.5
			c0.5,0.1,1.1,0.2,1.6,0.3C448.6,443.5,449.5,444,450.3,444.8L450.3,444.8z"/>
	</g>
	<g>
		<path class="st9" d="M450.8,447.5c-0.8,0.1-1.5,0.1-2.2-0.1c-0.3-0.1-0.7-0.3-1-0.4c-0.4-0.1-0.7-0.1-1.1,0
			c-0.7,0.1-1.4,0.2-2.1,0.2c-0.7,0-1.4-0.1-2.2-0.3l0-0.1c0.7-0.4,1.4-0.6,2.2-0.6c0.7,0,1.5,0.1,2.2,0.3c0.4,0.1,0.7,0.2,1.1,0.2
			c0.4,0,0.8-0.1,1.1-0.1C449.5,446.6,450.2,446.9,450.8,447.5L450.8,447.5z"/>
	</g>
	<g>
		<path class="st9" d="M432,312.9l-41.3,37.2c-6.9,6.2-13.8,12.3-20.5,18.8c-1.7,1.6-3.3,3.2-4.9,4.9c-1.6,1.7-3.3,3.3-4.5,5.2
			c-1.2,2-2,4.2-2.5,6.4c-0.5,2.2-0.7,4.6-0.3,6.8l-0.4-0.2c7.6-5.5,15.1-11.1,22.5-16.7c7.5-5.7,14.8-11.4,22.1-17.3
			c3.6-3,7.1-6,10.5-9.3c3.3-3.3,6.6-6.7,9.7-10.1l9.5-10.3c1.6-1.7,3.2-3.4,5-5c1.7-1.6,3.5-3.1,5.5-4.4l0.1,0.1
			c-3.9,2.6-7,6.2-10.2,9.6l-9.3,10.5c-3.1,3.5-6.3,6.9-9.6,10.3c-3.3,3.3-6.9,6.4-10.5,9.4c-7.2,6-14.7,11.7-22.2,17.3
			c-7.5,5.6-15.1,11-22.8,16.4l-0.3,0.2l-0.1-0.4c-0.4-2.4-0.2-4.7,0.4-7c0.6-2.3,1.4-4.5,2.6-6.5c1.4-1.9,3-3.6,4.6-5.2
			c1.6-1.7,3.3-3.3,4.9-4.9c6.7-6.5,13.4-12.8,20.2-19.1c6.8-6.3,13.8-12.4,20.7-18.5C417.8,324.8,424.9,318.8,432,312.9L432,312.9z
			"/>
	</g>
	<g>
		<path class="st9" d="M429.7,329.8c-0.4-0.8-0.6-1.6-0.6-2.5c0-0.4,0.2-0.8,0.2-1.3c0-0.4-0.1-0.8-0.2-1.2
			c-0.2-0.8-0.3-1.7-0.3-2.5c0-0.8,0.1-1.7,0.5-2.5l0.1,0c0.3,0.8,0.4,1.7,0.5,2.5c0,0.8,0,1.7-0.2,2.5c-0.1,0.4-0.1,0.8-0.1,1.3
			c0.1,0.4,0.2,0.8,0.3,1.2C430.1,328.1,430,329,429.7,329.8L429.7,329.8z"/>
	</g>
	<g>
		<path class="st9" d="M422.7,337.2c0.3-1.3,0.7-2.5,1.1-3.7c0.2-0.6,0.5-1.2,0.7-1.8c0.1-0.3,0.1-0.6,0.1-1c0-0.3,0-0.6,0-1
			c-0.1-1.3-0.3-2.5-0.5-3.8c-0.2-1.3-0.4-2.5-0.6-3.8l0.1,0c0.8,1.1,1.3,2.4,1.6,3.7c0.2,1.3,0.2,2.7,0,4c-0.1,0.7-0.3,1.3-0.3,2
			c0,0.3-0.1,0.7-0.1,1l-0.1,1C424.3,335,423.7,336.2,422.7,337.2L422.7,337.2z"/>
	</g>
	<g>
		<path class="st9" d="M412.8,346.8c-0.2-1.3-0.2-2.6,0-3.9c0.1-0.6,0.3-1.3,0.4-1.9c0.1-0.7,0-1.3-0.1-2c-0.2-1.3-0.2-2.6-0.3-3.9
			c0-1.3,0-2.6,0.2-3.9l0.1,0c0.4,1.3,0.6,2.6,0.7,3.9c0,1.3,0,2.6-0.2,4c-0.1,0.7-0.2,1.3-0.2,2c0,0.7,0.1,1.3,0.1,2
			C413.6,344.3,413.4,345.6,412.8,346.8L412.8,346.8z"/>
	</g>
	<g>
		<path class="st9" d="M416.8,344.2c0.1-1.4,0.4-2.7,0.8-4c0.2-0.6,0.5-1.3,0.7-1.9c0.2-0.7,0.3-1.3,0.3-2c0-1.4,0.2-2.7,0.3-4.1
			c0.2-1.3,0.4-2.7,0.8-4l0.1,0c0.2,1.4,0.2,2.8,0.1,4.1c-0.2,1.4-0.4,2.7-0.9,4c-0.2,0.7-0.4,1.3-0.5,2c-0.1,0.7-0.1,1.4-0.2,2.1
			C418.1,341.7,417.6,343,416.8,344.2L416.8,344.2z"/>
	</g>
	<g>
		<path class="st9" d="M405.1,356.5c0-1.6,0.1-3.1,0.3-4.6c0.1-0.8,0.3-1.5,0.4-2.3c0.1-0.8,0-1.5-0.1-2.3c-0.2-1.5-0.3-3-0.5-4.6
			c-0.1-1.5-0.2-3-0.2-4.6l0.1,0c0.6,1.4,1,3,1.2,4.5c0.1,1.5,0.2,3.1,0,4.7c-0.1,0.8-0.2,1.5-0.2,2.3c0,0.8,0.1,1.6,0.1,2.3
			C406.2,353.5,405.8,355,405.1,356.5L405.1,356.5z"/>
	</g>
	<g>
		<path class="st9" d="M397.5,362.2c-0.3-1.5-0.3-2.9-0.2-4.3c0.1-0.7,0.3-1.4,0.3-2.1c0.1-0.7,0-1.4-0.1-2.2
			c-0.2-1.4-0.2-2.9-0.2-4.3c0-1.4,0.2-2.9,0.4-4.3l0.1,0c0.3,1.4,0.5,2.9,0.5,4.3c0,1.4-0.1,2.9-0.3,4.3c-0.1,0.7-0.2,1.4-0.2,2.2
			c0,0.7,0.1,1.4,0.2,2.2C398.2,359.4,398,360.8,397.5,362.2L397.5,362.2z"/>
	</g>
	<g>
		<path class="st9" d="M388.6,368.9c0.5-1.5,1.1-2.9,1.7-4.4c0.3-0.7,0.7-1.4,0.9-2.2c0.2-0.8,0.3-1.5,0.3-2.3c0-1.6,0-3.1-0.2-4.6
			c-0.1-1.5-0.3-3-1.1-4.4l0.1-0.1c0.7,0.5,1.2,1.2,1.5,2c0.3,0.8,0.5,1.6,0.6,2.4c0.1,0.8,0.1,1.6,0,2.4c0,0.8-0.2,1.6-0.4,2.4
			c-0.2,0.8-0.4,1.5-0.5,2.3c-0.2,0.8-0.2,1.6-0.4,2.4C390.6,366.3,389.8,367.8,388.6,368.9L388.6,368.9z"/>
	</g>
	<g>
		<path class="st9" d="M381,374.1c0.5-1.2,1-2.3,1.5-3.4c0.3-0.6,0.6-1.1,0.8-1.7c0.1-0.3,0.1-0.6,0.2-0.9c0-0.3,0-0.6,0-0.9
			c-0.1-1.3-0.2-2.5-0.4-3.7c-0.2-1.2-0.5-2.4-0.8-3.7l0.1,0c0.9,1,1.4,2.2,1.7,3.5c0.2,1.3,0.3,2.6-0.1,3.9
			c-0.1,0.6-0.3,1.3-0.4,1.9c-0.1,0.3-0.1,0.6-0.1,1l-0.2,1C382.9,372.2,382.2,373.3,381,374.1L381,374.1z"/>
	</g>
	<g>
		<path class="st9" d="M375.1,380c-0.4-1.2-0.5-2.4-0.4-3.6c0.1-0.6,0.2-1.2,0.2-1.8c0-0.6,0-1.2-0.1-1.8c-0.2-1.2-0.3-2.4-0.3-3.6
			c0-1.2,0.1-2.4,0.5-3.6l0.1,0c0.3,1.2,0.4,2.4,0.5,3.6c0,1.2,0,2.4-0.2,3.6c-0.1,0.6-0.1,1.2-0.1,1.8c0,0.6,0.2,1.2,0.3,1.8
			C375.6,377.6,375.5,378.8,375.1,380L375.1,380z"/>
	</g>
	<g>
		<path class="st9" d="M368.2,383.7c0-1.1,0.1-2.1,0.4-3.1c0.1-0.5,0.3-1,0.4-1.5c0.1-0.5,0-1.1-0.1-1.6c-0.2-1-0.4-2-0.6-3.1
			c-0.1-1-0.3-2-0.4-3.1l0.1,0c0.7,0.9,1.1,1.9,1.3,3c0.2,1.1,0.2,2.2,0.1,3.2c-0.1,0.5-0.2,1.1-0.1,1.6c0,0.5,0.1,1.1,0.1,1.6
			C369.3,381.7,368.9,382.8,368.2,383.7L368.2,383.7z"/>
	</g>
	<g>
		<path class="st9" d="M361.8,389c-0.2-1-0.3-2.1-0.1-3.1c0.1-0.5,0.3-1,0.4-1.5c0.1-0.5,0.1-1,0-1.5c-0.1-1-0.1-2,0-3
			c0.1-1,0.2-1.9,0-2.9l0.1-0.1c0.8,0.8,1,2,1,3c-0.1,1-0.2,2-0.5,3c-0.1,0.5-0.2,1-0.3,1.5c0,0.5,0.1,1,0.1,1.5
			C362.5,387,362.3,388,361.8,389L361.8,389z"/>
	</g>
	<g>
		<path class="st9" d="M354.7,384.8l-0.9,11.7l-0.8,11.7c-0.5,7.8-1.2,15.7-1.9,23.5c-0.9,7.8-0.9,15.7-1.8,23.5
			c-0.3,1.9-0.6,3.9-1.3,5.8c-0.4,0.9-0.8,1.8-1.6,2.5c-0.4,0.3-0.8,0.6-1.4,0.7c-0.5,0.1-1,0.2-1.4,0.3c-0.5,0.1-1,0.2-1.5,0.3
			c-0.5,0.1-1,0.1-1.5-0.1c-0.5-0.2-0.9-0.6-1.1-1.1c-0.2-0.5-0.4-1-0.5-1.4c-0.4-2-0.5-3.9-0.6-5.9c-0.1-3.9,0-7.9,0.1-11.8
			c0.1-3.9,0.2-7.9,0.4-11.8c0.3-7.8,0.7-15.7,1.4-23.5c0.6-7.8,1.3-15.7,2.8-23.4c0.4-1.9,0.8-3.9,1.4-5.7c0.3-0.9,0.7-1.9,1.4-2.7
			c0.2-0.2,0.4-0.4,0.7-0.5c0.3-0.1,0.5-0.1,0.8-0.1l1.5-0.1c1,0,2,0,3,0.3c1,0.3,1.8,1,2.2,1.9
			C354.7,380.8,354.8,382.9,354.7,384.8z M354.6,384.8c0-1.9,0-4-0.9-5.7c-0.5-0.8-1.2-1.5-2.1-1.8c-0.9-0.3-1.9-0.3-2.9-0.2
			l-1.5,0.1c-0.2,0-0.5,0-0.7,0.1c-0.2,0.1-0.4,0.2-0.5,0.4c-0.6,0.7-0.9,1.7-1.2,2.6c-0.6,1.9-0.9,3.8-1.2,5.7
			c-1.2,7.7-1.8,15.6-2.4,23.4c-0.6,7.8-1,15.7-1.5,23.5c-0.4,7.8-0.9,15.7-0.9,23.5c0,2,0.1,3.9,0.4,5.8c0.2,0.9,0.5,1.9,1.3,2.3
			c0.8,0.3,1.8-0.1,2.8-0.2c0.5-0.1,1-0.2,1.4-0.3c0.5-0.1,0.9-0.4,1.2-0.6c0.7-0.6,1.2-1.5,1.5-2.4c0.7-1.8,1-3.8,1.3-5.7
			c0.5-3.9,0.6-7.8,0.7-11.7c0.1-2,0.1-3.9,0.2-5.9c0.1-2,0.3-3.9,0.4-5.9c0.6-7.8,1.3-15.6,2.1-23.5l1.2-11.7L354.6,384.8z"/>
	</g>
	<g>
		<path class="st9" d="M353.3,385.8c-0.6,0.4-1.2,0.6-1.9,0.6c-0.3,0-0.7-0.1-1-0.1c-0.3,0-0.6,0.1-0.9,0.2
			c-0.6,0.3-1.2,0.4-1.9,0.5c-0.6,0-1.3,0-2-0.2l0-0.1c0.6-0.4,1.2-0.6,1.8-0.7c0.6-0.1,1.3-0.1,2,0c0.3,0,0.7,0.1,1,0
			c0.3-0.1,0.6-0.3,0.9-0.4C352,385.5,352.6,385.5,353.3,385.8L353.3,385.8z"/>
	</g>
	<g>
		<path class="st9" d="M353.6,393.6c-0.8,0.1-1.6,0.1-2.4-0.1c-0.4-0.1-0.7-0.3-1.1-0.4c-0.4-0.1-0.8-0.1-1.2,0
			c-0.8,0.2-1.5,0.2-2.3,0.2c-0.8,0-1.5-0.1-2.4-0.3l0-0.1c0.7-0.4,1.5-0.6,2.3-0.7c0.8,0,1.6,0,2.4,0.3c0.4,0.1,0.8,0.2,1.2,0.2
			c0.4,0,0.8-0.1,1.2-0.1C352.2,392.7,353,393,353.6,393.6L353.6,393.6z"/>
	</g>
	<g>
		<path class="st9" d="M353.2,402c-0.9-0.4-1.6-0.8-2.3-1.2c-0.3-0.3-0.7-0.6-1.1-0.8c-0.4-0.2-0.8-0.3-1.3-0.3
			c-0.9,0-1.7-0.1-2.6-0.1c-0.8-0.1-1.7-0.1-2.6-0.2l0-0.1c0.8-0.5,1.7-0.7,2.7-0.8c0.9,0,1.9,0.2,2.7,0.7c0.4,0.2,0.8,0.4,1.3,0.5
			c0.4,0.1,0.9,0.2,1.3,0.4C352.1,400.4,352.9,401,353.2,402L353.2,402z"/>
	</g>
	<g>
		<path class="st9" d="M352.2,408.7c-0.8-0.9-1.5-1.6-2.2-2.4c-0.2-0.2-0.3-0.4-0.5-0.6c-0.2-0.2-0.4-0.4-0.6-0.6
			c-0.2-0.2-0.5-0.3-0.7-0.4c-0.3-0.1-0.5-0.2-0.8-0.3c-1.1-0.2-2.1-0.4-3.2-0.5c-1-0.1-2.1-0.1-3.2,0l0-0.1c1-0.7,2.2-1,3.3-0.9
			c1.2,0.1,2.3,0.4,3.3,1.1c0.5,0.3,1,0.6,1.5,0.9c0.2,0.2,0.5,0.3,0.8,0.4c0.2,0.1,0.5,0.3,0.7,0.5
			C351.5,406.4,352.2,407.5,352.2,408.7L352.2,408.7z"/>
	</g>
	<g>
		<path class="st9" d="M351.2,416.9c-0.7-0.8-1.3-1.6-1.9-2.4c-0.3-0.4-0.5-0.9-0.8-1.3c-0.3-0.4-0.8-0.7-1.2-0.9
			c-0.9-0.5-1.8-0.9-2.7-1.4c-0.9-0.5-1.8-0.9-2.7-1.4l0-0.1c1.1-0.1,2.2,0.1,3.1,0.5c1,0.5,1.9,1.1,2.5,1.9
			c0.4,0.4,0.7,0.8,1.1,1.1c0.4,0.3,0.9,0.6,1.2,1C350.7,414.7,351.2,415.7,351.2,416.9L351.2,416.9z"/>
	</g>
	<g>
		<path class="st9" d="M351.3,424.2c-0.7-1-1.3-2-1.9-3c-0.3-0.5-0.5-1.1-0.9-1.5c-0.2-0.2-0.4-0.4-0.6-0.6
			c-0.2-0.2-0.5-0.3-0.7-0.5c-1-0.6-2.1-1.1-3.1-1.5c-1.1-0.4-2.1-0.8-3.3-1.2l0-0.1c1.2-0.3,2.5-0.1,3.7,0.3c1.2,0.4,2.2,1.1,3.1,2
			c0.4,0.4,0.8,0.9,1.3,1.3c0.2,0.2,0.5,0.4,0.7,0.6c0.2,0.2,0.5,0.4,0.7,0.6C350.9,421.7,351.3,422.9,351.3,424.2L351.3,424.2z"/>
	</g>
	<g>
		<path class="st9" d="M349.1,430c-0.7-0.8-1.3-1.6-1.9-2.4c-0.3-0.4-0.5-0.9-0.8-1.3c-0.3-0.4-0.8-0.7-1.2-1
			c-0.9-0.5-1.8-1-2.6-1.5c-0.9-0.5-1.7-1-2.7-1.6l0-0.1c1.1,0,2.2,0.2,3.1,0.7c0.9,0.5,1.8,1.2,2.5,2c0.3,0.4,0.7,0.8,1.1,1.2
			c0.4,0.4,0.8,0.6,1.2,1C348.6,427.9,349.1,428.9,349.1,430L349.1,430z"/>
	</g>
	<g>
		<path class="st9" d="M349.8,439.1c-0.8-0.7-1.4-1.5-1.9-2.3c-0.2-0.4-0.4-0.9-0.7-1.4c-0.3-0.4-0.6-0.8-1-1.1l-2.3-1.8
			c-0.7-0.6-1.5-1.2-2.3-1.8l0-0.1c1.1,0,2.1,0.5,2.9,1.1c0.8,0.6,1.5,1.4,2.1,2.3c0.3,0.4,0.5,0.9,0.9,1.2c0.3,0.4,0.7,0.7,1.1,1.1
			C349.2,437.1,349.6,438.1,349.8,439.1L349.8,439.1z"/>
	</g>
	<g>
		<path class="st9" d="M349.4,445.2c-0.6,0.1-1.2-0.3-1.5-0.8c-0.3-0.5-0.6-0.9-0.7-1.4c-0.2-0.5-0.3-1-0.5-1.4
			c-0.2-0.4-0.6-0.8-1-1.1c-0.8-0.6-1.6-1.1-2.5-1.5c-0.8-0.4-1.7-0.7-2.8-1l0-0.1c1-0.4,2.2-0.3,3.2,0.1c1,0.5,1.9,1.2,2.4,2.1
			c0.3,0.5,0.6,0.9,0.9,1.3c0.3,0.4,0.7,0.8,1,1.2C348.5,443.6,348.6,444.6,349.4,445.2L349.4,445.2z"/>
	</g>
	<g>
		<path class="st9" d="M347.7,451.5c-0.6-0.8-1-1.6-1.5-2.4c-0.2-0.4-0.4-0.9-0.7-1.2c-0.2-0.2-0.3-0.3-0.5-0.5
			c-0.2-0.1-0.4-0.2-0.6-0.4c-0.9-0.4-1.7-0.8-2.5-1.1c-0.8-0.3-1.7-0.6-2.7-0.9l0-0.1c1-0.4,2-0.3,3,0c1,0.3,1.9,0.9,2.5,1.6
			c0.3,0.4,0.7,0.7,1,1.1c0.2,0.2,0.4,0.3,0.6,0.5c0.2,0.2,0.4,0.3,0.6,0.5C347.5,449.4,347.9,450.4,347.7,451.5L347.7,451.5z"/>
	</g>
	<g>
		<path class="st9" d="M346.4,457.8c0-0.8-0.3-1.3-0.6-1.9c-0.1-0.3-0.2-0.7-0.5-1c-0.2-0.3-0.5-0.5-0.9-0.7c-0.7-0.3-1.3-0.6-2-0.8
			c-0.7-0.3-1.3-0.5-2.1-0.9l0-0.1c0.8-0.3,1.6-0.3,2.4,0c0.8,0.3,1.5,0.8,2,1.4c0.3,0.3,0.5,0.6,0.8,0.9c0.3,0.3,0.7,0.5,0.9,0.8
			c0.3,0.3,0.4,0.7,0.5,1.2C347.1,457.1,346.9,457.6,346.4,457.8L346.4,457.8z"/>
	</g>
	<g>
		<path class="st9" d="M343.6,463c-0.3-0.6-0.5-1.1-0.6-1.6c0-0.3,0-0.6-0.1-0.9c-0.1-0.3-0.3-0.5-0.6-0.6c-0.5-0.3-1-0.6-1.4-0.8
			l-1.4-0.9l0-0.1c0.6-0.3,1.3-0.2,1.9,0.1c0.6,0.3,1.1,0.8,1.3,1.4c0.1,0.3,0.3,0.6,0.4,0.8c0.2,0.2,0.5,0.5,0.6,0.8
			C344.1,461.7,344.1,462.4,343.6,463L343.6,463z"/>
	</g>
	<g>
		<path class="st9" d="M370,391.5c1,2.6,1.7,5.2,2.1,8c0.4,2.7,0.6,5.5,0,8.3c-0.3,1.4-0.9,2.7-1.8,3.8c-0.9,1.1-2.3,1.8-3.6,2
			c-1.4,0.2-2.8,0.3-4.1,0c-1.4-0.3-2.7-0.9-3.8-1.8c-2.2-1.8-3.4-4.6-3.8-7.3c-0.2-1.4-0.3-2.8-0.1-4.2c0.2-1.4,0.6-2.8,1.5-4.1
			c1.6-2.2,3.4-4.5,5.9-5.9c1.3-0.7,2.8-0.9,4.2-0.7C367.7,389.9,369,390.6,370,391.5z M370,391.5c-1.1-0.7-2.4-1.3-3.7-1.4
			c-1.3-0.2-2.6,0.2-3.7,0.8c-1.1,0.7-2.1,1.6-3,2.6c-0.9,1-1.7,2.1-2.5,3.2c-0.7,1-1.1,2.3-1.3,3.6c-0.2,1.3-0.2,2.6,0,3.9
			c0.4,2.6,1.4,5.2,3.3,7c1,0.9,2.2,1.6,3.5,1.9c1.3,0.3,2.7,0.3,4,0c0.7-0.1,1.3-0.4,1.8-0.7c0.5-0.4,1-0.8,1.4-1.3
			c0.8-1,1.2-2.3,1.5-3.6c0.5-2.6,0.4-5.3,0.1-8C371.1,396.9,370.6,394.2,370,391.5z"/>
	</g>
	<g>
		<path class="st9" d="M367,419.2c-1-1.1-2.1-2.2-3.4-2.9c-0.7-0.3-1.4-0.5-2-0.4c-0.7,0.1-1.3,0.5-1.8,1c-1,1-1.6,2.4-2,3.8
			c-0.4,1.4-0.7,2.9-0.9,4.4c-0.4,3-0.7,6-0.5,9.1c0.1,1.5,0.3,3,0.6,4.5c0.3,1.5,0.8,2.9,1.4,4.3c0.7,1.3,1.6,2.6,2.8,3.1
			c1.3,0.5,2.8,0.3,3.8-0.7c0.5-0.5,0.9-1.1,1.2-1.7c0.3-0.6,0.6-1.3,0.8-2.1c0.4-1.4,0.6-2.9,0.8-4.4
			C368.3,431.3,367.8,425.2,367,419.2z M367,419.1c0.8,3,1.3,6,1.6,9c0.3,3,0.4,6.1,0.1,9.2c-0.1,1.5-0.4,3.1-0.8,4.6
			c-0.2,0.8-0.5,1.5-0.9,2.2c-0.4,0.7-0.8,1.4-1.5,2c-0.6,0.6-1.4,1-2.3,1.1c-0.8,0.1-1.7,0-2.5-0.4c-1.5-0.8-2.4-2.2-3-3.6
			c-1.2-2.9-1.6-5.9-1.9-9c-0.2-3-0.3-6.1,0-9.2c0.2-1.5,0.4-3.1,0.9-4.5c0.4-1.5,1.2-3,2.3-4.1c0.6-0.6,1.4-1,2.2-1.1
			c0.9-0.1,1.7,0.2,2.4,0.6c0.7,0.4,1.3,0.9,1.8,1.5C366.2,417.9,366.6,418.5,367,419.1z"/>
	</g>
	<g>
		<path class="st9" d="M374.6,468.9c-7.1-1.5-14.2-3.2-21.4-4.6c-0.9-0.2-1.8-0.3-2.7-0.4c-0.4-0.1-0.9-0.1-1.3-0.1
			c-0.2,0-0.4,0-0.6,0c-0.2,0-0.4,0.1-0.6,0.2c-1.7,0.7-3.3,1.5-4.6,2.7c-0.7,0.6-1.2,1.3-1.5,2.2c-0.1,0.4-0.1,0.9-0.1,1.3
			c0.1,0.4,0.3,0.8,0.5,1.2c0.5,0.7,1.2,1.3,2,1.8c0.7,0.5,1.6,0.9,2.4,1.2c1.7,0.7,3.4,1.2,5.1,1.8c1.7,0.6,3.5,1.1,5.2,1.6
			c3.5,1,7,1.9,10.6,2.5c1.8,0.3,3.6,0.4,5.3,0.4c0.9-0.1,1.8-0.1,2.6-0.4c0.8-0.3,1.5-0.7,1.9-1.4c0.4-0.7,0.5-1.6,0.4-2.4
			c-0.1-0.9-0.4-1.7-0.7-2.6C376.5,472,375.6,470.4,374.6,468.9z M374.7,468.8c1.1,1.5,2.1,3,2.9,4.7c0.4,0.8,0.7,1.7,0.9,2.7
			c0.2,0.9,0.2,2-0.3,2.9c-0.5,0.9-1.4,1.5-2.3,1.9c-0.9,0.4-1.9,0.5-2.8,0.6c-1.9,0.1-3.7-0.1-5.6-0.3c-3.7-0.5-7.2-1.5-10.7-2.6
			c-1.8-0.5-3.5-1.1-5.2-1.8c-1.7-0.6-3.4-1.3-5.1-2.1c-1.6-0.8-3.3-1.8-4.4-3.3c-0.3-0.4-0.5-0.8-0.6-1.3c-0.1-0.5,0-1,0.1-1.4
			c0.3-0.9,0.9-1.7,1.6-2.3c0.7-0.6,1.4-1.2,2.2-1.7c0.8-0.5,1.6-0.9,2.4-1.3c0.2-0.1,0.4-0.2,0.7-0.3c0.3,0,0.5-0.1,0.7-0.1
			c0.5,0,0.9,0,1.4,0.1c0.9,0.1,1.8,0.2,2.7,0.3c3.6,0.6,7.2,1.4,10.7,2.3C367.7,466.7,371.2,467.7,374.7,468.8z"/>
	</g>
	<g>
		<path class="st9" d="M371.3,402.5c-0.9-0.9-1.6-1.9-2.1-3c-0.2-0.6-0.4-1.2-0.7-1.7c-0.3-0.5-0.6-1-1.1-1.5
			c-0.8-0.9-1.5-1.9-2.4-2.4c-0.9-0.5-2.3-0.7-3.3-1.4l0-0.1c0.6,0,1.2,0,1.9,0.1c0.6,0.1,1.3,0.1,1.9,0.4c0.7,0.3,1.1,0.9,1.5,1.4
			c0.4,0.5,0.7,1.1,0.9,1.7c0.3,0.6,0.5,1.1,0.9,1.6c0.3,0.5,0.8,1,1.1,1.5C370.6,400.1,371.1,401.2,371.3,402.5L371.3,402.5z"/>
	</g>
	<g>
		<path class="st9" d="M371.3,408.2c-1-1.1-1.9-2.3-2.6-3.6c-0.4-0.6-0.7-1.3-1.1-1.9c-0.4-0.6-0.9-1.1-1.5-1.6
			c-1.1-1-2.1-2.1-3.2-2.8c-1.1-0.8-2.4-1.4-3.8-1.9l0-0.1c1.5-0.2,3.1,0.2,4.4,1.1c0.7,0.4,1.2,1,1.7,1.6c0.5,0.6,0.9,1.2,1.3,1.8
			c0.4,0.6,0.8,1.2,1.3,1.8c0.5,0.6,1,1.1,1.5,1.7C370.3,405.4,371,406.7,371.3,408.2L371.3,408.2z"/>
	</g>
	<g>
		<path class="st9" d="M368.8,412.7c-0.9-1.2-1.8-2.3-2.6-3.4c-0.4-0.6-0.7-1.3-1.2-1.8c-0.5-0.6-1-1.1-1.5-1.5
			c-1.1-0.9-2.1-2-3.3-2.8c-1.1-0.9-2.2-1.7-3.6-2.2l0-0.1c1.5-0.1,3.1,0.5,4.3,1.4c0.6,0.5,1.1,1,1.6,1.5c0.5,0.5,1,1.1,1.4,1.7
			c0.4,0.6,0.9,1.2,1.4,1.7c0.5,0.5,1.1,1,1.6,1.5C367.8,409.9,368.5,411.2,368.8,412.7L368.8,412.7z"/>
	</g>
	<g>
		<path class="st9" d="M363,413.2c-0.2-0.8-0.8-1.1-1.2-1.8c-0.2-0.3-0.3-0.7-0.5-1.1c-0.2-0.3-0.5-0.6-0.8-0.8
			c-0.6-0.5-1.2-1-1.7-1.5c-0.5-0.5-1-0.9-1.7-1.4l0-0.1c0.8-0.2,1.8,0.1,2.4,0.7c0.6,0.6,1.1,1.2,1.4,2c0.2,0.4,0.4,0.7,0.6,1
			c0.3,0.3,0.6,0.5,0.9,0.8c0.3,0.3,0.5,0.6,0.7,1C363.3,412.3,363.4,412.8,363,413.2L363,413.2z"/>
	</g>
	<g>
		<path class="st9" d="M368,427.6c0-0.5-0.3-0.8-0.6-1.2c-0.3-0.4-0.7-0.8-0.9-1.2c-0.3-0.5-0.4-1-0.7-1.4c-0.3-0.4-0.7-0.8-1.1-1.1
			c-0.8-0.6-1.6-1.3-2.4-1.9l-2.4-2l0-0.1c1.1,0.1,2.1,0.6,3,1.2c0.8,0.7,1.6,1.5,2.1,2.4c0.3,0.5,0.6,0.9,0.9,1.3
			c0.3,0.4,0.8,0.7,1.1,1.1c0.4,0.4,0.6,0.8,0.9,1.3c0.1,0.2,0.2,0.5,0.3,0.8C368.3,427.1,368.3,427.4,368,427.6L368,427.6z"/>
	</g>
	<g>
		<path class="st9" d="M367.6,431.5c-0.2-0.5-0.5-0.7-0.9-1c-0.4-0.3-0.7-0.7-1-1.1c-0.3-0.4-0.5-0.9-0.8-1.2
			c-0.3-0.4-0.7-0.7-1.1-1c-0.8-0.6-1.5-1.2-2.2-1.9c-0.7-0.7-1.2-1.4-2-2l0-0.1c1.1-0.1,2,0.7,2.7,1.3c0.7,0.7,1.3,1.4,1.8,2.3
			c0.3,0.4,0.6,0.8,0.9,1.1c0.3,0.3,0.8,0.6,1.2,0.9c0.4,0.3,0.7,0.7,0.9,1.1C367.6,430.4,368,431,367.6,431.5L367.6,431.5z"/>
	</g>
	<g>
		<path class="st9" d="M367,437.4c-0.9-0.8-1.5-1.7-2.1-2.7c-0.3-0.5-0.4-1-0.8-1.5c-0.3-0.5-0.7-0.9-1.1-1.2
			c-0.9-0.7-1.7-1.4-2.6-2c-0.8-0.7-1.7-1.3-2.7-2l0-0.1c1.2,0.1,2.3,0.5,3.3,1.2c0.9,0.7,1.8,1.5,2.4,2.5c0.3,0.5,0.6,1,1,1.4
			c0.4,0.4,0.8,0.8,1.2,1.2C366.3,435.2,366.8,436.2,367,437.4L367,437.4z"/>
	</g>
	<g>
		<path class="st9" d="M366.3,444.2c-0.6-1-1.3-1.8-1.9-2.8c-0.3-0.5-0.5-1-0.9-1.5c-0.4-0.5-0.8-0.8-1.3-1.2
			c-0.9-0.7-1.8-1.3-2.7-2c-0.9-0.7-1.8-1.4-2.6-2.2l0-0.1c1.2,0.3,2.2,0.8,3.2,1.4c0.9,0.7,1.8,1.5,2.5,2.5
			c0.4,0.5,0.7,0.9,1.1,1.3c0.4,0.4,0.9,0.8,1.3,1.2C365.8,441.8,366.5,443,366.3,444.2L366.3,444.2z"/>
	</g>
	<g>
		<path class="st9" d="M363.2,445.9c-0.5-0.3-0.8-0.7-1-1.2c-0.1-0.2-0.1-0.5-0.2-0.8c-0.1-0.2-0.3-0.4-0.5-0.5
			c-0.5-0.3-0.8-0.6-1.2-0.9c-0.3-0.4-0.6-0.8-0.9-1.3l0.1-0.1c0.6,0,1.1,0.3,1.5,0.6c0.4,0.4,0.7,0.8,0.9,1.3
			c0.1,0.3,0.2,0.5,0.4,0.7c0.2,0.2,0.5,0.3,0.6,0.5C363.2,444.7,363.4,445.2,363.2,445.9L363.2,445.9z"/>
	</g>
	<g>
		<path class="st9" d="M375.6,480.2c-0.1-1.2-0.3-2.3-0.7-3.3c-0.2-0.5-0.3-1.1-0.6-1.6c-0.3-0.5-0.7-1-1.1-1.4
			c-0.8-0.9-1.5-1.8-2.2-2.8c-0.6-1-1.2-1.9-2-2.9l0.1-0.1c1.2,0.4,2.1,1.4,2.8,2.3c0.7,1,1.3,2,1.8,3.1c0.3,0.5,0.5,1.1,0.9,1.5
			c0.4,0.5,0.8,0.9,1.1,1.5C376.2,477.6,376.2,479.1,375.6,480.2L375.6,480.2z"/>
	</g>
	<g>
		<path class="st9" d="M370,481c-0.1-1.4-0.6-2.6-1.1-3.9c-0.2-0.7-0.4-1.4-0.7-2c-0.3-0.6-0.7-1.2-1.2-1.7l-2.8-3.2
			c-0.9-1.1-1.8-2.1-2.7-3.3l0.1-0.1c1.3,0.7,2.4,1.6,3.4,2.7c0.5,0.5,0.9,1.1,1.3,1.7c0.4,0.6,0.8,1.2,1.1,1.9
			c0.3,0.6,0.6,1.3,1,1.9c0.4,0.6,0.8,1.2,1.2,1.8C370.3,478,370.7,479.6,370,481L370,481z"/>
	</g>
	<g>
		<path class="st9" d="M363.2,478.7c-0.4-0.5-0.8-1.1-1.1-1.7c-0.3-0.6-0.6-1.2-0.8-1.8c-0.2-0.6-0.2-1.3-0.4-1.9
			c-0.2-0.6-0.4-1.2-0.7-1.8c-0.3-0.6-0.6-1.1-0.9-1.7c-0.3-0.6-0.6-1.1-0.9-1.6c-0.6-1.1-1.3-2.1-2.2-3.1l0.1-0.1
			c1.3,0.5,2.3,1.5,3,2.7c0.7,1.2,1.2,2.4,1.5,3.7c0.1,0.6,0.3,1.3,0.5,1.9c0.2,0.6,0.6,1.2,0.9,1.8
			C362.6,476.1,363.1,477.3,363.2,478.7L363.2,478.7z"/>
	</g>
	<g>
		<path class="st9" d="M356.6,476.9c-0.4-1.3-0.8-2.4-1.2-3.5c-0.2-0.6-0.3-1.2-0.6-1.8c-0.3-0.6-0.6-1.1-1.1-1.6
			c-0.9-1-1.6-1.9-2.5-2.9c-0.8-1-1.6-1.9-2.4-3l0.1-0.1c1.2,0.6,2.2,1.4,3.1,2.4c0.4,0.5,0.8,1,1.2,1.6c0.4,0.5,0.7,1.1,0.9,1.7
			c0.3,0.6,0.5,1.2,0.9,1.7c0.3,0.6,0.8,1.1,1.1,1.6C356.7,474.2,357.1,475.6,356.6,476.9L356.6,476.9z"/>
	</g>
	<g>
		<path class="st9" d="M351,475.7c0.1-0.4-0.4-0.6-0.7-1.1c-0.3-0.4-0.6-0.8-0.9-1.2c-0.2-0.4-0.4-0.9-0.6-1.4
			c-0.2-0.4-0.6-0.8-0.9-1.2c-0.7-0.7-1.3-1.5-1.9-2.3c-0.6-0.8-1.1-1.5-1.9-2.1l0-0.1c1.1,0,2,0.8,2.7,1.6c0.3,0.4,0.6,0.8,0.8,1.3
			c0.3,0.4,0.5,0.9,0.7,1.3c0.2,0.5,0.4,0.9,0.7,1.3c0.3,0.4,0.7,0.7,1,1.1c0.3,0.4,0.6,0.8,0.8,1.2c0.1,0.2,0.2,0.4,0.3,0.7
			c0.1,0.1,0.1,0.3,0.1,0.4C351.3,475.6,351.2,475.8,351,475.7L351,475.7z"/>
	</g>
	<path class="st11" d="M369,340.8c0,0-25,81-18,121.3"/>
	<g>
		<path class="st12" d="M272.7,466.6c2.6,3,5.2,5.9,8,8.6c1.4,1.4,2.8,2.7,4.4,3.8c0.8,0.6,1.6,1.1,2.4,1.5c0.9,0.4,1.7,0.7,2.7,0.9
			c1.8,0.5,3.8,0.6,5.7,0.6c1.9,0,3.9-0.3,5.8-0.7c1.9-0.4,3.8-1,5.6-1.8c1.9-0.8,4-0.4,5.9,0.1c1.9,0.6,3.7,1.3,5.6,1.8
			c1.8,0.5,3.8,0.9,5.6,0.7c3.8-0.3,6.9-3,9.7-5.5c2.8-2.7,5.4-5.6,7.9-8.6l3.7-4.5c1.3-1.5,2.5-3,4-4.3l0.1,0.1
			c-1.4,1.3-2.5,3-3.7,4.5c-1.2,1.6-2.3,3.1-3.5,4.7c-2.4,3.1-4.9,6.1-7.8,8.9c-1.5,1.3-2.9,2.7-4.7,3.7c-1.7,1.1-3.7,1.9-5.7,2
			c-2,0.2-4.1-0.3-5.9-0.9c-1.9-0.6-3.7-1.4-5.5-2.1c-1.8-0.6-3.8-1.1-5.6-0.3c-1.8,0.7-3.7,1.3-5.6,1.8c-3.8,0.9-7.8,1.5-11.8,0.7
			c-1-0.2-1.9-0.5-2.9-1c-0.9-0.5-1.8-1-2.5-1.6c-1.6-1.2-3-2.6-4.4-4C277.4,472.9,274.9,469.9,272.7,466.6L272.7,466.6z"/>
	</g>
	<path class="st13" d="M261.7,396.7c0,0-42.7-32.3-52-40c-6.5-5.3-23.3-22.7-23.3-22.7s11,34.7,9.7,54.7s6,47.3-14.3,60
		c-20.3,12.7-27,14.3-27,14.3s45.7,1,50.7-40.7s-6.3-54.7-4.7-58.3c1.7-3.7,40,24,51,28"/>
	<path class="st13" d="M160.7,464c0,0,59.7,13.3,88.3,5.3"/>
	<path class="st14" d="M196.4,424.8c-0.3,1.2-0.6,2.5-0.3,3.6c0.6,2.1,1.5,3.3,3.5,4.1c0.8,0.3,1.6,0.5,1.9-0.3
		c0.1-0.2,1.4-2.2,1.4-2.4c0-1.2-0.1-2.8-0.1-4c0-1.8,0.5-1.8,0.2-3.5c-0.4-2-1.9-4.4-4.3-3.1C196.9,420.2,196.8,423.1,196.4,424.8z
		"/>
	<path class="st15" d="M192.6,439.9c-0.2,0.7-0.4,1.5,0.1,2c0.5,0.6,1.4,0.6,2.2,0.5c0.2,0,0.4,0,0.5-0.1c0.2-0.1,0.4-0.3,0.6-0.5
		c0.6-0.8,1.1-1.7,1.5-2.6c0.3-0.8,0.6-1.6,0.4-2.5C196.9,432.2,193.1,438.4,192.6,439.9z"/>
	<path class="st16" d="M198.9,411.7c0.4-0.7,1.2-1.1,2.1-1.1c0.8,0,1.6,0.3,2.3,0.7c0.4,0.3,0.9,0.6,1.1,1.1c0.3,0.5,0.4,1,0.4,1.6
		C204.9,419.4,196.5,415.6,198.9,411.7z"/>
	<text transform="matrix(1 0 0 1 69.5 308.52)" class="st17 st18">Levator ani muscle</text>
	<text transform="matrix(1 0 0 1 211 306.52)"><tspan x="0" y="0" class="st17 st18">Inferior fascia of</tspan><tspan x="0" y="14.4" class="st17 st18">urogenital diaphragm</tspan></text>
	<text transform="matrix(1 0 0 1 492 373.8534)"><tspan x="0" y="0" class="st17 st18">Internal anal</tspan><tspan x="0" y="14.4" class="st17 st18">sphincter</tspan></text>
	<text transform="matrix(1 0 0 1 476 329.1867)"><tspan x="0" y="0" class="st17 st18">Conjoint longitudinal</tspan><tspan x="0" y="14.4" class="st17 st18">muscle </tspan></text>
	<text transform="matrix(1 0 0 1 492 513.8534)"><tspan x="0" y="0" class="st17 st18">External anal</tspan><tspan x="0" y="14.4" class="st17 st18">sphincter</tspan></text>
	<text transform="matrix(1 0 0 1 491.9997 406.8534)" class="st17 st18">Deep</text>
	<text transform="matrix(1 0 0 1 492 442.52)" class="st17 st18">Superficial</text>
	<text transform="matrix(1 0 0 1 492 476.52)" class="st17 st18">Subcutaneous</text>
	<text transform="matrix(1 0 0 1 33.6855 355.52)" class="st17 st18">Obturator internus</text>
	<text transform="matrix(1 0 0 1 32.7813 371.52)"><tspan x="0" y="0" class="st17 st18">Fascia of obturator</tspan><tspan x="52.3" y="14.4" class="st17 st18">internus</tspan></text>
	<text transform="matrix(1 0 0 1 60.7451 401.02)" class="st17 st18">Lunate fascia</text>
	<text transform="matrix(1 0 0 1 47.7573 417.02)" class="st17 st18">Pudendal nerve</text>
	<text transform="matrix(1 0 0 1 50.7012 491.02)" class="st17 st18">Pudendal canal</text>
	<text transform="matrix(1 0 0 1 4.4199 432.02)"><tspan x="0" y="0" class="st17 st18">Internal pudendal artery</tspan><tspan x="78.3" y="14.4" class="st17 st18">and vein</tspan></text>
	<text transform="matrix(1 0 0 1 45.2573 467.52)" class="st17 st18">Ischial tuberosity</text>
	<text transform="matrix(1 0 0 1 68.0933 533.52)" class="st17 st18">Ischioanal space</text>
	<text transform="matrix(1 0 0 1 215.71 285.52)" class="st19 st20 st21">Ischioanal fossa</text>
	<text transform="matrix(1 0 0 1 162.5171 535.52)" class="st17 st18">Perianal space</text>
	<line class="st8" x1="204" y1="352" x2="226.5" y2="325"/>
	<line class="st8" x1="195.5" y1="332.5" x2="160" y2="311"/>
	<line class="st8" x1="179" y1="354" x2="136" y2="354"/>
	<line class="st8" x1="195.7" y1="377.3" x2="136" y2="377.3"/>
	<line class="st8" x1="206" y1="398" x2="136.7" y2="398"/>
	<line class="st8" x1="199.3" y1="414.3" x2="129.7" y2="414.3"/>
	<line class="st8" x1="200" y1="429.7" x2="129.3" y2="429.7"/>
	<line class="st8" x1="365" y1="403" x2="485.5" y2="403"/>
	<line class="st8" x1="364.5" y1="437.5" x2="486.5" y2="437.5"/>
	<line class="st8" x1="367.5" y1="473.5" x2="488" y2="473.5"/>
	<line class="st8" x1="345.5" y1="389.5" x2="486" y2="389.5"/>
	<line class="st8" x1="153" y1="449" x2="135.6" y2="466.4"/>
	<g>
		<g>
			<path class="st22" d="M551,403.3c0,0,62.1,69.8,3.5,118.4"/>
			<g>
				<path d="M554.7,521.5c1.5,0.1,3.2,1.4,4.1,2.5c-2.3-0.6-4.8-0.7-7.2,0c1.2-2.1,1.4-4.6,1.4-7
					C553.9,518.2,554.8,519.9,554.7,521.5z"/>
			</g>
		</g>
	</g>
	<path class="st22" d="M551,442c0,0,37.7,26.7,25,52"/>
	<path class="st22" d="M567.2,473.8c0,0,18.7,11.3,3.3,30"/>
	<line class="st8" x1="196.5" y1="458" x2="130.8" y2="523.8"/>
	<line class="st8" x1="205.5" y1="489.5" x2="176" y2="525"/>
	<line class="st8" x1="198" y1="440.7" x2="133" y2="487"/>
	<line class="st8" x1="366.3" y1="350.7" x2="474.3" y2="335.3"/>
</g>
</svg>
