<?xml version="1.0" encoding="utf-8"?>
<!-- Generator: Adobe Illustrator 19.2.1, SVG Export Plug-In . SVG Version: 6.00 Build 0)  -->
<svg version="1.1" id="Layer_1" xmlns="http://www.w3.org/2000/svg" xmlns:xlink="http://www.w3.org/1999/xlink" x="0px" y="0px"
	 viewBox="0 0 548 291" style="enable-background:new 0 0 548 291;" xml:space="preserve">
<style type="text/css">
	.st0{fill:none;stroke:#754C29;stroke-width:2;stroke-miterlimit:10;}
	.st1{fill:none;stroke:#603913;stroke-miterlimit:10;}
	.st2{fill:none;}
	.st3{fill:none;stroke:#A97C50;stroke-width:2;stroke-miterlimit:10;}
	.st4{fill:none;stroke:#C49A6C;stroke-miterlimit:10;}
	.st5{fill:none;stroke:#000000;stroke-miterlimit:10;}
	.st6{font-family:'CenturyGothic';}
	.st7{font-size:12px;}
	.st8{fill:#2E3192;}
	.st9{font-size:20px;}
</style>
<g id="Layer_1_1_">
	<path class="st0" d="M315.7,197.3c0,0-40-4.8-48.3-10.9c-8.3-6.1-26.7-10.1-20.7-16.4s19-6.3,26-8.3s50.7-11.3,57.7-6"/>
	<path class="st1" d="M220.5,157.4c12.3-0.5,19.2-4,34.2-10.2c15-6.2,61-5.5,61-5.5l-3-3.3c0,0-19.3,0.5-28.7,0.8
		c-9.3,0.3-29.3,2.5-42.7,10.5c-10,6-47.7,4.4-47.7,4.4v6.6c0,0,30.5,0.7,33.7,0c5.7-1.3,18.8-4.9,29.8-10.8
		c9.1-4.9,39.3-4.5,39.3-4.5v10"/>
	<line class="st1" x1="315.7" y1="141.7" x2="315.7" y2="152.8"/>
	<line class="st2" x1="293.7" y1="142" x2="293.7" y2="142"/>
	<line class="st1" x1="296.6" y1="144.9" x2="294.2" y2="142"/>
	<path id="one" class="st3" d="M192.1,174.5c0,0,11.8-0.3,17.4,0c11.8,0.6,24.1,2.9,31.8,6.1c9.6,4.1,33.9,17.5,40.4,20.5s46.5,6,46.5,6
		l3.3-2.8c0,0-43.1-3.4-48-5.4c-8.2-3.2-18.9-8.4-25.8-12.6c-6.3-3.8-15.4-8.4-22.8-11.2c-5.7-2.1-17.4-3.4-17.4-3.4
		s12.8-2.1,23.8-10.9s36.4-12,36.4-12V147c0,0-10.5,1-16.8,2.5c-7.3,1.8-12.1,4.6-13.8,5.8c-1.8,1.2-4.5,2.1-9.4,5.5
		s-15.1,7.5-17.5,8s-28,0-28,0v5.7H192.1z"/>
	<line class="st3" x1="277.6" y1="149" x2="277.6" y2="159.6"/>
	<line class="st3" x1="331.4" y1="204.4" x2="331.4" y2="240"/>
	<line class="st3" x1="328.1" y1="207.1" x2="327.8" y2="241.7"/>
	<path class="st4" d="M224.3,184c17.5,1.3,31.2,10.2,37.4,13.3c6.3,3.2,11.8,6.5,21.4,9.8c9.7,3.3,28.8,3.7,28.8,3.7l3.7-3.7
		c0,0-2.2,0.2-4.7,0s-25.2-3.1-30.2-4.8s-21-11-23.8-12.5c-2.8-1.5-22.5-8.3-29.2-9.3s-35.7-1-35.7-1l-0.9,7.7v43.3"/>
	<path class="st4" d="M298,210.8l-4.3,3.3c0,0-15.8-3.6-20.8-7s-16.2-7.6-25-12c-8.8-4.3-31.2-8-46-8s-9.7,0-9.7,0"/>
	<line class="st4" x1="315.7" y1="207.8" x2="315.7" y2="240"/>
	<line class="st4" x1="312" y1="210.8" x2="312" y2="241.2"/>
	<line class="st4" x1="298" y1="210.8" x2="298" y2="240"/>
	<line class="st4" x1="293.7" y1="214.2" x2="293.5" y2="243.3"/>
	<line class="st3" x1="192.1" y1="174.5" x2="192.8" y2="179.5"/>
	<line class="st1" x1="193.7" y1="160.7" x2="193.7" y2="169"/>
</g>
<g id="Layer_2">
	<line class="st5" x1="197.7" y1="157.4" x2="167.7" y2="154.3"/>
	<line class="st5" x1="196" y1="171.7" x2="166" y2="170.3"/>
	<line class="st5" x1="195.7" y1="184.9" x2="165.3" y2="184.9"/>
	<text transform="matrix(1 0 0 1 67.0926 153.8389)" class="st6 st7">External oblique</text>
	<text transform="matrix(1 0 0 1 69.2547 172.4951)" class="st6 st7">Internal oblique</text>
	<text transform="matrix(1 0 0 1 32.7448 188.1615)" class="st6 st7">Transversus abdominis</text>
	<text transform="matrix(1 0 0 1 52.1629 61.1771)" class="st6 st7">Anterior lamina of external oblique</text>
	<text transform="matrix(1 0 0 1 48.7416 82.1771)" class="st6 st7">Posterior lamina of external oblique</text>
	<text transform="matrix(1 0 0 1 56.001 101.1771)" class="st6 st7">Anterior lamina of internal oblique</text>
	<g>
		<g>
			<line class="st5" x1="306" y1="138.3" x2="262" y2="65.4"/>
			<g>
				<path d="M262.6,66.3l-1.2,2.2h-0.1l-0.6-3.7c-0.4-1.2-0.8-2.4-1.2-3.6c0.9,0.9,1.7,1.8,2.6,2.7l3,2.3v0.1H262.6z"/>
			</g>
		</g>
	</g>
	<g>
		<g>
			<line class="st5" x1="287.9" y1="149.7" x2="255.7" y2="86.5"/>
			<g>
				<path d="M256.2,87.5l-1.3,2.2h-0.1l-0.4-3.8c-0.3-1.2-0.6-2.4-1-3.7c0.8,1,1.6,1.9,2.4,2.9l2.8,2.5v0.1L256.2,87.5z"/>
			</g>
		</g>
	</g>
	<g>
		<g>
			<line class="st5" x1="265.5" y1="155.8" x2="246.6" y2="111.5"/>
			<g>
				<path d="M247,112.5l-1.5,2.1h-0.1l-0.1-3.8c-0.2-1.2-0.5-2.5-0.7-3.7c0.7,1,1.5,2,2.2,3.1l2.7,2.7v0.1L247,112.5z"/>
			</g>
		</g>
	</g>
	<text transform="matrix(1 0 0 1 287.9081 89.3438)" class="st8 st6 st9">Anterior rectus sheath</text>
	<text transform="matrix(1 0 0 1 310.9309 262.1932)" class="st8 st6 st9">Posterior rectus sheath</text>
	<text transform="matrix(1 0 0 1 261.1156 177.1873)" class="st6 st7">Rectus abdominis</text>
</g>
</svg>
