<?xml version="1.0" encoding="utf-8"?>
<!-- Generator: Adobe Illustrator 21.0.0, SVG Export Plug-In . SVG Version: 6.00 Build 0)  -->
<svg version="1.1" xmlns="http://www.w3.org/2000/svg" xmlns:xlink="http://www.w3.org/1999/xlink" x="0px" y="0px"
	 viewBox="0 0 595.3 841.9" style="enable-background:new 0 0 595.3 841.9;" xml:space="preserve">
<style type="text/css">
	.st0{display:none;}
	.st1{fill:none;stroke:#986828;stroke-width:0.4823;stroke-linecap:round;stroke-miterlimit:10;}
	.st2{fill:none;stroke:#000000;stroke-miterlimit:10;}
	.st3{fill:none;stroke:#000000;stroke-linecap:round;stroke-miterlimit:10;}
	.st4{fill:url(#SVGID_1_);stroke:#000000;stroke-width:0.1964;stroke-miterlimit:10;}
	.st5{fill:none;stroke:#986828;stroke-width:0.3036;stroke-linecap:round;stroke-miterlimit:10;}
	.st6{font-family:'Candara';}
	.st7{font-size:12px;}
	.st8{fill:#44B649;}
	.st9{font-size:23px;}
	.st10{fill:#C49A6C;}
	.st11{filter:url(#Adobe_OpacityMaskFilter);}
	.st12{mask:url(#SVGID_2_);}
	.st13{fill:#6CBE45;}
	.st14{filter:url(#Adobe_OpacityMaskFilter_1_);}
	.st15{mask:url(#SVGID_3_);}
</style>
<g id="Layer_1" class="st0">
	
		<image style="display:inline;overflow:visible;opacity:0.2;" width="811" height="613" xlink:href="../../../../../../Viveka Sudha/viv/Anatomy related/anatomy/books/images v singh/LL &amp; abdomen/Chapter_14_Pelvic_walls_and_associated_soft_tissue_structure/Chapter 14 Pelvic walls and associated soft tissue structure/V04-F014-007.png"  transform="matrix(0.48 0 0 0.48 103 274.89)">
	</image>
</g>
<g id="Layer_3">
	<path class="st1" d="M267.5,311.5c0,0,4,52,11,61.5s20.5,2.3,24-1.5s7-48,6.5-63.5"/>
	<path class="st1" d="M260.3,315.5c0,0,8,56.3,20,63s23-1.5,24.8-5.5s8.5-53,10.5-61.3"/>
	<path class="st1" d="M255.5,318c0,0,8.3,64.3,29.5,67.8s22.5-11.8,26.8-21.8s9-43.3,11-47.5"/>
	<path class="st1" d="M249,321c0,0,10,61,35.3,70.8s30.8-27,33.5-35.3S328,319,328,319"/>
	<path class="st1" d="M242.3,325.3c0,0,15.8,70.3,46.5,73s41.5-70,44.3-75.8"/>
	<path class="st1" d="M234.3,334.3c0,0,26.8,75.5,54.8,73.5s51.3-70.8,52.3-79.5"/>
	<path class="st1" d="M228.5,342.5c0,0,28.3,62,49.3,68.8"/>
	<path class="st1" d="M223.3,352.5c0,0,28.8,59.5,50.5,63.3"/>
	<path class="st1" d="M218.8,361c0,0,29.5,54.3,52.5,60.5"/>
	<path class="st1" d="M215,372.3c0,0,36.5,49.2,56.3,59.7"/>
	<path class="st1" d="M353.3,342c0,0-28.3,62-49.3,68.8"/>
	<path class="st1" d="M358.5,352c0,0-28.8,59.5-50.5,63.3"/>
	<path class="st1" d="M363,360.5c0,0-29.5,54.3-52.5,60.5"/>
	<path class="st1" d="M366.8,371.8c0,0-36.5,49.2-56.3,59.7"/>
	<path class="st1" d="M211.8,387.3c0,0,59.5,56.8,74.5,57.3"/>
	<path class="st1" d="M367.3,381.8c0,0-47.5,62.3-68,63"/>
	<path class="st1" d="M209.5,400.5c0,0,53.8,48.8,82.5,51s74-54.3,77.8-59.5"/>
	<path class="st1" d="M209,413c0,0,61.3,45.8,82.5,43.8s68-35.5,80-54"/>
	<path class="st1" d="M207.8,421.8c0,0,65.5,45.3,82.8,41.5s66.1-29,83.3-50.3"/>
	<path class="st1" d="M206.3,427.8c0,0,48.8,63.5,83.3,57.8s75-32.3,86.3-57"/>
	<path class="st1" d="M208,426c0,0,58.8,47.3,82.8,44s76-38.3,83.3-48.3"/>
	<path class="st1" d="M212.5,433c0,0,52,49.3,78,45.5s74.3-36.8,83.8-52"/>
	<path class="st1" d="M193.3,437.5c0,0,40,20.5,69.5,101"/>
	<path class="st1" d="M388.8,436.8c0,0-65.5,55.5-69,97.3"/>
	<path class="st1" d="M204.8,433.5c0,0,31,35,52.3,44.3s25.3,17,25.3,17.8"/>
	<path class="st1" d="M202,437.3c0,0,54.8,45.5,60.3,51.8s11.8,11.3,12.3,14"/>
	<path class="st1" d="M201.3,439.5c0,0,54,49.8,60.3,58.8"/>
	<path class="st1" d="M227.5,467.5c0,0,36,40.3,40.5,58.5"/>
	<path class="st1" d="M246.5,494c0,0,16.3,27.3,17,39.5"/>
	<path class="st1" d="M377,433.3c0,0-31,35-52.3,44.3s-25.3,17-25.3,17.8"/>
	<path class="st1" d="M379.8,437c0,0-54.8,45.5-60.3,51.8s-11.8,11.3-12.3,14"/>
	<path class="st1" d="M380.5,439.3c0,0-54,49.8-60.3,58.8"/>
	<path class="st1" d="M354.3,467.3c0,0-36,40.3-40.5,58.5"/>
	<path class="st1" d="M335.3,493.8c0,0-16.3,27.3-17,39.5"/>
</g>
<g id="Layer_2">
	<path class="st2" d="M250,292.5c0,0-14.5,17-34,37.5s-48,50.5-39.5,76.5s26.5,51.5,31,6.5s18-78,41.5-92s24.8-13.2,32-15
		s7.2-1.8,7.2-1.8l0.2-10.7c0,0-7.3,0.2-11.2-2.7c-3.8-2.8-13-7.5-18-4.7C254.2,289,250,292.5,250,292.5z"/>
	<path class="st2" d="M331.3,292.5c0,0,14.5,17,34,37.5s48,50.5,39.5,76.5s-26.5,51.5-31,6.5s-18-78-41.5-92s-24.8-13.2-32-15
		s-7.2-1.8-7.2-1.8l-0.2-10.7c0,0,7.3,0.2,11.2-2.7c3.8-2.8,13-7.5,18-4.7C327.1,289,331.3,292.5,331.3,292.5z"/>
	<path class="st2" d="M274,506c0,0,8.5-0.5,10.3-12s3.5-22.3,5.8-21s3-0.8,6,13.5s5.5,18.8,10.5,18.8s12,1,7.3,4.5s-6.5,1.8-7.3,5.3
		s-1.5,10.3-4.8,9s-1-10.5-4.8-12.5s-10.5-3.8-12.8,0s-0.5,8-3.5,10.5s-3.3,1.8-5.5-4.3s-3-5.3-5-6.3S260.3,505.8,274,506z"/>
	<path class="st3" d="M256.3,549.5c0,0,8.3-10,9-16.3s8.8-10.8,8.8-13.8"/>
	<path class="st3" d="M322.8,548.5c0,0-3.5-15.8-7.5-20.5s-7.3-6.3-7.5-8s-0.5-3-0.5-3"/>
	<path class="st3" d="M283.3,524.5c0,0,2.8,2.5,2.3,10.3s9.8,6.8,9.5-1s1.5-9.3,2.5-9.3"/>
	<path class="st3" d="M286,556.5c0,0,1.3-1.8,1.3-5.5s4.3-7,6.3,0s2.8,7.5,2.8,7.5"/>
	<path class="st3" d="M286,570.8c0,0,1-6,2.5-8s3.5-0.5,4.8,4.3s1.3,4.8,1.3,4.8"/>
	
		<radialGradient id="SVGID_1_" cx="251.9789" cy="366.2502" r="10.0642" gradientTransform="matrix(1.2259 0 0 0.5301 -18.6606 171.671)" gradientUnits="userSpaceOnUse">
		<stop  offset="1.546864e-02" style="stop-color:#C2B59B;stop-opacity:0"/>
		<stop  offset="0.2154" style="stop-color:#C3B8A2;stop-opacity:0.1929"/>
		<stop  offset="0.6006" style="stop-color:#CAC4B8;stop-opacity:0.5647"/>
		<stop  offset="1" style="stop-color:#D1D3D4;stop-opacity:0.95"/>
	</radialGradient>
	<path class="st4" d="M278.5,359.3c0,0,6.1,1.5,9.8,1.5s11.1-1.2,13-1.9c1.9-0.7,4.2-0.9,3.8,2.1c-0.4,3-0.4,5.8,0.1,8.1
		c0.5,2.3,1.3,4.3-5,3s-14.3-1.4-17.7-0.3s-7.5,2.7-7-1.4s0-8-0.4-9.6C274.6,359.2,276.8,358.3,278.5,359.3z"/>
	<g>
		<path d="M277.6,361.5c1.2,1.8,2.8,3.5,4.9,4.2c2.1,0.5,4.4,0.8,6.6,0.8c2.2,0,4.4-0.1,6.6-0.7c2.1-0.6,4.1-1.6,5.7-3.2l0,0
			c-1.5,1.7-3.5,2.8-5.7,3.4c-2.2,0.6-4.4,0.7-6.6,0.6c-2.2-0.1-4.4-0.4-6.6-0.8c-1.1-0.3-2.1-0.9-2.9-1.7
			C278.8,363.4,278.1,362.5,277.6,361.5L277.6,361.5z"/>
	</g>
	<g>
		<path d="M277.3,370.5c0.6-0.9,1.4-1.8,2.2-2.6c0.8-0.8,1.8-1.5,3-1.7c1.2-0.1,2.3,0.1,3.4,0.2c1.1,0.1,2.3,0.2,3.4,0.3
			c1.1,0.1,2.3,0.1,3.4,0c1.1-0.2,2.2-0.7,3.4-0.5c0.6,0.1,1.1,0.4,1.6,0.8c0.5,0.3,0.9,0.6,1.4,1c1,0.6,1.9,1.2,2.8,2l0,0
			c-0.9-0.7-1.9-1.3-2.9-1.9c-0.5-0.3-1-0.6-1.5-0.9c-0.5-0.3-0.9-0.6-1.5-0.7c-1.1-0.2-2.2,0.3-3.3,0.5c-1.2,0.1-2.3,0-3.5,0
			c-2.3-0.2-4.6-0.6-6.8-0.4c-1.1,0.2-2.1,0.9-2.9,1.6C278.8,368.7,278,369.6,277.3,370.5L277.3,370.5z"/>
	</g>
	<g>
		<path d="M280.7,364.7c3,0.5,5.9,0.8,8.9,0.9c1.5,0.1,3,0.1,4.5,0c1.5-0.1,3-0.2,4.4-0.8l0,0c-1.3,0.7-2.9,0.9-4.4,1
			c-1.5,0.1-3,0.1-4.5,0C286.6,365.6,283.6,365.2,280.7,364.7L280.7,364.7z"/>
	</g>
	<g>
		<path d="M279,362.9c1.7,0.5,3.4,0.9,5.1,1.3c1.7,0.4,3.5,0.7,5.2,0.8c1.7,0.1,3.5-0.1,5.2-0.4c1.7-0.3,3.4-0.7,5.1-1.3l0,0
			c-1.6,0.7-3.3,1.2-5.1,1.5c-1.7,0.3-3.5,0.5-5.3,0.4c-1.8-0.1-3.5-0.4-5.2-0.8C282.4,363.9,280.7,363.4,279,362.9L279,362.9z"/>
	</g>
	<g>
		<path d="M278.7,361.7c5.9,1.8,12.2,1.3,18.3,0.8c0.8-0.1,1.5-0.2,2.2-0.5c0.7-0.2,1.4-0.6,2.2-0.8c0.4-0.1,0.7-0.3,1.2-0.1
			c0.2,0.2,0.2,0.4,0.2,0.6c0,0.2,0,0.4-0.1,0.6c-0.2,0.8-0.4,1.5-0.5,2.2c-0.1,0.8-0.1,1.5,0.2,2.2c0.2,0.7,0.6,1.4,0.8,2.1
			c0.1,0.4,0.3,0.7,0.2,1.2c-0.1,0.5-0.6,0.6-1,0.6c-0.8,0-1.5-0.2-2.3-0.4c-1.5-0.4-2.9-0.9-4.5-1.1c-1.5-0.2-3.1-0.2-4.6-0.2
			c-1.5,0-3.1,0-4.6,0.1c-1.5,0.1-3.1,0.3-4.5,0.8c-0.7,0.2-1.5,0.5-2.2,0.8c-0.7,0.3-1.4,0.6-2.2,0.7c-0.2,0-0.4,0.1-0.6,0
			c-0.2-0.1-0.3-0.3-0.3-0.5c0-0.4,0.1-0.8,0.2-1.2c0.2-0.7,0.4-1.5,0.7-2.2c0.2-0.7,0.4-1.5,0.4-2.3c0-0.8-0.1-1.5-0.5-2.2
			c-0.2-0.3-0.4-0.7-0.6-1c-0.1-0.2-0.1-0.4-0.1-0.6c0-0.2,0.1-0.4,0.3-0.5c0.4-0.1,0.8,0.1,1.1,0.3c0.3,0.2,0.6,0.4,0.9,0.7
			c-0.3-0.2-0.6-0.5-0.9-0.7c-0.3-0.2-0.7-0.4-1.1-0.3c-0.2,0.1-0.3,0.3-0.3,0.4c0,0.2,0.1,0.4,0.1,0.6c0.1,0.4,0.4,0.7,0.6,1
			c0.4,0.7,0.6,1.4,0.6,2.2c0,0.8-0.2,1.5-0.4,2.3c-0.2,0.7-0.5,1.5-0.6,2.2c-0.1,0.4-0.2,0.7-0.2,1.1c0,0.2,0.1,0.4,0.2,0.4
			c0.2,0,0.4,0,0.6,0c0.7-0.1,1.4-0.5,2.2-0.7c0.7-0.3,1.4-0.5,2.2-0.8c1.5-0.5,3-0.7,4.5-0.9c1.5-0.1,3.1-0.2,4.6-0.1
			c1.5,0,3.1,0,4.6,0.2c1.5,0.2,3,0.7,4.5,1.1c0.7,0.2,1.5,0.4,2.2,0.4c0.4,0,0.8-0.1,0.8-0.5c0.1-0.3-0.1-0.7-0.2-1.1
			c-0.3-0.7-0.6-1.4-0.8-2.2c-0.2-0.7-0.3-1.6-0.2-2.3c0.1-0.8,0.3-1.5,0.5-2.3c0.1-0.3,0.2-0.8,0-1c-0.3-0.1-0.7,0-1.1,0.1
			c-0.7,0.2-1.4,0.6-2.2,0.8c-0.7,0.2-1.5,0.4-2.3,0.5c-3.1,0.4-6.1,0.4-9.2,0.5C284.7,363.1,281.7,362.5,278.7,361.7z"/>
	</g>
	<g>
		<path d="M279.3,368.8c1.8-0.5,3.6-1,5.4-1.4c0.9-0.2,1.9-0.3,2.8-0.3c0.9,0,1.9,0,2.8,0c1.9-0.1,3.8-0.2,5.6,0.1
			c0.9,0.2,1.8,0.6,2.6,1c0.8,0.4,1.7,0.8,2.4,1.4l0,0c-0.3-0.3-0.8-0.5-1.2-0.7l-1.3-0.6c-0.9-0.4-1.7-0.8-2.6-0.9
			c-1.8-0.3-3.7-0.2-5.6-0.1c-0.9,0-1.9,0-2.8,0c-0.9,0-1.9,0.1-2.8,0.3C283,367.8,281.1,368.3,279.3,368.8L279.3,368.8z"/>
	</g>
	<path class="st5" d="M274.7,414.8c2.5-2.6,5.9-3.9,9.2-4.8c0.9-0.2,1.8-0.4,2.7-0.5c3.7-0.5,7.4-0.4,11.1,0.6
		c0.8,0.1,1.6,0.3,2.4,0.4c1.3,0.4,2.5,0.9,3.7,1.6c5.9,2.4,8.2,9.1,7.6,15.2c-0.7,4-1.7,7.7-4.6,10.2c-0.7,0.7-1.5,1.4-2.4,2
		c-0.8,0.6-1.7,1.1-2.6,1.5c-1.8,0.9-3.8,1.5-5.9,1.6c-1.1,0.1-2.2,0.2-3.3,0.3c-4.4,0.1-8.7-0.8-12.7-2.7c-0.8-0.4-1.5-0.8-2.2-1.2
		c-1.8-1.1-3.4-2.6-4.7-4.3c-0.7-0.9-1.2-1.8-1.7-2.8c-2.1-5-1.1-11,2.1-15.3C273.8,416.1,274.2,415.4,274.7,414.8z"/>
	<path class="st1" d="M285.9,415c1.1,0.1,1.4,1.3,1.5,2.2s0.1,2,1.1,2.5c0.9,0.4,2.1-0.2,2.6-0.9s0.7-1.6,1.3-2.4s1.6-1.4,2.6-1.1
		c0.3,0.1,0.6,0.3,0.9,0.5c1.8,1.5,2.5,3.8,1.8,5.7c-0.1,0.3-0.2,0.6-0.1,0.9c0.1,0.3,0.5,0.5,0.8,0.7c1.4,0.6,3.2,0.5,4.7,1
		c1.5,0.5,2.7,2.1,1.7,3.1c-1.3,1.3-4.2,0-5.6,1.2c-1.6,1.4,0.9,3.7,0.1,5.4c-0.7,1.5-3.4,1.6-4.8,0.5s-1.8-2.7-2.2-4.3
		c-1.2,0.5-2.2,1.3-3,2.2c-0.7,0.8-1.3,1.8-2.1,2.5c-0.9,0.7-2.2,1.2-3.3,0.8c-1.4-0.5-1.7-2-1.8-3.3c0-0.5,0-1.1,0.2-1.6
		c0.6-1.1,2.3-1.9,2-3.1c-0.2-1.2-2.1-1.5-3.5-1.3c-1.4,0.2-3,0.5-4.1-0.3c-1-0.7-1-2-0.9-3.1c0-0.2,0-0.4,0.2-0.5
		c0.8-1,4.6,1.3,6.3-0.8C283.9,419.3,282.9,416.9,285.9,415z"/>
	<path class="st2" d="M287.7,342c-5.7,8.1,9,8.3,7.7,1.7C294.5,339.4,291.7,336.3,287.7,342z"/>
</g>
<g id="Layer_4">
	<text transform="matrix(1 0 0 1 416.5 333.7793)" class="st6 st7">Sphincter vaginae</text>
	<text transform="matrix(1 0 0 1 416.5 379.2793)" class="st6 st7">Puborectalis</text>
	<text transform="matrix(1 0 0 1 416.5 409.7793)" class="st6 st7">Iliococcygeus</text>
	<line class="st2" x1="319.5" y1="332" x2="413.5" y2="332"/>
	<line class="st2" x1="339" y1="372" x2="413" y2="372"/>
	<line class="st2" x1="349" y1="407" x2="413.5" y2="407"/>
	<line class="st2" x1="329.5" y1="484.5" x2="411" y2="484.5"/>
	<line class="st2" x1="286" y1="428" x2="155.5" y2="428"/>
	<line class="st2" x1="285.5" y1="367.5" x2="157.5" y2="367.5"/>
	<line class="st2" x1="291" y1="394.5" x2="157.5" y2="394.5"/>
	<line class="st2" x1="289" y1="341.5" x2="156" y2="341.5"/>
	<text transform="matrix(1 0 0 1 107.9492 344.2793)" class="st6 st7">Urethra</text>
	<text transform="matrix(1 0 0 1 237.1035 265.2793)" class="st8 st6 st9">Levator ani</text>
	<text transform="matrix(1 0 0 1 113.4922 370.7793)" class="st6 st7">Vagina</text>
	<text transform="matrix(1 0 0 1 94.9258 429.7793)" class="st6 st7">Anal canal</text>
	<text transform="matrix(1 0 0 1 41.3587 460.446)" class="st6 st7">Anococcygeal raphe</text>
	<text transform="matrix(1 0 0 1 77.8945 398.7793)" class="st6 st7">Perineal body</text>
	<ellipse class="st10" cx="289.3" cy="391.2" rx="1.6" ry="12.6"/>
	<g>
		<defs>
			<filter id="Adobe_OpacityMaskFilter" filterUnits="userSpaceOnUse" x="284.7" y="374.3" width="10.2" height="32.2">
				<feFlood  style="flood-color:white;flood-opacity:1" result="back"/>
				<feBlend  in="SourceGraphic" in2="back" mode="normal"/>
			</filter>
		</defs>
		<mask maskUnits="userSpaceOnUse" x="284.7" y="374.3" width="10.2" height="32.2" id="SVGID_2_">
			<g class="st11">
				
					<image style="overflow:visible;" width="61" height="153" xlink:href="28C451C3.jpg"  transform="matrix(0.24 0 0 0.24 282.48 372.24)">
				</image>
			</g>
		</mask>
		<g class="st12">
			<ellipse class="st10" cx="289.8" cy="390.4" rx="5.1" ry="16.1"/>
		</g>
	</g>
	<ellipse class="st13" cx="290.5" cy="458.4" rx="1.1" ry="11.2"/>
	<g>
		<defs>
			<filter id="Adobe_OpacityMaskFilter_1_" filterUnits="userSpaceOnUse" x="287.5" y="443.3" width="6.6" height="28.8">
				<feFlood  style="flood-color:white;flood-opacity:1" result="back"/>
				<feBlend  in="SourceGraphic" in2="back" mode="normal"/>
			</filter>
		</defs>
		<mask maskUnits="userSpaceOnUse" x="287.5" y="443.3" width="6.6" height="28.8" id="SVGID_3_">
			<g class="st14">
				
					<image style="overflow:visible;" width="46" height="137" xlink:href="28C451C1.jpg"  transform="matrix(0.24 0 0 0.24 285.36 441.12)">
				</image>
			</g>
		</mask>
		<g class="st15">
			<ellipse class="st13" cx="290.8" cy="457.6" rx="3.3" ry="14.4"/>
		</g>
	</g>
	<line class="st2" x1="290.5" y1="458.4" x2="154.3" y2="458.4"/>
</g>
</svg>
