<?xml version="1.0" encoding="utf-8"?>
<!-- Generator: Adobe Illustrator 21.0.0, SVG Export Plug-In . SVG Version: 6.00 Build 0)  -->
<svg version="1.1" id="Layer_1" xmlns="http://www.w3.org/2000/svg" xmlns:xlink="http://www.w3.org/1999/xlink" x="0px" y="0px"
	 viewBox="0 0 841.9 595.3" style="enable-background:new 0 0 841.9 595.3;" xml:space="preserve">
<style type="text/css">
	.st0{fill:#BE1E2D;}
	.st1{font-family:'CenturyGothic';}
	.st2{font-size:42px;}
	.st3{fill:none;stroke:#8B5E3C;stroke-width:4;stroke-linecap:round;stroke-miterlimit:10;}
	.st4{fill:none;stroke:#8B5E3C;stroke-width:3;stroke-miterlimit:10;}
	.st5{fill:none;stroke:#8B5E3C;stroke-width:2;stroke-miterlimit:10;}
	.st6{fill:#2E3192;}
	.st7{font-size:18px;}
	.st8{fill:#38F932;}
</style>
<g id="Layer_1_1_">
</g>
<g id="Layer_2">
	<text transform="matrix(1 0 0 1 199.4514 96.5399)" class="st0 st1 st2">Lymphatics of duodenum</text>
	<path class="st3" d="M516.3,204.5c0,0-110-73-161-47s-153,75-128,215s113,164,214,134c101-30,186.8-78.5,198.8-42.5"/>
	<path class="st4" d="M521.7,207.3c-4.6-2.7-10.3-2.7-14.9-0.2c-13.2,7.1-40.2,26.5-35.2,64.1c6.7,49.3,43.3,17.3,51.3-17.3
		C529.7,224.7,533.1,213.9,521.7,207.3z"/>
	<path class="st5" d="M518,220.2c-3.8-3.1-11.7-5-16-2.6c-9.9,5.5-26.2,21.3-22.5,48.2c4.9,36.2,31.8,12.7,37.7-12.7
		C521.6,233.5,524.1,225.2,518,220.2z"/>
	<path class="st3" d="M482.2,294.7c0,0-69.4-38.2-99.9-34.2s-97.7,61.6-57,122c31,46,61,35,93.5,32c62-5.7,152-79.5,195-63.5
		s79.5,37,84.5,62.5s5.4,33.3,5.4,33.3"/>
	<g>
		<g>
			<path class="st4" d="M703.6,449.1c-0.5-3.7-2.9-6.9-6.3-8.6c-9.4-4.6-31.4-12.1-49.5,6c-23.7,23.7,9.2,31.6,31.2,22.1
				C697.6,460.6,704.9,458.2,703.6,449.1z"/>
		</g>
		<path class="st5" d="M695,452.2c0-3.4-2.3-8.6-5.5-10.1c-7.2-3.4-22.6-6.2-35.5,6.7c-17.4,17.4,6.7,23.2,22.9,16.2
			C689.4,459.6,694.9,457.7,695,452.2z"/>
	</g>
	<text transform="matrix(1 0 0 1 383.4543 122.7353)" class="st6 st1 st7">Hepatic nodes</text>
	<text transform="matrix(1 0 0 1 336.4455 362.2427)" class="st6 st1 st7">Pancreatico</text>
	<text transform="matrix(1 0 0 1 345.0455 383.8427)" class="st6 st1 st7">duodenal </text>
	<text transform="matrix(1 0 0 1 358.9455 405.4427)" class="st6 st1 st7">nodes</text>
	<text transform="matrix(1 0 0 1 467.5853 311.7271)" class="st6 st1 st7">Pyloric nodes</text>
	<text transform="matrix(1 0 0 1 548.5853 519.377)" class="st6 st1 st7">Pancreatic nodes</text>
</g>
<path class="st8" d="M456.8,152.5c-1.5,3-3,6-4.5,9c0.4,1.7,2.6,2.4,4.3,1.9c1.7-0.6,2.9-2,4-3.3c0.7-0.8,1.4-1.7,2.1-2.5
	c0.7-0.8,1.4-1.8,1.4-2.8c-0.1-1.3-1.3-2.2-2.5-2.6c-2.3-0.8-5.1,0-6.8,1.8"/>
<path class="st8" d="M473.6,149.9c-4.3,4.9-2.3,13.8,3.7,16.4c1.4-1,1.8-2.8,2.1-4.5c0.4-2.3,0.8-4.7,0-6.8c-0.8-2.2-3.1-4-5.3-3.3"
	/>
<path class="st8" d="M453.2,132.9c-1.5,1.8-1.6,4.6-0.4,6.5c1.3,1.9,3.9,2.8,6.1,2.1c2.6-0.9,4.3-3.9,3.6-6.6
	c-0.6-2.7-3.4-4.6-6.2-4.5c-2.3,0.1-4.5,1.8-4.8,4.1"/>
<path class="st8" d="M425.3,300.6c-1.5,3-3,6-4.5,9c0.4,1.7,2.6,2.4,4.3,1.9c1.7-0.6,2.9-2,4-3.3c0.7-0.8,1.4-1.7,2.1-2.5
	c0.7-0.8,1.4-1.8,1.4-2.8c-0.1-1.3-1.3-2.2-2.5-2.6c-2.3-0.8-5.1,0-6.8,1.8"/>
<path class="st8" d="M437.9,290.9c-3.9,3.4-2.1,9.5,3.3,11.3c1.2-0.7,1.6-1.9,1.9-3.1c0.4-1.6,0.7-3.2,0-4.7
	c-0.7-1.5-2.8-2.7-4.8-2.2"/>
<path class="st8" d="M421.7,281.1c-1.5,1.8-1.6,4.6-0.4,6.5c1.3,1.9,3.9,2.8,6.1,2.1c2.6-0.9,4.3-3.9,3.6-6.6s-3.4-4.6-6.2-4.5
	c-2.3,0.1-4.5,1.8-4.8,4.1"/>
<path class="st8" d="M420,294c-2.3,0.1-4.5,0.2-6.8,0.2c-0.8,0.9-0.2,2.5,0.7,3.4c1,0.9,2.3,1.2,3.5,1.4c0.8,0.2,1.5,0.3,2.3,0.5
	c0.7,0.2,1.6,0.3,2.1-0.1c0.7-0.5,0.7-1.6,0.4-2.5c-0.5-1.8-2.1-3.3-3.7-3.8"/>
<path class="st8" d="M461.4,368.7c-2.5-2.2-5.1-4.4-7.6-6.7c-1.8,0-3,1.9-2.9,3.7s1.1,3.3,2.2,4.7c0.6,0.9,1.3,1.8,1.9,2.7
	c0.6,0.9,1.3,1.8,2.4,2c1.3,0.3,2.5-0.7,3.2-1.7c1.3-2.1,1.3-4.9,0-7"/>
<path class="st8" d="M467.6,383.4c-2.3-4.6-8.7-4.5-11.8,0.3c0.3,1.4,1.5,2,2.5,2.6c1.4,0.8,2.9,1.5,4.5,1.3s3.4-2,3.4-4.1"/>
<path class="st8" d="M481.2,370.3c-1.3-1.9-4-2.8-6.2-2s-3.7,3.1-3.6,5.4c0.2,2.8,2.7,5.1,5.4,5.2c2.8,0.1,5.4-2.1,5.9-4.8
	c0.5-2.2-0.6-4.8-2.7-5.7"/>
<path class="st8" d="M469.2,365.3c0.5-2.2,1-4.4,1.5-6.6c-0.6-1-2.4-0.9-3.5-0.2s-1.7,1.9-2.3,3c-0.4,0.7-0.7,1.4-1.1,2.1
	c-0.3,0.7-0.7,1.4-0.4,2.1c0.3,0.8,1.4,1.1,2.3,1c1.9-0.1,3.7-1.1,4.6-2.6"/>
<path class="st8" d="M484.4,501c-4.3,2.7-7.3,7.4-8.1,12.4c4.9,1.1,10.3-1.5,12.6-5.9c1.2-2.3,1.1-5.8-1.4-6.7
	c-1.9-0.6-3.7,0.8-5.2,2.1"/>
<path class="st8" d="M520.3,490.9c-1.3,2.3-2.1,4.9-2.3,7.6c-0.1,1.8,0.1,3.9,1.5,5c1.3,1.1,3.3,1.1,4.8,0.3
	c1.5-0.8,2.6-2.1,3.5-3.6c1.7-2.6,2.7-6.3,0.8-8.7c-1.9-2.4-5.4-2.3-8.4-2c-0.3,0.9,0.5,2,1.4,1.9"/>
<path class="st8" d="M508.3,505.9c-3.9,4-3.2,11.4,1.3,14.7c0.9,0.7,2,1.2,3.1,1.2c1.6,0,3.1-0.9,4.2-2c3.1-3,4.4-8,2.4-11.8
	S511.3,502.8,508.3,505.9"/>
<path class="st8" d="M525.7,510.3c-0.2,2.3-0.4,4.7-0.6,7c0,0.5-0.1,1.1,0.2,1.5c0.3,0.4,0.8,0.5,1.2,0.6c2.4,0.3,4.8-0.8,6.6-2.3
	c1.8-1.6,3.2-3.6,4.5-5.6c0.2-0.4,0.5-0.8,0.5-1.2c0-0.6-0.4-1.1-0.8-1.5c-1.6-1.9-3.5-3.9-6-4.2c-2.2-0.3-4.3,1-5.7,2.7
	s-1.9,4-2.1,6.1"/>
</svg>
