<?xml version="1.0" encoding="utf-8"?>
<!-- Generator: Adobe Illustrator 21.0.0, SVG Export Plug-In . SVG Version: 6.00 Build 0)  -->
<svg version="1.1" id="Layer_1" xmlns="http://www.w3.org/2000/svg" xmlns:xlink="http://www.w3.org/1999/xlink" x="0px" y="0px"
	 viewBox="0 0 1162 758" style="enable-background:new 0 0 1162 758;" xml:space="preserve">
<style type="text/css">
	.st0{fill:none;stroke:#231F20;stroke-width:2;stroke-miterlimit:10;}
	.st1{fill:none;stroke:#231F20;stroke-width:2;stroke-linecap:round;stroke-miterlimit:10;}
	.st2{fill:none;stroke:#C49A6C;stroke-width:2;stroke-linecap:round;stroke-miterlimit:10;}
	.st3{fill:none;stroke:#8B5E3C;stroke-width:2;stroke-linecap:round;stroke-miterlimit:10;}
	.st4{fill:none;stroke:#8B5E3C;stroke-linecap:round;stroke-miterlimit:10;}
	.st5{fill:none;stroke:#00A651;stroke-linecap:round;stroke-miterlimit:10;}
	.st6{fill:none;stroke:#C49A6C;stroke-linecap:round;stroke-miterlimit:10;}
	.st7{fill:none;stroke:#F15A29;stroke-linecap:round;stroke-miterlimit:10;}
	.st8{fill:none;stroke:#BE1E2D;stroke-linecap:round;stroke-miterlimit:10;}
	.st9{fill:none;stroke:#8DC63F;stroke-width:2;stroke-linecap:round;stroke-miterlimit:10;}
	.st10{fill:none;stroke:#C2B59B;stroke-width:2;stroke-linecap:round;stroke-miterlimit:10;}
	.st11{fill:#231F20;}
	.st12{font-family:'CenturyGothic';}
	.st13{font-size:20px;}
	.st14{font-family:'Candara';}
	.st15{font-size:50px;}
</style>
<title>male pelvis</title>
<g id="Layer_2">
	<path class="st0" d="M427.8,403.3c0,0-8.7,28.7,2.7,43.3s52.7,42,62.7,45.3s31.3,8,18.7-20.7c-12.7-28.7-35.3-65.3-50-68
		S435.8,396.7,427.8,403.3z"/>
	<path class="st0" d="M579.7,130c0,0,70.7-44,72.7-46s34,32.7,38,38.7c4,6-4,14.7-14.7,22.7s-17.3,27.3-20.7,24.7s-9.3-12-27.3-17.3
		S574.3,144,579.7,130z"/>
	<path class="st0" d="M659.8,173.3c0,0,32.7-40.7,38-40s42,48.7,47.3,48.7s13.3,6,8,10.7s-22.7,26.7-28.7,22
		S685.8,177.3,659.8,173.3z"/>
	<path class="st0" d="M755.9,191.3c0,0,10.8,8.8,14.5,18.3s26.5,25.3,23.3,31.5s-20.8,16-23.5,17.2s-10.8-13.5-18.3-20.2
		s-23-19.7-25.3-21.5"/>
	<path class="st0" d="M794,245c0,0,9.9,8,7.2,17.5c-2.8,9.5,6.3,42,4.5,45.8s-22.3,6.3-24.8,1.8s3.8-14.5-2.8-24.5
		c-5.3-8.2-8.7-17.5-10-27.2"/>
	<path class="st0" d="M803.2,312.4c0,0-0.3,18.8-1.3,27.6s1.8,15-3.5,14s-24.8,3.8-23.8-5.3s6.5-29.8,5.5-35
		c-0.6-3.1-0.5-6.2,0.3-9.2"/>
	<path class="st0" d="M774.6,359.8c0,0,24.3-2.6,23,5.2s-2.5,27.8-8.8,26.8s-21.5,2.3-19.5-4.5s5.3-13.8,3-17.8
		S773.6,361.8,774.6,359.8z"/>
	<path class="st0" d="M787,393.5c0,0,5.4,7,0,11.8s-6.4,12.8-9.1,12.8s-12.8-2.8-14.3-5.8s3.3-14.6,4.5-18.8"/>
	<path class="st0" d="M774.6,419c0,0-20.7,29.5-25.7,24s11.1-24.7,12.9-29.5"/>
	<path class="st0" d="M710.4,93c0,0,11.1-9.2,23.1-9.1s29.9,4.1,30,13.1s1,31.7,13,36.3s16.6,16.3,21.3,41s11.7,43.6,17.7,59.1
		s1,28.5,4,45.5s-4.3,54.8-9,42s4-38.2,1-57.6s-51-114.4-79-143.9S700.4,99,710.4,93z"/>
</g>
<g id="Layer_3">
	<path class="st1" d="M829.5,354.6c-12,95.7-120.7,183-128,187.6c-4,2.6-10,0.7-15.9-5.4"/>
	<path class="st2" d="M686.9,205.6c0,0,42.4,22.7,61.5,59.3s22.3,45.4,12.4,89.7s-34.1,98.3-53,112.3s-43.5,22-35.5,46
		c3.6,10.9,8.5,18.9,13.4,23.9"/>
	<path class="st1" d="M675.5,543.4c-4,3.5-10,37.5-91.3,24.9s-108.6-28.7-113.6-22s5.6,40,16.3,62.7"/>
	<path class="st2" d="M615.5,279c0,0,34.7,23.5,41.3,33.7s0,45.5-2.7,52.5s-16.7,59.9-26,83.8s-13.3,30.9-4.7,45.8s22,7.5,30.7,12.2
		s25.3,32.9,21.3,36.5"/>
	<path class="st2" d="M635.7,225c0,0,47.1-38.8,62.4-9.5s-8.7,83.4-38,76s-47.3-6.7-44.7-24S629.2,229.9,635.7,225z"/>
	<path class="st3" d="M771.4,346.7c0,0-29.7,106.3-55.3,125s-43.3,33-43.3,33"/>
	<path class="st3" d="M748,445c0,0-38.2,53-75.2,65.3"/>
	<path class="st3" d="M654.9,510.3c0,0-46,3.7-50.5,2.2"/>
	<path class="st3" d="M660.2,514.8c0,0-35.8,3.8-42,4.3"/>
</g>
<g id="Layer_4">
	<path class="st3" d="M567.4,459c0,0-39.5,3.2-49.5-11.9c-10-15.1-50-46.6-68.5-58.1s-32.5-27.2,0-42.3s109-29.2,147-13.2
		s61,42.5,33.3,80s-29,43.1-52.3,45.8"/>
	<path class="st4" d="M564.9,521.3c1.1-6,5.9-56,4.9-56.8c-1.9-1.5-2.1-10.9-3.4-13.8c-2-4-5.1-8-9.5-9.4c-5.4-2-11.5-0.6-17-2.4
		c-4.5-1.5-8-4.8-12.3-6.6c-1.1-0.5-10.2-5.1-8.9-2.2c-0.8-2-4.5-0.2-6.6-0.6c-0.9-0.2-2-1.8-2.9-2.1c-2.2-0.8-3-1.7-3-4.1
		s0.5-4.6,0.1-6.9c-1-5.8-6.3-3.5-9.8-4.8c-0.5-0.2-10-10.5-10.5-6.2c0.3-2.8-1.6-2.5-2.5-5.2s-3.5-5-6.3-4.8
		c-3.1-5.1-4.7-9.3-9.9-12.8c-3.8-2.6-8.8-4.7-9.8-9.2c-0.4-2.5,0.3-5.1,2-7.1c3.5-4.8,9.6-6.9,15.5-7.9s11.9-1.2,17.5-3.2
		c6.2-2.3,11.7-6.8,18.2-7.8c3.5-0.5,7.2,0.1,10.7-0.8c5.5-1.4,9.7-6.1,15.3-7.4c3.1-0.7,6.3-0.2,9.4,0.2l41.2,6
		c3.4,0.5,6.9,1,9.7,3s4.6,5.8,3.2,8.9c8.6-2.4,17.5,2.7,19.9,11.3c0.5,1.6,0.6,3.3,0.6,5.1c-0.2,3.6-1.5,7.4,0.1,10.6
		c0.5,0.8,1,1.8,1.3,2.7c0.5,2.9-3,4.6-5.4,6.3c-5.8,4.1-7.6,11.8-4.4,18.1c-2.7,4.6-9.5,4.6-13.6,8c-5.4,4.4-6,14.2-12.8,15.7
		c-2.9,0.6-6.8-0.3-8.3,2.2c-0.4,0.9-0.7,1.9-0.6,2.9c-0.1,2.7-3.2,68.4-6.2,81.1"/>
	<path class="st5" d="M566.9,461c0,0-17.8-0.5-21.8,0s-6,16.3-2,24.5s10.8,17.8,21.8,19.2"/>
	<path class="st5" d="M576.7,460.8c0,0,10-0.8,16-3.3s8.3-7.8,11.8-8.5s15.3,1.3,13.8,10.3s-1,29.7-17,37.2s-20.2,11.2-27.3,9.8"/>
	<path class="st5" d="M565.4,506.5c0,0-17.5-9.8-29.5-12s-16.3-3.5-16.5,1.2s7.1,9.7,21.6,14.6c7.7,2.7,15.5,4.9,23.4,6.5"/>
	<path class="st5" d="M573.9,507.4c0,0,25.9,4,28.9,5.5c3,1.5,13.4,1.8,14,3.4s3.9,5.9-1.9,7s-26.2,0.3-43.4-4.3"/>
	<path class="st6" d="M525.2,493.6c0,0,33.6,13,37.6,15.3"/>
	<path class="st6" d="M573.4,510.3c0,0,37.5,6.6,42.1,7.5"/>
	<path class="st6" d="M522.4,495.6c0,0,38.2,14.5,40.9,16"/>
	<path class="st6" d="M522.4,498.3c0,0,40,15.4,41.6,16.5"/>
	<path class="st6" d="M530.2,504.7c0,0,17.6,6.2,21.8,7.5"/>
	<path class="st6" d="M573.4,512.9c0,0,38.6,6.4,42.1,6.6"/>
	<path class="st6" d="M572.5,515.5c0,0,41,6.6,43,6.6"/>
	<path class="st6" d="M572.5,517.9c0,0,28.9,4.6,31.9,4.8"/>
	<path class="st6" d="M517.8,482.7c0,0,9.8,7.8,14,9.8"/>
	<path class="st6" d="M507.8,495.6c0,0,16.9,11.6,24,12.8"/>
</g>
<g id="Layer_5">
	<path class="st6" d="M564.7,521.7c0,0-4.9,12.7-14.9,12s-66.3-9.3-87-18.1c-20.7-8.9-51.7-21.4-69-14.3s-32.3,37.1-32.3,64.4
		s-3.3,73.3-5.7,80.7s-3.3,27.7,0,40.3s-0.6,18.3-2.1,18.3"/>
	<path class="st6" d="M570.7,521.3c0,0,2.8,25.1-13.9,22.1s-48.7-9-65.3-14s-56.7-17.5-76-20.9s-40.7,10.6-43.7,37.9
		s-8,82-8.3,102.7s3.3,24.3,0,41s-3.7,16.7,0,17.3"/>
	<path class="st7" d="M571.5,523.7c0,0,34.6-1.4,35.9,6.3s9.3,35.3-32.3,30.3s-94.3-21-113.3-28.5s-52.8-22.8-66.3-9.1
		c-13.5,13.6-16.5,38.1-17.3,44.9s-8.5,56.3-4.5,70s9.5,39.3,4.3,49.5s-8,20.4-13.5,20.3"/>
	<path class="st7" d="M562.8,521.3c0,0-5-5-19.9-3.4s-50.9-2.8-69.7-9.5c-18.8-6.6-60.8-22.5-75-20.8c-18,2.1-36.8,19.6-41.5,42.1
		c-4.8,22.5-8.3,55.8-6.8,69.5s0.3,41.5-2.5,48.3s-5.5,16-13.5,6.5s-8.5-22.8-8.5-22.8s-8.3-5.8-13,2.8s8.5,43.8,16,51.5
		s12.3,23,23.8,19.5"/>
	<path class="st8" d="M475.9,507.9c0,0,11.5,5.6,16.3,0.5c4.8-5.1-4.3-13.1-29.5-23.6s-81.9-34-109.1,7.8s-27.9,137.3-27.9,137.3"/>
	<path class="st1" d="M346.4,716.5c0,0-28-24-35-46.5s-6.5-33.5,3.5-54s4.7-57.8,10.8-78.5c8.8-30.1,24.8-62.8,54.8-88.6
		s-44.5-97.4-50-119.4s-45-65-49-178"/>
	<path class="st1" d="M367.9,716.5c0,0,24.7-17,19.6-37.5s-7.9-45.3-9.5-71.4s6.4-52.6,12.9-61.1s14-17,15-9s-11.5,56.7-11.5,64.6
		s-16.8,69.4,15.1,96.4s90.4,9.6,83.9-40s-6.6-48.4-6.6-48.4"/>
	<path class="st1" d="M347.8,716.7c2.9-2,6.6-2.6,10.2-2.7c1.7-0.2,3.5,0.2,4.9,1.1c0.8,0.6,1.3,1.4,2.1,1.9
		c0.8,0.6,1.9,0.5,2.6-0.1"/>
	<path class="st1" d="M771.4,23c0,0,36.4,94,48.7,139s43.3,104.9,9.4,191.5"/>
	<path class="st1" d="M797.7,83.9c0,0,89.7,127.7,96.7,174.4s36,210.3-36,276s-88.7,70.5-136.3,74.6S550.4,601,493.4,565"/>
	<path class="st1" d="M861.9,536.9c0,0-47,50.1-56,59.6s-23,44-34.5,44S739.9,655,739.9,655"/>
	<path class="st1" d="M785.4,633.5c0,0-15,86-14,110.5"/>
	<path class="st1" d="M390.9,676c0,0,4.5,54.5,0,81"/>
</g>
<g id="Layer_6">
	<path class="st9" d="M396.4,465.3c0,0,38-0.7,23.3-50s-82.8-114.7-94.1-182.7s-19.3-115.3-19.3-115.3"/>
	<path class="st9" d="M446.4,399.7c0,0-58.7-63.7-66.7-84.4s-42.7-70.5-60.7-188.3"/>
	<path class="st9" d="M428.2,369.8c0,0-30.5-28.3-36.5-45.3S347.9,238,337.4,197c-6.5-26.2-11-52.8-13.5-79.7"/>
	<path class="st9" d="M444.4,346.7c0,0-26.5,6.3-39.5-18.2s-61-115.5-67-146.5s-10-62.5-10-62.5"/>
	<path class="st3" d="M413.9,616.5c0,0-14.6,50,9.2,68s59.7,3.5,47-36"/>
	<path class="st3" d="M420.4,596.5c0,0-15.5,20-4,21s22.5-8.7,27-8.6s27.7,1.2,29.3,43.1s9.7-0.5,6.7-12.5s-13.5-50-30-50.5
		C439.3,588.8,429.2,591.4,420.4,596.5z"/>
</g>
<g id="Layer_7">
	<path class="st10" d="M332.4,133.7c0,0,6.7,50.2,17,70.9s41.7,96.1,53,110.1s6.1,17.8,20.7,24.1s83.3-13.1,96.6-14.4
		c13.3-1.3,70.9-6.4,95.5,12c24.5,18.3,32.3,40.6,30.6,45.1s16.9-48.5,8.3-62.5s-45-38.7-45-42s0.7-39.4,19.3-52.2
		s29.7-24.5,47.7-22.5s25,8.2,26.8,3.2s15.2,4.8-26.8-18.2S645.8,171,640.4,166s-63-17.3-64.7-25s-20.3-34.7-20.3-42
		s-10-36.3-10.7-43"/>
</g>
<g id="Layer_8">
	<line class="st10" x1="338.4" y1="233.5" x2="222.4" y2="233.5"/>
	<line class="st10" x1="376.5" y1="291.3" x2="220.5" y2="291.3"/>
	<line class="st10" x1="343.4" y1="188.3" x2="222.4" y2="188.3"/>
	<line class="st10" x1="499.4" y1="373.5" x2="222.4" y2="373.5"/>
	<line class="st10" x1="450.4" y1="425.7" x2="222.4" y2="425.7"/>
	<line class="st10" x1="555.4" y1="468.6" x2="223.9" y2="468.6"/>
	<line class="st10" x1="570.8" y1="494.5" x2="222.4" y2="494.5"/>
	<line class="st10" x1="556.8" y1="508.9" x2="222.4" y2="534.3"/>
	<line class="st10" x1="559" y1="536.9" x2="222.4" y2="567"/>
	<line class="st10" x1="336.4" y1="608.9" x2="222.4" y2="608.9"/>
	<line class="st10" x1="360.8" y1="640" x2="222.4" y2="640"/>
	<line class="st10" x1="437.1" y1="670.1" x2="222.4" y2="670.1"/>
	<line class="st10" x1="446.4" y1="705" x2="222.4" y2="705"/>
</g>
<g id="Layer_9">
	<text transform="matrix(1 0 0 1 93.5845 191.25)" class="st11 st12 st13">Peritoneum</text>
	<text transform="matrix(1 0 0 1 18.2603 232.7012)" class="st11 st12 st13">Anterior abdominal</text>
	<text transform="matrix(1 0 0 1 86.2095 256.7011)" class="st11 st12 st13">wall muscles</text>
	<text transform="matrix(1 0 0 1 39.7681 293.1143)" class="st11 st12 st13">Median umbilical</text>
	<text transform="matrix(1 0 0 1 128.7427 317.1143)" class="st11 st12 st13">lifament</text>
	<text transform="matrix(1 0 0 1 58.4497 375.5585)" class="st11 st12 st13">Urinary bladder</text>
	<text transform="matrix(1 0 0 1 157.02 430.2252)" class="st11 st12 st13">Pubis</text>
	<text transform="matrix(1 0 0 1 64.9398 468.616)" class="st11 st12 st13">Prostate gland</text>
	<text transform="matrix(1 0 0 1 47.5254 501.2496)" class="st11 st12 st13">Prostatic urethra</text>
	<text transform="matrix(1 0 0 1 47.0904 528.3267)" class="st11 st12 st13">Deep transverse</text>
	<text transform="matrix(1 0 0 1 56.6412 552.3267)" class="st11 st12 st13">perinei muscles</text>
	<text transform="matrix(1 0 0 1 67.4296 574.3267)" class="st11 st12 st13">Bulbar urethra</text>
	<text transform="matrix(1 0 0 1 11.6822 610.6074)" class="st11 st12 st13">Corpora cavernosa</text>
	<text transform="matrix(1 0 0 1 69.6926 645.274)" class="st11 st12 st13">Penile urethra</text>
	<text transform="matrix(1 0 0 1 -9.155273e-05 676.6074)" class="st11 st12 st13">Testis and epididymis</text>
	<text transform="matrix(1 0 0 1 123.384 708.6074)" class="st11 st12 st13">Scrotum</text>
</g>
<g id="Layer_10">
	<line class="st10" x1="594" y1="133.3" x2="929" y2="76.5"/>
	<line class="st10" x1="739.9" y1="159" x2="929" y2="117.3"/>
	<line class="st10" x1="676.1" y1="187.3" x2="929" y2="215.3"/>
	<line class="st10" x1="672.8" y1="258.3" x2="929" y2="271"/>
	<line class="st10" x1="771.4" y1="304.5" x2="929" y2="304.5"/>
	<line class="st10" x1="645.8" y1="353.5" x2="929" y2="353.5"/>
	<line class="st10" x1="703" y1="399.7" x2="929" y2="399.7"/>
	<line class="st10" x1="766.3" y1="425.7" x2="929" y2="425.7"/>
	<line class="st10" x1="722.1" y1="475.3" x2="929" y2="486.8"/>
	<line class="st10" x1="622" y1="434" x2="929" y2="449"/>
	<line class="st10" x1="635.3" y1="516.2" x2="929" y2="516.2"/>
	<line class="st10" x1="676.1" y1="528.3" x2="929" y2="551.9"/>
	<line class="st10" x1="685.6" y1="549.2" x2="929" y2="609.7"/>
</g>
<g id="Layer_11">
	<text transform="matrix(1 0 0 1 937.4094 76.5002)" class="st11 st12 st13">Sacral promontery</text>
	<text transform="matrix(1 0 0 1 937.4094 119.5002)" class="st11 st12 st13">Vertebral canal with </text>
	<text transform="matrix(1 0 0 1 937.4094 143.5002)" class="st11 st12 st13">dural coverings and </text>
	<text transform="matrix(1 0 0 1 937.4094 167.5002)" class="st11 st12 st13">cauda equina</text>
	<text transform="matrix(1 0 0 1 937.4093 196.8125)" class="st11 st12 st13">Peritoneum along</text>
	<text transform="matrix(1 0 0 1 937.4093 220.8125)" class="st11 st12 st13">posterior abdominal </text>
	<text transform="matrix(1 0 0 1 937.4093 244.8125)" class="st11 st12 st13">wall</text>
	<text transform="matrix(1 0 0 1 937.4093 274.8125)" class="st11 st12 st13">Cut end of rectum</text>
	<text transform="matrix(1 0 0 1 937.4099 312.4131)" class="st11 st12 st13">Fascia of Waldeyer</text>
	<text transform="matrix(1 0 0 1 937.4099 355.8154)" class="st11 st12 st13">Rectovesical pouch</text>
	<text transform="matrix(1 0 0 1 937.4099 403.5004)" class="st11 st12 st13">Rectum</text>
	<text transform="matrix(1 0 0 1 937.4099 432.1671)" class="st11 st12 st13">Coccyx</text>
	<text transform="matrix(1 0 0 1 937.4099 461.1671)" class="st11 st12 st13">Fascia of Denonvilliers</text>
	<text transform="matrix(1 0 0 1 937.4099 486.7784)" class="st11 st12 st13">Anococcygeal raphae</text>
	<text transform="matrix(1 0 0 1 937.4099 520.9818)" class="st11 st12 st13">Perineal body</text>
	<text transform="matrix(1 0 0 1 937.4099 560.9095)" class="st11 st12 st13">Anal canal</text>
	<text transform="matrix(1 0 0 1 937.4092 614.8502)" class="st11 st12 st13">Anal verge</text>
</g>
<text transform="matrix(1 0 0 1 166.0704 47.6183)"><tspan x="0" y="0" class="st14 st15">Sagittal section of </tspan><tspan x="78" y="60" class="st14 st15">male pelvis</tspan></text>
</svg>
