<?xml version="1.0" encoding="utf-8"?>
<!-- Generator: Adobe Illustrator 21.0.0, SVG Export Plug-In . SVG Version: 6.00 Build 0)  -->
<svg version="1.1" xmlns="http://www.w3.org/2000/svg" xmlns:xlink="http://www.w3.org/1999/xlink" x="0px" y="0px"
	 viewBox="0 0 670 452" style="enable-background:new 0 0 670 452;" xml:space="preserve">
<style type="text/css">
	.st0{display:none;}
	.st1{fill:none;stroke:#CC6633;stroke-miterlimit:10;}
	.st2{fill:#FFFFFF;stroke:#CC6633;stroke-miterlimit:10;}
	.st3{fill:none;}
	.st4{fill:#CC6633;}
	.st5{font-family:'MyriadPro-Regular';}
	.st6{font-size:18px;}
	.st7{fill:#006600;}
	.st8{font-size:27px;}
	.st9{fill:none;stroke:#333333;stroke-miterlimit:10;}
</style>
<g id="Layer_1" class="st0">
	
		<image style="display:inline;overflow:visible;opacity:0.2;" width="1280" height="720" xlink:href="1881609C.jpg"  transform="matrix(0.7023 0 0 0.7023 -4 18)">
	</image>
</g>
<g id="Layer_2">
	<path class="st1" d="M30,130c0,0,44,51,264,47s251-25,277-40"/>
	<path class="st1" d="M45.5,170.5c0,0,152,42,182,68s-59,25-147-3s-66-27-66-27"/>
	<path class="st1" d="M28.5,260.5c0,0,250,14,297,43s83,75-83,43s-229-32-229-32"/>
	<path class="st1" d="M622.5,123.5c-54,70-266,90-266,90s-111,24-4,48s262-71,282-89"/>
	<path class="st1" d="M642.5,205.5c0,0-249,74-234,92s38,46,107,22s133-79,161-71"/>
	<path class="st1" d="M47.5,382.5c0,0,296,13,341,25s76,12,128-33s125-87,151-96"/>
	<path class="st1" d="M159,172c0,0,36.5,31.5,82.5,63.5s120,73,143,109s39,53,50,72"/>
	<path class="st1" d="M225,176c0,0,73.5,74.5,122.5,101.5s82,60,102,95s20,35,20,35"/>
	<path class="st2" d="M160,173.3c0,0,24.5,11.2,40.5,10.2s29-3,22-11S149.5,161.2,160,173.3z"/>
	<path class="st2" d="M435.5,417.5c0,0,34,1,35-4s-2-8-10-10s-21,3-22,5S430.5,414.5,435.5,417.5z"/>
	<path id="SVGID_x5F_1_x5F_" class="st3" d="M242.5,220.5c0,0,73,60,121,85"/>
	<text>	<textPath  xlink:href="#SVGID_x5F_1_x5F_" startOffset="25.0977%">
<tspan  class="st5 st6">Inguinal canal</tspan>	</textPath>
</text>
</g>
<g id="Layer_3">
	<g>
		<path class="st4" d="M19.5,177.5c16.1,3.9,32.2,7.9,48.3,12.2c16,4.2,32,8.7,48,13.3c8,2.3,15.9,4.7,23.8,7.2
			c7.9,2.5,15.8,5.1,23.6,7.9c7.8,2.8,15.6,5.8,23.2,9c7.6,3.3,15.2,6.8,22.1,11.5l-0.1,0.1c-1.8-1.1-3.5-2.2-5.4-3.1l-2.7-1.5
			l-2.8-1.3c-3.7-1.8-7.5-3.4-11.4-5c-7.7-3.1-15.5-6-23.3-8.7c-7.8-2.8-15.7-5.3-23.6-7.9c-7.9-2.6-15.8-5-23.8-7.4
			c-15.9-4.8-31.9-9.3-47.9-13.6C51.6,185.7,35.6,181.5,19.5,177.5L19.5,177.5z"/>
	</g>
	<g>
		<path class="st4" d="M17.5,190.5c15.1,2.9,30.3,5.9,45.3,9.2c15.1,3.2,30.1,6.7,45.1,10.4c15,3.7,29.9,7.8,44.5,12.5
			c7.3,2.4,14.6,5,21.7,8c7.1,3,14.2,6.3,20.4,10.9l-0.1,0.1c-1.6-1-3.2-2.2-4.9-3.1l-2.5-1.4l-2.6-1.3c-3.4-1.7-7-3.2-10.6-4.6
			c-7.1-2.8-14.4-5.3-21.8-7.7c-7.3-2.4-14.7-4.6-22.1-6.6c-7.4-2.1-14.8-4.1-22.3-6c-14.9-3.8-29.9-7.4-45-10.7
			C47.7,196.7,32.6,193.6,17.5,190.5L17.5,190.5z"/>
	</g>
	<g>
		<path class="st4" d="M22.5,209.5c12.9,1.3,25.7,3,38.5,5c12.8,2.1,25.5,4.4,38.1,7.2c12.6,2.8,25.2,6,37.5,10
			c1.6,0.5,3.1,1,4.6,1.6l4.6,1.6l4.6,1.6l4.5,1.8l4.5,1.8l2.2,0.9c0.7,0.3,1.5,0.7,2.2,1l8.7,4.3l0,0.1
			c-11.7-5.5-23.8-10.1-36.1-13.9l-9.3-2.8c-3.1-0.9-6.2-1.7-9.3-2.6l-4.7-1.3l-4.7-1.2c-3.1-0.8-6.3-1.6-9.4-2.3
			c-12.6-2.9-25.3-5.3-38-7.5C48.2,212.8,35.4,210.9,22.5,209.5L22.5,209.5z"/>
	</g>
	<g>
		<path class="st4" d="M19.5,273.5c8.4-0.9,16.8-1.5,25.2-2c8.4-0.5,16.8-0.8,25.3-1c2.1-0.1,4.2-0.1,6.3-0.1c2.1,0,4.2-0.1,6.3-0.1
			l6.3,0.1l6.3,0.2c8.4,0.4,16.9,0.9,25.2,2l0,0.1c-8.4-0.5-16.8-0.9-25.2-1.1l-6.3-0.2l-6.3-0.1c-2.1,0-4.2,0-6.3,0
			c-2.1,0-4.2,0-6.3,0c-8.4,0.1-16.8,0.3-25.3,0.7C36.3,272.3,27.9,272.8,19.5,273.5L19.5,273.5z"/>
	</g>
	<g>
		<path class="st4" d="M17.5,288.5c6.5-0.9,13-1.9,19.5-2.9l19.5-3.1c13-2,26.1-3.8,39.2-5.4c6.5-0.8,13.1-1.5,19.7-2.1
			c6.6-0.6,13.2-1,19.7-1.3c6.6-0.2,13.2-0.2,19.8,0.1c1.6,0.1,3.3,0.2,4.9,0.3l2.5,0.2l2.5,0.3c3.3,0.4,6.5,1,9.7,1.8l0,0.1
			c-3.2-0.6-6.5-1.2-9.8-1.4l-2.5-0.2l-2.5-0.2c-1.6-0.1-3.3-0.2-4.9-0.2c-6.6-0.2-13.2-0.1-19.7,0.2c-6.6,0.3-13.1,0.7-19.7,1.2
			c-6.6,0.5-13.1,1.2-19.7,1.9c-13.1,1.4-26.1,3.2-39.2,5.1l-19.6,2.9C30.6,286.8,24,287.8,17.5,288.5L17.5,288.5z"/>
	</g>
	<g>
		<path class="st4" d="M23.5,303.5c16-3.5,32-6.7,48.1-9.6c16.1-2.9,32.2-5.7,48.4-8c16.2-2.4,32.4-4.4,48.8-5.4
			c8.2-0.5,16.4-0.8,24.5-0.5c8.2,0.3,16.5,0.9,24.2,3.6l0,0.1c-2-0.5-3.9-1.2-5.9-1.5c-1-0.2-2-0.4-3-0.5l-3-0.3
			c-4.1-0.5-8.1-0.6-12.2-0.7c-8.2-0.1-16.3,0.3-24.5,0.9c-8.1,0.5-16.3,1.3-24.4,2.2c-8.1,0.9-16.2,1.9-24.3,3
			c-16.2,2.2-32.3,4.8-48.4,7.7C55.6,297.1,39.5,300.2,23.5,303.5L23.5,303.5z"/>
	</g>
	<g>
		<path class="st4" d="M69.5,310.5c16.2-3.3,32.4-6.5,48.6-9.5c16.2-2.9,32.5-5.7,48.9-8c16.3-2.4,32.7-4.4,49.2-5.5
			c8.2-0.5,16.5-0.8,24.8-0.7c8.2,0.1,16.6,0.7,24.6,2.7l0,0.1l-3-0.6c-0.5-0.1-1-0.2-1.5-0.3l-1.5-0.2l-3.1-0.4l-3.1-0.2
			c-2-0.2-4.1-0.3-6.2-0.3c-2.1-0.1-4.1-0.1-6.2-0.1c-8.2,0-16.5,0.4-24.7,1.1c-8.2,0.6-16.4,1.4-24.6,2.3c-8.2,0.9-16.4,1.9-24.6,3
			c-16.3,2.2-32.6,4.9-48.9,7.7C101.9,304.3,85.7,307.4,69.5,310.5L69.5,310.5z"/>
	</g>
	<g>
		<path class="st4" d="M101,323c15.4-3.7,30.9-7.1,46.4-10.4c15.5-3.2,31.1-6.2,46.7-8.9c7.8-1.3,15.6-2.6,23.5-3.7
			c7.8-1.1,15.7-2.1,23.6-2.9c7.9-0.7,15.8-1.2,23.7-1.4c7.9-0.1,15.9,0.1,23.7,1.7l0,0.1c-3.9-0.6-7.8-1.1-11.8-1.1l-3-0.1l-3,0
			l-3,0l-3,0.1c-7.9,0.3-15.8,0.9-23.7,1.7c-15.7,1.6-31.4,3.9-47,6.4c-15.6,2.6-31.2,5.5-46.7,8.6C131.9,316.2,116.4,319.5,101,323
			L101,323z"/>
	</g>
	<g>
		<path class="st4" d="M150.5,324.5c14.1-2.5,28.3-4.8,42.5-7c14.2-2.1,28.4-4.1,42.7-5.8c7.1-0.8,14.3-1.7,21.4-2.4
			c7.2-0.7,14.3-1.3,21.5-1.7c7.2-0.3,14.4-0.5,21.6-0.4c7.2,0.1,14.4,0.5,21.4,2.3l0,0.1c-1.8-0.3-3.5-0.7-5.3-0.9l-2.7-0.3
			l-2.7-0.2c-3.6-0.3-7.2-0.3-10.7-0.4c-7.2,0-14.3,0.3-21.5,0.8c-7.2,0.4-14.3,1-21.4,1.6c-7.1,0.6-14.3,1.4-21.4,2.2
			c-14.3,1.6-28.5,3.5-42.7,5.5C178.8,320,164.7,322.2,150.5,324.5L150.5,324.5z"/>
	</g>
	<g>
		<path class="st4" d="M211.5,331.5c20.1-4.3,40.4-8.1,60.7-11.2c5.1-0.8,10.2-1.5,15.3-2.2c5.1-0.6,10.2-1.2,15.4-1.6
			c5.1-0.4,10.3-0.6,15.5-0.5c2.6,0,5.2,0.2,7.7,0.5c2.5,0.4,5.1,0.8,7.5,2l0,0.1c-2.4-1-4.9-1.3-7.5-1.6c-2.6-0.2-5.1-0.3-7.7-0.2
			c-5.1,0.1-10.3,0.4-15.4,0.8c-5.1,0.4-10.2,0.9-15.3,1.6c-5.1,0.6-10.2,1.2-15.3,2c-10.2,1.4-20.3,3.1-30.5,4.9
			C231.7,327.7,221.6,329.5,211.5,331.5L211.5,331.5z"/>
	</g>
	<g>
		<path class="st4" d="M252.5,344.5c15.8-4,31.6-7.6,47.6-10.7c4-0.8,8-1.5,12-2.3c4-0.7,8-1.3,12.1-1.8c4-0.5,8.1-0.9,12.2-1.1
			c4.1-0.1,8.2-0.3,12.2,0.9l0,0.1c-2-0.5-4-0.6-6-0.6c-2,0-4,0.1-6.1,0.3c-4,0.3-8.1,0.8-12.1,1.4c-4,0.5-8,1.1-12,1.8
			c-4,0.6-8,1.3-12,2.1c-8,1.5-16,3.1-23.9,4.8C268.4,340.9,260.4,342.7,252.5,344.5L252.5,344.5z"/>
	</g>
	<g>
		<path class="st4" d="M321.5,350.5c6.7-2.4,13.5-4.4,20.5-5.8c3.5-0.7,7-1.2,10.6-1.2c1.8,0,3.6,0.1,5.4,0.5c1.8,0.4,3.5,1,5,2
			L363,346c-1.6-0.8-3.3-1.2-5-1.4c-1.7-0.2-3.5-0.3-5.2-0.2c-3.5,0.1-7,0.5-10.5,1c-3.5,0.6-7,1.3-10.4,2.2
			C328.3,348.5,324.9,349.5,321.5,350.5L321.5,350.5z"/>
	</g>
	<g>
		<path class="st4" d="M321.5,249.5c-0.5-3.3-0.1-6.7,1.1-9.9c1.2-3.2,3.2-6,5.7-8.3c0.6-0.6,1.3-1.1,1.9-1.7l2.1-1.4
			c0.4-0.2,0.7-0.5,1.1-0.7l1.1-0.6l2.3-1.1c1.6-0.5,3.2-1.1,4.8-1.6c1.6-0.3,3.3-0.7,4.9-0.9l0,0.1c-1.6,0.5-3.2,1-4.8,1.5
			c-1.5,0.6-3.1,1.2-4.6,1.8l-2.2,1.1l-1.1,0.5c-0.4,0.2-0.7,0.4-1.1,0.6l-2.1,1.3l-1.9,1.5c-2.5,2.1-4.5,4.8-5.8,7.8
			C321.7,242.8,321.1,246.2,321.5,249.5L321.5,249.5z"/>
	</g>
	<g>
		<path class="st4" d="M336.5,252.5c3.4-4.4,7-8.7,10.7-12.8c3.7-4.1,7.6-8.1,11.7-12c4.1-3.8,8.3-7.5,13.1-10.5
			c2.4-1.5,4.8-2.9,7.4-3.9c2.6-1,5.4-1.8,8.2-1.8l0,0.1c-0.7,0.1-1.4,0.2-2.1,0.3c-0.7,0.2-1.3,0.3-2,0.5c-0.7,0.2-1.3,0.4-2,0.7
			l-1.9,0.8c-2.5,1.2-4.9,2.6-7.2,4.1c-4.6,3.1-8.9,6.5-13.1,10.2c-4.1,3.7-8.1,7.6-11.9,11.7C343.7,244,340,248.2,336.5,252.5
			L336.5,252.5z"/>
	</g>
	<g>
		<path class="st4" d="M356,260c4.5-5.2,9.1-10.3,13.9-15.2c4.8-4.9,9.6-9.8,14.7-14.4c5.1-4.6,10.2-9.2,15.8-13.2
			c2.8-2,5.7-3.9,8.7-5.6c3-1.7,6.1-3.2,9.4-4.1l0,0.1l-2.4,1l-2.3,1.1l-2.3,1.2l-2.2,1.3c-2.9,1.8-5.7,3.7-8.4,5.8
			c-5.5,4.1-10.8,8.4-15.9,13c-5.1,4.6-10.1,9.3-14.9,14.2C365.3,250,360.6,254.9,356,260L356,260z"/>
	</g>
	<g>
		<path class="st4" d="M379.5,258.5c4.5-5.6,9.4-11,14.3-16.2c5-5.2,10.2-10.3,15.6-15.1c5.4-4.8,11-9.4,17-13.5
			c6-4,12.4-7.6,19.1-10.3l0,0.1c-6.5,3.2-12.7,6.9-18.6,11c-5.9,4.1-11.6,8.6-17,13.2c-5.5,4.7-10.7,9.7-15.7,14.8
			C389.1,247.7,384.2,253,379.5,258.5L379.5,258.5z"/>
	</g>
	<g>
		<path class="st4" d="M404.5,259.5c10.2-10.9,21.1-21.1,32.4-30.9c5.6-4.9,11.3-9.7,17.3-14.3c5.9-4.5,12.1-8.8,18.4-12.8l0.1,0.1
			c-6,4.5-12,8.8-17.8,13.5c-5.8,4.6-11.7,9.2-17.4,14.1c-5.7,4.8-11.3,9.8-16.7,14.8C415.1,249,409.7,254.2,404.5,259.5
			L404.5,259.5z"/>
	</g>
	<g>
		<path class="st4" d="M428.5,256.5c13.9-11.7,27.9-23.2,42-34.6l10.6-8.6l10.7-8.5c7.2-5.5,14.4-11.1,21.8-16.3l0.1,0.1l-21.2,17
			L471,222.4l-21.2,17L428.5,256.5L428.5,256.5z"/>
	</g>
	<g>
		<path class="st4" d="M471.5,244.5c5.5-6.2,11.1-12.2,16.8-18.3c5.7-6,11.5-11.9,17.4-17.7c2.9-2.9,5.9-5.8,8.9-8.6l4.6-4.2
			c1.5-1.4,3.1-2.7,4.6-4.1c6.3-5.4,12.7-10.6,19.7-15.1l0.1,0.1c-6.6,5-12.9,10.3-19.1,15.8c-1.5,1.4-3.1,2.7-4.6,4.1l-4.6,4.2
			c-3,2.8-6.1,5.6-9,8.5c-6,5.7-11.8,11.6-17.6,17.5C482.8,232.5,477.1,238.4,471.5,244.5L471.5,244.5z"/>
	</g>
	<g>
		<path class="st4" d="M503,240c11.3-12.2,22.5-24.4,33.9-36.6l8.5-9.1l8.6-9.1c5.8-6,11.6-12,17.6-17.7l0.1,0.1l-16.9,18.3
			l-8.6,9.1l-8.6,9L503,240L503,240z"/>
	</g>
	<g>
		<path class="st4" d="M594.5,154.5c-5,5.7-9.9,11.4-14.8,17.2c-4.9,5.8-9.7,11.6-14.5,17.4c-4.8,5.9-9.4,11.8-14,17.8
			c-2.3,3-4.5,6-6.7,9.1c-1.1,1.5-2.1,3.1-3.1,4.7c-0.9,1.6-1.9,3.3-2.4,5.1l-0.1,0c0.4-1.9,1.3-3.6,2.1-5.3
			c0.9-1.7,1.9-3.3,2.9-4.9c2-3.2,4.2-6.3,6.5-9.4c4.5-6.1,9.3-11.9,14.2-17.8C574.3,177,584.3,165.7,594.5,154.5L594.5,154.5z"/>
	</g>
	<g>
		<path class="st4" d="M579,207c5.5-12.3,11.4-24.5,17.7-36.4c3.1-6,6.4-11.9,9.9-17.7c3.6-5.7,7.3-11.4,11.9-16.4l0.1,0.1
			c-4.1,5.4-7.6,11.1-11.1,16.9c-3.4,5.8-6.8,11.6-10.1,17.5c-3.2,5.9-6.4,11.9-9.4,17.9C584.9,194.9,581.9,200.9,579,207L579,207z"
			/>
	</g>
	<g>
		<path class="st4" d="M424,286c8,5.3,15.6,11.2,23,17.3c3.7,3.1,7.3,6.2,10.8,9.6c3.4,3.4,6.7,6.9,9.8,10.6l-0.1,0.1
			c-3.5-3.3-6.8-6.7-10.4-10c-3.5-3.3-7-6.6-10.6-9.7c-3.6-3.1-7.3-6.2-11.1-9.2C431.7,291.7,427.9,288.8,424,286L424,286z"/>
	</g>
	<g>
		<path class="st4" d="M450.5,276.5c4.2,3,8.3,6.2,12.2,9.5c3.9,3.3,7.8,6.8,11.4,10.5c3.6,3.7,7.1,7.5,10.1,11.8
			c1.4,2.2,2.8,4.4,3.9,6.7c1.1,2.4,2,4.8,2.4,7.4l-0.1,0c-0.6-2.5-1.7-4.9-2.9-7.1c-1.2-2.2-2.6-4.4-4.1-6.5
			c-3-4.1-6.3-8.1-9.9-11.8c-3.5-3.7-7.3-7.3-11.2-10.7C458.6,283,454.6,279.7,450.5,276.5L450.5,276.5z"/>
	</g>
	<g>
		<path class="st4" d="M465,267c5.6,3,11.2,6.1,16.7,9.4c5.5,3.3,10.8,6.7,16.1,10.4c5.2,3.6,10.4,7.5,15.1,11.8
			c2.3,2.2,4.6,4.5,6.6,7c2,2.5,3.7,5.3,4.6,8.4l-0.1,0c-0.6-1.5-1.3-2.9-2.2-4.2l-0.7-1c-0.2-0.3-0.5-0.6-0.7-0.9
			c-0.5-0.6-1-1.3-1.5-1.8c-2.1-2.4-4.3-4.6-6.7-6.7c-4.7-4.2-9.7-8.2-14.9-11.9c-5.2-3.7-10.5-7.2-15.9-10.6
			C476,273.4,470.5,270.1,465,267L465,267z"/>
	</g>
	<g>
		<path class="st4" d="M490.5,258.5c9.6,6.9,19,14.2,28,21.8c4.5,3.8,9,7.7,13.2,12c4.1,4.3,8.2,8.6,11.3,13.7L543,306
			c-3.6-4.7-7.7-8.9-11.9-13.1c-4.2-4.1-8.5-8.2-13-12.1c-4.4-3.9-9-7.7-13.6-11.4C499.9,265.8,495.2,262.1,490.5,258.5L490.5,258.5
			z"/>
	</g>
	<g>
		<path class="st4" d="M516.4,248.3c7.6,7.8,15,15.8,22.1,24.1c3.5,4.1,7,8.4,10.2,12.8l2.3,3.4c0.7,1.2,1.4,2.3,2.1,3.5
			c0.7,1.2,1.3,2.4,1.9,3.6c0.6,1.2,1,2.5,1.6,3.8l-0.1,0c-0.6-1.2-1.2-2.5-1.9-3.6c-0.7-1.2-1.4-2.3-2.1-3.5
			c-0.8-1.1-1.5-2.3-2.3-3.4l-2.4-3.3c-3.2-4.3-6.5-8.7-10-12.9c-3.4-4.2-7-8.3-10.6-12.4C523.7,256.4,520,252.3,516.4,248.3
			L516.4,248.3z"/>
	</g>
	<g>
		<path class="st4" d="M538.5,240.5c6.5,8,12.8,16.1,19,24.3c3.1,4.1,6.2,8.2,9.1,12.5c2.8,4.3,5.7,8.6,8,13.2l-0.1,0
			c-2.8-4.3-5.7-8.5-8.7-12.7c-3-4.2-5.9-8.4-8.9-12.6c-3-4.2-6-8.3-9.1-12.4C544.7,248.7,541.6,244.6,538.5,240.5L538.5,240.5z"/>
	</g>
	<g>
		<path class="st4" d="M555,233c7.1,8.1,14.1,16.4,20.8,24.9c3.3,4.3,6.7,8.5,9.7,13c1.5,2.3,2.9,4.6,4.2,6.9
			c0.3,0.6,0.6,1.2,0.9,1.8c0.3,0.6,0.6,1.2,0.9,1.9c0.5,1.3,1,2.6,1,4h-0.1c-0.1-1.3-0.7-2.6-1.3-3.8c-0.6-1.2-1.3-2.4-2-3.5
			c-1.4-2.3-2.9-4.5-4.5-6.7c-3.1-4.4-6.2-8.8-9.5-13.1c-3.3-4.3-6.6-8.6-10-12.8C561.8,241.4,558.4,237.2,555,233L555,233z"/>
	</g>
	<g>
		<path class="st4" d="M578.5,228.5c6,7.5,11.8,15.2,17.4,23.1c2.8,3.9,5.6,7.9,8.1,12c1.2,2.1,2.5,4.2,3.6,6.3
			c1.1,2.1,2.1,4.4,2.8,6.7l-0.1,0c-1-2.2-2.1-4.3-3.4-6.4c-1.2-2.1-2.5-4.1-3.8-6.1c-2.6-4-5.2-8.1-7.9-12
			C589.9,244.1,584.2,236.2,578.5,228.5L578.5,228.5z"/>
	</g>
	<g>
		<path class="st4" d="M593.7,222.3c6.1,6.5,12,13.2,17.7,20.1c2.8,3.5,5.7,6.9,8.2,10.6c1.3,1.9,2.5,3.7,3.6,5.7
			c1.1,2,2.1,4,2.5,6.2l-0.1,0c-0.7-2.1-1.8-4-3-5.9c-1.2-1.9-2.5-3.7-3.8-5.5c-2.6-3.6-5.3-7.2-8-10.7c-2.8-3.5-5.6-7-8.4-10.4
			C599.5,229.1,596.6,225.7,593.7,222.3L593.7,222.3z"/>
	</g>
	<g>
		<path class="st4" d="M614.5,218.5c4.6,6.3,9.1,12.7,13.6,19.1c2.2,3.2,4.5,6.4,6.6,9.7c2,3.3,4.1,6.7,5.7,10.3l-0.1,0
			c-2-3.3-4.2-6.6-6.4-9.8c-2.2-3.2-4.3-6.6-6.4-9.8C623.2,231.5,618.8,225,614.5,218.5L614.5,218.5z"/>
	</g>
	<g>
		<path class="st4" d="M628.4,210.3c3.8,6.9,7.6,13.9,11.3,20.8c1.9,3.5,3.8,6.9,5.6,10.5c1.8,3.5,3.5,7.1,5.1,10.7l-0.1,0
			c-2.1-3.4-4-6.8-5.9-10.3c-1.9-3.5-3.6-7-5.4-10.5C635.4,224.5,631.8,217.4,628.4,210.3L628.4,210.3z"/>
	</g>
	<text transform="matrix(1 0 0 1 141 150.52)" class="st5 st6">Deep inguinal ring</text>
	<text transform="matrix(1 0 0 1 6 48.52)" class="st7 st5 st8">Schematic representation of mechanisms of inguinal canal</text>
	<text transform="matrix(0.9973 7.308244e-02 -7.308244e-02 0.9973 100.8009 311.409)" class="st5 st6">Internal oblique</text>
	<text transform="matrix(0.9973 7.308244e-02 -7.308244e-02 0.9973 219.8009 385.409)" class="st5 st6">External oblique</text>
	<text transform="matrix(1 0 0 1 387 438.52)" class="st5 st6">Superficial inguinal ring</text>
	<text transform="matrix(1 0 0 1 446 116.52)" class="st5 st6">Fascia transversalis</text>
	<text transform="matrix(0.903 -0.4297 0.4297 0.903 507.1032 220.2687)" class="st5 st6">Conjoint tendon</text>
	<text transform="matrix(0.9229 -0.385 0.385 0.9229 529.4968 274.6398)"><tspan x="0" y="0" class="st5 st6">Reflected part of </tspan><tspan x="0" y="21.6" class="st5 st6">inguinal ligament</tspan></text>
	<line class="st9" x1="447" y1="167" x2="475" y2="127"/>
</g>
</svg>
