<svg xmlns="http://www.w3.org/2000/svg" viewBox="0 0 506.19 243.73">
  <title>morris parallelogram</title>
  <g id="Layer_2" data-name="Layer 2">
    <polyline points="239.32 34.21 244.32 44.21 252.32 34.21" fill="none" stroke="#000" stroke-miterlimit="10"/>
    <path d="M257,89l5,8s2-1,6-8" transform="translate(-17.68 -12.79)" fill="none" stroke="#000" stroke-miterlimit="10"/>
    <path d="M255.5,123.5s3,15,7,11,5-6,5-10" transform="translate(-17.68 -12.79)" fill="none" stroke="#000" stroke-miterlimit="10"/>
    <path d="M255.5,162.5s2,13,6,12,5-2,6-11" transform="translate(-17.68 -12.79)" fill="none" stroke="#000" stroke-miterlimit="10"/>
    <path d="M255.5,200.5s2,11,6,11,7-6,7-12" transform="translate(-17.68 -12.79)" fill="none" stroke="#000" stroke-miterlimit="10"/>
    <text transform="translate(217.32 82.39)" font-size="12" font-family="MyriadPro-Regular, Myriad Pro">T12</text>
    <text transform="translate(222.32 119.39)" font-size="12" font-family="MyriadPro-Regular, Myriad Pro">L1</text>
    <text transform="translate(222.32 158.39)" font-size="12" font-family="MyriadPro-Regular, Myriad Pro">L2</text>
    <text transform="translate(222.32 197.39)" font-size="12" font-family="MyriadPro-Regular, Myriad Pro">L3</text>
  </g>
  <g id="Layer_3" data-name="Layer 3">
    <g>
      <line x1="244.32" y1="20.21" x2="244.32" y2="26.21" fill="none" stroke="#999" stroke-linecap="round" stroke-miterlimit="10" stroke-width="2"/>
      <line x1="244.32" y1="36.42" x2="244.32" y2="211.1" fill="none" stroke="#999" stroke-linecap="round" stroke-miterlimit="10" stroke-width="2" stroke-dasharray="12.26 10.22"/>
      <line x1="244.32" y1="216.21" x2="244.32" y2="222.21" fill="none" stroke="#999" stroke-linecap="round" stroke-miterlimit="10" stroke-width="2"/>
    </g>
    <g>
      <line x1="94.82" y1="43.71" x2="100.82" y2="43.71" fill="none" stroke="#999" stroke-linecap="round" stroke-miterlimit="10" stroke-width="2"/>
      <line x1="110.72" y1="43.71" x2="388.87" y2="43.71" fill="none" stroke="#999" stroke-linecap="round" stroke-miterlimit="10" stroke-width="2" stroke-dasharray="11.88 9.9"/>
      <line x1="393.82" y1="43.71" x2="399.82" y2="43.71" fill="none" stroke="#999" stroke-linecap="round" stroke-miterlimit="10" stroke-width="2"/>
    </g>
    <g>
      <line x1="94.82" y1="198.71" x2="100.82" y2="198.71" fill="none" stroke="#999" stroke-linecap="round" stroke-miterlimit="10" stroke-width="2"/>
      <line x1="110.55" y1="198.71" x2="383.95" y2="198.71" fill="none" stroke="#999" stroke-linecap="round" stroke-miterlimit="10" stroke-width="2" stroke-dasharray="11.68 9.73"/>
      <line x1="388.82" y1="198.71" x2="394.82" y2="198.71" fill="none" stroke="#999" stroke-linecap="round" stroke-miterlimit="10" stroke-width="2"/>
    </g>
    <text transform="translate(95.32 33.06)" font-size="12" font-family="MyriadPro-Regular, Myriad Pro">Ho<tspan x="14.41" y="0" letter-spacing="0em">r</tspan><tspan x="18.38" y="0">i</tspan><tspan x="21.19" y="0" letter-spacing="-0.01em">z</tspan><tspan x="26.24" y="0">o</tspan><tspan x="32.83" y="0" letter-spacing="0em">n</tspan><tspan x="39.44" y="0">tal line </tspan><tspan x="75.43" y="0" letter-spacing="0em">a</tspan><tspan x="81.17" y="0">t</tspan><tspan x="85.14" y="0" letter-spacing="-0.04em"> </tspan><tspan x="87.19" y="0">T11 spine</tspan></text>
    <text transform="translate(95.65 213.39)" font-size="12" font-family="MyriadPro-Regular, Myriad Pro">Ho<tspan x="14.41" y="0" letter-spacing="0em">r</tspan><tspan x="18.38" y="0">i</tspan><tspan x="21.19" y="0" letter-spacing="-0.01em">z</tspan><tspan x="26.24" y="0">o</tspan><tspan x="32.83" y="0" letter-spacing="0em">n</tspan><tspan x="39.44" y="0">tal line </tspan><tspan x="75.43" y="0" letter-spacing="0em">a</tspan><tspan x="81.17" y="0">t L3 spine</tspan></text>
  </g>
  <g id="Layer_4" data-name="Layer 4">
    <g>
      <line x1="245.32" y1="65.21" x2="284.84" y2="65.21" fill="none" stroke="blue" stroke-miterlimit="10"/>
      <polygon points="282.73 67.98 283.91 65.21 282.73 62.43 289.32 65.21 282.73 67.98" fill="blue"/>
    </g>
    <g>
      <line x1="245.32" y1="176.21" x2="284.84" y2="176.21" fill="none" stroke="blue" stroke-miterlimit="10"/>
      <polygon points="282.73 178.98 283.91 176.21 282.73 173.43 289.32 176.21 282.73 178.98" fill="blue"/>
    </g>
    <text transform="translate(252.82 80.73)" font-size="12" fill="#3e0aff" font-family="MyriadPro-Regular, Myriad Pro">2.5 cm</text>
    <line x1="291.32" y1="43.21" x2="291.32" y2="197.21" fill="none" stroke="blue" stroke-miterlimit="10"/>
    <line x1="199.32" y1="44.21" x2="199.32" y2="198.21" fill="none" stroke="blue" stroke-miterlimit="10"/>
    <text transform="translate(295.82 226.73)" font-size="12" fill="#39b54a" font-family="MyriadPro-Regular, Myriad Pro">9 cm</text>
    <line x1="375.32" y1="44.21" x2="375.32" y2="192.21" fill="none" stroke="#39b54a" stroke-miterlimit="10"/>
    <line x1="118.32" y1="44.21" x2="118.32" y2="197.21" fill="none" stroke="#39b54a" stroke-miterlimit="10"/>
    <text transform="translate(277.65 33.73)" font-size="12" fill="#0632ff" font-family="MyriadPro-Regular, Myriad Pro"><tspan letter-spacing="-0.03em">V</tspan><tspan x="6.3" y="0">e</tspan><tspan x="12.31" y="0" letter-spacing="0.02em">r</tspan><tspan x="16.52" y="0">tical line 2.5 cm l</tspan><tspan x="98.79" y="0" letter-spacing="0em">a</tspan><tspan x="104.53" y="0" letter-spacing="-0.01em">t</tspan><tspan x="108.43" y="0">e</tspan><tspan x="114.44" y="0" letter-spacing="0em">r</tspan><tspan x="118.31" y="0">al </tspan><tspan x="129.47" y="0" letter-spacing="-0.01em">t</tspan><tspan x="133.37" y="0">o midline</tspan></text>
    <text transform="translate(244.98 240.73)" font-size="12" fill="#00b73f" font-family="MyriadPro-Regular, Myriad Pro"><tspan letter-spacing="-0.03em">V</tspan><tspan x="6.3" y="0">e</tspan><tspan x="12.31" y="0" letter-spacing="0.02em">r</tspan><tspan x="16.52" y="0" letter-spacing="0em">tical line 9 cm l</tspan><tspan x="90.15" y="0" letter-spacing="0em">a</tspan><tspan x="95.89" y="0" letter-spacing="-0.01em">t</tspan><tspan x="99.79" y="0">e</tspan><tspan x="105.8" y="0" letter-spacing="0em">r</tspan><tspan x="109.67" y="0">al </tspan><tspan x="120.83" y="0" letter-spacing="-0.01em">t</tspan><tspan x="124.73" y="0">o midline</tspan></text>
  </g>
  <g id="Layer_5" data-name="Layer 5">
    <g>
      <line x1="244.32" y1="212.21" x2="370.84" y2="212.21" fill="none" stroke="#39b54a" stroke-miterlimit="10"/>
      <polygon points="368.73 214.98 369.91 212.21 368.73 209.43 375.32 212.21 368.73 214.98" fill="#39b54a"/>
    </g>
  </g>
  <g id="Layer_6" data-name="Layer 6">
    <path d="M333,127s-41-41-13-60,46.21-1,55,11c11,15,17,45,18,63,.79,14.3-5,78-41,48-24-20-14-46-11-48S327,147,333,127Z" transform="translate(-17.68 -12.79)" fill="none" stroke="#a67c52" stroke-miterlimit="10" stroke-width="2"/>
    <path d="M187,135s18,9,24-17,12-53-18-51-43,33-50,46-7,67-3,76,28,41,48,8,2-38,0-42,9,5,7-7S187,135,187,135Z" transform="translate(-17.68 -12.79)" fill="none" stroke="#a67c52" stroke-miterlimit="10" stroke-width="2"/>
    <text transform="translate(394.78 92.39)" font-size="12" fill="#c69c6d" font-family="MyriadPro-Regular, Myriad Pro"><tspan letter-spacing="-0.01em">L</tspan><tspan x="5.5" y="0">e</tspan><tspan x="11.51" y="0" letter-spacing="0.01em">f</tspan><tspan x="15.14" y="0">t </tspan><tspan x="21.66" y="0" letter-spacing="0.02em">k</tspan><tspan x="27.49" y="0">idney within the </tspan><tspan x="1.57" y="14.4">pa</tspan><tspan x="14.18" y="14.4" letter-spacing="0em">r</tspan><tspan x="18.05" y="14.4">allelo</tspan><tspan x="44.93" y="14.4" letter-spacing="-0.01em">g</tspan><tspan x="51.56" y="14.4" letter-spacing="0em">r</tspan><tspan x="55.43" y="14.4">am pla</tspan><tspan x="89.21" y="14.4" letter-spacing="-0.01em">c</tspan><tspan x="94.51" y="14.4" letter-spacing="0em">ed </tspan><tspan x="39.32" y="28.8">higher</tspan></text>
    <text transform="translate(0 105.39)" font-size="12" fill="#c69c6d" font-family="MyriadPro-Regular, Myriad Pro"><tspan letter-spacing="0.01em">R</tspan><tspan x="6.58" y="0">ig</tspan><tspan x="16.09" y="0" letter-spacing="0em">h</tspan><tspan x="22.7" y="0" letter-spacing="0em">t </tspan><tspan x="29.22" y="0" letter-spacing="0.02em">k</tspan><tspan x="35.05" y="0">idney within the </tspan><tspan x="5.35" y="14.4">pa</tspan><tspan x="17.96" y="14.4" letter-spacing="0em">r</tspan><tspan x="21.83" y="14.4">allelo</tspan><tspan x="48.71" y="14.4" letter-spacing="-0.01em">g</tspan><tspan x="55.34" y="14.4" letter-spacing="0em">r</tspan><tspan x="59.21" y="14.4">am pla</tspan><tspan x="92.99" y="14.4" letter-spacing="-0.01em">c</tspan><tspan x="98.29" y="14.4" letter-spacing="0em">ed </tspan><tspan x="45.49" y="28.8">l</tspan><tspan x="48.32" y="28.8" letter-spacing="-0.01em">o</tspan><tspan x="54.83" y="28.8" letter-spacing="-0.01em">w</tspan><tspan x="63.54" y="28.8">er</tspan></text>
    <text transform="translate(175.15 13.39)" font-size="16" fill="#c69c6d" font-family="MyriadPro-Regular, Myriad Pro"><tspan letter-spacing="0.01em">M</tspan><tspan x="12.96" y="0">o</tspan><tspan x="21.74" y="0" letter-spacing="0em">rr</tspan><tspan x="32.34" y="0" letter-spacing="0em">is pa</tspan><tspan x="62.62" y="0" letter-spacing="-0.01em">r</tspan><tspan x="67.78" y="0" letter-spacing="0em">allelo</tspan><tspan x="103.61" y="0" letter-spacing="-0.01em">g</tspan><tspan x="112.46" y="0" letter-spacing="-0.01em">r</tspan><tspan x="117.61" y="0">am</tspan></text>
  </g>
</svg>
