<?xml version="1.0" encoding="utf-8"?>
<!-- Generator: Adobe Illustrator 21.0.0, SVG Export Plug-In . SVG Version: 6.00 Build 0)  -->
<svg version="1.1" xmlns="http://www.w3.org/2000/svg" xmlns:xlink="http://www.w3.org/1999/xlink" x="0px" y="0px"
	 viewBox="0 0 841.9 595.3" style="enable-background:new 0 0 841.9 595.3;" xml:space="preserve">
<style type="text/css">
	.st0{fill:#BE1E2D;}
	.st1{font-family:'CenturyGothic';}
	.st2{font-size:42px;}
	.st3{fill:none;stroke:#8B5E3C;stroke-width:4;stroke-linecap:round;stroke-miterlimit:10;}
	.st4{fill:none;stroke:#8B5E3C;stroke-width:3;stroke-miterlimit:10;}
	.st5{fill:none;stroke:#8B5E3C;stroke-width:2;stroke-miterlimit:10;}
	.st6{fill:#2E3192;}
	.st7{font-size:37.4792px;}
	.st8{fill:none;stroke:#000000;stroke-width:2;stroke-miterlimit:10;}
	.st9{font-size:39px;}
	.st10{font-size:26px;}
	.st11{font-size:21px;}
	.st12{fill:#ED1C24;}
	.st13{font-family:'MyriadPro-Regular';}
	.st14{font-size:54px;}
	.part-label{opacity:0;}
</style>
<g id="Layer_1">
</g>
<g id="Layer_2">
	<text transform="matrix(1 0 0 1 215.9118 78.5075)" class="st0 st1 st2">Parts of duodenum</text>
	<path class="st3" d="M569.6,207.7c0,0-105.7-70.2-154.7-45.2s-147,72.1-123,206.6s108.6,157.6,205.7,128.8s179.6-75.4,191.1-40.8"
		/>
	<path class="st4" d="M574.8,210.4c-4.4-2.6-9.9-2.6-14.4-0.2c-12.6,6.8-38.7,25.5-33.8,61.6c6.4,47.4,41.6,16.7,49.3-16.7
		C582.5,227.1,585.7,216.7,574.8,210.4z"/>
	<path class="st5" d="M571.2,222.8c-3.7-3-11.2-4.8-15.4-2.5c-9.5,5.3-25.2,20.5-21.7,46.3c4.7,34.8,30.5,12.2,36.2-12.2
		C574.7,235.6,577.1,227.6,571.2,222.8z"/>
	<path class="st3" d="M536.8,294.4c0,0-66.7-36.7-96-32.9c-29.3,3.8-93.9,59.2-54.8,117.2c29.8,44.2,58.6,33.6,89.9,30.8
		c59.6-5.5,146.1-76.4,187.4-61c41.3,15.4,76.4,35.6,81.2,60.1c4.8,24.5,5.2,32,5.2,32"/>
	<g>
		<g>
			<path class="st4" d="M749.5,442.7c-0.5-3.5-2.8-6.6-6-8.2c-9.1-4.4-30.2-11.6-47.5,5.8c-22.7,22.8,8.8,30.3,30,21.2
				C743.8,453.8,750.8,451.5,749.5,442.7z"/>
		</g>
		<path class="st5" d="M741.3,445.7c0-3.3-2.2-8.3-5.2-9.7c-6.9-3.2-21.8-5.9-34.1,6.5c-16.7,16.7,6.5,22.3,22,15.6
			C736,452.9,741.2,451,741.3,445.7z"/>
	</g>
	<g id="part-1" class="part-label">
		<text transform="matrix(1 0 0 1 501.7225 148.7943)" class="st6 st1 st7">Superior</text>
		<text transform="matrix(1 0 0 1 468.0785 148.7943)" class="st12 st13 st14">1</text>
		<animate id="part-1-fade" attributeName="opacity" dur="1.2s" begin="0s;part-4-fade.end+1s" values="0;1" fill="freeze"/>
	</g>
	<g id="part-2" class="part-label">
		<line class="st8" x1="320.1" y1="324.6" x2="239" y2="324.6"/>
		<text transform="matrix(1 0 0 1 11.6737 328.5023)" class="st6 st1 st7">Vertical</text>
		<text transform="matrix(1 0 0 1 243.0785 382.7943)" class="st12 st13 st14">2</text>
		<animate id="part-2-fade" attributeName="opacity" dur="1.2s" begin="part-1-fade.end+0.4s" values="0;1" fill="freeze"/>
	</g>
	<g id="part-3" class="part-label">
		<text transform="matrix(1 0 0 1 406.0524 559.7018)" class="st6 st1 st9">Horizontal</text>
		<line class="st8" x1="488.4" y1="488.6" x2="498.7" y2="526.1"/>
		<text transform="matrix(1 0 0 1 568.0973 518.7943)" class="st12 st13 st14">3</text>
		<animate id="part-3-fade" attributeName="opacity" dur="1.2s" begin="part-2-fade.end+0.4s" values="0;1" fill="freeze"/>
	</g>
	<g id="part-4" class="part-label">
		<text transform="matrix(1 0 0 1 634.11 337.152)" class="st6 st1 st7">Ascending</text>
		<line class="st8" x1="673.1" y1="377.6" x2="704.6" y2="350.9"/>
		<text transform="matrix(1 0 0 1 735.8341 382.7946)" class="st12 st13 st14">4</text>
		<animate id="part-4-fade" attributeName="opacity" dur="1.2s" begin="part-3-fade.end+0.4s" values="0;1" fill="freeze"/>
	</g>
	<text transform="matrix(1 0 0 1 446.1402 237.7015)" class="st6 st1 st10">2.5 cm</text>
	<text transform="matrix(1 0 0 1 298.2584 355.7015)" class="st6 st1 st11">7.5 cm</text>
	<text transform="matrix(1 0 0 1 443.3158 465.2769)" class="st6 st1 st10">10 cm</text>
	<text transform="matrix(1 0 0 1 617.7172 412.2769)" class="st6 st1 st10">2.5 cm</text>
</g>
<g id="Layer_3">
</g>
<g id="Layer_4">
	<line class="st8" x1="513.5" y1="210.7" x2="538.8" y2="157.2"/>
</g>
</svg>
