<svg xmlns="http://www.w3.org/2000/svg" viewBox="0 0 643.3 437.12">
  <title>portal vein formation</title>
  <g id="Layer_3" data-name="Layer 3">
    <path d="M400.67,362.33s-23.67-78-38.33-90S296,237,282,233c-2-.56.38,27.66,3.8,60.74" transform="translate(-3.64 -19.14)" style="fill: none;stroke: #00aeef;stroke-miterlimit: 10;stroke-width: 2px"/>
    <path d="M410.67,368.67c0-2.67-11.67-23-11.33-30.33s14,9,21.33,15.17S430,361,430,361" transform="translate(-3.64 -19.14)" style="fill: none;stroke: #00aeef;stroke-miterlimit: 10;stroke-width: 2px"/>
    <path d="M401.92,365.75q1.46,1.4,3,2.7a6.46,6.46,0,0,0,2.55,1.5,2.38,2.38,0,0,0,2.62-.94,2.23,2.23,0,0,0,0-2,4.43,4.43,0,0,0-1.35-1.56,17.86,17.86,0,0,0-4.66-2.34c-.94-.36-2.77-1.56-3.52-.35S401.22,365,401.92,365.75Z" transform="translate(-3.64 -19.14)" style="fill: none;stroke: #00aeef;stroke-miterlimit: 10;stroke-width: 2.077127695083618px"/>
    <path d="M428.58,357.19a5.53,5.53,0,0,1-.1-1.49,4.75,4.75,0,0,1,1.28-2.45,3.28,3.28,0,0,1,1.38-1.08,2.31,2.31,0,0,1,2.41.84,4.38,4.38,0,0,1,.84,2.53,4.86,4.86,0,0,1-.14,1.6,5.39,5.39,0,0,1-1,1.8,12.06,12.06,0,0,1-1.28,1.4c-.81.76-1.66,1.19-2.32.15A8.49,8.49,0,0,1,428.58,357.19Z" transform="translate(-3.64 -19.14)" style="fill: none;stroke: #00aeef;stroke-miterlimit: 10;stroke-width: 2.077127695083618px"/>
    <path d="M469.67,207.67s-27,25.33-53,28-72,7.67-72,7.67S352,251,366,261.74s23,40.93,34.67,58.59S433,352,433,352" transform="translate(-3.64 -19.14)" style="fill: none;stroke: #00aeef;stroke-miterlimit: 10;stroke-width: 2px"/>
    <path d="M465.33,190.39s-1.48,11.25-21.33,23.27c-23.67,14.33-56.82,17.66-88.24,15.67S306,233,278.89,203.47c-4-4.34-38.22-51-43.56-51.38" transform="translate(-3.64 -19.14)" style="fill: none;stroke: #00aeef;stroke-miterlimit: 10;stroke-width: 2px"/>
    <path d="M358.21,69.37a146.85,146.85,0,0,1-4.78,19.29,149.39,149.39,0,0,1-7.19,18.55,159.9,159.9,0,0,1-9.8,17.31,110.63,110.63,0,0,1-12,15.82l-1.73,1.8c-.57.61-1.21,1.14-1.82,1.72a49.16,49.16,0,0,1-3.83,3.24c-.64.54-1.36,1-2,1.46s-1.36,1-2.1,1.39c-1.45.86-2.91,1.71-4.37,2.45-5.85,3.08-11.7,6.16-17.61,9.12-11.84,5.87-23.78,11.57-36,16.73l-.09-.18c11.63-6.3,23.35-12.41,35.09-18.46,5.88-3,11.81-5.93,17.71-8.89,1.5-.72,2.9-1.52,4.33-2.29.73-.36,1.38-.85,2.08-1.27s1.39-.85,2-1.35c1.3-1,2.64-1.91,3.88-3,.62-.53,1.28-1,1.87-1.59l1.8-1.67c1.2-1.12,2.3-2.34,3.44-3.53s2.2-2.45,3.17-3.78a84.07,84.07,0,0,0,5.67-8.09c.86-1.4,1.67-2.84,2.48-4.27s1.55-2.91,2.25-4.4c1.48-2.94,2.79-6,4.1-9A304.67,304.67,0,0,0,358,69.33Z" transform="translate(-3.64 -19.14)" style="fill: #00aeef"/>
    <path d="M236.17,150.17s14.5-16.17,23.17-15.83,18-.83,19.33-4.17-.24-9.33-9.53-7.67-44,11.67-53.63,20.83-39.17.33-53.17,12.33-25.67,25.5-24.84,26.83,2,16.33,9.34,10.33,17.33-22.83,25.5-18.67,17.17,19.17,15.83,24.67,8,1.33,8,1.33S194,183.33,189,174.67,206.37,170,206.37,170c30.5,1.5,45.5,52,50.5,77.5,2,10.31,4.41,36.88,6.54,64.87" transform="translate(-3.64 -19.14)" style="fill: none;stroke: #00aeef;stroke-miterlimit: 10;stroke-width: 2px"/>
  </g>
  <g id="Layer_2" data-name="Layer 2">
    <path d="M231,214.33S203,181,178.33,193s-49.33,45.33-38,94,32,91.33,54.67,96,107.33.76,124.27-24.42" transform="translate(-3.64 -19.14)" style="fill: none;stroke: #c49a6c;stroke-miterlimit: 10"/>
    <path d="M297.64,337s35.36,31.38,38.7,47.69,16,24.65,36,15c17.45-8.43,1.72-22.77-16.58-55.46" transform="translate(-3.64 -19.14)" style="fill: none;stroke: #c49a6c;stroke-miterlimit: 10"/>
    <path d="M315.75,294a15.76,15.76,0,0,1,9.42,1.18c17.14,8.31,30.59,49,30.59,49" transform="translate(-3.64 -19.14)" style="fill: none;stroke: #c49a6c;stroke-miterlimit: 10"/>
    <line x1="309.86" y1="273.96" x2="307.36" y2="276.42" style="fill: none;stroke: #c49a6c;stroke-miterlimit: 10"/>
    <g style="opacity: 0.8">
      <g>
        <path d="M467.59,216.66c6.5,6,17,5,16,13s-10.5,14.5-19,18.5-8-9.5-18,0-12,17-21.5,18-17-1.5-24.5-3-12.5,1-15.5,3.23-13,5.77-15.5,2.77-13.74-1.5-13.74-1.5l-6.76,2.66s-12.5,5.84-14,3.84-6.5-5-6.5-5l-7,11.5s-1.74.44-10.5.09l-2-.09c-8.82-.42-10,3.82-11,6l-106-44.54s15.5-3,20-8,5.5-6.5,12.5-8.5,10-5,13.5-8,13-11.5,14.5-12.5,23.5,0,23.5,0,11-6,16.5-7.5,4-1,13.5,0,11.5-.39,23.5-1,15.51,2,26.26,6,18.74,4,30.24,8.5,9.5,1.5,20,5.5,7,1.5,20,0,12,2.5,23-2.5S461.09,210.66,467.59,216.66Z" transform="translate(-3.64 -19.14)" style="fill: #d2ead5"/>
        <path d="M311.09,280.75l4.75,13.4L298.1,286.7c1-2.22,2.17-6.46,11-6Z" transform="translate(-3.64 -19.14)" style="fill: #d2ead5"/>
        <path d="M298.1,286.7l17.74,7.45c-4.66.79-8.85,3.47-10.25,7.51-14.94,43.21-62,40-84.5,40s-28-24.5-32-43.5,3-56,3-56l62.15,80.65-3.15,4.35h6.5l-3.35-4.35,7.35-10.15,10.26-16.5s9.24-1.5,17.24-2.9,7-4.1,8.41-5.55A3.36,3.36,0,0,0,298.1,286.7Z" transform="translate(-3.64 -19.14)" style="fill: #d2ead5"/>
        <path d="M192.09,242.16l106,44.54a3.36,3.36,0,0,1-.6,1c-1.41,1.45-.41,4.15-8.41,5.55s-17.24,2.9-17.24,2.9l-10.26,16.5-7.35,10.15Z" transform="translate(-3.64 -19.14)" style="fill: #d2ead5"/>
        <polygon points="250.6 303.67 253.95 308.02 247.45 308.02 250.6 303.67" style="fill: #d2ead5"/>
      </g>
      <g>
        <path d="M192.09,242.16s-7,37-3,56,9.5,43.5,32,43.5,69.56,3.21,84.5-40c1.4-4,5.59-6.72,10.25-7.51" transform="translate(-3.64 -19.14)" style="fill: none;stroke: #c49a6c;stroke-miterlimit: 10"/>
        <line x1="307.45" y1="261.61" x2="312.2" y2="275.01" style="fill: none;stroke: #c49a6c;stroke-miterlimit: 10"/>
        <path d="M192.09,242.16s15.5-3,20-8,5.5-6.5,12.5-8.5,10-5,13.5-8,13-11.5,14.5-12.5,23.5,0,23.5,0,11-6,16.5-7.5,4-1,13.5,0,11.5-.39,23.5-1,15.51,2,26.26,6,18.74,4,30.24,8.5,9.5,1.5,20,5.5,7,1.5,20,0,12,2.5,23-2.5,12-3.5,18.5,2.5,17,5,16,13-10.5,14.5-19,18.5-8-9.5-18,0-12,17-21.5,18-17-1.5-24.5-3-12.5,1-15.5,3.23-13,5.77-15.5,2.77-13.74-1.5-13.74-1.5l-6.76,2.66s-12.5,5.84-14,3.84-6.5-5-6.5-5l-7,11.5s-1.74.44-10.5.09l-2-.09c-8.82-.42-10,3.82-11,6a3.36,3.36,0,0,1-.6,1c-1.41,1.45-.41,4.15-8.41,5.55s-17.24,2.9-17.24,2.9l-10.26,16.5-7.35,10.15-3.15,4.35h6.5" transform="translate(-3.64 -19.14)" style="fill: none;stroke: #c49a6c;stroke-miterlimit: 10"/>
      </g>
    </g>
  </g>
  <g id="Layer_4" data-name="Layer 4">
    <g>
      <path d="M270.24,403.48a12.54,12.54,0,0,0,4.09,1.29,44,44,0,0,0,10.28.94,19.18,19.18,0,0,0,9.71-2.94c1.76-1.18,3.32-3.11,2.77-5.06-.48-1.72-2.4-2.72-4.21-3.31A33,33,0,0,0,286,393c-4.48-.45-9.38-.21-13.4,1.87C269.29,396.61,265.7,400.82,270.24,403.48Z" transform="translate(-3.64 -19.14)" style="fill: none;stroke: #00aeef;stroke-miterlimit: 10;stroke-width: 2.077127695083618px"/>
      <path d="M285.36,293.94C290.13,340.09,297,395.7,297,395.7" transform="translate(-3.64 -19.14)" style="fill: none;stroke: #00aeef;stroke-miterlimit: 10;stroke-width: 2px"/>
      <path d="M263,312.57c3.14,41.26,5.72,85.63,5.72,85.63" transform="translate(-3.64 -19.14)" style="fill: none;stroke: #00aeef;stroke-miterlimit: 10;stroke-width: 2px"/>
    </g>
  </g>
  <g id="Layer_5" data-name="Layer 5">
    <line x1="242.7" y1="171.25" x2="115.36" y2="242.76" style="fill: none;stroke: #231f20;stroke-miterlimit: 10"/>
    <text transform="translate(3.7 249.01)" style="font-size: 20px;fill: #231f20;font-family: CenturyGothic, Century Gothic">Portal vein</text>
    <line x1="275.44" y1="324.77" x2="147.27" y2="406.36" style="fill: none;stroke: #231f20;stroke-miterlimit: 10"/>
    <text transform="translate(3.7 430.99)" style="font-size: 20px;fill: #231f20;font-family: CenturyGothic, Century Gothic">Superior mesenteric vein</text>
    <line x1="397.03" y1="333.43" x2="420.41" y2="401.86" style="fill: none;stroke: #231f20;stroke-miterlimit: 10"/>
    <text transform="translate(332.12 417.94)" style="font-size: 20px;fill: #231f20;font-family: CenturyGothic, Century Gothic">Superior rectal vein</text>
    <line x1="421.36" y1="329.4" x2="501.36" y2="373.7" style="fill: none;stroke: #231f20;stroke-miterlimit: 10"/>
    <text transform="translate(448.22 392.36)" style="font-size: 20px;fill: #231f20;font-family: CenturyGothic, Century Gothic">Left colic vein</text>
    <line x1="379.36" y1="276.42" x2="411.03" y2="272.8" style="fill: none;stroke: #231f20;stroke-miterlimit: 10"/>
    <text transform="translate(419.37 278.52)" style="font-size: 20px;fill: #231f20;font-family: CenturyGothic, Century Gothic">Inferior mesenteric vein</text>
    <line x1="382.7" y1="209.19" x2="427.79" y2="159.02" style="fill: none;stroke: #231f20;stroke-miterlimit: 10"/>
    <text transform="translate(424.82 152.6)" style="font-size: 20px;fill: #231f20;font-family: CenturyGothic, Century Gothic">Splenic vein</text>
    <line x1="344.1" y1="82.55" x2="419.37" y2="77.17" style="fill: none;stroke: #231f20;stroke-miterlimit: 10"/>
    <text transform="translate(427.79 81.1)" style="font-size: 20px;fill: #231f20;font-family: CenturyGothic, Century Gothic">Left gastric vein</text>
    <text transform="translate(0 96.06)" style="font-size: 20px;fill: #231f20;font-family: CenturyGothic, Century Gothic">Right portal vein</text>
    <text transform="translate(184.21 71.53)" style="font-size: 20px;fill: #231f20;font-family: CenturyGothic, Century Gothic">Left portal vein</text>
    <line x1="164.03" y1="143.86" x2="125.36" y2="104.61" style="fill: none;stroke: #231f20;stroke-miterlimit: 10"/>
    <line x1="231.7" y1="124.24" x2="238.03" y2="74.53" style="fill: none;stroke: #231f20;stroke-miterlimit: 10"/>
    <text transform="translate(118.21 30.06)" style="font-size: 35px;fill: #27aae1;font-family: CenturyGothic, Century Gothic">Portal vein formation</text>
  </g>
</svg>
