<?xml version="1.0" encoding="utf-8"?>
<!-- Generator: Adobe Illustrator 21.0.0, SVG Export Plug-In . SVG Version: 6.00 Build 0)  -->
<svg version="1.1" xmlns="http://www.w3.org/2000/svg" xmlns:xlink="http://www.w3.org/1999/xlink" x="0px" y="0px"
	 viewBox="0 0 841.9 595.3" style="enable-background:new 0 0 841.9 595.3;" xml:space="preserve">
<style type="text/css">
	.st0{fill:none;stroke:#ED1C24;stroke-miterlimit:10;}
	.st1{fill:none;stroke:#00AEEF;stroke-miterlimit:10;}
	.st2{fill:none;stroke:#00A651;stroke-miterlimit:10;}
	.st3{fill:none;stroke:#8B5E3C;stroke-width:2;stroke-linecap:round;stroke-miterlimit:10;}
	.st4{fill:none;stroke:#754C29;stroke-width:2;stroke-miterlimit:10;}
	.st5{fill:none;stroke:#C49A6C;stroke-miterlimit:10;}
	.st6{fill:none;stroke:#000000;stroke-width:2;stroke-linecap:round;stroke-miterlimit:10;}
	.st7{fill:none;stroke:#000000;stroke-width:2;stroke-linecap:round;stroke-miterlimit:10;stroke-dasharray:4.8714,4.8714;}
	.st8{fill:none;stroke:#00A651;stroke-width:2;stroke-linecap:round;stroke-miterlimit:10;}
	.st9{font-family:'CenturyGothic';}
	.st10{font-size:16px;}
	.st11{fill:none;stroke:#000000;stroke-width:2;stroke-linecap:round;stroke-miterlimit:10;stroke-dasharray:5;}
	.st12{fill:none;stroke:#FFF200;stroke-width:3;stroke-linecap:round;stroke-miterlimit:10;}
	.st13{fill:none;stroke:#000000;stroke-miterlimit:10;}
</style>
<g id="Layer_1">
	<path class="st0" d="M352.3,248.7l5,5.6c0,0-16-3.3-19.3-5.6"/>
	<path class="st0" d="M338,254.3c0,0,14.3,3.7,17.3,4.4c3,0.7-20.3,7.3-21.3,10"/>
	<path class="st0" d="M398,167c0,0,32.2-6.1,32.8,0c0.7,7.3-2.8,89.2-2.8,96.8s-1.7,21.2,21.3,17.2c16.8-2.9,29.3,1.3,35-4"/>
	<polyline class="st0" points="507.3,291.7 494.7,291.7 503.7,285 	"/>
	<path class="st0" d="M511.3,303.7c0,0-24.7-9-55-5.5c-27.5,3.1-26-6.5-27.7,27.9c-1.3,26-3.3,100-3.7,105.3c-0.3,5.3-30.7,0-30.7,0
		c-2-5,2.8-132,2.2-151.4c-0.5-18.4-18.7-13.2-30.2-12.9c-15,0.4-28.3,8.7-28.3,8.7"/>
	<path class="st1" d="M430.8,167c0,0,27.2-5.7,28.6,0c1.3,5.7,0,81.2,0,87.3c0,6.1,0.3,19.1,6.3,21.1s7.2,5.5,11.7,4.3"/>
	<path class="st1" d="M486.3,306c0,0-25.7,0.3-26,11c-0.3,10.7,1,37.7,0,51.3c-1,13.7-0.3,59-3.7,63.7c-3.3,4.7-31.7-0.7-31.7-0.7"
		/>
	<path class="st2" d="M491.5,299c0,0-6.2,22-5.2,33s-2,99.7-2,99.7"/>
	<path class="st2" d="M517,310.3c0,0-12.3,19.3-12.3,31.3s-8.7,90-8.7,90"/>
	<path class="st2" d="M366,268.7c0,0,14.4,18.7,11.8,73.3s-3.8,89.7-3.8,89.7"/>
	<path class="st2" d="M340.2,276c0,0,17,14.2,20.8,42.5s5,115.2,5,115.2"/>
	<path class="st1" d="M368.7,251.5c0,0,28,1.5,26.9-2.3"/>
	<path class="st1" d="M369.8,276c0,0,18.3-5,21.3-3.3c3,1.7,4.4,1.5,4.4,1.5"/>
	<path class="st0" d="M398,167v44c0,0,1.5,24.3-1.7,36.3c-2.7,10-20,6.3-20,6.3s-11.7,0.5-19-7.9"/>
	<path class="st3" d="M511.3,281.7c0,0-23.5,5.1-33.9-13.1c-10.4-18.2-21.7-55.2,8.9-60.7s70.7,14.8,85.2,40.7s38.5,95-5,116.7
		s-59.8-24.6-59.2-35.7"/>
	<path class="st4" d="M340.2,242c0,0,14.3,12.5,23.3,0s13.3-57-23.3-66s-86.2,37.8-81.7,98.2s34.5,87.6,61.5,75.7
		s40.9-30.5,32.2-58.2"/>
</g>
<g id="Layer_2">
	<path class="st5" d="M467.8,235.3c0,0,30.2-7.2,55.3,1.3c26,8.8,51,20.2,58.3,33.6"/>
	<g>
		<g>
			<path class="st6" d="M499.2,209.2c0,0,0.8,0.3,2.3,0.9"/>
			<path class="st7" d="M506,212.1c14.6,6.3,48.8,22.2,63.7,39.6"/>
			<path class="st6" d="M571.2,253.5c0.5,0.7,1,1.3,1.5,2"/>
		</g>
	</g>
	<path class="st8" d="M559.6,251.8c-0.2,3.9,10.8,40.9,10.8,54.2s2.4,55.6,2.4,55.6"/>
	<path class="st8" d="M489.7,234.7c0,0,31.4,93,39.2,108.3c7.8,15.3,13.5,27,13.5,27"/>
</g>
<g id="Layer_4">
	<text transform="matrix(1 0 0 1 552.667 170.4424)" class="st9 st10">12th rib</text>
	<text transform="matrix(1 0 0 1 592.667 215.1091)" class="st9 st10">Diaphragmatic area</text>
	<text transform="matrix(1 0 0 1 614.167 242.4082)"><tspan x="0" y="0" class="st9 st10">Area related to </tspan><tspan x="0" y="19.2" class="st9 st10">transversus muscle</tspan></text>
	<text transform="matrix(1 0 0 1 619.167 286.6426)"><tspan x="0" y="0" class="st9 st10">Area related to </tspan><tspan x="0" y="19.2" class="st9 st10">quadratus lumborum</tspan></text>
	<text transform="matrix(1 0 0 1 623.8337 341.7415)"><tspan x="0" y="0" class="st9 st10">Area related to </tspan><tspan x="0" y="19.2" class="st9 st10">psoas muscle</tspan></text>
</g>
<g id="Layer_5">
	<path class="st11" d="M347.7,178.6c-0.5-0.2-77.1,46.2-87.1,66"/>
	<path class="st11" d="M258.5,274.2c27.8-47.5,102.8-78.7,102.8-78.7"/>
	<line class="st11" x1="319.3" y1="178.6" x2="287.4" y2="195.4"/>
	<path class="st5" d="M260.6,274.2c20.8-30.2,73.6-41.7,84.9-40.8c11.3,0.8,2.2,12.2,2.2,12.2"/>
	<path class="st8" d="M346.9,247.5c0,0-20.4,86.3-21.6,97.8"/>
	<path class="st8" d="M293.5,250.5c0,0-6,29-6.3,54s0,38.5,0,38.5"/>
</g>
<g id="Layer_8">
	<text transform="matrix(1 0 0 1 182.167 164.4815)" class="st9 st10">11th rib</text>
	<text transform="matrix(1 0 0 1 182.167 188.9424)" class="st9 st10">12th rib</text>
	<text transform="matrix(1 0 0 1 61.167 234.6667)" class="st9 st10">Diaphragmatic area</text>
	<path d="M345.5,233.3c0,0-60.8,21.4-70.5,28.1"/>
	<text transform="matrix(1 0 0 1 92.1581 268.6669)" class="st9 st10">Subcostal nerve</text>
	<text transform="matrix(1 0 0 1 50.7499 327.3335)" class="st9 st10">Iliohypogastric nerve</text>
	<text transform="matrix(1 0 0 1 83.4166 382.0003)" class="st9 st10">Ilioinguinal nerve</text>
</g>
<g id="Layer_9">
	<path class="st12" d="M349,236.7c0,0-71.5,11.1-90.2,40.7"/>
	<path class="st12" d="M342,261.5c0,0-56.4,22.8-75.8,51.5"/>
	<path class="st12" d="M335,289.1c0,0-45,37.6-50.7,50.6"/>
	<path class="st12" d="M472,236.7c0,0,85.3,7,104.7,32"/>
	<path class="st12" d="M477.4,261.5c0,0,89.3,13.2,110.6,54.7"/>
	<path class="st12" d="M516,307.1c4,1.9,60.7,27,64,47.8"/>
</g>
<g id="Layer_3">
	<line class="st13" x1="519" y1="216" x2="553.3" y2="174.9"/>
	<line class="st13" x1="522.7" y1="229" x2="584.3" y2="213.3"/>
	<line class="st13" x1="576.3" y1="289.1" x2="614.2" y2="249.3"/>
	<line class="st13" x1="555.7" y1="316" x2="613.3" y2="298.1"/>
	<line class="st13" x1="528.9" y1="357.7" x2="617" y2="349.9"/>
</g>
<g id="Layer_7">
	<g id="Layer_6">
		<line class="st13" x1="305.9" y1="185.7" x2="244.2" y2="164.3"/>
		<line class="st13" x1="301" y1="218" x2="241.5" y2="187"/>
		<line class="st13" x1="322.5" y1="229.5" x2="224" y2="232.4"/>
		<line class="st13" x1="283" y1="257.3" x2="223" y2="263.8"/>
		<line class="st13" x1="300" y1="285" x2="223.5" y2="322"/>
		<line class="st13" x1="325.3" y1="299" x2="221.5" y2="377"/>
	</g>
</g>
</svg>
