<?xml version="1.0" encoding="utf-8"?>
<!-- Generator: Adobe Illustrator 19.2.1, SVG Export Plug-In . SVG Version: 6.00 Build 0)  -->
<svg version="1.1" xmlns="http://www.w3.org/2000/svg" xmlns:xlink="http://www.w3.org/1999/xlink" x="0px" y="0px"
	 viewBox="0 0 595.3 430" style="enable-background:new 0 0 595.3 430;" xml:space="preserve">
<style type="text/css">
	.st0{fill:none;stroke:#3C54A5;stroke-miterlimit:10;}
	.st1{fill:none;stroke:#2E3192;stroke-miterlimit:10;}
	.st2{fill:none;stroke:#8B5E3C;stroke-miterlimit:10;}
	.st3{fill:#DBEFE8;stroke:#00A79D;stroke-miterlimit:10;}
	.st4{fill:#FCFCFC;stroke:#D32027;stroke-miterlimit:10;}
	.st5{fill:none;stroke:#D32027;stroke-miterlimit:10;}
	.st6{fill:#F8E8DB;stroke:#C49A6C;stroke-miterlimit:10;}
	.st7{fill:#F4EDE9;stroke:#F7941E;stroke-miterlimit:10;}
	.st8{enable-background:new    ;}
	.st9{fill:#EC008C;}
	.st10{fill:none;stroke:#000000;stroke-miterlimit:10;}
	.st11{fill:#010101;}
	.st12{fill:#ED1C24;}
</style>
<g id="Layer_2_1_">
	<g id="Layer_1_2_">
		<g id="Layer_1_3_">
			<path class="st0" d="M317.6,277c-3-8.7-2-117.3-1.5-128.8s4.5-57.2,4.5-57.2s-7.5,7.2-15.5,9.2s-14.5-2.5-16-8.5s0,26,0,26
				s0.5,162-15,197c4.7,5.3,11.9,11,17.3,15.6c0.9-0.9,2.9-1.5,3.8-2.4"/>
			<path class="st1" d="M288.7,91.2c0,0,1.4-5.3,4.9-7.8s10.7-7,14.7-4.7s14.9,10,12.3,12.3"/>
			<path class="st2" d="M288.7,141.2c0,0-44.6,63-49.1,95.5s-4.5,132-10.5,150.5s-7.5,23-7.5,23"/>
			<path class="st2" d="M288.4,173.2c0,0-20.8,25-24.3,34.5s-16.5,35.5-17.5,85s-8.5,87.5-16,102.5"/>
			<path class="st2" d="M288.7,190.7c0,0-25.3,28-29.2,48c-3.9,20-6.4,91.5-11.4,111s-12.5,48.5-12.5,48.5"/>
			<path class="st2" d="M286.9,214.2c0,0-10.8,12.5-16.3,31s-9.9,85-15.5,102s-16,51-16,51"/>
			<path class="st2" d="M297.7,327.8c0,0-41.6,77.4-47.6,86.4"/>
			<path class="st2" d="M281.1,252.7c0,0-6.5,39.5-14,65.5s-23.5,80-23.5,80"/>
			<line class="st2" x1="274.1" y1="321.7" x2="243.6" y2="403.7"/>
			<line class="st2" x1="281.1" y1="327.8" x2="246.1" y2="406.7"/>
			<line class="st2" x1="286.9" y1="335.2" x2="248.1" y2="410.2"/>
			<path class="st3" d="M279.4,190.7c0,0,2.2,51,2.2,66.5s-7.9,80.5-11.1,97.5s18.1,59.5,18.1,59.5l-7.6,4c0,0-21.3-42.5-18.1-59.5
				c3.2-17,11.1-82,11.1-97.5s-6.6-67-6.6-67"/>
		</g>
		<g id="Layer_2_3_">
		</g>
		<g id="Layer_3_1_">
		</g>
		<g id="Layer_4_1_">
		</g>
		<path class="st4" d="M321,182.4c0,0-26.6,48.9-36.9,73.2s-10,79.6-10,79.6l0.5-0.3c1.6-0.6,3.5-0.3,4.2-1.9
			c0.6-1.4,3.5-58.2,9.8-70.3c6.8-13.3,33.2-65.9,33.2-65.9c1.8,31.2,3.5,62.6,2,67.9c-2.7,9.3-34.7,58-34.7,58l20.7,12.7
			c0,0,12.9-40.4,26.7-41.1c12.2-0.6,30.6,33.5,30.6,33.5l16.8-13.7c0,0-30.5-39.8-33.2-49.2c-2.7-9.3,4-145.7,7.5-153.5
			c8-17.5-3.7-20.8-11-22.1s-20.1,2.4-20.1,2.4s-8,17.5-8,45.5c0,9.8,0.9,27.1,1.9,45.9"/>
	</g>
	<g id="Layer_2_2_">
		<path class="st5" d="M327,91.2c0,0-3.1,9.7,6.8,16.3c6,4,10.9,3.5,18.9,1.4c5.4-1.4,8.1-8,8.1-8"/>
	</g>
</g>
<g id="Layer_1">
	<g id="Layer_2">
		<path class="st6" d="M304.7,109.8c0,0-15.7-9.3-22.2-12.8s-20.5-0.5-23,12.8s-8,74.2,2.5,82.7s70.5,16,85,12s16-6.8,32.5-30
			c10.5-14.8,15.6-29.6,22.3-32.1c3.3-1.2,3.8-2.7,5.5-1.7c4.4,2.5-16.4-32.5-20.4-31c-1.4,0.5-3.8,0.6-4.1,1.1
			c-1.1,1.7-0.4,1.2,0.8,2.5c0.7,0.8,1,1.7,0,3.1c-3.2,4.5-19.7,43.8-30.9,54.2c-9.5,8.8-28.5,15.8-48,9.8
			c-11.5-3.5-30.6-3.4-30.1-29.9s12.4-24.5,19.4-19s10.7,7.5,10.7,7.5s9.3-22,5.8-25S304.7,109.8,304.7,109.8z"/>
		<path class="st6" d="M384.3,115.2c2.6,8.4,22,25.3,22,25.3"/>
	</g>
	<g id="Layer_3">
		<path id="mesentery-path" class="st7" d="M394.2,129.2c0,0-44.3,66.8-64.8,81.6c-20.5,14.9-57.2,56.9-57.2,56.9h0.4c0.8,1.6,1.2,3.3,1.2,5.2v8.3
			c0,6.6-5.4,12-12,12h-8.3c-6.6,0-12-5.4-12-12v-8.3c0-6.6,5.4-12,12-12h8.3c1.9,0,3.7,0.5,5.3,1.3h-0.3c0,0,50-54.8,62.7-64.2
			c12.7-9.3,60.4-73.7,60.4-73.7"/>
		<circle r="4" fill="#00B050">
			<animateMotion dur="8s" repeatCount="indefinite" rotate="auto">
				<mpath xlink:href="#mesentery-path"/>
			</animateMotion>
		</circle>
	</g>
	<g id="Layer_4">
		<g class="st8">
			<path class="st9" d="M416.8,118.7v-12.9h2.7c1.9,0,3.3,0.2,4.2,0.5c1.3,0.4,2.2,1.2,2.9,2.3s1.1,2.4,1.1,3.9
				c0,1.3-0.3,2.4-0.8,3.4s-1.3,1.7-2.2,2.2s-2.1,0.7-3.8,0.7H416.8z M418,117.5h1.5c1.8,0,3-0.1,3.7-0.3c1-0.3,1.7-0.9,2.3-1.7
				c0.6-0.8,0.8-1.8,0.8-3c0-1.2-0.3-2.3-0.9-3.2s-1.4-1.5-2.5-1.8c-0.8-0.2-2.1-0.4-4-0.4H418V117.5z"/>
			<path class="st9" d="M429.8,109.2h1.2v4.5c0,1.1,0.1,1.8,0.2,2.3c0.2,0.6,0.5,1,1,1.4s1.1,0.5,1.8,0.5s1.3-0.2,1.7-0.5
				c0.5-0.3,0.8-0.8,1-1.3c0.1-0.4,0.2-1.2,0.2-2.3v-4.5h1.3v4.7c0,1.3-0.2,2.3-0.5,3s-0.8,1.2-1.4,1.6c-0.6,0.4-1.4,0.6-2.3,0.6
				s-1.7-0.2-2.3-0.6c-0.6-0.4-1.1-0.9-1.4-1.6c-0.3-0.7-0.5-1.7-0.5-3.1V109.2z"/>
			<path class="st9" d="M445.4,108.9c1.5,0,2.7,0.5,3.7,1.6c0.9,1,1.3,2.1,1.3,3.5c0,1.3-0.5,2.5-1.4,3.5c-0.9,1-2.1,1.5-3.6,1.5
				c-1.5,0-2.7-0.5-3.6-1.5c-0.9-1-1.4-2.2-1.4-3.5c0-1.3,0.4-2.5,1.3-3.4C442.7,109.5,443.9,108.9,445.4,108.9z M445.4,110.1
				c-1,0-1.9,0.4-2.6,1.1c-0.7,0.8-1.1,1.7-1.1,2.7c0,0.7,0.2,1.3,0.5,1.9c0.3,0.6,0.8,1.1,1.4,1.4c0.6,0.3,1.2,0.5,1.9,0.5
				c0.7,0,1.3-0.2,1.9-0.5c0.6-0.3,1-0.8,1.4-1.4s0.5-1.2,0.5-1.9c0-1.1-0.4-2-1.1-2.7S446.4,110.1,445.4,110.1z"/>
			<path class="st9" d="M462.2,105.5v13.3H461v-1.6c-0.5,0.6-1.1,1.1-1.7,1.4s-1.3,0.5-2.1,0.5c-1.4,0-2.5-0.5-3.5-1.5
				c-1-1-1.4-2.2-1.4-3.6c0-1.4,0.5-2.6,1.5-3.5s2.1-1.5,3.5-1.5c0.8,0,1.5,0.2,2.1,0.5s1.2,0.8,1.7,1.5v-5.4H462.2z M457.3,110.1
				c-0.7,0-1.3,0.2-1.9,0.5c-0.6,0.3-1,0.8-1.4,1.4c-0.3,0.6-0.5,1.3-0.5,1.9c0,0.7,0.2,1.3,0.5,1.9c0.3,0.6,0.8,1.1,1.4,1.4
				s1.2,0.5,1.9,0.5c0.7,0,1.3-0.2,1.9-0.5c0.6-0.3,1.1-0.8,1.4-1.4c0.3-0.6,0.5-1.2,0.5-2c0-1.1-0.4-2-1.1-2.8
				C459.3,110.5,458.4,110.1,457.3,110.1z"/>
			<path class="st9" d="M473.1,115.6l1,0.5c-0.3,0.7-0.7,1.2-1.2,1.6c-0.4,0.4-0.9,0.7-1.5,0.9c-0.6,0.2-1.2,0.3-1.9,0.3
				c-1.6,0-2.8-0.5-3.7-1.5s-1.3-2.2-1.3-3.5c0-1.2,0.4-2.3,1.1-3.2c0.9-1.2,2.2-1.8,3.8-1.8c1.6,0,2.9,0.6,3.9,1.9
				c0.7,0.9,1,2,1.1,3.3h-8.6c0,1.1,0.4,2,1.1,2.7s1.5,1.1,2.5,1.1c0.5,0,1-0.1,1.4-0.3c0.5-0.2,0.9-0.4,1.2-0.7
				C472.3,116.6,472.7,116.2,473.1,115.6z M473.1,113c-0.2-0.7-0.4-1.2-0.7-1.6c-0.3-0.4-0.7-0.7-1.2-0.9s-1.1-0.4-1.6-0.4
				c-0.9,0-1.7,0.3-2.4,0.9c-0.5,0.4-0.9,1.1-1.1,2H473.1z"/>
			<path class="st9" d="M476.7,109.2h1.2v1.7c0.5-0.7,1-1.1,1.6-1.5c0.6-0.3,1.2-0.5,2-0.5c0.7,0,1.3,0.2,1.9,0.5s1,0.9,1.2,1.5
				s0.4,1.6,0.4,2.9v4.9h-1.2v-4.6c0-1.1,0-1.8-0.1-2.2c-0.1-0.6-0.4-1.1-0.8-1.4s-0.9-0.5-1.6-0.5c-0.7,0-1.4,0.2-2,0.7
				s-1,1.1-1.2,1.8c-0.1,0.5-0.2,1.3-0.2,2.6v3.5h-1.2V109.2z"/>
			<path class="st9" d="M492.2,108.9c1.5,0,2.7,0.5,3.7,1.6c0.9,1,1.3,2.1,1.3,3.5c0,1.3-0.5,2.5-1.4,3.5c-0.9,1-2.1,1.5-3.6,1.5
				c-1.5,0-2.7-0.5-3.6-1.5c-0.9-1-1.4-2.2-1.4-3.5c0-1.3,0.4-2.5,1.3-3.4C489.5,109.5,490.7,108.9,492.2,108.9z M492.2,110.1
				c-1,0-1.9,0.4-2.6,1.1c-0.7,0.8-1.1,1.7-1.1,2.7c0,0.7,0.2,1.3,0.5,1.9c0.3,0.6,0.8,1.1,1.4,1.4c0.6,0.3,1.2,0.5,1.9,0.5
				c0.7,0,1.3-0.2,1.9-0.5c0.6-0.3,1-0.8,1.4-1.4s0.5-1.2,0.5-1.9c0-1.1-0.4-2-1.1-2.7S493.2,110.1,492.2,110.1z"/>
			<path class="st9" d="M499.3,109.2h1.2v11c0,0.8-0.1,1.4-0.4,1.8c-0.3,0.4-0.7,0.5-1.2,0.5c-0.4,0-0.9-0.1-1.4-0.3v-1.1
				c0.3,0.2,0.6,0.3,0.9,0.3c0.3,0,0.6-0.1,0.7-0.4c0.1-0.2,0.1-0.5,0.1-1.1V109.2z M499.9,105.2c0.3,0,0.5,0.1,0.7,0.3
				s0.3,0.4,0.3,0.7c0,0.3-0.1,0.5-0.3,0.7s-0.4,0.3-0.7,0.3s-0.5-0.1-0.7-0.3s-0.3-0.4-0.3-0.7c0-0.3,0.1-0.5,0.3-0.7
				S499.6,105.2,499.9,105.2z"/>
			<path class="st9" d="M511.2,115.6l1,0.5c-0.3,0.7-0.7,1.2-1.2,1.6c-0.4,0.4-0.9,0.7-1.5,0.9c-0.6,0.2-1.2,0.3-1.9,0.3
				c-1.6,0-2.8-0.5-3.7-1.5s-1.3-2.2-1.3-3.5c0-1.2,0.4-2.3,1.1-3.2c0.9-1.2,2.2-1.8,3.8-1.8c1.6,0,2.9,0.6,3.9,1.9
				c0.7,0.9,1,2,1.1,3.3h-8.6c0,1.1,0.4,2,1.1,2.7s1.5,1.1,2.5,1.1c0.5,0,1-0.1,1.4-0.3c0.5-0.2,0.9-0.4,1.2-0.7
				C510.5,116.6,510.8,116.2,511.2,115.6z M511.2,113c-0.2-0.7-0.4-1.2-0.7-1.6c-0.3-0.4-0.7-0.7-1.2-0.9s-1.1-0.4-1.6-0.4
				c-0.9,0-1.7,0.3-2.4,0.9c-0.5,0.4-0.9,1.1-1.1,2H511.2z"/>
			<path class="st9" d="M514.7,109.2h1.2v11c0,0.8-0.1,1.4-0.4,1.8c-0.3,0.4-0.7,0.5-1.2,0.5c-0.4,0-0.9-0.1-1.4-0.3v-1.1
				c0.3,0.2,0.6,0.3,0.9,0.3c0.3,0,0.6-0.1,0.7-0.4c0.1-0.2,0.1-0.5,0.1-1.1V109.2z M515.3,105.2c0.3,0,0.5,0.1,0.7,0.3
				s0.3,0.4,0.3,0.7c0,0.3-0.1,0.5-0.3,0.7s-0.4,0.3-0.7,0.3s-0.5-0.1-0.7-0.3s-0.3-0.4-0.3-0.7c0-0.3,0.1-0.5,0.3-0.7
				S515,105.2,515.3,105.2z"/>
			<path class="st9" d="M518.3,109.2h1.2v4.5c0,1.1,0.1,1.8,0.2,2.3c0.2,0.6,0.5,1,1,1.4s1.1,0.5,1.8,0.5s1.3-0.2,1.7-0.5
				c0.5-0.3,0.8-0.8,1-1.3c0.1-0.4,0.2-1.2,0.2-2.3v-4.5h1.3v4.7c0,1.3-0.2,2.3-0.5,3s-0.8,1.2-1.4,1.6c-0.6,0.4-1.4,0.6-2.3,0.6
				s-1.7-0.2-2.3-0.6c-0.6-0.4-1.1-0.9-1.4-1.6c-0.3-0.7-0.5-1.7-0.5-3.1V109.2z"/>
			<path class="st9" d="M529.4,109.2h1.2v1.7c0.5-0.7,1-1.1,1.6-1.5c0.6-0.3,1.2-0.5,2-0.5c0.7,0,1.3,0.2,1.9,0.5s1,0.9,1.2,1.5
				s0.4,1.6,0.4,2.9v4.9h-1.2v-4.6c0-1.1,0-1.8-0.1-2.2c-0.1-0.6-0.4-1.1-0.8-1.4s-0.9-0.5-1.6-0.5c-0.7,0-1.4,0.2-2,0.7
				s-1,1.1-1.2,1.8c-0.1,0.5-0.2,1.3-0.2,2.6v3.5h-1.2V109.2z"/>
			<path class="st9" d="M549.9,109.2v9.6h-1.2v-1.6c-0.5,0.6-1.1,1.1-1.7,1.4s-1.3,0.5-2.1,0.5c-1.4,0-2.5-0.5-3.5-1.5
				c-1-1-1.4-2.2-1.4-3.6c0-1.4,0.5-2.6,1.5-3.5s2.1-1.5,3.5-1.5c0.8,0,1.5,0.2,2.1,0.5s1.2,0.8,1.7,1.5v-1.8H549.9z M545,110.1
				c-0.7,0-1.3,0.2-1.9,0.5c-0.6,0.3-1,0.8-1.4,1.4c-0.3,0.6-0.5,1.3-0.5,1.9c0,0.7,0.2,1.3,0.5,1.9c0.3,0.6,0.8,1.1,1.4,1.4
				s1.2,0.5,1.9,0.5c0.7,0,1.3-0.2,1.9-0.5c0.6-0.3,1.1-0.8,1.4-1.4c0.3-0.6,0.5-1.2,0.5-2c0-1.1-0.4-2-1.1-2.8
				C547,110.5,546.1,110.1,545,110.1z"/>
			<path class="st9" d="M552.5,105.5h1.2v13.3h-1.2V105.5z"/>
		</g>
		<g class="st8">
			<path class="st9" d="M416.8,127.4h6.5v1.3H418v4.1h5.2v1.3H418v6.3h-1.3V127.4z"/>
			<path class="st9" d="M425.1,127.1h1.2v13.3h-1.2V127.1z"/>
			<path class="st9" d="M436.9,137.2l1,0.5c-0.3,0.7-0.7,1.2-1.2,1.6c-0.4,0.4-0.9,0.7-1.5,0.9c-0.6,0.2-1.2,0.3-1.9,0.3
				c-1.6,0-2.8-0.5-3.7-1.5s-1.3-2.2-1.3-3.5c0-1.2,0.4-2.3,1.1-3.2c0.9-1.2,2.2-1.8,3.8-1.8c1.6,0,2.9,0.6,3.9,1.9
				c0.7,0.9,1,2,1.1,3.3h-8.6c0,1.1,0.4,2,1.1,2.7s1.5,1.1,2.5,1.1c0.5,0,1-0.1,1.4-0.3c0.5-0.2,0.9-0.4,1.2-0.7
				C436.2,138.2,436.6,137.8,436.9,137.2z M436.9,134.6c-0.2-0.7-0.4-1.2-0.7-1.6c-0.3-0.4-0.7-0.7-1.2-0.9s-1.1-0.4-1.6-0.4
				c-0.9,0-1.7,0.3-2.4,0.9c-0.5,0.4-0.9,1.1-1.1,2H436.9z"/>
			<path class="st9" d="M439.5,130.8h1.5l2.5,3.5l2.5-3.5h1.5l-3.3,4.5l3.7,5h-1.5l-2.9-4l-2.9,4h-1.5l3.6-5L439.5,130.8z"/>
			<path class="st9" d="M449.1,130.8h1.2v4.5c0,1.1,0.1,1.8,0.2,2.3c0.2,0.6,0.5,1,1,1.4s1.1,0.5,1.8,0.5s1.3-0.2,1.7-0.5
				c0.5-0.3,0.8-0.8,1-1.3c0.1-0.4,0.2-1.2,0.2-2.3v-4.5h1.3v4.7c0,1.3-0.2,2.3-0.5,3s-0.8,1.2-1.4,1.6c-0.6,0.4-1.4,0.6-2.3,0.6
				s-1.7-0.2-2.3-0.6c-0.6-0.4-1.1-0.9-1.4-1.6c-0.3-0.7-0.5-1.7-0.5-3.1V130.8z"/>
			<path class="st9" d="M459.7,130.8h1.3v1.4c0.4-0.6,0.8-1,1.2-1.2c0.4-0.3,0.8-0.4,1.3-0.4c0.3,0,0.7,0.1,1.1,0.3l-0.6,1
				c-0.3-0.1-0.5-0.2-0.7-0.2c-0.4,0-0.8,0.2-1.2,0.5s-0.7,0.9-0.9,1.6c-0.2,0.5-0.2,1.6-0.2,3.3v3.2h-1.3V130.8z"/>
			<path class="st9" d="M473.6,137.2l1,0.5c-0.3,0.7-0.7,1.2-1.2,1.6c-0.4,0.4-0.9,0.7-1.5,0.9c-0.6,0.2-1.2,0.3-1.9,0.3
				c-1.6,0-2.8-0.5-3.7-1.5s-1.3-2.2-1.3-3.5c0-1.2,0.4-2.3,1.1-3.2c0.9-1.2,2.2-1.8,3.8-1.8c1.6,0,2.9,0.6,3.9,1.9
				c0.7,0.9,1,2,1.1,3.3h-8.6c0,1.1,0.4,2,1.1,2.7s1.5,1.1,2.5,1.1c0.5,0,1-0.1,1.4-0.3c0.5-0.2,0.9-0.4,1.2-0.7
				C472.9,138.2,473.3,137.8,473.6,137.2z M473.6,134.6c-0.2-0.7-0.4-1.2-0.7-1.6c-0.3-0.4-0.7-0.7-1.2-0.9s-1.1-0.4-1.6-0.4
				c-0.9,0-1.7,0.3-2.4,0.9c-0.5,0.4-0.9,1.1-1.1,2H473.6z"/>
		</g>
		<g>
			<g>
				<line class="st10" x1="389.8" y1="118.7" x2="404" y2="112.6"/>
				<g>
					<polygon points="410.5,109.8 403,117.5 403.5,112.8 399.8,110 					"/>
				</g>
			</g>
		</g>
		<g class="st8">
			<path class="st9" d="M111.1,259.3h1.3v12.9h-1.3V259.3z"/>
			<path class="st9" d="M114.9,259h1.2v13.3h-1.2V259z"/>
			<path class="st9" d="M126.8,269.1l1,0.5c-0.3,0.7-0.7,1.2-1.2,1.6s-0.9,0.7-1.5,0.9c-0.6,0.2-1.2,0.3-1.9,0.3
				c-1.6,0-2.8-0.5-3.7-1.5c-0.9-1-1.3-2.2-1.3-3.5c0-1.2,0.4-2.3,1.1-3.2c0.9-1.2,2.2-1.8,3.8-1.8c1.6,0,2.9,0.6,3.9,1.9
				c0.7,0.9,1,2,1.1,3.3h-8.6c0,1.1,0.4,2,1.1,2.7c0.7,0.7,1.5,1.1,2.5,1.1c0.5,0,1-0.1,1.4-0.3s0.9-0.4,1.2-0.7
				S126.4,269.7,126.8,269.1z M126.8,266.5c-0.2-0.7-0.4-1.2-0.7-1.6s-0.7-0.7-1.2-0.9c-0.5-0.2-1.1-0.4-1.6-0.4
				c-0.9,0-1.7,0.3-2.4,0.9c-0.5,0.4-0.9,1.1-1.1,2H126.8z"/>
			<path class="st9" d="M135,262.4c1.5,0,2.7,0.5,3.7,1.6c0.9,1,1.3,2.1,1.3,3.5c0,1.3-0.5,2.5-1.4,3.5c-0.9,1-2.1,1.5-3.6,1.5
				c-1.5,0-2.7-0.5-3.6-1.5s-1.4-2.2-1.4-3.5c0-1.3,0.4-2.5,1.3-3.4C132.2,263,133.5,262.4,135,262.4z M134.9,263.6
				c-1,0-1.9,0.4-2.6,1.1s-1.1,1.7-1.1,2.7c0,0.7,0.2,1.3,0.5,1.9c0.3,0.6,0.8,1.1,1.4,1.4c0.6,0.3,1.2,0.5,1.9,0.5s1.3-0.2,1.9-0.5
				c0.6-0.3,1-0.8,1.4-1.4c0.3-0.6,0.5-1.2,0.5-1.9c0-1.1-0.4-2-1.1-2.7C136.8,264,136,263.6,134.9,263.6z"/>
			<path class="st9" d="M151.5,264.7l-1,0.6c-0.8-1.1-2-1.7-3.5-1.7c-1.2,0-2.1,0.4-2.9,1.1s-1.2,1.7-1.2,2.7c0,0.7,0.2,1.4,0.5,2
				c0.4,0.6,0.8,1.1,1.5,1.4c0.6,0.3,1.3,0.5,2.1,0.5c1.4,0,2.6-0.6,3.4-1.7l1,0.6c-0.5,0.7-1.1,1.2-1.8,1.6
				c-0.8,0.4-1.6,0.6-2.6,0.6c-1.5,0-2.8-0.5-3.8-1.4s-1.5-2.1-1.5-3.5c0-0.9,0.2-1.8,0.7-2.6s1.1-1.4,1.9-1.9s1.7-0.7,2.7-0.7
				c0.6,0,1.2,0.1,1.8,0.3s1.1,0.4,1.5,0.8S151.2,264.2,151.5,264.7z"/>
			<path class="st9" d="M161.9,269.1l1,0.5c-0.3,0.7-0.7,1.2-1.2,1.6s-0.9,0.7-1.5,0.9c-0.6,0.2-1.2,0.3-1.9,0.3
				c-1.6,0-2.8-0.5-3.7-1.5c-0.9-1-1.3-2.2-1.3-3.5c0-1.2,0.4-2.3,1.1-3.2c0.9-1.2,2.2-1.8,3.8-1.8c1.6,0,2.9,0.6,3.9,1.9
				c0.7,0.9,1,2,1.1,3.3h-8.6c0,1.1,0.4,2,1.1,2.7c0.7,0.7,1.5,1.1,2.5,1.1c0.5,0,1-0.1,1.4-0.3s0.9-0.4,1.2-0.7
				S161.5,269.7,161.9,269.1z M161.9,266.5c-0.2-0.7-0.4-1.2-0.7-1.6s-0.7-0.7-1.2-0.9c-0.5-0.2-1.1-0.4-1.6-0.4
				c-0.9,0-1.7,0.3-2.4,0.9c-0.5,0.4-0.9,1.1-1.1,2H161.9z"/>
			<path class="st9" d="M174.8,264.7l-1,0.6c-0.8-1.1-2-1.7-3.5-1.7c-1.2,0-2.1,0.4-2.9,1.1s-1.2,1.7-1.2,2.7c0,0.7,0.2,1.4,0.5,2
				c0.4,0.6,0.8,1.1,1.5,1.4c0.6,0.3,1.3,0.5,2.1,0.5c1.4,0,2.6-0.6,3.4-1.7l1,0.6c-0.5,0.7-1.1,1.2-1.8,1.6
				c-0.8,0.4-1.6,0.6-2.6,0.6c-1.5,0-2.8-0.5-3.8-1.4s-1.5-2.1-1.5-3.5c0-0.9,0.2-1.8,0.7-2.6s1.1-1.4,1.9-1.9s1.7-0.7,2.7-0.7
				c0.6,0,1.2,0.1,1.8,0.3s1.1,0.4,1.5,0.8S174.5,264.2,174.8,264.7z"/>
			<path class="st9" d="M186.7,262.7v9.6h-1.2v-1.6c-0.5,0.6-1.1,1.1-1.7,1.4s-1.3,0.5-2.1,0.5c-1.4,0-2.5-0.5-3.5-1.5
				c-1-1-1.4-2.2-1.4-3.6c0-1.4,0.5-2.6,1.5-3.5s2.1-1.5,3.5-1.5c0.8,0,1.5,0.2,2.1,0.5s1.2,0.8,1.7,1.5v-1.8H186.7z M181.8,263.6
				c-0.7,0-1.3,0.2-1.9,0.5c-0.6,0.3-1,0.8-1.4,1.4c-0.3,0.6-0.5,1.3-0.5,1.9c0,0.7,0.2,1.3,0.5,1.9c0.3,0.6,0.8,1.1,1.4,1.4
				c0.6,0.3,1.2,0.5,1.9,0.5c0.7,0,1.3-0.2,1.9-0.5c0.6-0.3,1.1-0.8,1.4-1.4c0.3-0.6,0.5-1.2,0.5-2c0-1.1-0.4-2-1.1-2.8
				C183.8,264,182.9,263.6,181.8,263.6z"/>
			<path class="st9" d="M189.3,259h1.2v13.3h-1.2V259z"/>
		</g>
		<g class="st8">
			<path class="st9" d="M110.9,284.3h1.2v11c0,0.8-0.1,1.4-0.4,1.8c-0.3,0.4-0.7,0.5-1.2,0.5c-0.4,0-0.9-0.1-1.4-0.3v-1.1
				c0.3,0.2,0.6,0.3,0.9,0.3c0.3,0,0.6-0.1,0.7-0.4c0.1-0.2,0.1-0.5,0.1-1.1V284.3z M111.5,280.3c0.3,0,0.5,0.1,0.7,0.3
				s0.3,0.4,0.3,0.7c0,0.3-0.1,0.5-0.3,0.7s-0.4,0.3-0.7,0.3s-0.5-0.1-0.7-0.3s-0.3-0.4-0.3-0.7c0-0.3,0.1-0.5,0.3-0.7
				S111.2,280.3,111.5,280.3z"/>
			<path class="st9" d="M114.6,284.3h1.2v4.5c0,1.1,0.1,1.8,0.2,2.3c0.2,0.6,0.5,1,1,1.4c0.5,0.3,1.1,0.5,1.8,0.5s1.3-0.2,1.7-0.5
				c0.5-0.3,0.8-0.8,1-1.3c0.1-0.4,0.2-1.2,0.2-2.3v-4.5h1.3v4.7c0,1.3-0.2,2.3-0.5,3s-0.8,1.2-1.4,1.6c-0.6,0.4-1.4,0.6-2.3,0.6
				s-1.7-0.2-2.3-0.6c-0.6-0.4-1.1-0.9-1.4-1.6c-0.3-0.7-0.5-1.7-0.5-3.1V284.3z"/>
			<path class="st9" d="M125.7,284.3h1.2v1.7c0.5-0.7,1-1.1,1.6-1.5c0.6-0.3,1.2-0.5,2-0.5c0.7,0,1.3,0.2,1.9,0.5s1,0.9,1.2,1.5
				s0.4,1.6,0.4,2.9v4.9h-1.2v-4.6c0-1.1,0-1.8-0.1-2.2c-0.1-0.6-0.4-1.1-0.8-1.4s-0.9-0.5-1.6-0.5c-0.7,0-1.4,0.2-2,0.7
				s-1,1.1-1.2,1.8c-0.1,0.5-0.2,1.3-0.2,2.6v3.5h-1.2V284.3z"/>
			<path class="st9" d="M145.9,286.3l-1,0.6c-0.8-1.1-2-1.7-3.5-1.7c-1.2,0-2.1,0.4-2.9,1.1s-1.2,1.7-1.2,2.7c0,0.7,0.2,1.4,0.5,2
				c0.4,0.6,0.8,1.1,1.5,1.4c0.6,0.3,1.3,0.5,2.1,0.5c1.4,0,2.6-0.6,3.4-1.7l1,0.6c-0.5,0.7-1.1,1.2-1.8,1.6
				c-0.8,0.4-1.6,0.6-2.6,0.6c-1.5,0-2.8-0.5-3.8-1.4s-1.5-2.1-1.5-3.5c0-0.9,0.2-1.8,0.7-2.6s1.1-1.4,1.9-1.9s1.7-0.7,2.7-0.7
				c0.6,0,1.2,0.1,1.8,0.3s1.1,0.4,1.5,0.8S145.6,285.8,145.9,286.3z"/>
			<path class="st9" d="M149.3,280.7h1.2v3.6h2v1.1h-2v8.5h-1.2v-8.5h-1.7v-1.1h1.7V280.7z"/>
			<path class="st9" d="M154.8,280.3c0.3,0,0.5,0.1,0.7,0.3c0.2,0.2,0.3,0.4,0.3,0.7c0,0.3-0.1,0.5-0.3,0.7
				c-0.2,0.2-0.4,0.3-0.7,0.3c-0.3,0-0.5-0.1-0.7-0.3s-0.3-0.4-0.3-0.7c0-0.3,0.1-0.5,0.3-0.7S154.5,280.3,154.8,280.3z
				 M154.2,284.3h1.2v9.6h-1.2V284.3z"/>
			<path class="st9" d="M162.5,284c1.5,0,2.7,0.5,3.7,1.6c0.9,1,1.3,2.1,1.3,3.5c0,1.3-0.5,2.5-1.4,3.5c-0.9,1-2.1,1.5-3.6,1.5
				c-1.5,0-2.7-0.5-3.6-1.5s-1.4-2.2-1.4-3.5c0-1.3,0.4-2.5,1.3-3.4C159.8,284.6,161,284,162.5,284z M162.5,285.2
				c-1,0-1.9,0.4-2.6,1.1s-1.1,1.7-1.1,2.7c0,0.7,0.2,1.3,0.5,1.9c0.3,0.6,0.8,1.1,1.4,1.4c0.6,0.3,1.2,0.5,1.9,0.5s1.3-0.2,1.9-0.5
				c0.6-0.3,1-0.8,1.4-1.4c0.3-0.6,0.5-1.2,0.5-1.9c0-1.1-0.4-2-1.1-2.7C164.4,285.6,163.5,285.2,162.5,285.2z"/>
			<path class="st9" d="M169.8,284.3h1.2v1.7c0.5-0.7,1-1.1,1.6-1.5c0.6-0.3,1.2-0.5,2-0.5c0.7,0,1.3,0.2,1.9,0.5s1,0.9,1.2,1.5
				s0.4,1.6,0.4,2.9v4.9h-1.2v-4.6c0-1.1,0-1.8-0.1-2.2c-0.1-0.6-0.4-1.1-0.8-1.4s-0.9-0.5-1.6-0.5c-0.7,0-1.4,0.2-2,0.7
				s-1,1.1-1.2,1.8c-0.1,0.5-0.2,1.3-0.2,2.6v3.5h-1.2V284.3z"/>
		</g>
		<g>
			<g>
				<line class="st10" x1="241.3" y1="272.9" x2="200.1" y2="272.9"/>
				<g>
					<polygon points="193,272.9 202.9,268.9 200.6,272.9 202.9,277 					"/>
				</g>
			</g>
		</g>
		<line class="st10" x1="336.3" y1="224.7" x2="445.7" y2="213"/>
		<line class="st10" x1="301" y1="251.5" x2="448.3" y2="268.9"/>
		<line class="st10" x1="274.6" y1="205.1" x2="178.8" y2="206.1"/>
		<line class="st10" x1="239" y1="320.5" x2="193" y2="320.5"/>
		<line class="st10" x1="274" y1="178" x2="179.7" y2="156"/>
		<g class="st8">
			<path class="st11" d="M93.8,139v-1.3h7.1v1.3H98v11.7h-1.3V139H93.8z"/>
			<path class="st11" d="M102.5,137.4h1.2v5.4c0.5-0.7,1-1.1,1.6-1.5c0.6-0.3,1.2-0.5,1.9-0.5c0.7,0,1.3,0.2,1.9,0.5s1,0.9,1.2,1.5
				c0.3,0.6,0.4,1.6,0.4,2.9v4.9h-1.2v-4.6c0-1.1,0-1.8-0.1-2.2c-0.2-0.6-0.4-1.1-0.8-1.4s-0.9-0.5-1.6-0.5c-0.7,0-1.4,0.2-2,0.7
				s-1,1.1-1.2,1.8c-0.1,0.5-0.2,1.3-0.2,2.6v3.5h-1.2V137.4z"/>
			<path class="st11" d="M113.9,137.1c0.3,0,0.5,0.1,0.7,0.3c0.2,0.2,0.3,0.4,0.3,0.7c0,0.3-0.1,0.5-0.3,0.7
				c-0.2,0.2-0.4,0.3-0.7,0.3c-0.3,0-0.5-0.1-0.7-0.3s-0.3-0.4-0.3-0.7c0-0.3,0.1-0.5,0.3-0.7S113.6,137.1,113.9,137.1z
				 M113.3,141.1h1.2v9.6h-1.2V141.1z"/>
			<path class="st11" d="M116.6,141.1h1.3v1.4c0.4-0.6,0.8-1,1.2-1.2c0.4-0.3,0.8-0.4,1.3-0.4c0.3,0,0.7,0.1,1.1,0.3l-0.6,1
				c-0.3-0.1-0.5-0.2-0.7-0.2c-0.4,0-0.8,0.2-1.2,0.5s-0.7,0.9-0.9,1.6c-0.2,0.5-0.2,1.6-0.2,3.3v3.2h-1.3V141.1z"/>
			<path class="st11" d="M132,137.4v13.3h-1.2V149c-0.5,0.6-1.1,1.1-1.7,1.4s-1.3,0.5-2.1,0.5c-1.4,0-2.5-0.5-3.5-1.5
				c-1-1-1.4-2.2-1.4-3.6c0-1.4,0.5-2.6,1.5-3.5s2.1-1.5,3.5-1.5c0.8,0,1.5,0.2,2.1,0.5s1.2,0.8,1.7,1.5v-5.4H132z M127.1,142
				c-0.7,0-1.3,0.2-1.9,0.5c-0.6,0.3-1,0.8-1.4,1.4c-0.3,0.6-0.5,1.3-0.5,1.9c0,0.7,0.2,1.3,0.5,1.9c0.3,0.6,0.8,1.1,1.4,1.4
				c0.6,0.3,1.2,0.5,1.9,0.5c0.7,0,1.3-0.2,1.9-0.5c0.6-0.3,1.1-0.8,1.4-1.4c0.3-0.6,0.5-1.2,0.5-2c0-1.1-0.4-2-1.1-2.8
				C129.1,142.4,128.2,142,127.1,142z"/>
			<path class="st11" d="M139.8,141.1h1.2v1.8c0.5-0.7,1-1.2,1.7-1.5c0.6-0.3,1.3-0.5,2.1-0.5c1.4,0,2.5,0.5,3.5,1.5
				s1.4,2.2,1.4,3.5c0,1.4-0.5,2.6-1.4,3.6c-1,1-2.1,1.5-3.5,1.5c-0.8,0-1.5-0.2-2.1-0.5c-0.6-0.3-1.2-0.8-1.7-1.4v5.1h-1.2V141.1z
				 M144.8,142c-1.1,0-2,0.4-2.7,1.1c-0.7,0.7-1.1,1.7-1.1,2.8c0,0.7,0.2,1.4,0.5,2c0.3,0.6,0.8,1,1.4,1.4c0.6,0.3,1.2,0.5,1.9,0.5
				c0.7,0,1.3-0.2,1.9-0.5s1-0.8,1.4-1.4c0.3-0.6,0.5-1.3,0.5-1.9c0-0.7-0.2-1.3-0.5-1.9c-0.3-0.6-0.8-1.1-1.4-1.4
				S145.4,142,144.8,142z"/>
			<path class="st11" d="M161.6,141.1v9.6h-1.2V149c-0.5,0.6-1.1,1.1-1.7,1.4s-1.3,0.5-2.1,0.5c-1.4,0-2.5-0.5-3.5-1.5
				c-1-1-1.4-2.2-1.4-3.6c0-1.4,0.5-2.6,1.5-3.5s2.1-1.5,3.5-1.5c0.8,0,1.5,0.2,2.1,0.5s1.2,0.8,1.7,1.5v-1.8H161.6z M156.7,142
				c-0.7,0-1.3,0.2-1.9,0.5c-0.6,0.3-1,0.8-1.4,1.4c-0.3,0.6-0.5,1.3-0.5,1.9c0,0.7,0.2,1.3,0.5,1.9c0.3,0.6,0.8,1.1,1.4,1.4
				c0.6,0.3,1.2,0.5,1.9,0.5c0.7,0,1.3-0.2,1.9-0.5c0.6-0.3,1.1-0.8,1.4-1.4c0.3-0.6,0.5-1.2,0.5-2c0-1.1-0.4-2-1.1-2.8
				C158.7,142.4,157.8,142,156.7,142z"/>
			<path class="st11" d="M163.9,141.1h1.3v1.4c0.4-0.6,0.8-1,1.2-1.2c0.4-0.3,0.8-0.4,1.3-0.4c0.3,0,0.7,0.1,1.1,0.3l-0.6,1
				c-0.3-0.1-0.5-0.2-0.7-0.2c-0.4,0-0.8,0.2-1.2,0.5s-0.7,0.9-0.9,1.6c-0.2,0.5-0.2,1.6-0.2,3.3v3.2h-1.3V141.1z"/>
			<path class="st11" d="M170.9,137.5h1.2v3.6h2v1.1h-2v8.5h-1.2v-8.5h-1.7v-1.1h1.7V137.5z"/>
		</g>
		<g class="st8">
			<path class="st11" d="M82.1,172.2v-12.9h2.7c1.9,0,3.3,0.2,4.2,0.5c1.3,0.4,2.2,1.2,2.9,2.3s1.1,2.4,1.1,3.9
				c0,1.3-0.3,2.4-0.8,3.4s-1.3,1.7-2.2,2.2s-2.1,0.7-3.8,0.7H82.1z M83.4,171h1.5c1.8,0,3-0.1,3.7-0.3c1-0.3,1.7-0.9,2.3-1.7
				c0.6-0.8,0.8-1.8,0.8-3c0-1.2-0.3-2.3-0.9-3.2s-1.4-1.5-2.5-1.8c-0.8-0.2-2.1-0.4-4-0.4h-0.9V171z"/>
			<path class="st11" d="M95.2,162.7h1.2v4.5c0,1.1,0.1,1.8,0.2,2.3c0.2,0.6,0.5,1,1,1.4c0.5,0.3,1.1,0.5,1.8,0.5s1.3-0.2,1.7-0.5
				c0.5-0.3,0.8-0.8,1-1.3c0.1-0.4,0.2-1.2,0.2-2.3v-4.5h1.3v4.7c0,1.3-0.2,2.3-0.5,3s-0.8,1.2-1.4,1.6c-0.6,0.4-1.4,0.6-2.3,0.6
				s-1.7-0.2-2.3-0.6c-0.6-0.4-1.1-0.9-1.4-1.6c-0.3-0.7-0.5-1.7-0.5-3.1V162.7z"/>
			<path class="st11" d="M110.8,162.4c1.5,0,2.7,0.5,3.7,1.6c0.9,1,1.3,2.1,1.3,3.5c0,1.3-0.5,2.5-1.4,3.5c-0.9,1-2.1,1.5-3.6,1.5
				c-1.5,0-2.7-0.5-3.6-1.5s-1.4-2.2-1.4-3.5c0-1.3,0.4-2.5,1.3-3.4C108.1,163,109.3,162.4,110.8,162.4z M110.8,163.6
				c-1,0-1.9,0.4-2.6,1.1s-1.1,1.7-1.1,2.7c0,0.7,0.2,1.3,0.5,1.9c0.3,0.6,0.8,1.1,1.4,1.4c0.6,0.3,1.2,0.5,1.9,0.5s1.3-0.2,1.9-0.5
				c0.6-0.3,1-0.8,1.4-1.4c0.3-0.6,0.5-1.2,0.5-1.9c0-1.1-0.4-2-1.1-2.7C112.7,164,111.8,163.6,110.8,163.6z"/>
			<path class="st11" d="M127.6,159v13.3h-1.2v-1.6c-0.5,0.6-1.1,1.1-1.7,1.4s-1.3,0.5-2.1,0.5c-1.4,0-2.5-0.5-3.5-1.5
				c-1-1-1.4-2.2-1.4-3.6c0-1.4,0.5-2.6,1.5-3.5s2.1-1.5,3.5-1.5c0.8,0,1.5,0.2,2.1,0.5s1.2,0.8,1.7,1.5V159H127.6z M122.7,163.6
				c-0.7,0-1.3,0.2-1.9,0.5c-0.6,0.3-1,0.8-1.4,1.4c-0.3,0.6-0.5,1.3-0.5,1.9c0,0.7,0.2,1.3,0.5,1.9c0.3,0.6,0.8,1.1,1.4,1.4
				c0.6,0.3,1.2,0.5,1.9,0.5c0.7,0,1.3-0.2,1.9-0.5c0.6-0.3,1.1-0.8,1.4-1.4c0.3-0.6,0.5-1.2,0.5-2c0-1.1-0.4-2-1.1-2.8
				C124.7,164,123.8,163.6,122.7,163.6z"/>
			<path class="st11" d="M138.4,169.1l1,0.5c-0.3,0.7-0.7,1.2-1.2,1.6s-0.9,0.7-1.5,0.9c-0.6,0.2-1.2,0.3-1.9,0.3
				c-1.6,0-2.8-0.5-3.7-1.5c-0.9-1-1.3-2.2-1.3-3.5c0-1.2,0.4-2.3,1.1-3.2c0.9-1.2,2.2-1.8,3.8-1.8c1.6,0,2.9,0.6,3.9,1.9
				c0.7,0.9,1,2,1.1,3.3h-8.6c0,1.1,0.4,2,1.1,2.7c0.7,0.7,1.5,1.1,2.5,1.1c0.5,0,1-0.1,1.4-0.3s0.9-0.4,1.2-0.7
				S138.1,169.7,138.4,169.1z M138.4,166.5c-0.2-0.7-0.4-1.2-0.7-1.6s-0.7-0.7-1.2-0.9c-0.5-0.2-1.1-0.4-1.6-0.4
				c-0.9,0-1.7,0.3-2.4,0.9c-0.5,0.4-0.9,1.1-1.1,2H138.4z"/>
			<path class="st11" d="M142.1,162.7h1.2v1.7c0.5-0.7,1-1.1,1.6-1.5c0.6-0.3,1.2-0.5,2-0.5c0.7,0,1.3,0.2,1.9,0.5s1,0.9,1.2,1.5
				s0.4,1.6,0.4,2.9v4.9h-1.2v-4.6c0-1.1,0-1.8-0.1-2.2c-0.1-0.6-0.4-1.1-0.8-1.4s-0.9-0.5-1.6-0.5c-0.7,0-1.4,0.2-2,0.7
				s-1,1.1-1.2,1.8c-0.1,0.5-0.2,1.3-0.2,2.6v3.5h-1.2V162.7z"/>
			<path class="st11" d="M152.9,162.7h1.2v4.5c0,1.1,0.1,1.8,0.2,2.3c0.2,0.6,0.5,1,1,1.4c0.5,0.3,1.1,0.5,1.8,0.5s1.3-0.2,1.7-0.5
				c0.5-0.3,0.8-0.8,1-1.3c0.1-0.4,0.2-1.2,0.2-2.3v-4.5h1.3v4.7c0,1.3-0.2,2.3-0.5,3s-0.8,1.2-1.4,1.6c-0.6,0.4-1.4,0.6-2.3,0.6
				s-1.7-0.2-2.3-0.6c-0.6-0.4-1.1-0.9-1.4-1.6c-0.3-0.7-0.5-1.7-0.5-3.1V162.7z"/>
			<path class="st11" d="M164,162.7h1.2v1.7c0.4-0.6,0.9-1.1,1.3-1.3c0.6-0.4,1.3-0.6,2-0.6c0.5,0,0.9,0.1,1.3,0.3s0.8,0.4,1,0.7
				c0.3,0.3,0.5,0.7,0.7,1.3c0.4-0.8,0.9-1.3,1.5-1.7c0.6-0.4,1.3-0.6,2-0.6c0.7,0,1.2,0.2,1.7,0.5c0.5,0.3,0.9,0.8,1.1,1.4
				s0.4,1.5,0.4,2.7v5.2H177V167c0-1-0.1-1.7-0.2-2.1s-0.4-0.7-0.7-0.9c-0.4-0.2-0.8-0.4-1.3-0.4c-0.6,0-1.1,0.2-1.6,0.5
				s-0.9,0.8-1.1,1.4c-0.2,0.6-0.3,1.6-0.3,2.9v3.7h-1.2v-4.9c0-1.2-0.1-1.9-0.2-2.4c-0.1-0.4-0.4-0.7-0.8-1
				c-0.4-0.2-0.8-0.4-1.3-0.4c-0.6,0-1.1,0.2-1.6,0.5c-0.5,0.3-0.9,0.8-1.1,1.4s-0.4,1.5-0.4,2.7v4.1H164V162.7z"/>
		</g>
		<g class="st8">
			<path class="st11" d="M82.1,313.7h2.6c1.5,0,2.5,0.1,3,0.2c0.7,0.2,1.3,0.6,1.8,1.1c0.5,0.6,0.7,1.3,0.7,2.1
				c0,0.9-0.2,1.6-0.7,2.1s-1.1,0.9-1.9,1.1c-0.6,0.1-1.7,0.2-3.3,0.2h-0.9v6h-1.3V313.7z M83.4,314.9v4.4l2.2,0
				c0.9,0,1.5-0.1,1.9-0.2s0.7-0.4,1-0.8c0.2-0.4,0.4-0.8,0.4-1.2c0-0.4-0.1-0.8-0.4-1.2c-0.2-0.4-0.5-0.6-0.9-0.8
				c-0.4-0.2-1-0.2-1.9-0.2H83.4z"/>
			<path class="st11" d="M97.4,318.1l-0.8,0.8c-0.7-0.6-1.3-1-1.9-1c-0.4,0-0.7,0.1-1,0.4c-0.3,0.3-0.4,0.6-0.4,0.9
				c0,0.3,0.1,0.6,0.4,0.9c0.2,0.3,0.7,0.6,1.5,1c0.9,0.5,1.5,0.9,1.9,1.4c0.3,0.4,0.5,0.9,0.5,1.5c0,0.8-0.3,1.5-0.8,2
				s-1.2,0.8-2.1,0.8c-0.6,0-1.1-0.1-1.6-0.4c-0.5-0.2-0.9-0.6-1.2-1l0.8-0.9c0.6,0.7,1.3,1.1,2,1.1c0.5,0,0.9-0.2,1.3-0.5
				c0.3-0.3,0.5-0.7,0.5-1.1c0-0.4-0.1-0.7-0.3-0.9c-0.2-0.3-0.7-0.6-1.6-1c-0.9-0.4-1.5-0.9-1.8-1.3s-0.5-0.9-0.5-1.5
				c0-0.7,0.2-1.3,0.7-1.8c0.5-0.5,1.1-0.7,1.9-0.7C95.6,316.8,96.5,317.2,97.4,318.1z"/>
			<path class="st11" d="M104.1,316.8c1.5,0,2.7,0.5,3.7,1.6c0.9,1,1.3,2.1,1.3,3.5c0,1.3-0.5,2.5-1.4,3.5c-0.9,1-2.1,1.5-3.6,1.5
				c-1.5,0-2.7-0.5-3.6-1.5s-1.4-2.2-1.4-3.5c0-1.3,0.4-2.5,1.3-3.4C101.4,317.3,102.6,316.8,104.1,316.8z M104.1,318
				c-1,0-1.9,0.4-2.6,1.1s-1.1,1.7-1.1,2.7c0,0.7,0.2,1.3,0.5,1.9c0.3,0.6,0.8,1.1,1.4,1.4c0.6,0.3,1.2,0.5,1.9,0.5s1.3-0.2,1.9-0.5
				c0.6-0.3,1-0.8,1.4-1.4c0.3-0.6,0.5-1.2,0.5-1.9c0-1.1-0.4-2-1.1-2.7C106,318.4,105.1,318,104.1,318z"/>
			<path class="st11" d="M120.9,317v9.6h-1.2V325c-0.5,0.6-1.1,1.1-1.7,1.4s-1.3,0.5-2.1,0.5c-1.4,0-2.5-0.5-3.5-1.5
				c-1-1-1.4-2.2-1.4-3.6c0-1.4,0.5-2.6,1.5-3.5s2.1-1.5,3.5-1.5c0.8,0,1.5,0.2,2.1,0.5s1.2,0.8,1.7,1.5V317H120.9z M116,318
				c-0.7,0-1.3,0.2-1.9,0.5c-0.6,0.3-1,0.8-1.4,1.4c-0.3,0.6-0.5,1.3-0.5,1.9c0,0.7,0.2,1.3,0.5,1.9c0.3,0.6,0.8,1.1,1.4,1.4
				c0.6,0.3,1.2,0.5,1.9,0.5c0.7,0,1.3-0.2,1.9-0.5c0.6-0.3,1.1-0.8,1.4-1.4c0.3-0.6,0.5-1.2,0.5-2c0-1.1-0.4-2-1.1-2.8
				C117.9,318.3,117,318,116,318z"/>
			<path class="st11" d="M128.5,318.1l-0.8,0.8c-0.7-0.6-1.3-1-1.9-1c-0.4,0-0.7,0.1-1,0.4c-0.3,0.3-0.4,0.6-0.4,0.9
				c0,0.3,0.1,0.6,0.4,0.9c0.2,0.3,0.7,0.6,1.5,1c0.9,0.5,1.5,0.9,1.9,1.4c0.3,0.4,0.5,0.9,0.5,1.5c0,0.8-0.3,1.5-0.8,2
				s-1.2,0.8-2.1,0.8c-0.6,0-1.1-0.1-1.6-0.4c-0.5-0.2-0.9-0.6-1.2-1l0.8-0.9c0.6,0.7,1.3,1.1,2,1.1c0.5,0,0.9-0.2,1.3-0.5
				c0.3-0.3,0.5-0.7,0.5-1.1c0-0.4-0.1-0.7-0.3-0.9c-0.2-0.3-0.7-0.6-1.6-1c-0.9-0.4-1.5-0.9-1.8-1.3s-0.5-0.9-0.5-1.5
				c0-0.7,0.2-1.3,0.7-1.8c0.5-0.5,1.1-0.7,1.9-0.7C126.7,316.8,127.6,317.2,128.5,318.1z"/>
			<path class="st11" d="M135.6,317h1.2v1.7c0.4-0.6,0.9-1.1,1.3-1.3c0.6-0.4,1.3-0.6,2-0.6c0.5,0,0.9,0.1,1.3,0.3s0.8,0.4,1,0.7
				c0.3,0.3,0.5,0.7,0.7,1.3c0.4-0.8,0.9-1.3,1.5-1.7c0.6-0.4,1.3-0.6,2-0.6c0.7,0,1.2,0.2,1.7,0.5c0.5,0.3,0.9,0.8,1.1,1.4
				s0.4,1.5,0.4,2.7v5.2h-1.3v-5.2c0-1-0.1-1.7-0.2-2.1s-0.4-0.7-0.7-0.9c-0.4-0.2-0.8-0.4-1.3-0.4c-0.6,0-1.1,0.2-1.6,0.5
				s-0.9,0.8-1.1,1.4c-0.2,0.6-0.3,1.6-0.3,2.9v3.7h-1.2v-4.9c0-1.2-0.1-1.9-0.2-2.4c-0.1-0.4-0.4-0.7-0.8-1
				c-0.4-0.2-0.8-0.4-1.3-0.4c-0.6,0-1.1,0.2-1.6,0.5c-0.5,0.3-0.9,0.8-1.1,1.4s-0.4,1.5-0.4,2.7v4.1h-1.2V317z"/>
			<path class="st11" d="M162,317v9.6h-1.2V325c-0.5,0.6-1.1,1.1-1.7,1.4s-1.3,0.5-2.1,0.5c-1.4,0-2.5-0.5-3.5-1.5
				c-1-1-1.4-2.2-1.4-3.6c0-1.4,0.5-2.6,1.5-3.5s2.1-1.5,3.5-1.5c0.8,0,1.5,0.2,2.1,0.5s1.2,0.8,1.7,1.5V317H162z M157.1,318
				c-0.7,0-1.3,0.2-1.9,0.5c-0.6,0.3-1,0.8-1.4,1.4c-0.3,0.6-0.5,1.3-0.5,1.9c0,0.7,0.2,1.3,0.5,1.9c0.3,0.6,0.8,1.1,1.4,1.4
				c0.6,0.3,1.2,0.5,1.9,0.5c0.7,0,1.3-0.2,1.9-0.5c0.6-0.3,1.1-0.8,1.4-1.4c0.3-0.6,0.5-1.2,0.5-2c0-1.1-0.4-2-1.1-2.8
				C159.1,318.3,158.2,318,157.1,318z"/>
			<path class="st11" d="M164.7,317h1.2v11c0,0.8-0.1,1.4-0.4,1.8c-0.3,0.4-0.7,0.5-1.2,0.5c-0.4,0-0.9-0.1-1.4-0.3v-1.1
				c0.3,0.2,0.6,0.3,0.9,0.3c0.3,0,0.6-0.1,0.7-0.4c0.1-0.2,0.1-0.5,0.1-1.1V317z M165.3,313.1c0.3,0,0.5,0.1,0.7,0.3
				s0.3,0.4,0.3,0.7c0,0.3-0.1,0.5-0.3,0.7s-0.4,0.3-0.7,0.3s-0.5-0.1-0.7-0.3s-0.3-0.4-0.3-0.7c0-0.3,0.1-0.5,0.3-0.7
				S165,313.1,165.3,313.1z"/>
			<path class="st11" d="M173,316.8c1.5,0,2.7,0.5,3.7,1.6c0.9,1,1.3,2.1,1.3,3.5c0,1.3-0.5,2.5-1.4,3.5c-0.9,1-2.1,1.5-3.6,1.5
				c-1.5,0-2.7-0.5-3.6-1.5s-1.4-2.2-1.4-3.5c0-1.3,0.4-2.5,1.3-3.4C170.3,317.3,171.5,316.8,173,316.8z M173,318
				c-1,0-1.9,0.4-2.6,1.1s-1.1,1.7-1.1,2.7c0,0.7,0.2,1.3,0.5,1.9c0.3,0.6,0.8,1.1,1.4,1.4c0.6,0.3,1.2,0.5,1.9,0.5s1.3-0.2,1.9-0.5
				c0.6-0.3,1-0.8,1.4-1.4c0.3-0.6,0.5-1.2,0.5-1.9c0-1.1-0.4-2-1.1-2.7C174.9,318.4,174,318,173,318z"/>
			<path class="st11" d="M179.8,317h1.3v1.4c0.4-0.6,0.8-1,1.2-1.2c0.4-0.3,0.8-0.4,1.3-0.4c0.3,0,0.7,0.1,1.1,0.3l-0.6,1
				c-0.3-0.1-0.5-0.2-0.7-0.2c-0.4,0-0.8,0.2-1.2,0.5s-0.7,0.9-0.9,1.6c-0.2,0.5-0.2,1.6-0.2,3.3v3.2h-1.3V317z"/>
		</g>
		<g class="st8">
			<path class="st11" d="M464.9,253.3h1.3v12.9h-1.3V253.3z"/>
			<path class="st11" d="M469,256.6h1.2v1.7c0.5-0.7,1-1.1,1.6-1.5c0.6-0.3,1.2-0.5,2-0.5c0.7,0,1.3,0.2,1.9,0.5s1,0.9,1.2,1.5
				s0.4,1.6,0.4,2.9v4.9h-1.2v-4.6c0-1.1,0-1.8-0.1-2.2c-0.1-0.6-0.4-1.1-0.8-1.4s-0.9-0.5-1.6-0.5c-0.7,0-1.4,0.2-2,0.7
				s-1,1.1-1.2,1.8c-0.1,0.5-0.2,1.3-0.2,2.6v3.5H469V256.6z"/>
			<path class="st11" d="M483.9,252.9v1.2c-0.5-0.2-0.8-0.3-1.2-0.3c-0.2,0-0.4,0-0.6,0.1c-0.2,0.1-0.3,0.2-0.3,0.3
				c0,0.1-0.1,0.5-0.1,1l0,1.3h2v1.1h-2l0,8.5h-1.2v-8.5h-1.3v-1.1h1.3v-1.5c0-0.7,0.1-1.2,0.2-1.5s0.3-0.5,0.6-0.7
				c0.3-0.2,0.7-0.3,1.1-0.3C482.9,252.7,483.3,252.8,483.9,252.9z"/>
			<path class="st11" d="M493.7,263l1,0.5c-0.3,0.7-0.7,1.2-1.2,1.6c-0.4,0.4-0.9,0.7-1.5,0.9c-0.6,0.2-1.2,0.3-1.9,0.3
				c-1.6,0-2.8-0.5-3.7-1.5s-1.3-2.2-1.3-3.5c0-1.2,0.4-2.3,1.1-3.2c0.9-1.2,2.2-1.8,3.8-1.8c1.6,0,2.9,0.6,3.9,1.9
				c0.7,0.9,1,2,1.1,3.3h-8.6c0,1.1,0.4,2,1.1,2.7s1.5,1.1,2.5,1.1c0.5,0,1-0.1,1.4-0.3c0.5-0.2,0.9-0.4,1.2-0.7
				C492.9,264.1,493.3,263.7,493.7,263z M493.7,260.5c-0.2-0.7-0.4-1.2-0.7-1.6c-0.3-0.4-0.7-0.7-1.2-0.9s-1.1-0.4-1.6-0.4
				c-0.9,0-1.7,0.3-2.4,0.9c-0.5,0.4-0.9,1.1-1.1,2H493.7z"/>
			<path class="st11" d="M496.8,256.6h1.3v1.4c0.4-0.6,0.8-1,1.2-1.2c0.4-0.3,0.8-0.4,1.3-0.4c0.3,0,0.7,0.1,1.1,0.3l-0.6,1
				c-0.3-0.1-0.5-0.2-0.7-0.2c-0.4,0-0.8,0.2-1.2,0.5s-0.7,0.9-0.9,1.6c-0.2,0.5-0.2,1.6-0.2,3.3v3.2h-1.3V256.6z"/>
			<path class="st11" d="M503.2,252.7c0.3,0,0.5,0.1,0.7,0.3s0.3,0.4,0.3,0.7c0,0.3-0.1,0.5-0.3,0.7s-0.4,0.3-0.7,0.3
				c-0.3,0-0.5-0.1-0.7-0.3s-0.3-0.4-0.3-0.7c0-0.3,0.1-0.5,0.3-0.7S502.9,252.7,503.2,252.7z M502.5,256.6h1.2v9.6h-1.2V256.6z"/>
			<path class="st11" d="M510.9,256.4c1.5,0,2.7,0.5,3.7,1.6c0.9,1,1.3,2.1,1.3,3.5c0,1.3-0.5,2.5-1.4,3.5c-0.9,1-2.1,1.5-3.6,1.5
				c-1.5,0-2.7-0.5-3.6-1.5c-0.9-1-1.4-2.2-1.4-3.5c0-1.3,0.4-2.5,1.3-3.4C508.2,256.9,509.4,256.4,510.9,256.4z M510.9,257.6
				c-1,0-1.9,0.4-2.6,1.1c-0.7,0.8-1.1,1.7-1.1,2.7c0,0.7,0.2,1.3,0.5,1.9c0.3,0.6,0.8,1.1,1.4,1.4c0.6,0.3,1.2,0.5,1.9,0.5
				c0.7,0,1.3-0.2,1.9-0.5c0.6-0.3,1-0.8,1.4-1.4s0.5-1.2,0.5-1.9c0-1.1-0.4-2-1.1-2.7S511.9,257.6,510.9,257.6z"/>
			<path class="st11" d="M517.7,256.6h1.3v1.4c0.4-0.6,0.8-1,1.2-1.2c0.4-0.3,0.8-0.4,1.3-0.4c0.3,0,0.7,0.1,1.1,0.3l-0.6,1
				c-0.3-0.1-0.5-0.2-0.7-0.2c-0.4,0-0.8,0.2-1.2,0.5s-0.7,0.9-0.9,1.6c-0.2,0.5-0.2,1.6-0.2,3.3v3.2h-1.3V256.6z"/>
		</g>
		<g class="st8">
			<path class="st11" d="M464,278.2h1.3l3.2,7l3.2-7h1.3l-4.4,9.6h-0.2L464,278.2z"/>
			<path class="st11" d="M482.9,284.6l1,0.5c-0.3,0.7-0.7,1.2-1.2,1.6c-0.4,0.4-0.9,0.7-1.5,0.9c-0.6,0.2-1.2,0.3-1.9,0.3
				c-1.6,0-2.8-0.5-3.7-1.5s-1.3-2.2-1.3-3.5c0-1.2,0.4-2.3,1.1-3.2c0.9-1.2,2.2-1.8,3.8-1.8c1.6,0,2.9,0.6,3.9,1.9
				c0.7,0.9,1,2,1.1,3.3h-8.6c0,1.1,0.4,2,1.1,2.7s1.5,1.1,2.5,1.1c0.5,0,1-0.1,1.4-0.3c0.5-0.2,0.9-0.4,1.2-0.7
				C482.2,285.7,482.6,285.3,482.9,284.6z M482.9,282.1c-0.2-0.7-0.4-1.2-0.7-1.6c-0.3-0.4-0.7-0.7-1.2-0.9s-1.1-0.4-1.6-0.4
				c-0.9,0-1.7,0.3-2.4,0.9c-0.5,0.4-0.9,1.1-1.1,2H482.9z"/>
			<path class="st11" d="M486.6,278.2h1.2v1.7c0.5-0.7,1-1.1,1.6-1.5c0.6-0.3,1.2-0.5,2-0.5c0.7,0,1.3,0.2,1.9,0.5s1,0.9,1.2,1.5
				s0.4,1.6,0.4,2.9v4.9h-1.2v-4.6c0-1.1,0-1.8-0.1-2.2c-0.1-0.6-0.4-1.1-0.8-1.4s-0.9-0.5-1.6-0.5c-0.7,0-1.4,0.2-2,0.7
				s-1,1.1-1.2,1.8c-0.1,0.5-0.2,1.3-0.2,2.6v3.5h-1.2V278.2z"/>
			<path class="st11" d="M507.1,278.2v9.6h-1.2v-1.6c-0.5,0.6-1.1,1.1-1.7,1.4s-1.3,0.5-2.1,0.5c-1.4,0-2.5-0.5-3.5-1.5
				c-1-1-1.4-2.2-1.4-3.6c0-1.4,0.5-2.6,1.5-3.5s2.1-1.5,3.5-1.5c0.8,0,1.5,0.2,2.1,0.5s1.2,0.8,1.7,1.5v-1.8H507.1z M502.2,279.2
				c-0.7,0-1.3,0.2-1.9,0.5c-0.6,0.3-1,0.8-1.4,1.4c-0.3,0.6-0.5,1.3-0.5,1.9c0,0.7,0.2,1.3,0.5,1.9c0.3,0.6,0.8,1.1,1.4,1.4
				s1.2,0.5,1.9,0.5c0.7,0,1.3-0.2,1.9-0.5c0.6-0.3,1.1-0.8,1.4-1.4c0.3-0.6,0.5-1.2,0.5-2c0-1.1-0.4-2-1.1-2.8
				C504.1,279.6,503.2,279.2,502.2,279.2z"/>
			<path class="st11" d="M524.1,280.2l-1,0.6c-0.8-1.1-2-1.7-3.5-1.7c-1.2,0-2.1,0.4-2.9,1.1s-1.2,1.7-1.2,2.7c0,0.7,0.2,1.4,0.5,2
				c0.4,0.6,0.8,1.1,1.5,1.4c0.6,0.3,1.3,0.5,2.1,0.5c1.4,0,2.6-0.6,3.4-1.7l1,0.6c-0.5,0.7-1.1,1.2-1.8,1.6
				c-0.8,0.4-1.6,0.6-2.6,0.6c-1.5,0-2.8-0.5-3.8-1.4s-1.5-2.1-1.5-3.5c0-0.9,0.2-1.8,0.7-2.6s1.1-1.4,1.9-1.9s1.7-0.7,2.7-0.7
				c0.6,0,1.2,0.1,1.8,0.3s1.1,0.4,1.5,0.8S523.8,279.7,524.1,280.2z"/>
			<path class="st11" d="M536,278.2v9.6h-1.2v-1.6c-0.5,0.6-1.1,1.1-1.7,1.4s-1.3,0.5-2.1,0.5c-1.4,0-2.5-0.5-3.5-1.5
				c-1-1-1.4-2.2-1.4-3.6c0-1.4,0.5-2.6,1.5-3.5s2.1-1.5,3.5-1.5c0.8,0,1.5,0.2,2.1,0.5s1.2,0.8,1.7,1.5v-1.8H536z M531.1,279.2
				c-0.7,0-1.3,0.2-1.9,0.5c-0.6,0.3-1,0.8-1.4,1.4c-0.3,0.6-0.5,1.3-0.5,1.9c0,0.7,0.2,1.3,0.5,1.9c0.3,0.6,0.8,1.1,1.4,1.4
				s1.2,0.5,1.9,0.5c0.7,0,1.3-0.2,1.9-0.5c0.6-0.3,1.1-0.8,1.4-1.4c0.3-0.6,0.5-1.2,0.5-2c0-1.1-0.4-2-1.1-2.8
				C533.1,279.6,532.2,279.2,531.1,279.2z"/>
			<path class="st11" d="M537.9,278.2h1.3l3.2,7l3.2-7h1.3l-4.4,9.6h-0.2L537.9,278.2z"/>
			<path class="st11" d="M558.3,278.2v9.6h-1.2v-1.6c-0.5,0.6-1.1,1.1-1.7,1.4s-1.3,0.5-2.1,0.5c-1.4,0-2.5-0.5-3.5-1.5
				c-1-1-1.4-2.2-1.4-3.6c0-1.4,0.5-2.6,1.5-3.5s2.1-1.5,3.5-1.5c0.8,0,1.5,0.2,2.1,0.5s1.2,0.8,1.7,1.5v-1.8H558.3z M553.4,279.2
				c-0.7,0-1.3,0.2-1.9,0.5c-0.6,0.3-1,0.8-1.4,1.4c-0.3,0.6-0.5,1.3-0.5,1.9c0,0.7,0.2,1.3,0.5,1.9c0.3,0.6,0.8,1.1,1.4,1.4
				s1.2,0.5,1.9,0.5c0.7,0,1.3-0.2,1.9-0.5c0.6-0.3,1.1-0.8,1.4-1.4c0.3-0.6,0.5-1.2,0.5-2c0-1.1-0.4-2-1.1-2.8
				C555.3,279.6,554.4,279.2,553.4,279.2z"/>
		</g>
		<g class="st8">
			<path class="st11" d="M459,188.7l6,12.9h-1.4l-2-4.3h-5.6l-2,4.3h-1.4l6.1-12.9H459z M458.9,191.4l-2.2,4.7h4.4L458.9,191.4z"/>
			<path class="st11" d="M466.9,201.6v-13.3h1.2v5.3c0.5-0.6,1.1-1.1,1.7-1.4s1.3-0.5,2.1-0.5c1.4,0,2.5,0.5,3.5,1.5
				s1.4,2.2,1.4,3.6c0,1.4-0.5,2.6-1.4,3.5s-2.1,1.5-3.5,1.5c-0.8,0-1.5-0.2-2.1-0.5s-1.2-0.8-1.7-1.5v1.8H466.9z M471.9,200.7
				c0.7,0,1.3-0.2,1.9-0.5c0.6-0.3,1-0.8,1.4-1.4c0.3-0.6,0.5-1.3,0.5-1.9s-0.2-1.3-0.5-1.9s-0.8-1.1-1.4-1.4
				c-0.6-0.3-1.2-0.5-1.9-0.5c-0.7,0-1.3,0.2-1.9,0.5c-0.6,0.3-1.1,0.8-1.4,1.4s-0.5,1.2-0.5,2c0,1.1,0.4,2,1.1,2.8
				C469.9,200.3,470.8,200.7,471.9,200.7z"/>
			<path class="st11" d="M488.7,188.4v13.3h-1.2V200c-0.5,0.6-1.1,1.1-1.7,1.4s-1.3,0.5-2.1,0.5c-1.4,0-2.5-0.5-3.5-1.5
				c-1-1-1.4-2.2-1.4-3.6c0-1.4,0.5-2.6,1.5-3.5s2.1-1.5,3.5-1.5c0.8,0,1.5,0.2,2.1,0.5s1.2,0.8,1.7,1.5v-5.4H488.7z M483.8,193
				c-0.7,0-1.3,0.2-1.9,0.5c-0.6,0.3-1,0.8-1.4,1.4c-0.3,0.6-0.5,1.3-0.5,1.9c0,0.7,0.2,1.3,0.5,1.9c0.3,0.6,0.8,1.1,1.4,1.4
				s1.2,0.5,1.9,0.5c0.7,0,1.3-0.2,1.9-0.5c0.6-0.3,1.1-0.8,1.4-1.4c0.3-0.6,0.5-1.2,0.5-2c0-1.1-0.4-2-1.1-2.8
				C485.7,193.4,484.8,193,483.8,193z"/>
			<path class="st11" d="M496,191.8c1.5,0,2.7,0.5,3.7,1.6c0.9,1,1.3,2.1,1.3,3.5c0,1.3-0.5,2.5-1.4,3.5c-0.9,1-2.1,1.5-3.6,1.5
				c-1.5,0-2.7-0.5-3.6-1.5c-0.9-1-1.4-2.2-1.4-3.5c0-1.3,0.4-2.5,1.3-3.4C493.3,192.4,494.5,191.8,496,191.8z M496,193
				c-1,0-1.9,0.4-2.6,1.1c-0.7,0.8-1.1,1.7-1.1,2.7c0,0.7,0.2,1.3,0.5,1.9c0.3,0.6,0.8,1.1,1.4,1.4c0.6,0.3,1.2,0.5,1.9,0.5
				c0.7,0,1.3-0.2,1.9-0.5c0.6-0.3,1-0.8,1.4-1.4s0.5-1.2,0.5-1.9c0-1.1-0.4-2-1.1-2.7S497,193,496,193z"/>
			<path class="st11" d="M503.3,192.1h1.2v1.7c0.4-0.6,0.9-1.1,1.3-1.3c0.6-0.4,1.3-0.6,2-0.6c0.5,0,0.9,0.1,1.3,0.3
				c0.4,0.2,0.8,0.4,1,0.7c0.3,0.3,0.5,0.7,0.7,1.3c0.4-0.8,0.9-1.3,1.5-1.7c0.6-0.4,1.3-0.6,2-0.6c0.7,0,1.2,0.2,1.7,0.5
				s0.9,0.8,1.1,1.4c0.2,0.6,0.4,1.5,0.4,2.7v5.2h-1.3v-5.2c0-1-0.1-1.7-0.2-2.1c-0.1-0.4-0.4-0.7-0.7-0.9c-0.4-0.2-0.8-0.4-1.3-0.4
				c-0.6,0-1.1,0.2-1.6,0.5c-0.5,0.4-0.9,0.8-1.1,1.4c-0.2,0.6-0.3,1.6-0.3,2.9v3.7h-1.2v-4.9c0-1.2-0.1-1.9-0.2-2.4
				c-0.1-0.4-0.4-0.7-0.8-1c-0.4-0.2-0.8-0.4-1.3-0.4c-0.6,0-1.1,0.2-1.6,0.5c-0.5,0.3-0.9,0.8-1.1,1.4s-0.4,1.5-0.4,2.7v4.1h-1.2
				V192.1z"/>
			<path class="st11" d="M520.6,188.1c0.3,0,0.5,0.1,0.7,0.3s0.3,0.4,0.3,0.7c0,0.3-0.1,0.5-0.3,0.7s-0.4,0.3-0.7,0.3
				c-0.3,0-0.5-0.1-0.7-0.3s-0.3-0.4-0.3-0.7c0-0.3,0.1-0.5,0.3-0.7S520.3,188.1,520.6,188.1z M520,192.1h1.2v9.6H520V192.1z"/>
			<path class="st11" d="M523.8,192.1h1.2v1.7c0.5-0.7,1-1.1,1.6-1.5c0.6-0.3,1.2-0.5,2-0.5c0.7,0,1.3,0.2,1.9,0.5s1,0.9,1.2,1.5
				s0.4,1.6,0.4,2.9v4.9h-1.2v-4.6c0-1.1,0-1.8-0.1-2.2c-0.1-0.6-0.4-1.1-0.8-1.4s-0.9-0.5-1.6-0.5c-0.7,0-1.4,0.2-2,0.7
				s-1,1.1-1.2,1.8c-0.1,0.5-0.2,1.3-0.2,2.6v3.5h-1.2V192.1z"/>
			<path class="st11" d="M544.3,192.1v9.6H543V200c-0.5,0.6-1.1,1.1-1.7,1.4s-1.3,0.5-2.1,0.5c-1.4,0-2.5-0.5-3.5-1.5
				c-1-1-1.4-2.2-1.4-3.6c0-1.4,0.5-2.6,1.5-3.5s2.1-1.5,3.5-1.5c0.8,0,1.5,0.2,2.1,0.5s1.2,0.8,1.7,1.5v-1.8H544.3z M539.3,193
				c-0.7,0-1.3,0.2-1.9,0.5c-0.6,0.3-1,0.8-1.4,1.4c-0.3,0.6-0.5,1.3-0.5,1.9c0,0.7,0.2,1.3,0.5,1.9c0.3,0.6,0.8,1.1,1.4,1.4
				s1.2,0.5,1.9,0.5c0.7,0,1.3-0.2,1.9-0.5c0.6-0.3,1.1-0.8,1.4-1.4c0.3-0.6,0.5-1.2,0.5-2c0-1.1-0.4-2-1.1-2.8
				C541.3,193.4,540.4,193,539.3,193z"/>
			<path class="st11" d="M546.8,188.4h1.2v13.3h-1.2V188.4z"/>
		</g>
		<g class="st8">
			<path class="st11" d="M463.1,213.7v9.6h-1.2v-1.6c-0.5,0.6-1.1,1.1-1.7,1.4s-1.3,0.5-2.1,0.5c-1.4,0-2.5-0.5-3.5-1.5
				c-1-1-1.4-2.2-1.4-3.6c0-1.4,0.5-2.6,1.5-3.5s2.1-1.5,3.5-1.5c0.8,0,1.5,0.2,2.1,0.5s1.2,0.8,1.7,1.5v-1.8H463.1z M458.2,214.6
				c-0.7,0-1.3,0.2-1.9,0.5c-0.6,0.3-1,0.8-1.4,1.4c-0.3,0.6-0.5,1.3-0.5,1.9c0,0.7,0.2,1.3,0.5,1.9c0.3,0.6,0.8,1.1,1.4,1.4
				s1.2,0.5,1.9,0.5c0.7,0,1.3-0.2,1.9-0.5c0.6-0.3,1.1-0.8,1.4-1.4c0.3-0.6,0.5-1.2,0.5-2c0-1.1-0.4-2-1.1-2.8
				C460.1,215,459.2,214.6,458.2,214.6z"/>
			<path class="st11" d="M470.4,213.4c1.5,0,2.7,0.5,3.7,1.6c0.9,1,1.3,2.1,1.3,3.5c0,1.3-0.5,2.5-1.4,3.5c-0.9,1-2.1,1.5-3.6,1.5
				c-1.5,0-2.7-0.5-3.6-1.5c-0.9-1-1.4-2.2-1.4-3.5c0-1.3,0.4-2.5,1.3-3.4C467.7,214,468.9,213.4,470.4,213.4z M470.4,214.6
				c-1,0-1.9,0.4-2.6,1.1c-0.7,0.8-1.1,1.7-1.1,2.7c0,0.7,0.2,1.3,0.5,1.9c0.3,0.6,0.8,1.1,1.4,1.4c0.6,0.3,1.2,0.5,1.9,0.5
				c0.7,0,1.3-0.2,1.9-0.5c0.6-0.3,1-0.8,1.4-1.4s0.5-1.2,0.5-1.9c0-1.1-0.4-2-1.1-2.7C472.3,215,471.4,214.6,470.4,214.6z"/>
			<path class="st11" d="M477.2,213.7h1.3v1.4c0.4-0.6,0.8-1,1.2-1.2c0.4-0.3,0.8-0.4,1.3-0.4c0.3,0,0.7,0.1,1.1,0.3l-0.6,1
				c-0.3-0.1-0.5-0.2-0.7-0.2c-0.4,0-0.8,0.2-1.2,0.5s-0.7,0.9-0.9,1.6c-0.2,0.5-0.2,1.6-0.2,3.3v3.2h-1.3V213.7z"/>
			<path class="st11" d="M484.1,210.1h1.2v3.6h2v1.1h-2v8.5h-1.2v-8.5h-1.7v-1.1h1.7V210.1z"/>
			<path class="st11" d="M498.7,213.7v9.6h-1.2v-1.6c-0.5,0.6-1.1,1.1-1.7,1.4s-1.3,0.5-2.1,0.5c-1.4,0-2.5-0.5-3.5-1.5
				c-1-1-1.4-2.2-1.4-3.6c0-1.4,0.5-2.6,1.5-3.5s2.1-1.5,3.5-1.5c0.8,0,1.5,0.2,2.1,0.5s1.2,0.8,1.7,1.5v-1.8H498.7z M493.8,214.6
				c-0.7,0-1.3,0.2-1.9,0.5c-0.6,0.3-1,0.8-1.4,1.4c-0.3,0.6-0.5,1.3-0.5,1.9c0,0.7,0.2,1.3,0.5,1.9c0.3,0.6,0.8,1.1,1.4,1.4
				s1.2,0.5,1.9,0.5c0.7,0,1.3-0.2,1.9-0.5c0.6-0.3,1.1-0.8,1.4-1.4c0.3-0.6,0.5-1.2,0.5-2c0-1.1-0.4-2-1.1-2.8
				C495.7,215,494.8,214.6,493.8,214.6z"/>
		</g>
		<g class="st8">
			<path class="st12" d="M36.8,44.8h4.1c2.4,0,4,0.1,4.8,0.3c1.2,0.3,2.2,0.9,2.9,1.8s1.1,2.1,1.1,3.4c0,1.4-0.4,2.5-1.1,3.4
				s-1.8,1.5-3,1.8c-0.9,0.2-2.7,0.3-5.3,0.3h-1.5v9.7h-2.1V44.8z M38.8,46.8v7.1l3.5,0c1.4,0,2.5-0.1,3.1-0.4
				c0.7-0.3,1.2-0.7,1.6-1.3s0.6-1.2,0.6-1.9c0-0.7-0.2-1.3-0.6-1.9s-0.9-1-1.5-1.2c-0.6-0.2-1.6-0.4-3-0.4H38.8z"/>
			<path class="st12" d="M60.9,49.8c2.4,0,4.3,0.9,5.9,2.6c1.4,1.6,2.1,3.4,2.1,5.6c0,2.2-0.7,4-2.2,5.6S63.3,66,60.9,66
				c-2.4,0-4.3-0.8-5.8-2.4c-1.5-1.6-2.2-3.5-2.2-5.6c0-2.1,0.7-4,2.1-5.6C56.5,50.7,58.5,49.8,60.9,49.8z M60.9,51.8
				c-1.6,0-3.1,0.6-4.2,1.8s-1.8,2.7-1.8,4.4c0,1.1,0.3,2.2,0.8,3.1s1.3,1.7,2.2,2.2c0.9,0.5,1.9,0.8,3,0.8c1.1,0,2.1-0.3,3-0.8
				c0.9-0.5,1.6-1.3,2.2-2.2s0.8-2,0.8-3.1c0-1.7-0.6-3.2-1.8-4.4S62.5,51.8,60.9,51.8z"/>
			<path class="st12" d="M80.3,51.9l-1.3,1.3c-1.1-1-2.1-1.5-3.1-1.5c-0.6,0-1.2,0.2-1.7,0.6s-0.7,0.9-0.7,1.5c0,0.5,0.2,1,0.6,1.4
				c0.4,0.5,1.2,1,2.4,1.6c1.5,0.8,2.5,1.5,3,2.2c0.5,0.7,0.8,1.5,0.8,2.4c0,1.3-0.4,2.3-1.3,3.2c-0.9,0.9-2,1.3-3.3,1.3
				c-0.9,0-1.7-0.2-2.5-0.6c-0.8-0.4-1.5-0.9-2-1.6l1.2-1.4c1,1.1,2.1,1.7,3.2,1.7c0.8,0,1.5-0.3,2-0.8c0.6-0.5,0.8-1.1,0.8-1.8
				c0-0.6-0.2-1.1-0.6-1.5c-0.4-0.4-1.2-1-2.5-1.6c-1.4-0.7-2.3-1.4-2.8-2.1c-0.5-0.7-0.8-1.5-0.8-2.4c0-1.2,0.4-2.1,1.2-2.9
				c0.8-0.8,1.8-1.2,3-1.2C77.5,49.8,78.9,50.5,80.3,51.9z"/>
			<path class="st12" d="M85.6,44.5h2v5.7h3.1v1.7h-3.1v13.7h-2V51.9h-2.7v-1.7h2.7V44.5z"/>
			<path class="st12" d="M106.7,60.5l1.7,0.9c-0.5,1.1-1.2,1.9-1.9,2.6c-0.7,0.7-1.5,1.2-2.4,1.5c-0.9,0.3-1.9,0.5-3,0.5
				c-2.5,0-4.5-0.8-5.9-2.5S92.9,60,92.9,58c0-2,0.6-3.7,1.8-5.2c1.5-1.9,3.6-2.9,6.1-2.9c2.6,0,4.7,1,6.3,3
				c1.1,1.4,1.7,3.2,1.7,5.3H95c0,1.8,0.6,3.3,1.7,4.4s2.5,1.7,4.1,1.7c0.8,0,1.5-0.1,2.3-0.4c0.7-0.3,1.4-0.6,1.9-1.1
				C105.5,62.3,106.1,61.5,106.7,60.5z M106.7,56.4c-0.3-1.1-0.6-1.9-1.2-2.5c-0.5-0.6-1.2-1.1-2-1.5c-0.8-0.4-1.7-0.6-2.6-0.6
				c-1.5,0-2.8,0.5-3.9,1.5c-0.8,0.7-1.4,1.8-1.8,3.2H106.7z"/>
			<path class="st12" d="M111.8,50.2h2v2.3c0.6-0.9,1.2-1.6,1.9-2c0.7-0.4,1.4-0.7,2.1-0.7c0.5,0,1.1,0.2,1.8,0.5l-1,1.7
				c-0.4-0.2-0.8-0.3-1-0.3c-0.7,0-1.3,0.3-1.9,0.8s-1.1,1.4-1.4,2.5c-0.2,0.9-0.4,2.7-0.4,5.3v5.2h-2V50.2z"/>
			<path class="st12" d="M121.9,43.9c0.5,0,0.8,0.2,1.2,0.5s0.5,0.7,0.5,1.2c0,0.4-0.2,0.8-0.5,1.1c-0.3,0.3-0.7,0.5-1.2,0.5
				c-0.4,0-0.8-0.2-1.1-0.5c-0.3-0.3-0.5-0.7-0.5-1.1c0-0.5,0.2-0.8,0.5-1.2C121.1,44,121.5,43.9,121.9,43.9z M121,50.2h2v15.4h-2
				V50.2z"/>
			<path class="st12" d="M134.4,49.8c2.4,0,4.3,0.9,5.9,2.6c1.4,1.6,2.1,3.4,2.1,5.6c0,2.2-0.7,4-2.2,5.6s-3.4,2.4-5.8,2.4
				c-2.4,0-4.3-0.8-5.8-2.4c-1.5-1.6-2.2-3.5-2.2-5.6c0-2.1,0.7-4,2.1-5.6C130,50.7,132,49.8,134.4,49.8z M134.3,51.8
				c-1.6,0-3.1,0.6-4.2,1.8s-1.8,2.7-1.8,4.4c0,1.1,0.3,2.2,0.8,3.1s1.3,1.7,2.2,2.2c0.9,0.5,1.9,0.8,3,0.8c1.1,0,2.1-0.3,3-0.8
				c0.9-0.5,1.6-1.3,2.2-2.2s0.8-2,0.8-3.1c0-1.7-0.6-3.2-1.8-4.4S136,51.8,134.3,51.8z"/>
			<path class="st12" d="M145.3,50.2h2v2.3c0.6-0.9,1.2-1.6,1.9-2c0.7-0.4,1.4-0.7,2.1-0.7c0.5,0,1.1,0.2,1.8,0.5l-1,1.7
				c-0.4-0.2-0.8-0.3-1-0.3c-0.7,0-1.3,0.3-1.9,0.8s-1.1,1.4-1.4,2.5c-0.2,0.9-0.4,2.7-0.4,5.3v5.2h-2V50.2z"/>
			<path class="st12" d="M178.1,50.2v15.4h-2V63c-0.8,1-1.8,1.8-2.8,2.3c-1,0.5-2.2,0.8-3.4,0.8c-2.2,0-4-0.8-5.6-2.4
				c-1.5-1.6-2.3-3.5-2.3-5.8c0-2.2,0.8-4.1,2.3-5.7c1.6-1.6,3.4-2.4,5.6-2.4c1.3,0,2.4,0.3,3.4,0.8c1,0.5,1.9,1.3,2.7,2.4v-2.8
				H178.1z M170.2,51.7c-1.1,0-2.1,0.3-3.1,0.8c-0.9,0.5-1.7,1.3-2.2,2.3c-0.6,1-0.8,2-0.8,3.1c0,1.1,0.3,2.1,0.8,3.1
				s1.3,1.8,2.2,2.3s1.9,0.8,3,0.8c1.1,0,2.1-0.3,3.1-0.8s1.7-1.3,2.2-2.2c0.5-0.9,0.8-2,0.8-3.2c0-1.8-0.6-3.3-1.8-4.5
				C173.4,52.3,171.9,51.7,170.2,51.7z"/>
			<path class="st12" d="M184.3,44.5h2v5.7h3.1v1.7h-3.1v13.7h-2V51.9h-2.7v-1.7h2.7V44.5z"/>
			<path class="st12" d="M194.2,44.5h2v5.7h3.1v1.7h-3.1v13.7h-2V51.9h-2.7v-1.7h2.7V44.5z"/>
			<path class="st12" d="M217.6,50.2v15.4h-2V63c-0.8,1-1.8,1.8-2.8,2.3c-1,0.5-2.2,0.8-3.4,0.8c-2.2,0-4-0.8-5.6-2.4
				c-1.5-1.6-2.3-3.5-2.3-5.8c0-2.2,0.8-4.1,2.3-5.7c1.6-1.6,3.4-2.4,5.6-2.4c1.3,0,2.4,0.3,3.4,0.8c1,0.5,1.9,1.3,2.7,2.4v-2.8
				H217.6z M209.7,51.7c-1.1,0-2.1,0.3-3.1,0.8c-0.9,0.5-1.7,1.3-2.2,2.3c-0.6,1-0.8,2-0.8,3.1c0,1.1,0.3,2.1,0.8,3.1
				s1.3,1.8,2.2,2.3s1.9,0.8,3,0.8c1.1,0,2.1-0.3,3.1-0.8s1.7-1.3,2.2-2.2c0.5-0.9,0.8-2,0.8-3.2c0-1.8-0.6-3.3-1.8-4.5
				C212.9,52.3,211.4,51.7,209.7,51.7z"/>
			<path class="st12" d="M237,53.4l-1.6,1c-1.4-1.8-3.2-2.7-5.6-2.7c-1.9,0-3.4,0.6-4.7,1.8s-1.9,2.7-1.9,4.4c0,1.1,0.3,2.2,0.9,3.2
				c0.6,1,1.4,1.8,2.3,2.3s2.1,0.8,3.3,0.8c2.3,0,4.1-0.9,5.5-2.7l1.6,1c-0.7,1.1-1.7,2-3,2.6c-1.2,0.6-2.7,0.9-4.2,0.9
				c-2.4,0-4.5-0.8-6.1-2.3s-2.4-3.4-2.4-5.7c0-1.5,0.4-2.9,1.1-4.2c0.8-1.3,1.8-2.3,3.1-3s2.8-1.1,4.4-1.1c1,0,2,0.2,3,0.5
				c0.9,0.3,1.8,0.7,2.4,1.2C236,52,236.6,52.7,237,53.4z"/>
			<path class="st12" d="M240.8,44.3h2V53c0.8-1.1,1.7-1.8,2.6-2.4c1-0.5,2-0.8,3.1-0.8c1.2,0,2.2,0.3,3.1,0.9
				c0.9,0.6,1.6,1.4,2,2.4s0.6,2.5,0.6,4.6v7.9h-2v-7.3c0-1.8-0.1-3-0.2-3.6c-0.2-1-0.7-1.8-1.3-2.3c-0.6-0.5-1.5-0.8-2.5-0.8
				c-1.2,0-2.3,0.4-3.2,1.2c-0.9,0.8-1.6,1.8-1.9,2.9c-0.2,0.8-0.3,2.2-0.3,4.2v5.7h-2V44.3z"/>
			<path class="st12" d="M258.5,50.2h2v2.7c0.7-1,1.4-1.7,2.1-2.2c1-0.6,2.1-0.9,3.2-0.9c0.7,0,1.5,0.1,2.1,0.4
				c0.7,0.3,1.2,0.7,1.6,1.2s0.8,1.2,1.1,2.1c0.7-1.2,1.5-2.1,2.5-2.8c1-0.6,2.1-0.9,3.2-0.9c1.1,0,2,0.3,2.8,0.8
				c0.8,0.5,1.4,1.3,1.8,2.3s0.6,2.4,0.6,4.3v8.4h-2v-8.4c0-1.7-0.1-2.8-0.4-3.4c-0.2-0.6-0.6-1.1-1.2-1.5s-1.2-0.6-2-0.6
				c-1,0-1.8,0.3-2.6,0.8c-0.8,0.6-1.4,1.3-1.7,2.3s-0.6,2.5-0.6,4.7v6h-2v-7.9c0-1.9-0.1-3.1-0.3-3.8c-0.2-0.7-0.6-1.2-1.2-1.6
				s-1.3-0.6-2.1-0.6c-0.9,0-1.8,0.3-2.6,0.8c-0.8,0.6-1.4,1.3-1.8,2.2c-0.4,0.9-0.6,2.4-0.6,4.3v6.5h-2V50.2z"/>
			<path class="st12" d="M298.7,60.5l1.7,0.9c-0.5,1.1-1.2,1.9-1.9,2.6c-0.7,0.7-1.5,1.2-2.4,1.5c-0.9,0.3-1.9,0.5-3,0.5
				c-2.5,0-4.5-0.8-5.9-2.5S285,60,285,58c0-2,0.6-3.7,1.8-5.2c1.5-1.9,3.6-2.9,6.1-2.9c2.6,0,4.7,1,6.3,3c1.1,1.4,1.7,3.2,1.7,5.3
				H287c0,1.8,0.6,3.3,1.7,4.4s2.5,1.7,4.1,1.7c0.8,0,1.5-0.1,2.3-0.4c0.7-0.3,1.4-0.6,1.9-1.1C297.5,62.3,298.1,61.5,298.7,60.5z
				 M298.7,56.4c-0.3-1.1-0.6-1.9-1.2-2.5c-0.5-0.6-1.2-1.1-2-1.5c-0.8-0.4-1.7-0.6-2.6-0.6c-1.5,0-2.8,0.5-3.9,1.5
				c-0.8,0.7-1.4,1.8-1.8,3.2H298.7z"/>
			<path class="st12" d="M304.6,50.2h2V53c0.8-1.1,1.7-1.8,2.6-2.4c1-0.5,2-0.8,3.1-0.8c1.2,0,2.2,0.3,3.1,0.9
				c0.9,0.6,1.6,1.4,2,2.4c0.4,1,0.6,2.5,0.6,4.6v7.9h-2v-7.3c0-1.8-0.1-3-0.2-3.6c-0.2-1-0.7-1.8-1.3-2.3s-1.5-0.8-2.5-0.8
				c-1.2,0-2.3,0.4-3.2,1.2c-0.9,0.8-1.6,1.8-1.9,2.9c-0.2,0.8-0.3,2.2-0.3,4.2v5.7h-2V50.2z"/>
			<path class="st12" d="M324,44.5h2v5.7h3.1v1.7H326v13.7h-2V51.9h-2.7v-1.7h2.7V44.5z"/>
			<path class="st12" d="M347.4,49.8c2.4,0,4.3,0.9,5.9,2.6c1.4,1.6,2.1,3.4,2.1,5.6c0,2.2-0.8,4-2.2,5.6c-1.5,1.6-3.4,2.4-5.8,2.4
				c-2.4,0-4.3-0.8-5.8-2.4s-2.2-3.5-2.2-5.6c0-2.1,0.7-4,2.1-5.6C343.1,50.7,345,49.8,347.4,49.8z M347.4,51.8
				c-1.6,0-3.1,0.6-4.2,1.8c-1.2,1.2-1.8,2.7-1.8,4.4c0,1.1,0.3,2.2,0.8,3.1s1.3,1.7,2.2,2.2c0.9,0.5,1.9,0.8,3,0.8s2.1-0.3,3-0.8
				c0.9-0.5,1.6-1.3,2.2-2.2c0.5-1,0.8-2,0.8-3.1c0-1.7-0.6-3.2-1.8-4.4C350.5,52.4,349,51.8,347.4,51.8z"/>
			<path class="st12" d="M365.4,44.3v1.9c-0.7-0.3-1.3-0.5-1.9-0.5c-0.4,0-0.7,0.1-1,0.2c-0.3,0.2-0.4,0.3-0.5,0.5s-0.1,0.7-0.1,1.6
				l0,2.1h3.2v1.7H362l0,13.7h-2V51.9h-2v-1.7h2v-2.4c0-1.1,0.1-1.9,0.3-2.4c0.2-0.5,0.5-0.9,1-1.1s1.1-0.4,1.8-0.4
				C363.8,43.9,364.5,44,365.4,44.3z"/>
			<path class="st12" d="M378,44.5h2v5.7h3.1v1.7h-3.1v13.7h-2V51.9h-2.7v-1.7h2.7V44.5z"/>
			<path class="st12" d="M386.1,44.3h2V53c0.8-1.1,1.7-1.8,2.6-2.4c1-0.5,2-0.8,3.1-0.8c1.2,0,2.2,0.3,3.1,0.9
				c0.9,0.6,1.6,1.4,2,2.4s0.6,2.5,0.6,4.6v7.9h-2v-7.3c0-1.8-0.1-3-0.2-3.6c-0.2-1-0.7-1.8-1.3-2.3s-1.5-0.8-2.5-0.8
				c-1.2,0-2.3,0.4-3.2,1.2c-0.9,0.8-1.6,1.8-1.9,2.9c-0.2,0.8-0.3,2.2-0.3,4.2v5.7h-2V44.3z"/>
			<path class="st12" d="M416.7,60.5l1.7,0.9c-0.5,1.1-1.2,1.9-1.9,2.6c-0.7,0.7-1.5,1.2-2.4,1.5c-0.9,0.3-1.9,0.5-3,0.5
				c-2.5,0-4.5-0.8-5.9-2.5c-1.4-1.6-2.1-3.5-2.1-5.6c0-2,0.6-3.7,1.8-5.2c1.5-1.9,3.6-2.9,6.1-2.9c2.6,0,4.7,1,6.3,3
				c1.1,1.4,1.7,3.2,1.7,5.3H405c0,1.8,0.6,3.3,1.7,4.4s2.5,1.7,4.1,1.7c0.8,0,1.5-0.1,2.3-0.4c0.7-0.3,1.4-0.6,1.9-1.1
				C415.6,62.3,416.1,61.5,416.7,60.5z M416.7,56.4c-0.3-1.1-0.6-1.9-1.2-2.5c-0.5-0.6-1.2-1.1-2-1.5c-0.8-0.4-1.7-0.6-2.6-0.6
				c-1.5,0-2.8,0.5-3.9,1.5c-0.8,0.7-1.4,1.8-1.8,3.2H416.7z"/>
			<path class="st12" d="M430.6,50.2h2v2.7c0.7-1,1.4-1.7,2.1-2.2c1-0.6,2.1-0.9,3.2-0.9c0.7,0,1.5,0.1,2.1,0.4
				c0.7,0.3,1.2,0.7,1.6,1.2c0.4,0.5,0.8,1.2,1.1,2.1c0.7-1.2,1.5-2.1,2.5-2.8c1-0.6,2.1-0.9,3.2-0.9c1.1,0,2,0.3,2.8,0.8
				c0.8,0.5,1.4,1.3,1.8,2.3s0.6,2.4,0.6,4.3v8.4h-2v-8.4c0-1.7-0.1-2.8-0.4-3.4s-0.6-1.1-1.2-1.5c-0.6-0.4-1.2-0.6-2-0.6
				c-1,0-1.8,0.3-2.6,0.8s-1.4,1.3-1.7,2.3s-0.6,2.5-0.6,4.7v6h-2v-7.9c0-1.9-0.1-3.1-0.3-3.8c-0.2-0.7-0.6-1.2-1.2-1.6
				c-0.6-0.4-1.3-0.6-2.1-0.6c-0.9,0-1.8,0.3-2.6,0.8c-0.8,0.6-1.4,1.3-1.8,2.2c-0.4,0.9-0.6,2.4-0.6,4.3v6.5h-2V50.2z"/>
			<path class="st12" d="M470.8,60.5l1.7,0.9c-0.5,1.1-1.2,1.9-1.9,2.6c-0.7,0.7-1.5,1.2-2.4,1.5c-0.9,0.3-1.9,0.5-3,0.5
				c-2.5,0-4.5-0.8-5.9-2.5c-1.4-1.6-2.1-3.5-2.1-5.6c0-2,0.6-3.7,1.8-5.2c1.5-1.9,3.6-2.9,6.1-2.9c2.6,0,4.7,1,6.3,3
				c1.1,1.4,1.7,3.2,1.7,5.3h-13.9c0,1.8,0.6,3.3,1.7,4.4s2.5,1.7,4.1,1.7c0.8,0,1.5-0.1,2.3-0.4c0.7-0.3,1.4-0.6,1.9-1.1
				C469.6,62.3,470.2,61.5,470.8,60.5z M470.8,56.4c-0.3-1.1-0.6-1.9-1.2-2.5c-0.5-0.6-1.2-1.1-2-1.5c-0.8-0.4-1.7-0.6-2.6-0.6
				c-1.5,0-2.8,0.5-3.9,1.5c-0.8,0.7-1.4,1.8-1.8,3.2H470.8z"/>
			<path class="st12" d="M484.4,51.9l-1.3,1.3c-1.1-1-2.1-1.5-3.1-1.5c-0.6,0-1.2,0.2-1.7,0.6s-0.7,0.9-0.7,1.5c0,0.5,0.2,1,0.6,1.4
				c0.4,0.5,1.2,1,2.4,1.6c1.5,0.8,2.5,1.5,3,2.2c0.5,0.7,0.8,1.5,0.8,2.4c0,1.3-0.4,2.3-1.3,3.2c-0.9,0.9-2,1.3-3.3,1.3
				c-0.9,0-1.7-0.2-2.5-0.6c-0.8-0.4-1.5-0.9-2-1.6l1.2-1.4c1,1.1,2.1,1.7,3.2,1.7c0.8,0,1.5-0.3,2-0.8s0.8-1.1,0.8-1.8
				c0-0.6-0.2-1.1-0.6-1.5c-0.4-0.4-1.2-1-2.5-1.6c-1.4-0.7-2.3-1.4-2.8-2.1c-0.5-0.7-0.8-1.5-0.8-2.4c0-1.2,0.4-2.1,1.2-2.9
				s1.8-1.2,3-1.2C481.6,49.8,483,50.5,484.4,51.9z"/>
			<path class="st12" d="M500.9,60.5l1.7,0.9c-0.5,1.1-1.2,1.9-1.9,2.6c-0.7,0.7-1.5,1.2-2.4,1.5c-0.9,0.3-1.9,0.5-3,0.5
				c-2.5,0-4.5-0.8-5.9-2.5c-1.4-1.6-2.1-3.5-2.1-5.6c0-2,0.6-3.7,1.8-5.2c1.5-1.9,3.6-2.9,6.1-2.9c2.6,0,4.7,1,6.3,3
				c1.1,1.4,1.7,3.2,1.7,5.3h-13.9c0,1.8,0.6,3.3,1.7,4.4s2.5,1.7,4.1,1.7c0.8,0,1.5-0.1,2.3-0.4c0.7-0.3,1.4-0.6,1.9-1.1
				C499.7,62.3,500.3,61.5,500.9,60.5z M500.9,56.4c-0.3-1.1-0.6-1.9-1.2-2.5c-0.5-0.6-1.2-1.1-2-1.5c-0.8-0.4-1.7-0.6-2.6-0.6
				c-1.5,0-2.8,0.5-3.9,1.5c-0.8,0.7-1.4,1.8-1.8,3.2H500.9z"/>
			<path class="st12" d="M506.8,50.2h2V53c0.8-1.1,1.7-1.8,2.6-2.4c1-0.5,2-0.8,3.1-0.8c1.2,0,2.2,0.3,3.1,0.9
				c0.9,0.6,1.6,1.4,2,2.4c0.4,1,0.6,2.5,0.6,4.6v7.9h-2v-7.3c0-1.8-0.1-3-0.2-3.6c-0.2-1-0.7-1.8-1.3-2.3s-1.5-0.8-2.5-0.8
				c-1.2,0-2.3,0.4-3.2,1.2c-0.9,0.8-1.6,1.8-1.9,2.9c-0.2,0.8-0.3,2.2-0.3,4.2v5.7h-2V50.2z"/>
			<path class="st12" d="M526.2,44.5h2v5.7h3.1v1.7h-3.1v13.7h-2V51.9h-2.7v-1.7h2.7V44.5z"/>
			<path class="st12" d="M547.3,60.5l1.7,0.9c-0.5,1.1-1.2,1.9-1.9,2.6c-0.7,0.7-1.5,1.2-2.4,1.5c-0.9,0.3-1.9,0.5-3,0.5
				c-2.5,0-4.5-0.8-5.9-2.5c-1.4-1.6-2.1-3.5-2.1-5.6c0-2,0.6-3.7,1.8-5.2c1.5-1.9,3.6-2.9,6.1-2.9c2.6,0,4.7,1,6.3,3
				c1.1,1.4,1.7,3.2,1.7,5.3h-13.9c0,1.8,0.6,3.3,1.7,4.4s2.5,1.7,4.1,1.7c0.8,0,1.5-0.1,2.3-0.4c0.7-0.3,1.4-0.6,1.9-1.1
				C546.1,62.3,546.7,61.5,547.3,60.5z M547.3,56.4c-0.3-1.1-0.6-1.9-1.2-2.5c-0.5-0.6-1.2-1.1-2-1.5c-0.8-0.4-1.7-0.6-2.6-0.6
				c-1.5,0-2.8,0.5-3.9,1.5c-0.8,0.7-1.4,1.8-1.8,3.2H547.3z"/>
			<path class="st12" d="M552.4,50.2h2v2.3c0.6-0.9,1.2-1.6,1.9-2c0.7-0.4,1.4-0.7,2.1-0.7c0.5,0,1.1,0.2,1.8,0.5l-1,1.7
				c-0.4-0.2-0.8-0.3-1-0.3c-0.7,0-1.3,0.3-1.9,0.8c-0.6,0.5-1.1,1.4-1.4,2.5c-0.2,0.9-0.4,2.7-0.4,5.3v5.2h-2V50.2z"/>
			<path class="st12" d="M560.2,50.2h2.1l5.3,11.9l5.1-11.9h2.1l-9.2,21h-2.1l3-6.8L560.2,50.2z"/>
		</g>
		<g class="st8">
			<path class="st11" d="M120.2,195.8h1.3v7.8c0,0.9,0,1.5,0.1,1.7c0.1,0.5,0.2,0.9,0.4,1.3c0.2,0.3,0.6,0.6,1.1,0.9s1,0.3,1.5,0.3
				c0.4,0,0.8-0.1,1.2-0.3s0.7-0.4,1-0.8s0.5-0.7,0.6-1.2c0.1-0.3,0.1-1,0.1-2v-7.8h1.3v7.8c0,1.2-0.1,2.1-0.3,2.8
				c-0.2,0.7-0.7,1.3-1.4,1.9s-1.5,0.8-2.5,0.8c-1,0-1.9-0.2-2.7-0.7s-1.2-1.2-1.5-2c-0.2-0.5-0.2-1.4-0.2-2.7V195.8z"/>
			<path class="st11" d="M131.3,199.2h1.3v1.4c0.4-0.6,0.8-1,1.2-1.2c0.4-0.3,0.8-0.4,1.3-0.4c0.3,0,0.7,0.1,1.1,0.3l-0.6,1
				c-0.3-0.1-0.5-0.2-0.7-0.2c-0.4,0-0.8,0.2-1.2,0.5s-0.7,0.9-0.9,1.6c-0.2,0.5-0.2,1.6-0.2,3.3v3.2h-1.3V199.2z"/>
			<path class="st11" d="M145.2,205.6l1,0.5c-0.3,0.7-0.7,1.2-1.2,1.6s-0.9,0.7-1.5,0.9c-0.6,0.2-1.2,0.3-1.9,0.3
				c-1.6,0-2.8-0.5-3.7-1.5c-0.9-1-1.3-2.2-1.3-3.5c0-1.2,0.4-2.3,1.1-3.2c0.9-1.2,2.2-1.8,3.8-1.8c1.6,0,2.9,0.6,3.9,1.9
				c0.7,0.9,1,2,1.1,3.3h-8.6c0,1.1,0.4,2,1.1,2.7c0.7,0.7,1.5,1.1,2.5,1.1c0.5,0,1-0.1,1.4-0.3s0.9-0.4,1.2-0.7
				S144.8,206.2,145.2,205.6z M145.2,203c-0.2-0.7-0.4-1.2-0.7-1.6s-0.7-0.7-1.2-0.9c-0.5-0.2-1.1-0.4-1.6-0.4
				c-0.9,0-1.7,0.3-2.4,0.9c-0.5,0.4-0.9,1.1-1.1,2H145.2z"/>
			<path class="st11" d="M149.9,195.6h1.2v3.6h2v1.1h-2v8.5h-1.2v-8.5h-1.7v-1.1h1.7V195.6z"/>
			<path class="st11" d="M163,205.6l1,0.5c-0.3,0.7-0.7,1.2-1.2,1.6s-0.9,0.7-1.5,0.9c-0.6,0.2-1.2,0.3-1.9,0.3
				c-1.6,0-2.8-0.5-3.7-1.5c-0.9-1-1.3-2.2-1.3-3.5c0-1.2,0.4-2.3,1.1-3.2c0.9-1.2,2.2-1.8,3.8-1.8c1.6,0,2.9,0.6,3.9,1.9
				c0.7,0.9,1,2,1.1,3.3h-8.6c0,1.1,0.4,2,1.1,2.7c0.7,0.7,1.5,1.1,2.5,1.1c0.5,0,1-0.1,1.4-0.3s0.9-0.4,1.2-0.7
				S162.6,206.2,163,205.6z M163,203c-0.2-0.7-0.4-1.2-0.7-1.6s-0.7-0.7-1.2-0.9c-0.5-0.2-1.1-0.4-1.6-0.4c-0.9,0-1.7,0.3-2.4,0.9
				c-0.5,0.4-0.9,1.1-1.1,2H163z"/>
			<path class="st11" d="M166.2,199.2h1.3v1.4c0.4-0.6,0.8-1,1.2-1.2c0.4-0.3,0.8-0.4,1.3-0.4c0.3,0,0.7,0.1,1.1,0.3l-0.6,1
				c-0.3-0.1-0.5-0.2-0.7-0.2c-0.4,0-0.8,0.2-1.2,0.5s-0.7,0.9-0.9,1.6c-0.2,0.5-0.2,1.6-0.2,3.3v3.2h-1.3V199.2z"/>
		</g>
		<g class="st8">
			<path class="st11" d="M40.6,224.8l-1,0.9c-0.7-0.7-1.5-1.2-2.4-1.6c-0.9-0.4-1.7-0.5-2.5-0.5c-1,0-2,0.2-2.9,0.7s-1.6,1.2-2.1,2
				c-0.5,0.9-0.8,1.8-0.8,2.7c0,1,0.3,1.9,0.8,2.8c0.5,0.9,1.2,1.6,2.2,2.1c0.9,0.5,1.9,0.8,3,0.8c1.3,0,2.5-0.4,3.4-1.1
				s1.5-1.7,1.6-2.9h-4.1v-1.2h5.6c0,2-0.6,3.6-1.8,4.8c-1.2,1.2-2.7,1.8-4.7,1.8c-2.4,0-4.3-0.8-5.7-2.4c-1.1-1.3-1.6-2.7-1.6-4.4
				c0-1.2,0.3-2.4,0.9-3.4s1.5-1.9,2.5-2.5s2.3-0.9,3.6-0.9c1.1,0,2.1,0.2,3.1,0.6C38.8,223.3,39.7,224,40.6,224.8z"/>
			<path class="st11" d="M48.2,225.8c1.5,0,2.7,0.5,3.7,1.6c0.9,1,1.3,2.1,1.3,3.5c0,1.3-0.5,2.5-1.4,3.5c-0.9,1-2.1,1.5-3.6,1.5
				c-1.5,0-2.7-0.5-3.6-1.5s-1.4-2.2-1.4-3.5c0-1.3,0.4-2.5,1.3-3.4C45.5,226.3,46.7,225.8,48.2,225.8z M48.2,227
				c-1,0-1.9,0.4-2.6,1.1s-1.1,1.7-1.1,2.7c0,0.7,0.2,1.3,0.5,1.9c0.3,0.6,0.8,1.1,1.4,1.4c0.6,0.3,1.2,0.5,1.9,0.5s1.3-0.2,1.9-0.5
				c0.6-0.3,1-0.8,1.4-1.4c0.3-0.6,0.5-1.2,0.5-1.9c0-1.1-0.4-2-1.1-2.7C50.1,227.4,49.2,227,48.2,227z"/>
			<path class="st11" d="M55.4,226h1.2v1.7c0.5-0.7,1-1.1,1.6-1.5c0.6-0.3,1.2-0.5,2-0.5c0.7,0,1.3,0.2,1.9,0.5s1,0.9,1.2,1.5
				s0.4,1.6,0.4,2.9v4.9h-1.2V231c0-1.1,0-1.8-0.1-2.2c-0.1-0.6-0.4-1.1-0.8-1.4s-0.9-0.5-1.6-0.5c-0.7,0-1.4,0.2-2,0.7
				s-1,1.1-1.2,1.8c-0.1,0.5-0.2,1.3-0.2,2.6v3.5h-1.2V226z"/>
			<path class="st11" d="M75.9,226v9.6h-1.2V234c-0.5,0.6-1.1,1.1-1.7,1.4s-1.3,0.5-2.1,0.5c-1.4,0-2.5-0.5-3.5-1.5
				c-1-1-1.4-2.2-1.4-3.6c0-1.4,0.5-2.6,1.5-3.5s2.1-1.5,3.5-1.5c0.8,0,1.5,0.2,2.1,0.5s1.2,0.8,1.7,1.5V226H75.9z M71,227
				c-0.7,0-1.3,0.2-1.9,0.5c-0.6,0.3-1,0.8-1.4,1.4c-0.3,0.6-0.5,1.3-0.5,1.9c0,0.7,0.2,1.3,0.5,1.9c0.3,0.6,0.8,1.1,1.4,1.4
				c0.6,0.3,1.2,0.5,1.9,0.5c0.7,0,1.3-0.2,1.9-0.5c0.6-0.3,1.1-0.8,1.4-1.4c0.3-0.6,0.5-1.2,0.5-2c0-1.1-0.4-2-1.1-2.8
				C73,227.3,72.1,227,71,227z"/>
			<path class="st11" d="M88.2,222.3v13.3H87V234c-0.5,0.6-1.1,1.1-1.7,1.4s-1.3,0.5-2.1,0.5c-1.4,0-2.5-0.5-3.5-1.5
				c-1-1-1.4-2.2-1.4-3.6c0-1.4,0.5-2.6,1.5-3.5s2.1-1.5,3.5-1.5c0.8,0,1.5,0.2,2.1,0.5s1.2,0.8,1.7,1.5v-5.4H88.2z M83.3,227
				c-0.7,0-1.3,0.2-1.9,0.5c-0.6,0.3-1,0.8-1.4,1.4c-0.3,0.6-0.5,1.3-0.5,1.9c0,0.7,0.2,1.3,0.5,1.9c0.3,0.6,0.8,1.1,1.4,1.4
				c0.6,0.3,1.2,0.5,1.9,0.5c0.7,0,1.3-0.2,1.9-0.5c0.6-0.3,1.1-0.8,1.4-1.4c0.3-0.6,0.5-1.2,0.5-2c0-1.1-0.4-2-1.1-2.8
				C85.3,227.3,84.4,227,83.3,227z"/>
			<path class="st11" d="M100.6,226v9.6h-1.2V234c-0.5,0.6-1.1,1.1-1.7,1.4s-1.3,0.5-2.1,0.5c-1.4,0-2.5-0.5-3.5-1.5
				c-1-1-1.4-2.2-1.4-3.6c0-1.4,0.5-2.6,1.5-3.5s2.1-1.5,3.5-1.5c0.8,0,1.5,0.2,2.1,0.5s1.2,0.8,1.7,1.5V226H100.6z M95.6,227
				c-0.7,0-1.3,0.2-1.9,0.5c-0.6,0.3-1,0.8-1.4,1.4c-0.3,0.6-0.5,1.3-0.5,1.9c0,0.7,0.2,1.3,0.5,1.9c0.3,0.6,0.8,1.1,1.4,1.4
				c0.6,0.3,1.2,0.5,1.9,0.5c0.7,0,1.3-0.2,1.9-0.5c0.6-0.3,1.1-0.8,1.4-1.4c0.3-0.6,0.5-1.2,0.5-2c0-1.1-0.4-2-1.1-2.8
				C97.6,227.3,96.7,227,95.6,227z"/>
			<path class="st11" d="M103.1,222.3h1.2v13.3h-1.2V222.3z"/>
			<path class="st11" d="M111,226h1.3l3.2,7l3.2-7h1.3l-4.4,9.6h-0.2L111,226z"/>
			<path class="st11" d="M129.9,232.4l1,0.5c-0.3,0.7-0.7,1.2-1.2,1.6s-0.9,0.7-1.5,0.9c-0.6,0.2-1.2,0.3-1.9,0.3
				c-1.6,0-2.8-0.5-3.7-1.5c-0.9-1-1.3-2.2-1.3-3.5c0-1.2,0.4-2.3,1.1-3.2c0.9-1.2,2.2-1.8,3.8-1.8c1.6,0,2.9,0.6,3.9,1.9
				c0.7,0.9,1,2,1.1,3.3h-8.6c0,1.1,0.4,2,1.1,2.7c0.7,0.7,1.5,1.1,2.5,1.1c0.5,0,1-0.1,1.4-0.3s0.9-0.4,1.2-0.7
				S129.6,233.1,129.9,232.4z M129.9,229.9c-0.2-0.7-0.4-1.2-0.7-1.6s-0.7-0.7-1.2-0.9c-0.5-0.2-1.1-0.4-1.6-0.4
				c-0.9,0-1.7,0.3-2.4,0.9c-0.5,0.4-0.9,1.1-1.1,2H129.9z"/>
			<path class="st11" d="M138.4,227.1l-0.8,0.8c-0.7-0.6-1.3-1-1.9-1c-0.4,0-0.7,0.1-1,0.4c-0.3,0.3-0.4,0.6-0.4,0.9
				c0,0.3,0.1,0.6,0.4,0.9c0.2,0.3,0.7,0.6,1.5,1c0.9,0.5,1.5,0.9,1.9,1.4c0.3,0.4,0.5,0.9,0.5,1.5c0,0.8-0.3,1.5-0.8,2
				s-1.2,0.8-2.1,0.8c-0.6,0-1.1-0.1-1.6-0.4c-0.5-0.2-0.9-0.6-1.2-1l0.8-0.9c0.6,0.7,1.3,1.1,2,1.1c0.5,0,0.9-0.2,1.3-0.5
				c0.3-0.3,0.5-0.7,0.5-1.1c0-0.4-0.1-0.7-0.3-0.9c-0.2-0.3-0.7-0.6-1.6-1c-0.9-0.4-1.5-0.9-1.8-1.3s-0.5-0.9-0.5-1.5
				c0-0.7,0.2-1.3,0.7-1.8c0.5-0.5,1.1-0.7,1.9-0.7C136.6,225.8,137.5,226.2,138.4,227.1z"/>
			<path class="st11" d="M145.4,227.1l-0.8,0.8c-0.7-0.6-1.3-1-1.9-1c-0.4,0-0.7,0.1-1,0.4c-0.3,0.3-0.4,0.6-0.4,0.9
				c0,0.3,0.1,0.6,0.4,0.9c0.2,0.3,0.7,0.6,1.5,1c0.9,0.5,1.5,0.9,1.9,1.4c0.3,0.4,0.5,0.9,0.5,1.5c0,0.8-0.3,1.5-0.8,2
				s-1.2,0.8-2.1,0.8c-0.6,0-1.1-0.1-1.6-0.4c-0.5-0.2-0.9-0.6-1.2-1l0.8-0.9c0.6,0.7,1.3,1.1,2,1.1c0.5,0,0.9-0.2,1.3-0.5
				c0.3-0.3,0.5-0.7,0.5-1.1c0-0.4-0.1-0.7-0.3-0.9c-0.2-0.3-0.7-0.6-1.6-1c-0.9-0.4-1.5-0.9-1.8-1.3s-0.5-0.9-0.5-1.5
				c0-0.7,0.2-1.3,0.7-1.8c0.5-0.5,1.1-0.7,1.9-0.7C143.6,225.8,144.5,226.2,145.4,227.1z"/>
			<path class="st11" d="M155.6,232.4l1,0.5c-0.3,0.7-0.7,1.2-1.2,1.6s-0.9,0.7-1.5,0.9c-0.6,0.2-1.2,0.3-1.9,0.3
				c-1.6,0-2.8-0.5-3.7-1.5c-0.9-1-1.3-2.2-1.3-3.5c0-1.2,0.4-2.3,1.1-3.2c0.9-1.2,2.2-1.8,3.8-1.8c1.6,0,2.9,0.6,3.9,1.9
				c0.7,0.9,1,2,1.1,3.3h-8.6c0,1.1,0.4,2,1.1,2.7c0.7,0.7,1.5,1.1,2.5,1.1c0.5,0,1-0.1,1.4-0.3s0.9-0.4,1.2-0.7
				S155.2,233.1,155.6,232.4z M155.6,229.9c-0.2-0.7-0.4-1.2-0.7-1.6s-0.7-0.7-1.2-0.9c-0.5-0.2-1.1-0.4-1.6-0.4
				c-0.9,0-1.7,0.3-2.4,0.9c-0.5,0.4-0.9,1.1-1.1,2H155.6z"/>
			<path class="st11" d="M159.1,222.3h1.2v13.3h-1.2V222.3z"/>
			<path class="st11" d="M167.7,227.1l-0.8,0.8c-0.7-0.6-1.3-1-1.9-1c-0.4,0-0.7,0.1-1,0.4c-0.3,0.3-0.4,0.6-0.4,0.9
				c0,0.3,0.1,0.6,0.4,0.9c0.2,0.3,0.7,0.6,1.5,1c0.9,0.5,1.5,0.9,1.9,1.4c0.3,0.4,0.5,0.9,0.5,1.5c0,0.8-0.3,1.5-0.8,2
				s-1.2,0.8-2.1,0.8c-0.6,0-1.1-0.1-1.6-0.4c-0.5-0.2-0.9-0.6-1.2-1l0.8-0.9c0.6,0.7,1.3,1.1,2,1.1c0.5,0,0.9-0.2,1.3-0.5
				c0.3-0.3,0.5-0.7,0.5-1.1c0-0.4-0.1-0.7-0.3-0.9c-0.2-0.3-0.7-0.6-1.6-1c-0.9-0.4-1.5-0.9-1.8-1.3s-0.5-0.9-0.5-1.5
				c0-0.7,0.2-1.3,0.7-1.8c0.5-0.5,1.1-0.7,1.9-0.7C165.9,225.8,166.8,226.2,167.7,227.1z"/>
		</g>
	</g>
	<line class="st10" x1="304.8" y1="212.9" x2="179.7" y2="231.9"/>
</g>
</svg>
