<?xml version="1.0" encoding="utf-8"?>
<!-- Generator: Adobe Illustrator 19.2.1, SVG Export Plug-In . SVG Version: 6.00 Build 0)  -->
<svg version="1.1" xmlns="http://www.w3.org/2000/svg" xmlns:xlink="http://www.w3.org/1999/xlink" x="0px" y="0px"
	 viewBox="0 0 805 446.9" style="enable-background:new 0 0 805 446.9;" xml:space="preserve">
<style type="text/css">
	.st0{fill:none;}
	.st1{fill:none;stroke:#231F20;stroke-width:0.3;}
	.st2{fill:url(#Mezzotint_Irregular);stroke:#3F3F3F;stroke-miterlimit:10;}
	.st3{fill:none;stroke:#000000;stroke-width:2;stroke-miterlimit:10;}
	.st4{fill:none;stroke:#00A651;stroke-width:2;stroke-miterlimit:10;}
	.st5{fill:none;stroke:#000000;stroke-miterlimit:10;}
	.st6{fill:none;stroke:#000000;stroke-width:0.5;stroke-linecap:round;stroke-linejoin:round;}
	.st7{fill:none;stroke:#00A651;stroke-linecap:round;stroke-linejoin:round;}
	.st8{fill:none;stroke:url(#SVGID_1_);stroke-linecap:round;stroke-linejoin:round;}
	.st9{fill:none;stroke:url(#SVGID_2_);stroke-linecap:round;stroke-linejoin:round;}
	.st10{fill:none;stroke:url(#SVGID_3_);stroke-linecap:round;stroke-linejoin:round;}
	.st11{fill:none;stroke:url(#SVGID_4_);stroke-linecap:round;stroke-linejoin:round;}
	.st12{fill:none;stroke:url(#SVGID_5_);stroke-linecap:round;stroke-linejoin:round;}
	.st13{fill:none;stroke:url(#SVGID_6_);stroke-linecap:round;stroke-linejoin:round;}
	.st14{fill:none;stroke:url(#SVGID_7_);stroke-linecap:round;stroke-linejoin:round;}
	.st15{fill:none;stroke:url(#SVGID_8_);stroke-linecap:round;stroke-linejoin:round;}
	.st16{fill:none;stroke:url(#SVGID_9_);stroke-linecap:round;stroke-linejoin:round;}
	.st17{fill:none;stroke:url(#SVGID_10_);stroke-linecap:round;stroke-linejoin:round;}
	.st18{fill:none;stroke:url(#SVGID_11_);stroke-linecap:round;stroke-linejoin:round;}
	.st19{fill:none;stroke:url(#SVGID_12_);stroke-linecap:round;stroke-linejoin:round;}
	.st20{fill:none;stroke:url(#SVGID_13_);stroke-linecap:round;stroke-linejoin:round;}
	.st21{fill:none;stroke:url(#SVGID_14_);stroke-linecap:round;stroke-linejoin:round;}
	.st22{display:none;}
	.st23{display:inline;fill:none;stroke:#000000;stroke-miterlimit:10;}
	.st24{display:inline;}
	.st25{font-family:'MyriadPro-Regular';}
	.st26{font-size:18px;}
	.st27{fill:#E5DFE1;}
	.st28{fill:none;stroke:#FFF200;stroke-width:2;stroke-linecap:round;stroke-linejoin:round;}
	.st29{fill:#00A651;}
	.st30{font-family:'Candara';}
	.st31{font-size:35px;}
	.st32{fill:none;stroke:#392726;stroke-linecap:round;stroke-linejoin:round;}
	.st33{font-size:24px;}
</style>
<pattern  x="123" y="433.5" width="72" height="72" patternUnits="userSpaceOnUse" id="Mezzotint_Irregular" viewBox="51.7 -85.5 72 72" style="overflow:visible;">
	<g>
		<rect x="51.7" y="-85.5" class="st0" width="72" height="72"/>
		<g>
			<path class="st1" d="M119.9-10c2.3-0.5,7,0,6,1.8s4,7,4.5,5.5s-2-4.5,0.8-4.8s5.8,3,7.5,3.3s5.5-1.5,3.3-3s-2.8-4.5-5.5-4.3
				s-7-0.3-6-3"/>
			<path class="st1" d="M120.9-12.5c1.8,0.5,5.5,0.3,6,1.8s2.7,2.8,2.7,1.5s-1.7-2.8-1.7-2.8s-4-3.5-2-4"/>
			<path class="st1" d="M122.7-5.2c1.5,1.5,3.5,2.7,5.5,3.8c2,1,5,2,5.3,0.8c0.3-1.3-2.8-3.3-1-3.3s3.3,2,6.5,1.8s9.3-4,7.3-4.8
				s-3.8-3.5-5.5-4.5s-2.8-1-4-1s-4-1.3-2-2"/>
		</g>
		<g>
			<path class="st1" d="M47.9-10c2.3-0.5,7,0,6,1.8s4,7,4.5,5.5s-2-4.5,0.8-4.8s5.8,3,7.5,3.3s5.5-1.5,3.3-3s-2.8-4.5-5.5-4.3
				s-7-0.3-6-3"/>
			<path class="st1" d="M75.4-14.5c1.3,0.5,4.3,3,3.3,4.8s-0.5,3.3,1,3.5s6.3-2,5.8-3.3s-1.8-3.3,0-4.5"/>
			<path class="st1" d="M97.4-16.7c1.8,1,1.8,2,0.5,3.3s-6.5,1.3-5.8,2.5s5,4,7.8,4s3-3.5,4.8-4"/>
			<path class="st1" d="M105.7-12.2c0.8-0.5,0.8-1,0.5-3"/>
			<path class="st1" d="M107.9-19.2c0,1.5-0.4,5.6-0.4,6.9c0,1.4,0.5,1.9,0.5,1.9"/>
			<path class="st1" d="M48.9-12.5c1.8,0.5,5.5,0.3,6,1.8s2.8,2.8,2.8,1.5S55.9-12,55.9-12s-4-3.5-2-4"/>
			<path class="st1" d="M77.7-15.2c1.8,0.5,3.8,1,3.5,2.8s0.3,4,0.8,2.8s0-4,1.5-5"/>
			<path class="st1" d="M100.4-20c1.3,2.3,1.5,6.3-0.3,7.5s-3,3-1.5,2.8s4-0.8,4.8-3s2.3-8.8,0.8-9.5"/>
			<path class="st1" d="M109.7-20c-1,1.5-1,4.5,0.3,5.8s2.5,0.8,2.8,2.3s1.5,3.3,2.5,3.3s2.5-2,3.3-2.8c1-1,2.5-1,2.5-1
				c1.8,0.5,5.5,0.3,6,1.8"/>
			<path class="st1" d="M50.7-5.2c1.5,1.5,3.5,2.7,5.5,3.8c2,1,5,2,5.3,0.8C61.7-2,58.7-4,60.4-4s3.3,2,6.5,1.8s9.3-4,7.3-4.8
				s-3.8-3.5-5.5-4.5s-2.8-1-4-1s-4-1.3-2-2"/>
			<path class="st1" d="M73.9-14c1,2,2.3,3.3,2.5,5s-0.5,4.8,2,4.8c0.6,0,1.3,0,2-0.2"/>
			<path class="st1" d="M82.5-4.9c1.4-0.5,2.7-1.2,3.7-2.3c2-2.3,0.3-2.8,0.5-4s6-4,7-3.3s-1.3,0-2.3,1.8s-4.3,6.3,1,6.5
				S98.7-5,98.9-4s5,0.8,5-0.5s1.5-6,2-4.8s2,3.5,5,5"/>
			<path class="st1" d="M112.9-14.7c1.3,1.3,1.5,3.8,2.8,3s2.8-2.3,3.5-2.8"/>
		</g>
		<g>
			<path class="st1" d="M37.7-20c-1,1.5-1,4.5,0.3,5.8s2.5,0.8,2.8,2.3s1.5,3.3,2.5,3.3s2.5-2,3.3-2.8c1-1,2.5-1,2.5-1
				c1.8,0.5,5.5,0.3,6,1.8"/>
		</g>
		<g>
			<path class="st1" d="M118.4-16.7c3.9-2.4,6-7,10.5-8.5c-0.2,1.1-0.1,2.3,0.6,2.8c1.2,0.9,2.4,0.6,3.9,0.2c1-3.2,3.1-7.3,7-6.4
				c1.4,0.3,1.3,2,2.1,2.8c0.9,0.8,2.2,1.7,3.3,1c1.2-0.8,2.4-1.2,3.6-1.8c0.7-0.3,0.2-1.3,1-1.6c1.9-0.6,2.2,1.4,3.5,2
				c-0.1,1.9,0,3.7,0.5,5.5c0.7,2.3,3.4,1.6,5,0.5c-0.3-0.3,0.6-1.8,0.5-3.4c0.5-3.7-1.7-6.9,2.1-8.4c3.7-1.4,7.9-0.4,11.9-1
				c1.2-0.2,2.4-0.4,3.4-1c1.4-0.8,2.6-1.9,4.1-2.3c0.2,0.8,1.4,0.2,1.5,1c0.2,2.2,1.7,3.7,2.8,5.4c0.2,0.3,0.5,1.1,1.2,1.4
				c0.9,0.4,0.7,2.1,1.1,3.3"/>
			<path class="st1" d="M121.1-23.1c1.5-0.7,3.1-1.2,4.5-2.3c0.1-0.9,0.8-1.4,1-2.2c0-0.2,0.4-0.3,0.4-0.3c0.7-1.6,2.3-2.4,3.8-1.7
				c0.4,0.2,0.2,0.9,0.8,0.7c0,0.3,0.1,0.6,0,0.7c-1.3,0.9-1.3,2.4-1.1,3.5c0.2,0.8,1.1,1.6,2.1,0.8c-0.2-2.8,1.1-5.3,3.3-6.9
				c1.2-0.9,2.7-0.7,4.2-0.6c-0.1,0.6,0.4,0.1,0.5,0.3"/>
			<path class="st1" d="M121.4-26.7c1.8-0.3,3.8-2.5,5.3-4c1.5-1.5,3-2.5,4.5-2.2s1,3.2,3.3,0.3s3.8-2,5.3-1.8s5,2,6.3,0.5
				s-2-6,0.3-6.3s3.3,3.3,5.3,4.5s3,2.8,4.3,0.8s3.3-3.8,5.5-3s3,0.8,5,0.8"/>
			<path class="st1" d="M140.9-43.6c-1,0.1-1.9,0.1-2.8,0.1c-3.5,0-4,2.5-1.5,3s4.5,2.5,6.5,4s-1.5,1-3.5,0s-3,0-5.5,2s-1.5-0.5-3-1
				s-3,0.5-4.5,2c-1.5,1.5-3.5,0.5-7.5-0.5"/>
			<path class="st1" d="M120.4-37.2c1.5,0.8,3.3,2.3,5.3,1.3s3.2-2.5,4.5-2s2.5,2.3,4,1.3s3.3-0.8,1.5-2.5s-5.3-3-4-4
				s3.8-3.3,6.5-3.3s15-2.3,14.5,0.3s-1.8,8.3,0,7.3s3.3-2.8,4.8-2.8s2.8-0.3,3.3-2.8s3-3.8,4-2.8s2.5,2.3,2.3,0.5s0.5-4.5,4-4.3
				c0.5,0,1.1,0.1,1.7,0.1"/>
			<path class="st1" d="M120.9-16.2c1-1.3,2.8-3,4.5-4.8s2.7-1.3,3,0.3s0.8,2.5,2.3,2.3s5.5-3,6-5.3s1.8-3.8,3-2.8s2,4,4.3,4
				s7.5-4.8,7.8-3s-0.5,4,0.3,6.5s2.5,2.5,5,1.5s4.5-2,4.8-3.5"/>
			<path class="st1" d="M119.9-82c2.3-0.5,7,0,6,1.8s4,7,4.5,5.5s-2-4.5,0.8-4.8s5.8,3,7.5,3.3s5.5-1.5,3.3-3s-2.8-4.5-5.5-4.3
				s-7-0.3-6-3"/>
			<path class="st1" d="M122.2-40.7c1.8,1,2,2,4,1.3c2-0.8,2.5-1,2.5-1c2,1,3.5,1.5,3.3,0.5c-0.9-3.4-5.8-3-5-4.3
				c1.2-2,5.2-2.3,6.7-4.3s-0.5-3.8,1.8-4.8s5.5,1,6.3,2.3s4.5,2.3,7.5,1.5s7.3-2,6.8,0.5s-1.3,5.8,0.3,4.5s5.3-8.5,7.5-8.3
				s3.3,0,6.3-0.3s9.5,0.5,9.3-2s-4.8-8.3-1-8.3c1.7,0,3.6,0.6,5.2,1.5"/>
			<path class="st1" d="M120.9-84.5c1.8,0.5,5.5,0.3,6,1.8s2.7,2.8,2.7,1.5s-1.7-2.8-1.7-2.8s-4-3.5-2-4"/>
			<path class="st1" d="M121.2-49.5c1.3,0.5,3.3,2.3,4,1.3s-8-3-0.5-4.8c7.5-1.8,6.2-1,7.2-3.5s-6.5-3.3-4.5-4.5
				c2-1.3,9.3-3,11.7-1.8c3,1.5,1.5,3.8,1.8,4.5s-1,4.8,2.5,6s5,2.5,8,0.8s7-3.3,7-2s-0.3,2,2.5,0.3s7.3-3.3,9.8-3s5-0.5,4-2.3
				s-3.8-2.8-5-4.8s0.8-3.3,3.3-3.5s12,0.8,13.8,2.3s2.3,5.5,2.3,8s-1,3.3,1.8,5.3"/>
			<path class="st1" d="M121.4-55.5c2.3,0.5,4.3,0,5.3-0.5s-2.5-3-4.8-3.8"/>
			<path class="st1" d="M121.9-64.7c3.8-0.5,7.2-1.5,9.7-1s7.8-0.5,9.8,3"/>
			<path class="st1" d="M122.2-68.7c3.5,0.5,10.7,2,12.5,2c0.6,0,1.8,0,3.2,0.1"/>
			<path class="st1" d="M122.7-77.2c1.5,1.5,3.5,2.8,5.5,3.8c2,1,5,2,5.3,0.8s-2.8-3.3-1-3.3s3.3,2,6.5,1.8s9.3-4,7.3-4.8
				s-3.8-3.5-5.5-4.5s-2.8-1-4-1s-4-1.3-2-2"/>
			<path class="st1" d="M122.2-71.2c1.8,0.5,10.2,2.8,14.2,2.5s10.8-0.5,11.8,0.3s0.3,2,0.5,3.3s1,2.3,2.3,1s3.8-2,5-1.5
				s3.5,1.3,3.3,0s-2.8-3.3-1.5-5.5s7-6.5,6.5-4.3s-1.3,5.3,0.5,4.5s5-2,8-1.5"/>
			<path class="st1" d="M122.4-74c3,1.5,9.5,4,16,3.8s6.3-1.8,4.8-1.8s0.3-2.5,2.3-2.5s4.5,1.5,4.8,3.3s1,3,2.3,2.8s1-1,2.8-4
				s2.5-3,4-4.8s1.5,0,2.3,0.3s6.3-0.8,6.3,0.5s-3.8,3-2,3s9.8-1.5,11.5-0.8"/>
		</g>
		<g>
			<path class="st1" d="M46.4-16.7c3.9-2.4,6-7,10.5-8.5c-0.2,1.1-0.1,2.3,0.6,2.8c1.2,0.9,2.4,0.6,3.9,0.2c1-3.2,3.1-7.3,7-6.4
				c1.4,0.3,1.3,2,2.1,2.8c0.9,0.8,2.2,1.7,3.3,1c1.2-0.8,2.4-1.2,3.6-1.8c0.7-0.3,0.2-1.3,1-1.6c1.9-0.6,2.2,1.4,3.5,2
				c-0.1,1.9,0,3.7,0.5,5.5c0.7,2.3,3.4,1.6,5,0.5c-0.3-0.3,0.6-1.8,0.5-3.4c0.5-3.7-1.7-6.9,2.1-8.4c3.7-1.4,7.9-0.4,11.9-1
				c1.2-0.2,2.4-0.4,3.4-1c1.4-0.8,2.6-1.9,4.1-2.3c0.2,0.8,1.4,0.2,1.5,1c0.2,2.2,1.7,3.7,2.8,5.4c0.2,0.3,0.5,1.1,1.2,1.4
				c0.9,0.4,0.7,2.1,1.1,3.3"/>
			<path class="st1" d="M128.9-25.2c-4.5,1.5-6.6,6.1-10.5,8.5c-1.5,1-2.6,1.1-3.9,0.8c-1.2-0.3-0.4-2.1-0.5-3.3
				c-0.2-1.5,1.6-0.9,2.2-1.9c0.6-1,0.8-1.5,0.6-2.7"/>
			<path class="st1" d="M49.1-23.1c1.5-0.7,3.1-1.2,4.5-2.3c0.1-0.9,0.8-1.4,1-2.2c0-0.2,0.4-0.3,0.4-0.3c0.7-1.6,2.3-2.4,3.8-1.7
				c0.4,0.2,0.2,0.9,0.8,0.7c0,0.3,0.1,0.6,0,0.7c-1.3,0.9-1.3,2.4-1.1,3.5c0.2,0.8,1.1,1.6,2.1,0.8c-0.2-2.8,1.1-5.3,3.3-6.9
				c1.2-0.9,2.7-0.7,4.2-0.6c-0.1,0.6,0.4,0.1,0.5,0.3"/>
			<path class="st1" d="M121.1-23.1c1.5-0.7,3.1-1.2,4.5-2.3"/>
			<path class="st1" d="M120.1-21.6c-0.8,0.5-1.1,1.4-1.6,2.2c-0.1,0.2-0.5,0.2-0.4,0.6c-0.5-0.1-1,0.4-1.5,0.2
				c-0.3-0.1-0.4-0.5-0.2-0.7c0.4-0.3,0.3-0.9,0.5-0.9c0.7-0.2,0.3-1.1,1-1.1c0.4-1.5,0.5-3,0.1-4.5c-0.5-1.9-1.6-3.5-2.4-5.3"/>
			<path class="st1" d="M114.7-32.5c-1.8-2.3-3-3.5-3.3-4.8s-0.5-2.3-1.8-2.3s-2.3,1.5-4.3,2.5s-9.3,2.3-11.3,2s-6-1-7-0.3
				S85.4-31,85.4-29s0.3,4.8,0,5.8s-1.8,2.8-2-0.5s-0.5-4.8-2.3-6.5s-4.8-2.7-5-1.5c-0.3,1.3,0.8,2.3,0.3,2.8s-2.3,1.3-3.3,1
				s-1.5-1-2.3-1.5"/>
			<path class="st1" d="M49.4-26.7c1.8-0.3,3.8-2.5,5.3-4c1.5-1.5,3-2.5,4.5-2.2s1,3.2,3.3,0.3s3.8-2,5.3-1.8s5,2,6.3,0.5
				s-2-6,0.3-6.3s3.3,3.3,5.3,4.5s3,2.8,4.3,0.8s3.3-3.8,5.5-3s3,0.8,5,0.8"/>
			<path class="st1" d="M97.4-37.5c1.5-0.3,6.3-1,7.5-2.3s-1.8-5-0.3-5.5s5.5,0.3,7,1.5s2.8,5,3.3,7.3s3.8,4.7,4.3,6.5s0,4.5,0.5,5
				s1-1.5,1.8-1.8c1.7-0.6,3.8-2.5,5.3-4"/>
			<path class="st1" d="M126.7-33.5c-1.5,1.5-3.5,0.5-7.5-0.5c0,0-2.3-1-2.5-6.5s-3.8-6.8-6.3-7.5s-12.8-2-13.5-0.5s3.8,3.5,4.5,5
				s-0.3,3.8-2,3.5s-1.8-2.8-3.3-3.5s-5.5-1-5.8,1.3S86.2-40,86.2-40c-2.5-0.5-3,4-5,4s-2.5-4.5-4.5-6.5c-1-1-2.8-1.3-4.7-1.3"/>
			<path class="st1" d="M68.9-43.6c-1,0.1-1.9,0.1-2.8,0.1c-3.5,0-4,2.5-1.5,3s4.5,2.5,6.5,4s-1.5,1-3.5,0s-3,0-5.5,2s-1.5-0.5-3-1
				s-3,0.5-4.5,2C53.2-32,51.2-33,47.2-34"/>
			<path class="st1" d="M48.4-37.2c1.5,0.8,3.3,2.3,5.3,1.3s3.3-2.5,4.5-2s2.5,2.3,4,1.3s3.3-0.8,1.5-2.5s-5.3-3-4-4
				s3.8-3.3,6.5-3.3s15-2.3,14.5,0.3s-1.8,8.3,0,7.3s3.3-2.8,4.8-2.8s2.8-0.3,3.3-2.8s3-3.8,4-2.8s2.5,2.3,2.3,0.5s0.5-4.5,4-4.3
				c0.5,0,1.1,0.1,1.7,0.1"/>
			<path class="st1" d="M102.7-50.7c4.2,0.4,9.7,1.2,11.8,2.4c2.8,1.8,4.5,6,4.8,8.5"/>
			<path class="st1" d="M120.4-37.2c1.5,0.8,3.3,2.3,5.3,1.3"/>
			<path class="st1" d="M64.4-11.5c-2.8,0.3-7-0.3-6-3s7.5-4.5,8.3-6s2.8-1.8,3.8,0.3s3.8,5.3,5,5.8s4.3,3,3.3,4.8"/>
			<path class="st1" d="M85.4-9.5c-0.5-1.3-1.8-3.3,0-4.5s10.3-3.8,12-2.8s1.8,2,0.5,3.3s-6.5,1.3-5.8,2.5"/>
			<path class="st1" d="M48.9-16.2c1-1.3,2.8-3,4.5-4.8s2.8-1.3,3,0.3s0.8,2.5,2.3,2.3s5.5-3,6-5.3s1.8-3.8,3-2.8s2,4,4.3,4
				s7.5-4.8,7.8-3s-0.5,4,0.3,6.5s2.5,2.5,5,1.5s4.5-2,4.8-3.5"/>
			<path class="st1" d="M120.9-16.2c1-1.3,2.8-3,4.5-4.8"/>
			<path class="st1" d="M55.9-12c0,0-4-3.5-2-4s4,0,6-1.3s5.3-3.3,6-4.8s1.8-2.5,2.5-1.5s2,2,3.8,2.5s3-1,3.8,0.8s0,4.5,1.8,5
				s3.8,1,3.5,2.8"/>
			<path class="st1" d="M81.9-9.7c0.5-1.3,0-4,1.5-5s6.3-2.8,7-4c0.7-1.2,3.9-1.9,6-2"/>
			<path class="st1" d="M98.2-20.7c0.2,0.2,1.9,0.2,2.3,0.8c1.3,2.3,1.5,6.3-0.3,7.5"/>
			<path class="st1" d="M103.4-12.7c0.8-2.3,2.3-8.8,0.8-9.5s-4.8-1.5-2.8-3.5s5.8-3.8,6.8-3.3s4.5,3.5,3.8,5.3s-1.3,2.3-2.3,3.8
				s-1,4.5,0.3,5.8s2.5,0.8,2.8,2.3"/>
			<path class="st1" d="M89.9-22.7c0-1.3-0.5-2.5,0.3-4.5s2.8-3,3-1.5s-1.5,4.8,0,5s2.5,0.5,3.3-1s-1.3-3.3,0-4.3s6.3-2.8,7.8-2.3
				s2.8-0.3,3.8-0.5"/>
			<path class="st1" d="M109.7-31.7c1-0.3,2.3,1.5,2.5,3s2.3,2.8,2.5,3.8s-2.3,5-2.8,6.3s-0.3,2.8,1,4s1.5,3.8,2.8,3
				s2.8-2.3,3.5-2.8"/>
			<path class="st1" d="M105.7-12.2c0.8-0.5,0.8-1,0.5-3s0.8-6.8,0-7.8s-1.5-3,0-2.5c0.8,0.3,2.5-0.1,2.8,1.4c0.2,1.2-1,4.2-1,4.9
				c0,1.5-0.4,5.6-0.4,6.9"/>
			<path class="st1" d="M47.9-82c2.3-0.5,7,0,6,1.8s4,7,4.5,5.5s-2-4.5,0.8-4.8s5.8,3,7.5,3.3s5.5-1.5,3.3-3s-2.8-4.5-5.5-4.3
				s-7-0.3-6-3"/>
			<path class="st1" d="M75.4-86.5c1.3,0.5,4.3,3,3.3,4.8s-0.5,3.3,1,3.5s6.3-2,5.8-3.3s-1.8-3.3,0-4.5"/>
			<path class="st1" d="M97.4-88.7c1.8,1,1.8,2,0.5,3.3s-6.5,1.3-5.8,2.5s5,4,7.8,4s3-3.5,4.8-4"/>
			<path class="st1" d="M105.7-84.2c0.8-0.5,0.8-1,0.5-3"/>
			<path class="st1" d="M107.9-91.2c0,1.5-0.4,5.6-0.4,6.9c0,1.4,0.5,1.9,0.5,1.9"/>
			<path class="st1" d="M50.2-40.7c1.8,1,2,2,4,1.3s2.5-1,2.5-1c2,1,3.5,1.5,3.3,0.5c-0.9-3.4-5.8-3-5-4.3c1.3-2,5.3-2.3,6.8-4.3
				s-0.5-3.8,1.8-4.8s5.5,1,6.3,2.3s4.5,2.3,7.5,1.5s7.3-2,6.8,0.5s-1.3,5.8,0.3,4.5s5.3-8.5,7.5-8.3s3.3,0,6.3-0.3s9.5,0.5,9.3-2
				s-4.8-8.3-1-8.3c1.7,0,3.6,0.6,5.2,1.5"/>
			<path class="st1" d="M114.1-59.4c0.6,0.8,1,1.6,1.1,2.5c0.5,3.5,0.3,5.8,2.3,7"/>
			<path class="st1" d="M122.2-40.7c1.8,1,2,2,4,1.3"/>
			<path class="st1" d="M118.7-49.2c1,1,2,3,2,4s-0.5,2.3,0.3,3.3"/>
			<path class="st1" d="M48.9-84.5c1.8,0.5,5.5,0.3,6,1.8s2.8,2.8,2.8,1.5S55.9-84,55.9-84s-4-3.5-2-4"/>
			<path class="st1" d="M77.7-87.2c1.8,0.5,3.8,1,3.5,2.8s0.3,4,0.8,2.8s0-4,1.5-5"/>
			<path class="st1" d="M100.4-92c1.3,2.3,1.5,6.3-0.3,7.5s-3,3-1.5,2.8s4-0.8,4.8-3s2.3-8.8,0.8-9.5"/>
			<path class="st1" d="M109.7-92c-1,1.5-1,4.5,0.3,5.8s2.5,0.8,2.8,2.3s1.5,3.3,2.5,3.3s2.5-2,3.3-2.8c1-1,2.5-1,2.5-1
				c1.8,0.5,5.5,0.3,6,1.8"/>
			<path class="st1" d="M49.2-49.5c1.3,0.5,3.3,2.3,4,1.3s-8-3-0.5-4.8s6.3-1,7.3-3.5s-6.5-3.3-4.5-4.5s9.3-3,11.8-1.8
				c3,1.5,1.5,3.8,1.8,4.5s-1,4.8,2.5,6s5,2.5,8,0.8s7-3.3,7-2s-0.3,2,2.5,0.3s7.3-3.3,9.8-3s5-0.5,4-2.3s-3.8-2.8-5-4.8
				s0.8-3.3,3.3-3.5s12,0.8,13.8,2.3s2.3,5.5,2.3,8s-1,3.3,1.8,5.3"/>
			<path class="st1" d="M121.2-49.5c1.3,0.5,3.3,2.3,4,1.3s-8-3-0.5-4.8"/>
			<path class="st1" d="M49.4-55.5c2.3,0.5,4.3,0,5.3-0.5s-2.5-3-4.8-3.8"/>
			<path class="st1" d="M49.9-64.7c3.8-0.5,7.3-1.5,9.8-1s7.8-0.5,9.8,3"/>
			<path class="st1" d="M121.4-55.5c2.3,0.5,4.3,0,5.3-0.5s-2.5-3-4.8-3.8s-3.8-4.5,0-5s7.2-1.5,9.7-1"/>
			<path class="st1" d="M120.2-55.7c-1.3-0.8-2-2.3-2-4s-2-7.5-5-7.8s-20.3-2-20.8,0.3s3.3,4.5,4,5.5s0.5,3.3-0.8,3.5s-4,1-3.8-0.5
				s-1-3.3-2.5-1.5c-0.8,0.9-2.7,1.5-3.8,2.3"/>
			<path class="st1" d="M83.9-56.7c-1.8,1.8-4.8,3-6.8,3s-6.3-0.5-6-2.8s0.3-3.3-0.3-4.3"/>
			<path class="st1" d="M50.2-68.7c3.5,0.5,10.8,2,12.5,2c0.6,0,1.8,0,3.2,0.1"/>
			<path class="st1" d="M69.9-66.4c2,0.2,3.7,0.7,4.3,1.4c1.3,1.8-0.3,4.8-0.8,6.3s-1,2.8,0.5,2.8s6.8,0.3,6-1.3s-3.3-2.3-2.5-3.8
				s7-2.5,8.3-2.3s3.8,1.3,4.8,0.3s-0.8-1.5-0.3-3.5"/>
			<path class="st1" d="M122.2-68.7c3.5,0.5,10.7,2,12.5,2"/>
			<path class="st1" d="M91.2-68c2-1,3.3-2.3,7.8-2s17.5,1.3,18,2.3s2,1.8,2.5,0.5s1.3-1.5,1.3-1.5"/>
			<path class="st1" d="M50.7-77.2c1.5,1.5,3.5,2.8,5.5,3.8s5,2,5.3,0.8s-2.8-3.3-1-3.3s3.3,2,6.5,1.8s9.3-4,7.3-4.8
				s-3.8-3.5-5.5-4.5s-2.8-1-4-1s-4-1.3-2-2"/>
			<path class="st1" d="M73.9-86c1,2,2.3,3.3,2.5,5s-0.5,4.8,2,4.8c0.6,0,1.3,0,2-0.2"/>
			<path class="st1" d="M82.5-76.9c1.4-0.5,2.7-1.2,3.7-2.3c2-2.3,0.3-2.8,0.5-4s6-4,7-3.3s-1.3,0-2.3,1.8s-4.3,6.3,1,6.5
				s6.3,1.3,6.5,2.3s5,0.8,5-0.5s1.5-6,2-4.8s2,3.5,5,5"/>
			<path class="st1" d="M122.7-77.2c1.5,1.5,3.5,2.8,5.5,3.8"/>
			<path class="st1" d="M119.9-82c2.3-0.5,7,0,6,1.8"/>
			<path class="st1" d="M109.7-81.5c0.8,1,3.3,2.3,4,3.3s2.3,2.5,3,0.8s-0.3-3.5,1.5-4"/>
			<path class="st1" d="M121.9-78c-1.5-1.5-3.3-2.3-3.3-1.3s2.8,1.8,1.8,3.3s-5,2.5-6.5,1.8s-1.8-1.3-1.8-1.3"/>
			<path class="st1" d="M50.2-71.2c1.8,0.5,10.3,2.8,14.3,2.5s10.8-0.5,11.8,0.3s0.3,2,0.5,3.3s1,2.3,2.3,1s3.8-2,5-1.5
				s3.5,1.3,3.3,0s-2.8-3.3-1.5-5.5s7-6.5,6.5-4.3s-1.3,5.3,0.5,4.5s5-2,8-1.5"/>
			<path class="st1" d="M122.2-71.2c1.8,0.5,10.2,2.8,14.2,2.5"/>
			<path class="st1" d="M120.4-71.5c-1.5-0.5-3.6-0.2-3.3,1c0.8,2.5-3.3-0.3-6-0.8s-6-0.8-7-0.8"/>
			<path class="st1" d="M50.4-74c3,1.5,9.5,4,16,3.8s6.3-1.8,4.8-1.8s0.3-2.5,2.3-2.5s4.5,1.5,4.8,3.3s1,3,2.3,2.8s1-1,2.8-4
				s2.5-3,4-4.8s1.5,0,2.3,0.3s6.3-0.8,6.3,0.5s-3.8,3-2,3s9.8-1.5,11.5-0.8"/>
			<path class="st1" d="M122.4-74c3,1.5,9.5,4,16,3.8"/>
			<path class="st1" d="M121.9-74.2c-2-0.9-4.3,2.3-7,1.8s-4.8-1-6.3-1.3s-2.3-0.3-2.3-0.3"/>
			<path class="st1" d="M64.7-12.5c-1.3,0-4-1.3-2-2c2.8-2,9.5-2.3,11.3,0.5c1,2,2.3,3.3,2.5,5"/>
			<path class="st1" d="M86.7-11.2c0.3-1.3,6-4,7-3.3s-1.3,0-2.3,1.8"/>
			<path class="st1" d="M112.9-86.7c1.3,1.3,1.5,3.8,2.8,3s2.8-2.3,3.5-2.8"/>
		</g>
		<g>
			<path class="st1" d="M56.9-25.2c-4.5,1.5-6.6,6.1-10.5,8.5c-1.5,1-2.6,1.1-3.9,0.8c-1.2-0.3-0.4-2.1-0.5-3.3
				c-0.2-1.5,1.6-0.9,2.2-1.9c0.6-1,0.8-1.5,0.6-2.7"/>
			<path class="st1" d="M49.1-23.1c1.5-0.7,3.1-1.2,4.5-2.3"/>
			<path class="st1" d="M25.4-37.5c1.5-0.3,6.3-1,7.5-2.3s-1.8-5-0.3-5.5s5.5,0.3,7,1.5s2.8,5,3.3,7.3s3.8,4.7,4.3,6.5s0,4.5,0.5,5
				s1-1.5,1.8-1.8c1.7-0.6,3.8-2.5,5.3-4"/>
			<path class="st1" d="M54.7-33.5C53.2-32,51.2-33,47.2-34c0,0-2.3-1-2.5-6.5s-3.8-6.8-6.3-7.5s-12.8-2-13.5-0.5s3.8,3.5,4.5,5
				s-0.3,3.8-2,3.5s-1.8-2.8-3.3-3.5s-5.5-1-5.8,1.3S14.2-40,14.2-40c-2.5-0.5-3,4-5,4c-2,0-2.5-4.5-4.5-6.5c-1-1-2.8-1.3-4.7-1.3"
				/>
			<path class="st1" d="M48.4-37.2c1.5,0.8,3.3,2.3,5.3,1.3"/>
			<path class="st1" d="M48.9-16.2c1-1.3,2.8-3,4.5-4.8"/>
			<path class="st1" d="M50.2-40.7c1.8,1,2,2,4,1.3"/>
			<path class="st1" d="M37.7-92c-1,1.5-1,4.5,0.3,5.8s2.5,0.8,2.8,2.3s1.5,3.3,2.5,3.3s2.5-2,3.3-2.8c1-1,2.5-1,2.5-1
				c1.8,0.5,5.5,0.3,6,1.8"/>
			<path class="st1" d="M49.2-49.5c1.3,0.5,3.3,2.3,4,1.3s-8-3-0.5-4.8"/>
			<path class="st1" d="M49.4-55.5c2.3,0.5,4.3,0,5.3-0.5s-2.5-3-4.8-3.8s-3.8-4.5,0-5s7.3-1.5,9.8-1"/>
			<path class="st1" d="M50.2-68.7c3.5,0.5,10.8,2,12.5,2"/>
			<path class="st1" d="M50.7-77.2c1.5,1.5,3.5,2.8,5.5,3.8"/>
			<path class="st1" d="M47.9-82c2.3-0.5,7,0,6,1.8"/>
			<path class="st1" d="M50.2-71.2c1.8,0.5,10.3,2.8,14.3,2.5"/>
			<path class="st1" d="M50.4-74c3,1.5,9.5,4,16,3.8"/>
		</g>
		<g>
			<path class="st1" d="M64.4-83.5c-2.8,0.3-7-0.3-6-3s7.5-4.5,8.3-6s2.8-1.8,3.8,0.3s3.8,5.3,5,5.8s4.3,3,3.3,4.8"/>
			<path class="st1" d="M85.4-81.5c-0.5-1.3-1.8-3.3,0-4.5s10.3-3.8,12-2.8s1.8,2,0.5,3.3s-6.5,1.3-5.8,2.5"/>
			<path class="st1" d="M55.9-84c0,0-4-3.5-2-4s4,0,6-1.3s5.3-3.3,6-4.8s1.8-2.5,2.5-1.5s2,2,3.8,2.5s3-1,3.8,0.8s0,4.5,1.8,5
				s3.8,1,3.5,2.8"/>
			<path class="st1" d="M81.9-81.7c0.5-1.3,0-4,1.5-5s6.3-2.8,7-4c0.7-1.2,3.9-1.9,6-2"/>
			<path class="st1" d="M98.2-92.7c0.2,0.2,1.9,0.2,2.3,0.8c1.3,2.3,1.5,6.3-0.3,7.5"/>
			<path class="st1" d="M103.4-84.7c0.8-2.3,2.3-8.8,0.8-9.5s-4.8-1.5-2.8-3.5s5.8-3.8,6.8-3.3s4.5,3.5,3.8,5.3s-1.3,2.3-2.3,3.8
				s-1,4.5,0.3,5.8s2.5,0.8,2.8,2.3"/>
			<path class="st1" d="M109.7-103.7c1-0.3,2.3,1.5,2.5,3s2.3,2.8,2.5,3.8s-2.3,5-2.8,6.3s-0.3,2.8,1,4s1.5,3.8,2.8,3
				s2.8-2.3,3.5-2.8"/>
			<path class="st1" d="M105.7-84.2c0.8-0.5,0.8-1,0.5-3s0.8-6.8,0-7.8s-1.5-3,0-2.5c0.8,0.3,2.5-0.1,2.8,1.4c0.2,1.2-1,4.2-1,4.9
				c0,1.5-0.4,5.6-0.4,6.9"/>
			<path class="st1" d="M64.7-84.5c-1.3,0-4-1.3-2-2c2.8-2,9.5-2.3,11.3,0.5c1,2,2.3,3.3,2.5,5"/>
			<path class="st1" d="M86.7-83.2c0.3-1.3,6-4,7-3.3s-1.3,0-2.3,1.8"/>
		</g>
	</g>
</pattern>
<g id="Layer_1">
	<g id="XMLID_1_">
		<g>
			<path class="st2" d="M534.4,298.3c-1.6,1.5-3.3,3-5.2,4.3c-1.4,1-2.9,2-4.4,3c-11.4-4-27.2-9.7-31.7-11.3c-7-2.5-117-61-124-67.5
				c0,0,91.8-2.9,118.6,4.1c26.9,7,67.2,18.7,57.5,50.3c-0.8,2.5-2,4.8-2.7,7.2c-0.7,2.4-1.7,2.9-3.4,4.8
				C537.5,295,536.1,296.7,534.4,298.3z"/>
			<path class="st3" d="M261.4,130.8c0,0-4.5,15,0,25.5s26,27,30.5,26.5c3.1-0.3,13.1,3.3,12.3-2.5c-0.3-2.6-2.9-7.2-9.3-15
				c-20.5-25-18.2-19-13.1-34.5"/>
			<path class="st3" d="M617.5,380.4c-9.7,8.7-16.3,20.3-22.7,31.7"/>
			<path class="st3" d="M573.1,318.7c2.6-0.4,5.7-0.8,9-1c3.3-0.2,6.7-0.4,10-0.5c3.6-0.1,7-0.1,10-0.1c5.2,0,8.8,0.1,8.9,0.1
				c1.1,0,2.2,0,3.3-0.1c4.8-0.4,9.1-1.5,12.7,3.9c3.8,5.7,1.7,13.5,0.9,19.7c-1.2,9,4.5,19.2,1,27.8c-1.9,4.6-6.3,7.5-10.1,10.7
				c-0.3,0.3-0.6,0.5-0.9,0.8"/>
			<path class="st3" d="M575.9,354.8c0,0-9.5-7.5-10-17.5s-8.5-14,2.5-17.5c1.2-0.4,2.5-0.7,4.1-1"/>
			<path class="st4" d="M562.6,334.9c1.9,1.4,3.3,2.4,3.3,2.4"/>
			<path class="st4" d="M291.9,182.8c0,0,2.8,1.8,6.6,4.2c6.8,4.4,16.9,10.9,19.4,12.8c4,3,84,58.3,91.5,62.4s69.2,32.1,80.1,37.1
				c4.5,2.1,15.5,6.6,27,11.5c16.2,6.8,33.4,14.1,34.9,15.5c1.6,1.6,7.5,5.9,11.2,8.6"/>
			<path class="st5" d="M473,321.8c27,4.6,88.7,13,89.6,13.1l0,0"/>
			<path class="st5" d="M298.4,187c0,0,12.4,22.3,18.4,30.3s51.4,56.6,75.4,70.6s48.1,27.6,73.7,32.7c1.9,0.4,4.3,0.8,7,1.3"/>
			<path class="st6" d="M545.1,311.6c-3.5-0.9-6-1.6-6.7-1.8c-0.7-0.2-5.8-1.9-12.3-4.2c-11.4-4-27.2-9.7-31.7-11.3
				c-7-2.5-117-61-124-67.5c-1.1-1.1-3.7-3-7.1-5.6c-2.1-1.6-4.7-3.4-7.4-5.4c-5.9-4.2-12.8-9-19.7-13.8
				c-7.6-5.3-15.1-10.4-20.9-14.4c-6.6-4.5-11-7.5-11-7.5"/>
			<path class="st6" d="M570.3,316.6c-1.4-0.2-2.9-0.3-4.4-0.6c-2.1-0.3-4.2-0.7-6.4-1.1c-2.6-0.5-5.2-1.1-7.6-1.7
				c-2.5-0.6-4.8-1.2-6.8-1.7"/>
			<path class="st6" d="M571.9,316.8c-0.3,0-0.5,0-0.8-0.1"/>
			<path class="st6" d="M621.1,316.6c0.7-1,1.3-2.1,1.9-3.2c0.1-0.2,0.2-0.4,0.4-0.7c1.5-2.8,2.7-5.6,3.6-8.5
				c25.2-78.5-101.6-194.4-158.6-216.8C442.6,77.3,286,54.2,286,54.2"/>
			<path class="st6" d="M281.8,112.4c0,0,240.4,11,310.2,129c26.6,45,31.5,63.1,31.4,70.3c0,0.4,0,0.7-0.1,1
				c-0.4,3.6-2.2,3.8-2.2,3.8"/>
			<path class="st7" d="M541.9,291c-1.8,2.6-3.9,5-6.3,7.3c-1.6,1.5-3.3,3-5.2,4.3c-1.4,1-2.9,2-4.4,3c-3,1.9-6.3,3.6-9.6,5.2
				c-15,7-32.2,10.5-43.5,11.1l0,0"/>
			<path class="st7" d="M370.4,226.8c0,0,91.8-2.9,118.6,4.1c26.9,7,67.2,18.7,57.5,50.3c-0.4,1.3-0.9,2.6-1.4,4
				c-0.8,1.9-1.8,3.7-2.9,5.5"/>
			
				<linearGradient id="SVGID_1_" gradientUnits="userSpaceOnUse" x1="362.8" y1="165.8844" x2="573.9" y2="165.8844" gradientTransform="matrix(1 0 0 -1 0 433.89)">
				<stop  offset="0" style="stop-color:#8B5E3C"/>
				<stop  offset="0.1218" style="stop-color:#88603C"/>
				<stop  offset="0.2866" style="stop-color:#81693E"/>
				<stop  offset="0.4758" style="stop-color:#737542"/>
				<stop  offset="0.6833" style="stop-color:#558747"/>
				<stop  offset="0.9033" style="stop-color:#009A4C"/>
				<stop  offset="1" style="stop-color:#00A651"/>
			</linearGradient>
			<path class="st8" d="M363.3,221.2c0,0,104.1-3.8,124.4,0c20.3,3.8,47,14.6,57,31.6s28.7,63.7,28.7,63.7"/>
			<line class="st7" x1="561.8" y1="308.4" x2="565.9" y2="316.1"/>
			<line class="st7" x1="547.2" y1="281.4" x2="561" y2="307"/>
			<line class="st7" x1="542.9" y1="291.8" x2="559.5" y2="314.9"/>
			<line class="st7" x1="541.4" y1="289.7" x2="541.8" y2="290.3"/>
			<polyline class="st7" points="533.9,296.9 535.6,298.3 552.3,311.6 			"/>
			<polyline class="st7" points="530,302.3 530.5,302.6 545.1,311.6 545.1,311.6 			"/>
			
				<linearGradient id="SVGID_2_" gradientUnits="userSpaceOnUse" x1="357.5" y1="169.0764" x2="582.5" y2="169.0764" gradientTransform="matrix(1 0 0 -1 0 433.89)">
				<stop  offset="0" style="stop-color:#8B5E3C"/>
				<stop  offset="0.1218" style="stop-color:#88603C"/>
				<stop  offset="0.2866" style="stop-color:#81693E"/>
				<stop  offset="0.4758" style="stop-color:#737542"/>
				<stop  offset="0.6833" style="stop-color:#558747"/>
				<stop  offset="0.9033" style="stop-color:#009A4C"/>
				<stop  offset="1" style="stop-color:#00A651"/>
			</linearGradient>
			<path class="st9" d="M358,215.2c0,0,104.9-7.8,151,5.5c36.1,10.5,56.8,40.5,62.9,55.8c6.1,15.3,10.1,40.2,10.1,40.2"/>
			
				<linearGradient id="SVGID_3_" gradientUnits="userSpaceOnUse" x1="335.7" y1="176.04" x2="592.5" y2="176.04" gradientTransform="matrix(1 0 0 -1 0 433.89)">
				<stop  offset="0" style="stop-color:#8B5E3C"/>
				<stop  offset="0.1218" style="stop-color:#88603C"/>
				<stop  offset="0.2866" style="stop-color:#81693E"/>
				<stop  offset="0.4758" style="stop-color:#737542"/>
				<stop  offset="0.6833" style="stop-color:#558747"/>
				<stop  offset="0.9033" style="stop-color:#009A4C"/>
				<stop  offset="1" style="stop-color:#00A651"/>
			</linearGradient>
			<path class="st10" d="M336.2,199.6c11.4,0.1,136.4,1.1,178.8,15.3c37.7,12.7,74.3,51.3,77,101.2"/>
			
				<linearGradient id="SVGID_4_" gradientUnits="userSpaceOnUse" x1="334.83" y1="234.29" x2="336.66" y2="234.29" gradientTransform="matrix(1 0 0 -1 0 433.89)">
				<stop  offset="0" style="stop-color:#8B5E3C"/>
				<stop  offset="0.1218" style="stop-color:#88603C"/>
				<stop  offset="0.2866" style="stop-color:#81693E"/>
				<stop  offset="0.4758" style="stop-color:#737542"/>
				<stop  offset="0.6833" style="stop-color:#558747"/>
				<stop  offset="0.9033" style="stop-color:#009A4C"/>
				<stop  offset="1" style="stop-color:#00A651"/>
			</linearGradient>
			<path class="st11" d="M335.3,199.6c0,0,0.3,0,0.8,0"/>
			
				<linearGradient id="SVGID_5_" gradientUnits="userSpaceOnUse" x1="314.7" y1="183.1638" x2="602.6" y2="183.1638" gradientTransform="matrix(1 0 0 -1 0 433.89)">
				<stop  offset="0" style="stop-color:#8B5E3C"/>
				<stop  offset="0.1218" style="stop-color:#88603C"/>
				<stop  offset="0.2866" style="stop-color:#81693E"/>
				<stop  offset="0.4758" style="stop-color:#737542"/>
				<stop  offset="0.6833" style="stop-color:#558747"/>
				<stop  offset="0.9033" style="stop-color:#009A4C"/>
				<stop  offset="1" style="stop-color:#00A651"/>
			</linearGradient>
			<path class="st12" d="M315.2,185.4c6.8-0.1,202.3-2.4,241.4,42.2c37.5,42.8,41.8,45,45.5,88.5"/>
			
				<linearGradient id="SVGID_6_" gradientUnits="userSpaceOnUse" x1="314.5" y1="248.49" x2="315.68" y2="248.49" gradientTransform="matrix(1 0 0 -1 0 433.89)">
				<stop  offset="0" style="stop-color:#8B5E3C"/>
				<stop  offset="0.1218" style="stop-color:#88603C"/>
				<stop  offset="0.2866" style="stop-color:#81693E"/>
				<stop  offset="0.4758" style="stop-color:#737542"/>
				<stop  offset="0.6833" style="stop-color:#558747"/>
				<stop  offset="0.9033" style="stop-color:#009A4C"/>
				<stop  offset="1" style="stop-color:#00A651"/>
			</linearGradient>
			<path class="st13" d="M315,185.4c0,0,0.1,0,0.2,0"/>
			
				<linearGradient id="SVGID_7_" gradientUnits="userSpaceOnUse" x1="294.2" y1="195.64" x2="608.2" y2="195.64" gradientTransform="matrix(1 0 0 -1 0 433.89)">
				<stop  offset="0" style="stop-color:#8B5E3C"/>
				<stop  offset="0.1218" style="stop-color:#88603C"/>
				<stop  offset="0.2866" style="stop-color:#81693E"/>
				<stop  offset="0.4758" style="stop-color:#737542"/>
				<stop  offset="0.6833" style="stop-color:#558747"/>
				<stop  offset="0.9033" style="stop-color:#009A4C"/>
				<stop  offset="1" style="stop-color:#00A651"/>
			</linearGradient>
			<path class="st14" d="M294.7,162.9c0,0,214.8,4.9,264.9,60c48.1,53,46.5,75.8,48.1,90.7"/>
			
				<linearGradient id="SVGID_8_" gradientUnits="userSpaceOnUse" x1="610.39" y1="116.5423" x2="614.64" y2="116.5423" gradientTransform="matrix(1 0 0 -1 0 433.89)">
				<stop  offset="0" style="stop-color:#8B5E3C"/>
				<stop  offset="0.1218" style="stop-color:#88603C"/>
				<stop  offset="0.2866" style="stop-color:#81693E"/>
				<stop  offset="0.4758" style="stop-color:#737542"/>
				<stop  offset="0.6833" style="stop-color:#558747"/>
				<stop  offset="0.9033" style="stop-color:#009A4C"/>
				<stop  offset="1" style="stop-color:#00A651"/>
			</linearGradient>
			<path class="st15" d="M614.1,317.2c-1.6,0.6-3.3,0.1-3.3,0.1"/>
			
				<linearGradient id="SVGID_9_" gradientUnits="userSpaceOnUse" x1="281.3" y1="205.09" x2="617.7288" y2="205.09" gradientTransform="matrix(1 0 0 -1 0 433.89)">
				<stop  offset="0" style="stop-color:#8B5E3C"/>
				<stop  offset="0.1218" style="stop-color:#88603C"/>
				<stop  offset="0.2866" style="stop-color:#81693E"/>
				<stop  offset="0.4758" style="stop-color:#737542"/>
				<stop  offset="0.6833" style="stop-color:#558747"/>
				<stop  offset="0.9033" style="stop-color:#009A4C"/>
				<stop  offset="1" style="stop-color:#00A651"/>
			</linearGradient>
			<path class="st16" d="M281.8,140.4c0,0,244.7,4,300.2,94.5c41.7,68.1,37,80.4,32.1,82.3"/>
			
				<linearGradient id="SVGID_10_" gradientUnits="userSpaceOnUse" x1="620.56" y1="117.29" x2="621.57" y2="117.29" gradientTransform="matrix(1 0 0 -1 0 433.89)">
				<stop  offset="0" style="stop-color:#8B5E3C"/>
				<stop  offset="0.1218" style="stop-color:#88603C"/>
				<stop  offset="0.2866" style="stop-color:#81693E"/>
				<stop  offset="0.4758" style="stop-color:#737542"/>
				<stop  offset="0.6833" style="stop-color:#558747"/>
				<stop  offset="0.9033" style="stop-color:#009A4C"/>
				<stop  offset="1" style="stop-color:#00A651"/>
			</linearGradient>
			<path class="st17" d="M621.1,316.6L621.1,316.6"/>
			
				<linearGradient id="SVGID_11_" gradientUnits="userSpaceOnUse" x1="620.57" y1="118.89" x2="623.43" y2="118.89" gradientTransform="matrix(1 0 0 -1 0 433.89)">
				<stop  offset="0" style="stop-color:#8B5E3C"/>
				<stop  offset="0.1218" style="stop-color:#88603C"/>
				<stop  offset="0.2866" style="stop-color:#81693E"/>
				<stop  offset="0.4758" style="stop-color:#737542"/>
				<stop  offset="0.6833" style="stop-color:#558747"/>
				<stop  offset="0.9033" style="stop-color:#009A4C"/>
				<stop  offset="1" style="stop-color:#00A651"/>
			</linearGradient>
			<path class="st18" d="M622.9,313.4c-0.8,2.5-1.8,3.1-1.9,3.2"/>
			
				<linearGradient id="SVGID_12_" gradientUnits="userSpaceOnUse" x1="622.43" y1="121.34" x2="623.85" y2="121.34" gradientTransform="matrix(1 0 0 -1 0 433.89)">
				<stop  offset="0" style="stop-color:#8B5E3C"/>
				<stop  offset="0.1218" style="stop-color:#88603C"/>
				<stop  offset="0.2866" style="stop-color:#81693E"/>
				<stop  offset="0.4758" style="stop-color:#737542"/>
				<stop  offset="0.6833" style="stop-color:#558747"/>
				<stop  offset="0.9033" style="stop-color:#009A4C"/>
				<stop  offset="1" style="stop-color:#00A651"/>
			</linearGradient>
			<path class="st19" d="M623.4,311.7c-0.1,0.6-0.3,1.2-0.4,1.7"/>
			
				<linearGradient id="SVGID_13_" gradientUnits="userSpaceOnUse" x1="281.3" y1="239.84" x2="624.4459" y2="239.84" gradientTransform="matrix(1 0 0 -1 0 433.89)">
				<stop  offset="0" style="stop-color:#8B5E3C"/>
				<stop  offset="0.1218" style="stop-color:#88603C"/>
				<stop  offset="0.2866" style="stop-color:#81693E"/>
				<stop  offset="0.4758" style="stop-color:#737542"/>
				<stop  offset="0.6833" style="stop-color:#558747"/>
				<stop  offset="0.9033" style="stop-color:#009A4C"/>
				<stop  offset="1" style="stop-color:#00A651"/>
			</linearGradient>
			<path class="st20" d="M281.8,76.4c0,0,173.9,38.2,222.7,69.5c53.5,34.4,106,89.2,115,128.1c5,21.7,4.9,32.5,3.9,37.7"/>
			
				<linearGradient id="SVGID_14_" gradientUnits="userSpaceOnUse" x1="283.5" y1="250.29" x2="627.4" y2="250.29" gradientTransform="matrix(1 0 0 -1 0 433.89)">
				<stop  offset="0" style="stop-color:#8B5E3C"/>
				<stop  offset="0.1218" style="stop-color:#88603C"/>
				<stop  offset="0.2866" style="stop-color:#81693E"/>
				<stop  offset="0.4758" style="stop-color:#737542"/>
				<stop  offset="0.6833" style="stop-color:#558747"/>
				<stop  offset="0.9033" style="stop-color:#009A4C"/>
				<stop  offset="1" style="stop-color:#00A651"/>
			</linearGradient>
			<path class="st21" d="M284,62.9c0,0,176,34.4,222.4,65.9c45.9,31.1,101.6,92.4,110.9,119.8c9.2,27.4,9.6,55.7,9.6,55.7"/>
		</g>
	</g>
	<g class="st22">
		<line class="st23" x1="333" y1="122.2" x2="246" y2="61.6"/>
		<line class="st23" x1="350" y1="216.4" x2="259.4" y2="284.6"/>
		<line class="st23" x1="547.5" y1="208.2" x2="625.3" y2="134.2"/>
		<line class="st23" x1="583" y1="304.5" x2="670" y2="250.5"/>
		<line class="st23" x1="600" y1="334.9" x2="676.7" y2="316.8"/>
		<line class="st23" x1="562.2" y1="276.3" x2="654.7" y2="199.5"/>
		<text transform="matrix(1 0 0 1 149.7744 44.9023)" class="st24 st25 st26">External oblique </text>
		<text transform="matrix(1 0 0 1 149.7744 66.5023)" class="st24 st25 st26">aponeurosis</text>
		<text transform="matrix(1 0 0 1 149.7743 298.8965)" class="st24 st25 st26">Inguinal ligament</text>
		<text transform="matrix(1 0 0 1 565.8887 125.5631)" class="st24 st25 st26">Iliohypogastric nerve</text>
		<text transform="matrix(1 0 0 1 586.4078 188.23)" class="st24 st25 st26">Superficial inguinal ring</text>
		<text transform="matrix(1 0 0 1 629.9415 246.23)" class="st24 st25 st26">Spermatic cord</text>
		<text transform="matrix(1 0 0 1 633.8399 306.8965)" class="st24 st25 st26">Ilioinguinal nerve</text>
	</g>
	<g>
		<g>
			<path class="st27" d="M646.5,405.6c-6.2-36.4-30.9-65.6-51.8-86.9c-19.9-20.3-38.7-36.3-57.5-48.8c-22.7-15-47.5-26.6-73.6-34.2
				c-3.8-1.1-8-0.7-11.5,1.2c-3.6,1.9-6.3,5.2-7.4,9.1v0.1c-2.3,8,2.4,16.4,10.4,18.8c23.2,6.8,45.1,17,65.2,30.4
				c17,11.3,34.2,26,52.6,44.8c17.8,18.1,38.8,42.6,43.5,70.6c1.2,7.3,7.5,12.7,15,12.7c0.8,0,1.7-0.1,2.6-0.2
				c0.2-0.1,0.3-0.1,0.4-0.1h0.1c3.7-0.7,7.2-3,9.4-6.1C646.2,413.7,647.2,409.5,646.5,405.6z"/>
		</g>
		<g>
			<path class="st5" d="M646.5,405.6c-6.2-36.4-30.9-65.6-51.8-86.9c-19.9-20.3-38.7-36.3-57.5-48.8c-22.7-15-47.5-26.6-73.6-34.2
				c-3.8-1.1-8-0.7-11.5,1.2c-3.6,1.9-6.3,5.2-7.4,9.1v0.1c-2.3,8,2.4,16.4,10.4,18.8c23.2,6.8,45.1,17,65.2,30.4
				c17,11.3,34.2,26,52.6,44.8c17.8,18.1,38.8,42.6,43.5,70.6c1.2,7.3,7.5,12.7,15,12.7c0.8,0,1.7-0.1,2.6-0.2
				c0.2-0.1,0.3-0.1,0.4-0.1h0.1c3.7-0.7,7.2-3,9.4-6.1C646.2,413.7,647.2,409.5,646.5,405.6z"/>
		</g>
	</g>
	<path class="st28" d="M322.8,112.4c0,0,113.2,129.6,136.3,137.8s117.5,45.3,145,101.6c27.6,56.3,30.6,89.1,30.6,89.1"/>
</g>
<g id="Layer_2">
	<g>
		<text transform="matrix(1 0 0 1 37.2234 38.1264)" class="st29 st30 st31">Posterior and superior boundry of inguinal canal </text>
		<line class="st32" x1="583.6" y1="228.8" x2="645.9" y2="180.1"/>
		<line class="st32" x1="343.2" y1="135.5" x2="592" y2="76.4"/>
		<line class="st32" x1="407" y1="235.1" x2="232" y2="257.9"/>
		<line class="st32" x1="523.3" y1="226.2" x2="182" y2="204.4"/>
		<line class="st32" x1="559.5" y1="296.9" x2="667" y2="264.8"/>
		<text transform="matrix(1 0 0 1 601.5764 74.1263)" class="st25 st33">Ilioinguinal nerve</text>
		<text transform="matrix(1 0 0 1 607.7002 162.8999)" class="st25 st33">Conjoint tendon</text>
		<text transform="matrix(1 0 0 1 641.5764 250.7262)" class="st25 st33">Spermatic cord</text>
		<text transform="matrix(1 0 0 1 51.1255 140.4)"><tspan x="0" y="0" class="st25 st33">Arching fibres of</tspan><tspan x="-21.5" y="28.8" class="st25 st33">Internal oblique and </tspan><tspan x="-30" y="57.6" class="st25 st33">transversus abdominis</tspan></text>
		<text transform="matrix(1 0 0 1 29.7002 268.006)" class="st25 st33">Fascia transversalis</text>
	</g>
</g>
</svg>
