<svg xmlns="http://www.w3.org/2000/svg" viewBox="0 0 626.37 435.44">
  <title>prostatic urethra</title>
  <g id="Layer_2" data-name="Layer 2">
    <path d="M191,189s75-8,84,0,27,32,12,72-2.54,72.32,3,100c6,30-4,40-12,81" transform="translate(-10.57 -32.08)" fill="none" stroke="#000" stroke-linecap="round" stroke-miterlimit="10" stroke-width="2"/>
    <path d="M448,192s-63-6-78-7-50,35-40,55,31,71,12,108c-12,23.35,11,81,21,92" transform="translate(-10.57 -32.08)" fill="none" stroke="#000" stroke-linecap="round" stroke-miterlimit="10" stroke-width="2"/>
    <path d="M453,217s-63-1-84,5-24,30-18,48,5,73-3,78-5,55,13,76" transform="translate(-10.57 -32.08)" fill="none" stroke="#b3b3b3" stroke-linecap="round" stroke-miterlimit="10"/>
    <path d="M190.5,216.5s72-7,83,6,15,20,8,33-12,38-7,62,13,46,10,70-12,54-12,54" transform="translate(-10.57 -32.08)" fill="none" stroke="#b3b3b3" stroke-linecap="round" stroke-miterlimit="10"/>
    <path d="M374.92,220.67s32.58-5.17,37.58-.17,40,98,10,137-53,51-56,64,5,16,5,16" transform="translate(-10.57 -32.08)" fill="none" stroke="#14e900" stroke-linecap="round" stroke-miterlimit="10" stroke-width="2"/>
    <path d="M252,216.94a164.16,164.16,0,0,0-24.68-2.31c-12.82-.13-19.82,26.87-22.82,42.87s-11,88,12,113,52,48,54,53,5,11,0,14" transform="translate(-10.57 -32.08)" fill="none" stroke="#14e900" stroke-linecap="round" stroke-miterlimit="10" stroke-width="2"/>
    <path d="M228.5,113.5c3-1,63.35,48.6,73,84,3,11,10,31,9,42-1.64,18-3,22-8,37s7,41,6,57,2,53-6,78-10,30-10,30" transform="translate(-10.57 -32.08)" fill="none" stroke="#b3b3b3" stroke-linecap="round" stroke-miterlimit="10"/>
    <path d="M395.5,104.5s-63,78-68,98a425,425,0,0,0-8,43c-3,19,13,33,9,50s-4.37,29.62-5,41c-1,18,2,55,11,75s9,26,9,26" transform="translate(-10.57 -32.08)" fill="none" stroke="#b3b3b3" stroke-linecap="round" stroke-miterlimit="10"/>
    <path d="M314.5,381.5s-5,49-14,60" transform="translate(-10.57 -32.08)" fill="none" stroke="#b3b3b3" stroke-linecap="round" stroke-miterlimit="10"/>
    <path d="M319.5,381.5s13,50,19,58" transform="translate(-10.57 -32.08)" fill="none" stroke="#b3b3b3" stroke-linecap="round" stroke-miterlimit="10"/>
    <path d="M319.5,403.5s9,33,12,40" transform="translate(-10.57 -32.08)" fill="none" stroke="#b3b3b3" stroke-linecap="round" stroke-miterlimit="10"/>
    <path d="M317.5,403.5s-6,33-7,38" transform="translate(-10.57 -32.08)" fill="none" stroke="#b3b3b3" stroke-linecap="round" stroke-miterlimit="10"/>
    <line x1="308.93" y1="383.42" x2="308.93" y2="409.42" fill="none" stroke="#b3b3b3" stroke-linecap="round" stroke-miterlimit="10"/>
    <path d="M315.4,302.8c2.78,1.17,6-4.6,2.17-4.93-2.22-.19-5.27,1.71-3.38,4A3.32,3.32,0,0,0,315.4,302.8Z" transform="translate(-10.57 -32.08)" fill="none" stroke="#b3b3b3" stroke-linecap="round" stroke-miterlimit="10" stroke-width="0.46"/>
    <path d="M310.44,294.12c.79-2.92-5.05-5.08-4.93-1.25.07,2.21,2.22,4.85,4.14,2.61A3.59,3.59,0,0,0,310.44,294.12Z" transform="translate(-10.57 -32.08)" fill="none" stroke="#b3b3b3" stroke-linecap="round" stroke-miterlimit="10" stroke-width="0.44"/>
    <path d="M323.59,295.4c2.62.16,4.26-6.42.87-5.42-2,.57-4.19,3.41-2.11,4.9A2.42,2.42,0,0,0,323.59,295.4Z" transform="translate(-10.57 -32.08)" fill="none" stroke="#b3b3b3" stroke-linecap="round" stroke-miterlimit="10" stroke-width="0.43"/>
  </g>
  <g id="Layer_3" data-name="Layer 3">
    <path d="M297.77,270.13c1.28-2.26,1.45-7.14-2.61-5.44a5.56,5.56,0,0,0-3.34,4.41c-.23,1.87,1.28,4,3.14,3.72C296.28,272.58,297.11,271.29,297.77,270.13Z" transform="translate(-10.57 -32.08)" fill="none" stroke="#b3b3b3" stroke-linecap="round" stroke-miterlimit="10" stroke-width="0.46"/>
    <path d="M292.32,276.82a4.07,4.07,0,0,0-.78,3.78,3.92,3.92,0,0,0,1.5.62,1.34,1.34,0,0,0,1.38-.66,2,2,0,0,0,.12-.82v-1.43a1.71,1.71,0,0,0-.16-.86c-.37-.63-1.28-.54-2-.36l-.77,1.73" transform="translate(-10.57 -32.08)" fill="none" stroke="#b3b3b3" stroke-linecap="round" stroke-miterlimit="10" stroke-width="0.46"/>
    <path d="M294.15,287.76a2.93,2.93,0,0,0-1.38,2.2,1.52,1.52,0,0,0,2.47,1.11,6.53,6.53,0,0,0,.06-2,1.13,1.13,0,0,0-.33-.77c-.48-.39-1.17.11-1.58.57" transform="translate(-10.57 -32.08)" fill="none" stroke="#b3b3b3" stroke-linecap="round" stroke-miterlimit="10" stroke-width="0.46"/>
    <path d="M286.88,286.23a2.14,2.14,0,0,0-.77.8,1.83,1.83,0,0,0,.6,2.28,2,2,0,0,0,2.38-.2,4.15,4.15,0,0,0,0-1.86,1.57,1.57,0,0,0-1.3-1.19.77.77,0,0,0-.84.6l-.62,0" transform="translate(-10.57 -32.08)" fill="none" stroke="#b3b3b3" stroke-linecap="round" stroke-miterlimit="10" stroke-width="0.46"/>
    <path d="M289.8,297.47a2.19,2.19,0,0,0-.8,2.06,2,2,0,0,0,.9,1.08,2.19,2.19,0,0,0,1.75.37,1.56,1.56,0,0,0,1.09-1.51c0-1.17-1.41-1.86-2.57-1.81a1.08,1.08,0,0,0-.85.33" transform="translate(-10.57 -32.08)" fill="none" stroke="#b3b3b3" stroke-linecap="round" stroke-miterlimit="10" stroke-width="0.46"/>
    <path d="M297.65,305.38a1.74,1.74,0,0,0-2.56-.08,3.08,3.08,0,0,0,.37,2.95c.33,0,.51.38.81.52s.91-.14,1.2-.51A2.46,2.46,0,0,0,297.65,305.38Z" transform="translate(-10.57 -32.08)" fill="none" stroke="#b3b3b3" stroke-linecap="round" stroke-miterlimit="10" stroke-width="0.46"/>
    <path d="M288.38,307.41a1.15,1.15,0,0,0,.29-.89c0-1-1.41-1.83-2-.74a1.17,1.17,0,0,0,.14,1.43A1.4,1.4,0,0,0,288.38,307.41Z" transform="translate(-10.57 -32.08)" fill="none" stroke="#b3b3b3" stroke-linecap="round" stroke-miterlimit="10" stroke-width="0.46"/>
    <path d="M290.41,313.11a1.16,1.16,0,0,0-.46.31,1.59,1.59,0,0,0-.63,1,1.48,1.48,0,0,0,.68,1.08,2,2,0,0,0,.38.26,1.12,1.12,0,0,0,1.41-1.66,2.56,2.56,0,0,0-.29-.32,3.16,3.16,0,0,0-.5-.44.86.86,0,0,0-.63-.15.51.51,0,0,0-.41.46" transform="translate(-10.57 -32.08)" fill="none" stroke="#b3b3b3" stroke-linecap="round" stroke-miterlimit="10" stroke-width="0.46"/>
    <path d="M298.63,314.11a1.49,1.49,0,0,0-1.2-.83,1.28,1.28,0,0,0-.66.13,1.19,1.19,0,0,0-.54,1.5,1.62,1.62,0,0,0,1.09.95,1.15,1.15,0,0,0,1.27-.57,1.65,1.65,0,0,0,0-1.19Z" transform="translate(-10.57 -32.08)" fill="none" stroke="#b3b3b3" stroke-linecap="round" stroke-miterlimit="10" stroke-width="0.46"/>
    <path d="M296.48,330.33a1.31,1.31,0,0,0,1.32-.34,1.71,1.71,0,0,0,.26-.91c.07-.83.31-1.82-.28-2.51s-1.53-.59-2.28-.08C293.8,327.62,294.54,329.9,296.48,330.33Z" transform="translate(-10.57 -32.08)" fill="none" stroke="#b3b3b3" stroke-linecap="round" stroke-miterlimit="10" stroke-width="0.46"/>
    <path d="M299.17,339.62c-.89-.23-3.22-1.15-3.42.45a3.23,3.23,0,0,0,.74,2.24,9.24,9.24,0,0,0,1,.95,3.43,3.43,0,0,0,1.5.81,1.54,1.54,0,0,0,1.54-.52,2,2,0,0,0,.29-1.22,3.66,3.66,0,0,0-.5-2,1.55,1.55,0,0,0-.43-.45A2.28,2.28,0,0,0,299.17,339.62Z" transform="translate(-10.57 -32.08)" fill="none" stroke="#b3b3b3" stroke-linecap="round" stroke-miterlimit="10" stroke-width="0.46"/>
    <path d="M302.72,336.27a3.88,3.88,0,0,0,.19-.81,1.77,1.77,0,0,0,0-.33,1.08,1.08,0,0,0-.6-.92,1.6,1.6,0,0,0-.4-.09c-1-.13-1.91.13-1.71,1.4a1.27,1.27,0,0,0,.66,1C301.17,336.69,302.57,336.72,302.72,336.27Z" transform="translate(-10.57 -32.08)" fill="none" stroke="#b3b3b3" stroke-linecap="round" stroke-miterlimit="10" stroke-width="0.46"/>
    <path d="M299.18,358.71c.94-1.52,1.27-5.22-1.53-3.72-1.41.76-2.28,2.8-.43,3.61a5.47,5.47,0,0,0,1.34.39.65.65,0,0,0,.37,0A.64.64,0,0,0,299.18,358.71Z" transform="translate(-10.57 -32.08)" fill="none" stroke="#b3b3b3" stroke-linecap="round" stroke-miterlimit="10" stroke-width="0.46"/>
    <path d="M302.93,352.76c1.44.1.93-1.82.19-2.32-.5-.34-2.54-1.13-3-.46-.16.24.07.54.3.72a14.49,14.49,0,0,1,1.52,1.16C302.27,352.22,302.33,352.72,302.93,352.76Z" transform="translate(-10.57 -32.08)" fill="none" stroke="#b3b3b3" stroke-linecap="round" stroke-miterlimit="10" stroke-width="0.46"/>
    <path d="M299.7,374.35c1.32-.07,1.16-2.85,0-3.12a1.33,1.33,0,0,0-.87.19,1.69,1.69,0,0,0-.81.68,2,2,0,0,0,.35,2A1.88,1.88,0,0,0,299.7,374.35Z" transform="translate(-10.57 -32.08)" fill="none" stroke="#b3b3b3" stroke-linecap="round" stroke-miterlimit="10" stroke-width="0.46"/>
    <path d="M298.93,393.41c-.1-1.7-3.24-.28-2.85,1.53.3,1.43,2.52.95,2.81-.3A4.32,4.32,0,0,0,298.93,393.41Z" transform="translate(-10.57 -32.08)" fill="none" stroke="#b3b3b3" stroke-linecap="round" stroke-miterlimit="10" stroke-width="0.46"/>
    <path d="M300,385.17c.52-.93.65-2.05-.49-2.65a1.23,1.23,0,0,0-1.45.37,1.82,1.82,0,0,0-.2,2c.33.52,1.07.55,1.68.52a.57.57,0,0,0,.32-.08A.53.53,0,0,0,300,385.17Z" transform="translate(-10.57 -32.08)" fill="none" stroke="#b3b3b3" stroke-linecap="round" stroke-miterlimit="10" stroke-width="0.46"/>
    <path d="M297.56,406c-.56-.79-1.41-.32-2.14-.62-.51-.21-.56-.87-1.24-.93a2.27,2.27,0,0,0-1.23.33,3.22,3.22,0,0,0-1.23,1c-1.24,1.88,1.19,2.73,2.62,2.75a5.45,5.45,0,0,0,2.22-.3C297.43,407.84,298.1,406.73,297.56,406Z" transform="translate(-10.57 -32.08)" fill="none" stroke="#b3b3b3" stroke-linecap="round" stroke-miterlimit="10" stroke-width="0.46"/>
    <path d="M326.64,260.29c-.76,1.09-.16,2.49.74,3.48a3,3,0,0,0,5-2.85c-.73-2.5-3.53-2.53-5.28-1.12A2.37,2.37,0,0,0,326.64,260.29Z" transform="translate(-10.57 -32.08)" fill="none" stroke="#b3b3b3" stroke-linecap="round" stroke-miterlimit="10" stroke-width="0.46"/>
    <path d="M333.56,271.56a1.47,1.47,0,0,0-.12-2.86c-1-.17-3.21.84-3.2,2S332.73,271.9,333.56,271.56Z" transform="translate(-10.57 -32.08)" fill="none" stroke="#b3b3b3" stroke-linecap="round" stroke-miterlimit="10" stroke-width="0.46"/>
    <path d="M337.65,277c.25-1.6-2.77-2.58-3.52-1.07-.93,1.87,1.61,2.91,2.93,1.92A1.39,1.39,0,0,0,337.65,277Z" transform="translate(-10.57 -32.08)" fill="none" stroke="#b3b3b3" stroke-linecap="round" stroke-miterlimit="10" stroke-width="0.46"/>
    <path d="M336.73,286.87c1.91.14,2-2,1.86-3.36a1.73,1.73,0,0,0-.46-1.24,1.56,1.56,0,0,0-1.39-.11,4.5,4.5,0,0,0-2,1.1c-.94,1-1.09,2.13.11,2.85A4.45,4.45,0,0,0,336.73,286.87Z" transform="translate(-10.57 -32.08)" fill="none" stroke="#b3b3b3" stroke-linecap="round" stroke-miterlimit="10" stroke-width="0.46"/>
    <path d="M340.95,295.63c-.33-.71-1.83-1.27-2.54-1.35a1.69,1.69,0,0,0-1.44.45c-.36.39-.89,1.33-.52,1.83a3.43,3.43,0,0,0,2.27.84,2.7,2.7,0,0,0,1.68-.29A1.24,1.24,0,0,0,340.95,295.63Z" transform="translate(-10.57 -32.08)" fill="none" stroke="#b3b3b3" stroke-linecap="round" stroke-miterlimit="10" stroke-width="0.46"/>
    <path d="M340.75,303.93a1,1,0,0,0-1.42-1.17,1.54,1.54,0,0,0-.81,1.73,1,1,0,0,0,.87.53,1.54,1.54,0,0,0,1-.4,1.12,1.12,0,0,0,.28-.34A1,1,0,0,0,340.75,303.93Z" transform="translate(-10.57 -32.08)" fill="none" stroke="#b3b3b3" stroke-linecap="round" stroke-miterlimit="10" stroke-width="0.46"/>
    <path d="M333.23,303.39c-.84.41-.62,2.29.51,1.73a1.22,1.22,0,0,0,.6-.82.88.88,0,0,0,0-.54.7.7,0,0,0-.2-.27A.85.85,0,0,0,333.23,303.39Z" transform="translate(-10.57 -32.08)" fill="none" stroke="#b3b3b3" stroke-linecap="round" stroke-miterlimit="10" stroke-width="0.46"/>
    <path d="M333.4,311.57a1.32,1.32,0,0,0,.4.28.87.87,0,0,0,.91-.28,1.93,1.93,0,0,0,.41-1.08,1.18,1.18,0,0,0-.16-.88,1.63,1.63,0,0,0-2.06,0C332.15,310.38,332.78,311,333.4,311.57Z" transform="translate(-10.57 -32.08)" fill="none" stroke="#b3b3b3" stroke-linecap="round" stroke-miterlimit="10" stroke-width="0.46"/>
    <path d="M341.19,311.53c.51-1.21-.74-1.94-1.75-1.78a1.43,1.43,0,0,0-.77.29c-.38.36-.05,1,.13,1.37a.65.65,0,0,0,.14.21.69.69,0,0,0,.18.1l.29.13a1.82,1.82,0,0,0,1.12.23A1,1,0,0,0,341.19,311.53Z" transform="translate(-10.57 -32.08)" fill="none" stroke="#b3b3b3" stroke-linecap="round" stroke-miterlimit="10" stroke-width="0.46"/>
    <path d="M337.19,321.2a2.26,2.26,0,0,0,1.14,0,1.66,1.66,0,0,0,1.2-.78,1.79,1.79,0,0,0,.13-.59c.1-1.1.13-2-1.09-2.26a3.53,3.53,0,0,0-2.23.14C334.68,318.52,335.74,320.78,337.19,321.2Z" transform="translate(-10.57 -32.08)" fill="none" stroke="#b3b3b3" stroke-linecap="round" stroke-miterlimit="10" stroke-width="0.46"/>
    <path d="M332.16,325a3.59,3.59,0,0,0,.66-.42,2.2,2.2,0,0,0,.69-.69,1.86,1.86,0,0,0,.16-.56,1.58,1.58,0,0,0-.11-1.08c-.68-1.14-2.68,0-3.26.76C329.37,324.31,330.8,325.61,332.16,325Z" transform="translate(-10.57 -32.08)" fill="none" stroke="#b3b3b3" stroke-linecap="round" stroke-miterlimit="10" stroke-width="0.46"/>
    <path d="M336.52,332.1a.75.75,0,0,0,.54.17,3.06,3.06,0,0,0,1.28-.13l.06,0A1,1,0,0,0,339,331a.39.39,0,0,0-.1-.19.52.52,0,0,0-.21-.11C338,330.5,335.38,330.82,336.52,332.1Z" transform="translate(-10.57 -32.08)" fill="none" stroke="#b3b3b3" stroke-linecap="round" stroke-miterlimit="10" stroke-width="0.46"/>
    <path d="M331.51,335.9a1,1,0,0,0,.55-.14,1.07,1.07,0,0,0,.32-.54,3.88,3.88,0,0,0,.26-1.07c.08-1.36-2-2.22-2.77-1C329.2,334.19,330.36,335.93,331.51,335.9Z" transform="translate(-10.57 -32.08)" fill="none" stroke="#b3b3b3" stroke-linecap="round" stroke-miterlimit="10" stroke-width="0.46"/>
    <path d="M334.82,346.41a1.59,1.59,0,0,0,.51-1c.21-1,.1-1.82-1-2.1a1.59,1.59,0,0,0-1.73.54c-.37.46-.76,1.57-.4,2.11A2.65,2.65,0,0,0,334.82,346.41Z" transform="translate(-10.57 -32.08)" fill="none" stroke="#b3b3b3" stroke-linecap="round" stroke-miterlimit="10" stroke-width="0.46"/>
    <path d="M330.72,358.93a1.12,1.12,0,0,0,.64-1.26,1.56,1.56,0,0,0-.53-.72C328.22,354.72,328.12,360.1,330.72,358.93Z" transform="translate(-10.57 -32.08)" fill="none" stroke="#b3b3b3" stroke-linecap="round" stroke-miterlimit="10" stroke-width="0.46"/>
    <path d="M331.83,368.34a1.3,1.3,0,0,0,.7-1.16c0-1.21-2-2.15-2.78-1A1.55,1.55,0,0,0,331.83,368.34Z" transform="translate(-10.57 -32.08)" fill="none" stroke="#b3b3b3" stroke-linecap="round" stroke-miterlimit="10" stroke-width="0.46"/>
    <path d="M333.6,377.6c.31-.78-.53-2-1.28-2.41a1.83,1.83,0,0,0-1.34,0,1.08,1.08,0,0,0-.81.63c-.12.41.21.81.54,1.1.51.44,1.78,1.63,2.51,1.25A.93.93,0,0,0,333.6,377.6Z" transform="translate(-10.57 -32.08)" fill="none" stroke="#b3b3b3" stroke-linecap="round" stroke-miterlimit="10" stroke-width="0.46"/>
    <path d="M332.91,386.14a1.87,1.87,0,0,0-.36,1.16,1.5,1.5,0,0,0,1.37,1.24,2.45,2.45,0,0,0,1.81-.7,2,2,0,0,0,.75-1.85,1.62,1.62,0,0,0-1.26-1.15C334.07,384.6,333.47,385.26,332.91,386.14Z" transform="translate(-10.57 -32.08)" fill="none" stroke="#b3b3b3" stroke-linecap="round" stroke-miterlimit="10" stroke-width="0.46"/>
    <path d="M333.72,395.79a1.47,1.47,0,0,0,.78.47,1.7,1.7,0,0,0,.73.13c.5-.06.83-.53,1.14-.93a7.06,7.06,0,0,0,.78-1.11,1.55,1.55,0,0,0,.09-1.31C336.29,391,332.76,394.4,333.72,395.79Z" transform="translate(-10.57 -32.08)" fill="none" stroke="#b3b3b3" stroke-linecap="round" stroke-miterlimit="10" stroke-width="0.46"/>
    <path d="M336.65,403.11a2.39,2.39,0,0,0-.42,1.65,2.17,2.17,0,0,0,1.53,1.63,1.65,1.65,0,0,0,1.31-.07,2.29,2.29,0,0,0,.87-1.42,3.37,3.37,0,0,0,.19-1.45,1.88,1.88,0,0,0-1.61-1.51C337.62,401.81,337.11,402.4,336.65,403.11Z" transform="translate(-10.57 -32.08)" fill="none" stroke="#b3b3b3" stroke-linecap="round" stroke-miterlimit="10" stroke-width="0.46"/>
  </g>
  <g id="Layer_4" data-name="Layer 4">
    <path d="M353,259s21-30,37-31,22-8,22-8" transform="translate(-10.57 -32.08)" fill="none" stroke="#b3b3b3" stroke-linecap="round" stroke-miterlimit="10" stroke-width="0.46"/>
    <path d="M354,269s18-18,32-24a80.44,80.44,0,0,0,23-15" transform="translate(-10.57 -32.08)" fill="none" stroke="#b3b3b3" stroke-linecap="round" stroke-miterlimit="10" stroke-width="0.46"/>
    <path d="M359,288s34-16,46-29" transform="translate(-10.57 -32.08)" fill="none" stroke="#b3b3b3" stroke-linecap="round" stroke-miterlimit="10" stroke-width="0.46"/>
    <path d="M366,304s20-6,37-25,14-27,14-27" transform="translate(-10.57 -32.08)" fill="none" stroke="#b3b3b3" stroke-linecap="round" stroke-miterlimit="10" stroke-width="0.46"/>
    <path d="M362,331s37-18,43-30a187.1,187.1,0,0,1,14-23l4-5" transform="translate(-10.57 -32.08)" fill="none" stroke="#b3b3b3" stroke-linecap="round" stroke-miterlimit="10" stroke-width="0.46"/>
    <path d="M357,347s34-3,43,0,22,0,22,0" transform="translate(-10.57 -32.08)" fill="none" stroke="#b3b3b3" stroke-linecap="round" stroke-miterlimit="10" stroke-width="0.46"/>
    <path d="M371,337s32-8,41-18a164.48,164.48,0,0,1,15-15" transform="translate(-10.57 -32.08)" fill="none" stroke="#b3b3b3" stroke-linecap="round" stroke-miterlimit="10" stroke-width="0.46"/>
    <path d="M357,355s25,4,35,11,18,3,18,3" transform="translate(-10.57 -32.08)" fill="none" stroke="#b3b3b3" stroke-linecap="round" stroke-miterlimit="10" stroke-width="0.46"/>
    <path d="M357,369s19,13,25,20" transform="translate(-10.57 -32.08)" fill="none" stroke="#b3b3b3" stroke-linecap="round" stroke-miterlimit="10" stroke-width="0.46"/>
    <path d="M357,384a80.58,80.58,0,0,0,9,19" transform="translate(-10.57 -32.08)" fill="none" stroke="#b3b3b3" stroke-linecap="round" stroke-miterlimit="10" stroke-width="0.46"/>
    <path d="M279,256c-4-3-10-19-21-26s-27-8-27-8l-3-2" transform="translate(-10.57 -32.08)" fill="none" stroke="#b3b3b3" stroke-linecap="round" stroke-miterlimit="10" stroke-width="0.46"/>
    <path d="M270,267s-18-5-30-18-15-19-15-19" transform="translate(-10.57 -32.08)" fill="none" stroke="#b3b3b3" stroke-linecap="round" stroke-miterlimit="10" stroke-width="0.46"/>
    <path d="M265,277c0-1-31-7-42-21" transform="translate(-10.57 -32.08)" fill="none" stroke="#b3b3b3" stroke-linecap="round" stroke-miterlimit="10" stroke-width="0.46"/>
    <path d="M263,291s-26,2-40-14-14-21-14-21" transform="translate(-10.57 -32.08)" fill="none" stroke="#b3b3b3" stroke-linecap="round" stroke-miterlimit="10" stroke-width="0.46"/>
    <path d="M263,305c-2,0-56-11-56-19" transform="translate(-10.57 -32.08)" fill="none" stroke="#b3b3b3" stroke-linecap="round" stroke-miterlimit="10" stroke-width="0.46"/>
    <path d="M265,319s-45-2-49-3-5-8-5-8" transform="translate(-10.57 -32.08)" fill="none" stroke="#b3b3b3" stroke-linecap="round" stroke-miterlimit="10" stroke-width="0.46"/>
    <path d="M277,363s-16,31-20,37" transform="translate(-10.57 -32.08)" fill="none" stroke="#b3b3b3" stroke-linecap="round" stroke-miterlimit="10" stroke-width="0.46"/>
    <path d="M270,351s-25,17-28,24-6,7-6,7" transform="translate(-10.57 -32.08)" fill="none" stroke="#b3b3b3" stroke-linecap="round" stroke-miterlimit="10" stroke-width="0.46"/>
    <path d="M270,337s-52,12-56,22" transform="translate(-10.57 -32.08)" fill="none" stroke="#b3b3b3" stroke-linecap="round" stroke-miterlimit="10" stroke-width="0.46"/>
    <path d="M259,330s-30,7-36,4-14-6-14-6" transform="translate(-10.57 -32.08)" fill="none" stroke="#b3b3b3" stroke-linecap="round" stroke-miterlimit="10" stroke-width="0.46"/>
    <g id="Layer_1" data-name="Layer 1">
      <path d="M360.74,234l-2.26,3.44c-.59.9-1.17,2.15-.46,3a1.69,1.69,0,0,0,.92.5c1.86.41,3.48-1.26,4.58-2.81.57-.81,1.14-1.82.76-2.74-.53-1.25-2.28-1.23-3.62-1-.36.06-.83.34-.65.65" transform="translate(-10.57 -32.08)" fill="none" stroke="#ccc" stroke-miterlimit="10"/>
      <path d="M370,246.49a3.35,3.35,0,0,0-1.76,1,1.64,1.64,0,0,0-.2,1.9,2.44,2.44,0,0,0,1.53.82,3.8,3.8,0,0,0,2.41,0,2,2,0,1,0-2.07-3.48" transform="translate(-10.57 -32.08)" fill="none" stroke="#ccc" stroke-miterlimit="10"/>
      <path d="M367.89,267.25c-.61-1.38-2.52-2.25-3.62-.85-.65.83-.2,1.8-.28,2.74a.86.86,0,0,0,.08.55.94.94,0,0,0,.72.31,3.39,3.39,0,0,0,2.72-.46A2,2,0,0,0,367.89,267.25Z" transform="translate(-10.57 -32.08)" fill="none" stroke="#ccc" stroke-miterlimit="10"/>
      <path d="M370.76,286.1c-1,.3-2.22.75-2.53,1.78a2.1,2.1,0,0,0,1,2.27,4,4,0,0,0,2.57.45.86.86,0,0,0,.37-.1.87.87,0,0,0,.25-.28,9.3,9.3,0,0,0,1.32-3.32,1,1,0,0,0,0-.71c-.19-.31-.61-.35-1-.34q-.92,0-1.83.08" transform="translate(-10.57 -32.08)" fill="none" stroke="#ccc" stroke-miterlimit="10"/>
      <path d="M370.94,308.22a3.81,3.81,0,0,0-1.27,2.78,1.64,1.64,0,0,0,.94,1.67,1.36,1.36,0,0,0,1.2-.31,4,4,0,0,0,.8-1l1-1.64c.38-.59.76-1.32.44-1.94a5.44,5.44,0,0,0-3.53.75" transform="translate(-10.57 -32.08)" fill="none" stroke="#ccc" stroke-miterlimit="10"/>
      <path d="M375.72,327a5.48,5.48,0,0,1-.91,1.65,2.08,2.08,0,0,0-.39,1.78,6,6,0,0,0,3.39.66c.22-1.08.4-2.32-.3-3.17a3.76,3.76,0,0,0-2-1,.42.42,0,0,0-.1.46" transform="translate(-10.57 -32.08)" fill="none" stroke="#ccc" stroke-miterlimit="10"/>
      <path d="M401.93,318.33c2.82,0,1.74-4.77-.8-4.5C398.4,314.11,399.58,318.34,401.93,318.33Z" transform="translate(-10.57 -32.08)" fill="none" stroke="#ccc" stroke-miterlimit="10"/>
      <path d="M397.74,340.21a3.73,3.73,0,0,0,1.72.15,9.6,9.6,0,0,0,1.27-.21q.41-.1.82-.23a1.43,1.43,0,0,0,.77-.47,1.47,1.47,0,0,0,.19-.73,3.15,3.15,0,0,0-.25-1.8C400,332.87,394.06,338.77,397.74,340.21Z" transform="translate(-10.57 -32.08)" fill="none" stroke="#ccc" stroke-miterlimit="10"/>
      <path d="M390.52,358.66A4.63,4.63,0,0,0,394,360a1.2,1.2,0,0,0,.52-.08,1,1,0,0,0,.35-.31,2.44,2.44,0,0,0,.27-2.22,4.55,4.55,0,0,0-1.34-1.87C391.31,353.32,388.28,356.1,390.52,358.66Z" transform="translate(-10.57 -32.08)" fill="none" stroke="#ccc" stroke-miterlimit="10"/>
      <path d="M365,363.84c-.67.79-.31,2,.22,2.9a1.06,1.06,0,0,0,.55.53,1.11,1.11,0,0,0,.62-.06,2.94,2.94,0,0,0,1.82-1.09,2.8,2.8,0,0,0,.29-1,1.89,1.89,0,0,0-.29-1.61,2,2,0,0,0-1.81-.22,2.84,2.84,0,0,0-1.64.75" transform="translate(-10.57 -32.08)" fill="none" stroke="#ccc" stroke-miterlimit="10"/>
      <path d="M364,385.92a2.42,2.42,0,0,0,1.28,1.95,2.94,2.94,0,0,0,1.16.2,3,3,0,0,0,1.55-.31,2.79,2.79,0,0,0,1.16-2.23,2.72,2.72,0,0,0-.3-1.7,3.17,3.17,0,0,0-2.34-1.17C364.25,382.33,363.75,384,364,385.92Z" transform="translate(-10.57 -32.08)" fill="none" stroke="#ccc" stroke-miterlimit="10"/>
      <path d="M265.43,369.87c-1.44-1.74-5.21-.86-6.35.84-1.39,2.07-.3,5.14,2.32,5.17a4.8,4.8,0,0,0,4-2.11A3.38,3.38,0,0,0,265.43,369.87Z" transform="translate(-10.57 -32.08)" fill="none" stroke="#ccc" stroke-miterlimit="10"/>
      <path d="M250.43,351.92a3.69,3.69,0,0,0-1,3.69,3.08,3.08,0,0,0,3.07,2.14,5.53,5.53,0,0,0,2.42-1.06,4.52,4.52,0,0,0,2.23-2.42c.41-1.71-1.4-3.29-3.16-3.34s-3.36.92-4.84,1.85" transform="translate(-10.57 -32.08)" fill="none" stroke="#ccc" stroke-miterlimit="10"/>
      <path d="M266.3,329.65a3.84,3.84,0,0,0-2.77-2.08c-1.84-.25-3.31,4.2-2.19,5.41a2.35,2.35,0,0,0,1.56.57,4.08,4.08,0,0,0,2.69-.42A2.79,2.79,0,0,0,266.3,329.65Z" transform="translate(-10.57 -32.08)" fill="none" stroke="#ccc" stroke-miterlimit="10"/>
      <path d="M253.43,309.35a1.39,1.39,0,0,0-.39.64,9.16,9.16,0,0,0-.36,1.68c0,.28-.14.7.07.95a.63.63,0,0,0,.46.16,3.67,3.67,0,0,0,2.16-.58,1.69,1.69,0,0,0,.88-1.3,1.39,1.39,0,0,0-.2-.69,2,2,0,0,0-1.25-.91A1.89,1.89,0,0,0,253.43,309.35Z" transform="translate(-10.57 -32.08)" fill="none" stroke="#ccc" stroke-miterlimit="10"/>
      <path d="M256,298.8a1.42,1.42,0,0,0,.67,1.26,1.18,1.18,0,0,0,.74,0,2.29,2.29,0,0,0,1.66-2.43.93.93,0,0,0-.16-.46c-.26-.34-.79-.29-1.21-.2C256.46,297.27,256,297.37,256,298.8Z" transform="translate(-10.57 -32.08)" fill="none" stroke="#ccc" stroke-miterlimit="10"/>
      <path d="M251.19,267.12a1.13,1.13,0,0,0,1,0,3.36,3.36,0,0,0,.82-.58l.69-.6a2.39,2.39,0,0,0,.54-.59.81.81,0,0,0,.05-.77,1.2,1.2,0,0,0-.42-.39l-.86-.57C251.3,262.49,249.53,266.26,251.19,267.12Z" transform="translate(-10.57 -32.08)" fill="none" stroke="#ccc" stroke-miterlimit="10"/>
      <path d="M251.13,247.21a1.76,1.76,0,0,0,1.47.69,2.08,2.08,0,0,0,.94-.14,2.82,2.82,0,0,0,.79-.61,3,3,0,0,0,1-1.42,2,2,0,0,0-.5-1.62c-.81-1-2.36-2-3.23-.53C251.09,244.34,250.66,246.46,251.13,247.21Z" transform="translate(-10.57 -32.08)" fill="none" stroke="#ccc" stroke-miterlimit="10"/>
      <path d="M258.48,225.07a.88.88,0,0,0,.42.05.84.84,0,0,0,.32-.16,3.78,3.78,0,0,0,1.35-1.87,2.13,2.13,0,0,0,.12-.88c-.19-1.67-3.06-2.25-3.93-.84S257.06,224.64,258.48,225.07Z" transform="translate(-10.57 -32.08)" fill="none" stroke="#ccc" stroke-miterlimit="10"/>
    </g>
  </g>
  <g id="Layer_5" data-name="Layer 5">
    <path d="M347,243.64c-4.32-2.94-5.34-8.77-6-14-.44-3.52-.87-7.15.15-10.55a33.61,33.61,0,0,1,2.84-6A54.26,54.26,0,0,0,348.7,201" transform="translate(-10.57 -32.08)" fill="none" stroke="#ccc" stroke-miterlimit="10"/>
    <path d="M354.72,225.61A44,44,0,0,1,352.4,218a18.33,18.33,0,0,0-1.06-4.63,4,4,0,0,0-3.67-2.56" transform="translate(-10.57 -32.08)" fill="none" stroke="#ccc" stroke-miterlimit="10"/>
    <path d="M363.3,223.37l-5-6.87c-1.37-1.89-2.82-4.07-2.38-6.36.33-1.69,1.62-3,2.85-4.2l6.2-6.06a13.73,13.73,0,0,0,2.86-3.49,8.88,8.88,0,0,0,.37-6.35" transform="translate(-10.57 -32.08)" fill="none" stroke="#ccc" stroke-miterlimit="10"/>
    <path d="M366.62,203.59a8.36,8.36,0,0,1,6.92,4.05,12.06,12.06,0,0,1,1.46,8.08" transform="translate(-10.57 -32.08)" fill="none" stroke="#ccc" stroke-miterlimit="10"/>
    <path d="M387.5,210.43a24.74,24.74,0,0,1-8.63-10.26l-2.94-5.35c-1.05-1.92-2.14-4-1.95-6.16" transform="translate(-10.57 -32.08)" fill="none" stroke="#ccc" stroke-miterlimit="10"/>
    <path d="M386.67,197.33a2.49,2.49,0,0,1-1.73,1.45c3.72-.28,7.9-.41,10.65,2.11a7,7,0,0,1,2.14,6.11c-.52,3.32-3.45,6.47-2.25,9.61" transform="translate(-10.57 -32.08)" fill="none" stroke="#ccc" stroke-miterlimit="10"/>
    <path d="M398.35,198.31a7.39,7.39,0,0,1-3.3-6.64" transform="translate(-10.57 -32.08)" fill="none" stroke="#ccc" stroke-miterlimit="10"/>
    <path d="M407.21,192.48a25.73,25.73,0,0,0-3.13,23.28" transform="translate(-10.57 -32.08)" fill="none" stroke="#ccc" stroke-miterlimit="10"/>
    <path d="M417,213.63a6.07,6.07,0,0,1-.45-7.77c.68-.87,1.6-1.53,2.21-2.45a2.51,2.51,0,0,0,.05-3.05,3.27,3.27,0,0,0-1.32-.7q-4-1.38-8.08-2.48" transform="translate(-10.57 -32.08)" fill="none" stroke="#ccc" stroke-miterlimit="10"/>
    <path d="M424.85,193.35l-1,9.23a6.62,6.62,0,0,0,1.6,6.29l4.52,5.88" transform="translate(-10.57 -32.08)" fill="none" stroke="#ccc" stroke-miterlimit="10"/>
    <path d="M427.43,199.88a9.72,9.72,0,0,0,5.3,1.75c1.66,0,3.46-.31,4.86.59a5.72,5.72,0,0,1,2.06,3.74,31.33,31.33,0,0,1,.7,9" transform="translate(-10.57 -32.08)" fill="none" stroke="#ccc" stroke-miterlimit="10"/>
    <path d="M444.43,206a17.14,17.14,0,0,1,2.37-11.77" transform="translate(-10.57 -32.08)" fill="none" stroke="#ccc" stroke-miterlimit="10"/>
    <path d="M446.49,204.08a29.41,29.41,0,0,1,2.91,13.59" transform="translate(-10.57 -32.08)" fill="none" stroke="#ccc" stroke-miterlimit="10"/>
    <path d="M280.59,225.35a118.83,118.83,0,0,1,3.34-21" transform="translate(-10.57 -32.08)" fill="none" stroke="#ccc" stroke-miterlimit="10"/>
    <path d="M279.45,213.25a47.64,47.64,0,0,1-5.28-13.15c-.63-2.66-1.07-5.47-2.69-7.67" transform="translate(-10.57 -32.08)" fill="none" stroke="#ccc" stroke-miterlimit="10"/>
    <path d="M266.56,216.47c-3.65-2.94,3.15-9.21,1.88-13-.71-2.09-3.34-3.86-4.63-5.62a25.63,25.63,0,0,1-4-8l-.82.42" transform="translate(-10.57 -32.08)" fill="none" stroke="#ccc" stroke-miterlimit="10"/>
    <path d="M247.09,192.42c-1.35,1.3-3.63.88-5.26,1.82-2.28,1.32-2.3,4.61-1.61,7.16.74,2.74,2,5.43,1.84,8.27" transform="translate(-10.57 -32.08)" fill="none" stroke="#ccc" stroke-miterlimit="10"/>
    <path d="M230.87,188.45A12.06,12.06,0,0,1,232.14,200a52.82,52.82,0,0,1-3.29,5.54,9,9,0,0,0-1.47,6.14" transform="translate(-10.57 -32.08)" fill="none" stroke="#ccc" stroke-miterlimit="10"/>
    <path d="M227.19,204c-.18-1.32-1.35-2.23-2.31-3.16a13.68,13.68,0,0,1-3.54-13.49l-.27,1.63" transform="translate(-10.57 -32.08)" fill="none" stroke="#ccc" stroke-miterlimit="10"/>
    <path d="M217.47,195.12l-4.17,4c-2.4,2.28-4.89,4.71-5.86,7.88a19.49,19.49,0,0,0-.32,7.33" transform="translate(-10.57 -32.08)" fill="none" stroke="#ccc" stroke-miterlimit="10"/>
    <path d="M206.45,201.25a15.74,15.74,0,0,1-3.16-10.58" transform="translate(-10.57 -32.08)" fill="none" stroke="#ccc" stroke-miterlimit="10"/>
    <path d="M194.47,192.88a9.69,9.69,0,0,0-3.78,6,28.78,28.78,0,0,0-.42,7.22l.17,6.59" transform="translate(-10.57 -32.08)" fill="none" stroke="#ccc" stroke-miterlimit="10"/>
    <path d="M265.5,94.5s44.29,63,43,90c-1,21,17,17,18,4s14-71,25-81,15-16,15-16" transform="translate(-10.57 -32.08)" fill="none" stroke="#ccc" stroke-miterlimit="10"/>
    <path d="M334.5,164.5s14-50,39-64" transform="translate(-10.57 -32.08)" fill="none" stroke="#ccc" stroke-miterlimit="10"/>
    <path d="M332.5,181.5c-.66,1,30-68,52-77" transform="translate(-10.57 -32.08)" fill="none" stroke="#ccc" stroke-miterlimit="10"/>
    <path d="M304.5,175.5s-16-56-49-71" transform="translate(-10.57 -32.08)" fill="none" stroke="#ccc" stroke-miterlimit="10"/>
    <path d="M306.5,191.5s-24-65-63-83" transform="translate(-10.57 -32.08)" fill="none" stroke="#ccc" stroke-miterlimit="10"/>
  </g>
  <g id="Layer_6" data-name="Layer 6">
    <line x1="306.93" y1="140.42" x2="461.93" y2="81.42" fill="none" stroke="gray" stroke-miterlimit="10"/>
    <line x1="352.93" y1="178.42" x2="461.93" y2="143.42" fill="none" stroke="gray" stroke-miterlimit="10"/>
    <line x1="303.93" y1="227.42" x2="461.93" y2="201.42" fill="none" stroke="gray" stroke-miterlimit="10"/>
    <line x1="305.93" y1="268.42" x2="461.93" y2="270.42" fill="none" stroke="gray" stroke-miterlimit="10"/>
    <line x1="312.93" y1="260.42" x2="461.93" y2="231.42" fill="none" stroke="gray" stroke-miterlimit="10"/>
    <line x1="279.93" y1="289.42" x2="147.93" y2="291.42" fill="none" stroke="gray" stroke-miterlimit="10"/>
    <line x1="226.93" y1="201.42" x2="148.93" y2="197.42" fill="none" stroke="gray" stroke-miterlimit="10"/>
    <line x1="285.93" y1="310.42" x2="149.93" y2="352.42" fill="none" stroke="gray" stroke-miterlimit="10"/>
    <line x1="299.93" y1="398.42" x2="148.93" y2="411.42" fill="none" stroke="gray" stroke-miterlimit="10"/>
    <line x1="197.93" y1="155.42" x2="148.93" y2="141.42" fill="none" stroke="gray" stroke-miterlimit="10"/>
    <line x1="278.93" y1="155.42" x2="144.93" y2="68.42" fill="none" stroke="gray" stroke-miterlimit="10"/>
  </g>
  <g id="Layer_7" data-name="Layer 7">
    <text transform="translate(467.43 76.31)" font-size="20" font-family="CenturyGothic, Century Gothic">Trigone of <tspan x="0" y="24">bladder</tspan></text>
    <text transform="translate(467.43 136.31)" font-size="20" font-family="CenturyGothic, Century Gothic">Wall of <tspan x="0" y="24">Urinary bladder</tspan></text>
    <text transform="translate(467.43 205.31)" font-size="20" font-family="CenturyGothic, Century Gothic">Urethral crest</text>
    <text transform="translate(467.43 241.31)" font-size="20" font-family="CenturyGothic, Century Gothic">Prostatic utricle</text>
    <text transform="translate(467.43 282.31)" font-size="20" font-family="CenturyGothic, Century Gothic">Ejaculatory duct</text>
  </g>
  <g id="Layer_8" data-name="Layer 8">
    <text transform="translate(65.16 59.31)" font-size="20" font-family="CenturyGothic, Century Gothic">Annulus<tspan x="-11.26" y="24">Urethralis</tspan></text>
    <text transform="translate(42.16 130.31)" font-size="20" font-family="CenturyGothic, Century Gothic">Mucosa of<tspan x="25.19" y="24">bladder</tspan></text>
    <text transform="translate(3.95 202.31)" font-size="20" font-family="CenturyGothic, Century Gothic">Prostate gland</text>
    <text transform="translate(13.13 291.31)" font-size="20" font-family="CenturyGothic, Century Gothic">Prostatic sinus</text>
    <text transform="translate(0 347.31)" font-size="20" font-family="CenturyGothic, Century Gothic">Prostatic gland<tspan x="63.84" y="24">opening</tspan></text>
    <text transform="translate(16.76 405.31)" font-size="20" font-family="CenturyGothic, Century Gothic">Membranous<tspan x="58.85" y="24">urethra</tspan></text>
  </g>
  <g id="Layer_9" data-name="Layer 9">
    <text transform="translate(168.96 34.36)" font-size="40" fill="#ff174c" font-family="CenturyGothic, Century Gothic">Prostatic urethra</text>
  </g>
</svg>
