<?xml version="1.0" encoding="utf-8"?>
<!-- Generator: Adobe Illustrator 21.0.0, SVG Export Plug-In . SVG Version: 6.00 Build 0)  -->
<svg version="1.1" xmlns="http://www.w3.org/2000/svg" xmlns:xlink="http://www.w3.org/1999/xlink" x="0px" y="0px"
	 viewBox="0 0 568.5 439.5" style="enable-background:new 0 0 568.5 439.5;" xml:space="preserve">
<style type="text/css">
	.st0{fill:none;stroke:#666766;stroke-width:0.2978;stroke-miterlimit:10;}
	.st1{fill:#CCCCCB;}
	.st2{fill:#109A48;}
	.st3{fill:none;stroke:#CCCCCB;stroke-width:1.3709;stroke-linecap:round;stroke-miterlimit:10;}
	.st4{font-family:'MyriadPro-Regular';}
	.st5{font-size:10px;}
	.st6{fill:none;stroke:#666766;stroke-width:0.5;stroke-miterlimit:10;}
	.st7{fill:#6CBE45;}
	.st8{font-size:30px;}
	.st9{fill:none;stroke:#99CC99;stroke-width:0.6854;stroke-linecap:round;stroke-miterlimit:10;}
	.st10{opacity:0.5;fill:#D1E8C5;}
	.st11{fill:none;stroke:#FFCC66;stroke-width:0.6854;stroke-miterlimit:10;}
	.st12{fill:none;stroke:#CB9831;stroke-width:0.6854;stroke-miterlimit:10;}
	.st13{fill:none;stroke:#44B649;stroke-width:0.6854;stroke-miterlimit:10;}
	.st14{fill:none;stroke:#CB9866;stroke-width:0.6854;stroke-miterlimit:10;}
	.st15{fill:#44B649;}
	.st16{fill:none;stroke:#44B649;stroke-width:0.3427;stroke-miterlimit:10;}
	.st17{display:none;}
	.st18{display:inline;fill:url(#SVGID_1_);}
	.st19{display:inline;}
	.st20{fill:#FFCD34;}
	.st21{fill:none;stroke:#6FC067;stroke-width:0.6854;stroke-miterlimit:10;}
	.st22{fill:none;stroke:#A8D48C;stroke-width:0.3427;stroke-miterlimit:10;}
	.st23{fill:#FBF49C;}
	.st24{fill:none;stroke:#FBF49C;stroke-linecap:round;stroke-miterlimit:10;}
	.st25{opacity:0.5;fill:none;stroke:#CCCC98;stroke-width:10;stroke-linecap:round;stroke-miterlimit:10;}
	.st26{fill:#D1E8C5;}
	.st27{opacity:0.5;}
	.st28{fill:#8ACA88;}
	.st29{fill:none;stroke:#109A48;stroke-width:0.6854;stroke-linecap:round;stroke-miterlimit:10;}
</style>
<g id="Layer_1">
	
		<image style="display:none;overflow:visible;opacity:0.2;" width="643" height="376" xlink:href="D7FC376A.jpg"  transform="matrix(0.6934 0 0 0.6934 102.8366 14.7325)">
	</image>
	
		<image style="display:none;overflow:visible;opacity:0.2;" width="567" height="430" xlink:href="D7FC376D.jpg"  transform="matrix(0.5458 0 0 0.5458 59.3873 19.7847)">
	</image>
	
		<image style="display:none;overflow:visible;opacity:0.2;" width="622" height="619" xlink:href="D7FC376F.jpg"  transform="matrix(0.4861 0 0 0.4946 63.3901 19.2161)">
	</image>
	<path class="st0" d="M522.1,436.4H116.7c-7.9,0-14.3-6.4-14.3-14.3V30.7c0-7.9,6.4-14.3,14.3-14.3h405.4c7.9,0,14.3,6.4,14.3,14.3
		v391.4C536.4,429.9,530,436.4,522.1,436.4z"/>
</g>
<g id="Layer_2">
	<g>
		<path class="st1" d="M267.5,328.8c0.1-0.1,0,0.1-0.1,0.2c-0.1,0.1-0.1,0.2-0.2,0.2c-0.1,0.2-0.3,0.3-0.5,0.4
			c-0.2,0.1-0.4,0.2-0.5,0.3c-0.2,0.1-0.4,0.2-0.6,0.2l-0.6,0.1l-0.6,0c-0.4,0-0.8,0-1.2-0.1c-0.8-0.1-1.5-0.3-2.2-0.5
			c-0.7-0.3-1.4-0.5-2.1-0.9c-2.7-1.3-5.1-3-7.6-4.7c-1.2-0.9-2.3-1.8-3.5-2.7l-3.4-2.9c-2.2-2-4.4-4-6.5-6
			c-4.2-4.1-8.5-8.2-12.4-12.7c-1-1.1-1.9-2.3-2.8-3.5c-0.9-1.2-1.7-2.5-2.2-3.9c-0.2-0.7-0.4-1.5-0.2-2.3c0.2-0.8,0.7-1.4,1.3-1.9
			c1.2-1,2.5-1.7,3.7-2.4c2.6-1.4,5.3-2.7,8.2-3.3c1.5-0.3,3-0.3,4.4,0.4c0.7,0.3,1.3,0.8,1.9,1.2c0.6,0.4,1.2,0.8,1.9,1.2
			c2.5,1.5,5,3.1,7.3,5c2.3,1.9,4.3,4.1,5.9,6.6c1.6,2.5,2.4,5.4,3.7,8c1.2,2.7,2.5,5.3,4,7.9c0.7,1.3,1.5,2.5,2.3,3.8l1.2,1.8
			c0.4,0.6,0.8,1.2,1.1,1.9c0.6,1.4,0.9,2.8,1,4.3c0,0.7,0,1.5-0.1,2.2l-0.1,0.5c-0.1,0.2-0.1,0.3-0.2,0.5c-0.2,0.3-0.5,0.6-0.8,0.7
			L267.5,328.8z M266.8,328.6l0.5-0.1c0.4-0.1,0.7-0.3,0.8-0.7c0.1-0.2,0.1-0.3,0.2-0.5l0.1-0.5c0.1-0.7,0.1-1.5,0.1-2.2
			c-0.1-1.5-0.4-2.9-1-4.3c-0.3-0.7-0.7-1.3-1.1-1.9l-1.3-1.8c-0.8-1.2-1.6-2.5-2.4-3.8c-1.5-2.5-2.8-5.2-4.1-7.9
			c-1.3-2.7-2.1-5.5-3.7-8c-1.6-2.5-3.6-4.6-5.9-6.5c-2.3-1.9-4.8-3.5-7.3-5c-0.6-0.4-1.3-0.8-1.9-1.2c-0.6-0.4-1.2-0.9-1.8-1.2
			c-1.3-0.6-2.8-0.6-4.3-0.3c-2.9,0.5-5.6,1.8-8.1,3.3c-1.3,0.7-2.6,1.5-3.7,2.4c-0.5,0.5-1,1-1.1,1.7c-0.2,0.7-0.1,1.4,0.2,2.1
			c0.5,1.4,1.3,2.6,2.1,3.8c0.9,1.2,1.8,2.3,2.8,3.4c3.9,4.4,8.1,8.5,12.4,12.6c2.1,2,4.3,4,6.5,6l3.4,2.8c1.1,0.9,2.3,1.8,3.5,2.7
			c2.4,1.7,4.8,3.4,7.5,4.6c0.7,0.3,1.3,0.5,2,0.8c0.7,0.2,1.4,0.4,2.1,0.5c0.4,0.1,0.7,0.1,1,0.1l0.5,0l0.5-0.1
			c0.2,0,0.3-0.1,0.5-0.2c0.1-0.1,0.3-0.1,0.4-0.2c0.1-0.1,0.3-0.2,0.4-0.3C266.7,328.7,266.8,328.6,266.8,328.6z"/>
	</g>
	<g>
		<path class="st1" d="M233.1,308.6c-3.8-2.9-7.9-5.4-12.2-7.5c-2.2-1-4.4-1.9-6.7-2.5l-3.5-1c-1.2-0.3-2.3-0.7-3.4-1.4
			c-1.1-0.6-1.9-1.8-2.1-3c-0.3-1.2-0.2-2.5,0-3.7c0.3-2.4,1-4.7,1.7-7c1.3-4.6,2-9.4,2.2-14.2c0.3-4.8,0.1-9.6-0.2-14.4
			c-0.4-4.8-0.8-9.6-2.1-14.2c-1.2-4.6-2.7-9.2-4-13.8c-1.4-4.6-2.8-9.2-3.7-13.9c0.9,4.7,2.4,9.3,3.8,13.9
			c1.4,4.6,2.9,9.2,4.1,13.8c1.3,4.6,1.7,9.5,2.2,14.2c0.4,4.8,0.6,9.6,0.3,14.4c-0.2,4.8-0.9,9.6-2.2,14.3c-0.6,2.3-1.3,4.6-1.6,7
			c-0.1,1.2-0.2,2.4,0.1,3.5c0.2,1.1,0.9,2.1,1.9,2.7c1,0.6,2.1,1,3.3,1.3l3.5,1c2.3,0.6,4.6,1.5,6.8,2.5c4.4,2.1,8.5,4.6,12.3,7.5
			c0.2,0.1,0.2,0.3,0.1,0.5C233.5,308.7,233.2,308.7,233.1,308.6L233.1,308.6L233.1,308.6z"/>
	</g>
	<g>
		<path class="st1" d="M207.4,275.1c0-0.1-0.1-0.3-0.1-0.4c0-0.1,0-0.2,0-0.3c0-0.2,0-0.4,0-0.6l0.1-1.1l0.1-2.2
			c0.1-1.5,0.1-3,0.1-4.5c0-3-0.2-6-0.8-8.9c-0.5-2.9-1.7-5.6-2.9-8.4l-3.7-8.2c-2.5-5.5-4.8-11.1-6.6-16.8
			c-0.9-2.9-1.5-5.9-1.8-8.9c0-0.8-0.1-1.5-0.1-2.3l0.2-2.3c0.3-1.5,0.6-3,0.9-4.4c1.4-5.9,3.2-11.7,5.7-17.2
			c2.5-5.5,5.6-10.8,9.6-15.3c2-2.2,4.3-4.3,6.5-6.3c2.2-2,4.5-4,6.9-5.8c4.7-3.8,9.4-7.5,14.3-11c-4.8,3.6-9.6,7.3-14.2,11.1
			c-2.3,1.9-4.6,3.9-6.8,5.9c-2.2,2-4.4,4.1-6.4,6.3c-4,4.5-7,9.8-9.4,15.2c-2.4,5.5-4.2,11.2-5.5,17.1c-0.3,1.5-0.6,2.9-0.8,4.4
			l-0.2,2.2c0,0.7,0.1,1.5,0.1,2.2c0.3,3,1,5.9,1.8,8.7c1.8,5.7,4.2,11.2,6.7,16.7l3.8,8.2c1.2,2.7,2.5,5.6,3.1,8.6
			c0.6,3,0.8,6.1,0.9,9.1c0,1.5,0,3-0.1,4.5l-0.1,2.3l0,1.1c0,0.2,0,0.4,0,0.5c0,0.1,0,0.2,0,0.2c0,0,0,0.1,0,0.1l0,0.4
			c0,0.3-0.4,0.6-0.7,0.6C207.7,275.6,207.5,275.4,207.4,275.1z"/>
	</g>
	<g>
		<path class="st1" d="M192.4,204.1c-0.7-1.9-1.1-3.8-1.3-5.8c-0.2-2-0.1-4.1,0.8-6c0.8-1.8,2-3.4,3.2-5c1.2-1.5,2.5-3,3.7-4.4
			c1.3-1.5,2.5-2.9,3.6-4.5c1.1-1.6,2.2-3.2,3.3-4.8c2.1-3.2,4.2-6.5,6.2-9.8c-1.9,3.3-3.9,6.7-5.9,10c-1,1.6-2,3.3-3.1,4.9
			c-1.1,1.6-2.3,3.1-3.5,4.6c-1.2,1.5-2.4,3-3.6,4.5c-1.1,1.5-2.2,3.1-2.9,4.8c-0.7,1.7-0.7,3.6-0.5,5.4c0.2,1.8,0.7,3.7,1.4,5.4
			l0,0c0.1,0.4,0,0.8-0.4,0.9S192.5,204.4,192.4,204.1C192.4,204.1,192.4,204.1,192.4,204.1z"/>
	</g>
	<g>
		<path class="st1" d="M191.3,194.5c-2.4,0.4-4.8-0.1-6.9-1.1c-2.1-1.1-3.8-2.8-5-4.8c-1.2-2-1.9-4.2-2.4-6.4
			c-0.4-2.2-0.5-4.5-0.4-6.8c0.3-4.5,1.3-8.9,1.5-13.4c0.2-4.5-0.5-8.9-1.8-13.2c1.5,4.2,2.3,8.7,2.2,13.2c0,4.5-1,8.9-1.1,13.4
			c-0.1,2.2,0.1,4.4,0.6,6.6c0.5,2.1,1.3,4.2,2.4,6.1c1.1,1.8,2.7,3.4,4.6,4.3c1.9,0.9,4.1,1.2,6.1,0.9l0.1,0
			c0.4-0.1,0.7,0.2,0.8,0.6C191.9,194.1,191.7,194.5,191.3,194.5C191.3,194.5,191.3,194.5,191.3,194.5z"/>
	</g>
	<g>
		<path class="st1" d="M176,166.8c0.3-0.7,0.6-1.7,0.6-2.6c0-0.9-0.1-1.8-0.4-2.7c-0.5-1.8-1.6-3.4-2.9-4.8
			c-2.7-2.8-6.2-4.6-9.7-6.5c-3.5-1.8-7.2-3.4-10.7-5.4c-1.7-1-3.5-2.1-5-3.5c-1.5-1.4-2.8-3-3.8-4.9c-1-1.8-1.5-3.8-2-5.8
			c-0.4-2-0.7-4-0.8-6c-0.3-4-0.2-8,0.3-12c0.5-4,1.3-7.9,2.6-11.7c0.6-1.9,1.4-3.8,2.3-5.6c0.9-1.8,2-3.5,3.1-5.2
			c4.5-6.6,9.4-12.9,14.3-19.2c5-6.2,9.9-12.5,15.2-18.5c2.8-2.9,5.9-5.4,9.1-7.9c3.2-2.4,6.5-4.6,10-6.7c3.4-2,7-3.9,10.6-5.6
			c1.8-0.8,3.7-1.6,5.5-2.3c0.9-0.3,1.9-0.7,2.8-1l2.8-0.9c0.9-0.3,1.9-0.6,2.9-0.8c1-0.3,1.9-0.5,2.9-0.8c2-0.4,3.9-0.9,5.9-1.1
			c3.9-0.5,8.2-0.5,11.9,1.2c3.8,1.6,6.3,5.1,10.1,6.1c1.9,0.6,3.9,0.4,5.8,0.3c2-0.3,3.9-0.6,5.9-1c1.9-0.4,3.9-0.9,5.8-1.3
			c1-0.2,2-0.3,3-0.2c1,0.1,2,0.3,3,0.6c1.9,0.6,3.7,1.5,5.5,2.3c1.8,0.9,3.5,1.8,5.3,2.9c3.4,2.1,6.6,4.5,9.8,6.9
			c1.6,1.2,3.2,2.4,4.8,3.5c1.6,1.1,3.4,2.1,5.3,2.6c0.5,0.1,1,0.1,1.4,0.2l1.5,0c1,0,2,0,3,0.1c2,0.1,4,0.4,5.9,0.8
			c1.9,0.4,3.9,1.1,5.7,1.9c1.8,0.8,3.5,1.9,5.2,3c1.6,1.2,3.1,2.6,4.5,4c1.4,1.4,2.9,2.7,4.4,4c3,2.7,6,5.3,8.8,8.1
			c1.4,1.4,2.7,2.9,3.9,4.5c1.2,1.6,2.2,3.3,3,5.2c0.8,1.8,1.1,3.8,1.2,5.8c0,2,0.1,4,0.1,6c0,2-0.1,4-0.6,5.9
			c-0.5,1.9-1.5,3.8-2.9,5.1c-0.3,0.4-0.7,0.7-1.1,1c-0.4,0.3-0.8,0.6-1.2,0.8c-0.4,0.2-0.9,0.5-1.3,0.7l-1.4,0.6
			c-0.9,0.4-1.9,0.6-2.8,1c-1,0.3-1.9,0.5-2.9,0.7c1-0.2,1.9-0.5,2.9-0.7c0.9-0.3,1.9-0.6,2.8-1l1.4-0.6c0.4-0.2,0.9-0.5,1.3-0.7
			c0.4-0.2,0.8-0.5,1.2-0.8c0.4-0.3,0.8-0.6,1.1-1c1.4-1.4,2.4-3.2,2.9-5.1c0.5-1.9,0.6-3.9,0.6-5.9c0-2-0.1-4-0.1-6
			c-0.1-2-0.4-4-1.2-5.8c-0.8-1.8-1.8-3.5-3-5.1c-1.2-1.6-2.5-3.1-3.9-4.5c-2.8-2.8-5.8-5.4-8.8-8.1c-1.5-1.3-3-2.6-4.4-4
			c-1.4-1.4-2.9-2.8-4.5-3.9c-1.6-1.2-3.3-2.2-5.1-3c-1.8-0.8-3.7-1.4-5.6-1.8c-1.9-0.4-3.9-0.7-5.9-0.8c-1-0.1-2-0.1-3-0.1l-1.5,0
			c-0.5,0-1,0-1.5-0.2c-2-0.5-3.7-1.5-5.4-2.6c-1.7-1.1-3.3-2.3-4.8-3.5c-3.2-2.4-6.4-4.8-9.8-6.8c-1.7-1-3.4-2-5.2-2.8
			c-1.8-0.9-3.6-1.7-5.5-2.3c-1.9-0.6-3.8-0.8-5.8-0.4c-1.9,0.4-3.9,0.9-5.8,1.3c-2,0.4-3.9,0.7-5.9,1c-2,0.2-4.1,0.3-6-0.3
			c-2-0.5-3.7-1.7-5.3-2.9c-1.6-1.2-3.1-2.4-4.9-3.2c-3.6-1.6-7.7-1.6-11.6-1.1c-2,0.2-3.9,0.7-5.8,1.1c-1,0.2-1.9,0.5-2.9,0.8
			c-1,0.3-1.9,0.5-2.9,0.8l-2.8,0.9c-0.9,0.3-1.9,0.7-2.8,1c-1.9,0.7-3.7,1.5-5.5,2.3c-3.6,1.7-7.1,3.5-10.5,5.6
			c-3.4,2-6.7,4.3-9.9,6.6c-3.1,2.4-6.3,4.9-8.9,7.8c-5.2,6-10.1,12.3-15.1,18.5c-4.9,6.3-9.8,12.6-14.2,19.2
			c-1.1,1.6-2.1,3.3-3,5.1c-0.8,1.8-1.6,3.6-2.2,5.5c-1.3,3.7-2.1,7.6-2.6,11.5c-0.5,3.9-0.6,7.9-0.3,11.8c0.4,3.9,0.9,7.9,2.7,11.3
			c0.9,1.7,2.1,3.2,3.5,4.5c1.4,1.3,3.1,2.3,4.8,3.3c3.4,1.9,7.1,3.5,10.6,5.4c3.5,1.8,7.2,3.7,10.1,6.7c1.4,1.5,2.7,3.3,3.3,5.3
			c0.6,2.1,0.7,4.3-0.3,6.4c-0.2,0.3-0.6,0.5-0.9,0.3C175.9,167.6,175.8,167.2,176,166.8L176,166.8L176,166.8z"/>
	</g>
	<g>
		<path class="st1" d="M146,133.7c1,1.3,2.1,2.6,3.4,3.3c0.7,0.4,1.3,0.5,1.8,0.2c0.5-0.3,0.9-1,1.1-1.7c0.4-1.5,0.5-3.2,0.6-4.9
			c0-0.8,0-1.7-0.1-2.5c-0.1-0.8-0.1-1.7-0.3-2.5c-0.3-1.6-0.7-3.3-1.2-4.9c-0.5-1.6-1.2-3.2-1.6-4.9c-0.5-1.7-0.6-3.5-0.3-5.3
			c0.4-1.7,1-3.4,1.8-4.9c0.8-1.5,1.8-2.9,2.7-4.4c0.8-1.4,1.4-3,1.6-4.6c0.1-0.8,0.1-1.6,0.2-2.5c0-0.4,0-0.9,0.1-1.3
			c0.1-0.4,0.1-0.9,0.3-1.3c0.4-1.7,1.3-3.3,2.4-4.7c1.1-1.4,2.3-2.6,3.5-3.8c0.6-0.6,1.1-1.2,1.7-1.9c0.5-0.6,1-1.3,1.5-2.1
			c1-1.4,2-2.8,3-4.1c0.5-0.7,1-1.4,1.4-2.1c0.5-0.7,0.9-1.4,1.4-2.1c1.1-1.4,2.6-2.3,4.1-3.2c1.5-0.9,3-1.7,4.3-2.7
			c0.7-0.5,1.3-1,1.9-1.6c0.6-0.6,1.1-1.2,1.7-1.9c1.1-1.3,2.3-2.5,3.5-3.8c1.2-1.2,2.2-2.5,3.1-4c0.2-0.4,0.4-0.7,0.7-1.1
			c0.2-0.4,0.5-0.7,0.8-1.1l0.9-1l1-0.9c2.6-2.2,5.5-4.1,8.4-5.8c5.8-3.5,11.9-6.7,18-9.6c3.1-1.4,6.4-2.5,9.7-3
			c3.4-0.5,6.8-0.5,10.1,0.5c-3.3-0.9-6.8-1-10.1-0.4c-3.4,0.5-6.6,1.7-9.7,3.1c-6.1,3-12.1,6.2-17.9,9.8c-2.9,1.8-5.7,3.7-8.3,5.9
			l-0.9,0.9l-0.8,0.9c-0.3,0.3-0.5,0.7-0.7,1c-0.2,0.4-0.4,0.7-0.7,1.1c-0.9,1.5-2,2.8-3.1,4.1c-1.2,1.2-2.4,2.5-3.4,3.8
			c-0.5,0.6-1.1,1.3-1.7,2c-0.6,0.6-1.3,1.2-2,1.7c-1.4,1-2.9,1.9-4.3,2.7c-1.4,0.9-2.9,1.8-3.9,3.1c-0.5,0.6-0.9,1.4-1.4,2.1
			c-0.5,0.7-0.9,1.4-1.4,2.1c-1,1.4-2,2.8-3,4.2c-0.5,0.7-1,1.4-1.5,2.1c-0.5,0.7-1.1,1.3-1.7,1.9c-1.2,1.2-2.4,2.4-3.4,3.8
			c-1,1.3-1.8,2.8-2.2,4.4c-0.1,0.4-0.2,0.8-0.2,1.2c-0.1,0.4-0.1,0.8-0.1,1.2c-0.1,0.8,0,1.7-0.2,2.6c-0.2,1.8-0.9,3.4-1.7,5
			c-0.8,1.5-1.8,2.9-2.6,4.4c-0.8,1.5-1.4,3-1.7,4.6c-0.3,1.6-0.2,3.2,0.3,4.8c0.4,1.6,1.1,3.2,1.7,4.8c0.6,1.6,1,3.3,1.3,5
			c0.2,0.9,0.2,1.7,0.3,2.6c0,0.9,0.1,1.7,0.1,2.6c0,1.7-0.1,3.5-0.6,5.2c-0.3,0.9-0.7,1.8-1.7,2.5c-0.5,0.3-1.1,0.4-1.7,0.3
			c-0.5-0.1-1-0.3-1.4-0.5c-1.6-1-2.8-2.3-3.9-3.7c-0.2-0.3-0.2-0.7,0.1-1C145.4,133.3,145.8,133.3,146,133.7
			C146,133.6,146,133.6,146,133.7L146,133.7z"/>
	</g>
	<g>
		<path class="st1" d="M300,46.6c3.8,5.4,7.7,10.8,11.7,16c0.5,0.7,1.1,1.2,1.6,1.9c0.6,0.5,1.2,1.1,1.9,1.5c1.4,0.8,3,1.2,4.6,1.1
			c1.6,0,3.3-0.4,4.9-0.6c1.6-0.2,3.4,0,4.8,0.9c-1.4-0.9-3.2-0.9-4.8-0.7c-1.6,0.2-3.2,0.7-4.9,0.8c-1.7,0.1-3.4-0.2-4.9-1
			c-0.8-0.4-1.4-1-2.1-1.5c-0.6-0.6-1.2-1.2-1.7-1.9c-4.3-5.1-8.4-10.3-12.3-15.6c-0.2-0.3-0.2-0.7,0.1-1S299.8,46.3,300,46.6
			C300,46.6,300,46.6,300,46.6L300,46.6z"/>
	</g>
	<g>
		<path class="st1" d="M322.5,68.3c0.2,0.6,0.5,1.3,0.8,2c0.3,0.6,0.7,1.2,1.2,1.8c0.5,0.5,1.1,0.9,1.8,1.2c0.7,0.2,1.5,0.1,2.2-0.1
			c-0.7,0.3-1.5,0.5-2.3,0.4c-0.8-0.1-1.5-0.5-2.2-1c-0.6-0.5-1.2-1.1-1.6-1.7c-0.5-0.6-0.9-1.3-1.2-2.1c-0.2-0.3,0-0.8,0.3-0.9
			c0.3-0.2,0.8,0,0.9,0.3C322.5,68.2,322.5,68.2,322.5,68.3L322.5,68.3z"/>
	</g>
	<g>
		<path class="st1" d="M329.6,70.4c-0.1,1.6,0.2,3.4,0.8,5c0.6,1.6,1.5,3.1,2.8,4.3c1.3,1.2,2.7,2.3,4.1,3.4c0.7,0.5,1.5,1.1,2,1.7
			c0.6,0.7,1.1,1.5,1.5,2.3c-0.4-0.8-0.9-1.5-1.6-2.1c-0.6-0.6-1.4-1.1-2.1-1.6c-1.5-1-3-2-4.4-3.1c-1.4-1.2-2.5-2.7-3.3-4.4
			c-0.7-1.7-1.2-3.5-1.3-5.4c0-0.4,0.3-0.7,0.7-0.7S329.6,69.9,329.6,70.4C329.7,70.3,329.7,70.3,329.6,70.4L329.6,70.4z"/>
	</g>
	<g>
		<path class="st1" d="M339.2,74.7c1.4,5.9,2.7,11.9,3.9,17.9c0.3,1.5,0.6,3,1.1,4.4c0.5,1.4,1.2,2.8,2.2,3.8
			c0.5,0.6,1.1,0.9,1.8,1.2c0.7,0.2,1.5,0.2,2.2-0.1c1.4-0.6,2.4-1.9,3-3.3c-0.6,1.4-1.5,2.7-2.9,3.4c-0.7,0.3-1.5,0.4-2.3,0.2
			c-0.7-0.2-1.4-0.6-2-1.2c-2.2-2.2-3.1-5.4-3.8-8.3c-1.4-5.9-2.9-11.8-4.5-17.7l0,0c-0.1-0.4,0.1-0.7,0.5-0.8
			C338.7,74.1,339.1,74.3,339.2,74.7C339.2,74.7,339.2,74.7,339.2,74.7z"/>
	</g>
	<g>
		<path class="st1" d="M291.6,94.8c2.5-0.6,5.1-1.5,7.5-2.7c2.3-1.2,4.6-2.8,5.9-5c0.7-1.1,1-2.3,1-3.6c-0.1-1.3-0.2-2.7-0.4-4
			c-0.3-2.7-0.8-5.3-1.4-8c-0.5-2.7-1.1-5.3-1.5-8c-0.2-1.3-0.4-2.7-0.6-4c-0.1-0.7-0.1-1.4-0.1-2c0-0.7,0.1-1.4,0.2-2
			c0.3-2.6-0.5-5.4-1.7-7.7c-1.2-2.4-3-4.5-5.4-5.9c2.3,1.4,4.2,3.5,5.5,5.9c1.2,2.4,2.1,5.1,1.9,7.9c-0.1,0.7-0.2,1.3-0.2,2
			c0,0.7,0.1,1.3,0.1,2c0.2,1.3,0.4,2.7,0.7,4c0.5,2.6,1.1,5.3,1.7,7.9c0.6,2.6,1.1,5.3,1.5,8c0.2,1.3,0.4,2.7,0.5,4.1
			c0.1,1.4-0.3,2.9-1,4.1c-1.4,2.5-3.8,4.2-6.2,5.5c-2.4,1.3-5,2.3-7.7,3c-0.4,0.1-0.7-0.1-0.8-0.5S291.2,94.9,291.6,94.8
			C291.5,94.8,291.5,94.8,291.6,94.8L291.6,94.8z"/>
	</g>
	<g>
		<path class="st1" d="M266.8,142.4c-0.6,3.2-1.5,6.2-2.5,9.3l-0.4,1.1l-0.5,1.2l-0.6,1.1l-0.7,1c-1,1.3-2.2,2.5-3.4,3.5
			c-1.2,1.1-2.5,2-3.6,3c-1.2,1-2.3,2.1-3.2,3.3c-0.4,0.6-0.9,1.4-1.3,2c-0.5,0.6-1,1.3-1.5,1.9c-1,1.2-2.1,2.4-3.1,3.6
			c-4.1,4.8-8.2,9.6-11.9,14.8c-1.9,2.6-3.5,5.2-5.1,8c-1.5,2.8-2.8,5.7-3.6,8.7c0.8-3.1,2-6,3.5-8.8c1.5-2.8,3.1-5.5,5-8.1
			c3.6-5.2,7.6-10.1,11.7-15c1-1.2,2-2.4,3-3.7c0.5-0.6,1-1.2,1.4-1.9c0.5-0.6,0.8-1.2,1.3-2c0.9-1.4,2.1-2.5,3.3-3.6
			c1.2-1.1,2.4-2.1,3.6-3.1c1.2-1,2.3-2.2,3.1-3.4l0.6-1l0.5-1l0.4-1l0.4-1.1c0.9-3,1.7-6.1,2.3-9.1l0,0c0.1-0.4,0.4-0.6,0.8-0.6
			C266.6,141.7,266.9,142,266.8,142.4C266.8,142.4,266.8,142.4,266.8,142.4z"/>
	</g>
	<g>
		<path class="st1" d="M284,167c-1.7,0.1-3.5,0.5-5.2,1c-1.7,0.5-3.4,1.1-5,1.9c-3.3,1.5-6.3,3.4-9.2,5.5
			c-5.8,4.3-10.6,9.8-15.4,15.3c-2.3,2.8-4.6,5.6-6.7,8.5c-2.2,2.9-4.2,5.9-6.2,9c-1.9,3.1-3.8,6.2-5.3,9.5
			c-1.5,3.3-2.9,6.7-3.4,10.3c0.5-3.6,1.8-7.1,3.3-10.4c1.5-3.3,3.3-6.5,5.2-9.6c1.9-3.1,3.9-6.2,6-9.1c2.1-3,4.3-5.8,6.6-8.7
			c4.6-5.6,9.4-11.2,15.3-15.7c2.9-2.2,6-4.2,9.4-5.8c1.7-0.8,3.4-1.5,5.2-2c1.8-0.5,3.6-1,5.5-1.1c0.4,0,0.7,0.3,0.7,0.6
			C284.7,166.6,284.4,166.9,284,167C284,167,284,167,284,167L284,167z"/>
	</g>
	<g>
		<path class="st1" d="M229.9,283.3c-2.6,0.4-5.1,0.5-7.7,0.3c-1.3-0.1-2.6-0.4-3.8-0.9c-1.2-0.5-2.4-1.2-3.3-2.3
			c-0.9-1.1-1.3-2.4-1.4-3.7c0-1.3,0.1-2.6,0.3-3.8c0.5-2.5,1.2-4.9,1.9-7.3c1.5-4.8,3.3-9.4,4.9-14.2c0.8-2.4,1.5-4.8,2-7.2
			c0.5-2.4,0.9-5,0.4-7.4c0.6,2.5,0.2,5-0.3,7.5c-0.4,2.5-1.1,4.9-1.8,7.3c-1.4,4.8-3.1,9.5-4.6,14.3c-0.7,2.4-1.4,4.8-1.8,7.2
			c-0.2,1.2-0.3,2.4-0.2,3.6c0.1,1.2,0.5,2.3,1.2,3.2c1.5,1.8,4,2.4,6.4,2.6c2.4,0.2,4.9,0,7.3-0.4l0,0c0.4-0.1,0.7,0.2,0.8,0.6
			C230.6,282.8,230.3,283.2,229.9,283.3C229.9,283.3,229.9,283.3,229.9,283.3z"/>
	</g>
	<g>
		<path class="st1" d="M236.6,283.1c-0.1,0-0.1-0.1-0.2-0.1l-0.3-0.2l-0.7-0.4c-0.5-0.2-0.9-0.5-1.4-0.8c-0.9-0.5-1.8-1.1-2.7-1.8
			c-1.7-1.4-3-3.2-3.8-5.2c-0.8-2-1-4.2-0.9-6.3c0.1-2.1,0.3-4.2,0.5-6.2c0.5-4.1,1.2-8.2,1.7-12.4c0.3-2.1,0.5-4.1,0.7-6.2
			c0.1-2.1,0.2-4.2-0.2-6.2c0.5,2,0.5,4.1,0.4,6.2c-0.1,2.1-0.3,4.2-0.5,6.2c-0.5,4.1-1,8.3-1.4,12.4c-0.2,2.1-0.3,4.1-0.3,6.2
			c0,2,0.2,4.1,1,5.9c0.8,1.8,2.1,3.4,3.6,4.7c0.8,0.6,1.6,1.2,2.5,1.6c0.4,0.2,0.9,0.5,1.4,0.7l0.7,0.3l0.4,0.2
			c0.1,0.1,0.3,0.2,0.5,0.3c0.3,0.2,0.3,0.6,0.1,0.9c-0.2,0.2-0.5,0.3-0.8,0.2L236.6,283.1z"/>
	</g>
	<g>
		<path class="st1" d="M244.9,286.8c-2.9-2.4-5.5-5-7.9-7.9c-2.4-2.9-4.5-6-5.8-9.6c-0.6-1.8-1-3.7-0.9-5.6c0.1-1.9,0.4-3.7,0.6-5.5
			c0.5-3.7,1.1-7.3,1.8-10.9c1.4-7.3,2.9-14.5,4.6-21.7c0.8-3.6,2.1-7.1,4-10.3c1.8-3.2,4.2-6.1,6.5-9c-2.2,2.9-4.5,5.8-6.3,9.1
			c-1.8,3.2-3,6.7-3.8,10.3c-1.5,7.2-3,14.5-4.2,21.7c-0.6,3.6-1.2,7.3-1.6,10.9c-0.2,1.8-0.4,3.7-0.5,5.5c-0.1,1.8,0.4,3.5,1,5.2
			c1.3,3.4,3.4,6.4,5.8,9.2c2.4,2.8,5,5.3,7.9,7.6l0,0c0.3,0.2,0.3,0.7,0.1,1S245.2,287,244.9,286.8
			C244.9,286.8,244.9,286.8,244.9,286.8z"/>
	</g>
	<g>
		<path class="st1" d="M233.5,271.3c-0.7-4.4-0.5-8.9,0.5-13.1c1-4.3,2.8-8.3,5.2-11.9c2.5-3.6,5.3-6.9,8.4-9.9
			c3.2-2.9,6.7-5.6,10.9-6.8c-4.2,1.3-7.6,4.1-10.7,7c-3,3-5.7,6.4-8.1,10c-2.3,3.6-4,7.6-4.8,11.8c-0.8,4.1-1,8.5-0.2,12.6l0,0.1
			c0.1,0.4-0.2,0.7-0.5,0.8S233.6,271.7,233.5,271.3C233.5,271.3,233.5,271.3,233.5,271.3z"/>
	</g>
	<g>
		<path class="st1" d="M267.9,174.3c-0.7,0.2-1.5,0.6-2.1,1.1c-0.7,0.5-1.3,1.1-1.9,1.7c-1.2,1.2-2.1,2.7-3,4.2
			c-0.8,1.5-1.4,3.2-2,4.8l-0.7,2.5l-0.6,2.6l0.4-2.6l0.5-2.6c0.5-1.7,1-3.4,1.7-5c0.7-1.6,1.6-3.2,2.8-4.6c0.6-0.7,1.2-1.4,1.9-1.9
			c0.7-0.6,1.5-1.1,2.5-1.5c0.4-0.1,0.8,0,0.9,0.4c0.1,0.4,0,0.8-0.4,0.9C268,174.2,268,174.2,267.9,174.3L267.9,174.3z"/>
	</g>
	<g>
		<path class="st1" d="M275.2,170.5c-0.3,0.2-0.7,0.6-1.1,1c-0.4,0.4-0.7,0.8-1,1.2c-0.6,0.9-1.2,1.8-1.7,2.7
			c-1.1,1.9-1.9,3.9-2.7,6c-1.6,4.1-2.7,8.4-3.6,12.7c-1,4.3-1.8,8.7-2.4,13.1c-0.6,4.4-1,8.8-1,13.2c-0.1-4.4,0.2-8.9,0.7-13.3
			c0.5-4.4,1.2-8.8,2-13.2c0.9-4.4,1.9-8.7,3.3-12.9c0.7-2.1,1.6-4.2,2.6-6.2c0.5-1,1.1-2,1.8-2.9c0.3-0.5,0.7-0.9,1.1-1.4
			c0.4-0.4,0.8-0.8,1.4-1.3c0.3-0.2,0.7-0.1,1,0.2C275.6,169.8,275.6,170.3,275.2,170.5C275.2,170.5,275.2,170.5,275.2,170.5
			L275.2,170.5z"/>
	</g>
	<g>
		<path class="st2" d="M307.9,221.7c-0.3,0-0.3-0.1-0.4-0.1c-0.1,0-0.2-0.1-0.3-0.1c-0.2-0.1-0.4-0.2-0.6-0.3
			c-0.4-0.2-0.8-0.5-1.1-0.7c-0.7-0.5-1.5-1-2.2-1.6c-1.4-1.1-2.8-2.2-4.2-3.4c-2.7-2.3-5.3-4.8-7.7-7.5c-4.8-5.3-9-11.1-12.8-17.2
			c-0.9-1.5-1.9-3-2.7-4.6c-0.8-1.6-1.8-3.1-2.1-4.9c-0.4-1.8-0.2-3.6,0.5-5.3c0.7-1.7,1.8-3.1,3.1-4.4c1.3-1.3,2.7-2.4,4.1-3.4
			c1.5-1,3.3-1.5,5-1.8c3.5-0.6,7.1-0.2,10.7,0.2c-3.5-0.4-7.1-0.7-10.7-0.1c-1.7,0.3-3.5,0.8-5,1.8c-1.5,1-2.8,2.1-4.1,3.4
			c-1.2,1.3-2.3,2.7-3,4.3c-0.7,1.6-0.8,3.5-0.5,5.2c0.3,1.7,1.3,3.3,2.1,4.8c0.9,1.6,1.8,3.1,2.8,4.6c3.9,6,8.1,11.7,12.9,17
			c2.4,2.6,5,5.1,7.7,7.4c1.4,1.2,2.7,2.3,4.2,3.3c0.7,0.5,1.4,1.1,2.2,1.6c0.4,0.2,0.7,0.5,1.1,0.7c0.2,0.1,0.4,0.2,0.6,0.3
			c0.1,0,0.2,0.1,0.3,0.1c0.1,0,0.2,0.1,0.2,0.1c0.2,0,0.3,0.2,0.3,0.3S308.1,221.7,307.9,221.7z"/>
	</g>
	<g>
		<path class="st1" d="M306.3,238.8c-1.1,0.9-2.3,1.9-3.3,3c-1,1.1-1.9,2.3-2.7,3.6c-0.8,1.3-1.4,2.7-1.8,4.1
			c-0.4,1.5-0.5,3-0.4,4.5c-0.3-1.5-0.3-3.1,0-4.6c0.3-1.5,0.9-3,1.6-4.4c0.7-1.4,1.6-2.7,2.5-3.9c1-1.2,2-2.4,3.2-3.4
			c0.3-0.3,0.7-0.2,1,0.1S306.7,238.5,306.3,238.8C306.4,238.8,306.3,238.8,306.3,238.8L306.3,238.8z"/>
	</g>
	<g>
		<path class="st1" d="M302.7,243.4c-0.3,3.1-0.2,6.3,0.2,9.4c0.5,3.1,1.4,6.2,3.4,8.7c1.8,2.7,3.5,5.4,5.1,8.2
			c1.6,2.8,3.2,5.6,4.7,8.4c-1.6-2.8-3.3-5.5-5-8.2c-1.7-2.7-3.5-5.4-5.4-7.9c-0.5-0.6-0.9-1.3-1.4-2c-0.4-0.7-0.8-1.4-1.1-2.2
			c-0.6-1.5-1.1-3.1-1.4-4.7c-0.6-3.2-0.8-6.5-0.6-9.7c0-0.4,0.3-0.7,0.7-0.6S302.7,242.9,302.7,243.4
			C302.7,243.3,302.7,243.3,302.7,243.4L302.7,243.4z"/>
	</g>
	<g>
		<path class="st1" d="M312.9,127.8c-2.7,1.2-5.2,2.7-7.5,4.5c-2.3,1.8-4.4,3.9-5.3,6.6c-0.8,2.7-0.9,5.7-0.6,8.6
			c0.3,2.9,1.2,5.7,2.7,8.2c0.8,1.2,1.8,2.3,2.9,3.1c1.2,0.8,2.5,1.2,4,1.6c2.9,0.7,5.7,1.5,8.7,2c2.9,0.5,5.9,0.6,8.8,0.2
			c2.9-0.4,5.7-1.4,8.2-2.9c2.5-1.5,4.6-3.6,6.7-5.7c2.1-2.1,4.1-4.3,5.8-6.7c0.4-0.6,0.8-1.2,1.2-1.9c0.3-0.7,0.7-1.3,0.9-2
			c0.6-1.3,0.8-2.8,0.7-4.3c-0.1-1.5-0.8-2.8-1.5-4c-0.4-0.6-0.8-1.2-1.3-1.7c-0.5-0.6-1-1.1-1.5-1.6c-4.3-4.1-9.9-6.7-15.8-7.5
			c-5.9-0.8-12,0.2-17.3,3.1L312.9,127.8z M312.6,127.2c5.2-2.9,11.4-4,17.3-3.2c5.9,0.7,11.6,3.3,16,7.4c0.6,0.5,1.1,1,1.6,1.6
			c0.5,0.5,0.9,1.2,1.4,1.8c0.8,1.3,1.5,2.7,1.6,4.2c0.1,1.5,0,3.1-0.7,4.5c-0.2,0.7-0.6,1.4-1,2.1c-0.4,0.6-0.8,1.3-1.2,1.9
			c-1.7,2.5-3.7,4.7-5.8,6.8c-2,2.1-4.2,4.3-6.8,5.9c-2.6,1.6-5.5,2.7-8.4,3.1c-3,0.5-6,0.3-9-0.1c-3-0.4-5.9-1.2-8.8-1.9
			c-1.4-0.3-3-0.8-4.3-1.7c-1.3-0.9-2.4-2.1-3.2-3.3c-1.7-2.6-2.5-5.6-2.9-8.6c-0.4-3-0.3-6.1,0.5-9.1c1-3.1,3.3-5.4,5.6-7.2
			c2.4-1.9,5-3.4,7.7-4.7L312.6,127.2z"/>
	</g>
	<g>
		<path class="st1" d="M330.4,125.5c0.4,0,1.1-0.1,1.7-0.1c0.6,0,1.2-0.1,1.8-0.1c1.2,0,2.5,0.1,3.7,0.4c2.4,0.6,4.7,1.9,6.2,3.9
			c1.5,2,2.4,4.3,2.9,6.7c0.4,2.5,0,5-1.1,7.2c-1.1,2.2-2.7,4.1-4.4,5.7c-1.8,1.6-3.7,3-5.7,4.3c-1,0.6-2,1.3-3.1,1.8
			c-1,0.6-2.1,1.2-3.2,1.6c-2.3,0.9-4.6,1.3-7,1.5c-2.4,0.2-4.8,0.1-7.2-0.1c-1.2-0.2-2.4-0.4-3.5-0.7c-1.2-0.3-2.3-0.7-3.3-1.4
			c-1-0.7-1.7-1.7-2.4-2.7c-0.6-1-1.1-2.1-1.5-3.3c-0.4-1.1-0.7-2.3-0.9-3.5c-0.2-1.2-0.3-2.4-0.2-3.6c0.1-2.4,1-4.7,2.3-6.7
			c1.3-2,2.9-3.7,4.7-5.3c1.7-1.7,3.8-2.9,5.9-3.9c2.1-1,4.4-1.9,6.8-2c-2.4,0.2-4.6,1.1-6.7,2.1c-2.1,1.1-4.1,2.3-5.8,4
			c-1.7,1.6-3.3,3.4-4.6,5.4c-1.3,2-2.1,4.2-2.2,6.6c-0.1,1.2,0,2.3,0.2,3.5c0.2,1.2,0.5,2.3,0.9,3.4c0.4,1.1,0.9,2.2,1.5,3.2
			c0.6,1,1.4,1.9,2.3,2.6c0.9,0.7,2,1,3.2,1.3c1.1,0.3,2.3,0.5,3.5,0.6c2.3,0.3,4.7,0.3,7,0.1c2.3-0.2,4.6-0.7,6.8-1.6
			c1.1-0.4,2.1-1,3.1-1.6c1-0.6,2-1.2,3-1.9c2-1.3,3.9-2.7,5.6-4.3c1.7-1.6,3.2-3.4,4.1-5.5c1-2.1,1.3-4.4,0.9-6.6
			c-0.4-2.2-1.3-4.4-2.7-6.2c-1.4-1.8-3.4-2.9-5.6-3.4c-1.1-0.2-2.2-0.3-3.4-0.3c-0.6,0-1.1,0-1.7,0.1c-0.6,0-1.1,0.1-1.9,0.1
			c-0.4,0-0.7-0.3-0.7-0.7C329.6,125.8,329.9,125.5,330.4,125.5C330.3,125.5,330.3,125.5,330.4,125.5L330.4,125.5z"/>
	</g>
	<g>
		<path class="st1" d="M316.6,166.8c-3.4-0.6-6.9-0.8-10.5-0.9c-3.5-0.1-7-0.2-10.6-0.2c-3.5,0-7.1,0.1-10.6,0.2l-2.7-0.1
			c-0.9-0.1-1.8-0.2-2.7-0.4c-0.9-0.3-1.8-0.4-2.6-0.8c-0.8-0.4-1.7-0.7-2.5-1.3c-1.6-0.9-2.9-2.3-3.9-3.8c-1.1-1.5-1.8-3.2-2.3-4.9
			c-0.6-1.7-0.9-3.5-1.1-5.3c-0.1-0.9-0.2-1.8-0.3-2.6c-0.1-0.4-0.1-0.9-0.1-1.3l0-0.7l0-0.7c0.1-1.8,0.6-3.6,1.3-5.3
			c0.8-1.7,1.8-3.2,2.9-4.6c2.2-2.8,4.8-5.3,7.3-7.7c1.2-1.2,2.1-2.7,2.4-4.4c0.3-1.7-0.1-3.4-0.3-5.2c-0.2-1.8,0-3.7,0.5-5.4
			c0.4-1.7,0.7-3.5,1.3-5.2c0.5-1.7,1.3-3.4,2.4-4.9c1.1-1.5,2.5-2.7,4-3.6c1.5-0.9,3.2-1.7,4.9-2.2c1.7-0.6,3.4-1,5.2-1.3
			c0.4-0.1,0.9-0.1,1.3-0.2c0.4-0.1,0.9,0,1.4,0c0.5,0.1,0.9,0.1,1.4,0.4c0.2,0.1,0.4,0.3,0.6,0.5c0.2,0.2,0.3,0.4,0.4,0.6
			c0.4,0.9,0.4,1.8,0.5,2.7c0.1,0.9,0.1,1.8,0.3,2.6c0.8,3.4,1.5,6.9,2.6,10.2c1.2,3.3,2.7,6.5,5.3,8.9l0.5,0.4l0.5,0.4
			c0.2,0.1,0.4,0.3,0.5,0.4l0.6,0.3c0.4,0.2,0.8,0.3,1.2,0.5c0.4,0.1,0.8,0.2,1.2,0.2c1.7,0.1,3.3-0.9,4.2-2.4l0,0l0,0
			c2.3-1.8,5-3.2,7.8-3.7c1.4-0.3,2.9-0.2,4.4-0.2c1.4,0.1,2.9,0.1,4.3,0.2c2.9,0.2,5.8,0.4,8.6,0.3c1.4-0.1,2.9-0.2,4.2-0.6
			c0.7-0.2,1.3-0.6,2-0.9c0.7-0.3,1.3-0.6,2-0.8c1.4-0.4,2.8-0.7,4.3-0.8c0.7,0,1.5,0,2.2,0.3c0.1,0,0.2,0.1,0.2,0.2
			c0,0,0.1,0.1,0,0.2c0,0.1-0.1,0.1-0.1,0.1c-0.2,0.1-0.4,0.1-0.5,0.2c-0.4,0.1-0.7,0.2-1,0.3c-1.4,0.4-2.7,1.2-3.5,2.4
			c-0.8,1.2-1.4,2.5-1.9,3.8c-0.5,1.3-0.9,2.7-1.1,4.2c-0.1,0.7-0.1,1.4,0.1,2.1c0.1,0.2,0.1,0.3,0.2,0.5l0.3,0.5
			c0.2,0.3,0.3,0.6,0.4,1c0.3,1.4-0.1,3-1,4.1c-0.5,0.6-1.1,1-1.8,1.2c-0.7,0.2-1.4,0-2.1-0.2c0.7,0.2,1.4,0.3,2.1,0.2
			c0.7-0.2,1.3-0.6,1.8-1.2c0.9-1.1,1.3-2.7,1-4.1c-0.1-0.4-0.2-0.7-0.4-1l-0.3-0.5c-0.1-0.2-0.1-0.3-0.2-0.5
			c-0.2-0.7-0.1-1.4-0.1-2.2c0.2-1.4,0.6-2.8,1.1-4.2c0.5-1.4,1.1-2.7,1.9-3.9c0.8-1.2,2.2-2,3.5-2.4c0.3-0.1,0.7-0.2,1-0.3
			c0.2,0,0.4-0.1,0.5-0.2c0.1-0.1,0.1,0,0-0.1c0-0.1-0.1-0.1-0.2-0.1c-0.6-0.3-1.4-0.3-2.1-0.2c-1.4,0.1-2.9,0.4-4.2,0.8
			c-0.7,0.2-1.4,0.5-2,0.8c-0.6,0.3-1.3,0.7-2,0.9c-1.4,0.4-2.9,0.5-4.3,0.6c-2.9,0.1-5.8-0.1-8.7-0.2c-1.4-0.1-2.9-0.2-4.3-0.2
			c-1.4,0-2.9-0.1-4.3,0.2c-2.8,0.6-5.4,1.9-7.6,3.7l0-0.1c-1,1.6-2.7,2.7-4.6,2.6c-0.5,0-0.9-0.1-1.4-0.2c-0.4-0.2-0.9-0.3-1.3-0.5
			l-0.6-0.3c-0.2-0.1-0.4-0.3-0.6-0.4l-0.6-0.4l-0.5-0.4c-2.7-2.4-4.3-5.7-5.5-9.1c-1.2-3.4-1.9-6.8-2.7-10.3
			c-0.2-0.9-0.3-1.8-0.3-2.7c-0.1-0.9-0.1-1.8-0.4-2.5c-0.3-0.7-1-1.1-1.9-1.2c-0.4,0-0.8,0-1.3,0c-0.4,0-0.9,0.1-1.3,0.2
			c-1.7,0.3-3.4,0.8-5.1,1.3c-1.7,0.5-3.3,1.3-4.7,2.2c-1.5,0.9-2.8,2.1-3.8,3.5c-1,1.4-1.7,3-2.2,4.6c-0.5,1.7-0.8,3.4-1.2,5.1
			c-0.4,1.7-0.6,3.4-0.4,5.1c0.2,1.7,0.6,3.5,0.3,5.4c-0.3,1.9-1.3,3.5-2.5,4.8c-2.5,2.5-5.1,4.9-7.2,7.7c-2.1,2.7-3.9,5.9-4,9.3
			c0,1.7,0.3,3.4,0.5,5.2c0.3,1.7,0.6,3.4,1.1,5.1c1,3.3,2.9,6.4,5.8,8.1c0.7,0.5,1.5,0.8,2.3,1.1c0.8,0.3,1.6,0.5,2.4,0.7
			c0.9,0.1,1.7,0.2,2.6,0.3l2.6,0c3.5-0.1,7.1-0.2,10.6-0.2c3.5,0,7.1,0,10.6,0.1c3.5,0.1,7.1,0.3,10.7,0.9c0.4,0.1,0.6,0.4,0.6,0.8
			C317.4,166.6,317,166.9,316.6,166.8L316.6,166.8L316.6,166.8z"/>
	</g>
	<g>
		<path class="st1" d="M286.2,163.6c1.2-1.1,2.5-2,3.8-2.7c1.4-0.7,2.8-1.3,4.3-1.7c1.5-0.4,3-0.7,4.5-0.7c1.5-0.1,3,0.1,4.5,0.3
			c-1.5-0.1-3-0.2-4.5,0c-1.5,0.1-2.9,0.5-4.3,1c-1.4,0.5-2.7,1.2-4,2c-1.2,0.8-2.4,1.7-3.3,2.8l0,0c-0.3,0.3-0.7,0.3-1,0
			S286,163.9,286.2,163.6C286.2,163.6,286.2,163.6,286.2,163.6z"/>
	</g>
	<g>
		<path class="st1" d="M346.5,129.5c0.6,0.3,1.4,0.6,2,0.5c0.3,0,0.5-0.1,0.7-0.3c0.2-0.2,0.3-0.5,0.3-0.9c0-0.3,0-0.8,0.1-1.2
			c0-0.4,0.1-0.9,0.1-1.3l0.4-2.5c0.1-0.8,0.2-1.6-0.1-2.2c-0.1-0.3-0.3-0.5-0.7-0.6c-0.3-0.1-0.7-0.2-1.1-0.3
			c-1.6-0.4-3.3-0.6-4.9-0.9c-3.3-0.4-6.7-0.8-10-0.8c-0.8,0-1.7,0-2.5,0.2c-0.8,0.2-1.6,0.5-2.4,0.8c-0.8,0.3-1.6,0.6-2.2,1.2
			c-0.3,0.3-0.6,0.7-0.4,1.1c0.2,0.4,0.5,0.6,0.9,0.9c-0.3-0.2-0.7-0.5-0.9-0.8c-0.2-0.4,0.1-0.9,0.4-1.1c0.6-0.6,1.4-0.9,2.2-1.3
			c0.8-0.3,1.5-0.7,2.4-0.9c0.8-0.2,1.7-0.3,2.5-0.3c3.4-0.1,6.8,0.1,10.1,0.5c1.7,0.2,3.4,0.4,5,0.7c0.4,0.1,0.8,0.2,1.3,0.3
			c0.5,0.2,0.9,0.6,1.2,1c0.3,0.5,0.3,1,0.3,1.4c0,0.5,0,0.9,0,1.3l-0.3,2.5c0,0.4-0.1,0.8-0.1,1.2c0,0.4,0,0.8,0,1.3
			c0,0.5-0.2,1-0.5,1.5c-0.3,0.5-0.9,0.8-1.5,0.9c-1.1,0.1-2-0.2-2.8-0.6c-0.3-0.2-0.5-0.6-0.3-0.9
			C345.7,129.5,346.1,129.3,346.5,129.5C346.5,129.5,346.5,129.5,346.5,129.5L346.5,129.5z"/>
	</g>
	<g>
		<path class="st1" d="M353.1,133.7c3.5-0.6,7-1.5,10.3-2.7c1.7-0.6,3.3-1.4,4.7-2.3c0.7-0.5,1.4-1,2.1-1.6l2.2-1.6
			c1.4-1.1,2.9-2.1,4.1-3.4c0.3-0.3,0.5-0.6,0.7-1c0.1-0.2,0.1-0.3,0.2-0.5l0-0.3c0-0.1,0.1-0.3,0.1-0.4c0.2-0.6,0.7-1.1,1.2-1.3
			c0.5-0.2,1.1-0.3,1.6-0.3c1,0,2,0.5,2.8,1.1c0.8,0.6,1.4,1.4,1.8,2.3c0.2,0.4,0.4,0.9,0.5,1.3c0.1,0.5,0.2,0.9,0.3,1.4l0.6,2.6
			c0.8,3.5,1.5,7.2,1,10.9c-0.2,1.8-0.6,3.6-1.2,5.4c-0.3,0.9-0.7,1.7-1,2.6c-0.4,0.8-0.8,1.7-1.2,2.5c-3.3,6.4-7.2,12.5-10.3,19
			c-1.6,3.2-2.7,6.6-3.5,10.1c-0.8,3.5-1.4,7.1-1.6,10.6c-0.1,1.8-0.1,3.6,0.1,5.4c0.1,0.9,0.3,1.8,0.6,2.6c0.3,0.8,0.7,1.6,1.4,2.1
			c1.5,1,3,2,4.7,2.6c0.8,0.3,1.7,0.6,2.6,0.6c0.9,0.1,1.8-0.1,2.6-0.3c0.8-0.3,1.6-0.8,2.2-1.4c0.7-0.6,1.2-1.3,1.8-2
			c1.2-1.3,2.6-2.5,4.1-3.6c1.5-1.1,3-2,4.6-2.9c1.6-0.8,3.3-1.5,5.1-1.8c1.7-0.3,3.7-0.3,5.2,0.8c0.8,0.5,1.2,1.4,1.6,2.2
			c0.4,0.8,0.8,1.6,1.2,2.4c0.4,0.8,0.7,1.7,0.8,2.6c0.1,0.9,0,1.8-0.2,2.7c-0.4,1.8-0.9,3.5-1.3,5.3c0.4-1.8,0.9-3.5,1.2-5.3
			c0.2-0.9,0.3-1.8,0.2-2.7c-0.1-0.9-0.4-1.7-0.8-2.6c-0.4-0.8-0.8-1.6-1.2-2.4c-0.4-0.8-0.9-1.6-1.6-2.1c-1.5-1.1-3.4-1.1-5.1-0.7
			c-1.8,0.4-3.4,1.1-5,1.9c-1.6,0.8-3.1,1.8-4.6,2.9c-1.4,1.1-2.8,2.3-4,3.6c-0.6,0.7-1.2,1.4-1.9,2c-0.7,0.6-1.5,1.1-2.3,1.5
			c-0.9,0.3-1.8,0.4-2.7,0.4c-0.9-0.1-1.8-0.3-2.7-0.6c-1.7-0.7-3.2-1.7-4.8-2.6c-0.8-0.6-1.3-1.4-1.6-2.3c-0.3-0.9-0.5-1.8-0.6-2.7
			c-0.2-1.8-0.2-3.6-0.1-5.4c0.2-3.6,0.8-7.2,1.5-10.7c0.7-3.5,1.9-7,3.5-10.3c3.1-6.6,6.9-12.7,10.1-19.1c0.4-0.8,0.8-1.6,1.2-2.4
			c0.3-0.8,0.7-1.6,1-2.5c0.6-1.7,1-3.4,1.2-5.2c0.4-3.5-0.3-7.1-1.1-10.6l-0.6-2.7l-0.3-1.3c-0.2-0.4-0.3-0.8-0.5-1.2
			c-0.7-1.5-2.1-2.7-3.6-2.8c-0.7,0-1.5,0.3-1.6,0.8c0,0.1,0,0.1-0.1,0.2l-0.1,0.4c-0.1,0.3-0.2,0.5-0.3,0.7
			c-0.2,0.5-0.5,0.9-0.9,1.2c-1.3,1.4-2.8,2.4-4.2,3.5l-2.2,1.6c-0.7,0.5-1.4,1.1-2.2,1.6c-1.6,1-3.2,1.8-4.9,2.5
			c-3.4,1.3-6.9,2.2-10.6,2.9c-0.4,0.1-0.7-0.2-0.8-0.6C352.5,134.2,352.7,133.8,353.1,133.7L353.1,133.7L353.1,133.7z"/>
	</g>
	<g>
		<path class="st1" d="M317.9,164.6c4-0.1,8.1-0.3,12.1-0.8c1-0.1,1.9-0.3,3-0.5c1-0.2,2.1-0.3,3.1-0.4c2.1-0.1,4.2,0.2,6.2,0.7
			c4,1.1,7.7,3.4,10.5,6.3c1.5,1.5,2.7,3.1,4,4.7c1.2,1.6,2.5,3.3,3.5,5c1.1,1.7,2,3.6,2.7,5.5c0.7,1.9,1.2,3.9,1.5,5.9l0.5,3
			c0.2,1,0.5,1.9,0.9,2.8c0.8,1.8,2,3.5,3.5,4.8c1.5,1.3,3.3,2.4,5.3,2.8c2,0.4,4,0.2,5.9-0.6c1.9-0.8,3.5-2,5-3.4
			c1.4-1.4,2.7-3,3.9-4.7c-1.1,1.7-2.4,3.3-3.8,4.8c-1.4,1.4-3.1,2.7-5,3.5c-1.9,0.8-4,1.1-6,0.7c-2-0.4-3.9-1.4-5.4-2.8
			c-1.5-1.4-2.8-3-3.7-4.9c-0.4-0.9-0.8-1.9-1-2.9l-0.5-3c-0.4-2-0.9-3.9-1.6-5.8c-0.7-1.9-1.6-3.7-2.7-5.4
			c-1.1-1.7-2.3-3.3-3.6-4.9c-1.3-1.6-2.5-3.2-4-4.5c-2.8-2.8-6.3-5-10.2-5.9c-1.9-0.5-3.9-0.7-5.9-0.6c-1,0.1-2,0.2-2.9,0.4
			c-1,0.2-2,0.4-3,0.6c-4.1,0.6-8.1,0.8-12.2,1c-0.4,0-0.7-0.3-0.7-0.7C317.2,164.9,317.5,164.6,317.9,164.6
			C317.9,164.6,317.9,164.6,317.9,164.6L317.9,164.6z"/>
	</g>
	<g>
		<path class="st1" d="M321.8,118.3c-0.6,0.2-1.1,0.2-1.6,0.2c-0.5-0.1-1-0.2-1.5-0.5c-0.9-0.5-1.5-1.3-2-2.1
			c-0.5-0.8-0.8-1.7-1.1-2.5c-0.3-0.8-0.6-1.6-1-2.4c-0.7-1.6-1.5-3.1-2.1-4.9c-0.1-0.4-0.2-0.9-0.1-1.5c0-0.5,0.4-1,0.8-1.3
			c0.8-0.6,1.6-0.9,2.4-1.3c1.7-0.6,3.6-0.8,5.3,0.1c0.8,0.4,1.5,1.1,2,1.8c0.5,0.7,0.9,1.5,1.2,2.3c1.4,3.2,3.2,6.2,5.4,8.8
			c-2.3-2.6-4.2-5.5-5.8-8.7c-0.4-0.8-0.8-1.5-1.3-2.2c-0.5-0.6-1.2-1.2-1.9-1.6c-1.5-0.7-3.3-0.5-4.8,0.1c-0.8,0.3-1.6,0.7-2.2,1.2
			c-0.6,0.5-0.6,1.2-0.3,2c0.5,1.6,1.4,3.1,2.2,4.7c0.4,0.8,0.8,1.6,1.1,2.4c0.3,0.8,0.7,1.6,1.1,2.2c0.4,0.7,1,1.3,1.6,1.6
			c0.6,0.4,1.4,0.4,1.9,0.2l0.1,0c0.4-0.1,0.7,0.1,0.9,0.4S322.2,118.1,321.8,118.3L321.8,118.3z"/>
	</g>
	<g>
		<path class="st1" d="M313.5,102.5c-0.6-0.2-1.3-0.1-1.8,0.3c-0.5,0.4-0.7,1.1-0.8,1.9c0,0.8,0,1.6,0.1,2.4l0.3,2.5
			c0.3,3.3,0.6,6.7,0.8,10c-0.4-3.3-0.9-6.6-1.4-9.9l-0.4-2.5c-0.1-0.8-0.3-1.7-0.3-2.6c0-0.9,0.2-1.9,0.9-2.7
			c0.4-0.4,0.9-0.7,1.4-0.8c0.5-0.1,1-0.1,1.5,0c0.4,0.1,0.6,0.4,0.5,0.8S313.9,102.6,313.5,102.5
			C313.6,102.5,313.5,102.5,313.5,102.5L313.5,102.5z"/>
	</g>
	<g>
		<path class="st1" d="M357.2,87.7c0.2,2.5,0.3,5,0.3,7.6c-0.1,2.5-0.2,5.1-1.1,7.5c-0.2,0.6-0.5,1.2-1,1.7c-0.5,0.5-1,0.8-1.4,1.2
			c0,0.1-0.1,0.1-0.1,0.1c0,0,0,0.1,0-0.1c0,0-0.1-0.1-0.1-0.1c0,0,0,0,0,0c0.1,0,0.3,0,0.4-0.1c0.3-0.1,0.6-0.1,0.9-0.2
			c0.6-0.1,1.3-0.1,1.9,0.1c0.7,0.2,1.1,0.8,1.4,1.4c0.3,0.6,0.5,1.2,0.6,1.8c0.3,1.2,0.4,2.5,0.4,3.7c-0.1-1.2-0.2-2.5-0.5-3.7
			c-0.2-0.6-0.4-1.2-0.7-1.7c-0.3-0.5-0.7-1-1.2-1.2c-0.6-0.2-1.2-0.1-1.8,0c-0.3,0.1-0.6,0.1-0.9,0.2c-0.2,0-0.3,0.1-0.5,0.1
			c0,0-0.1,0-0.1,0c0,0-0.2-0.1-0.2-0.2c0-0.2,0-0.2,0.1-0.3c0.1-0.1,0.1-0.2,0.2-0.2c0.4-0.5,1-0.9,1.3-1.3c0.4-0.4,0.6-1,0.8-1.6
			c0.7-2.3,0.8-4.8,0.7-7.3c-0.1-2.5-0.3-5-0.6-7.4l0,0c-0.1-0.4,0.2-0.7,0.6-0.8C356.8,87.1,357.1,87.3,357.2,87.7
			C357.2,87.7,357.2,87.7,357.2,87.7z"/>
	</g>
	<g>
		<path class="st1" d="M358.2,115.5c0.8-0.4,1.6-0.6,2.5-0.7c0.9-0.1,1.7,0,2.5,0.3c1.6,0.6,2.8,1.8,3.8,3.1
			c0.9,1.3,1.5,2.8,2.4,3.9c0.2,0.3,0.4,0.5,0.7,0.6c0.2,0.1,0.6,0.1,1,0.1c0.7,0,1.4-0.2,2-0.5c0.3-0.2,0.5-0.4,0.7-0.7
			c0.1-0.3,0.2-0.6,0.2-0.9c-0.1-0.7-0.4-1.3-0.9-1.9c-0.9-1.2-2-2.2-3.3-3.1c-2.6-1.6-5.7-2.4-8.8-2c3-0.5,6.3,0.1,8.9,1.7
			c1.3,0.8,2.5,1.8,3.5,3c0.5,0.6,0.9,1.3,1.1,2.2c0.1,0.4,0,0.9-0.2,1.3c-0.2,0.4-0.5,0.7-0.9,0.9c-0.7,0.5-1.5,0.7-2.4,0.7
			c-0.4,0-0.8,0-1.3-0.2c-0.4-0.2-0.8-0.5-1-0.8c-1-1.3-1.6-2.7-2.5-3.9c-0.9-1.2-2-2.2-3.3-2.6c-1.3-0.4-2.8-0.2-3.9,0.4l-0.1,0
			c-0.3,0.2-0.7,0.1-0.9-0.3S357.8,115.7,358.2,115.5C358.2,115.5,358.2,115.5,358.2,115.5z"/>
	</g>
	<g>
		<path class="st1" d="M332.2,113.7c3.7-0.7,7.3-1.6,10.9-2.7c1.8-0.6,3.5-1.3,5.2-2.1c1.7-0.8,3.3-1.8,4.4-3.4
			c-1,1.6-2.6,2.7-4.3,3.7c-1.6,0.9-3.4,1.7-5.1,2.5c-3.5,1.4-7.2,2.5-10.9,3.4c-0.4,0.1-0.7-0.1-0.8-0.5
			C331.5,114.2,331.8,113.8,332.2,113.7C332.2,113.7,332.2,113.7,332.2,113.7L332.2,113.7z"/>
	</g>
	<g>
		<path class="st1" d="M387.7,125.1c0.4,6.3,0.7,12.5,0.4,18.8c-0.1,1.6-0.2,3.1-0.4,4.7c-0.1,0.8-0.2,1.6-0.3,2.3
			c0,0.7,0.1,1.4,0.4,2c0.6,1.1,2.1,1.7,3.5,2.1c1.5,0.4,3,0.7,4.5,1.1c3,0.7,6.2,1.8,8.7,3.9c1.3,1,2.3,2.3,3.2,3.5
			c1,1.2,1.9,2.5,2.7,3.8c1.7,2.6,3.1,5.6,3.7,8.7c0.6,3.1,0.6,6.3,0.5,9.4c-0.2,6.3-0.9,12.5-2.2,18.6c-0.7,3.1-1.5,6.1-2.6,9
			c-1.1,2.9-2.5,5.8-4.5,8.2c-2,2.4-4.2,4.7-6.7,6.6c-2.5,1.9-5.3,3.4-8.5,3.9c-3.1,0.5-6.3-0.1-9.2-1.2c-2.9-1.1-5.6-2.8-8.1-4.6
			c2.6,1.8,5.2,3.4,8.2,4.5c2.9,1.1,6.1,1.6,9.2,1.2c3.1-0.5,5.9-2,8.3-3.9c2.4-1.9,4.6-4.2,6.6-6.6c1.9-2.4,3.3-5.3,4.4-8.2
			c1.1-2.9,1.9-5.9,2.5-9c1.2-6.1,1.9-12.3,2-18.5c0-3.1,0-6.2-0.6-9.2c-0.6-3-1.9-5.8-3.6-8.4c-0.8-1.3-1.8-2.5-2.7-3.8
			c-1-1.2-1.9-2.4-3.1-3.4c-2.4-1.9-5.3-2.9-8.3-3.6c-1.5-0.3-3-0.6-4.6-1c-0.8-0.2-1.5-0.5-2.3-0.9c-0.7-0.4-1.5-1-1.9-1.8
			c-0.4-0.8-0.6-1.7-0.5-2.6c0.1-0.9,0.2-1.6,0.3-2.4c0.2-1.5,0.3-3.1,0.3-4.6c0.2-6.2-0.1-12.4-0.6-18.6l0,0c0-0.4,0.3-0.7,0.6-0.7
			C387.3,124.4,387.7,124.7,387.7,125.1L387.7,125.1z"/>
	</g>
	<g>
		<path class="st1" d="M388.2,232.5c0.3-0.4,0.6-0.3,0.8-0.3c0.2,0,0.4,0.1,0.5,0.1c0.2,0.1,0.4,0.3,0.5,0.4
			c0.3,0.3,0.5,0.5,0.7,0.8c0.4,0.6,0.7,1.1,1.1,1.7c0.6,1.2,1,2.5,1,3.9c0,0.7-0.1,1.4-0.4,2.1c-0.3,0.7-0.9,1.2-1.6,1.5
			c-0.7,0.2-1.4,0.3-2.1,0.2c-0.7,0-1.3-0.1-1.9-0.3c-2.5-0.5-5-1.3-7.4-2.3c-1.2-0.5-2.4-1-3.5-1.6c-1.1-0.6-2.2-1.3-3.1-2.2
			c0.9,0.9,2.1,1.5,3.2,2.1c1.1,0.6,2.3,1,3.5,1.5c2.4,0.9,4.9,1.5,7.4,1.9c1.2,0.2,2.6,0.3,3.6-0.1c1-0.4,1.4-1.6,1.3-2.7
			c-0.1-1.2-0.5-2.3-1.1-3.4c-0.3-0.5-0.7-1-1-1.5c-0.2-0.2-0.4-0.4-0.6-0.6c-0.1-0.1-0.2-0.1-0.2-0.2c0,0,0,0,0,0c0,0,0.1,0,0.1,0
			c0.1,0,0.1,0,0.2-0.2c-0.2,0.3-0.7,0.4-1,0.1C388,233.3,387.9,232.8,388.2,232.5z"/>
	</g>
	<g>
		<path class="st1" d="M386.1,243.5c0.1,0.9,0,1.7-0.2,2.5c-0.2,0.8-0.7,1.6-1.4,2.1c-0.7,0.5-1.5,0.8-2.3,0.8
			c-0.8,0.1-1.6,0-2.3-0.1c-1.5-0.2-3-0.7-4.3-1.3c-1.4-0.6-2.7-1.3-4-2c1.3,0.7,2.7,1.3,4.1,1.7c1.4,0.4,2.9,0.8,4.3,0.9
			c1.4,0.1,3,0.1,3.9-0.8c0.9-0.8,1.1-2.4,0.9-3.6l0,0c-0.1-0.4,0.2-0.7,0.6-0.8C385.7,242.8,386.1,243,386.1,243.5
			C386.1,243.4,386.1,243.4,386.1,243.5z"/>
	</g>
	<g>
		<path class="st1" d="M379.6,249.1c0.5,0.6,0.8,1.1,1.1,1.8c0.1,0.3,0.2,0.7,0.2,1.2c0,0.2-0.1,0.4-0.1,0.6
			c-0.1,0.2-0.2,0.4-0.4,0.5c-0.6,0.6-1.4,0.7-2,0.8c-0.7,0.1-1.3,0-2,0l-3.8-0.3c-1.3-0.1-2.5-0.2-3.8-0.2c1.3-0.1,2.5-0.1,3.8-0.2
			l3.8,0c0.6,0,1.2,0,1.8-0.1c0.3,0,0.6-0.1,0.8-0.2l0.3-0.2c0.1-0.1,0.2-0.2,0.2-0.2c0.5-0.5-0.3-1.8-1-2.5l0,0
			c-0.3-0.3-0.3-0.7,0-1C378.9,248.8,379.3,248.8,379.6,249.1C379.6,249.1,379.6,249.1,379.6,249.1z"/>
	</g>
	<g>
		<path class="st1" d="M367.9,256.8c0,0.1-0.1,0.3,0,0.5c0,0.2,0.1,0.4,0.3,0.6c0.3,0.4,0.7,0.8,1.1,1.1c0.9,0.6,2.1,1.2,3.2,1.3
			c1.1,0.1,2.2-0.6,2.7-1.7c0.6-1,0.9-2.3,1-3.5c0,1.2-0.2,2.5-0.7,3.6c-0.3,0.6-0.6,1.1-1.1,1.6c-0.5,0.4-1.2,0.7-1.9,0.7
			c-0.2,0-0.3,0-0.5,0l-0.5-0.1c-0.3,0-0.6-0.1-0.9-0.2c-0.6-0.2-1.2-0.4-1.8-0.7c-0.6-0.3-1.1-0.7-1.6-1.3
			c-0.4-0.6-0.8-1.3-0.5-2.3l0-0.1c0.1-0.4,0.5-0.6,0.8-0.5s0.6,0.5,0.5,0.8C368,256.7,368,256.8,367.9,256.8z"/>
	</g>
	<g>
		<path class="st1" d="M354.7,195.1c2.3-0.2,4.6-0.3,6.9,0.3c0.6,0.2,1.1,0.3,1.7,0.6c0.5,0.3,1,0.7,1.4,1.1
			c0.8,0.8,1.6,1.5,2.3,2.5c0.3,0.5,0.7,1,0.8,1.6c0.2,0.6,0,1.4-0.5,1.8c-0.9,0.9-2.1,1.1-3.2,1.2c-1.1,0.1-2.2,0-3.4-0.1
			c-1.1-0.2-2.2-0.4-3.2-0.8c1,0.4,2.1,0.6,3.2,0.7c1.1,0.1,2.2,0.1,3.3-0.1c1.1-0.2,2.2-0.5,2.9-1.2c0.3-0.4,0.4-0.8,0.3-1.3
			c-0.1-0.5-0.5-0.9-0.8-1.3c-0.7-0.8-1.5-1.5-2.4-2.2c-0.5-0.4-0.8-0.7-1.3-0.9c-0.5-0.2-1-0.4-1.5-0.5c-2.1-0.4-4.3-0.2-6.4,0.1
			l0,0c-0.4,0.1-0.7-0.2-0.8-0.6C354,195.5,354.3,195.1,354.7,195.1C354.6,195.1,354.7,195.1,354.7,195.1z"/>
	</g>
	<g>
		<path class="st1" d="M355.5,184.5c1.2,0.4,2.5,0.8,3.8,0.9c0.3,0,0.6,0,0.8,0c0,0.1,0.2-0.3,0.3-0.5c0.2-0.6,0.3-1.2,0.2-1.8
			c-0.1-1.2-0.7-2.5-1.8-3.2c-1-0.8-2.3-1.2-3.6-1.5c1.3,0.2,2.7,0.5,3.8,1.2c1.2,0.7,2,2,2.3,3.4c0.1,0.7,0.1,1.4-0.1,2.2
			c0,0.2-0.1,0.4-0.2,0.6c-0.1,0.1-0.1,0.2-0.2,0.3c-0.1,0.1-0.2,0.2-0.4,0.3c-0.5,0.2-0.8,0.2-1.2,0.2c-1.5,0-2.8-0.3-4.1-0.6
			c-0.4-0.1-0.6-0.5-0.5-0.8C354.7,184.6,355,184.4,355.5,184.5C355.4,184.5,355.5,184.5,355.5,184.5L355.5,184.5z"/>
	</g>
	<g>
		<path class="st1" d="M398.5,191.8c-1.8,0.4-3.7,1-5.4,1.8c-0.8,0.4-1.7,0.8-2.3,1.5c-0.5,0.5-0.4,1.5-0.1,2.3
			c0.7,1.7,2.4,2.9,4.1,3.6c1.8,0.7,3.7,0.9,5.7,0.8c-1.9,0.2-3.9,0.1-5.8-0.5c-1.8-0.6-3.7-1.7-4.6-3.6c-0.2-0.5-0.4-1-0.4-1.5
			c-0.1-0.5,0.1-1.2,0.5-1.6c0.7-0.9,1.6-1.4,2.5-1.8c1.8-0.9,3.6-1.6,5.5-2.2c0.4-0.1,0.7,0.1,0.9,0.5
			C399.1,191.3,398.9,191.7,398.5,191.8C398.5,191.8,398.5,191.8,398.5,191.8L398.5,191.8z"/>
	</g>
	<g>
		<path class="st1" d="M389.5,215.4c-0.7-0.9-1.2-1.9-1.7-2.9c-0.2-0.5-0.4-1.1-0.4-1.7c-0.1-0.6,0.1-1.4,0.6-1.9
			c0.3-0.2,0.5-0.4,0.8-0.5c0.3-0.1,0.6-0.2,0.9-0.2c0.3-0.1,0.6-0.1,0.9-0.1c0.3,0,0.6,0,0.9,0c1.1,0.1,2.2,0.5,3.2,1
			c2,1,3.7,2.3,5.2,3.9c0.7,0.8,1.4,1.6,1.9,2.6c0.5,0.9,1,2,1,3c0-1.1-0.5-2.1-1.1-3c-0.6-0.9-1.3-1.7-2-2.4
			c-1.5-1.5-3.3-2.7-5.2-3.5c-1-0.4-2-0.7-3-0.8c-1-0.1-2.1,0.1-2.6,0.6c-0.5,0.5-0.3,1.6,0.2,2.4c0.4,0.9,1,1.8,1.6,2.5l0,0
			c0.2,0.3,0.2,0.7-0.1,1C390.2,215.8,389.8,215.7,389.5,215.4C389.6,215.4,389.6,215.4,389.5,215.4z"/>
	</g>
	<g>
		<path class="st1" d="M387.8,212.5c-1.1,0.5-2.1,0.6-3.1,0.7c-1,0.1-2,0-3-0.2c-2-0.3-3.9-0.9-5.7-1.7c-0.9-0.4-1.8-0.9-2.7-1.3
			c-0.8-0.5-1.7-1-2.5-1.5c-0.8-0.6-1.6-1.1-2.4-1.7l-2.3-1.8l2.4,1.7c0.8,0.5,1.7,1,2.5,1.6c0.9,0.5,1.7,0.9,2.6,1.4
			c0.9,0.4,1.8,0.8,2.7,1.1c1.8,0.7,3.7,1.2,5.6,1.4c0.9,0.1,1.9,0.1,2.8,0c0.9-0.1,1.9-0.3,2.6-0.7l0.1,0c0.3-0.2,0.8,0,0.9,0.3
			C388.4,211.9,388.2,212.3,387.8,212.5C387.9,212.5,387.9,212.5,387.8,212.5z"/>
	</g>
	<g>
		<path class="st1" d="M336.7,158.6c3-1,6-1.8,9.1-2.1c1.6-0.1,3.1-0.2,4.7,0.1c1.5,0.3,3.2,0.9,4.2,2.2c0.5,0.7,0.8,1.4,1.2,2
			c0.3,0.7,0.7,1.4,1,2.1c0.6,1.4,1.3,2.8,1.8,4.2c1.2,2.8,2.2,5.7,3.2,8.6c-1.1-2.9-2.2-5.7-3.5-8.5c-0.6-1.4-1.3-2.8-2-4.1
			c-0.3-0.7-0.7-1.4-1.1-2c-0.4-0.7-0.7-1.4-1.2-1.9c-0.9-1.1-2.4-1.6-3.8-1.8c-1.5-0.2-3-0.1-4.5,0.1c-3,0.4-5.9,1.3-8.7,2.4l0,0
			c-0.4,0.1-0.8,0-0.9-0.4S336.3,158.8,336.7,158.6C336.7,158.6,336.7,158.6,336.7,158.6z"/>
	</g>
	<g>
		<path class="st1" d="M350.7,135.4c2.6,1.8,5.5,3.4,8.5,4.6c3,1.1,6.2,2,9.3,1.3c0.8-0.2,1.5-0.5,2.2-0.8c0.7-0.4,1.3-0.9,2-1.4
			c1.3-1,2.6-2,3.8-3c2.5-2.1,4.9-4.3,7.2-6.6c-2.2,2.4-4.5,4.7-7,6.9c-1.2,1.1-2.5,2.1-3.8,3.2c-0.6,0.5-1.3,1-2,1.5
			c-0.7,0.4-1.5,0.8-2.3,1c-1.6,0.4-3.4,0.4-5,0.2c-1.7-0.2-3.3-0.7-4.8-1.2c-3.1-1.1-6.1-2.6-8.9-4.4c-0.3-0.2-0.4-0.6-0.2-0.9
			C349.9,135.3,350.4,135.2,350.7,135.4C350.7,135.4,350.7,135.4,350.7,135.4L350.7,135.4z"/>
	</g>
	<g>
		<path class="st1" d="M311.6,127c-2.7-1-5.3-2.2-7.7-3.7c-2.4-1.5-4.7-3.2-6.7-5.1c-2.1-1.9-3.8-4.2-5.3-6.6l-1-1.9
			c-0.3-0.6-0.5-1.3-0.8-2l-0.4-1l-0.3-1l-0.6-2l0.6,2l0.3,1l0.4,1c0.3,0.6,0.6,1.3,0.9,1.9l1.1,1.8c1.5,2.3,3.3,4.5,5.4,6.3
			c2.1,1.8,4.4,3.4,6.8,4.8c2.4,1.3,5,2.5,7.6,3.3l0,0c0.4,0.1,0.6,0.5,0.5,0.9S312,127.1,311.6,127C311.6,127,311.6,127,311.6,127z
			"/>
	</g>
	<g>
		<path class="st1" d="M297.9,151c-0.4-0.5-1.1-1-1.7-1.3c-0.7-0.4-1.4-0.8-2.1-1.1c-1.5-0.6-3-1.1-4.6-1.4
			c-1.6-0.4-3.2-0.6-4.8-0.7l-2.4-0.2l-2.4-0.1l2.4-0.1l2.4,0c1.6,0.1,3.3,0.1,4.9,0.4c1.6,0.2,3.2,0.6,4.8,1.1
			c0.8,0.3,1.6,0.6,2.3,1c0.8,0.4,1.5,0.8,2.2,1.5c0.3,0.3,0.3,0.7,0,1C298.7,151.3,298.3,151.3,297.9,151
			C298,151.1,298,151,297.9,151L297.9,151z"/>
	</g>
	<g>
		<path class="st1" d="M296.8,141.3c-1.2-0.7-2.5-1.3-3.9-1.8c-1.4-0.5-2.8-0.9-4.2-1.2c-1.4-0.3-2.9-0.5-4.4-0.7
			c-1.5-0.1-3-0.2-4.4-0.1c1.5-0.1,3-0.2,4.5-0.2c1.5,0,3,0.1,4.5,0.3c1.5,0.2,3,0.5,4.4,0.9c1.5,0.4,2.9,0.9,4.3,1.6
			c0.3,0.2,0.5,0.6,0.3,0.9S297.3,141.6,296.8,141.3C296.9,141.4,296.9,141.4,296.8,141.3L296.8,141.3z"/>
	</g>
	<g>
		<path class="st1" d="M346.8,148.1c1.7,0.2,3.3,0.6,5,1c1.6,0.5,3.2,1,4.7,1.7c1.5,0.7,3,1.5,4.3,2.6c1.3,1.1,2.4,2.3,3.2,3.8
			c-0.9-1.4-2.1-2.6-3.4-3.5c-1.3-0.9-2.8-1.6-4.4-2.2c-1.5-0.6-3.1-1-4.7-1.3c-1.6-0.3-3.2-0.6-4.8-0.7l0,0c-0.4,0-0.7-0.3-0.6-0.7
			C346,148.4,346.4,148.1,346.8,148.1C346.7,148.1,346.8,148.1,346.8,148.1z"/>
	</g>
	<g>
		<path class="st1" d="M301.8,133.1c0,0-0.1,0-0.1-0.1l-0.3-0.1l-0.6-0.2l-1.2-0.4c-0.8-0.2-1.6-0.5-2.4-0.8c-1.6-0.6-3.1-1.2-4.5-2
			c-1.4-0.8-2.8-1.7-4-2.9c-1.2-1.2-2.1-2.6-2.7-4.1c0.7,1.5,1.7,2.8,2.9,3.8c1.2,1.1,2.6,1.9,4.1,2.6c1.5,0.7,3,1.2,4.5,1.7
			c0.8,0.2,1.6,0.4,2.4,0.6l1.2,0.3l0.6,0.1l0.3,0.1c0.1,0,0.3,0.1,0.4,0.2c0.3,0.1,0.5,0.5,0.3,0.9c-0.1,0.3-0.5,0.5-0.8,0.4
			L301.8,133.1z"/>
	</g>
	<g>
		<path class="st1" d="M350.9,143.3c3,0.4,5.9,1.1,8.8,2c1.4,0.5,2.8,1,4.1,1.7c1.3,0.7,2.6,1.5,3.5,2.8c-0.9-1.2-2.3-1.9-3.6-2.5
			c-1.3-0.6-2.8-1-4.2-1.4c-2.9-0.7-5.8-1.1-8.7-1.3l0,0c-0.4,0-0.7-0.4-0.6-0.7S350.5,143.3,350.9,143.3
			C350.9,143.3,350.9,143.3,350.9,143.3z"/>
	</g>
	<path class="st3" d="M329.4,165.9c0,0,18.8,16.8,23,27.8"/>
	<path class="st3" d="M257.4,301.5c0,0,9.4,6.6,14.9,6.6c5.5,0,17.1,2.3,12.3-12.8c-4.8-15.1-7.1-21.2-22.4-28.8
		c-15.3-7.5-25.8-9.4-28.1-3.4c-2.3,5.9,0.7,11.9,2.7,14.4"/>
	<path class="st3" d="M237.8,277.6c0,0,5.9,0.9,8.5,4.1c2.5,3.2,3.7,7.1,1.1,6.6"/>
	<g>
		<path class="st1" d="M266.1,330.3c4.5-0.5,9-1.4,13.3-2.7c2.2-0.7,4.3-1.5,6.2-2.6c1-0.6,1.8-1.2,2.8-1.9c1-0.6,2-1.2,3.1-1.6
			c4.2-1.8,8.7-3,13.1-4.1c2.2-0.5,4.4-1.1,6.6-1.7c2.2-0.6,4.3-1.3,6.4-2.4c0,0,0.1,0,0.1,0c0,0,0,0.1,0,0.1
			c-1.9,1.3-4,2.2-6.2,2.9c-2.2,0.8-4.4,1.4-6.5,2c-4.4,1.2-8.8,2.2-13,3.8c-1,0.4-2,0.9-3,1.5c-0.9,0.6-1.9,1.3-2.9,1.8
			c-2,1.1-4.2,1.9-6.4,2.5C275.2,329.4,270.7,330.1,266.1,330.3C266.1,330.5,266.1,330.4,266.1,330.3
			C266.1,330.4,266.1,330.4,266.1,330.3z"/>
	</g>
	<g>
		<path class="st1" d="M258.7,304.1c2.4,1.4,5,2.5,7.7,3.4c2.7,0.8,5.5,1.3,8.3,1.4c2.8,0.1,5.6-0.4,8.2-1.3c2.6-0.9,5-2.4,7.3-4
			c1.2-0.8,2.2-1.7,3.3-2.6c1.1-0.9,2.1-1.8,3.2-2.8c1-0.9,2-1.9,3-2.9c1-1,2-2,3-3c3.9-4,7.7-8.3,11.2-12.6c0,0,0,0,0.1,0
			c0,0,0,0,0,0.1c-3.1,4.7-6.7,9.1-10.6,13.3c-2,2.1-3.9,4.1-6.1,5.9c-1,1-2.2,1.8-3.3,2.7c-1.1,0.8-2.2,1.8-3.4,2.5
			c-2.3,1.6-4.8,3-7.5,4c-2.7,0.9-5.6,1.3-8.4,1.2c-2.8-0.1-5.7-0.7-8.3-1.6C263.6,306.9,261,305.7,258.7,304.1
			C258.6,304.2,258.6,304.1,258.7,304.1C258.6,304.1,258.6,304.1,258.7,304.1z"/>
	</g>
	<g>
		<path class="st1" d="M263.9,314.1c1,1.4,2.4,2.5,3.8,3.5c1.4,1,3,1.7,4.6,2.4c1.6,0.7,3.3,1,5,1.5c0.8,0.2,1.7,0.4,2.5,0.7
			c0.8,0.2,1.7,0.4,2.6,0.6c0,0,0,0,0,0.1c0,0,0,0,0,0c-0.9,0-1.8,0-2.7-0.1c-0.9-0.1-1.8-0.2-2.6-0.4c-1.7-0.4-3.4-1-5-1.8
			c-1.6-0.8-3.2-1.6-4.6-2.7C266.1,316.9,264.8,315.7,263.9,314.1C263.8,314.2,263.8,314.1,263.9,314.1
			C263.9,314.1,263.9,314.1,263.9,314.1L263.9,314.1z"/>
	</g>
	<g>
		<path class="st1" d="M299.1,317.1c1.7-1,3.4-2.1,5-3.3c1.6-1.2,3.1-2.4,4.6-3.8c1.5-1.3,2.8-2.8,4.1-4.2c1.4-1.4,2.6-3,3.9-4.5
			c0,0,0,0,0.1,0c0,0,0,0,0,0.1c-0.4,0.9-0.9,1.8-1.4,2.6c-0.3,0.4-0.5,0.8-0.8,1.3l-0.9,1.2c-1.3,1.6-2.8,2.9-4.3,4.2
			C306.1,313.2,302.7,315.5,299.1,317.1C299.1,317.2,299.1,317.2,299.1,317.1C299.1,317.1,299.1,317.1,299.1,317.1z"/>
	</g>
	<text transform="matrix(1 0 0 1 299.8951 368.3324)" class="st4 st5">Deep perineal nerve</text>
	<text transform="matrix(1 0 0 1 279.3951 385.0824)" class="st4 st5">Superficial perineal nerve</text>
	<text transform="matrix(1 0 0 1 123.6451 321.7491)"><tspan x="0" y="0" class="st4 st5">Dorsal nerve of penis </tspan><tspan x="0" y="12" class="st4 st5">or clitoris</tspan></text>
	<text transform="matrix(1 0 0 1 416.8951 309.8324)" class="st4 st5">Inferior anal nerve</text>
	<text transform="matrix(1 0 0 1 434.8951 239.3324)" class="st4 st5">Sacrospinous ligament</text>
	<text transform="matrix(1 0 0 1 390.8951 338.3324)" class="st4 st5">Pudendal canal</text>
	<text transform="matrix(1 0 0 1 433.3951 188.3324)" class="st4 st5">Pudendal nerve</text>
	<line class="st6" x1="346.4" y1="261.4" x2="411.4" y2="304.4"/>
	<line class="st6" x1="348.4" y1="223.4" x2="427.4" y2="235.4"/>
	<line class="st6" x1="335.4" y1="203.9" x2="427.4" y2="187.4"/>
	<line class="st6" x1="325.6" y1="336.9" x2="337.1" y2="359.1"/>
	<text transform="matrix(1 0 0 1 165.011 424.6052)" class="st7 st4 st8">Pudendal nerve</text>
	<line class="st6" x1="342.4" y1="324.4" x2="385.9" y2="336.4"/>
	<line class="st6" x1="251.1" y1="331.6" x2="274.1" y2="377.1"/>
	<line class="st6" x1="239.1" y1="329.1" x2="190.1" y2="325.7"/>
</g>
<g id="Layer_4">
	<g>
		<path class="st9" d="M319.5,165.6c0,0,13.4,25.4,13.4,49.4s-7.5,52.1-15.1,62.4"/>
		<path class="st9" d="M366.4,256.6c-19,5.7-48.2,55.9-48.2,55.9"/>
		<path class="st9" d="M325.3,167.3c0,0,18.8,41.1,6.2,80.2s-13.4,34.3-13.4,34.3"/>
		<path class="st9" d="M332.5,172.5c0,0,9.3,45.2,0.3,75.1s-15.1,39.4-15.1,39.4"/>
		<path class="st9" d="M338,176.6c0,0,2.7,46.3-0.3,58.3s-17.1,51.4-17.1,51.4"/>
		<path class="st9" d="M342.1,183.1c0,0-0.7,58.3-12.7,82.9c-12,24.7-10.3,24.7-10.3,24.7"/>
		<path class="st9" d="M346.9,187.2c0,0-7.9,52.6-10.3,60.7c-2.4,8.1-12.2,30-12.2,30"/>
		<path class="st9" d="M351.4,195.4c0,0-15.1,63.9-24.5,74.5"/>
		<path class="st9" d="M354.3,201.2c0,0-21.6,66.1-29,72.1"/>
		<path class="st9" d="M358.2,206.4c0,0-36.5,83.8-38.9,85.5"/>
		<path class="st9" d="M363,211.5c0,0-35.3,69.2-39.1,72.5"/>
		<line class="st9" x1="367.8" y1="218.2" x2="319.8" y2="293.3"/>
		<line class="st9" x1="371.9" y1="224.2" x2="319.7" y2="295"/>
		<line class="st9" x1="371.4" y1="234.3" x2="319.3" y2="296.9"/>
		<path class="st9" d="M370.7,242.9c0,0-26.2,24.7-33.8,34.6c-7.5,9.9-18,21.4-18,21.4"/>
		<path class="st9" d="M318.5,307.5c0,0,24-34.1,32.2-41.1c8.2-7,16.1-11,16.1-11"/>
		<path class="st9" d="M318.6,302.7c0,0,20.9-26.6,27.2-33.4c6.3-6.9,20.7-17.3,21.9-18.2"/>
		<path class="st10" d="M318.5,312.3c0,0,22.3-35.8,30.4-42.4c8.1-6.6,14.2-12.7,17.6-13s1.4-3.9,2.3-6.1s3.7-27.2,0.5-30.4
			c-3.2-3.2-6.1-9.8-9.9-13.3c-3.9-3.4-5.7-11.3-7.3-13.5c-1.6-2.2-13-20.7-19.8-24.7c-6.7-4-4.8-4.1-4.8-4.1l-7.3,0.5
			c0,0,2.1,3.4,2.9,7.1s7.5,19.8,8.3,26.8s2.1,21.1,1.4,24.4s-3.3,27.5-6.3,33.4c-3,5.8-8.6,19.8-8.8,20.7
			C317.3,278.7,321.3,305,318.5,312.3z"/>
	</g>
	<g>
		<path class="st1" d="M306.9,314.4c1.8-1.5,3.6-3,5.2-4.7c0.8-0.8,1.5-1.7,2.3-2.6c0.8-0.8,1.6-1.7,2.4-2.5c0,0,0.1,0,0.1,0
			c0,0,0,0,0,0.1c-0.4,1.1-1,2.2-1.8,3.1c-0.7,0.9-1.7,1.7-2.6,2.5C310.8,311.8,308.9,313.2,306.9,314.4
			C306.9,314.5,306.9,314.4,306.9,314.4C306.8,314.4,306.8,314.4,306.9,314.4z"/>
	</g>
	<g>
		<path class="st1" d="M310.1,313.9c0.6-0.4,1.1-1,1.6-1.5c0.5-0.5,1-1.1,1.5-1.6c0.5-0.6,0.9-1.2,1.4-1.7c0.5-0.5,1-1,1.7-1.5
			c0,0,0.1,0,0.1,0c0,0,0,0,0,0c-0.2,0.8-0.6,1.4-1,2c-0.4,0.6-1,1.1-1.6,1.6C312.7,312.3,311.5,313.3,310.1,313.9
			C310.1,314,310.1,313.9,310.1,313.9C310.1,313.9,310.1,313.9,310.1,313.9z"/>
	</g>
</g>
<g id="Layer_6">
	<path class="st11" d="M234.6,249.7c0.4,0.5,5.3,0.2,6.2,2.3c0.9,2.1,4.1,15.5,0.5,14.4c-3.7-1.1-9.4-3-7.5-0.7
		c1.8,2.3,1.1,10.1,12.6,10.1c11.4,0,34.7-26.7,37.7-31.3c3-4.6,13.7-11.7,6.4-18.5c-7.3-6.9-14.9-22.2-25.8-21.7
		c-11,0.5-21.2,11.7-23.1,15.3C239.6,223.2,230.9,245.1,234.6,249.7z"/>
	<path class="st11" d="M258.2,207.2c0,0,12.1,1.6,19.4,10.6c7.3,9,13.6,13.7,14.6,14.2"/>
	<path class="st11" d="M255.2,209.7c0,0,11.3,1.5,16.9,8.9c5.6,7.4,14.4,14.4,17.3,15.8"/>
	<path class="st11" d="M243.5,221.6c0,0,11.7,4.9,16.6,10.4c4.9,5.5,22.5,9.9,24.9,10.4"/>
	<path class="st11" d="M239.1,234.4c0,0,19.5,8.5,28.1,10.3c8.6,1.8,15.1,1.6,15.1,1.6"/>
	<path class="st11" d="M237.8,239.6c0,0,32.2,13,40.9,9.7"/>
	<path class="st11" d="M237.6,247.7c0,0,30.2,8.1,36,7.8"/>
	<path class="st11" d="M244.4,256.7c0,0,20.3,5.3,23.9,5"/>
	<path class="st11" d="M242.8,262.6c0,0,10.9,8.1,16.2,6.7"/>
	<path class="st11" d="M254,272.8c-7.1,2.4-18.4-5.9-18.4-5.9"/>
	<path class="st11" d="M309,220.6c0,0,23.6,4.6,37.7-29.6"/>
	<path class="st12" d="M361.3,229.2c-11.5,9.3-54.7,2.9-54.7,2.9"/>
	<path class="st12" d="M245.5,278.5c0,0,11-2.6,21.8-13s22.8-23.5,26.9-26.6c4.1-3.1,17.3-4.3,22.6-4.5c5.3-0.2,37.9,2.6,44.6-4.1
		c6.7-6.7-3.3,53.6-43.9,57.1c-40.6,3.4-66.3-5.3-66.3-5.3"/>
	<path class="st13" d="M348.6,193.5c0,0,5.7,10.5,13.4,15.9c7.7,5.5,9.6,11,7.7,25.2c-1.9,14.2-9.8,40.3-8.9,41
		c0.9,0.7,5.8-11,11.8-28.4c6-17.5,7.2-23.3,14.1-23c6.9,0.3,12.9-6.3,13.2-8.4c0.3-2.1,7.2-4.8,7.2-4.8"/>
	<path class="st12" d="M292.4,241.9c0,0,58.1-0.9,66.1-8.7"/>
	<path class="st12" d="M288.6,246.5c0,0,62.4,1.4,71.8-10.3"/>
	<path class="st12" d="M283.2,251.6c0,0,22.4,8.6,40.3,1.5c17.8-7,32-7.2,36-11.5"/>
	<path class="st12" d="M276.6,258.8c0,0,28.6,7,45.8-1.2c17.1-8.2,31.4-5.1,34.6-9.8"/>
	<path class="st12" d="M272.7,262.6c0,0,41.3,8.7,53.8-0.2c12.5-8.9,24.3-7,28.3-10.1"/>
	<path class="st12" d="M252.7,278.4c0,0,52.8,11.3,70.3,2.4c17.5-8.9,30.2-20.4,32-25.7c1.9-5.3,6.9-16.8,7-19"/>
	<path class="st12" d="M260.5,274.1c0,0,49.5,9.6,62.4,1.9c12.9-7.7,28.6-18.7,29.8-20"/>
	<path class="st12" d="M265,270.1c0,0,40.1,9.3,55.2,2.1c15.1-7.2,23.1-11.5,26.6-13.7"/>
	<path class="st12" d="M269.1,267c0,0,36.7,9.4,53.5,0.7c16.8-8.7,22.3-10.5,22.3-10.5"/>
	<path class="st12" d="M288.5,248.5c0,0,43.2,4.1,60.3-4.3"/>
	<path class="st14" d="M253,287.1c0,0,66.3,17.1,87.6-5.1s26.2-44,24.5-57.6"/>
	<path class="st14" d="M255.7,292.9c0,0,67.9,13,83.5-5.5c15.6-18.5,26.6-39.2,28.3-64.9"/>
	<path class="st14" d="M259.2,296.9c0,0,61.7,11.3,74.4-1.7c12.7-13,28.4-34.4,32.4-52.8"/>
	<path class="st14" d="M263.4,303c0,0,43.9,7,67.2-3.4s34.6-47.3,35.3-53"/>
	<path class="st14" d="M263.3,304.7c0,0,29.8,5.5,46.8,2.6c17-2.9,37-15.9,43.7-25.4s9.8-3.1,10.3,4.8c0.5,7.9-7,30-13.2,35"/>
	<path class="st14" d="M266.4,309.7c0,0,42.2,11,63.2-5.8c21.1-16.8,26.9-25.2,29.3-23.5c2.4,1.7,4.6,4.5,2.9,10.5
		s-6.3,29.5-17.3,32.6"/>
	<path class="st14" d="M354.4,290.7c0,0-5.1,9.1-5.1,13.2c0,4.1,5.5,5.7,9.3-6.7C362.3,284.9,359.2,286.4,354.4,290.7z"/>
	<path class="st14" d="M274.2,318.3c0,0,17.5,2.4,30,1.5s19.5-0.7,21.2,2.2c1.7,2.9-0.5,6.3-22.3,7.4c-21.8,1-14.4,2.9-14.4,2.9"/>
	<path class="st14" d="M299.3,321.5c0,0-0.7,5.3,3.4,5.8c4.1,0.5,7.9-4.3,4.1-5.8C303,320,301.5,320,299.3,321.5z"/>
	<path class="st14" d="M269.3,311.9c0,0,40.6,8.7,52.4-0.5c11.8-9.3,26.2-21.1,30-24.5s8.9-4.6,9.6-1c0.7,3.6-6.5,30.2-18,36.5"/>
	<path class="st14" d="M271.8,315.2c0,0,26.9,2.4,38.2,0.5c11.3-1.9,26.9-14.4,33.8-21.1c6.9-6.7,13.4-10.1,15.1-9.1
		c1.7,1-0.2,21.9-12.3,31c-12.2,9.1-7.9,7-7.9,7"/>
	<path class="st14" d="M274.2,316.6c0,0,34.8,7,45.9-1.2c11.1-8.2,25.4-22.6,28.3-24.2c2.9-1.5,9.8-6.3,10.5-5"/>
	<path class="st14" d="M319.1,318.6c0,0,19.9-17,25.9-21.9s10.8-9.3,12-8.9"/>
	<path class="st14" d="M323.8,317.3c0,0,5.7,2.1,14.6-6.5s11-14.6,13.7-18.5"/>
	<path class="st14" d="M328.4,314c0,0,5.8-0.5,12.9-10.8"/>
	<path class="st14" d="M348.3,295"/>
	<path class="st14" d="M323.9,319.1c0,0,16.5-1.5,24-18.5"/>
	<path class="st14" d="M352,307.3c0,0-13.7,11.5-17.7,17.3"/>
	<path class="st14" d="M349.5,307.1c0,0-15.4,11.7-18.5,18.8"/>
	<path class="st14" d="M348.1,306.6c0,0-19.7,17-21.9,20.7"/>
	<path class="st14" d="M332.7,318.1c0,0-9.3,8.4-9.8,10.5"/>
	<path class="st14" d="M290,331.8c0,0,39.2,0.9,46.6-1.4s26.7-9.3,30.2-14.2c3.4-5,24.7-31.9,23.8-37.9s1.2-5.1-2.7,1
		c-3.9,6.2-18,30.7-25.5,34.8c-7.5,4.1-23.5,14.2-44.7,15.4s-29.6-0.9-27.6,1.5"/>
	<path class="st14" d="M351.9,280.9c0,0,4.6-8.2,8.9-5.3c4.3,2.9,9.9,25.4-3.1,39.8"/>
	<path class="st14" d="M363.2,274.6c0,0,9.4,17.5-0.9,39.6"/>
	<path class="st14" d="M364.7,271.5c0,0,9.1,24,1.9,37.9"/>
	<path class="st14" d="M365.2,269.6c0,0,10.1,19.4,5.7,33.9"/>
	<path class="st14" d="M367.3,267.4c0,0,11.7,21.4,6.3,33.6"/>
	<path class="st14" d="M375.7,261.1c0,0-1.9,25,1,34.3"/>
	<path class="st14" d="M377.7,254.7c0,0-2.7,28.8,0,38.4"/>
	<path class="st14" d="M399,228c0,0-3.9,25.9-2.4,31"/>
	<path class="st14" d="M390.4,272.9c0,0,3.8-14.4,5-13.9s-1.9,17.5-3.9,16.1C389.4,273.7,389.6,275.4,390.4,272.9z"/>
	<path class="st14" d="M385.1,248.7c0,0,1.2,20.6,3.9,24.7"/>
	<path class="st14" d="M380,255.1c0,0-2.6,24.2-1,32"/>
	<path class="st14" d="M382.4,254.5c0,0-4.1,28.6-1.9,35.5"/>
	<path class="st14" d="M383.6,250.4c0,0,0,20.4,4.6,25.9"/>
	<path class="st14" d="M382.5,260.5c0,0-0.3,14.9,3.9,19.5"/>
	<path class="st14" d="M381.7,271.8c0,0,1.4,7.7,1.9,13.4"/>
	<path class="st14" d="M369.5,263.6c0,0,5.1,11.8,4.6,17.7"/>
	<path class="st14" d="M372.3,262.6c0,0,2.2,6.2,1.9,10.6"/>
	<path class="st14" d="M387.5,244.6c0,0-0.3,20.6,2.2,26"/>
	<path class="st14" d="M389.2,244.3c0,0-0.9,20,1.7,24.2"/>
	<path class="st14" d="M390.9,243.1c0,0-0.2,19.2,0.7,22.1"/>
	<path class="st14" d="M396.1,230.9c0,0-1.9,21.8-0.9,27.1"/>
	<path class="st14" d="M393,233.1c0,0-1.2,22.8-0.2,27.4"/>
	<path class="st14" d="M254.7,274.9c0,0,34.6,5.8,44.2,6.2"/>
	<path class="st14" d="M302.3,281.3c0,0,25,1.9,41-17"/>
	<path class="st14" d="M274.9,260.2c0,0,25.2,5.7,35.5,2.9"/>
	<path class="st14" d="M315.7,262.4c0,0,25.4-9.8,34.4-10.1"/>
	<path class="st14" d="M280.2,253.9c0,0,15.4,7,28.3,4.5"/>
	<path class="st14" d="M316.4,256.9c0,0,21.1-7.9,27.4-7.7"/>
	<line class="st14" x1="351.9" y1="247.5" x2="357.7" y2="245.8"/>
	<path class="st14" d="M291.7,243.7c0,0,23,0.7,30.5-0.2"/>
	<path class="st14" d="M327.7,241.5c0,0,25-1.4,31.2-6.2"/>
	<path class="st14" d="M295.1,239.3c0,0,17.8-0.5,23.6-1.2"/>
	<path class="st14" d="M327,237.4"/>
	<line class="st14" x1="346.4" y1="236" x2="322.6" y2="237.2"/>
	<path class="st14" d="M285.4,249.7c0,0,21.6,3.6,26.6,2.9"/>
	<path class="st14" d="M316.1,252c0,0,11-1.2,14.1-2.4"/>
	<path class="st14" d="M320.5,247.7c0,0,23.1-1.4,25.2-2.9"/>
	<path class="st14" d="M272.5,265.3c0,0,32.7,5.1,41,2.2"/>
	<path class="st14" d="M317.3,284.4c0,0,26.7-9.6,34.1-21.2"/>
	<path class="st14" d="M302.2,291.4c0,0,26,1.9,39.4-12.5"/>
	<path class="st14" d="M292.9,286.9c0,0,28.8,3.6,40.8-7.4"/>
	<path class="st14" d="M298.7,298.2c0,0,25.9,3.8,35.3-5"/>
	<path class="st14" d="M277.8,309.2c0,0,29.8,6.2,42.2-2.4"/>
	<path class="st14" d="M262.6,300c0,0,24.5,5.5,35.5,3.1"/>
	<path class="st14" d="M256.6,289.7c0,0,27.4,6.7,37.7,5.8"/>
	<path class="st14" d="M249.7,283c0,0,34.4,11.8,45.2,8.1"/>
	<path class="st14" d="M249.9,279c0,0,29,8.6,37,6.9"/>
	<path class="st14" d="M264.6,271.8c0,0,39.2,7.5,51.8,3.6"/>
	<path class="st14" d="M307.8,222.3"/>
	<path class="st11" d="M308.9,222.3c0,0,35.5-4.3,39.8-24.7"/>
	<path class="st11" d="M307.5,229.9c0,0,41.5,6.2,54.3-2.7"/>
	<path class="st11" d="M308.5,227.6c0,0,43.5,6.9,53-1.7"/>
	<path class="st11" d="M309.5,225.6c0,0,43.5-4.1,54-1.2"/>
	<path class="st11" d="M315.7,222.5c0.7,0,37.5-8.9,45.1-11.5"/>
	<path class="st11" d="M327.5,222.3c2.7-0.5,33.2-6.9,38.9-4.8"/>
	<path class="st11" d="M332.3,216.7c0,0,16.5-4.3,22.4-9.9"/>
	<path class="st11" d="M339.4,213.1c0,0,6.5-1.7,11.8-8.2"/>
	<path class="st11" d="M335.6,211.2c0,0,8.6-6.7,11.5-14.6"/>
	<path class="st11" d="M337,221.6c0,0,23.8-3.9,29.6-2.9"/>
	<path class="st11" d="M343.8,222c0,0,16.6-1.4,22.4-0.7"/>
	<path class="st11" d="M341.4,215c0,0,12-5.7,16.6-6.5"/>
	<path class="st11" d="M342.6,210.2c0,0,3.9-4.1,7.7-8.2"/>
	<path class="st11" d="M314.2,226.6c0,0,38.6-2.2,45.4-1.2"/>
	<path class="st11" d="M323.8,227.3c0,0,19,2.9,30.2,0"/>
	<path class="st11" d="M338,227c0,0,16.1-0.7,20.9-0.2"/>
	<path class="st11" d="M309.2,223.5c0,0,25.7-2.4,33.9-1.2"/>
	<path class="st11" d="M249,215.9c0,0,28.1,21.2,38.4,24"/>
	<path class="st11" d="M245.1,218.6c0,0,32.2,21,41.4,22.6"/>
	<path class="st11" d="M254.7,211.5c0,0,10.5,2.3,16.2,8.7c5.7,6.4,18.5,16.9,20.1,16.9"/>
	<path class="st11" d="M261.3,216.3c0,0,20.8,18.5,26.5,21.5"/>
	<path class="st11" d="M272.3,215.9c0,0,11.9,13.5,17.6,17.4"/>
	<path class="st11" d="M268.4,207.6c0,0,11.2,8.2,15.5,13.5c4.3,5.3,8.9,9.1,8.9,9.1"/>
	<path class="st11" d="M242.1,223.9c0,0,8.9,3.4,16.5,9.4c7.5,5.9,19.2,8.2,25.1,10.3"/>
	<path class="st11" d="M240.3,227.3c0,0,31.8,16.2,40.9,17.4"/>
	<path class="st11" d="M238.9,230c0,0,28.6,14.9,37.2,14.9"/>
	<path class="st11" d="M238.3,236c0,0,27.9,12.8,40,12.3"/>
	<path class="st11" d="M236.7,241c0,0,22.2,8.2,28.1,9.1"/>
	<path class="st11" d="M237.1,242.8c0,0,26.5,12.6,37.9,8.5"/>
	<path class="st11" d="M241.2,250.1c0,0,27.4,5.5,30.8,6.2"/>
	<path class="st11" d="M244,252.9c0,0,24,3.7,27.9,4.6"/>
	<path class="st11" d="M248.5,255.9c0,0,17.1,1.6,21,3.4"/>
	<path class="st11" d="M242.4,258.1c0,0,19.2,6.2,23.1,5.9"/>
	<path class="st11" d="M243.3,261.8c0,0,13.3,4.8,19,4.8"/>
	<path class="st11" d="M243.1,265c0,0,5.9,6.3,13.9,5.7"/>
	<path class="st11" d="M238.3,265.4"/>
	<path class="st11" d="M238.4,266.6c0,0,13.1,5.9,16.1,5.5"/>
	<path class="st11" d="M236.2,269.1c0,0,8.3,5.8,15,5.1"/>
	<path class="st11" d="M251.7,266c-0.6-0.5,6.2,2.2,7.7,2.2"/>
	<path class="st11" d="M256.3,258c0,0,10.9,2.7,12.2,2.9"/>
	<path class="st11" d="M241.7,247.1c0,0,28.6,9.1,33.1,6.1"/>
	<path class="st11" d="M264.1,231.6c0,0,10.4,8,18.1,8.9"/>
	<path class="st15" d="M394.7,274.1c0,0,5-9.1,3.1-10.3C395.9,262.6,392.5,274.1,394.7,274.1z"/>
	<path class="st16" d="M397.7,263.4c0,0-1-9.1,0.6-28.3"/>
</g>
<g id="Layer_5" class="st17">
	<linearGradient id="SVGID_1_" gradientUnits="userSpaceOnUse" x1="231.4012" y1="261.737" x2="318.2742" y2="261.737">
		<stop  offset="0" style="stop-color:#FFE240;stop-opacity:0.5"/>
		<stop  offset="1" style="stop-color:#FFDB9D"/>
	</linearGradient>
	<path class="st18" d="M231.7,257.1c0,0,0.9-5.7,1-8.6c0.5-7.2,5.6-19.3,8.2-23.6c3.6-6,17.3-17,21.2-17s13.2,2.2,18.7,9.9
		c5.5,7.7,17.1,18.2,21.6,20c4.5,1.9,7.9-0.3,8.4-1.5c0,0,6.4,1.8,6.6,6c0.2,4.2,1.6,11.9-0.1,16.2c-1.7,4.3-1.7,17.9-1.7,20.4
		s2.4,19.9-3.5,24.9c-5.9,5-12,14.3-29.5,10.9c-17.5-3.4-23.8-10.1-26.6-16.3c0,0-1.4-3.7-7.2-9c-5.8-5.3-10.5-5.5-8.6-8.6
		s4.5-7.2,1.7-8.7c-2.7-1.5-10.6,0.3-10.6-2.6S231.7,257.1,231.7,257.1z"/>
	<g class="st19">
		<path class="st20" d="M311.8,239.7c-1.3,0.6-2.6,1.4-4,1.7c-1.4,0.3-2.9,0.3-4.4,0.2c-2.9-0.4-5.7-1.2-8.3-2.5
			c-2.6-1.3-5-3.1-7.2-4.9c-2.3-1.8-4.4-3.7-6.6-5.7c-2.2-1.9-4.3-3.9-6.5-5.7c-1.1-0.9-2.2-1.8-3.4-2.6c-0.6-0.4-1.2-0.8-1.8-1.1
			c-0.3-0.2-0.6-0.3-0.9-0.5l-1-0.4c-2.6-1-5.6-0.9-8.4-0.5c-2.8,0.5-5.6,1.3-8.3,2.4l0-0.1c2.5-1.4,5.3-2.4,8.2-3.1
			c1.4-0.3,2.9-0.5,4.4-0.4c0.7,0,1.5,0.1,2.2,0.2l1.1,0.2c0.4,0.1,0.7,0.2,1.1,0.3l1.1,0.4c0.3,0.1,0.7,0.3,1,0.5
			c0.7,0.3,1.3,0.8,1.9,1.2c1.2,0.9,2.3,1.8,3.4,2.7c2.2,1.9,4.3,3.9,6.4,5.9c2.1,2,4.3,3.9,6.5,5.8c2.2,1.8,4.5,3.6,7.1,4.9
			c2.5,1.3,5.3,2.2,8.2,2.7c1.4,0.2,2.9,0.2,4.3-0.1C309.2,240.9,310.5,240.2,311.8,239.7L311.8,239.7z"/>
	</g>
	<g class="st19">
		<path class="st20" d="M243.7,229.3c2.8-1.8,5.7-3.4,8.7-4.8c3-1.3,6.2-2.4,9.6-2.4c1.7,0,3.4,0.4,4.8,1.4c1.4,0.9,2.7,1.9,4,2.9
			c2.6,2,5.2,4.1,7.8,6.1c2.6,2,5.3,3.9,8.1,5.6c2.8,1.7,5.7,3.2,8.9,4c0.4,0.1,0.8,0.2,1.2,0.3l1.2,0.2c0.8,0.1,1.6,0.1,2.4,0.2
			c1.6,0,3.3-0.1,4.9-0.3c1.6-0.2,3.2-0.6,4.7-1.3c0.7-0.3,1.5-0.7,2.1-1.2c0.6-0.5,1.3-1,1.7-1.7l0.1,0c-0.3,0.8-1,1.4-1.6,1.9
			c-0.6,0.5-1.4,1-2.1,1.4c-1.5,0.8-3.1,1.2-4.8,1.6c-1.6,0.4-3.3,0.4-5,0.5c-0.8,0-1.7,0-2.5-0.1l-1.3-0.1
			c-0.4-0.1-0.8-0.2-1.2-0.3c-3.3-0.8-6.3-2.4-9.1-4.1c-2.8-1.8-5.5-3.7-8.1-5.8c-2.6-2-5.1-4.2-7.7-6.2c-1.3-1-2.6-2-4-2.9
			c-1.3-1-2.9-1.4-4.5-1.4c-3.3-0.1-6.5,1-9.5,2.2C249.5,226.1,246.6,227.6,243.7,229.3L243.7,229.3z"/>
	</g>
	<g class="st19">
		<path class="st20" d="M238.1,237.5c3-1.8,6.1-3.4,9.3-4.9c3.2-1.4,6.5-2.7,9.9-3.4c0.9-0.2,1.7-0.3,2.6-0.4c0.9,0,1.8-0.1,2.7,0.2
			c1.8,0.4,3.4,1.2,4.9,2.1c3.1,1.7,5.9,3.7,8.8,5.7c2.9,2,5.8,3.9,8.8,5.6c1.5,0.9,3,1.7,4.6,2.4c1.6,0.7,3.2,1.3,4.8,1.6
			c1.6,0.3,3.3,0.3,4.9-0.4l4.8-1.9c1.6-0.7,3.2-1.3,4.8-2.1c1.6-0.7,3.2-1.5,4.6-2.4l0.1,0.1c-2.9,2-6,3.5-9.2,5
			c-1.6,0.7-3.2,1.4-4.8,2.1c-1.7,0.8-3.6,0.8-5.4,0.6c-3.6-0.6-6.8-2.3-9.8-4.1c-3-1.8-5.9-3.8-8.7-5.8c-2.9-2-5.7-4-8.7-5.8
			c-1.5-0.9-3.1-1.6-4.7-2.1c-0.8-0.2-1.7-0.2-2.5-0.2c-0.9,0.1-1.7,0.1-2.6,0.3c-3.4,0.6-6.7,1.8-9.9,3.2
			C244.3,234.3,241.1,235.9,238.1,237.5L238.1,237.5z"/>
	</g>
	<g class="st19">
		<path class="st20" d="M236.9,250.2c2.8-2.1,5.8-3.9,8.9-5.4c3.1-1.5,6.4-2.8,9.8-3.6c3.4-0.8,6.9-1.1,10.4-0.7
			c3.5,0.4,6.8,1.6,10.1,2.8c3.3,1.2,6.4,2.8,9.5,4.2c1.6,0.7,3.1,1.3,4.8,1.7c1.6,0.4,3.3,0.5,5,0.5c3.4-0.2,6.8-0.9,9.9-2.3
			c1.6-0.7,3-1.6,4.3-2.7c1.3-1.1,2.5-2.4,3.2-3.9l0.1,0c-1.4,3.2-4.2,5.7-7.3,7.3c-1.6,0.8-3.2,1.4-4.9,1.8
			c-1.7,0.5-3.4,0.7-5.2,0.9c-1.8,0.1-3.6-0.1-5.3-0.5c-1.7-0.4-3.4-1.1-5-1.8c-3.2-1.5-6.2-3.1-9.4-4.4c-3.2-1.3-6.5-2.5-9.8-2.9
			c-3.4-0.4-6.9-0.2-10.2,0.6c-3.4,0.7-6.6,1.9-9.8,3.4C242.8,246.6,239.7,248.3,236.9,250.2L236.9,250.2z"/>
	</g>
	<g class="st19">
		<path class="st20" d="M249.9,258.3c4.3-4.5,10.6-7.1,16.9-7.2c3.2,0,6.3,0.5,9.3,1.1l9.2,1.9c3.1,0.6,6.1,1.1,9.2,1.2
			c1.5,0.1,3.1,0.1,4.6-0.1c1.5-0.2,3-0.5,4.3-1.2c1.4-0.6,2.6-1.5,3.6-2.7c1-1.2,1.9-2.5,2.9-3.7c1-1.2,1.9-2.5,2.8-3.7
			c0.9-1.3,1.9-2.5,2.6-3.8l0.1,0c-1.4,2.8-3.2,5.4-5,8c-0.9,1.3-1.8,2.5-2.8,3.8c-1,1.3-2.3,2.3-3.8,3c-3,1.4-6.3,1.6-9.4,1.4
			c-3.2-0.2-6.3-0.8-9.3-1.5l-9.1-2c-3-0.6-6.1-1.2-9.2-1.2c-3.1,0-6.2,0.6-9.1,1.7C254.8,254.5,252.1,256.1,249.9,258.3
			L249.9,258.3z"/>
	</g>
	<g class="st19">
		<path class="st20" d="M291.5,314.1c4.9-3.9,9.2-8.6,12.7-13.8c1.8-2.6,3.3-5.3,4.5-8.2c0.5-1.5,1.2-2.9,1.6-4.4
			c0.2-0.8,0.5-1.5,0.6-2.2l0.4-2.3c0.9-6.2,1.7-12.5,2.7-18.7c1-6.2,2-12.4,3.2-18.6l0.1,0c-0.6,6.3-1.4,12.5-2.3,18.7
			c-0.9,6.2-1.8,12.4-2.9,18.7l-0.5,2.3c-0.2,0.8-0.5,1.5-0.7,2.3c-0.4,1.5-1.1,3-1.7,4.4c-1.3,2.9-2.9,5.6-4.7,8.2
			C301,305.8,296.6,310.4,291.5,314.1L291.5,314.1z"/>
	</g>
	<g class="st19">
		<path class="st20" d="M306.2,308.8c2.3-4.9,4.3-10.1,5.9-15.3c0.8-2.6,1.5-5.2,2.1-7.9c0.5-2.7,1-5.4,1.2-8.1
			c0.4-5.5,0.4-10.9,0.6-16.4c0.1-1.4,0.3-2.8,0.7-4.1c0.4-1.3,0.6-2.6,0.7-4c0.1-1.3,0.2-2.7,0.2-4.1c0-1.4,0-2.7-0.1-4.1l0.1,0
			c0.4,2.7,0.6,5.5,0.5,8.2c0,1.4-0.2,2.8-0.6,4.1c-0.3,1.3-0.5,2.6-0.5,4c-0.1,1.3-0.1,2.7-0.1,4.1c0,1.4-0.1,2.7-0.2,4.1
			c-0.2,2.7-0.3,5.5-0.6,8.2c-0.2,2.8-0.7,5.5-1.3,8.1c-0.6,2.7-1.4,5.3-2.2,7.9C310.9,298.9,308.8,304,306.2,308.8L306.2,308.8z"/>
	</g>
	<g class="st19">
		<path class="st20" d="M278.7,312.8c3.2-1.3,6.2-3,9.1-4.9c2.9-1.9,5.6-4,8-6.4c2.4-2.4,4.5-5.2,5.9-8.3c0.7-1.5,1.2-3.2,1.8-4.8
			c0.5-1.6,1.1-3.3,1.6-4.9c2.1-6.6,4-13.2,5.9-19.9c1-3.3,2-6.6,2.9-9.9l1.4-5c0.5-1.7,1-3.3,1.3-5l0.1,0
			c-0.5,3.4-1.3,6.8-2.1,10.2c-0.8,3.4-1.7,6.7-2.6,10c-1.8,6.7-4,13.3-6.1,19.8c-0.5,1.6-1.1,3.3-1.7,4.9c-0.6,1.6-1.1,3.3-1.9,4.9
			c-1.5,3.2-3.7,6-6.1,8.4c-2.5,2.4-5.3,4.5-8.2,6.3C285,310,281.9,311.6,278.7,312.8L278.7,312.8z"/>
	</g>
	<g class="st19">
		<path class="st20" d="M263.6,306.9c7.4-1.3,14.7-3.8,21.3-7.4c3.3-1.8,6.4-4,9.1-6.6c2.7-2.6,5-5.6,6.5-9c3-6.9,5.6-14,8.2-21.2
			c1.3-3.6,2.5-7.1,3.7-10.7l1.8-5.4l1-2.7c0.3-0.9,0.6-1.8,1.1-2.6l0.1,0.1c-0.4,0.8-0.6,1.8-0.9,2.7l-0.8,2.7l-1.6,5.5
			c-1.1,3.6-2.2,7.2-3.4,10.8c-2.4,7.2-5.2,14.3-8.4,21.2c-1.6,3.5-4,6.6-6.8,9.2c-2.8,2.6-6,4.8-9.3,6.6
			c-6.7,3.5-14.1,5.9-21.5,7.1L263.6,306.9z"/>
	</g>
	<g class="st19">
		<path class="st20" d="M259.5,303.2c3.4-0.6,6.8-1.6,10-2.8c3.2-1.3,6.4-2.8,9.3-4.6c3-1.8,5.7-3.9,8.2-6.3c2.5-2.4,4.7-5.1,6.6-8
			c3.9-5.7,7.3-11.9,10.4-18.1c1.6-3.1,3.1-6.2,4.6-9.4l2.3-4.7c0.8-1.5,1.6-3.1,2.6-4.5l0.1,0.1c-0.9,1.4-1.6,3.1-2.3,4.7l-2.1,4.8
			c-1.4,3.2-2.8,6.4-4.3,9.5c-3,6.3-6.6,12.4-10.6,18.1c-2,2.9-4.3,5.6-6.8,8c-2.6,2.4-5.4,4.5-8.4,6.3c-3,1.8-6.2,3.2-9.5,4.4
			c-3.3,1.2-6.7,2.1-10.1,2.7L259.5,303.2z"/>
	</g>
	<g class="st19">
		<path class="st20" d="M254,295.4c5.6-1.9,11.1-4.2,16.4-6.8c5.3-2.6,10.4-5.7,15-9.4c2.2-1.9,4.3-4,6.2-6.3
			c1.9-2.3,3.8-4.5,5.7-6.8c1.9-2.3,3.7-4.6,5.6-6.9c1.9-2.3,3.6-4.7,5.7-6.8l0.1,0.1c-1,1.1-1.8,2.3-2.7,3.5l-2.6,3.6
			c-1.7,2.4-3.5,4.8-5.3,7.1c-1.8,2.3-3.7,4.6-5.7,6.8c-1.9,2.3-4.1,4.4-6.4,6.3c-4.7,3.7-9.9,6.7-15.3,9.2
			C265.2,291.6,259.7,293.8,254,295.4L254,295.4z"/>
	</g>
	<g class="st19">
		<path class="st20" d="M238.2,282.6c4.3-4,8.3-8.3,13.3-11.5c4.9-3.3,10.5-5.4,16.3-6.6c5.8-1.2,11.7-1.4,17.4-2.2
			c1.4-0.2,2.9-0.4,4.2-0.8c1.4-0.3,2.7-0.9,4.1-1.4c1.4-0.5,2.7-1.1,4.1-1.6c1.3-0.5,2.7-1.1,4-1.8l0.1,0.1c-2.5,1.6-5.2,2.8-7.9,4
			c-2.6,1.3-5.6,2.1-8.5,2.6c-5.8,0.9-11.7,0.8-17.4,1.9c-5.7,1-11.3,3.1-16.2,6.2C246.8,274.6,242.7,278.8,238.2,282.6L238.2,282.6
			z"/>
	</g>
	<g class="st19">
		<path class="st20" d="M245.6,286.5c5.1-1.7,10.2-3.6,15.3-5.5c5-1.9,10.1-3.9,15-6.2c2.4-1.1,4.9-2.3,7.2-3.7
			c0.6-0.4,1.1-0.7,1.7-1.1l1.6-1.2c1-0.9,2.1-1.7,3.1-2.6c2.1-1.7,4.3-3.3,6.5-4.8c2.2-1.6,4.5-3,6.7-4.6l0.1,0.1
			c-2,1.8-4.2,3.4-6.4,5.1c-2.1,1.7-4.3,3.3-6.3,5.1c-1,0.9-2.1,1.7-3.1,2.6l-1.7,1.2c-0.6,0.4-1.2,0.7-1.8,1.1
			c-2.4,1.4-4.8,2.5-7.3,3.6c-5,2.2-10,4.1-15.1,5.9C255.9,283.3,250.8,285,245.6,286.5L245.6,286.5z"/>
	</g>
	<g class="st19">
		<path class="st11" d="M274.7,182.4c0,0,24.3-14.7,28.3-16.7"/>
		<path class="st11" d="M305.7,218.1c0,0,36.2-16.2,44.7-27.7"/>
		<path class="st11" d="M275.4,185.6c0,0,23.5-14,30.5-19.3"/>
		<path class="st11" d="M301.6,215.6c0,0,44.3-22.5,47-26.8"/>
		<path class="st11" d="M298.1,213.4c0,0,40.5-20.4,48.8-27.8"/>
		<path class="st11" d="M294.6,210.1c0,0,45.3-22,50-27.5"/>
		<path class="st11" d="M291.6,207.1c0,0,45-21.3,50.3-26.5"/>
		<path class="st11" d="M289.9,204.4c0,0,44.5-22,50.5-26.8"/>
		<path class="st11" d="M286.6,200.1c0,0,45-17.8,51-25.8"/>
		<path class="st11" d="M283.9,196.9c0,0,45.5-16,51.5-24.3"/>
		<path class="st11" d="M281.6,193.6c0,0,46-17.8,50.5-23.3"/>
		<path class="st11" d="M277.1,187.6c0,0,32.3-19.3,35-21.8"/>
		<path class="st11" d="M279.4,188.6c0,0,36-19.5,41-22.3"/>
		<path class="st11" d="M279.1,190.9c1-0.3,47.5-24.8,49.5-26"/>
		<path class="st11" d="M284.6,189.9c3.5-3,42-18.3,45-21"/>
	</g>
</g>
<g id="Layer_7">
	<line class="st21" x1="278.4" y1="320.7" x2="290.7" y2="333.9"/>
	<path class="st21" d="M284.7,340.2c0,0-5.8-8.6-9.3-12.7c-3.4-4.1-5.7-2.7-5.7-2.7"/>
	<path class="st21" d="M285.7,334.4c0,0,4.2-2.3,5.2-0.6c1,1.7-3,0.6-2.6,2.2s0.2,3,5.5,2.7c5.3-0.2,35.3,1.8,42.8,3.7
		c7.5,1.8,16.9,4.6,18.2,3.9s2.9-1.4-0.3-3.9c-3.2-2.5,3.7-0.6,5.8,1.3c2.2,1.8,3.9,5.6-3,5.7c-6.9,0.1-15.3-5.5-27.2-6.3
		s-45.3-2.6-45.3-2.6S283.5,335.2,285.7,334.4z"/>
	<path class="st22" d="M338.7,330.7c0,0,14.5,9.4,15.7,9.9"/>
	<path class="st22" d="M336.4,331.3c0,0,16.3,9.9,16.8,10.2"/>
	<path class="st22" d="M292,333.6c0,0,46.4,1.4,60.2,7.6"/>
</g>
<g id="Layer_8">
</g>
<g id="Layer_9">
	<g>
		<path class="st23" d="M335,197.9c2.4,10.2,4.6,20.4,6.1,30.8c0.2,1.3,0.4,2.6,0.5,3.9c0.2,1.3,0.3,2.6,0.4,4
			c0.1,0.7,0.1,1.3,0.1,2c0,0.7,0.1,1.3,0,2c0,0.7-0.1,1.4-0.1,2.1l-0.2,2l-1.9,15.5c-1.1,10.3-2,20.6-1.8,31
			c0.1,1.3,0.1,2.6,0.2,3.9l0.3,3.9c0.2,2.6,0.5,5.2,0.7,7.8c0.4,5.2,0.7,10.5,0.2,15.8c-0.3,2.6-0.8,5.4-2.2,7.9
			c-0.7,1.2-1.8,2.3-3.1,3c-1.3,0.7-2.8,1-4.2,1c-5.3,0.1-10.5-0.3-15.7-0.6c-10.4-0.8-20.7-1.8-31.1-2.3
			c-10.4-0.5-20.8-0.7-31.2,0.1c-5.2,0.4-10.4,1-15.4,2.3c-2.5,0.6-5,1.4-7.3,2.6c-1.2,0.6-2.2,1.3-3.2,2.2c-0.9,0.9-1.7,2-2.2,3.2
			c0.4-1.2,1.2-2.3,2.1-3.2c1-0.9,2-1.7,3.2-2.3c2.3-1.2,4.8-2.1,7.3-2.8c5-1.3,10.2-2,15.4-2.5c10.4-0.9,20.8-0.9,31.2-0.6
			c10.4,0.3,20.8,1.2,31.2,1.8c5.2,0.3,10.4,0.5,15.5,0.4c1.2,0,2.4-0.3,3.3-0.9c1-0.6,1.8-1.4,2.4-2.4c1.2-2,1.6-4.6,1.9-7.1
			c0.4-5.1,0-10.2-0.5-15.4c-0.2-2.6-0.5-5.2-0.8-7.7l-0.4-3.9c-0.1-1.3-0.2-2.6-0.2-3.9c-0.4-10.5,0.3-21,1.3-31.4l1.6-15.5
			l0.2-1.9c0-0.6,0-1.2,0.1-1.8c0-0.6,0-1.2-0.1-1.9c0-0.6,0-1.2-0.1-1.9c-0.1-1.3-0.2-2.5-0.4-3.8c-0.2-1.3-0.3-2.5-0.6-3.8
			c-1.7-10.2-4-20.3-6.5-30.3l0,0c-0.3-1.1,0.4-2.2,1.4-2.4C333.6,196.2,334.7,196.8,335,197.9C335,197.9,335,197.9,335,197.9z"/>
	</g>
	<path class="st24" d="M340.7,252.7c0,0,20.7,27.7,21.3,38c0.7,10.3-5.7,17.3-7.7,18"/>
	<path class="st25" d="M334.9,277.4c0,0,15,49,0,53.5s-24.5,0-24.5,0"/>
	<path class="st24" d="M338.4,268.1c0,0,1.5,28,3.8,36.5s9,31-20.3,32.3"/>
	<g>
		<path class="st23" d="M337.6,262.4c-1.7,4-3,8.2-3.7,12.4c-0.7,4.3-0.8,8.6,0.4,12.8c2.1,8.5,4,17,5.2,25.7
			c0.3,2.2,0.5,4.4,0.5,6.6c0,1.1,0,2.2-0.5,3.4c-0.1,0.1-0.2,0.3-0.3,0.4c-0.1,0.1-0.3,0.2-0.5,0.3c-0.2,0.1-0.4,0.2-0.6,0.4
			c-0.4,0.3-0.8,0.7-1.2,1c-1.6,1.5-3.8,2.5-5.9,3c-1.1,0.2-2.2,0.5-3.3,0.5c-0.5,0-1.1,0.1-1.6,0.1l-1.6,0c-4.4,0.1-8.8-0.4-13.1-1
			c-4.3-0.7-8.6-1.4-13-1.7c-8.7-0.7-17.4-0.7-26.1-0.3c-8.7,0.4-17.4,1.2-26.1,2.3c-4.3,0.6-8.6,1.3-12.9,2.1
			c-2.1,0.4-4.3,0.9-6.3,1.6c-1,0.4-2.1,0.7-2.9,1.4c-0.8,0.7-1.6,1.4-2.4,2.2c-2.9,3.2-5.4,6.9-7.4,10.7c-1,1.9-1.8,4-2.4,6.1
			c-0.5,2.1-0.8,4.4,0.1,6.4c-0.9-2-0.7-4.3-0.2-6.4c0.5-2.1,1.4-4.1,2.4-6.1c2-3.9,4.5-7.5,7.4-10.8c0.7-0.8,1.5-1.6,2.4-2.3
			c0.9-0.7,1.9-1,3-1.4c2.1-0.7,4.2-1.2,6.4-1.6c4.3-0.9,8.6-1.6,12.9-2.2c8.7-1.2,17.4-2,26.1-2.4c8.7-0.4,17.5-0.5,26.2,0.2
			c4.4,0.3,8.7,1.1,13,1.7c4.3,0.6,8.7,1,13,0.9l1.6-0.1c0.5,0,1.1-0.1,1.6-0.2c1.1-0.1,2.1-0.3,3.2-0.5c2.1-0.5,4-1.4,5.6-2.9
			c0.4-0.3,0.8-0.7,1.3-1.1c0.2-0.2,0.5-0.3,0.8-0.4c0.1-0.1,0.1-0.1,0.2-0.1l0.2-0.3c0.4-0.9,0.4-2,0.4-3.1c0-2.2-0.3-4.3-0.6-6.5
			c-1.2-8.6-3.2-17.1-5.3-25.6c-0.3-1-0.5-2.2-0.7-3.2c-0.1-1.1-0.3-2.2-0.3-3.3c0-2.2,0.1-4.4,0.5-6.6c0.7-4.4,2-8.6,3.7-12.7
			c0.1-0.3,0.4-0.4,0.7-0.3C337.6,261.8,337.7,262.1,337.6,262.4L337.6,262.4L337.6,262.4z"/>
	</g>
</g>
<g id="Layer_3">
	<path class="st26" d="M257.6,301.1c0.6,0.9,1.3,1.5,2.5,2.3c3.4,2.1,7.7,4.7,11.9,4.7c5.5,0,17.1,2.3,12.3-12.8
		c-4.8-15.1-7.1-21.2-22.4-28.8c-15.3-7.5-25.8-9.4-28.1-3.4c-2.3,5.9,0.7,11.9,2.7,14.4h0.9c0,0,5.9,0.9,8.5,4.1
		c0.6,0.7,4.6,7.2,1.2,6.7c0.5,0.8,1.5,1.2,2.2,2c0.2,0,0.4,0.1,0.6,0.1c1,1.1,1.9,2.2,2.9,3.3c1.7,1.9,3.2,3.9,4.2,6.2
		C257.2,300.2,257.4,300.7,257.6,301.1z"/>
	<g class="st27">
		
			<image style="overflow:visible;opacity:0.5;" width="283" height="250" xlink:href="D7FC376E.png"  transform="matrix(0.24 0 0 0.24 304.4584 194.5428)">
		</image>
		<g>
			<path class="st28" d="M308.3,221.7c0,0,16.6,5.2,23.7,0s19.9-24.9,20.6-26.2c0.7-1.3,4,12.6,7.9,15.2c3.9,2.6,9.5,8.8,9.5,12.3
				s0.6,28.2-1.3,27.8c-1.8-0.5-10.4-12.2-21.9-14.2c-4.8-0.8-12.1-2.6-18.9-2.6c-9.7,0-18.7,2.1-19.8,2.6
				C306.2,237.6,305.8,222.9,308.3,221.7z"/>
		</g>
	</g>
	<path class="st29" d="M352.7,196.4c0,0-14.1,29.3-29.6,27.6c-15.6-1.7-14.2-2.1-14.2-2.1"/>
	<path class="st29" d="M308.1,236.7c0,0,38.8-11.8,60.8,13.8"/>
	<path class="st29" d="M307.2,234.7c0,0,42.1-9.5,61.9,13.2"/>
	<path class="st29" d="M307.3,232.6c0,0,45.2-5.3,62.4,8.4"/>
	<path class="st29" d="M307.1,230.9c0,0,48.8-2.9,63.2,1.9"/>
	<path class="st29" d="M308.2,223.7c0,0,24.5,10.3,48.2-18.3"/>
	<path class="st29" d="M307.1,225.4c0,0,35.6,6,54-15.6"/>
	<path class="st29" d="M306.9,227.4c0,0,42.4,2.3,56.9-12.6"/>
	<path class="st29" d="M307.1,229.1c0,0,53.2-0.1,60.9-9.3"/>
	<path class="st29" d="M368.5,227.1c0,0-39.2,2.1-41.3,1.9"/>
	<path class="st29" d="M236.4,275.8c0,0,7.1,0.8,10.3,4.7c3.2,3.9,5.4,9,2.4,9.1"/>
	<path class="st29" d="M235.4,273.8c0,0,9.5,1.6,12,5.1s6.6,12.7,3.4,12.6"/>
	<path class="st29" d="M235.1,270.8c0,0,10.3,2.9,14,9c3.7,6.1,4.7,9.8,4.1,10.9"/>
	<path class="st29" d="M234.5,268c0,0,14.3,5.3,17.3,12.3c2.9,7,4.2,12.2,1.3,13"/>
	<path class="st29" d="M234.3,265.2c0,0,14.7,6.6,17.4,11.8s7.3,17.5,2.3,17.8"/>
	<path class="st29" d="M234.8,264.1c0,0,15.6,6,18.1,11.9c2.5,5.9,9.7,22.6,2.1,20.7"/>
	<path class="st29" d="M235.1,262.5c0,0,17.6,7.3,19.6,13.7c2.1,6.5,7.3,21.2,3.8,21.7c-3.5,0.5-3,0.2-3,0.2"/>
	<path class="st29" d="M238.4,260.4c0,0,18.6,10,20.2,21c1.7,11,4.6,20-1.7,18.8"/>
	<path class="st29" d="M250.8,262.6l-5.6-1.2c0,0,11.7,5.9,15.7,22.6s-0.4,17.8-2,17.9"/>
	<path class="st29" d="M257.3,264.9c0,0,15.9,28.3,10.7,32.9s-6,6.1-6,6.1"/>
	<path class="st29" d="M262.6,268.2c0,0,14.7,31.8,8.4,33.4c-6.3,1.6-8.5,2.7-8.5,2.7"/>
	<path class="st29" d="M268.2,271.6c0,0,13.3,28.5,6.6,31.1c-6.7,2.6-9.5,2.5-9.5,2.5"/>
	<path class="st29" d="M274.8,276.5c0,0,9.7,25.4,2,27.7c-7.7,2.2-9.8,1.7-9.8,1.7"/>
	<path class="st29" d="M280.8,286.4"/>
	<path class="st29" d="M280,284.7c0,0,5.1,19.1-2.2,20.6c-7.4,1.5-8.4,1.5-8.4,1.5"/>
	<path class="st29" d="M283.5,297c0,0-1,10.4-5.8,10.2c-4.8-0.2-5.6,0.3-5.6,0.3"/>
	<path class="st29" d="M254,263.9c0,0,13.8,21.8,11.5,29.2c-2.3,7.5-5,9.5-5,9.5"/>
</g>
</svg>
