<?xml version="1.0" encoding="utf-8"?>
<!-- Generator: Adobe Illustrator 19.2.1, SVG Export Plug-In . SVG Version: 6.00 Build 0)  -->
<svg version="1.1" xmlns="http://www.w3.org/2000/svg" xmlns:xlink="http://www.w3.org/1999/xlink" x="0px" y="0px"
	 viewBox="0 0 652 245.9" enable-background="new 0 0 652 245.9" xml:space="preserve">
<pattern  x="-643.6" y="-175.1" width="54" height="54" patternUnits="userSpaceOnUse" id="USGS_21_Intricate_Surface" viewBox="10.5 -67.3 54 54" overflow="visible">
	<g>
		<rect x="10.5" y="-67.3" fill="none" width="54" height="54"/>
		<g>
			<path d="M33.1-11.8c-0.8,0.5-1.3,4.7-2.1,5.3c-0.3,0.2-0.8,0.7-0.8,0.9c0,0.5-0.3,0.4-0.3,0.9c0,1-0.7,2.3-2.1,2
				c-0.4-0.1-0.7-1,1.4-2.1c0.2-0.1,0-0.9,0.1-1.3c2-5.3,3.9-9.6,4.4-8.3L33.1-11.8z"/>
			<path d="M38.8-10.8c-0.2-0.5-0.4-0.8-0.4-1.2c-1.1,0.2-2.2,0.5-3.3,0.7c-0.9-1,1.1-1.4,2.5-2.1c0.5-0.2,2.2-1.3,2.7-1.4
				C40.1-13.8,39.1-12.1,38.8-10.8z"/>
			<path d="M59.3-8.3c0.2,0.7-0.2,1.3-0.8,1.4c-0.9,0.1-2,0.4-2,0.9c-0.1,1.6-1.2,2.6-2.5,3c1.2-2.3,2.9-3.8,5.2-5.4
				c0.2-0.2-0.1-0.9,0.1-1.3C60-11,62-9.6,62.2-12c0-0.2-0.4-0.5-0.7-0.7c2.1,0.6,1.9-2.1,3.8-2.3c0,0.5,0,1,0,1.5
				c-0.9-0.2-1.5,0.4-2.3,0.7C60.7-11.6,63.1-8.7,59.3-8.3z"/>
			<path d="M14.4-6.8c-0.3-2,2.6-5.8,3.6-7.5c0.5,0.5,0.3,1.3,0.3,1.7c-0.4,2-2.6,3.3-2.6,5.9c-0.6,0.9-0.5,1.6-2.1,1.5L14.4-6.8z"
				/>
			<path d="M21.9-12c0.2-0.9-0.3-1.6-0.8-2.3c0.7-0.2,1.3,0.2,1.4,0.8C22.6-12.9,22.2-12.5,21.9-12z"/>
			<path d="M12.8-12.2c-1.8-0.2-0.2-1.6-0.8-2.3C14.2-14.3,11.4-12.6,12.8-12.2z"/>
			<path d="M24.1-11.1c1.7-1.2,2.3-4.9,4.1-5.7c-1.5,1.2-1.7,4.9-2.9,6.2c-2.3,2.5-5.6,3.8-7.3,6.9C17.5-2.6,18.8-1,17.3,0
				C17-2.4,17-5,18.9-6.6C20.9-8.1,22.1-9.6,24.1-11.1z"/>
			<path d="M47-11.6c-0.4,0.5-1.2-0.1-1.3-0.7c-0.2-1-1.2-2.6-0.1-3c0.9,0.8,1.9,0.8,3,0.8C46-14.5,47.7-12.4,47-11.6z"/>
			<path d="M54.5-10.9c0.2,0.3,0.7-0.1,1-0.4c-1.1-0.6,0.1-2.2-1.2-2.4c-0.5-0.1-1,0.5-1.7,0.4C53.1-12.2,53.9-12,54.5-10.9z"/>
		</g>
		<g>
			<path d="M5.3-8.3c0.2,0.7-0.2,1.3-0.8,1.4c-0.9,0.1-2,0.4-2,0.9C2.4-4.4,1.3-3.4,0-3c1.2-2.3,2.9-3.8,5.2-5.4
				c0.2-0.2-0.1-0.9,0.1-1.3C6-11,8-9.6,8.2-12c0-0.2-0.4-0.5-0.7-0.7c2.1,0.6,1.9-2.1,3.8-2.3c0,0.5,0,1,0,1.5
				c-0.9-0.2-1.5,0.4-2.3,0.7C6.7-11.6,9.1-8.7,5.3-8.3z"/>
		</g>
		<g>
			<path d="M63.8-24.1c0.8-0.3,1.7,0.7,2.1,0.5c2.1-1,2-3.6,4.7-1.4c0,0,0.6-0.4,0.6-0.6c-0.1-0.8-0.9-1.4-0.6-2.2
				c0.2-0.6,0.8-0.7,1.4-0.9c1.9-0.6-0.5-2.5,2.2-3.8c0.3-0.2,0.3-1.4,0-2c-0.8-1.3-2.3-0.8-3.6-0.8c1.3,0.1,2.2-0.6,3-1.5
				c-0.3,0.5-0.5,1-0.8,1.5c1,0.5,2,1,3,1.5c-0.5,0.3-1.2,0.4-1.4,0.8c-0.3,0.9,0.2,2.1-0.3,2.9c-0.1,0.2-1-0.1-1.3,0.2
				c-1.2,1.4-0.6,4-1.8,4.8c-2,1.4-6,1-7,4.1c-0.2,0.6,1.1,1.3,2,1.3c1,0.1,1.9-0.7,2.2-2.1c-0.2,0.9,0.2,1.9,0.8,2.1
				c1.5,0.6,1.4-2.5,2.9-2c0.4,0.1,0.8,0.9,0.7,1.3c-0.1,0.4-0.9,0.7-1.4,0.7c-0.3,0-0.6-0.6-0.7-0.6c-1.5,0.7-3.6,0.5-4.5,2.2
				c-0.2,0.4-0.1,1-0.1,1.5c-0.8-0.1-2.2,0.3-2.1-0.7c0.1-1,1-2,0.5-3c-0.2-0.4-0.9-0.5-1.4-0.8L63.8-24.1z"/>
			<path d="M65.3-33.2c-1.6,0.2-0.7-0.9-0.8-1.5C64.8-34.2,65-33.7,65.3-33.2z"/>
			<path d="M64.9-57.9c-0.1,2.4-0.2,1.6-2.6,2.4c0.5-0.3,2-0.9,2.1-1.3c0.2-0.8-0.1-1.1,0.3-1.8c-0.2-0.8-1.5-0.7-0.8-1.8
				c1-1.5,0.2-3.7,2.1-4.5c0.4-0.2,0.2,0.5,0.7,0.5C66.8-62.4,65-60.1,64.9-57.9z"/>
			<path d="M63-30c0.5-1.5,1.8-1.3,3-1.5C65.3-30.5,64.1-30.3,63-30z"/>
		</g>
		<g>
			<path d="M16.1-38.3c-0.2,0.1-0.5,0-0.7,0c0.4-0.8,0.7-1.7,1.5-2.3c0.3,0.5,0.7,1.1,0.6,1.5C17.4-38.6,16.7-38.4,16.1-38.3z"/>
			<path d="M33.1-65.8c-0.8,0.5-1.3,4.7-2.1,5.3c-0.3,0.2-0.8,0.7-0.8,0.9c0,0.5-0.3,0.4-0.3,0.9c0,1-0.7,2.3-2.1,2
				c-0.4-0.1-0.7-1,1.4-2.1c0.2-0.1,0-0.9,0.1-1.3c2-5.3,3.9-9.6,4.4-8.3L33.1-65.8z"/>
			<path d="M24.8-57.3c-0.7-0.2-1.7-1.1-1.6-1.3C24.1-61,25-62,25.9-62c0.9,0-1.2,1.4-1.7,2.5c-0.5,1,1.9,2.5,1.5,3.1
				C25.3-55.8,25.3-56.7,24.8-57.3z"/>
			<path d="M22.5-56.3c-0.6,1.9-0.4,2.1-3,3c0.8-0.2,0.6,0.1,0.8-2.3C20.3-55.8,22-56,22.5-56.3z"/>
			<path d="M20.2-47.3c-0.2,0.5-0.5,1.3-0.7,1.3c-2,0.2-2.4,1.7-3,3.2c1.3,0.4,2.2,1.7,3.8,1.5c-0.7,0.4-1.5,1.1-2.2,0.6
				c-0.3-0.2,0-1.2-0.1-1.2c-2.9-1-2.2-3.1-0.6-4.5c0.2-0.1,1,0.6,1.3,0.5c1.3-0.7-0.5-4.5,0.8-3.6c0.7,0.7,1.7,1.5,2.8-0.1
				c0.5-0.7,0.2-1.9,0.2-2.9c0.4-0.8,2.1-0.3,2.1,0.8C24.7-49.2,21.1-49.5,20.2-47.3z"/>
			<path d="M29.2-49.5c-0.2,0.3-0.5,0.7-0.7,0.7c-0.3,0-0.5-0.4-0.8-0.7c0.5-0.3,1.3-0.5,1.3-0.8c0.1-1.5-0.2-3.2-2.1-3.7
				C30-54.9,30.9-51.6,29.2-49.5z"/>
			<path d="M32.4-48c0.3-3.9-0.5-6,3.6-4.5c0.9,1.3-1.8,0.2-2.1,0.8c-0.2,0.3,1.7,1.1,1.6,1.4c-0.1,0.4-2.1,0.4-2.3,0.8
				c-0.4,0.7,0.3,1.5,0.7,2.2C33.2-47.5,32.4-47.8,32.4-48z"/>
			<path d="M36.7-47.4c-0.1,0.1-0.5-0.4-0.7-0.6c0.8-0.4,1.3-2.1,2.1-1.3C38.8-48.6,37.5-47.1,36.7-47.4z"/>
			<path d="M26-40.6c-0.4,0.5-1.2-0.1-1.3-0.7c-0.2-1-1.2-2.6-0.1-3c0.9,0.8,1.9,0.8,3,0.8C25-43.5,26.7-41.4,26-40.6z"/>
			<path d="M41.5-51.2c2.8-0.4,3.1-2.8,4.6-4.2c0.3-0.3,1,0.1,1.4-0.2c0.9-0.7,1-1.8,0.8-2.9c1.3,1.7,2.6-0.6,3.6,0.2
				c1.7,1.5,1.5,4,3.9,5c-0.4,1.9-2.1,2.9-3,4.5c0.8-2.6,2.8-5.4-0.8-6.8c0.3-0.3,0.7-0.5,0.7-0.8c0-0.5-0.3-1.2-0.7-1.4
				c-0.9-0.4-2.3-0.3-2.8,0.7c-0.9,1.8-1.5,1.9-2.9,3.2c-0.7,0.6,0,2.4-1,3.5c-0.3-0.3-0.6-0.8-0.7-0.7c-1,1.8-2.3,1.6-2.6,0.5
				L41.5-51.2z"/>
			<path d="M40.9-55L40.9-55c-0.2-0.2-1.3,0.4-1.3,0.7c-0.1,1.6-0.4,3.3-2.4,3c2.4-2,3.1-4.9,4.4-7.5c0.4-0.9-2.7-3.1-1.4-3.9
				l2.3,0.9c0.7-0.7,1.4-1.2,3,0c-1.1,0-2.3-0.2-2.9,0.8c-0.9,1.7-0.1,2.6-0.3,4.4c0,0.3-1.1,0.4-1.2,0.8C41-55.5,40.9-55.2,40.9-55
				z"/>
			<path d="M38.8-64.8c-0.2-0.5-0.4-0.8-0.4-1.2c-1.1,0.2-2.2,0.5-3.3,0.7c-0.9-1,1.1-1.4,2.5-2.1c0.5-0.2,2.2-1.3,2.7-1.4
				C40.1-67.8,39.1-66.1,38.8-64.8z"/>
			<path d="M48.8-26.3c0.5-1.1,1.4-0.7,2.3-0.8C50.5-26.1,49.6-26.1,48.8-26.3z"/>
			<path d="M58.1-65.2c-0.5,4.3-0.6,0-0.8,0c0.7-0.3,1.8-0.2,1.5-1.5C58.5-66.2,58.1-65.8,58.1-65.2z"/>
			<path d="M59.3-62.3c0.2,0.7-0.2,1.3-0.8,1.4c-0.9,0.1-2,0.4-2,0.9c-0.1,1.6-1.2,2.6-2.5,3c1.2-2.3,2.9-3.8,5.2-5.4
				c0.2-0.2-0.1-0.9,0.1-1.3C60-65,62-63.6,62.2-66c0-0.2-0.4-0.5-0.7-0.7c2.1,0.6,1.9-2.1,3.8-2.3c0,0.5,0,1,0,1.5
				c-0.9-0.2-1.5,0.4-2.3,0.7C60.7-65.6,63.1-62.7,59.3-62.3z"/>
			<path d="M61.4-56.3c-0.2,0.9-0.6,2-1.5,2.1c-0.7,0.1-1.5,1.1-2.2-1.4c2.3,0.7,3-1.2,3.8-3C61.5-57.7,61.6-57,61.4-56.3z"/>
			<path d="M57.8-48.7c-0.2,0.4-0.1,1-0.1,1.5c-0.8-0.9-1.1-2.1-0.6-2.9c0.3-0.4,1.3-0.1,2.1-0.1C58.7-49.7,58.1-49.3,57.8-48.7z"/>
			<path d="M45.3-45c0-0.5,0.3-1.2,0.1-1.4c-0.8-0.5-1.9-0.3-2.9-0.4c0.3-0.2,0.5-0.5,0.8-0.6c0.9-0.2,1.7,0.9,2,0.7
				c1.9-1.1,4.2-4.7,5.8-6.3c0.2,0.3-1,2.6-1,2.7C48.2-48.1,47-47.2,45.3-45z"/>
			<path d="M49.3-43.1c-0.7-0.4-2-0.4-1.3-1.5c1.3-2.2,4.1-2.2,5.9-3.8c0.4,2.1,3.2,1.6,4.4,3.1c0.3,0.3,0,0.9,0.1,1.4
				c0.2,0.8,0.2,1.8,1.5,1.5c-0.3,0.3-0.5,0.5-0.8,0.8c-1.3-2-1.6,0.2-3,0c0.5-0.3,1.3-0.4,1.4-0.8c0.4-1.2,0.5-2.7-0.7-3.7
				c-0.4-0.4-1.1-0.8-1.4-0.6c-0.9,0.5-1,1.7-0.8,2.9c-1.2-1.1-1.8-3.8-3.6-2.8c-0.6,0.3-1.3,1.2-2.1,2.2c-1.1,1.3,2.4,0.9,2,2.8
				C50.3-42.1,49.9-42.7,49.3-43.1z"/>
			<path d="M42.3-42.8c0.1,0.2,1-0.3,1.2-0.1c0.5,0.5,1.8,1.1,2,1.9c0.4-0.3,1.2-0.7,1.2-1c0-1-2.5-1.2-3.9-1.7
				c-0.7-0.2-1.2-1-1.2-1.9C41.8-44.7,41.8-43.5,42.3-42.8z"/>
			<path d="M38.9-43.2c0.5,1.6-0.8,1.1-1.4,0.2c-0.4-0.9-0.9-3.7,1.5-3.8c0.2,0,0.5,0.4,0.7,0.7C39.2-45.8,37.2-48.8,38.9-43.2z"/>
			<path d="M14.4-60.8c-0.3-2,2.6-5.8,3.6-7.5c0.5,0.5,0.3,1.3,0.3,1.7c-0.4,2-2.6,3.3-2.6,5.9c-0.6,0.9-0.5,1.6-2.1,1.5L14.4-60.8z
				"/>
			<path d="M11.8-52.9c2.3-1.3,0-1.4,2.7-2.6c1.3,0.4,1.6,2,1.7,3.4c0,0.3-0.4,1.4-0.4,1.9c-0.3-0.5-0.5-1-0.8-1.5
				c-0.3-0.5-0.5-1.8-0.6-1.8C13-53.8,11.8-52.9,11.8-52.9z"/>
			<path d="M27.6-64.9c0-0.5,0-1,0-1.5c0.7,0.4,1.4,0.9,2.3,0.8C29.1-65.4,28.4-65.2,27.6-64.9z"/>
			<path d="M14.3-45.9c0.5,1.6-0.8,1.1-1.4,0.2c-0.4-0.9-0.9-3.7,1.5-3.8c0.2,0,0.5,0.4,0.7,0.7C14.7-48.5,12.6-51.5,14.3-45.9z"/>
			<path d="M9.8-24.1c0.8-0.3,1.7,0.7,2.1,0.5c2.1-1,2-3.6,4.7-1.4c0,0,0.6-0.4,0.6-0.6c-0.1-0.8-0.9-1.4-0.6-2.2
				c0.2-0.6,0.8-0.7,1.4-0.9c1.9-0.6-0.5-2.5,2.2-3.8c0.3-0.2,0.3-1.4,0-2c-0.8-1.3-2.3-0.8-3.6-0.8c1.3,0.1,2.2-0.6,3-1.5
				c-0.3,0.5-0.5,1-0.8,1.5c1,0.5,2,1,3,1.5c-0.5,0.3-1.2,0.4-1.4,0.8c-0.3,0.9,0.2,2.1-0.3,2.9c-0.1,0.2-1-0.1-1.3,0.2
				c-1.2,1.4-0.6,4-1.8,4.8c-2,1.4-6,1-7,4.1c-0.2,0.6,1.1,1.3,2,1.3c1,0.1,1.9-0.7,2.2-2.1c-0.2,0.9,0.2,1.9,0.8,2.1
				c1.5,0.6,1.4-2.5,2.9-2c0.4,0.1,0.8,0.9,0.7,1.3c-0.1,0.4-0.9,0.7-1.4,0.7c-0.3,0-0.6-0.6-0.7-0.6c-1.5,0.7-3.6,0.5-4.5,2.2
				c-0.2,0.4-0.1,1-0.1,1.5c-0.8-0.1-2.2,0.3-2.1-0.7c0.1-1,1-2,0.5-3c-0.2-0.4-0.9-0.5-1.4-0.8L9.8-24.1z"/>
			<path d="M20.7-16.7c0.4-0.1,0.5-0.9,0.8-1.4c0.5,0.3,1,0.5,1.5,0.8c1.3-3.2,3.6-7.4,7.5-7.5c0,0.5,0,1,0,1.5
				c-0.9-0.2-1.8,0.2-2.1,0.8c-0.7,1.2,1.6,1.9-0.1,3.7c0-1.3,0.4-3.1-0.8-3.5c-1.5-0.5-2.5,1.9-2.2,3.5c-0.5,0-1.3-0.1-1.4,0.1
				c-0.9,2-3.3,2.4-3.9,4.4c-1.2-1.3-3.4-1.6-3.8-3.7C18.1-18.6,19.1-16.1,20.7-16.7z"/>
			<path d="M11.3-33.2c-1.6,0.2-0.7-0.9-0.8-1.5C10.8-34.2,11-33.7,11.3-33.2z"/>
			<path d="M15.1-33.3c0.6,0.8,0.8,1.5,0.6,2.3c-0.5-0.3-1.3-0.5-1.3-0.7c0.1-1.7-1.5-2.9-0.9-4.5C14.5-35.5,14.5-34.2,15.1-33.3z"
				/>
			<path d="M11.3-37.7c-0.2-1.7,1.1-0.3,1.5-0.8C12.2-38.2,11.7-37.9,11.3-37.7z"/>
			<path d="M24.8-36.2c-0.1,2.5,1.8,4,3.7,5.2c-0.6-0.8-1.4-1.3-2.3-1.4c-0.2,0-0.5,0.6-0.7,0.6c-0.5,0-1.3-0.4-1.3-0.7
				c-0.1-1.5-0.8-2.9,0.5-4.6c0.2-0.2-0.4-0.9-0.6-1.4c-0.5,0.3-1,0.5-1.5,0.8c-0.5-1-1-2-1.5-3c2.3,0.3,2.6,3,4.5,3.8
				C25.2-36.7,24.8-36.4,24.8-36.2z"/>
			<path d="M29.6-32.7c1.3,0.1,1.3-0.9,1.3-1.6c0-0.7-0.5-1,1.2-2.6c0.3-0.3,0.4-1.4,0.7-2.1c0.3,0.2,0.5,0.4,0.8,0.7
				c-0.5,0.3-1.2,0.5-1.3,0.9c-0.2,0.6,0.3,1.7,0,2.1c-0.6,0.7-1.8,1.1-1.8,2.6c0,0.2,0.7,0.5,0.6,0.6c-0.4,1.1-0.5,2-0.4,3.1
				C29.2-29.9,29.7-31.4,29.6-32.7z"/>
			<path d="M37-35.5c-1.3,1.6-2.9-0.1-3.8,1.9c1.3-0.5,0.5,0.4,3,0.8c-0.1-0.6-0.3-1.4-0.1-1.5c2.4-1.4,1.2-4.5,3-6.4
				c-0.3-0.1-0.7-0.2-1-0.2c0.1,0.6-0.7,2.9-0.9,3.1C35.4-36.8,38-36.9,37-35.5z"/>
			<path d="M31.6-26.6c-1.8-1.5-1.8,0.4-3.1,0.2c0.3-0.5,0.5-1,0.8-1.5c1.3,1.7,2.6-0.6,3.6,0.2C33.6-27.1,31.9-26.4,31.6-26.6z"/>
			<path d="M33.1-22.6c0,0.3-1,0.4-1.2,0.8c-1,2.2-0.3,2.8,0.7,4.4c-0.7,0.2-1.3-0.2-1.4-0.8c-0.2-1.3,0.6-1.2-0.7-2.4
				c-0.4-0.4,1.3-1.3,1.7-2.2c0.6-1.6,1.9-2.1,2.8-3.5c0.3-0.5,1.3,0.2,1.2,0.6C35.9-23.9,33.3-26.2,33.1-22.6z"/>
			<path d="M33.5-59.3c-0.4-0.3,0.3-0.9,0.9-1.2c0.6,1.5,3.2,0.4,3.2,2.1c0,0.6-0.9,1.2-1,2.1C35.2-57.3,35.1-58.2,33.5-59.3z"/>
			<path d="M39.8-26.8c0.8,1.6-1.2,1-1.5,1.8C37.2-26.9,40.1-25.5,39.8-26.8z"/>
			<path d="M41.6-26c0.5,0.2,1,0.5,1.5,0.7c0.2-0.5,0.8-1.1,0.6-1.4c-1-2.2,0.3-4.4,1-6.4c1,0.4,1.8,0,2.2-0.8
				c0.9-1.8,2.8-4.6,3-6.7c-0.6,0.1-1.4,0.1-1.5,0.4c-0.9,3.2-3.6,8.1-7.1,8.9c-0.1,0-0.2,0.6-0.1,0.9c0.3,0.8,1.5,0.9,1.8,1.4
				C43.4-27.9,42.3-26.9,41.6-26z"/>
			<path d="M39.9-35.4c0.1,0.5-0.3,1.1,0.2,1.6c0.9-2.2,0.9-4.6,3.3-6.3c-0.9-0.7-1.6,0.1-2.3,0.5C42.2-37.8,39.4-37.3,39.9-35.4z"
				/>
			<path d="M44.3-20.4c-0.6,1.2,1.5,2.9,2.1,2.7c0.8-0.2,2-0.8,1.6-2.8c3.1,0.2,6.8,3.3,4.3,5.8c-0.5,0.5-1.9-0.2-2.8-0.6
				c1.7-0.3,2.8-2.2,2.1-3.7c-0.3-0.6-1.2-0.9-2.1-0.8c-2,0.2-1.1,2-2.3,3c-0.4,0.4-1,0.7-1.5,0.7c-0.9-0.1-1.6-0.9-2.3-1.3
				c-0.3-0.2-1.1,0.3-1.3,0.7c-0.4,0.8-0.3,1.7,0.7,2.2c-1.3,0.3-1.5-0.9-1.3-1.5c0.3-1.4,2.8-1.2,2.8-3c0-1-0.7-1.9-2.2-2.3
				c3.3,0.7,2.5-2.9,4.9-3.7c1.5-0.5,0.8,0.8,0.6,1.4C47.1-22.1,45-21.7,44.3-20.4z"/>
			<path d="M49.3-29.6c-0.5,0.1-1,0.5-1.5,0.7c1.2-0.8,0.1-2.1,2.1-3.2c0.5-0.3,0.3-1.5-0.6-2c0.3-0.3,0.5-0.5,0.8-0.8
				c-0.3,1.8,0.4,3.5,0.8,5.3C50.2-29.7,49.7-29.8,49.3-29.6z"/>
			<path d="M54.7-32.9c0,0.5-0.4,1-0.7,1.5c-0.3-0.3-0.7-0.6-0.6-0.7c0.5-1,0.7-2,0.6-3.1C54.3-34.4,54.7-33.7,54.7-32.9z"/>
			<path d="M53.6-38.6c-1.3,0.3-1.4-0.8-1.4-1.5c0-0.5,0.8-1.1,1.3-0.7c0.5,0.5,0,1.7,2.3,1.4C55.1-39.1,54.4-38.8,53.6-38.6z"/>
			<path d="M57.6-38.2c-0.7,0.8-1,3-2,2C54.7-37.2,56.7-37.5,57.6-38.2z"/>
			<path d="M57.6-18.2c-0.2,0.9-0.5,2.8-2,2.1c-0.2-0.1-0.1-0.9-0.1-1.4c1.3,0.1,2.7-0.3,2.8-2.3c0-0.2-1.1-0.4-1.2-0.8
				c-0.1-0.7-1.1-1.5,1.4-2.2C57.5-21.3,57.9-19.7,57.6-18.2z"/>
			<path d="M10.9-57.9c-0.1,2.4-0.2,1.6-2.6,2.4c0.5-0.3,2-0.9,2.1-1.3c0.2-0.8-0.1-1.1,0.3-1.8c-0.2-0.8-1.5-0.7-0.8-1.8
				c1-1.5,0.2-3.7,2.1-4.5c0.4-0.2,0.2,0.5,0.7,0.5C12.8-62.4,11-60.1,10.9-57.9z"/>
			<path d="M59-33.1c0.3-3.9-0.5-6,3.6-4.5c0.9,1.3-1.8,0.2-2.1,0.8c-0.2,0.3,1.7,1.1,1.6,1.4C61.9-35,60-35,59.7-34.6
				c-0.4,0.7,0.3,1.5,0.7,2.2C59.9-32.7,59-32.9,59-33.1z"/>
			<path d="M57.4-28.7c-1.3-0.2-1.3,0.8-1.4,1.5c0,0.2,0.6,0.6,0.6,0.7c-0.7,1.6-2.4,0.5-3.6,0.8c0.5,0,1.2,0.2,1.4-0.1
				c0.9-1.4,2.8-3.6,0.9-5.2c1,1.2,3.2,0.4,3.8,2.3C58.4-28.7,57.9-28.6,57.4-28.7z"/>
			<path d="M53.8-21.7c-1.5,0.1-3.3,0.6-4.9,0.2c0.3-0.3,1.1-0.8,1.3-0.8c0.5,0,0.5,0.7,0.9,0.6c0.4-0.1,0.5-1.2,0.8-1.2
				c1.6-0.1,3-0.8,4.5-0.9c-0.3,0.5-0.4,1.2-0.8,1.4C55-22,54.6-21.7,53.8-21.7z"/>
			<path d="M60.8-25.3c-0.2,0.5-1-0.1-1.3-0.7c1.4-0.9-0.1-3.2,1.5-3.6c0.6-0.1,1.3,0.7,2.2,0.6C62.4-27.3,61.5-27,60.8-25.3z"/>
			<path d="M32-44.6c-1.3-0.2-1.3,0.8-1.4,1.5c0,0.2,0.6,0.6,0.6,0.7c-0.7,1.6-2.4,0.5-3.6,0.8c0.5,0,1.2,0.2,1.4-0.1
				c0.9-1.4,2.8-3.6,0.9-5.2c1,1.2,3.2,0.4,3.8,2.3C33-44.6,32.5-44.5,32-44.6z"/>
			<path d="M27-36.6c0.5-1.5,1.8-1.3,3-1.5C29.3-37,28.1-36.9,27-36.6z"/>
			<path d="M12.9-40.6c-0.1,0.1-0.5-0.4-0.7-0.6c0.8-0.4,1.3-2.1,2.1-1.3C15-41.8,13.7-40.3,12.9-40.6z"/>
			<path d="M12.8-28.3c0.5-1.1,1.4-0.7,2.3-0.8C14.5-28.1,13.6-28.2,12.8-28.3z"/>
			<path d="M37.8-28.7c-0.5,0.5-0.4,0.6-0.7,0.7c-0.8,0.3-1.5-0.3-2.2-0.7c2.6,0.5,3.6-1.5,3-3.8c0.5,0.3,1.3,0.5,1.3,0.8
				C39.2-30.7,38.4-29.7,37.8-28.7z"/>
			<path d="M50.7-61c-0.5,0.5-0.4,0.6-0.7,0.7c-0.8,0.3-1.5-0.3-2.2-0.7c2.6,0.5,3.6-1.5,3-3.8c0.5,0.3,1.3,0.5,1.3,0.8
				C52.1-63,51.3-62,50.7-61z"/>
			<path d="M26.3-27.6c0.2-0.9-0.3-1.6-0.8-2.3c0.7-0.2,1.3,0.2,1.4,0.8C26.9-28.5,26.5-28.1,26.3-27.6z"/>
			<path d="M21.9-66c0.2-0.9-0.3-1.6-0.8-2.3c0.7-0.2,1.3,0.2,1.4,0.8C22.6-66.9,22.2-66.5,21.9-66z"/>
			<path d="M9-30c0.5-1.5,1.8-1.3,3-1.5C11.3-30.5,10.1-30.3,9-30z"/>
			<path d="M12.8-66.2c-1.8-0.2-0.2-1.6-0.8-2.3C14.2-68.3,11.4-66.6,12.8-66.2z"/>
			<path d="M65.1-45c-0.1,0.9-1.8,1.1-1.8,1.6c-0.2,1.9-0.9,2.2-1.8,3.7c-0.3-0.3-0.7-0.5-0.7-0.8c0-1,1.5-1.6,1.8-2.4
				c0.9-2.4,0.7-6.2,1.3-7.2c0.2,0.1,1.4-1.2,1.8-1.6L65.1-45z"/>
			<path d="M24.1-65.1c1.7-1.2,2.3-4.9,4.1-5.7c-1.5,1.2-1.7,4.9-2.9,6.2c-2.3,2.5-5.6,3.8-7.3,6.9c-0.6,1.1,0.7,2.7-0.8,3.7
				c-0.3-2.4-0.2-5,1.7-6.6C20.9-62.1,22.1-63.6,24.1-65.1z"/>
			<path d="M44.5-66.1c-0.7,0.8-1,3-2,2C41.5-65,43.6-65.4,44.5-66.1z"/>
			<path d="M47-65.6c-0.4,0.5-1.2-0.1-1.3-0.7c-0.2-1-1.2-2.6-0.1-3c0.9,0.8,1.9,0.8,3,0.8C46-68.5,47.7-66.4,47-65.6z"/>
			<path d="M54.5-64.9c0.2,0.3,0.7-0.1,1-0.4c-1.1-0.6,0.1-2.2-1.2-2.4c-0.5-0.1-1,0.5-1.7,0.4C53.1-66.2,53.9-66,54.5-64.9z"/>
			<path d="M31.3-54.3c0.5-1.5,1.8-1.3,3-1.5C33.5-54.8,32.4-54.6,31.3-54.3z"/>
			<path d="M61.5-51.6c0.5-1.1,1.4-0.7,2.3-0.8C63.2-51.4,62.4-51.4,61.5-51.6z"/>
			<path d="M66-16.7c-0.8-0.1-2.2,0.3-2.1-0.7c0.1-1,1-2,0.5-3c-0.2-0.4-0.9-0.5-1.4-0.8c-0.8,2.3-3.3,3.4-3.8,6
				c-0.1,0.8-0.5,2.1-1.3,1.3c-0.8-0.8,1.1-1,1.1-1.3c0.2-2.9,1.9-4.9,3.8-6.9c0.4-0.4-0.1-1.7,0.9-2c0.8-0.3,1.7,0.7,2.1,0.5
				l-0.1,0.3c-0.8,0.5-1.5,1.1-1.8,2.2c-0.2,0.6,1.1,1.3,2,1.3L66-16.7z"/>
			<path d="M37.3-60.8c0.2-0.9-0.3-1.6-0.8-2.3c0.7-0.2,1.3,0.2,1.4,0.8C37.9-61.8,37.5-61.3,37.3-60.8z"/>
			<path d="M34.7-44.4c1.7,0,0.1,1.1,0.5,1.6C35.1-43.3,34.9-43.9,34.7-44.4z"/>
			<path d="M60.8-45.6c0.2-0.9-0.3-1.6-0.8-2.3c0.7-0.2,1.3,0.2,1.4,0.8C61.4-46.5,61-46.1,60.8-45.6z"/>
			<path d="M54.3-59.8c0-0.9,0.6-1.5,1.1-2.1c-0.7-0.3-1.4,0-1.5,0.6C53.7-60.8,54.1-60.3,54.3-59.8z"/>
			<path d="M19.8-64.4c0.8,1.6-1.2,1-1.5,1.8C17.2-64.5,20.1-63.1,19.8-64.4z"/>
			<path d="M46-58.3c-1.6,0.2-0.7-0.9-0.8-1.5C45.5-59.3,45.7-58.8,46-58.3z"/>
			<path d="M36.5-17c1.3-0.3,0.9-1.3,0.7-2c-0.1-0.2-0.8-0.3-0.8-0.4c0.1-1.7,2-1.4,3-2.2c-0.5,0.2-1.2,0.3-1.2,0.6
				c-0.3,1.6-1.2,4.4,1.2,5.1c-1.4-0.8-3.1,0.9-4.3-0.6C35.6-16.6,36-16.8,36.5-17z"/>
			<path d="M21.8-42.8c-1.6,0.2-0.7-0.9-0.8-1.5C21.3-43.8,21.5-43.3,21.8-42.8z"/>
			<path d="M24-48.3c0.5-1.1,1.4-0.7,2.3-0.8C25.7-48.1,24.9-48.2,24-48.3z"/>
			<path d="M45.5-36.8c-1.6,0.2-0.7-0.9-0.8-1.5C45-37.8,45.2-37.3,45.5-36.8z"/>
			<path d="M41-22.3c0.1-0.6-0.3-1-0.6-1.5c0.6-0.1,1.1,0.1,1.1,0.5C41.5-22.9,41.2-22.6,41-22.3z"/>
			<path d="M35.6-22.1c-0.5,4.3-0.6,0-0.8,0c0.7-0.3,1.8-0.2,1.5-1.5C36-23.1,35.6-22.6,35.6-22.1z"/>
			<path d="M20.1-28.1c2.5-0.8,0.3-1.4,3.2-2c1.2,0.6,1.2,2.3,1,3.7c0,0.3-0.7,1.3-0.8,1.8c-0.1-0.5-0.3-1.1-0.4-1.6
				c-0.1-0.6-0.1-1.8-0.2-1.9C21.5-28.7,20.1-28.1,20.1-28.1z"/>
			<path d="M20.8-21.6c0.3,1.3,1.4,0.8,2,0.5c0.5-0.3,0.6-1.3-0.1-1.5c-0.7-0.2-1.5,0.8-2.4-1.3C20.5-23.1,20.6-22.4,20.8-21.6z"/>
		</g>
		<g>
			<path d="M5.3-62.3c0.2,0.7-0.2,1.3-0.8,1.4c-0.9,0.1-2,0.4-2,0.9c-0.1,1.6-1.2,2.6-2.5,3c1.2-2.3,2.9-3.8,5.2-5.4
				c0.2-0.2-0.1-0.9,0.1-1.3C6-65,8-63.6,8.2-66c0-0.2-0.4-0.5-0.7-0.7c2.1,0.6,1.9-2.1,3.8-2.3c0,0.5,0,1,0,1.5
				c-0.9-0.2-1.5,0.4-2.3,0.7C6.7-65.6,9.1-62.7,5.3-62.3z"/>
			<path d="M11.1-45c-0.1,0.9-1.8,1.1-1.8,1.6c-0.2,1.9-0.9,2.2-1.8,3.7c-0.3-0.3-0.7-0.5-0.7-0.8c0-1,1.5-1.6,1.8-2.4
				c0.9-2.4,0.7-6.2,1.3-7.2c0.2,0.1,1.4-1.2,1.8-1.6L11.1-45z"/>
			<path d="M12-16.7c-0.8-0.1-2.2,0.3-2.1-0.7c0.1-1,1-2,0.5-3c-0.2-0.4-0.9-0.5-1.4-0.8c-0.8,2.3-3.3,3.4-3.8,6
				c-0.1,0.8-0.5,2.1-1.3,1.3c-0.8-0.8,1.1-1,1.1-1.3c0.2-2.9,1.9-4.9,3.8-6.9c0.4-0.4-0.1-1.7,0.9-2c0.8-0.3,1.7,0.7,2.1,0.5
				l-0.1,0.3c-0.8,0.5-1.5,1.1-1.8,2.2c-0.2,0.6,1.1,1.3,2,1.3L12-16.7z"/>
		</g>
	</g>
</pattern>
<g id="Layer_1">
	<path id ="one" fill="none" stroke="#00A651" stroke-miterlimit="10" d="M23.4,147.6c0,0,184.2-42.2,206-40.7c38.7,2.7,76.6,14,91.1,14.7
		c14.5,0.7,46.5-20.2,105.9-17.4c59.3,2.8,190,43.4,190,43.4"/>
	<path id="two" fill="none" stroke="#00A651" stroke-miterlimit="10" d="M31,159.6c0,0,159.2-46.4,192-49.3c16.6-1.5,50,0.7,70,11.3
		s28.7,14.7,40,8c11.3-6.7,58.7-24.7,93.3-19.3c34.7,5.3,184,49.3,184,49.3"/>
	<path id="three" fill="none" stroke="#00A651" stroke-miterlimit="10" d="M37,172.3c0,0,94-37.8,120.5-44.2c18.9-4.6,40.5-13.7,74.5-15.5
		c36.8-2,55.4,7.6,67.2,14.2c16.8,9.3,29.9,7.1,36.8,2.5c10.1-6.8,50.3-16.5,73.2-18.3c15.8-1.3,76.8,13.6,105.2,25.2
		c20.9,8.5,96,36.2,96,36.2"/>
	<path id="four" fill="none" stroke="#00A651" stroke-miterlimit="10" d="M41.4,181.4c0,0,69.2-33,95.3-43.5c20.7-8.3,61.4-21,83.8-23
		c19.8-1.8,50.9-1.2,68.6,8.7c21.8,12.2,31.6,14,53.7,3.6c9-4.2,39.7-15.1,62.8-14.6c45,0.8,62.5,11.5,153.7,52.3
		c8.4,3.8,45.7,18.7,45.7,18.7"/>
	<path id="five" fill="none" stroke="#00A651" stroke-miterlimit="10" d="M45.4,186.5c0,0,66.5-30.5,82.5-31s74,6,94.5,4.5s59.6-3.5,73-9.4
		c24.5-10.9,43-3.2,55,2.4c12,5.6,72,17.4,104.5,6.7c32.5-10.7,65,0.3,73.5,3.8s71,30.5,71,30.5"/>
	<path id="six" fill="none" stroke="#F7941E" stroke-miterlimit="10" d="M42.9,191.8c0,0,66.5-30.5,82.5-31s74,6,94.5,4.5s65.7-2.3,78.6-9.4
		c19.9-10.9,27.9-10.6,49.4,2.3c11.4,6.8,72,17.4,104.5,6.7c32.5-10.7,65,0.3,73.5,3.8s71,30.5,71,30.5"/>
	<path stroke="#2BB673" stroke-width="0.5" stroke-miterlimit="10" d="M111.1,131.3c6.5-1.6,35.2-7,35.2-7"/>
	<path fill="none" stroke="#2BB673" stroke-width="0.5" stroke-miterlimit="10" d="M90.4,146.7c0,0,41.8-13.2,49.3-14.2"/>
	<path fill="none" stroke="#2BB673" stroke-width="0.5" stroke-miterlimit="10" d="M90.4,154.7c0,0,34.3-14.5,43.7-16.9"/>
</g>
<g id="Layer_3">
	<path fill="none" stroke="#C49A6C" stroke-width="0.5" stroke-miterlimit="10" d="M91.3,135.6c1.4,0.7,2.7,1.5,3.9,2.5
		c0.6,0.5,1.2,1.2,0.8,1.8c-0.1,0.3-0.4,0.4-0.6,0.7c-0.5,0.8,0.3,1.8,1.1,2.3c0.8,0.5,1.8,0.9,2.7,1.2"/>
	<path fill="none" stroke="#C49A6C" stroke-width="0.5" stroke-miterlimit="10" d="M78.5,149.6c1.1,0.2,2.2,0.4,2.8,1.3
		c0.2,0.3,0.4,0.8,0.6,1.1c0.9,1.8,2.9,3,4.8,2.8c1.7,2,3.3,4.2,4.5,6.6c-0.2-0.3-0.2-0.7-0.2-1"/>
	<path fill="none" stroke="#C49A6C" stroke-width="0.5" stroke-miterlimit="10" d="M91.9,136.5c-0.2,0.6-0.5,1.1-0.8,1.6
		c-1.2,2.3-0.6,5.7-2.7,7.2"/>
	<path fill="none" stroke="#C49A6C" stroke-width="0.5" stroke-miterlimit="10" d="M82.5,148c0,0,4.3-8.1,6.8-10.6"/>
	<path fill="none" stroke="#C49A6C" stroke-width="0.5" stroke-miterlimit="10" d="M78.5,148.7c1.2-1.1,2.6-9.9,7.4-11.3"/>
	<path fill="none" stroke="#C49A6C" stroke-width="0.5" stroke-miterlimit="10" d="M74.2,149.6c0,0,0.8-8.8,5.9-10.5"/>
	<path fill="none" stroke="#C49A6C" stroke-width="0.5" stroke-miterlimit="10" d="M70.4,150.8c0,0,0.2-7.1,4.5-9.9"/>
	<path fill="none" stroke="#C49A6C" stroke-width="0.5" stroke-miterlimit="10" d="M63.8,152.4c1-0.7,1.6-9.1,6.1-10.7"/>
	<path fill="none" stroke="#C49A6C" stroke-width="0.5" stroke-miterlimit="10" d="M57.3,155.7c4.3-4,3.9-10.9,7.6-12.1"/>
	<path fill="none" stroke="#C49A6C" stroke-width="0.5" stroke-miterlimit="10" d="M50.9,156.3c0,0,2.8-8.3,8.4-11"/>
	<path fill="none" stroke="#C49A6C" stroke-width="0.5" stroke-miterlimit="10" d="M76.6,150.8c0,0-0.3,1.4,2.7,2.2s3.9,2.1,3.9,2.1
		"/>
	<path fill="none" stroke="#C49A6C" stroke-width="0.5" stroke-miterlimit="10" d="M72.7,152.4c3.3,0.2,4.2,4,7.5,3.9"/>
	<path fill="none" stroke="#C49A6C" stroke-width="0.5" stroke-miterlimit="10" d="M69.5,152.9c5.5-1.2,1.4,3.9,6.9,4.5"/>
	<path fill="none" stroke="#C49A6C" stroke-width="0.5" stroke-miterlimit="10" d="M65.8,154.3c5-1,3.7,6,6.8,5.3"/>
	<path fill="none" stroke="#C49A6C" stroke-width="0.5" stroke-miterlimit="10" d="M61.8,155.7c4.8-0.7,3.3,6.4,6.8,5.2"/>
	<path fill="none" stroke="#C49A6C" stroke-width="0.5" stroke-miterlimit="10" d="M55.7,157.5c4.1-1.1,3.8,7.4,7.5,5.3"/>
	<path fill="none" stroke="#C49A6C" stroke-width="0.5" stroke-miterlimit="10" d="M54.3,169.6c0.5,0,25.8-10.3,30.6-12.1"/>
	<path fill="none" stroke="#C49A6C" stroke-width="0.5" stroke-miterlimit="10" d="M55.1,170.8c0,0,29.7-12.1,32.8-12.5"/>
	<path fill="none" stroke="#C49A6C" stroke-width="0.5" stroke-miterlimit="10" d="M55.7,173.1c0,0,29.9-13.9,33.6-12.8"/>
	<path fill="none" stroke="#C49A6C" stroke-width="0.5" stroke-miterlimit="10" d="M56.1,174.4c0.5-0.3,28.2-11.9,28.2-11.9"/>
</g>
<g id="Layer_2">
	<g>
		<g>
			<path fill="url(#USGS_21_Intricate_Surface)" stroke="#C49A6C" stroke-miterlimit="10" d="M296.3,134.7
				c0,6.8-34.5,15.8-66.5,15.8c-13.6,0-28.4-4.7-40.5-7.2c-16.4-3.3-28-5-28-8.9c0-3.3,13-4,25.5-7c13.3-3.2,26.5-8.5,43-8.5
				C261.8,118.9,296.3,127.9,296.3,134.7z"/>
			<path fill="url(#USGS_21_Intricate_Surface)" stroke="#C49A6C" stroke-miterlimit="10" d="M348.4,134.7
				c0,6.8,34.5,15.8,66.5,15.8c13.6,0,28.4-4.7,40.5-7.2c16.4-3.3,28-5,28-8.9c0-3.3-13-4-25.5-7c-13.3-3.2-26.5-8.5-43-8.5
				C382.8,118.9,348.4,127.9,348.4,134.7z"/>
		</g>
		<g>
			<path opacity="0.1" fill="#C49A6C" d="M296.9,134.3c0,6.8-34.5,15.8-66.5,15.8c-13.6,0-28.4-4.7-40.5-7.2c-16.4-3.3-28-5-28-8.9
				c0-3.3,13-4,25.5-7c13.3-3.2,26.5-8.5,43-8.5C262.4,118.5,296.9,127.5,296.9,134.3z"/>
			<path opacity="0.1" fill="#C49A6C" d="M350.2,134.3c0,6.8,34.5,15.8,66.5,15.8c13.6,0,28.4-4.7,40.5-7.2c16.4-3.3,28-5,28-8.9
				c0-3.3-13-4-25.5-7c-13.3-3.2-26.5-8.5-43-8.5C384.7,118.5,350.2,127.5,350.2,134.3z"/>
		</g>
	</g>
</g>
<g id="Layer_4">
	<line fill="none" stroke="#000000" stroke-miterlimit="10" x1="229.7" y1="106.5" x2="248.7" y2="46.8"/>
	<line fill="none" stroke="#000000" stroke-miterlimit="10" x1="251.3" y1="130.2" x2="274.7" y2="67.4"/>
	<line fill="none" stroke="#000000" stroke-miterlimit="10" x1="322.2" y1="130.2" x2="323" y2="96.8"/>
	<text transform="matrix(1 0 0 1 225.5943 41.9424)" fill="#2E3192" font-family="'CenturyGothic'" font-size="17px">Anterior rectus sheath</text>
	<text transform="matrix(1 0 0 1 262.3336 62.6692)" font-family="'CenturyGothic'" font-size="12px">Rectus abdominis</text>
	<text transform="matrix(1 0 0 1 302.4999 91.396)" font-family="'CenturyGothic'" font-size="12px">Linea alba</text>
	<path fill="none" stroke="#000000" stroke-miterlimit="10" d="M226.4,105.7c0.9-0.9,2.4-1,3.5-0.3c1.1,0.7,1.8,1.9,2,3.1
		s0.2,2.5,0.1,3.8c-0.7,0.7-1.5,1.4-2.5,1.6c-1.2,0.3-2.4-0.3-3.6-0.9"/>
</g>
</svg>
