<?xml version="1.0" encoding="utf-8"?>
<!-- Generator: Adobe Illustrator 19.2.1, SVG Export Plug-In . SVG Version: 6.00 Build 0)  -->
<svg version="1.1" xmlns="http://www.w3.org/2000/svg" xmlns:xlink="http://www.w3.org/1999/xlink" x="0px" y="0px"
	 viewBox="0 0 674.6 328" enable-background="new 0 0 674.6 328" xml:space="preserve">
<pattern  x="79.3" width="54" height="54" patternUnits="userSpaceOnUse" id="USGS_21_Intricate_Surface" viewBox="10.5 -67.3 54 54" overflow="visible">
	<g>
		<rect x="10.5" y="-67.3" fill="none" width="54" height="54"/>
		<g>
			<path d="M33.1-11.8c-0.8,0.5-1.3,4.7-2.1,5.3c-0.3,0.2-0.8,0.7-0.8,0.9c0,0.5-0.3,0.4-0.3,0.9c0,1-0.7,2.3-2.1,2
				c-0.4-0.1-0.7-1,1.4-2.1c0.2-0.1,0-0.9,0.1-1.3c2-5.3,3.9-9.6,4.4-8.3L33.1-11.8z"/>
			<path d="M38.8-10.8c-0.2-0.5-0.4-0.8-0.4-1.2c-1.1,0.2-2.2,0.5-3.3,0.7c-0.9-1,1.1-1.4,2.5-2.1c0.5-0.2,2.2-1.3,2.7-1.4
				C40.1-13.8,39.1-12.1,38.8-10.8z"/>
			<path d="M59.3-8.3c0.2,0.7-0.2,1.3-0.8,1.4c-0.9,0.1-2,0.4-2,0.9c-0.1,1.6-1.2,2.6-2.5,3c1.2-2.3,2.9-3.8,5.2-5.4
				c0.2-0.2-0.1-0.9,0.1-1.3C60-11,62-9.6,62.2-12c0-0.2-0.4-0.5-0.7-0.7c2.1,0.6,1.9-2.1,3.8-2.3c0,0.5,0,1,0,1.5
				c-0.9-0.2-1.5,0.4-2.3,0.7C60.7-11.6,63.1-8.7,59.3-8.3z"/>
			<path d="M14.4-6.8c-0.3-2,2.6-5.8,3.6-7.5c0.5,0.5,0.3,1.3,0.3,1.7c-0.4,2-2.6,3.3-2.6,5.9c-0.6,0.9-0.5,1.6-2.1,1.5L14.4-6.8z"
				/>
			<path d="M21.9-12c0.2-0.9-0.3-1.6-0.8-2.3c0.7-0.2,1.3,0.2,1.4,0.8C22.6-12.9,22.2-12.5,21.9-12z"/>
			<path d="M12.8-12.2c-1.8-0.2-0.2-1.6-0.8-2.3C14.2-14.3,11.4-12.6,12.8-12.2z"/>
			<path d="M24.1-11.1c1.7-1.2,2.3-4.9,4.1-5.7c-1.5,1.2-1.7,4.9-2.9,6.2c-2.3,2.5-5.6,3.8-7.3,6.9C17.5-2.6,18.8-1,17.3,0
				C17-2.4,17-5,18.9-6.6C20.9-8.1,22.1-9.6,24.1-11.1z"/>
			<path d="M47-11.6c-0.4,0.5-1.2-0.1-1.3-0.7c-0.2-1-1.2-2.6-0.1-3c0.9,0.8,1.9,0.8,3,0.8C46-14.5,47.7-12.4,47-11.6z"/>
			<path d="M54.5-10.9c0.2,0.3,0.7-0.1,1-0.4c-1.1-0.6,0.1-2.2-1.2-2.4c-0.5-0.1-1,0.5-1.7,0.4C53.1-12.2,53.9-12,54.5-10.9z"/>
		</g>
		<g>
			<path d="M5.3-8.3c0.2,0.7-0.2,1.3-0.8,1.4c-0.9,0.1-2,0.4-2,0.9C2.4-4.4,1.3-3.4,0-3c1.2-2.3,2.9-3.8,5.2-5.4
				c0.2-0.2-0.1-0.9,0.1-1.3C6-11,8-9.6,8.2-12c0-0.2-0.4-0.5-0.7-0.7c2.1,0.6,1.9-2.1,3.8-2.3c0,0.5,0,1,0,1.5
				c-0.9-0.2-1.5,0.4-2.3,0.7C6.7-11.6,9.1-8.7,5.3-8.3z"/>
		</g>
		<g>
			<path d="M63.8-24.1c0.8-0.3,1.7,0.7,2.1,0.5c2.1-1,2-3.6,4.7-1.4c0,0,0.6-0.4,0.6-0.6c-0.1-0.8-0.9-1.4-0.6-2.2
				c0.2-0.6,0.8-0.7,1.4-0.9c1.9-0.6-0.5-2.5,2.2-3.8c0.3-0.2,0.3-1.4,0-2c-0.8-1.3-2.3-0.8-3.6-0.8c1.3,0.1,2.2-0.6,3-1.5
				c-0.3,0.5-0.5,1-0.8,1.5c1,0.5,2,1,3,1.5c-0.5,0.3-1.2,0.4-1.4,0.8c-0.3,0.9,0.2,2.1-0.3,2.9c-0.1,0.2-1-0.1-1.3,0.2
				c-1.2,1.4-0.6,4-1.8,4.8c-2,1.4-6,1-7,4.1c-0.2,0.6,1.1,1.3,2,1.3c1,0.1,1.9-0.7,2.2-2.1c-0.2,0.9,0.2,1.9,0.8,2.1
				c1.5,0.6,1.4-2.5,2.9-2c0.4,0.1,0.8,0.9,0.7,1.3c-0.1,0.4-0.9,0.7-1.4,0.7c-0.3,0-0.6-0.6-0.7-0.6c-1.5,0.7-3.6,0.5-4.5,2.2
				c-0.2,0.4-0.1,1-0.1,1.5c-0.8-0.1-2.2,0.3-2.1-0.7c0.1-1,1-2,0.5-3c-0.2-0.4-0.9-0.5-1.4-0.8L63.8-24.1z"/>
			<path d="M65.3-33.2c-1.6,0.2-0.7-0.9-0.8-1.5C64.8-34.2,65-33.7,65.3-33.2z"/>
			<path d="M64.9-57.9c-0.1,2.4-0.2,1.6-2.6,2.4c0.5-0.3,2-0.9,2.1-1.3c0.2-0.8-0.1-1.1,0.3-1.8c-0.2-0.8-1.5-0.7-0.8-1.8
				c1-1.5,0.2-3.7,2.1-4.5c0.4-0.2,0.2,0.5,0.7,0.5C66.8-62.4,65-60.1,64.9-57.9z"/>
			<path d="M63-30c0.5-1.5,1.8-1.3,3-1.5C65.3-30.5,64.1-30.3,63-30z"/>
		</g>
		<g>
			<path d="M16.1-38.3c-0.2,0.1-0.5,0-0.7,0c0.4-0.8,0.7-1.7,1.5-2.3c0.3,0.5,0.7,1.1,0.6,1.5C17.4-38.6,16.7-38.4,16.1-38.3z"/>
			<path d="M33.1-65.8c-0.8,0.5-1.3,4.7-2.1,5.3c-0.3,0.2-0.8,0.7-0.8,0.9c0,0.5-0.3,0.4-0.3,0.9c0,1-0.7,2.3-2.1,2
				c-0.4-0.1-0.7-1,1.4-2.1c0.2-0.1,0-0.9,0.1-1.3c2-5.3,3.9-9.6,4.4-8.3L33.1-65.8z"/>
			<path d="M24.8-57.3c-0.7-0.2-1.7-1.1-1.6-1.3C24.1-61,25-62,25.9-62c0.9,0-1.2,1.4-1.7,2.5c-0.5,1,1.9,2.5,1.5,3.1
				C25.3-55.8,25.3-56.7,24.8-57.3z"/>
			<path d="M22.5-56.3c-0.6,1.9-0.4,2.1-3,3c0.8-0.2,0.6,0.1,0.8-2.3C20.3-55.8,22-56,22.5-56.3z"/>
			<path d="M20.2-47.3c-0.2,0.5-0.5,1.3-0.7,1.3c-2,0.2-2.4,1.7-3,3.2c1.3,0.4,2.2,1.7,3.8,1.5c-0.7,0.4-1.5,1.1-2.2,0.6
				c-0.3-0.2,0-1.2-0.1-1.2c-2.9-1-2.2-3.1-0.6-4.5c0.2-0.1,1,0.6,1.3,0.5c1.3-0.7-0.5-4.5,0.8-3.6c0.7,0.7,1.7,1.5,2.8-0.1
				c0.5-0.7,0.2-1.9,0.2-2.9c0.4-0.8,2.1-0.3,2.1,0.8C24.7-49.2,21.1-49.5,20.2-47.3z"/>
			<path d="M29.2-49.5c-0.2,0.3-0.5,0.7-0.7,0.7c-0.3,0-0.5-0.4-0.8-0.7c0.5-0.3,1.3-0.5,1.3-0.8c0.1-1.5-0.2-3.2-2.1-3.7
				C30-54.9,30.9-51.6,29.2-49.5z"/>
			<path d="M32.4-48c0.3-3.9-0.5-6,3.6-4.5c0.9,1.3-1.8,0.2-2.1,0.8c-0.2,0.3,1.7,1.1,1.6,1.4c-0.1,0.4-2.1,0.4-2.3,0.8
				c-0.4,0.7,0.3,1.5,0.7,2.2C33.2-47.5,32.4-47.8,32.4-48z"/>
			<path d="M36.7-47.4c-0.1,0.1-0.5-0.4-0.7-0.6c0.8-0.4,1.3-2.1,2.1-1.3C38.8-48.6,37.5-47.1,36.7-47.4z"/>
			<path d="M26-40.6c-0.4,0.5-1.2-0.1-1.3-0.7c-0.2-1-1.2-2.6-0.1-3c0.9,0.8,1.9,0.8,3,0.8C25-43.5,26.7-41.4,26-40.6z"/>
			<path d="M41.5-51.2c2.8-0.4,3.1-2.8,4.6-4.2c0.3-0.3,1,0.1,1.4-0.2c0.9-0.7,1-1.8,0.8-2.9c1.3,1.7,2.6-0.6,3.6,0.2
				c1.7,1.5,1.5,4,3.9,5c-0.4,1.9-2.1,2.9-3,4.5c0.8-2.6,2.8-5.4-0.8-6.8c0.3-0.3,0.7-0.5,0.7-0.8c0-0.5-0.3-1.2-0.7-1.4
				c-0.9-0.4-2.3-0.3-2.8,0.7c-0.9,1.8-1.5,1.9-2.9,3.2c-0.7,0.6,0,2.4-1,3.5c-0.3-0.3-0.6-0.8-0.7-0.7c-1,1.8-2.3,1.6-2.6,0.5
				L41.5-51.2z"/>
			<path d="M40.9-55L40.9-55c-0.2-0.2-1.3,0.4-1.3,0.7c-0.1,1.6-0.4,3.3-2.4,3c2.4-2,3.1-4.9,4.4-7.5c0.4-0.9-2.7-3.1-1.4-3.9
				l2.3,0.9c0.7-0.7,1.4-1.2,3,0c-1.1,0-2.3-0.2-2.9,0.8c-0.9,1.7-0.1,2.6-0.3,4.4c0,0.3-1.1,0.4-1.2,0.8C41-55.5,40.9-55.2,40.9-55
				z"/>
			<path d="M38.8-64.8c-0.2-0.5-0.4-0.8-0.4-1.2c-1.1,0.2-2.2,0.5-3.3,0.7c-0.9-1,1.1-1.4,2.5-2.1c0.5-0.2,2.2-1.3,2.7-1.4
				C40.1-67.8,39.1-66.1,38.8-64.8z"/>
			<path d="M48.8-26.3c0.5-1.1,1.4-0.7,2.3-0.8C50.5-26.1,49.6-26.1,48.8-26.3z"/>
			<path d="M58.1-65.2c-0.5,4.3-0.6,0-0.8,0c0.7-0.3,1.8-0.2,1.5-1.5C58.5-66.2,58.1-65.8,58.1-65.2z"/>
			<path d="M59.3-62.3c0.2,0.7-0.2,1.3-0.8,1.4c-0.9,0.1-2,0.4-2,0.9c-0.1,1.6-1.2,2.6-2.5,3c1.2-2.3,2.9-3.8,5.2-5.4
				c0.2-0.2-0.1-0.9,0.1-1.3C60-65,62-63.6,62.2-66c0-0.2-0.4-0.5-0.7-0.7c2.1,0.6,1.9-2.1,3.8-2.3c0,0.5,0,1,0,1.5
				c-0.9-0.2-1.5,0.4-2.3,0.7C60.7-65.6,63.1-62.7,59.3-62.3z"/>
			<path d="M61.4-56.3c-0.2,0.9-0.6,2-1.5,2.1c-0.7,0.1-1.5,1.1-2.2-1.4c2.3,0.7,3-1.2,3.8-3C61.5-57.7,61.6-57,61.4-56.3z"/>
			<path d="M57.8-48.7c-0.2,0.4-0.1,1-0.1,1.5c-0.8-0.9-1.1-2.1-0.6-2.9c0.3-0.4,1.3-0.1,2.1-0.1C58.7-49.7,58.1-49.3,57.8-48.7z"/>
			<path d="M45.3-45c0-0.5,0.3-1.2,0.1-1.4c-0.8-0.5-1.9-0.3-2.9-0.4c0.3-0.2,0.5-0.5,0.8-0.6c0.9-0.2,1.7,0.9,2,0.7
				c1.9-1.1,4.2-4.7,5.8-6.3c0.2,0.3-1,2.6-1,2.7C48.2-48.1,47-47.2,45.3-45z"/>
			<path d="M49.3-43.1c-0.7-0.4-2-0.4-1.3-1.5c1.3-2.2,4.1-2.2,5.9-3.8c0.4,2.1,3.2,1.6,4.4,3.1c0.3,0.3,0,0.9,0.1,1.4
				c0.2,0.8,0.2,1.8,1.5,1.5c-0.3,0.3-0.5,0.5-0.8,0.8c-1.3-2-1.6,0.2-3,0c0.5-0.3,1.3-0.4,1.4-0.8c0.4-1.2,0.5-2.7-0.7-3.7
				c-0.4-0.4-1.1-0.8-1.4-0.6c-0.9,0.5-1,1.7-0.8,2.9c-1.2-1.1-1.8-3.8-3.6-2.8c-0.6,0.3-1.3,1.2-2.1,2.2c-1.1,1.3,2.4,0.9,2,2.8
				C50.3-42.1,49.9-42.7,49.3-43.1z"/>
			<path d="M42.3-42.8c0.1,0.2,1-0.3,1.2-0.1c0.5,0.5,1.8,1.1,2,1.9c0.4-0.3,1.2-0.7,1.2-1c0-1-2.5-1.2-3.9-1.7
				c-0.7-0.2-1.2-1-1.2-1.9C41.8-44.7,41.8-43.5,42.3-42.8z"/>
			<path d="M38.9-43.2c0.5,1.6-0.8,1.1-1.4,0.2c-0.4-0.9-0.9-3.7,1.5-3.8c0.2,0,0.5,0.4,0.7,0.7C39.2-45.8,37.2-48.8,38.9-43.2z"/>
			<path d="M14.4-60.8c-0.3-2,2.6-5.8,3.6-7.5c0.5,0.5,0.3,1.3,0.3,1.7c-0.4,2-2.6,3.3-2.6,5.9c-0.6,0.9-0.5,1.6-2.1,1.5L14.4-60.8z
				"/>
			<path d="M11.8-52.9c2.3-1.3,0-1.4,2.7-2.6c1.3,0.4,1.6,2,1.7,3.4c0,0.3-0.4,1.4-0.4,1.9c-0.3-0.5-0.5-1-0.8-1.5
				c-0.3-0.5-0.5-1.8-0.6-1.8C13-53.8,11.8-52.9,11.8-52.9z"/>
			<path d="M27.6-64.9c0-0.5,0-1,0-1.5c0.7,0.4,1.4,0.9,2.3,0.8C29.1-65.4,28.4-65.2,27.6-64.9z"/>
			<path d="M14.3-45.9c0.5,1.6-0.8,1.1-1.4,0.2c-0.4-0.9-0.9-3.7,1.5-3.8c0.2,0,0.5,0.4,0.7,0.7C14.7-48.5,12.6-51.5,14.3-45.9z"/>
			<path d="M9.8-24.1c0.8-0.3,1.7,0.7,2.1,0.5c2.1-1,2-3.6,4.7-1.4c0,0,0.6-0.4,0.6-0.6c-0.1-0.8-0.9-1.4-0.6-2.2
				c0.2-0.6,0.8-0.7,1.4-0.9c1.9-0.6-0.5-2.5,2.2-3.8c0.3-0.2,0.3-1.4,0-2c-0.8-1.3-2.3-0.8-3.6-0.8c1.3,0.1,2.2-0.6,3-1.5
				c-0.3,0.5-0.5,1-0.8,1.5c1,0.5,2,1,3,1.5c-0.5,0.3-1.2,0.4-1.4,0.8c-0.3,0.9,0.2,2.1-0.3,2.9c-0.1,0.2-1-0.1-1.3,0.2
				c-1.2,1.4-0.6,4-1.8,4.8c-2,1.4-6,1-7,4.1c-0.2,0.6,1.1,1.3,2,1.3c1,0.1,1.9-0.7,2.2-2.1c-0.2,0.9,0.2,1.9,0.8,2.1
				c1.5,0.6,1.4-2.5,2.9-2c0.4,0.1,0.8,0.9,0.7,1.3c-0.1,0.4-0.9,0.7-1.4,0.7c-0.3,0-0.6-0.6-0.7-0.6c-1.5,0.7-3.6,0.5-4.5,2.2
				c-0.2,0.4-0.1,1-0.1,1.5c-0.8-0.1-2.2,0.3-2.1-0.7c0.1-1,1-2,0.5-3c-0.2-0.4-0.9-0.5-1.4-0.8L9.8-24.1z"/>
			<path d="M20.7-16.7c0.4-0.1,0.5-0.9,0.8-1.4c0.5,0.3,1,0.5,1.5,0.8c1.3-3.2,3.6-7.4,7.5-7.5c0,0.5,0,1,0,1.5
				c-0.9-0.2-1.8,0.2-2.1,0.8c-0.7,1.2,1.6,1.9-0.1,3.7c0-1.3,0.4-3.1-0.8-3.5c-1.5-0.5-2.5,1.9-2.2,3.5c-0.5,0-1.3-0.1-1.4,0.1
				c-0.9,2-3.3,2.4-3.9,4.4c-1.2-1.3-3.4-1.6-3.8-3.7C18.1-18.6,19.1-16.1,20.7-16.7z"/>
			<path d="M11.3-33.2c-1.6,0.2-0.7-0.9-0.8-1.5C10.8-34.2,11-33.7,11.3-33.2z"/>
			<path d="M15.1-33.3c0.6,0.8,0.8,1.5,0.6,2.3c-0.5-0.3-1.3-0.5-1.3-0.7c0.1-1.7-1.5-2.9-0.9-4.5C14.5-35.5,14.5-34.2,15.1-33.3z"
				/>
			<path d="M11.3-37.7c-0.2-1.7,1.1-0.3,1.5-0.8C12.2-38.2,11.7-37.9,11.3-37.7z"/>
			<path d="M24.8-36.2c-0.1,2.5,1.8,4,3.7,5.2c-0.6-0.8-1.4-1.3-2.3-1.4c-0.2,0-0.5,0.6-0.7,0.6c-0.5,0-1.3-0.4-1.3-0.7
				c-0.1-1.5-0.8-2.9,0.5-4.6c0.2-0.2-0.4-0.9-0.6-1.4c-0.5,0.3-1,0.5-1.5,0.8c-0.5-1-1-2-1.5-3c2.3,0.3,2.6,3,4.5,3.8
				C25.2-36.7,24.8-36.4,24.8-36.2z"/>
			<path d="M29.6-32.7c1.3,0.1,1.3-0.9,1.3-1.6c0-0.7-0.5-1,1.2-2.6c0.3-0.3,0.4-1.4,0.7-2.1c0.3,0.2,0.5,0.4,0.8,0.7
				c-0.5,0.3-1.2,0.5-1.3,0.9c-0.2,0.6,0.3,1.7,0,2.1c-0.6,0.7-1.8,1.1-1.8,2.6c0,0.2,0.7,0.5,0.6,0.6c-0.4,1.1-0.5,2-0.4,3.1
				C29.2-29.9,29.7-31.4,29.6-32.7z"/>
			<path d="M37-35.5c-1.3,1.6-2.9-0.1-3.8,1.9c1.3-0.5,0.5,0.4,3,0.8c-0.1-0.6-0.3-1.4-0.1-1.5c2.4-1.4,1.2-4.5,3-6.4
				c-0.3-0.1-0.7-0.2-1-0.2c0.1,0.6-0.7,2.9-0.9,3.1C35.4-36.8,38-36.9,37-35.5z"/>
			<path d="M31.6-26.6c-1.8-1.5-1.8,0.4-3.1,0.2c0.3-0.5,0.5-1,0.8-1.5c1.3,1.7,2.6-0.6,3.6,0.2C33.6-27.1,31.9-26.4,31.6-26.6z"/>
			<path d="M33.1-22.6c0,0.3-1,0.4-1.2,0.8c-1,2.2-0.3,2.8,0.7,4.4c-0.7,0.2-1.3-0.2-1.4-0.8c-0.2-1.3,0.6-1.2-0.7-2.4
				c-0.4-0.4,1.3-1.3,1.7-2.2c0.6-1.6,1.9-2.1,2.8-3.5c0.3-0.5,1.3,0.2,1.2,0.6C35.9-23.9,33.3-26.2,33.1-22.6z"/>
			<path d="M33.5-59.3c-0.4-0.3,0.3-0.9,0.9-1.2c0.6,1.5,3.2,0.4,3.2,2.1c0,0.6-0.9,1.2-1,2.1C35.2-57.3,35.1-58.2,33.5-59.3z"/>
			<path d="M39.8-26.8c0.8,1.6-1.2,1-1.5,1.8C37.2-26.9,40.1-25.5,39.8-26.8z"/>
			<path d="M41.6-26c0.5,0.2,1,0.5,1.5,0.7c0.2-0.5,0.8-1.1,0.6-1.4c-1-2.2,0.3-4.4,1-6.4c1,0.4,1.8,0,2.2-0.8
				c0.9-1.8,2.8-4.6,3-6.7c-0.6,0.1-1.4,0.1-1.5,0.4c-0.9,3.2-3.6,8.1-7.1,8.9c-0.1,0-0.2,0.6-0.1,0.9c0.3,0.8,1.5,0.9,1.8,1.4
				C43.4-27.9,42.3-26.9,41.6-26z"/>
			<path d="M39.9-35.4c0.1,0.5-0.3,1.1,0.2,1.6c0.9-2.2,0.9-4.6,3.3-6.3c-0.9-0.7-1.6,0.1-2.3,0.5C42.2-37.8,39.4-37.3,39.9-35.4z"
				/>
			<path d="M44.3-20.4c-0.6,1.2,1.5,2.9,2.1,2.7c0.8-0.2,2-0.8,1.6-2.8c3.1,0.2,6.8,3.3,4.3,5.8c-0.5,0.5-1.9-0.2-2.8-0.6
				c1.7-0.3,2.8-2.2,2.1-3.7c-0.3-0.6-1.2-0.9-2.1-0.8c-2,0.2-1.1,2-2.3,3c-0.4,0.4-1,0.7-1.5,0.7c-0.9-0.1-1.6-0.9-2.3-1.3
				c-0.3-0.2-1.1,0.3-1.3,0.7c-0.4,0.8-0.3,1.7,0.7,2.2c-1.3,0.3-1.5-0.9-1.3-1.5c0.3-1.4,2.8-1.2,2.8-3c0-1-0.7-1.9-2.2-2.3
				c3.3,0.7,2.5-2.9,4.9-3.7c1.5-0.5,0.8,0.8,0.6,1.4C47.1-22.1,45-21.7,44.3-20.4z"/>
			<path d="M49.3-29.6c-0.5,0.1-1,0.5-1.5,0.7c1.2-0.8,0.1-2.1,2.1-3.2c0.5-0.3,0.3-1.5-0.6-2c0.3-0.3,0.5-0.5,0.8-0.8
				c-0.3,1.8,0.4,3.5,0.8,5.3C50.2-29.7,49.7-29.8,49.3-29.6z"/>
			<path d="M54.7-32.9c0,0.5-0.4,1-0.7,1.5c-0.3-0.3-0.7-0.6-0.6-0.7c0.5-1,0.7-2,0.6-3.1C54.3-34.4,54.7-33.7,54.7-32.9z"/>
			<path d="M53.6-38.6c-1.3,0.3-1.4-0.8-1.4-1.5c0-0.5,0.8-1.1,1.3-0.7c0.5,0.5,0,1.7,2.3,1.4C55.1-39.1,54.4-38.8,53.6-38.6z"/>
			<path d="M57.6-38.2c-0.7,0.8-1,3-2,2C54.7-37.2,56.7-37.5,57.6-38.2z"/>
			<path d="M57.6-18.2c-0.2,0.9-0.5,2.8-2,2.1c-0.2-0.1-0.1-0.9-0.1-1.4c1.3,0.1,2.7-0.3,2.8-2.3c0-0.2-1.1-0.4-1.2-0.8
				c-0.1-0.7-1.1-1.5,1.4-2.2C57.5-21.3,57.9-19.7,57.6-18.2z"/>
			<path d="M10.9-57.9c-0.1,2.4-0.2,1.6-2.6,2.4c0.5-0.3,2-0.9,2.1-1.3c0.2-0.8-0.1-1.1,0.3-1.8c-0.2-0.8-1.5-0.7-0.8-1.8
				c1-1.5,0.2-3.7,2.1-4.5c0.4-0.2,0.2,0.5,0.7,0.5C12.8-62.4,11-60.1,10.9-57.9z"/>
			<path d="M59-33.1c0.3-3.9-0.5-6,3.6-4.5c0.9,1.3-1.8,0.2-2.1,0.8c-0.2,0.3,1.7,1.1,1.6,1.4C61.9-35,60-35,59.7-34.6
				c-0.4,0.7,0.3,1.5,0.7,2.2C59.9-32.7,59-32.9,59-33.1z"/>
			<path d="M57.4-28.7c-1.3-0.2-1.3,0.8-1.4,1.5c0,0.2,0.6,0.6,0.6,0.7c-0.7,1.6-2.4,0.5-3.6,0.8c0.5,0,1.2,0.2,1.4-0.1
				c0.9-1.4,2.8-3.6,0.9-5.2c1,1.2,3.2,0.4,3.8,2.3C58.4-28.7,57.9-28.6,57.4-28.7z"/>
			<path d="M53.8-21.7c-1.5,0.1-3.3,0.6-4.9,0.2c0.3-0.3,1.1-0.8,1.3-0.8c0.5,0,0.5,0.7,0.9,0.6c0.4-0.1,0.5-1.2,0.8-1.2
				c1.6-0.1,3-0.8,4.5-0.9c-0.3,0.5-0.4,1.2-0.8,1.4C55-22,54.6-21.7,53.8-21.7z"/>
			<path d="M60.8-25.3c-0.2,0.5-1-0.1-1.3-0.7c1.4-0.9-0.1-3.2,1.5-3.6c0.6-0.1,1.3,0.7,2.2,0.6C62.4-27.3,61.5-27,60.8-25.3z"/>
			<path d="M32-44.6c-1.3-0.2-1.3,0.8-1.4,1.5c0,0.2,0.6,0.6,0.6,0.7c-0.7,1.6-2.4,0.5-3.6,0.8c0.5,0,1.2,0.2,1.4-0.1
				c0.9-1.4,2.8-3.6,0.9-5.2c1,1.2,3.2,0.4,3.8,2.3C33-44.6,32.5-44.5,32-44.6z"/>
			<path d="M27-36.6c0.5-1.5,1.8-1.3,3-1.5C29.3-37,28.1-36.9,27-36.6z"/>
			<path d="M12.9-40.6c-0.1,0.1-0.5-0.4-0.7-0.6c0.8-0.4,1.3-2.1,2.1-1.3C15-41.8,13.7-40.3,12.9-40.6z"/>
			<path d="M12.8-28.3c0.5-1.1,1.4-0.7,2.3-0.8C14.5-28.1,13.6-28.2,12.8-28.3z"/>
			<path d="M37.8-28.7c-0.5,0.5-0.4,0.6-0.7,0.7c-0.8,0.3-1.5-0.3-2.2-0.7c2.6,0.5,3.6-1.5,3-3.8c0.5,0.3,1.3,0.5,1.3,0.8
				C39.2-30.7,38.4-29.7,37.8-28.7z"/>
			<path d="M50.7-61c-0.5,0.5-0.4,0.6-0.7,0.7c-0.8,0.3-1.5-0.3-2.2-0.7c2.6,0.5,3.6-1.5,3-3.8c0.5,0.3,1.3,0.5,1.3,0.8
				C52.1-63,51.3-62,50.7-61z"/>
			<path d="M26.3-27.6c0.2-0.9-0.3-1.6-0.8-2.3c0.7-0.2,1.3,0.2,1.4,0.8C26.9-28.5,26.5-28.1,26.3-27.6z"/>
			<path d="M21.9-66c0.2-0.9-0.3-1.6-0.8-2.3c0.7-0.2,1.3,0.2,1.4,0.8C22.6-66.9,22.2-66.5,21.9-66z"/>
			<path d="M9-30c0.5-1.5,1.8-1.3,3-1.5C11.3-30.5,10.1-30.3,9-30z"/>
			<path d="M12.8-66.2c-1.8-0.2-0.2-1.6-0.8-2.3C14.2-68.3,11.4-66.6,12.8-66.2z"/>
			<path d="M65.1-45c-0.1,0.9-1.8,1.1-1.8,1.6c-0.2,1.9-0.9,2.2-1.8,3.7c-0.3-0.3-0.7-0.5-0.7-0.8c0-1,1.5-1.6,1.8-2.4
				c0.9-2.4,0.7-6.2,1.3-7.2c0.2,0.1,1.4-1.2,1.8-1.6L65.1-45z"/>
			<path d="M24.1-65.1c1.7-1.2,2.3-4.9,4.1-5.7c-1.5,1.2-1.7,4.9-2.9,6.2c-2.3,2.5-5.6,3.8-7.3,6.9c-0.6,1.1,0.7,2.7-0.8,3.7
				c-0.3-2.4-0.2-5,1.7-6.6C20.9-62.1,22.1-63.6,24.1-65.1z"/>
			<path d="M44.5-66.1c-0.7,0.8-1,3-2,2C41.5-65,43.6-65.4,44.5-66.1z"/>
			<path d="M47-65.6c-0.4,0.5-1.2-0.1-1.3-0.7c-0.2-1-1.2-2.6-0.1-3c0.9,0.8,1.9,0.8,3,0.8C46-68.5,47.7-66.4,47-65.6z"/>
			<path d="M54.5-64.9c0.2,0.3,0.7-0.1,1-0.4c-1.1-0.6,0.1-2.2-1.2-2.4c-0.5-0.1-1,0.5-1.7,0.4C53.1-66.2,53.9-66,54.5-64.9z"/>
			<path d="M31.3-54.3c0.5-1.5,1.8-1.3,3-1.5C33.5-54.8,32.4-54.6,31.3-54.3z"/>
			<path d="M61.5-51.6c0.5-1.1,1.4-0.7,2.3-0.8C63.2-51.4,62.4-51.4,61.5-51.6z"/>
			<path d="M66-16.7c-0.8-0.1-2.2,0.3-2.1-0.7c0.1-1,1-2,0.5-3c-0.2-0.4-0.9-0.5-1.4-0.8c-0.8,2.3-3.3,3.4-3.8,6
				c-0.1,0.8-0.5,2.1-1.3,1.3c-0.8-0.8,1.1-1,1.1-1.3c0.2-2.9,1.9-4.9,3.8-6.9c0.4-0.4-0.1-1.7,0.9-2c0.8-0.3,1.7,0.7,2.1,0.5
				l-0.1,0.3c-0.8,0.5-1.5,1.1-1.8,2.2c-0.2,0.6,1.1,1.3,2,1.3L66-16.7z"/>
			<path d="M37.3-60.8c0.2-0.9-0.3-1.6-0.8-2.3c0.7-0.2,1.3,0.2,1.4,0.8C37.9-61.8,37.5-61.3,37.3-60.8z"/>
			<path d="M34.7-44.4c1.7,0,0.1,1.1,0.5,1.6C35.1-43.3,34.9-43.9,34.7-44.4z"/>
			<path d="M60.8-45.6c0.2-0.9-0.3-1.6-0.8-2.3c0.7-0.2,1.3,0.2,1.4,0.8C61.4-46.5,61-46.1,60.8-45.6z"/>
			<path d="M54.3-59.8c0-0.9,0.6-1.5,1.1-2.1c-0.7-0.3-1.4,0-1.5,0.6C53.7-60.8,54.1-60.3,54.3-59.8z"/>
			<path d="M19.8-64.4c0.8,1.6-1.2,1-1.5,1.8C17.2-64.5,20.1-63.1,19.8-64.4z"/>
			<path d="M46-58.3c-1.6,0.2-0.7-0.9-0.8-1.5C45.5-59.3,45.7-58.8,46-58.3z"/>
			<path d="M36.5-17c1.3-0.3,0.9-1.3,0.7-2c-0.1-0.2-0.8-0.3-0.8-0.4c0.1-1.7,2-1.4,3-2.2c-0.5,0.2-1.2,0.3-1.2,0.6
				c-0.3,1.6-1.2,4.4,1.2,5.1c-1.4-0.8-3.1,0.9-4.3-0.6C35.6-16.6,36-16.8,36.5-17z"/>
			<path d="M21.8-42.8c-1.6,0.2-0.7-0.9-0.8-1.5C21.3-43.8,21.5-43.3,21.8-42.8z"/>
			<path d="M24-48.3c0.5-1.1,1.4-0.7,2.3-0.8C25.7-48.1,24.9-48.2,24-48.3z"/>
			<path d="M45.5-36.8c-1.6,0.2-0.7-0.9-0.8-1.5C45-37.8,45.2-37.3,45.5-36.8z"/>
			<path d="M41-22.3c0.1-0.6-0.3-1-0.6-1.5c0.6-0.1,1.1,0.1,1.1,0.5C41.5-22.9,41.2-22.6,41-22.3z"/>
			<path d="M35.6-22.1c-0.5,4.3-0.6,0-0.8,0c0.7-0.3,1.8-0.2,1.5-1.5C36-23.1,35.6-22.6,35.6-22.1z"/>
			<path d="M20.1-28.1c2.5-0.8,0.3-1.4,3.2-2c1.2,0.6,1.2,2.3,1,3.7c0,0.3-0.7,1.3-0.8,1.8c-0.1-0.5-0.3-1.1-0.4-1.6
				c-0.1-0.6-0.1-1.8-0.2-1.9C21.5-28.7,20.1-28.1,20.1-28.1z"/>
			<path d="M20.8-21.6c0.3,1.3,1.4,0.8,2,0.5c0.5-0.3,0.6-1.3-0.1-1.5c-0.7-0.2-1.5,0.8-2.4-1.3C20.5-23.1,20.6-22.4,20.8-21.6z"/>
		</g>
		<g>
			<path d="M5.3-62.3c0.2,0.7-0.2,1.3-0.8,1.4c-0.9,0.1-2,0.4-2,0.9c-0.1,1.6-1.2,2.6-2.5,3c1.2-2.3,2.9-3.8,5.2-5.4
				c0.2-0.2-0.1-0.9,0.1-1.3C6-65,8-63.6,8.2-66c0-0.2-0.4-0.5-0.7-0.7c2.1,0.6,1.9-2.1,3.8-2.3c0,0.5,0,1,0,1.5
				c-0.9-0.2-1.5,0.4-2.3,0.7C6.7-65.6,9.1-62.7,5.3-62.3z"/>
			<path d="M11.1-45c-0.1,0.9-1.8,1.1-1.8,1.6c-0.2,1.9-0.9,2.2-1.8,3.7c-0.3-0.3-0.7-0.5-0.7-0.8c0-1,1.5-1.6,1.8-2.4
				c0.9-2.4,0.7-6.2,1.3-7.2c0.2,0.1,1.4-1.2,1.8-1.6L11.1-45z"/>
			<path d="M12-16.7c-0.8-0.1-2.2,0.3-2.1-0.7c0.1-1,1-2,0.5-3c-0.2-0.4-0.9-0.5-1.4-0.8c-0.8,2.3-3.3,3.4-3.8,6
				c-0.1,0.8-0.5,2.1-1.3,1.3c-0.8-0.8,1.1-1,1.1-1.3c0.2-2.9,1.9-4.9,3.8-6.9c0.4-0.4-0.1-1.7,0.9-2c0.8-0.3,1.7,0.7,2.1,0.5
				l-0.1,0.3c-0.8,0.5-1.5,1.1-1.8,2.2c-0.2,0.6,1.1,1.3,2,1.3L12-16.7z"/>
		</g>
	</g>
</pattern>
<g id="Layer_1">
	<path id="one" fill="none" stroke="#00A651" stroke-miterlimit="10" d="M28.3,173.7c0,0,168.3-46,207-43.3s75.6,16.7,90.1,17.3
		c14.5,0.7,46.5-20.2,105.9-17.4s190,43.4,190,43.4"/>
	<path id="two" fill="none" stroke="#00A651" stroke-miterlimit="10" d="M36,185.7c0,0,175.3-49.3,192-49.3s50,0.7,70,11.3
		c20,10.7,28.7,14.7,40,8c11.3-6.7,58.7-24.7,93.3-19.3s184,49.3,184,49.3"/>
	<path id="three" fill="none" stroke="#00A651" stroke-miterlimit="10" d="M42,198.4c0,0,72.7-32,108.7-34s64.7,12.7,100,9.3
		c35.3-3.3,46.6-11.3,60-13.2c13.4-1.8,25.7-1.3,37,3.2c11.3,4.5,37.6,14.6,83,9.9c45.3-4.7,64.7-14.7,86-7.3
		c21.3,7.3,98.7,32,98.7,32"/>
	<path id="four" fill="none" stroke="#00A651" stroke-miterlimit="10" d="M46.3,207.5c0,0,65.5-30.2,93.5-32.8s59,4.2,81.5,5.3
		c22.5,1.1,50.8,0.7,73.7-7.7c32-11.7,38.3-11.1,68.7,2.4c9.1,4,61.3,15.4,101.2,2.8c39.9-12.6,90.5,11.5,99.5,13.5
		s45.7,18.7,45.7,18.7"/>
	<path id="five" fill="none" stroke="#00A651" stroke-miterlimit="10" d="M50.3,212.5c0,0,66.5-30.5,82.5-31s74,6,94.5,4.5
		c20.5-1.5,59.6-3.5,73-9.4c24.5-10.9,43-3.2,55,2.4c12,5.6,72,17.4,104.5,6.7c32.5-10.7,65,0.3,73.5,3.8s71,30.5,71,30.5"/>
	<path id="six" fill="none" stroke="#F7941E" stroke-miterlimit="10" d="M47.8,217.9c0,0,66.5-30.5,82.5-31s74,6,94.5,4.5
		c20.5-1.5,65.7-2.3,78.6-9.4c19.9-10.9,27.9-10.6,49.4,2.3c11.4,6.8,72,17.4,104.5,6.7c32.5-10.7,65,0.3,73.5,3.8s71,30.5,71,30.5"
		/>
	<path stroke="#2BB673" stroke-width="0.5" stroke-miterlimit="10" d="M116.1,157.4c6.5-1.6,47.3-12.1,47.3-12.1"/>
	<path fill="none" stroke="#2BB673" stroke-width="0.5" stroke-miterlimit="10" d="M95.4,172.8c0,0,41-11.2,48.5-12.2
		c4.1-0.6,8.3-1.5,11.2-2.2c2.4-0.6,8.3-1,8.3-1"/>
	<path fill="none" stroke="#2BB673" stroke-width="0.5" stroke-miterlimit="10" d="M95.4,180.8c0,0,34.7-11.3,44.4-11.4
		c9.6-0.1,17.8,0,17.8,0"/>
</g>
<g id="Layer_3">
	<path fill="none" stroke="#C49A6C" stroke-width="0.5" stroke-miterlimit="10" d="M84.5,160.5c1.7,0.8,3.3,1.8,4.7,3
		c0.7,0.6,1.4,1.4,1,2.2c-0.2,0.3-0.5,0.5-0.7,0.8c-0.7,1,0.3,2.2,1.3,2.8c1,0.6,2.1,1.1,3.3,1.4"/>
	<path fill="none" stroke="#C49A6C" stroke-width="0.5" stroke-miterlimit="10" d="M69.1,177.3c1.3,0.2,2.7,0.5,3.4,1.6
		c0.3,0.4,0.5,0.9,0.7,1.4c1,2.1,3.4,3.6,5.8,3.4c2.1,2.4,4,5,5.4,7.9c-0.2-0.4-0.3-0.8-0.2-1.2"/>
	<path fill="none" stroke="#C49A6C" stroke-width="0.5" stroke-miterlimit="10" d="M85.2,161.5c-0.2,0.7-0.6,1.3-1,1.9
		c-1.4,2.8-0.7,6.8-3.3,8.6"/>
	<path fill="none" stroke="#C49A6C" stroke-width="0.5" stroke-miterlimit="10" d="M73.9,175.4c0,0,5.2-9.8,8.2-12.7"/>
	<path fill="none" stroke="#C49A6C" stroke-width="0.5" stroke-miterlimit="10" d="M69.1,176.2c1.5-1.4,3.1-11.8,8.9-13.6"/>
	<path fill="none" stroke="#C49A6C" stroke-width="0.5" stroke-miterlimit="10" d="M64,177.3c0,0,1-10.6,7.1-12.6"/>
	<path fill="none" stroke="#C49A6C" stroke-width="0.5" stroke-miterlimit="10" d="M59.4,178.7c0,0,0.2-8.5,5.4-11.9"/>
	<path fill="none" stroke="#C49A6C" stroke-width="0.5" stroke-miterlimit="10" d="M51.5,180.6c1.2-0.8,1.9-10.9,7.3-12.8"/>
	<path fill="none" stroke="#C49A6C" stroke-width="0.5" stroke-miterlimit="10" d="M43.7,184.6c5.2-4.8,4.7-13.1,9.1-14.5"/>
	<path fill="none" stroke="#C49A6C" stroke-width="0.5" stroke-miterlimit="10" d="M36,185.3c0,0,3.3-10,10.1-13.2"/>
	<path fill="none" stroke="#C49A6C" stroke-width="0.5" stroke-miterlimit="10" d="M66.9,178.7c0,0-0.4,1.7,3.2,2.6
		c3.6,0.9,4.7,2.6,4.7,2.6"/>
	<path fill="none" stroke="#C49A6C" stroke-width="0.5" stroke-miterlimit="10" d="M62.1,180.6c3.9,0.2,5.1,4.8,8.9,4.7"/>
	<path fill="none" stroke="#C49A6C" stroke-width="0.5" stroke-miterlimit="10" d="M58.3,181.3c6.6-1.4,1.6,4.7,8.3,5.5"/>
	<path fill="none" stroke="#C49A6C" stroke-width="0.5" stroke-miterlimit="10" d="M53.9,183c6-1.1,4.5,7.2,8.2,6.4"/>
	<path fill="none" stroke="#C49A6C" stroke-width="0.5" stroke-miterlimit="10" d="M49.1,184.6c5.8-0.8,4,7.7,8.2,6.3"/>
	<path fill="none" stroke="#C49A6C" stroke-width="0.5" stroke-miterlimit="10" d="M41.8,186.8c4.9-1.3,4.5,8.9,9,6.4"/>
	<path fill="none" stroke="#C49A6C" stroke-width="0.5" stroke-miterlimit="10" d="M40.1,201.3c0.6,0,31-12.4,36.7-14.5"/>
	<path fill="none" stroke="#C49A6C" stroke-width="0.5" stroke-miterlimit="10" d="M41.1,202.7c0,0,35.6-14.6,39.4-15"/>
	<path fill="none" stroke="#C49A6C" stroke-width="0.5" stroke-miterlimit="10" d="M41.8,205.5c0,0,35.9-16.6,40.3-15.4"/>
	<path fill="none" stroke="#C49A6C" stroke-width="0.5" stroke-miterlimit="10" d="M42.3,207c0.6-0.4,33.8-14.3,33.8-14.3"/>
</g>
<g id="Layer_2">
	<g>
		<g>
			<path fill="url(#USGS_21_Intricate_Surface)" stroke="#C49A6C" stroke-miterlimit="10" d="M299.8,155.3
				c0,6.8-34.5,15.8-66.5,15.8c-13.6,0-28.4-4.7-40.5-7.2c-16.4-3.3-28-5-28-8.9c0-3.3,13-4,25.5-7c13.3-3.2,26.5-8.5,43-8.5
				C265.4,139.5,299.8,148.5,299.8,155.3z"/>
			<path fill="url(#USGS_21_Intricate_Surface)" stroke="#C49A6C" stroke-miterlimit="10" d="M351.9,155.3
				c0,6.8,34.5,15.8,66.5,15.8c13.6,0,28.4-4.7,40.5-7.2c16.4-3.3,28-5,28-8.9c0-3.3-13-4-25.5-7c-13.3-3.2-26.5-8.5-43-8.5
				C386.4,139.5,351.9,148.5,351.9,155.3z"/>
		</g>
		<g>
			<path opacity="0.1" fill="#C49A6C" d="M300.4,155c0,6.8-34.5,15.8-66.5,15.8c-13.6,0-28.4-4.7-40.5-7.2c-16.4-3.3-28-5-28-8.9
				c0-3.3,13-4,25.5-7c13.3-3.2,26.5-8.5,43-8.5C266,139.2,300.4,148.2,300.4,155z"/>
			<path opacity="0.1" fill="#C49A6C" d="M353.8,155c0,6.8,34.5,15.8,66.5,15.8c13.6,0,28.4-4.7,40.5-7.2c16.4-3.3,28-5,28-8.9
				c0-3.3-13-4-25.5-7c-13.3-3.2-26.5-8.5-43-8.5C388.2,139.2,353.8,148.2,353.8,155z"/>
		</g>
	</g>
</g>
<g id="Layer_4">
	<line fill="none" stroke="#000000" stroke-miterlimit="10" x1="87.8" y1="159.6" x2="116.7" y2="83.7"/>
	<line fill="none" stroke="#000000" stroke-miterlimit="10" x1="57.7" y1="184" x2="100.3" y2="57"/>
	<line fill="none" stroke="#000000" stroke-miterlimit="10" x1="45.8" y1="204.2" x2="80.2" y2="32.7"/>
	<text transform="matrix(1 0 0 1 111.3465 76.8843)" font-family="'CenturyGothic'" font-size="12px">External oblique</text>
	<text transform="matrix(1 0 0 1 91.1133 48.2176)" font-family="'CenturyGothic'" font-size="12px">Internal oblique</text>
	<text transform="matrix(1 0 0 1 74.3343 26.8843)" font-family="'CenturyGothic'" font-size="12px">Transversus abdominis</text>
	<line fill="none" stroke="#000000" stroke-miterlimit="10" x1="232.3" y1="128.1" x2="251.3" y2="68.4"/>
	<line fill="none" stroke="#000000" stroke-miterlimit="10" x1="254" y1="151.8" x2="277.3" y2="89"/>
	<line fill="none" stroke="#000000" stroke-miterlimit="10" x1="324.8" y1="151.8" x2="325.7" y2="118.4"/>
	<line fill="none" stroke="#000000" stroke-miterlimit="10" x1="257" y1="181.1" x2="294.7" y2="243.4"/>
	<line fill="none" stroke="#000000" stroke-miterlimit="10" x1="242.6" y1="182.8" x2="228.3" y2="265.7"/>
	<line fill="none" stroke="#000000" stroke-miterlimit="10" x1="216.5" y1="189.6" x2="178.7" y2="225.1"/>
	<text transform="matrix(1 0 0 1 228.2741 63.5511)" fill="#2E3192" font-family="'CenturyGothic'" font-size="17px">Anterior rectus sheath</text>
	<text transform="matrix(1 0 0 1 269.1236 257.3656)" fill="#2E3192" font-family="'CenturyGothic'" font-size="17px">Posterior rectus sheath</text>
	<text transform="matrix(1 0 0 1 265.0133 84.278)" font-family="'CenturyGothic'" font-size="12px">Rectus abdominis</text>
	<text transform="matrix(1 0 0 1 305.1797 113.0047)" font-family="'CenturyGothic'" font-size="12px">Linea alba</text>
	<text transform="matrix(1 0 0 1 59.4297 243.3613)" font-family="'CenturyGothic'" font-size="12px">Peritoneum</text>
	<text transform="matrix(1 0 0 1 172.3463 278.6423)" font-family="'CenturyGothic'" font-size="12px">Fascia transversalis</text>
	<path fill="none" stroke="#000000" stroke-miterlimit="10" d="M228.5,130.4c0-1.5,1.8-2.7,3.2-2.2c0.7,0.3,1.3,0.9,1.7,1.5
		c0.5,0.6,0.9,1.2,1.2,1.9c0.7,1.7,0.6,3.6,0.5,5.5c0,0.3,0,0.6-0.2,0.9c-0.2,0.5-0.6,0.8-1,1.1c-1.2,0.6-2.7,0.5-3.8-0.3"/>
	<path fill="none" stroke="#000000" stroke-miterlimit="10" d="M252.5,170.7c0.2-0.7,1.5-1.8,2.1-1.5c0.6,0.3,1.3,1.1,1.6,1.8
		c0.8,1.8,1.2,3.2,1.5,5.4c0.3,1.8-0.5,4.1-0.8,4.7c-0.2,0.6-1.8,1-2.7,0.6c-0.8-0.4-1.1-1.8-1.4-2.6"/>
	<text transform="matrix(1 0 0 1 131.6797 237.778)" font-family="'CenturyGothic'" font-size="12px">Extra peritoneal fat </text>
	<line fill="none" stroke="#000000" stroke-miterlimit="10" x1="134.3" y1="186.8" x2="108.7" y2="233"/>
	<text transform="matrix(1 0 0 1 389.988 26.8845)"><tspan x="0" y="0" fill="#2E3192" font-family="'CenturyGothic'" font-size="23px">Rectus sheath formation</tspan><tspan x="55.6" y="27.6" fill="#2E3192" font-family="'CenturyGothic'" font-size="23px">above arcuate line</tspan></text>
</g>
</svg>
