<?xml version="1.0" encoding="utf-8"?>
<!-- Generator: Adobe Illustrator 21.0.0, SVG Export Plug-In . SVG Version: 6.00 Build 0)  -->
<svg version="1.1" id="Layer_1" xmlns="http://www.w3.org/2000/svg" xmlns:xlink="http://www.w3.org/1999/xlink" x="0px" y="0px"
	 viewBox="0 0 884 576" style="enable-background:new 0 0 884 576;" xml:space="preserve">
<style type="text/css">
	.st0{fill:none;stroke:#0B0BFC;stroke-width:62;stroke-linecap:round;stroke-miterlimit:10;}
	.st1{fill:none;stroke:#FFFFFF;stroke-width:8;stroke-linecap:round;stroke-linejoin:round;}
	.st2{fill:#2E3192;}
	.st3{font-family:'CenturyGothic';}
	.st4{font-size:18px;}
	.st5{fill:none;stroke:#000000;stroke-width:2;stroke-miterlimit:10;}
	.st6{fill:none;stroke:#8B5E3C;stroke-width:2;stroke-miterlimit:10;}
	.st7{fill:none;stroke:#ED1C24;stroke-width:7;stroke-linecap:round;stroke-miterlimit:10;}
	.st8{fill:none;stroke:#ED1C24;stroke-width:6;stroke-miterlimit:10;stroke-dasharray:10,5;}
	.st9{opacity:0.41;}
	.st10{fill:#F1F7B7;}
	.st11{fill:none;stroke:#000000;stroke-width:0.5;stroke-linecap:round;stroke-linejoin:round;}
	.st12{fill:none;stroke:#ED1C24;stroke-width:6;stroke-miterlimit:10;}
	.st13{fill:none;stroke:#ED1C24;stroke-width:8;stroke-linecap:round;stroke-linejoin:round;stroke-miterlimit:10;}
	.st14{fill:none;stroke:#ED1C24;stroke-width:4;stroke-miterlimit:10;}
	.st15{font-size:32px;}
	.st16{fill:none;stroke:#66BC46;stroke-width:11;stroke-linecap:round;stroke-miterlimit:10;}
	.st17{fill:none;stroke:#66BC46;stroke-width:11;stroke-linecap:round;stroke-miterlimit:10;stroke-dasharray:10,18;}
	.st18{fill:#66BC46;}
	.st19{fill:none;stroke:#0B0BFC;stroke-width:33;stroke-linecap:round;stroke-linejoin:round;stroke-miterlimit:10;}
	.st20{fill:none;stroke:#8B5E3C;stroke-width:3;stroke-miterlimit:10;}
	.st21{fill:none;stroke:#8B5E3C;stroke-width:4;stroke-linecap:round;stroke-miterlimit:10;}
	.st22{fill:#0B0BFC;}
	.st23{fill:#ED1C24;}
	.st24{fill:url(#SVGID_1_);}
	.st25{fill:url(#SVGID_2_);}
	.st26{fill:url(#SVGID_3_);}
	.st27{fill:url(#SVGID_4_);}
	.st28{fill:url(#SVGID_5_);}
	.st29{fill:url(#SVGID_6_);}
	.st30{fill:url(#SVGID_7_);}
	.st31{fill:url(#SVGID_8_);}
	.st32{fill:url(#SVGID_9_);}
	.st33{fill:none;}
	.st34{clip-path:url(#SVGID_11_);}
	.st35{clip-path:url(#SVGID_13_);}
	.st36{fill:#CA3593;stroke:#FFFFFF;stroke-width:8.594608e-02;}
	.st37{font-family:'OpenSans-Bold';}
	.st38{font-size:13.7087px;}
	.st39{font-size:10.4739px;}
	.st40{fill:#CA3593;stroke:#FFFFFF;stroke-width:8.594543e-02;}
</style>
<g>
	<path class="st0" d="M498.7,326.8c0,0-38.6-226.8-52.5-258.2"/>
	<g>
		<line class="st1" x1="437.7" y1="171.4" x2="544.2" y2="145.9"/>
		<line class="st1" x1="444.5" y1="197.4" x2="551" y2="171.9"/>
		<line class="st1" x1="453" y1="222.4" x2="559.5" y2="196.9"/>
		<line class="st1" x1="455.3" y1="242.6" x2="561.8" y2="217.1"/>
		<line class="st1" x1="383.1" y1="163.6" x2="489.6" y2="138.1"/>
	</g>
</g>
<g id="Layer_1_1_">
</g>
<text transform="matrix(1 0 0 1 635.6132 197.3998)" class="st2 st3 st4">Common bile duct</text>
<g id="Layer_4_1_">
	<line class="st5" x1="458.6" y1="197.4" x2="623.1" y2="189.3"/>
</g>
<text transform="matrix(1 0 0 1 630.6134 142.8332)" class="st2 st3 st4">Gastroduodenal artery</text>
<path class="st6" d="M544.8,188.7c-3.8-3.1-11.7-5-16-2.6c-9.9,5.5-26.2,21.3-22.5,48.2c4.9,36.2,31.8,12.7,37.7-12.7
	C548.4,202,550.9,193.7,544.8,188.7z"/>
<path class="st7" d="M460.9,363c0,0-68.3,40.5-101.1-17.2s20.3-86.8,20.3-86.8s45.2-34,70.4-14"/>
<path class="st8" d="M497.8,147.3c0,0-41.7,91.7-44.7,100.2"/>
<g id="XMLID_3_" class="st9">
	<g>
		<path class="st10" d="M664.4,433.6c-1.3-4.2,0.7-9.9,7.8-17.1c18.1-18.1,40.1-10.6,49.5-6c2.7,1.4,4.8,3.7,5.8,6.5
			c0.2,0.7,0.4,1.4,0.5,2.1c1.3,9.1-6,11.5-24.6,19.5C688.1,445.2,667.5,443.4,664.4,433.6z M719.5,422.2c0-3.4-2.3-8.6-5.5-10.1
			c-7.2-3.4-22.6-6.2-35.5,6.7c-17.4,17.4,6.7,23.2,22.9,16.2C713.9,429.6,719.4,427.7,719.5,422.2z"/>
		<path class="st10" d="M728.2,416.8l-0.6,0.2c-1-2.8-3.1-5.1-5.8-6.5c-9.4-4.6-31.4-12.1-49.5,6c-7.2,7.2-9.1,12.9-7.8,17.1
			c-12.5-35.2-98,13-198.7,42.9c-101,30-189,6-214-134s77-189,128-215s161,47,161,47l-0.1,0.9c-3.2-0.4-6.5,0.1-9.4,1.7
			c-13.2,7.1-40.2,26.5-35.2,64.1c1.7,12.6,5.4,19.9,10.1,23.2c-6.6-3.6-70.4-37.7-99.4-33.9c-30.5,4-97.7,61.6-57,122
			c31,46,61,35,93.5,32c62-5.7,152-79.5,195-63.5s79.5,37,84.5,62.5S728.2,416.8,728.2,416.8z"/>
		<path class="st10" d="M714,412.1c3.2,1.5,5.5,6.7,5.5,10.1c-0.1,5.5-5.6,7.4-18.1,12.8c-16.2,7-40.3,1.2-22.9-16.2
			C691.4,405.9,706.8,408.7,714,412.1z"/>
		<path class="st10" d="M506.1,264.4L506.1,264.4c-4.7-3.3-8.4-10.6-10.1-23.2c-5-37.6,22-57,35.2-64.1c2.9-1.6,6.2-2.1,9.4-1.7
			c1.9,0.3,3.8,0.9,5.5,1.9c11.4,6.6,8,17.4,1.2,46.6C541.4,249.6,519.7,273.9,506.1,264.4z"/>
	</g>
	<g>
		<path class="st11" d="M664.4,433.6c3,9.8,23.7,11.6,39,5c18.6-8,25.9-10.4,24.6-19.5c-0.1-0.7-0.3-1.4-0.5-2.1
			c-1-2.8-3.1-5.1-5.8-6.5c-9.4-4.6-31.4-12.1-49.5,6C665.1,423.6,663.1,429.3,664.4,433.6z"/>
		<path class="st11" d="M719.5,422.2c0-3.4-2.3-8.6-5.5-10.1c-7.2-3.4-22.6-6.2-35.5,6.7c-17.4,17.4,6.7,23.2,22.9,16.2
			C713.9,429.6,719.4,427.7,719.5,422.2z"/>
		<path class="st11" d="M540.8,174.5c0,0-110-73-161-47s-153,75-128,215s113,164,214,134c100.6-29.9,186.2-78.1,198.7-42.9
			c0.1,0.1,0.1,0.3,0.1,0.4"/>
		<path class="st11" d="M506.1,264.4c-6.6-3.6-70.4-37.7-99.4-33.9c-30.5,4-97.7,61.6-57,122c31,46,61,35,93.5,32
			c62-5.7,152-79.5,195-63.5s79.5,37,84.5,62.5s5.4,33.3,5.4,33.3"/>
		<path class="st11" d="M506.7,264.7c0,0-0.2-0.1-0.5-0.3"/>
		<path class="st11" d="M506.1,264.4c13.5,9.5,35.3-14.8,41.2-40.5c6.8-29.2,10.2-40-1.2-46.6c-1.7-1-3.6-1.6-5.5-1.9
			c-3.2-0.4-6.5,0.1-9.4,1.7c-13.2,7.1-40.2,26.5-35.2,64.1C497.8,253.8,501.5,261.1,506.1,264.4L506.1,264.4z"/>
	</g>
</g>
<line class="st12" x1="515.6" y1="115.5" x2="499.6" y2="145"/>
<path class="st13" d="M584.1,102c0,0-19,42-68.5,9s-73-46-89-69"/>
<path class="st14" d="M505.4,130.3c0,0-20.3-18.9-90.3-14.8s-74,41.5-82,50.2s-20,42-20,42"/>
<text transform="matrix(1 0 0 1 53.5295 173.7015)" class="st2 st3 st4">Spraduodenal artery</text>
<line class="st5" x1="327.3" y1="177.6" x2="239.7" y2="170.4"/>
<text transform="matrix(1 0 0 1 51.2101 358.0003)" class="st2 st3 st4">Pancreatico</text>
<text transform="matrix(1 0 0 1 59.8101 379.6003)" class="st2 st3 st4">duodenal </text>
<text transform="matrix(1 0 0 1 73.7101 401.2003)" class="st2 st3 st4">arteries</text>
<line class="st5" x1="364.9" y1="271.3" x2="158.1" y2="386"/>
<text transform="matrix(1 0 0 1 51.2407 540.451)" class="st2 st3 st15">Superior mesenteric artery</text>
<line class="st5" x1="505.4" y1="491" x2="440.1" y2="514"/>
<path class="st16" d="M445,234.9c-8.6,23.8-18,41.5-28.1,46.8c-40.5,21-86.4,50.7-86.4,50.7"/>
<path class="st17" d="M471.1,135.3c-7,34.2-15.9,71.2-26.1,99.6"/>
<g>
	<path class="st18" d="M488.1,37.7c0.8,2.2,1.5,4.4,2.1,6.6c0.6,2.2,1.1,4.4,1.6,6.5c0.1,0.5-0.1,1-0.3,1.5c-0.1,0.5-0.2,1-0.3,1.5
		l-0.5,3.1l-1,6.1c-1.3,8.2-2.7,16.4-4.1,24.5c-1.4,8.2-2.9,16.3-4.4,24.5l-2.3,12.2c-1.2,1.9-2.4,3.7-3.7,5.6
		c-1.3,1.9-2.7,3.7-4.1,5.5c-1.3-4.5-2.2-8.9-3-13.2l2.3-12.1c1.5-8.1,3-16.2,4.4-24.3s2.8-16.2,4.1-24.4c0.6-4.1,1.3-8.1,1.8-12.2
		c1.1-1.9,2.2-3.8,3.4-5.7C485.4,41.4,486.7,39.5,488.1,37.7z"/>
</g>
<path class="st19" d="M832.1,228.7c0,0-325.9,64.1-339.9,36.3"/>
<g id="XMLID_1_">
	<g>
		<path class="st20" d="M666.8,432.1c3,9.8,23.7,11.6,39,5c18.6-8,25.9-10.4,24.6-19.5c-0.1-0.7-0.3-1.4-0.5-2.1
			c-1-2.8-3.1-5.1-5.8-6.5c-9.4-4.6-31.4-12.1-49.5,6C667.4,422.2,665.4,427.9,666.8,432.1z"/>
		<path class="st6" d="M721.8,420.7c0-3.4-2.3-8.6-5.5-10.1c-7.2-3.4-22.6-6.2-35.5,6.7c-17.4,17.4,6.7,23.2,22.9,16.2
			C716.2,428.1,721.7,426.2,721.8,420.7z"/>
		<path class="st21" d="M543.1,173c0,0-110-73-161-47s-153,75-128,215s113,164,214,134c100.6-29.9,186.2-78.1,198.7-42.9
			c0.1,0.1,0.1,0.3,0.1,0.4"/>
		<path class="st21" d="M508.4,262.9c-6.6-3.6-70.4-37.7-99.4-33.9c-30.5,4-97.7,61.6-57,122c31,46,61,35,93.5,32
			c62-5.7,152-79.5,195-63.5s79.5,37,84.5,62.5s5.4,33.3,5.4,33.3"/>
		<path class="st21" d="M509,263.2c0,0-0.2-0.1-0.5-0.3"/>
		<path class="st20" d="M508.5,262.9c13.5,9.5,35.3-14.8,41.2-40.5c6.8-29.2,10.2-40-1.2-46.6c-1.7-1-3.6-1.7-5.5-1.9
			c-3.2-0.4-6.5,0.1-9.4,1.7c-13.2,7.1-40.2,26.5-35.2,64.1C500.1,252.3,503.8,259.6,508.5,262.9L508.5,262.9z"/>
	</g>
</g>
<text transform="matrix(1 0 0 1 611.6134 90.5219)" class="st2 st3 st4">Portal vein</text>
<g>
	<path class="st22" d="M526.9,303.4c6.9,42.7,13.3,90.2,19.2,133l4.1,20.2l2,16.1c4.4,18.3,6.6,34,7.4,45c0.9,11,3.5,24.2,4,35
		l4,36.5c1.7,43.1,10.6,72.4,12,115.5l-23.4,120.8L544,696.9c-4.1-42.9-8.3-85.7-12.7-128.5l-3.4-32.1c-1.2-10.7-2.3-21.3-3.9-31.7
		c-1.5-10.4-3.5-20.9-5.4-31.4l-3-15.8l-3.1-15.8c-8.6-42-17.8-84.1-27.4-125.9v-0.1c-2-8.9,3.5-17.7,12.4-19.8
		c8.9-2,17.7,3.5,19.8,12.4C517.3,308.6,526.8,303.1,526.9,303.4z"/>
</g>
<g>
	<path class="st23" d="M488.3,318.8c6.9,42.7,13.5,85.3,19.4,128.1l2.2,16.1l2,16.1c1.3,10.8,2.6,21.5,3.4,32.5
		c0.9,11,1.4,21.8,1.9,32.6l1.4,32.3c1.7,43.1,3.1,86.1,4.5,129.2l4,129.3l-12.2-128.6c-4.1-42.9-8.3-85.7-12.7-128.5l-3.4-32.1
		c-1.2-10.7-2.3-21.3-3.9-31.7c-1.5-10.4-3.5-20.9-5.4-31.4l-3-15.8l-3.1-15.8c-8.6-42-17.8-84.1-27.4-125.9v-0.1
		c-2-8.9,3.5-17.7,12.4-19.8c8.9-2,17.7,3.5,19.8,12.4C488.2,318.1,488.2,318.5,488.3,318.8z"/>
</g>
<g id="Layer_4_2_">
	<line class="st5" x1="440.1" y1="94.6" x2="604.6" y2="86.5"/>
</g>
<g id="Layer_4">
	<line class="st5" x1="484.7" y1="176.2" x2="620.4" y2="141.7"/>
</g>
<line class="st1" x1="909.4" y1="545.3" x2="1016" y2="519.8"/>
<g>
	<g>
		<linearGradient id="SVGID_1_" gradientUnits="userSpaceOnUse" x1="667.3701" y1="305.3615" x2="663.2505" y2="305.3615">
			<stop  offset="0" style="stop-color:#F05A2A"/>
			<stop  offset="0.4109" style="stop-color:#F59C24"/>
			<stop  offset="0.8096" style="stop-color:#F9D61F"/>
			<stop  offset="1" style="stop-color:#FBED1D"/>
		</linearGradient>
		<path class="st24" d="M665,307.2c-0.4,0-0.8-0.1-1-0.4c-0.9-0.9-1-2.1-0.2-2.8c0.7-0.6,1.4-0.8,2.3-0.4c0.9,0.4,1.3,1.1,1.3,2.1
			c0,0,0,0-0.1,0c-0.8-1.5-1.7-2-2.6-1.5c-0.7,0.4-1,1.2-0.7,1.8c0.4,0.8,1.8,1,2.6-0.3c0,0,0.1,0,0.1,0c-0.1,0.4-0.4,0.9-0.6,1.2
			c-0.1,0.1-0.3,0.2-0.4,0.2C665.5,307.2,665.3,307.2,665,307.2z"/>
		<linearGradient id="SVGID_2_" gradientUnits="userSpaceOnUse" x1="662.7892" y1="303.46" x2="662.7892" y2="302.3476">
			<stop  offset="0" style="stop-color:#FBED1D"/>
			<stop  offset="0.1444" style="stop-color:#FBE81D"/>
			<stop  offset="0.3134" style="stop-color:#FADA1F"/>
			<stop  offset="0.4948" style="stop-color:#F8C221"/>
			<stop  offset="0.6849" style="stop-color:#F5A124"/>
			<stop  offset="0.8798" style="stop-color:#F27827"/>
			<stop  offset="1" style="stop-color:#F05A2A"/>
		</linearGradient>
		<path class="st25" d="M663.4,303.3c0,0.1,0.1,0.2,0,0.2c-0.3-0.1-0.6-0.3-0.9-0.4c-0.2-0.1-0.6-0.2-0.3-0.5c0.2-0.2,0.5-0.2,0.7,0
			C663.1,302.7,663.3,302.9,663.4,303.3z"/>
		<linearGradient id="SVGID_3_" gradientUnits="userSpaceOnUse" x1="667.9179" y1="303.6589" x2="668.1033" y2="302.3397">
			<stop  offset="0" style="stop-color:#F05A2A"/>
			<stop  offset="0.1748" style="stop-color:#F27827"/>
			<stop  offset="0.5653" style="stop-color:#F7B722"/>
			<stop  offset="0.8512" style="stop-color:#FADE1E"/>
			<stop  offset="1" style="stop-color:#FBED1D"/>
		</linearGradient>
		<path class="st26" d="M667.4,303.6c0.2-0.4,0.4-0.7,0.6-1c0.1-0.2,0.3-0.3,0.5-0.2c0.2,0.1,0.2,0.3,0,0.5
			C668.2,303.2,668,303.5,667.4,303.6z"/>
		<linearGradient id="SVGID_4_" gradientUnits="userSpaceOnUse" x1="665.3474" y1="302.6882" x2="665.3474" y2="301.2803">
			<stop  offset="0" style="stop-color:#F05A2A"/>
			<stop  offset="0.1748" style="stop-color:#F27827"/>
			<stop  offset="0.5653" style="stop-color:#F7B722"/>
			<stop  offset="0.8512" style="stop-color:#FADE1E"/>
			<stop  offset="1" style="stop-color:#FBED1D"/>
		</linearGradient>
		<path class="st27" d="M665.3,302.7c-0.1-0.1-0.2-0.2-0.2-0.2c-0.1-0.4-0.2-0.8,0.1-1.1c0.1,0,0.2-0.1,0.3,0c0.3,0.4-0.1,0.7-0.1,1
			C665.4,302.4,665.4,302.5,665.3,302.7z"/>
		<linearGradient id="SVGID_5_" gradientUnits="userSpaceOnUse" x1="668.446" y1="305.4587" x2="669.7506" y2="305.4587">
			<stop  offset="0" style="stop-color:#F05A2A"/>
			<stop  offset="0.1748" style="stop-color:#F27827"/>
			<stop  offset="0.5653" style="stop-color:#F7B722"/>
			<stop  offset="0.8512" style="stop-color:#FADE1E"/>
			<stop  offset="1" style="stop-color:#FBED1D"/>
		</linearGradient>
		<path class="st28" d="M668.4,305.3c0.4-0.1,0.9-0.3,1.3,0c0.1,0.1,0,0.3-0.1,0.3C669.1,305.9,668.8,305.6,668.4,305.3z"/>
		<linearGradient id="SVGID_6_" gradientUnits="userSpaceOnUse" x1="662.5535" y1="305.4624" x2="660.6894" y2="305.4624">
			<stop  offset="1.538462e-02" style="stop-color:#FBED1D"/>
			<stop  offset="0.1475" style="stop-color:#FBE71E"/>
			<stop  offset="0.3196" style="stop-color:#F9D71F"/>
			<stop  offset="0.5139" style="stop-color:#F7BC21"/>
			<stop  offset="0.7243" style="stop-color:#F59725"/>
			<stop  offset="0.9456" style="stop-color:#F16729"/>
			<stop  offset="1" style="stop-color:#F05A2A"/>
		</linearGradient>
		<path class="st29" d="M660.7,305.5c0.8,0.7,1.2-0.2,1.9,0C661.9,305,661.3,305,660.7,305.5C660.7,305.5,660.7,305.5,660.7,305.5z"
			/>
		<linearGradient id="SVGID_7_" gradientUnits="userSpaceOnUse" x1="662.1951" y1="307.9991" x2="663.4656" y2="307.9991">
			<stop  offset="0" style="stop-color:#F05A2A"/>
			<stop  offset="0.1748" style="stop-color:#F27827"/>
			<stop  offset="0.5653" style="stop-color:#F7B722"/>
			<stop  offset="0.8512" style="stop-color:#FADE1E"/>
			<stop  offset="1" style="stop-color:#FBED1D"/>
		</linearGradient>
		<path class="st30" d="M663.5,307.5c-0.3,0.2-0.6,0.3-0.9,0.4c-0.2,0.1-0.6,0.2-0.3,0.5c0.2,0.2,0.5,0.2,0.7,0
			C663.2,308.1,663.5,307.9,663.5,307.5z"/>
		
			<linearGradient id="SVGID_8_" gradientUnits="userSpaceOnUse" x1="13866.1465" y1="307.9136" x2="13867.417" y2="307.9136" gradientTransform="matrix(-1 0 0 1 14534.8857 0)">
			<stop  offset="0" style="stop-color:#F05A2A"/>
			<stop  offset="0.1748" style="stop-color:#F27827"/>
			<stop  offset="0.5653" style="stop-color:#F7B722"/>
			<stop  offset="0.8512" style="stop-color:#FADE1E"/>
			<stop  offset="1" style="stop-color:#FBED1D"/>
		</linearGradient>
		<path class="st31" d="M667.5,307.4c0.3,0.2,0.6,0.3,0.9,0.4c0.2,0.1,0.6,0.2,0.3,0.5c-0.2,0.2-0.5,0.2-0.7,0
			C667.7,308,667.5,307.8,667.5,307.4z"/>
		<linearGradient id="SVGID_9_" gradientUnits="userSpaceOnUse" x1="665.7209" y1="309.515" x2="665.0039" y2="308.2731">
			<stop  offset="0" style="stop-color:#F05A2A"/>
			<stop  offset="0.1748" style="stop-color:#F27827"/>
			<stop  offset="0.5653" style="stop-color:#F7B722"/>
			<stop  offset="0.8512" style="stop-color:#FADE1E"/>
			<stop  offset="1" style="stop-color:#FBED1D"/>
		</linearGradient>
		<path class="st32" d="M665.4,308.4c0-0.1-0.1-0.3-0.1-0.3c-0.1,0.1-0.1,0.3-0.1,0.4c-0.1,0.4-0.2,0.8,0.1,1.1c0.1,0,0.2,0.1,0.3,0
			c0.3-0.4-0.1-0.7-0.1-1C665.5,308.5,665.5,308.4,665.4,308.4z"/>
	</g>
	<rect x="652.8" y="295.2" class="st33" width="20.1" height="20.2"/>
	<g>
		<defs>
			<rect id="SVGID_10_" x="658.3" y="300.4" width="13.9" height="13.9"/>
		</defs>
		<clipPath id="SVGID_11_">
			<use xlink:href="#SVGID_10_"  style="overflow:visible;"/>
		</clipPath>
		<g class="st34">
			<defs>
				<rect id="SVGID_12_" x="657.8" y="308.6" width="14.9" height="9.8"/>
			</defs>
			<clipPath id="SVGID_13_">
				<use xlink:href="#SVGID_12_"  style="overflow:visible;"/>
			</clipPath>
			<g class="st35">
				<defs>
					<path id="SVGID_14_" d="M658.1,309.8c0,0,3-1,4.8-0.5c1.8,0.5,6.8,2,9.3,0.1c0,0,0.8,6.8,0.5,7.6c-0.3,0.8-7.7,4.6-13.6,1.8
						S657.6,310.7,658.1,309.8z"/>
				</defs>
				<clipPath id="SVGID_15_">
					<use xlink:href="#SVGID_14_"  style="overflow:visible;"/>
				</clipPath>
				<g style="clip-path:url(#SVGID_15_);">
					
						<image style="overflow:visible;" width="1366" height="768" xlink:href="F7B6F927.jpg"  transform="matrix(2.629799e-02 0 0 2.732960e-02 642.4913 304.8565)">
					</image>
				</g>
			</g>
		</g>
	</g>
	<g>
		<text transform="matrix(1 0 0 1 673.0605 313.9844)"><tspan x="0" y="0" class="st36 st37 st38">H</tspan><tspan x="10.5" y="0" class="st36 st37 st39">ealiosme</tspan></text>
		<g>
			<path class="st40" d="M733.5,314c-0.7,0-1.2-0.3-1.6-0.8c-0.4-0.5-0.6-1.2-0.6-2.2c0-0.9,0.2-1.7,0.6-2.2
				c0.4-0.5,0.9-0.8,1.6-0.8c0.7,0,1.3,0.3,1.6,0.8h0.1c-0.1-0.4-0.1-0.8-0.1-1.1v-6.6c0-0.4,0.3-0.7,0.7-0.7h0.1
				c0.4,0,0.7,0.3,0.7,0.7v12c0,0.4-0.3,0.7-0.7,0.7l0,0c-0.3,0-0.6-0.2-0.7-0.4l-0.1-0.3h-0.1C734.7,313.7,734.2,314,733.5,314z
				 M734,312.7c0.4,0,0.7-0.1,0.9-0.3c0.2-0.2,0.3-0.6,0.3-1.2V311c0-0.6-0.1-1.1-0.3-1.3c-0.2-0.3-0.5-0.4-0.9-0.4
				c-0.3,0-0.6,0.1-0.8,0.4c-0.2,0.3-0.3,0.7-0.3,1.3c0,0.6,0.1,1,0.3,1.3C733.4,312.6,733.6,312.7,734,312.7z"/>
		</g>
	</g>
</g>
</svg>
