<svg id="Layer_1" data-name="Layer 1" xmlns="http://www.w3.org/2000/svg" viewBox="0 0 298.97 271.99">
  <title>renal arteries</title>
  <g id="Layer_1-2" data-name="Layer 1">
    <line x1="135.6" y1="47.71" x2="139.6" y2="270.71" fill="none" stroke="#ed1c24" stroke-miterlimit="10"/>
    <path d="M222.23,121.1s-1.7,4.7-9.8,4.5-21-2.7-22.8-4.8,0-15,0-15l-.4-46.8" transform="translate(-23.13 -11.29)" fill="none" stroke="#ed1c24" stroke-miterlimit="10"/>
    <path d="M225.13,123.9a1.82,1.82,0,0,0-1.1,1l-2.2,3.1a30.36,30.36,0,0,1,8.5-.9,3.75,3.75,0,0,0,1.1-.1c.4-.2.7-.8,1.1-1" transform="translate(-23.13 -11.29)" fill="none" stroke="#ed1c24" stroke-miterlimit="10"/>
    <path d="M231.53,130.6a5.56,5.56,0,0,0-1.7.9c-.1.1-.2.2-.2.3s.3.3.5.3h2.1" transform="translate(-23.13 -11.29)" fill="none" stroke="#ed1c24" stroke-miterlimit="10"/>
    <path d="M232.43,138a21.12,21.12,0,0,0-3.1-2.1,8.17,8.17,0,0,0-5.5-1,1.7,1.7,0,0,0-1,.6,1.26,1.26,0,0,0,.2,1.3,4.44,4.44,0,0,0,1.1.8,64.39,64.39,0,0,1,9.7,6.7" transform="translate(-23.13 -11.29)" fill="none" stroke="#ed1c24" stroke-miterlimit="10"/>
    <path d="M188.33,143.3c.1.4.2.8.3,1.3.2,14.2.9,137.4.9,137.4" transform="translate(-23.13 -11.29)" fill="none" stroke="#ed1c24" stroke-miterlimit="10"/>
    <path d="M220.53,147.3c-.6-.5-1.3-1.1-2-1.6-7.4-5.3-16.9-6.8-26-6.8a4.9,4.9,0,0,0-3.5.9c-.7.7-.8,3.1-.8,3.5" transform="translate(-23.13 -11.29)" fill="none" stroke="#ed1c24" stroke-miterlimit="10"/>
    <path d="M229.93,154.7c-3.5-1.9-6.3-4.8-9.4-7.4" transform="translate(-23.13 -11.29)" fill="none" stroke="#ed1c24" stroke-miterlimit="10"/>
    <path d="M177.43,110.8c1.6,3.9,1.7,8.1,1.8,12.3l.4,33.2c0,1.3-.6,3.3-1.9,3.1l-7-1.3c-5.3-14-1.9-29.6-3.3-44.4-.1-.9-.6-2.1-1.4-1.9" transform="translate(-23.13 -11.29)" fill="none" stroke="#ed1c24" stroke-miterlimit="10"/>
    <path d="M101.73,146.9a2.48,2.48,0,0,0-1.2,1.6c-1,2.5-1.4,5.2-2.6,7.6-2.3,4.5-7.4,7.1-9.1,11.8a4.15,4.15,0,0,0-.3,1.6,4.89,4.89,0,0,0,1.3,2.7l5,6.9,1-.7" transform="translate(-23.13 -11.29)" fill="none" stroke="#c49a6c" stroke-miterlimit="10" stroke-width="2"/>
    <path d="M162.43,282.7c7.2-.8,14.5-1.6,21.5-.3,1.8.4,4,.8,5.2-.6" transform="translate(-23.13 -11.29)" fill="none" stroke="#ed1c24" stroke-miterlimit="10"/>
    <path d="M158.33,58.9l16.2.8c5,.2,10.1.5,15.2.4" transform="translate(-23.13 -11.29)" fill="none" stroke="#ed1c24" stroke-miterlimit="10"/>
    <path d="M235,123.9s-12.2-.1-17.2-6.4-16.3-31.3.5-46c19-16.7,37.3-16.3,61.8,5.5s36.5,98.5,11.5,118.5c-24.3,19.5-40,16-58-6s-3.5-39,1.5-46.3" transform="translate(-23.13 -11.29)" fill="none" stroke="#c49a6c" stroke-miterlimit="10" stroke-width="2"/>
    <path d="M232.53,123.9a27.54,27.54,0,0,0-.3,8.1,37.12,37.12,0,0,0,3.5,11.3" transform="translate(-23.13 -11.29)" fill="none" stroke="#c49a6c" stroke-miterlimit="10"/>
    <path d="M112.83,150.5s12.4-3.8,16.4-15.7-2.7-53.7-40.8-42.5-62.3,44.5-64.2,76.4c-1.8,31,19.8,68.3,48.3,61.3s33.2-28.2,26.2-41.5-4-9.3-4-9.3" transform="translate(-23.13 -11.29)" fill="none" stroke="#c49a6c" stroke-miterlimit="10" stroke-width="2"/>
  </g>
  <path d="M155,142.92a181,181,0,0,0-20.64.15c-9,.77-20.7,12.66-24.37,5.63" transform="translate(-23.13 -11.29)" fill="none" stroke="#ed1c24" stroke-linecap="round" stroke-miterlimit="10"/>
  <path d="M160.53,159.41s-22.53-3.08-32.2,4.92S90,176.67,90,184" transform="translate(-23.13 -11.29)" fill="none" stroke="#ed1c24" stroke-miterlimit="10"/>
  <path d="M86.67,174.33s21.33-7,23.33-8.67-18.67-3-23.33,0" transform="translate(-23.13 -11.29)" fill="none" stroke="#ed1c24" stroke-miterlimit="10"/>
  <path d="M90,154.7l20.14,5.93s-10.8-10.53-9.6-12.13" transform="translate(-23.13 -11.29)" fill="none" stroke="#ed1c24" stroke-miterlimit="10"/>
  <path d="M159.83,140.21c.08-.15-2.24,3.16-4.83,2.72" transform="translate(-23.13 -11.29)" fill="none" stroke="#ed1c24" stroke-miterlimit="10"/>
  <text transform="translate(21.12 20.09)" font-size="24" fill="#ed1c24" font-family="MyriadPro-Regular, Myriad Pro"><tspan letter-spacing="0em">A</tspan><tspan x="14.62" y="0" letter-spacing="0.02em">r</tspan><tspan x="23.04" y="0" letter-spacing="-0.01em">t</tspan><tspan x="30.84" y="0">e</tspan><tspan x="42.86" y="0" letter-spacing="0em">r</tspan><tspan x="50.81" y="0" letter-spacing="0em">ial supply of </tspan><tspan x="176.11" y="0" letter-spacing="0.02em">k</tspan><tspan x="187.77" y="0" letter-spacing="0em">idney</tspan></text>
  <text transform="translate(0.44 36.67)" font-size="12" fill="#7f92ff" font-family="MyriadPro-Regular, Myriad Pro"><tspan letter-spacing="0em">A</tspan><tspan x="7.31" y="0">pp</tspan><tspan x="20.96" y="0" letter-spacing="-0.01em">r</tspan><tspan x="24.77" y="0" letter-spacing="0em">eci</tspan><tspan x="38.96" y="0" letter-spacing="0em">a</tspan><tspan x="44.7" y="0" letter-spacing="-0.01em">t</tspan><tspan x="48.6" y="0">e th</tspan><tspan x="67.79" y="0" letter-spacing="0em">a</tspan><tspan x="73.52" y="0" letter-spacing="0em">t </tspan><tspan x="80.04" y="0" letter-spacing="0em">r</tspan><tspan x="84.01" y="0">ig</tspan><tspan x="93.53" y="0" letter-spacing="0em">h</tspan><tspan x="100.14" y="0">t </tspan><tspan x="106.65" y="0" letter-spacing="-0.01em">r</tspan><tspan x="110.46" y="0">enal a</tspan><tspan x="140.07" y="0" letter-spacing="0.02em">r</tspan><tspan x="144.29" y="0" letter-spacing="-0.01em">t</tspan><tspan x="148.19" y="0" letter-spacing="0em">e</tspan><tspan x="154.2" y="0" letter-spacing="0em">r</tspan><tspan x="158.17" y="0">ial pedical is longer than le</tspan><tspan x="290.92" y="0" letter-spacing="0.01em">f</tspan><tspan x="294.56" y="0" letter-spacing="0em">t</tspan></text>
</svg>
