<?xml version="1.0" encoding="utf-8"?>
<!-- Generator: Adobe Illustrator 21.0.0, SVG Export Plug-In . SVG Version: 6.00 Build 0)  -->
<svg version="1.1" xmlns="http://www.w3.org/2000/svg" xmlns:xlink="http://www.w3.org/1999/xlink" x="0px" y="0px"
	 viewBox="0 0 595.3 841.9" style="enable-background:new 0 0 595.3 841.9;" xml:space="preserve">
<style type="text/css">
	.st0{fill:#666766;}
	.st1{fill:none;stroke:#999999;stroke-miterlimit:10;}
	.st2{fill:#999999;}
	.st3{fill:#EF3B39;}
	.st4{fill:none;stroke:#EF3B39;stroke-linecap:round;stroke-miterlimit:10;}
	.st5{fill:none;stroke:#EF3B39;stroke-linecap:round;stroke-miterlimit:10;stroke-dasharray:1.9922,1.9922;}
	.st6{fill:none;stroke:#EF3B39;stroke-width:0.9842;stroke-linecap:round;stroke-miterlimit:10;}
	.st7{fill:none;stroke:#808285;stroke-linecap:round;stroke-miterlimit:10;}
	.st8{font-family:'MyriadPro-Regular';}
	.st9{font-size:18px;}
	.st10{font-family:'Candara';}
	.st11{font-size:25px;}
</style>
<g id="Layer_2">
	<g>
		<path class="st0" d="M186.5,327c0,8.5-0.1,16.9-0.4,25.4c-0.3,8.5-0.8,16.9-1.4,25.4c-1.3,16.9-3.1,33.8-5.9,50.5
			c-1.4,8.4-3.1,16.7-5.3,24.9c-2.1,8.2-4.7,16.4-8,24.2c-6.4,15.5-9.6,32.5-8.7,49.2c0.4,8.4,1.9,16.7,4.4,24.7
			c2.5,8,6.1,15.6,10.6,22.7c9,14.2,21.5,25.8,35.6,34.9c7.1,4.5,14.5,8.5,22.2,11.9c7.7,3.4,15.6,6.3,23.7,8.4
			c16.2,4.4,33.1,6.2,49.8,4.5c16.6-1.7,33-6.8,47.3-15.4c7.2-4.3,13.9-9.4,19.9-15.2c6-5.8,11.4-12.3,16.1-19.2
			c4.7-6.9,8.7-14.4,12-22.1c3.3-7.7,6-15.7,8.1-23.8c2.2-8.1,4-16.4,5.4-24.7c1.4-8.3,2.4-16.7,2.9-25.1
			c1.1-16.8,0.4-33.7-1.8-50.5c-2.2-16.7-6.1-33.2-10.4-49.6c-2.1-8.2-4.3-16.4-6.1-24.7c-1.9-8.3-3.1-16.8-3-25.3
			c0-8.5,1.2-17,3.7-25.1c1.2-4.1,2.8-8,4.7-11.8c1-1.9,2-3.7,3.1-5.5c1.1-1.8,2.4-3.5,3.8-5.1c-1.4,1.6-2.6,3.3-3.7,5.1
			c-1.1,1.8-2.1,3.7-3,5.6c-1.8,3.8-3.3,7.8-4.5,11.8c-2.3,8.1-3.4,16.6-3.3,25c0,8.4,1.4,16.8,3.3,25c2,8.2,4.3,16.4,6.5,24.5
			c4.4,16.3,8.5,32.9,10.9,49.7c2.4,16.8,3.3,33.9,2.3,50.9c-0.5,8.5-1.4,17-2.8,25.4c-1.4,8.4-3.2,16.7-5.4,24.9
			c-2.1,8.2-4.8,16.4-8.2,24.2c-3.4,7.8-7.4,15.4-12.2,22.5c-4.8,7.1-10.3,13.7-16.4,19.7c-6.2,6-13,11.2-20.4,15.6
			c-7.4,4.4-15.2,8-23.4,10.6c-8.2,2.6-16.6,4.3-25.1,5.2c-17.1,1.6-34.4-0.2-50.8-4.7c-8.2-2.2-16.3-5.2-24.1-8.7
			c-7.8-3.5-15.3-7.5-22.5-12.1c-14.3-9.3-27.2-21.2-36.2-35.8c-4.5-7.3-8.1-15.1-10.6-23.3c-2.5-8.2-3.9-16.7-4.3-25.2
			c-0.7-17.1,2.6-34.2,9.2-49.9c3.3-7.7,5.9-15.8,8.1-23.9c2.2-8.2,4-16.4,5.5-24.8c3-16.6,5-33.5,6.4-50.3
			C185.4,360.9,186.3,343.9,186.5,327z"/>
	</g>
	<path class="st1" d="M256.5,433c0,0-31,11.5-33,59s15,78.5,42.5,84s36.5-8,46.5-42.5s18.5-54.5-4.5-84S272.5,426.5,256.5,433z"/>
	<path class="st1" d="M262.5,429c0,0-11.3-4-4-19.8s23-13,35.3-9s33.3,18.4,40.3,55.4S309.7,557.3,315.3,561
		c5.7,3.7,22-15.3,25.3-35.3c3.3-20,18.7-69.7-2.3-101s-37.3-33.3-56.7-56c-19.3-22.7-13.7-93.3-13-123.7c0.7-30.3,1-43.3,1-43.3"/>
	<path class="st1" d="M269,199.7l14.7,0.3c0,0-0.7,14.3-0.7,22.3s-4,88.3-1.3,102c2.7,13.7,1.3,30.7,27,46.3
		c25.7,15.7,41.3,35,47.3,48.7c6,13.7,10,56.3,6.7,79c-3.3,22.7-11.7,59.3-27.3,68c-15.7,8.7-31,21-35.3-1.7"/>
	<g>
		<path class="st2" d="M268.7,422.6c-0.3,0.2-0.7,0.1-0.9-0.1c-0.3-0.2-0.5-0.5-0.6-0.7c-0.3-0.6-0.4-1.2-0.5-1.8
			c-0.1-1.3-0.1-2.5,0.2-3.8c0.5-2.5,1.8-4.8,3.6-6.6c1.8-1.8,4-3.2,6.3-4.2c2.3-1,4.7-1.7,7.2-2.2l0,0.1c-2.3,1-4.6,1.9-6.8,3
			c-2.2,1.1-4.4,2.3-6.1,3.9c-1.8,1.6-3.1,3.8-3.7,6.1c-0.3,1.2-0.4,2.4-0.4,3.6c0,0.6,0.1,1.2,0.3,1.8c0.1,0.3,0.3,0.5,0.5,0.7
			C268.1,422.6,268.4,422.6,268.7,422.6L268.7,422.6z"/>
	</g>
	<g>
		<path class="st2" d="M275,422.5c0-2.1,0.1-4.3,0.6-6.4c0.5-2.1,1.6-4.2,3.5-5.4c1.9-1.3,4.2-1.6,6.3-1.7c2.1-0.1,4.2-0.2,6.1-1
			l0.1,0.1c-0.8,0.7-1.9,1.1-2.9,1.4c-1.1,0.3-2.1,0.4-3.2,0.5c-2.1,0.2-4.2,0.3-5.9,1.4c-1.7,1-2.8,2.9-3.4,4.9
			C275.4,418.3,275.2,420.4,275,422.5L275,422.5z"/>
	</g>
	<g>
		<path class="st2" d="M283.7,420.5c0.7-1.8,1.4-3.6,2.3-5.4c0.9-1.7,2.1-3.4,3.6-4.7c1.5-1.3,3.5-2.2,5.5-2.4c2-0.2,4,0,5.9,0.5
			l0,0.1c-2,0.1-3.9,0.1-5.7,0.4c-1.8,0.3-3.6,0.9-5.1,2c-1.5,1.1-2.7,2.7-3.7,4.3C285.4,417,284.6,418.8,283.7,420.5L283.7,420.5z"
			/>
	</g>
	<g>
		<path class="st2" d="M290.2,424.1c-0.6-1.7,0-3.7,1-5.1c1.1-1.5,2.6-2.6,4.2-3.4c1.6-0.8,3.4-1.3,5.2-1.5c1.8-0.1,3.6,0,5.4,0.4
			l0,0.1l-2.6,0.2c-0.9,0.1-1.7,0.2-2.6,0.3c-1.7,0.3-3.4,0.6-5,1.2c-1.6,0.7-3.1,1.6-4.1,3C290.5,420.6,289.8,422.4,290.2,424.1
			L290.2,424.1z"/>
	</g>
	<g>
		<path class="st2" d="M294.1,429.4c0.3-1.9,1-3.7,2.1-5.3c1.1-1.6,2.5-3,4.1-4.1c1.6-1.1,3.4-2,5.3-2.3c1.9-0.3,4-0.2,5.7,0.5
			l0,0.1c-1.9-0.2-3.7-0.1-5.5,0.3c-1.8,0.4-3.5,1-5.1,2C297.6,422.7,295.1,425.7,294.1,429.4L294.1,429.4z"/>
	</g>
	<g>
		<path class="st2" d="M300,430.1c1.4-0.2,2.5-1.2,3.5-2.1c1-1,2.1-1.9,3.3-2.7c1.2-0.8,2.5-1.4,3.9-1.7c1.4-0.3,2.9-0.4,4.3-0.1
			l0,0.1c-0.7,0.1-1.4,0.3-2,0.4c-0.7,0.2-1.3,0.3-2,0.5c-1.3,0.4-2.6,0.8-3.8,1.5c-1.2,0.6-2.3,1.4-3.4,2.3
			C302.7,429.2,301.4,430.1,300,430.1L300,430.1z"/>
	</g>
	<g>
		<path class="st2" d="M308.6,436c0.9-1.6,2.2-3,3.7-4.2c0.8-0.6,1.5-1.1,2.4-1.5c0.9-0.3,1.8-0.5,2.8-0.5l0,0.1
			c-0.8,0.5-1.6,0.9-2.4,1.3c-0.8,0.4-1.6,0.7-2.4,1.2C311.2,433.5,309.8,434.7,308.6,436L308.6,436z"/>
	</g>
	<g>
		<path class="st2" d="M315.6,439.8c1.3-0.6,2.5-1.4,3.6-2.2c0.6-0.4,1.1-0.9,1.7-1.3c0.6-0.4,1.2-0.7,1.9-1l0.1,0.1
			c-0.3,0.7-0.8,1.2-1.4,1.7c-0.5,0.5-1.2,0.8-1.8,1.2C318.4,438.9,317,439.5,315.6,439.8L315.6,439.8z"/>
	</g>
	<g>
		<path class="st2" d="M318.5,446.9c0.7,0.2,1.4,0.1,2-0.1c0.6-0.2,1.2-0.6,1.7-1c0.5-0.4,0.9-1,1.4-1.4c0.5-0.5,1-0.9,1.7-1.3
			l0.1,0.1c-0.2,0.7-0.6,1.4-1,1.9c-0.4,0.6-1.1,1-1.7,1.4c-0.6,0.4-1.3,0.7-2.1,0.8C319.8,447.4,319.1,447.3,318.5,446.9
			L318.5,446.9z"/>
	</g>
	<g>
		<path class="st2" d="M321.3,452.6c0.5,0.3,1.1,0.4,1.6,0.3c0.5-0.1,1.1-0.3,1.5-0.6c0.5-0.3,0.9-0.7,1.4-1c0.5-0.3,1-0.6,1.6-0.9
			l0.1,0.1c-0.2,0.6-0.6,1.1-1,1.6c-0.4,0.4-1,0.7-1.6,0.9c-0.6,0.2-1.2,0.4-1.9,0.4C322.4,453.3,321.7,453.1,321.3,452.6
			L321.3,452.6z"/>
	</g>
	<g>
		<path class="st2" d="M323.4,459.1c0.9,0.7,2,0.8,2.9,0.6c0.5-0.1,0.9-0.4,1.4-0.5c0.4-0.2,0.9-0.4,1.4-0.7l0.1,0.1
			c-0.1,0.6-0.5,1.2-1,1.5c-0.5,0.4-1.2,0.4-1.8,0.5c-0.6,0-1.2-0.1-1.7-0.3C324.1,460,323.6,459.7,323.4,459.1L323.4,459.1z"/>
	</g>
	<path class="st1" d="M324.9,466.1c1.1,0.5,2.4,0.6,3.6,0.3"/>
	<path class="st1" d="M323.5,473.4c1.5,0.2,3,0.4,4.5,0.6"/>
	<g>
		<path class="st3" d="M238,237.6c-0.5,14.3-0.6,28.8-0.4,43.1c0.3,14.4,0.9,28.8,2.4,43c0.7,7.2,1.9,14.1,2.9,21.4
			c0.9,7.3,1.3,14.6,1.3,21.9c0.1,7.3-0.2,14.6-0.6,21.8c-0.4,7.2-1,14.4-1,21.6c0,3.6,0.1,7.1,0.7,10.5c0.3,1.7,0.7,3.3,1.4,4.9
			l0.2,0.6l0.3,0.6l0.6,1.2l1.1,2.5c1.5,3.3,3,6.7,4.2,10.1c1.2,3.5,2.2,7,2.9,10.7c0.7,3.6,1,7.3,1.1,11c0,1.8,0,3.7-0.1,5.5
			l-0.2,2.7l-0.3,2.7c-0.8,7.3-2.6,14.4-4.4,21.3c-1.8,7-3.9,13.9-5.5,20.9c-0.8,3.5-1.4,7-1.6,10.6c0,0.9-0.1,1.8-0.1,2.7l0.1,2.7
			c0.2,1.8,0.5,3.5,1,5.2c1,3.4,2.6,6.7,4.8,9.5c2.1,2.9,4.5,5.6,6.8,8.4c4.6,5.6,9.3,11.1,14.2,16.3c-5.1-5.1-9.9-10.6-14.6-16
			c-2.3-2.8-4.7-5.4-7-8.3c-2.3-2.8-4-6.1-5.1-9.6c-0.6-1.7-0.9-3.6-1.2-5.4l-0.2-2.7c-0.1-0.9,0-1.8,0-2.7
			c0.1-3.7,0.7-7.3,1.4-10.8c1.4-7.1,3.4-14.1,5.1-21.1c1.7-7,3.2-14,3.9-21.1l0.2-2.7l0.1-2.7c0.1-1.8,0-3.6,0-5.3
			c-0.2-3.5-0.5-7.1-1.3-10.5c-0.7-3.5-1.7-6.9-3-10.2c-1.3-3.3-2.8-6.6-4.3-9.8l-1.2-2.4l-0.6-1.2l-0.3-0.6l-0.3-0.7
			c-0.8-1.8-1.3-3.7-1.7-5.5c-0.7-3.7-0.9-7.4-1-11.1c-0.1-7.3,0.3-14.5,0.6-21.7c0.3-7.2,0.4-14.4,0.2-21.5
			c-0.2-7.2-0.7-14.3-1.7-21.3c-1-7-2.5-14.2-3.3-21.5c-1.8-14.4-2.7-28.9-3.4-43.4c-0.5-14.5-0.8-29-0.5-43.5
			c0-1.9,1.6-3.5,3.6-3.4s3.5,1.6,3.4,3.6C238,237.5,238,237.5,238,237.6L238,237.6z"/>
	</g>
	<g>
		<path class="st3" d="M246.6,429.7c0.5,1.8,1.3,3.7,2.2,5.5c0.9,1.8,2,3.5,3.2,5.1c2.4,3.3,5.2,6.2,8.4,8.7
			c0.4,0.3,0.8,0.6,1.2,0.9l1.3,0.8l1.3,0.8l1.3,0.7c1.8,1,3.6,1.9,5.5,2.5c3.8,1.3,7.9,1.6,12,1.5c4.1-0.2,8.1-0.8,12.1-1.7
			c4-0.9,8-2,12.1-2.7c1-0.2,2.1-0.3,3.1-0.3c0.5,0,1.1,0,1.6,0.2c0.5,0.1,1,0.4,1.5,0.7c1.8,1,3.5,2.4,4.5,4.2c1,1.8,1.5,3.9,2,5.9
			c0.4,2,0.8,4,1.2,6.1c-0.4-2-0.8-4-1.3-6c-0.5-2-1-4-2.1-5.8c-1-1.8-2.7-3.1-4.5-4c-0.9-0.6-1.8-0.7-2.8-0.7c-1,0-2,0.2-3,0.4
			c-4,0.8-8,2-12,3c-4,1-8.1,1.7-12.3,2c-4.1,0.2-8.4,0-12.4-1.3c-2-0.6-4-1.5-5.8-2.5l-1.4-0.7l-1.3-0.8l-1.3-0.8
			c-0.4-0.3-0.8-0.6-1.3-0.9c-3.4-2.5-6.4-5.5-8.9-8.8c-1.2-1.7-2.4-3.4-3.4-5.3c-1-1.9-1.9-3.7-2.5-5.9c-0.2-0.5,0.1-1.1,0.7-1.2
			C245.9,428.8,246.5,429.1,246.6,429.7C246.6,429.7,246.6,429.7,246.6,429.7L246.6,429.7z"/>
	</g>
	<g>
		<path class="st3" d="M254.9,466c0.6,0.2,0.9,0.4,1.4,0.6c0.4,0.2,0.8,0.5,1.2,0.8c0.4,0.3,0.7,0.5,1.1,0.8c0.3,0.3,0.7,0.6,1,0.9
			c1.3,1.2,2.4,2.7,3.4,4.1c2,2.9,3.4,6.1,4.7,9.4c1.3,3.2,2.1,6.6,2.9,10c0.4,1.7,0.7,3.4,1,5.1l0.8,5.1l1.5,10.2
			c0.5,3.4,1,6.8,1.7,10.2c0.7,3.3,1.5,6.7,3.2,9.7c1.7,3,4.2,5.4,6.9,7.5c-2.8-2-5.4-4.4-7.1-7.4c-1.8-3-2.7-6.4-3.5-9.7
			c-0.8-3.4-1.3-6.8-1.9-10.1l-1.8-10.1l-1-5.1c-0.4-1.7-0.7-3.3-1.1-5c-0.9-3.3-1.8-6.6-3.1-9.7c-1.3-3.1-2.8-6.2-4.7-8.9
			c-1-1.3-2-2.7-3.2-3.7c-0.3-0.3-0.6-0.5-0.9-0.8c-0.3-0.3-0.6-0.5-1-0.7c-0.6-0.5-1.4-0.9-2-1.1l-0.1,0c-0.5-0.2-0.8-0.8-0.6-1.3
			C253.9,466.1,254.4,465.9,254.9,466L254.9,466z"/>
	</g>
	<path class="st4" d="M266,201.5c0,0-1.5,22.5,2,33.5"/>
	<path class="st4" d="M281.5,263.5c0,0-8.5,23-11.5,43.5s2,44.5,4.5,51"/>
	<path class="st4" d="M284.5,343.5c0,0,3.5,19.5,14.5,37.5s17,7,22,13c1.4,1.6,2.9,3.4,4.4,5.1c4,4.5,7.8,9,7.1,11.9c-1,4,2,9,2,9"
		/>
	<path class="st4" d="M323.8,395.5c0,0,2,4.5,15.3,7.8s13,7,14.5,12.3s-7.5,28-4.8,35.5"/>
	<g>
		<path class="st3" d="M340.1,425.1c0.9,0.7,2,1.4,3,2.1c1,0.7,2,1.5,2.9,2.3c1.9,1.6,3.6,3.4,5.1,5.4c2.9,4,5.1,8.6,5.8,13.5
			c0.7,4.9-0.2,9.9-1.4,14.6c-0.6,2.4-1.2,4.7-1.8,7.1c-0.5,2.4-0.9,4.8-0.7,7.3c-0.2-2.5,0.1-4.9,0.6-7.3c0.5-2.4,1.1-4.8,1.6-7.2
			c1.1-4.7,1.9-9.7,1.1-14.5c-0.8-4.8-3-9.3-6-13.1c-1.5-1.9-3.2-3.7-5-5.2c-0.9-0.8-1.9-1.5-2.9-2.2c-1-0.7-2-1.3-3.1-2.1
			c-0.2-0.2-0.3-0.5-0.1-0.7S339.8,424.9,340.1,425.1C340,425.1,340,425.1,340.1,425.1L340.1,425.1z"/>
	</g>
	<path class="st4" d="M348.5,488.3c0,0-2,5.3,6.5,17s1,23.5-4,27.3"/>
	<path class="st4" d="M336.5,540.3c0,0,7,14.3,0.5,21.8"/>
	<path class="st4" d="M269,236.5"/>
	<g>
		<g>
			<path class="st4" d="M269.9,237.1c0,0,0.2,0.3,0.5,0.9"/>
			<path class="st5" d="M271.4,239.7c2.7,4.8,8.3,15,9.4,20.8"/>
			<path class="st4" d="M281,261.5c0,0.4,0.1,0.7,0,1"/>
		</g>
	</g>
	<g>
		<path class="st3" d="M298.5,230.2c-1.3,8.4-2.3,16.9-2.9,25.4c-0.6,8.5-0.9,17.1-0.7,25.6c0.2,8.5,0.9,17.1,2.6,25.4
			c0.9,4.2,2,8.3,3.5,12.2c1.5,3.9,3.5,7.7,5.8,11.3c4.6,7.1,10.3,13.6,16.1,19.9c5.8,6.3,11.8,12.4,17.6,18.7
			c5.8,6.3,11.4,12.9,16.4,19.9c2.5,3.5,4.8,7.2,6.8,11c2,3.8,3.8,7.8,5.1,11.9c1.4,4.1,2.3,8.3,2.9,12.6c0.6,4.3,1.1,8.5,1.3,12.8
			c0.3,4.3,0.4,8.6,0.3,12.9c-0.1,4.3-0.3,8.6-0.9,12.9c-1,8.5-3,17-6.1,25c-1.6,4-3.5,7.9-5.7,11.6c-2.2,3.7-4.8,7.1-7.6,10.4
			c-2.9,3.2-6,6.2-9.4,8.9c-1.7,1.3-3.4,2.6-5.2,3.7c-0.9,0.6-1.8,1.2-2.7,1.7l-2.8,1.6c-7.5,4.2-15.8,6.9-24,9.1
			c-8.2,2.3-16.5,4.8-24.5,7.8c-4,1.5-8,3.2-11.8,5.2c-1.9,1-3.7,2.1-5.4,3.5c-0.8,0.7-1.6,1.5-2,2.5c-0.2,0.5-0.3,1-0.2,1.6
			c0.1,0.5,0.4,1,0.9,1.3c-0.4-0.3-0.8-0.8-0.9-1.3c-0.1-0.5,0-1.1,0.2-1.6c0.4-1,1.2-1.8,2-2.5c1.6-1.4,3.5-2.5,5.3-3.6
			c3.8-2,7.7-3.7,11.7-5.2c8-3.1,16.2-5.6,24.5-8c2.1-0.6,4.1-1.2,6.2-1.8c1-0.3,2.1-0.6,3.1-1l3-1.1l1.5-0.6l1.5-0.6l2.9-1.3
			c1-0.4,1.9-0.9,2.9-1.4c1-0.5,1.9-0.9,2.8-1.5l2.8-1.6c0.9-0.5,1.8-1.2,2.7-1.7c1.8-1.1,3.5-2.5,5.2-3.7c3.3-2.7,6.4-5.6,9.3-8.8
			c2.8-3.2,5.3-6.7,7.5-10.4c2.2-3.7,4-7.5,5.6-11.5c3.1-8,5-16.4,6-24.8c0.5-4.2,0.7-8.5,0.8-12.8c0.1-4.3-0.1-8.5-0.4-12.8
			c-0.3-4.3-0.8-8.5-1.4-12.7c-0.6-4.2-1.5-8.4-2.9-12.4c-1.4-4-3.1-7.9-5.1-11.7c-2-3.7-4.3-7.3-6.8-10.8
			c-4.9-7-10.5-13.4-16.4-19.7c-5.8-6.3-11.8-12.4-17.7-18.7c-5.8-6.3-11.6-12.7-16.3-20c-2.4-3.6-4.5-7.5-6-11.5
			c-1.6-4-2.7-8.2-3.6-12.5c-1.8-8.5-2.5-17.1-2.8-25.7c-0.3-8.6,0-17.2,0.6-25.8c0.6-8.6,1.5-17.1,2.8-25.6
			c0.1-0.5,0.6-0.9,1.1-0.8C298.2,229.1,298.6,229.6,298.5,230.2L298.5,230.2L298.5,230.2z"/>
	</g>
	<g>
		<path class="st3" d="M297.5,312.9c0.6,7.4,0,14.9-1.7,22.1c-1.7,7.2-4.6,14.1-8.9,20.2c-2.1,3-4.4,6-6.7,8.8
			c-2.3,2.9-4.8,5.6-7,8.5c-2.3,2.9-4.2,6.1-5.6,9.5c-1.4,3.4-2.6,6.9-3.6,10.4c1-3.5,2.1-7.1,3.5-10.5l0.5-1.3l0.6-1.2
			c0.4-0.8,0.8-1.6,1.3-2.5c0.9-1.6,2-3.1,3.1-4.6c2.2-2.9,4.7-5.7,6.9-8.6c2.3-2.9,4.5-5.9,6.6-8.9c4.1-6.1,7-12.9,8.6-20.1
			c1.6-7.1,2.1-14.6,1.4-21.8l0,0c0-0.3,0.2-0.5,0.4-0.5C297.2,312.5,297.5,312.7,297.5,312.9C297.5,312.9,297.5,312.9,297.5,312.9z
			"/>
	</g>
	<g>
		<path class="st3" d="M295.5,337.2c-0.2,0.3-0.4,0.8-0.4,1.3c-0.1,0.5-0.1,1,0,1.6c0.1,1.1,0.5,2.1,0.9,3.1c0.9,2,2.2,3.8,3.4,5.7
			c0.6,0.9,1.2,1.9,1.7,2.9c0.5,1,1,2.1,1.1,3.2c0.2,1.1-0.1,2.3-0.7,3.3c-0.5,1-1.3,1.9-2,2.7c0.7-0.9,1.4-1.8,1.9-2.8
			c0.5-1,0.7-2.1,0.5-3.2c-0.2-1.1-0.7-2.1-1.2-3.1c-0.6-1-1.2-1.9-1.8-2.8c-1.3-1.8-2.7-3.6-3.7-5.7c-0.5-1-0.9-2.1-1.1-3.3
			c-0.1-0.6-0.1-1.2-0.1-1.8c0.1-0.6,0.2-1.2,0.6-1.9c0.2-0.2,0.5-0.3,0.7-0.1C295.7,336.6,295.7,336.9,295.5,337.2
			C295.6,337.1,295.6,337.1,295.5,337.2L295.5,337.2z"/>
	</g>
	<g>
		<path class="st3" d="M187.2,291.4c3.8,5.6,7.1,11.4,10.2,17.3c3.1,5.9,5.9,12,8.2,18.3c2.4,6.3,4.4,12.7,5.7,19.3
			c0.7,3.3,1.2,6.6,1.5,10c0.2,1.7,0.2,3.4,0.3,5c0,1.7,0,3.4-0.1,5.1c-0.1,1.7-0.3,3.4-0.5,5c-0.3,1.7-0.6,3.3-1,4.9
			c-0.7,3.3-1.7,6.5-2.6,9.7c-2,6.4-4.4,12.6-6.8,18.8c-4.9,12.4-10.1,24.6-14.7,37.1c-4.6,12.5-8.6,25.2-10.8,38.3
			c-1.1,6.5-1.7,13.2-1.4,19.8c0.1,3.3,0.4,6.6,1,9.9l0.4,2.4c0.2,0.8,0.4,1.6,0.6,2.4l1.2,4.8c0.2,0.8,0.4,1.6,0.7,2.4l0.7,2.4
			c0.5,1.6,0.9,3.2,1.6,4.7l1.8,4.6l2.1,4.5c3,5.9,7,11.3,11.6,16.1c4.6,4.8,9.9,8.9,14.8,13.4c4.9,4.5,9.4,9.4,13.3,14.8
			c-3.9-5.4-8.5-10.3-13.4-14.7c-4.9-4.5-10.2-8.6-14.9-13.3c-4.7-4.7-8.7-10.2-11.8-16.1l-2.2-4.5l-1.8-4.7
			c-0.7-1.5-1.1-3.2-1.6-4.7l-0.8-2.4c-0.3-0.8-0.5-1.6-0.7-2.4l-1.2-4.9c-0.2-0.8-0.4-1.6-0.6-2.4l-0.5-2.5
			c-0.6-3.3-0.9-6.6-1.1-10c-0.3-6.7,0.3-13.4,1.3-20c2.1-13.2,6.1-26,10.6-38.5c4.5-12.5,9.7-24.8,14.5-37.2
			c2.4-6.2,4.7-12.4,6.7-18.8c0.9-3.2,1.9-6.4,2.5-9.6c0.4-1.6,0.6-3.2,0.9-4.9c0.2-1.6,0.4-3.3,0.5-4.9c0.1-1.6,0.1-3.3,0.1-4.9
			c-0.1-1.6-0.1-3.3-0.3-4.9c-0.3-3.3-0.8-6.5-1.5-9.8c-1.4-6.5-3.4-12.8-5.8-19c-2.4-6.2-5.2-12.2-8.3-18.1
			c-3.1-5.8-6.4-11.6-10.1-17l0,0c-0.3-0.5-0.2-1.1,0.3-1.4C186.2,290.8,186.8,291,187.2,291.4L187.2,291.4z"/>
	</g>
	<g>
		<path class="st3" d="M359,268.8c-0.1,0.1-0.4,0.5-0.5,0.9c-0.2,0.4-0.3,0.9-0.4,1.4c-0.3,1-0.5,1.9-0.6,2.9c-0.4,2-0.6,4-0.8,6.1
			c-0.4,4.1-0.6,8.2-0.7,12.3c-0.2,8.2,0,16.5,0.6,24.7c0.6,8.2,1.5,16.4,3,24.5c1.4,8.1,3.3,16.1,6,23.9c1.3,3.9,2.8,7.7,4.6,11.4
			c1.8,3.7,3.8,7.3,5.6,11.1c3.6,7.5,6.7,15.2,9.5,23c5.5,15.6,9.4,31.9,11.1,48.4c1.7,16.5,1.3,33.2-1.9,49.5
			c-3.2,16.3-9.2,32-18,46c-4.4,7-9.2,13.8-14.5,20.1c-5.3,6.3-11.3,12.1-17.8,17.2c-6.6,5-13.9,9.2-21.7,11.8
			c-3.9,1.3-8,2.2-12.1,2.6c-4.1,0.4-8.3,0.3-12.3-0.6c4,0.9,8.2,0.9,12.3,0.5c4.1-0.4,8.2-1.4,12.1-2.7c7.9-2.6,15.1-6.9,21.6-11.9
			c6.5-5.1,12.4-10.9,17.7-17.2c5.3-6.3,10.1-13.1,14.4-20.1c8.7-14.1,14.6-29.7,17.7-45.9c3.1-16.2,3.4-32.9,1.6-49.3
			c-1.8-16.4-5.8-32.5-11.3-48.1c-2.8-7.8-6-15.4-9.5-22.8c-1.8-3.7-3.8-7.3-5.6-11.1c-1.8-3.8-3.4-7.6-4.7-11.6
			c-2.7-7.9-4.7-16-6.2-24.1c-1.5-8.2-2.5-16.4-3.1-24.7c-0.6-8.3-0.9-16.6-0.7-24.9c0.1-4.2,0.3-8.3,0.7-12.4
			c0.2-2.1,0.4-4.1,0.8-6.2c0.2-1,0.4-2.1,0.7-3.1c0.1-0.5,0.3-1,0.5-1.6c0.2-0.5,0.4-1.1,1.1-1.7c0.4-0.4,1-0.4,1.4,0
			c0.4,0.4,0.4,1,0,1.4C359.1,268.7,359.1,268.7,359,268.8L359,268.8z"/>
	</g>
	<path class="st4" d="M235.3,299.3c0,0-24.7,54.7-23,67.7"/>
	<path class="st4" d="M205.3,393.8c0,0.7-4.3,4.5,3,17c7.3,12.5,41,32.8,44,41.8"/>
	<g>
		<path class="st3" d="M191.8,431.7c-1.8,4.5-2.7,9.5-2.6,14.4c0,2.5,0.4,4.9,1.1,7.3l0.6,1.7c0.2,0.6,0.5,1.1,0.7,1.7
			c0.4,1.1,1.2,2.2,1.8,3.2c1.4,2.1,2.4,4.5,3,6.9c0.6,2.4,0.9,5,1.1,7.5c0.3,5,0,10-0.4,15c-0.3,5-0.8,10-0.6,14.9
			c0.1,2.5,0.5,4.9,1.5,7.2c0.9,2.3,1.7,4.7,2.5,7.1c1.6,4.7,2.9,9.5,4.1,14.4c0.6,2.4,1.1,4.9,1.4,7.3c0.1,0.6,0.2,1.2,0.2,1.9
			c0.1,0.6,0.1,1.2,0.1,1.9l0,0.9c0,0.3,0,0.6-0.1,0.9c0,0.6-0.2,1.2-0.3,1.8c0.1-0.6,0.3-1.2,0.3-1.8c0-0.3,0-0.6,0-0.9l0-0.9
			c0-0.6-0.1-1.2-0.2-1.9c-0.1-0.6-0.1-1.2-0.2-1.9c-0.4-2.5-0.9-4.9-1.5-7.3c-1.2-4.8-2.6-9.6-4.2-14.4c-0.8-2.4-1.6-4.7-2.5-7
			c-1-2.3-1.4-4.8-1.5-7.3c-0.3-5,0.2-10,0.5-15c0.3-5,0.6-10,0.3-14.9c-0.3-4.9-1.3-9.9-4.1-14c-0.6-1.1-1.4-2.1-1.9-3.3
			c-0.3-0.6-0.6-1.1-0.8-1.7l-0.6-1.8c-0.7-2.4-1.1-4.9-1.2-7.5c-0.1-5.1,0.8-10.1,2.6-14.8c0.1-0.3,0.4-0.4,0.6-0.3
			C191.8,431.1,191.9,431.4,191.8,431.7L191.8,431.7L191.8,431.7z"/>
	</g>
	<path class="st4" d="M294.3,272c0,0,5.3,26.7,24,46c18.7,19.3,39,29,44.3,42.3c5.3,13.3-0.3,36.7,4.3,45.7"/>
	<path class="st6" d="M355.3,285.3c0,0-28.7,31.3-15.3,51.3"/>
	<path class="st6" d="M376.3,282.3c0,0-22.3,31.7-18.3,50.7"/>
	<g>
		<path class="st3" d="M393.1,442.1c2.7,4.1,5.1,8.4,7.3,12.8c2.2,4.4,4.1,8.9,5.6,13.6c1.5,4.7,2.7,9.5,3.1,14.4
			c0.4,4.9,0,9.8-0.6,14.7c-0.6,4.9-1.4,9.7-2.3,14.5c-0.9,4.8-2.1,9.6-3.3,14.3c-1.2,4.7-2.6,9.4-4.2,14c-0.4,1.2-0.8,2.3-1.2,3.5
			c-0.4,1.1-0.8,2.3-1.3,3.4l-0.7,1.7c-0.2,0.6-0.5,1.1-0.8,1.7c-0.5,1.1-1.1,2.2-1.7,3.2c0.6-1.1,1.2-2.1,1.7-3.2
			c0.3-0.6,0.5-1.1,0.8-1.7l0.7-1.7c0.5-1.1,0.9-2.3,1.3-3.4c0.4-1.1,0.8-2.3,1.2-3.5c1.5-4.6,2.9-9.3,4.1-14.1
			c1.2-4.7,2.3-9.5,3.2-14.3c0.9-4.8,1.7-9.6,2.2-14.5c0.5-4.8,0.9-9.7,0.5-14.6c-0.5-4.8-1.7-9.6-3.2-14.2
			c-1.6-4.6-3.5-9.1-5.7-13.4c-2.2-4.3-4.6-8.6-7.3-12.6l0,0c-0.2-0.2-0.1-0.5,0.1-0.7C392.6,441.8,392.9,441.8,393.1,442.1
			L393.1,442.1z"/>
	</g>
	<g>
		<path class="st3" d="M396.2,484.3c-0.1,2-0.5,4-0.9,5.9c-0.2,1-0.5,1.9-0.8,2.8c-0.3,0.9-0.6,1.9-0.9,2.8c-1.3,3.7-3,7.3-5,10.6
			c-0.5,0.9-1,1.7-1.5,2.5c-0.5,0.8-1,1.7-1.6,2.5c-1.1,1.6-2.2,3.3-3.4,4.8l-1.8,2.3l-1.9,2.3l-3.7,4.5c-2.5,3-4.6,6.2-6.7,9.6
			c-1.9,3.4-3.7,6.9-5,10.5c-2.7,7.3-4.3,15-4.1,22.9c-0.3-7.8,1.2-15.6,3.9-22.9c1.3-3.7,3.1-7.2,4.9-10.6c2-3.4,4.1-6.6,6.6-9.7
			l3.7-4.6l1.8-2.3l1.7-2.3c1.2-1.5,2.2-3.2,3.3-4.8c0.5-0.8,1-1.7,1.5-2.5c0.5-0.8,1-1.7,1.5-2.5c1.9-3.4,3.5-6.9,4.8-10.6
			c0.3-0.9,0.6-1.8,0.9-2.8c0.2-0.9,0.5-1.9,0.7-2.8c0.4-1.9,0.8-3.8,0.8-5.7l0,0c0-0.3,0.2-0.5,0.5-0.5
			C396,483.8,396.2,484.1,396.2,484.3L396.2,484.3z"/>
	</g>
</g>
<g id="Layer_3">
	<line class="st7" x1="230.3" y1="248.7" x2="144.3" y2="248.7"/>
	<text transform="matrix(1 0 0 1 22.2298 251.8532)" class="st8 st9">Testicular artery</text>
	<text transform="matrix(1 0 0 1 120.4432 157.8532)" class="st10 st11">Arterial supply of scrotal structures</text>
	<text transform="matrix(1 0 0 1 26.4958 298.5199)"><tspan x="0" y="0" class="st8 st9">Anterior scrotal</tspan><tspan x="71.6" y="21.6" class="st8 st9">artery</tspan></text>
	<line class="st7" x1="265" y1="207.3" x2="456.3" y2="207.3"/>
	<line class="st7" x1="295.7" y1="242.7" x2="455" y2="242.7"/>
	<line class="st7" x1="355" y1="274" x2="453.7" y2="274"/>
	<line class="st7" x1="193" y1="304.7" x2="151.7" y2="304.7"/>
	<text transform="matrix(1 0 0 1 460.0005 200.8532)"><tspan x="0" y="0" class="st8 st9">Artery of ductus </tspan><tspan x="0" y="21.6" class="st8 st9">deferens</tspan></text>
	<text transform="matrix(1 0 0 1 460.0005 248.8532)" class="st8 st9">Cremateric artery</text>
	<text transform="matrix(1 0 0 1 460.0001 280.1865)"><tspan x="0" y="0" class="st8 st9">Posterior</tspan><tspan x="0" y="21.6" class="st8 st9">scrotal artery</tspan></text>
</g>
</svg>
