<?xml version="1.0" encoding="utf-8"?>
<!-- Generator: Adobe Illustrator 19.2.1, SVG Export Plug-In . SVG Version: 6.00 Build 0)  -->
<svg version="1.1" id="Layer_1" xmlns="http://www.w3.org/2000/svg" xmlns:xlink="http://www.w3.org/1999/xlink" x="0px" y="0px"
	 viewBox="0 0 913 405" enable-background="new 0 0 913 405" xml:space="preserve">
<g id="Layer_1_1_">
	<path fill="none" stroke="#000000" stroke-miterlimit="10" d="M544.3,195.3c0.9,39.7-15.8,62.7-31.3,81.2c-21,25-44,20-83.3,27.2
		c-30.5,5.6-49.2-19-75.7-37.2c-24-16.5-38.8-40.7-38.8-71.2c0-28.9,6.1-64.3,31.5-74.6c7.5-3.1,49.9-37.9,83.1-40.6
		c22.8-1.8,44.3,13.2,62.2,24.1C523.5,123.5,542.8,126.7,544.3,195.3z"/>
	<path fill="none" stroke="#000000" stroke-miterlimit="10" d="M535.6,194.6c0.8,36.9-14.7,58.2-29.1,75.4
		c-19.5,23.2-40.8,18.6-77.2,25.2c-28.3,5.2-45.7-17.6-70.3-34.5c-22.3-15.3-36-37.8-36-66.1c0-26.8,5.7-59.7,29.2-69.2
		c7-2.8,46.3-35.2,77.1-37.7c21.2-1.7,41.1,12.2,57.7,22.4C516.2,128,534.2,131,535.6,194.6z"/>
	<path fill="none" stroke="#000000" stroke-miterlimit="10" d="M529.2,194.9c0.8,34.5-13.7,54.5-27.2,70.5
		c-18.2,21.7-38.2,17.4-72.3,23.6c-26.5,4.9-42.7-16.5-65.8-32.3c-20.8-14.3-33.7-35.4-33.7-61.8c0-25.1,5.3-55.9,27.3-64.8
		c6.5-2.7,43.3-32.9,72.2-35.3c19.8-1.6,38.4,11.4,54,21C511.1,132.5,527.9,135.4,529.2,194.9z"/>
	<path fill="#D1D3D4" stroke="#000000" stroke-width="0.5" stroke-miterlimit="10" d="M436.3,282.6c-27.6,0-50-20.6-50-45.8
		c0-12.6,5.7-24.8,15.7-33.4c10.2-8.8,21.8-8,29.4-7.4c1.8,0.1,3.4,0.3,4.9,0.3c34.5,0,50,20.3,50,40.5c0,17.9-13.2,26.5-20.3,31.1
		c-0.8,0.5-1.6,1-2.4,1.6c-0.5,0.3-1.5,1.3-2.4,2C456.9,275.4,448.7,282.6,436.3,282.6z M425.9,234.7c-0.4,0.6-0.6,1.3-0.6,2
		c0,2.8,3.7,5.9,8.8,6.7c0.4-0.4,0.9-0.8,1.3-1.1c1.7-1.5,3.8-3.4,6.4-5.1c0.6-0.4,1.3-0.8,1.9-1.2c-1.8-0.4-4.2-0.7-7.3-0.7
		c-2.9,0-5.5-0.2-7.8-0.4C427.7,234.8,426.8,234.8,425.9,234.7z"/>
	<path fill="none" stroke="#ED1C24" stroke-width="4" stroke-miterlimit="10" d="M432.7,149.5c0.3-5.3-2-14.7-9.2-11.9
		c-4.1,1.6-8.8,7.1-10.3,11.2c-1,2.9-0.4,6.7,2.3,8.3c1.7,1,3.7,0.9,5.6,0.8c4-0.2,8.6-0.8,10.5-4.2
		C432.4,152.4,432.7,151,432.7,149.5z"/>
	<path fill="none" stroke="#1C75BC" stroke-miterlimit="10" d="M433.6,136.7c0.1,1.1-0.3,2.1-0.4,3.1c0,0.6,0.1,1.4,0.2,2
		c0.3,2.3,1.7,4.4,3.7,5.7c0.1,0.1,0.3,0.2,0.4,0.1c0.2,0,0.3-0.1,0.4-0.3c1.5-1.8,2.2-4.3,1.7-6.5c-0.5-2.3-2.1-4.3-4.2-5.3
		c-0.6-0.3-1.4-0.4-1.7,0.2C433.5,136,433.6,136.3,433.6,136.7z"/>
	<path fill="none" stroke="#1C75BC" stroke-miterlimit="10" d="M416.3,138.3c0.6-0.1,1.3-0.2,1.9-0.5c2-0.7,3.4-2.7,5.5-2.9
		c0.8-0.1,1.7,0,2.5,0.1c0.8,0,1.7-0.1,2.3-0.7c0.1-0.1,0.3-0.3,0.2-0.5c0-0.1-0.1-0.3-0.3-0.4c-0.8-0.7-1.8-1.4-2.8-1.4
		c-0.5,0-0.9,0.3-1.4,0.5c-1.6,0.7-3.1,1.5-4.7,2.2c-1.4,0.7-2.9,1.4-3.8,2.7c-0.1,0.1-0.2,0.3-0.1,0.4c0.1,0.3,0.5,0.2,0.8,0.2"/>
	<path fill="none" stroke="#1C75BC" stroke-miterlimit="10" d="M411.3,142.5c-0.9,0.7-1.6,1.6-2.2,2.5c-0.7,0.9-1.3,1.8-1.5,2.9
		c-0.1,1.1,0.3,2.2,0.8,3.1c0.1,0.2,0.2,0.3,0.4,0.3c0.1,0,0.2-0.1,0.3-0.1c0.5-0.3,1-0.6,1.3-1.1c0.2-0.4,0.2-0.8,0.3-1.2
		c0.1-0.4,0.4-0.7,0.7-1.1c1-1.4,1.6-3.1,2.1-4.8c0.1-0.5,0.3-1.1-0.1-1.4c-0.4-0.4-1.1-0.2-1.6,0.2c-0.4,0.4-0.7,0.9-1.2,1.3"/>
	<path fill="none" stroke="#1C75BC" stroke-miterlimit="10" d="M410.3,154.3c2.2,2.4,3.8,5.3,6.4,7.2c0.6,0.4,1.3,1,1.3,1.7
		c0,0.6-0.7,1-1.3,1.1c-0.6,0-1.2-0.3-1.7-0.6s-1-0.7-1.5-1c-0.5-0.2-1-0.3-1.4-0.6c-0.6-0.3-1.1-0.8-1.6-1.3
		c-1.5-1.7-2.6-3.7-3.6-5.6c-0.2-0.4-0.5-0.9-0.5-1.4c0-0.6,0.2-1.1,0.5-1.6c0.1-0.3,0.3-0.5,0.5-0.6c0.3-0.1,0.5,0.1,0.8,0.2
		c0.3,0.2,0.6,0.3,0.8,0.5c0.2,0.1,0.4,0.2,0.5,0.4c0.2,0.2,0.3,0.4,0.4,0.6c0.2,0.5,0.5,1.1,0.7,1.6"/>
	<path fill="none" stroke="#1C75BC" stroke-miterlimit="10" d="M430.2,160.2c0.6-0.2,1.2-0.4,1.6-0.8c0.4-0.4,0.7-1,1-1.4
		c0.4-0.6,1-1.1,1.6-1.6c0.5-0.5,1-1.2,1.1-1.9c0-0.4-0.1-0.9,0.1-1.3c0.1-0.3,0.4-0.6,0.6-0.8s0.4-0.4,0.7-0.4
		c0.2,0,0.4,0.2,0.5,0.4c0.4,0.5,0.8,1.1,0.7,1.7c-0.1,0.6-0.6,1.1-1,1.5c-2.7,2.4-5.4,4.8-8.1,7.3c-0.4,0.3-0.7,0.7-1.2,0.9
		c-0.4,0.2-0.9,0.3-1.3,0.4c-0.8,0.1-1.6,0.3-2.4,0.2c-0.6-0.1-1.1-0.2-1.7-0.4c-0.5-0.1-0.9-0.3-1.2-0.7c-0.3-0.5-0.1-1.3,0.5-1.5
		c0.5-0.2,1,0.2,1.6,0.3c0.7,0,1.4-0.3,2-0.4C427,161.1,428.6,160.7,430.2,160.2z"/>
	<path fill="none" stroke="#000000" stroke-miterlimit="10" d="M426.4,185.9c5.8-0.8,11.9,0.6,17.7-0.6c2.9-0.6,5.6-1.8,8.4-2.3
		c3.8-0.7,8-0.4,11.2-2.5c0.4-0.3,0.8-0.6,1-1c0.4-1.1-0.7-2.2-1.8-2.8c-2.4-1.3-5-2.1-7.6-2.5c-0.9-0.1-1.7-0.2-2.6,0
		c-1.7,0.3-3.1,1.6-4.5,2.6c-6.1,4.1-14.2,3.6-21.6,2.9c-6.7-0.6-13.4-1.3-20-2.7c-2.1-0.4-4.2-1-6.2-0.4c-1.1,0.3-3.1,1.4-3.2,2.7
		c-0.1,1.4,1.7,3.1,2.6,4c2.7,2.6,5.9,4.6,9.4,5.7c1,0.3,1.9,0.6,2.9,0.5c0.7-0.1,1.5-0.3,2.2-0.6
		C418,187.5,422.3,186.7,426.4,185.9z"/>
	<path fill="none" stroke="#1C75BC" stroke-miterlimit="10" d="M385.7,217.2c3.3-3,6.5-6,9.8-9c2-1.8,4.1-3.9,4.4-6.6
		c-2,0.3-3.7,1.6-5.3,3c-3.3,2.7-6.6,5.5-10,8.2c-0.7,0.5-1.3,1.1-1.7,1.9c-0.4,0.8-0.4,1.8,0.2,2.4c0.5,0.5,1.3,0.6,2,0.3
		c0.6-0.3,1.1-0.9,1.3-1.6"/>
	<path fill="none" stroke="#1C75BC" stroke-miterlimit="10" d="M426.7,192.6c1.5,1.6,3.7,2.5,5.9,2.3c1.4-0.1,2.7-0.7,4.1-0.9
		c0.8-0.1,1.6-0.1,2.5-0.1c1.2,0,2.5,0,3.7,0.5c0.4,0.2,0.9,0.4,1.3,0.2c0.5-0.2,0.6-0.9,0.3-1.3c-0.2-0.5-0.7-0.7-1.1-1
		c-1.7-1-3.4-2-5.4-2.4c-0.8-0.1-1.7-0.2-2.6-0.2c-2.2,0-4.4,0.1-6.6,0.2c-0.6,0-1.2,0.1-1.6,0.5s-0.3,1.1-0.1,1.7
		c0.3,0.5,0.8,0.9,1.2,1.3"/>
	<path fill="none" stroke="#1C75BC" stroke-miterlimit="10" d="M456.1,195.4c3.3,2,6.5,4.2,9.3,6.8c0.6,0.6,1.3,1.2,2,1.7
		c1.9,1.2,4.2,1.5,6,2.9c0.4-0.3,0-0.8-0.3-1.1c-2-1.6-4.1-3.3-6.1-4.9c-2.1-1.7-4.1-3.3-6.2-5c-0.8-0.6-1.5-1.2-2.3-1.8
		c-0.7-0.5-1.8-1-2.4-0.3c-0.5,0.7,0.1,1.6,0.7,2.2"/>
	<path fill="none" stroke="#1C75BC" stroke-miterlimit="10" d="M486.7,219.9c-0.5,0.7-1,1.4-1.2,2.3c-0.2,0.8-0.1,1.8,0.4,2.4
		c0.5,0.6,1.2,0.9,1.9,1.2c0.6,0.2,1.5,0.4,1.9-0.2c0.3-0.5,0-1.1-0.3-1.6c-0.4-0.9-0.6-1.9-1.1-2.8c-0.4-0.9-1.2-1.7-2.2-1.8"/>
	<path fill="none" stroke="#1C75BC" stroke-miterlimit="10" d="M487.3,244.1c-1.7,1.8-2.7,4.2-3,6.7c-0.1,0.7,0.1,1.6,0.7,1.7
		c0.3,0.1,0.6-0.1,0.8-0.2c0.8-0.6,1.1-1.6,1.1-2.6c0.1-1-0.1-2,0.2-2.9c0.2-0.8,0.6-1.5,0.4-2.3c-0.3,0-0.5,0-0.8,0"/>
	<path fill="none" stroke="#1C75BC" stroke-miterlimit="10" d="M471.1,266.4c-1.6,0.9-2.9,0.4-3.6,2.3c-0.3,0.8,0,1.2-0.6,1.9
		c-0.6,0.7-2.3,1.1-3.2,1.4c-1.2,0.5-2.7,1.5-3.5,2.5c-0.7,0.9-1,2.2-0.7,3.3c0,0.2,0.1,0.3,0.2,0.5s0.4,0.2,0.6,0.3
		c1,0.2,2-0.1,2.8-0.7s1.5-1.3,2.2-2c1.4-1.4,3.1-2.7,5-3.6c2.5-1.3,5.5-2.1,7-4.5c0.3-0.5,0.5-1,0.4-1.6c-0.3-1.2-1.9-1.4-3.1-1.3
		c-0.7,0-1.5,0.1-2.1,0.4C472,265.6,471.6,266.1,471.1,266.4z"/>
	<path fill="none" stroke="#1C75BC" stroke-miterlimit="10" d="M397.3,271.8c-0.2,1.2,0.7,2.2,1.7,3c1.1,0.8,2.2,1.6,3.5,2.1
		c0.5,0.2,1.1,0.4,1.5,0.1s0.5-0.9,0.4-1.4c-0.2-0.5-0.5-0.9-0.9-1.3c-0.9-1-1.8-1.9-2.7-2.9c-0.4-0.4-0.9-0.9-1.4-1.2
		c-0.6-0.2-1.3-0.2-1.7,0.2c-0.7,0.7-0.3,1.9,0.2,2.8"/>
	<path fill="none" stroke="#1C75BC" stroke-miterlimit="10" d="M381.7,226.3c-2.1,2.4-1.2,4.7-1.2,7.5s-0.9,5.5-0.9,8.2
		c0,3.1,0.5,6.3,2.4,8.8c1.3,1.7,3.3,3.1,3.7,5.2c0.4,1.8-0.6,3.9,0.4,5.5c0.8,1.2,2.7,1.6,3.8,0.7c1.1-0.9,1.3-2.8,0.3-3.9
		c-0.4-0.4-1-0.7-1.3-1.2c-0.7-1-0.3-2.2-0.4-3.4c-0.2-2.5-2.8-4.2-3.3-6.6c-0.5-2.3,1-4.7,0.5-7.1c-0.3-1.4-1.1-2.5-1.5-3.9
		c-1-3.6,1.8-7,2.2-10.7C385.1,224.4,382.8,225,381.7,226.3z"/>
	<path fill="#F26522" stroke="#ED1C24" stroke-miterlimit="10" d="M347.7,221.3c-0.2,1.6,0,3.4,0.9,4.8c0.9,1.4,2.6,2.3,4.2,2
		s3-2,2.6-3.6c-0.3-1.1-1.2-1.9-2.1-2.5c-1.1-0.7-2.3-1.3-3.6-1.7c-0.3-0.1-0.7-0.2-1-0.1c-1.1,0.5-0.2,2.7-1.3,3.2"/>
	<path fill="none" stroke="#1C75BC" stroke-miterlimit="10" d="M337.9,215c-0.4,1.8-1.1,3.7-0.7,5.5c0.2,1,0.6,1.9,1.3,2.6
		c0.3,0.3,0.6,0.6,1,0.7c0.9,0.3,1.9-0.2,2.5-0.9c0.6-0.8,0.7-1.7,0.8-2.7c0-0.9,0-1.9,0.1-2.8c0.2-1.1,0.6-2.4,0-3.3
		c-0.2-0.4-0.6-0.6-0.9-0.9c-0.6-0.6-1.2-1.4-2.1-1.5c-0.8-0.1-1.6,0.4-2,1.1s-0.6,1.5-0.6,2.3c-0.1,1.1-0.1,2.1,0,3.2"/>
	<path fill="#FFF200" stroke="#FFF200" stroke-miterlimit="10" d="M343.9,227.8c-0.5,1.1-0.3,2.4,0.4,3.4c0.7,1,1.7,1.7,2.6,2.4
		c0.7-1,0.9-2.3,0.5-3.5c-0.4-1.1-1.4-2.1-2.5-2.4c-0.2-0.1-0.5-0.1-0.7,0c-0.2,0.2-0.3,0.5-0.3,0.8"/>
	<path fill="#FFF200" stroke="#FFF200" stroke-miterlimit="10" d="M311.8,230.4c-0.1-2.9-2.3-5.4-4.9-6.8s-4.4-4.7-8.4-2.1
		c-5.4,6,0.8,6,3,8s5.3,2.9,8.2,2.3c0.6-0.1,1.3-0.4,1.5-0.9c0.3-0.6,0-1.4-0.3-2"/>
	<path fill="#F26522" stroke="#ED1C24" stroke-miterlimit="10" d="M408.5,279.7c-0.2,1.6,0,3.4,0.9,4.8s2.6,2.3,4.2,2s3-2,2.6-3.6
		c-0.3-1.1-1.2-1.9-2.1-2.5c-1.1-0.7-2.3-1.3-3.6-1.7c-0.3-0.1-0.7-0.2-1-0.1c-1.1,0.5-0.2,2.7-1.3,3.2"/>
	<path fill="#00AEEF" stroke="#FFF200" stroke-miterlimit="10" d="M349.6,164.5c-0.5,1.1-0.3,2.4,0.4,3.4c0.7,1,1.7,1.7,2.6,2.4
		c0.7-1,0.9-2.3,0.5-3.5c-0.4-1.1-1.4-2.1-2.5-2.4c-0.2-0.1-0.5-0.1-0.7,0c-0.2,0.2-0.3,0.5-0.3,0.8"/>
</g>
<g id="Layer_2">
	<g>
		<line fill="none" stroke="#000000" stroke-miterlimit="10" x1="491.3" y1="103.8" x2="592" y2="62"/>
		<line fill="none" stroke="#000000" stroke-miterlimit="10" x1="499.9" y1="117.7" x2="593" y2="117.3"/>
		<line fill="none" stroke="#000000" stroke-miterlimit="10" x1="519" y1="143.4" x2="589" y2="167.5"/>
		<line fill="none" stroke="#000000" stroke-miterlimit="10" x1="462.9" y1="176.7" x2="587" y2="225"/>
		<line fill="none" stroke="#000000" stroke-miterlimit="10" x1="489.5" y1="224" x2="587.7" y2="282.3"/>
		<line fill="none" stroke="#000000" stroke-miterlimit="10" x1="457.5" y1="244.1" x2="577.5" y2="320.5"/>
		<line fill="none" stroke="#000000" stroke-miterlimit="10" x1="338.5" y1="223.1" x2="276.5" y2="319"/>
		<line fill="none" stroke="#000000" stroke-miterlimit="10" x1="348.6" y1="226.1" x2="302.5" y2="278.7"/>
		<line fill="none" stroke="#000000" stroke-miterlimit="10" x1="296.4" y1="225" x2="224.8" y2="236.8"/>
		<line fill="none" stroke="#000000" stroke-miterlimit="10" x1="418" y1="141.5" x2="255.5" y2="141.4"/>
	</g>
	<text transform="matrix(1 0 0 1 601.9992 345.7286)" font-family="'CenturyGothic'" font-size="20px">Vas deferens with </text>
	<text transform="matrix(1 0 0 1 601.9992 369.7286)" font-family="'CenturyGothic'" font-size="20px">autonomic nerves around it</text>
	<line fill="none" stroke="#000000" stroke-miterlimit="10" x1="350.1" y1="167.9" x2="232.3" y2="191.7"/>
	<line fill="none" stroke="#000000" stroke-miterlimit="10" x1="409.5" y1="284.4" x2="330.3" y2="358"/>
	<text transform="matrix(1 0 0 1 239.9992 380.3953)" font-family="'CenturyGothic'" font-size="20px">Artery of vas deferens</text>
	<text transform="matrix(1 0 0 1 39.9992 331.3953)" font-family="'CenturyGothic'" font-size="20px">Cremastric nerve and vessels</text>
	<text transform="matrix(1 0 0 1 51.9992 243.4126)" font-family="'CenturyGothic'" font-size="20px">Ilioinguinal nerve</text>
	<text transform="matrix(1 0 0 1 57.3326 132.0937)" font-family="'CenturyGothic'" font-size="20px">Testicular artery and</text>
	<text transform="matrix(1 0 0 1 57.3326 156.0937)" font-family="'CenturyGothic'" font-size="20px">Pampiniform plexus</text>
	<text transform="matrix(1 0 0 1 115.101 195.6693)" font-family="'CenturyGothic'" font-size="20px">Lymphatics</text>
	<text transform="matrix(1 0 0 1 173.1257 55.4802)" fill="#00A651" font-family="'CenturyGothic'" font-size="40px">Spermatic cord</text>
</g>
<g id="Layer_3">
	<text transform="matrix(1 0 0 1 602 63.7197)" font-family="'CenturyGothic'" font-size="20px">External spermatic fascia</text>
	<text transform="matrix(1 0 0 1 602.0004 120.3061)" font-family="'CenturyGothic'" font-size="20px">Cremasteric fascia</text>
	<text transform="matrix(1 0 0 1 602.0004 175.2694)" font-family="'CenturyGothic'" font-size="20px">Internal spermatic fascia</text>
	<text transform="matrix(1 0 0 1 626.6667 79.8454)" fill="#4150A3" font-family="'CenturyGothic'" font-size="12px">From external oblique aponeurosis</text>
	<text transform="matrix(1 0 0 1 626.6663 138.3086)" fill="#4150A3" font-family="'CenturyGothic'" font-size="12px">From internal oblique aponeurosis</text>
	<text transform="matrix(1 0 0 1 626.667 191.7353)" fill="#4150A3" font-family="'CenturyGothic'" font-size="12px">From transversus abdmominis aponeurosis</text>
	<text transform="matrix(1 0 0 1 602.0001 239.1196)" font-family="'CenturyGothic'" font-size="20px">Remnant of prosessus vaginalis</text>
	<text transform="matrix(1 0 0 1 631.3336 257.8915)" fill="#4150A3" font-family="'CenturyGothic'" font-size="12px">Perotineal extension to scrotal sac</text>
	<text transform="matrix(1 0 0 1 601.9995 289.7043)" font-family="'CenturyGothic'" font-size="20px">Pampiniform plexus around</text>
	<text transform="matrix(1 0 0 1 601.9995 313.7043)" font-family="'CenturyGothic'" font-size="20px">Vas deferens</text>
</g>
</svg>
