<?xml version="1.0" encoding="utf-8"?>
<!-- Generator: Adobe Illustrator 21.0.0, SVG Export Plug-In . SVG Version: 6.00 Build 0)  -->
<svg version="1.1" xmlns="http://www.w3.org/2000/svg" xmlns:xlink="http://www.w3.org/1999/xlink" x="0px" y="0px"
	 viewBox="0 0 841.9 595.3" style="enable-background:new 0 0 841.9 595.3;" xml:space="preserve">
<style type="text/css">
	.st0{fill:none;stroke:#000000;stroke-width:2;stroke-linecap:round;stroke-linejoin:round;}
	.st1{fill:none;stroke:#000000;stroke-width:2;stroke-miterlimit:10;}
	.st2{font-family:'CenturyGothic';}
	.st3{font-size:23px;}
	.st4{fill:#2E3192;}
	.st5{font-size:18px;}
	.st6{fill:#BE1E2D;}
	.st7{font-size:32px;}
	.st8{fill:url(#SVGID_1_);}
	.st9{fill:url(#SVGID_2_);}
	.st10{fill:url(#SVGID_3_);}
	.st11{fill:none;stroke:#FFF200;stroke-width:0.75;stroke-miterlimit:10;}
	.st12{fill:none;stroke:#00A651;stroke-miterlimit:10;}
</style>
<g id="Layer_1">
	<path class="st0" d="M367.5,175c0,0-17,56.8-5,122.6"/>
	<path class="st0" d="M306,357c2.5,3,18-1,21.2-3.5s15.3-12,15.8-5.5s-5.5,19.5-3.5,24.5s28.5-5,28,2s-18.6,27-9.3,35.5
		c9.3,8.5,26.8-11,29.3,0"/>
	<path class="st0" d="M370,320c0,0-2.8-2.7-27.3,9.3s-27,13-32,18s-7.2,6.7-4.7,9.7"/>
	<path class="st0" d="M410,410c-25.5-38.3-40-90-40-90"/>
	<path class="st0" d="M294.5,344.8c-3.2-1.2-2.2-11.4-2.5-22.3c-0.5-19.5,34.5-31,43-42s-29.5-2.5-21.5-15s28.5-13.5,10.6-21
		C306.2,237,292.5,226,325,215s-26.5-14.5-14-16s28-27.5,28-27.5"/>
	<path class="st0" d="M362.5,297.6c0,0-2.2,1.5-7.8,5.7C334,319,339.8,315.2,315.5,330c-14.6,8.9-18.6,15.8-21,14.8"/>
	<path class="st0" d="M386.5,182.5c0,0-26.8,99.8-23.6,114"/>
	<path class="st0" d="M328.5,330c0.9,0.4,41.1-21.6,43.3-21.5c8.5,0.5,103.3-39.5,113.5-46"/>
	<path class="st0" d="M412.8,184c0,0-30.3,105.8-39,113.6c-6.6,5.9-47.9,31.1-45.3,32.4"/>
	<path class="st0" d="M499.3,275.3c0,0-105.8,55.3-129.5,43.5"/>
	<line class="st0" x1="339" y1="171.5" x2="367.5" y2="175"/>
	<line class="st0" x1="387.5" y1="410" x2="410" y2="410"/>
</g>
<g id="Layer_2">
	<line class="st1" x1="394" y1="213.5" x2="477.5" y2="178.5"/>
	<line class="st1" x1="454.5" y1="285.5" x2="526" y2="312"/>
	<text transform="matrix(1 0 0 1 479 182.5)" class="st2 st3">Commom bile duct</text>
	<text transform="matrix(1 0 0 1 461.3333 333.1664)" class="st2 st3">Pancreatic duct</text>
	<text transform="matrix(1 0 0 1 58.5443 206.4998)"><tspan x="0" y="0" class="st4 st2 st5">1. Superior choledochal</tspan><tspan x="62.9" y="21.6" class="st4 st2 st5">Sphincter</tspan></text>
	<text transform="matrix(1 0 0 1 96.3333 447.3333)" class="st6 st2 st7">Four components of sphincter of Boyden</text>
	<text transform="matrix(1 0 0 1 64.2885 263.3315)"><tspan x="0" y="0" class="st4 st2 st5">2. Inferior choledochal</tspan><tspan x="57.1" y="21.6" class="st4 st2 st5">Sphincter</tspan></text>
	<text transform="matrix(1 0 0 1 67.1403 330.9636)" class="st4 st2 st5">3. Sphincter ampullae</text>
	<text transform="matrix(1 0 0 1 61.6019 387.7947)" class="st4 st2 st5">4. Pancreatic sphincter</text>
</g>
<g id="Layer_3">
	<linearGradient id="SVGID_1_" gradientUnits="userSpaceOnUse" x1="348.6113" y1="306.7488" x2="360.0676" y2="306.7488">
		<stop  offset="0" style="stop-color:#FFFFFF"/>
		<stop  offset="1" style="stop-color:#39B54A;stop-opacity:0.4"/>
	</linearGradient>
	<path class="st8" d="M353.1,313.5c-0.1,0-0.1,0.1-0.1,0.1c0,0,0,0.1,0.1,0.1c0.1,0.1,0.3,0.3,0.5,0.3c0.2,0,0.3-0.1,0.4-0.2
		c0.4-0.3,0.9-0.3,1.4-0.4c0.2,0,0.4-0.1,0.5-0.2c0.6-0.2,1-0.8,1.5-1.1c0.2-0.1,0.4-0.2,0.5-0.3c0.5-0.3,0.8-0.9,1-1.4
		c0.3-0.6,0.6-1.2,0.8-1.8c0.1-0.3,0.1-0.5,0.2-0.8c0.1-0.3,0.1-0.5,0.1-0.8c0-0.1,0.1-0.5,0.1-1c0-0.3,0-0.5-0.1-0.9
		c0-0.2,0-0.3-0.1-0.5c0-0.2-0.1-0.4-0.2-0.5c-0.2-0.7-0.7-1.6-1.3-2.2c-0.6-0.6-1.3-1.1-2.2-1.5c-0.9-0.4-1.8-0.4-2.7-0.8
		c-0.2-0.1-0.3-0.1-0.5-0.2c-0.3,0-0.6,0.1-0.9,0.2c-1,0.4-2,0.9-3,1.5c-0.3,0.2-0.5,0.3-0.6,0.6c-0.2,0.4,0.1,0.9,0.4,1.1"/>
	<g>
		<g>
			<path d="M351.3,312.2c0.3-0.5,0.2-1,0.4-1.5c0.1-0.5,0.3-0.9,0.5-1.4c0.3-1,0.4-0.9,0.4-1.2c0,0,0-0.2,0-0.4
				c0-0.2-0.3-0.4-0.5-0.4c-0.1,0-0.3,0-0.4,0.1c-0.1,0-0.2,0.1-0.4,0.2c-0.6,0.3-1,0.6-0.8,0.7c0,0.1,1-0.4,1-0.3
				c0.2,0,0.2,0.1,0.3,0.1c0.1,0.1,0.1,0.1,0.1,0.2c0,0.1-0.1,0.1-0.1,0.1c0,0,0.1,0,0.1,0c0,0,0,0,0.1,0c0,0,0,0.2,0,0.2l0,0.1
				c0,0,0,0.1,0,0.2l-0.1,0.5c0,0.4-0.2,0.7-0.2,1.1C351.5,311.2,351.5,311.7,351.3,312.2C351.3,312.2,351.3,312.2,351.3,312.2
				C351.3,312.2,351.3,312.2,351.3,312.2z"/>
			<path d="M352.3,312.5c0.1-0.2,0.1-0.4,0.2-0.6c0.3-0.8,1-1.2,1.3-1.9c0.2-0.4,0.2-0.8,0.4-1.2c0.1-0.4,0.2-0.9,0.2-1.3
				c0-0.1,0-0.5-0.1-1.1c-0.1-0.3-0.3-0.6-0.6-0.7c-0.9-0.4-2.2,0.3-3,0.7c-0.3,0.2-0.6,0.4-0.7,0.7c-0.1,0.3,0.1,0.6,0.2,0.9
				c0.3-0.4,0.5-0.7,0.8-1c0.5-0.5,1.1-0.7,1.8-0.5c0.4,0.1,0.6,0.4,0.7,0.7c0.1,0.3,0.1,0.5,0.1,0.6c0.1,0.2,0.1,0.4,0.1,0.6l0,0.3
				c0,0.1,0,0.3,0,0.4c0,0.6-0.2,1.2-0.5,1.8c-0.1,0.3-0.3,0.5-0.4,0.8c-0.2,0.4-0.4,0.8-0.8,1.1C352,312.7,352.2,312.6,352.3,312.5
				C352.3,312.5,352.3,312.5,352.3,312.5z"/>
			<path d="M353.6,312.5c0.3-0.3,0.7-0.6,1-0.9c0.7-0.6,0.8-1.3,1.1-2.2c0.3-0.9,0.5-1.8,0.4-2.7c0-0.1,0-0.8-0.3-1.7
				c-0.2-0.4-0.6-0.9-1.1-1.1c-1.6-0.8-2.9,0-4.1,1c-0.3,0.2-0.6,0.4-0.9,0.6c-0.1,0.1-0.3,0.2-0.3,0.4c0,0.2,0.1,0.4,0.2,0.6
				c0.1,0.1,0.2,0.3,0.4,0.3c0.1,0,0.2-0.1,0.3-0.3c0.4-0.6,0.9-1.1,1.5-1.6c0.6-0.5,1.2-0.5,1.9-0.4c0.4,0.1,0.7,0.2,1,0.5
				c0.3,0.3,0.4,0.6,0.5,0.8c0.2,0.6,0.2,1.1,0.2,1.3c0.1,1.2,0.1,2.5-0.4,3.6c-0.5,1-1.3,1.8-2.3,2.2c-0.1,0.1-0.3,0.2-0.2,0.3
				c0,0,0.1,0.1,0.1,0.1c0.2,0.1,0.4,0,0.5-0.1c0.1-0.1,0.3-0.2,0.4-0.4C353.5,312.7,353.6,312.6,353.6,312.5z"/>
			<path d="M355.2,312.6c0.4-0.3,0.8-0.6,1.1-0.9c0.4-0.4,0.8-1,1-1.5c0.2-0.6,0.4-1.1,0.5-1.7c0.1-0.4,0.2-0.8,0.2-1.3
				c0-0.2,0-0.4,0-0.6c0-0.2,0-0.4-0.1-0.6c0-0.1,0-0.4-0.1-0.8c0-0.2-0.1-0.4-0.2-0.7c-0.1-0.3-0.2-0.5-0.4-0.8
				c-0.4-0.7-0.9-1.2-1.6-1.5c-0.7-0.4-1.6-0.3-2.4-0.5c-0.2,0-0.3,0-0.5,0c-0.3,0.1-0.5,0.3-0.7,0.5c-0.6,0.7-1.4,1.2-2.2,1.7
				c-0.3,0.2-0.6,0.3-0.7,0.5c-0.2,0.2-0.2,0.6,0,0.9c1.2-0.7,2.4-1.4,3.7-2c0.5-0.2,1.3-0.7,1.8-0.7c0.4,0,1.1,0.4,1.3,0.7
				c0.4,0.3,0.6,0.7,0.8,1.1c0.3,0.8,0.4,1.4,0.4,1.7c0.1,0.5,0.1,1.1,0.1,1.7c0,0.5,0,1.1-0.1,1.6c-0.1,0.4-0.4,0.8-0.6,1.2
				c-0.5,0.8-1.2,1.4-2,1.9c-0.4,0.2-0.7,0.4-0.9,0.8c0.1,0.1,0.3,0.1,0.5,0.1c0.1,0,0.3-0.1,0.4-0.2
				C354.7,313,355,312.8,355.2,312.6z"/>
			<path d="M356.8,312.7c0.2-0.1,0.3-0.2,0.5-0.3c0.5-0.4,0.7-1,1.2-1.5c0.1-0.1,0.3-0.3,0.4-0.4c0.4-0.5,0.5-1.1,0.6-1.6
				c0.1-0.7,0.2-1.3,0.2-1.9c0-0.3,0-0.5,0-0.8c0-0.3-0.1-0.5-0.1-0.8c0-0.1,0-0.5-0.2-0.9c-0.1-0.2-0.1-0.5-0.3-0.8
				c-0.1-0.1-0.1-0.3-0.2-0.5c-0.1-0.2-0.2-0.3-0.3-0.5c-0.4-0.6-1.1-1.3-1.9-1.8c-0.8-0.4-1.6-0.7-2.5-0.8c-0.9-0.1-1.9,0.1-2.8,0
				c-0.2,0-0.3-0.1-0.5,0c-0.3,0-0.6,0.2-0.8,0.4c-0.9,0.7-1.7,1.5-2.4,2.3c-0.2,0.2-0.4,0.5-0.4,0.7c-0.1,0.4,0.3,0.8,0.7,0.9
				s0.9-0.1,1.2-0.3c0.3-0.3,0.6-0.6,0.8-1c0.4-0.5,0.7-1,1.1-1.6c0.4-0.5,0.5-0.6,1.2-0.6c1-0.1,2.1,0,3.1,0.3
				c0.6,0.2,1.2,0.6,1.7,1c0.5,0.4,0.8,0.9,1.1,1.4c0.2,0.5,0.4,0.9,0.5,1.3c0.1,0.4,0.2,0.7,0.2,0.9c0.2,0.7,0.2,1.4,0.2,2.2
				c0,0.3,0,0.5-0.1,0.8c0,0.3-0.1,0.4-0.3,0.7c-0.3,0.4-0.5,0.9-0.8,1.3c-0.6,0.8-1.2,1.6-2,2.1c-0.4,0.3-0.8,0.5-1.2,0.8
				c-0.1,0-0.1,0.1-0.1,0.2c0,0,0.1,0.1,0.1,0.1c0.2,0.1,0.4,0.2,0.6,0.1c0.1-0.1,0.2-0.2,0.3-0.3
				C355.8,313.1,356.3,312.9,356.8,312.7z"/>
		</g>
	</g>
	<linearGradient id="SVGID_2_" gradientUnits="userSpaceOnUse" x1="336.7839" y1="316.542" x2="345.0065" y2="316.542">
		<stop  offset="0" style="stop-color:#FFFFFF"/>
		<stop  offset="1" style="stop-color:#39B54A;stop-opacity:0.4"/>
	</linearGradient>
	<path class="st9" d="M340,321.5C340,321.5,339.9,321.5,340,321.5c-0.1,0.1-0.1,0.2,0,0.2c0.1,0.1,0.2,0.2,0.4,0.2
		c0.1,0,0.2-0.1,0.3-0.2c0.3-0.2,0.6-0.2,1-0.3c0.1,0,0.3-0.1,0.4-0.1c0.4-0.2,0.7-0.6,1.1-0.8c0.1-0.1,0.3-0.1,0.4-0.2
		c0.4-0.2,0.6-0.6,0.7-1c0.2-0.4,0.4-0.8,0.5-1.3c0.1-0.2,0.1-0.4,0.2-0.6c0-0.2,0-0.4,0.1-0.6c0-0.1,0.1-0.3,0-0.7
		c0-0.2,0-0.4,0-0.6c0-0.1,0-0.2-0.1-0.4c0-0.1-0.1-0.3-0.1-0.4c-0.2-0.5-0.5-1.1-0.9-1.6c-0.4-0.5-1-0.8-1.5-1.1
		c-0.6-0.3-1.3-0.3-1.9-0.6c-0.1-0.1-0.2-0.1-0.4-0.1c-0.2,0-0.4,0.1-0.6,0.1c-0.7,0.3-1.4,0.7-2.1,1.1c-0.2,0.1-0.4,0.2-0.5,0.4
		c-0.1,0.3,0.1,0.6,0.3,0.8"/>
	<g>
		<g>
			<path d="M338,321.3c0.3-0.5,0.3-1,0.4-1.5c0.2-0.5,0.3-0.9,0.5-1.4c0.3-1,0.4-0.9,0.4-1.2c0,0,0-0.2,0-0.4c0-0.2-0.3-0.4-0.5-0.4
				c-0.1,0-0.3,0-0.4,0.1c-0.1,0-0.2,0.1-0.4,0.2c-0.6,0.3-1,0.6-0.9,0.7c0,0.1,1-0.3,1-0.3c0.2,0,0.2,0.1,0.3,0.1
				c0.1,0.1,0.1,0.1,0.1,0.2c0,0.1-0.1,0.1-0.1,0.1c0,0,0.1,0,0.1,0c0,0,0,0,0.1,0c0,0,0,0.2,0,0.2l0,0.1c0,0,0,0.1,0,0.2l-0.1,0.5
				c-0.1,0.4-0.2,0.7-0.3,1.1C338.2,320.2,338.2,320.8,338,321.3C338,321.3,338,321.3,338,321.3C338,321.3,338,321.3,338,321.3z"/>
			<path d="M339,321.5c0.1-0.2,0.1-0.4,0.2-0.6c0.3-0.8,1-1.2,1.4-1.9c0.2-0.4,0.3-0.8,0.4-1.2c0.1-0.4,0.2-0.9,0.2-1.3
				c0-0.1,0.1-0.5-0.1-1.1c-0.1-0.3-0.3-0.6-0.6-0.7c-0.9-0.4-2.2,0.3-3,0.7c-0.3,0.2-0.6,0.4-0.7,0.7c-0.1,0.3,0,0.6,0.2,0.9
				c0.3-0.4,0.5-0.7,0.9-1c0.5-0.5,1.1-0.7,1.9-0.5c0.4,0.1,0.6,0.4,0.7,0.7c0.1,0.3,0.1,0.5,0.1,0.6c0.1,0.2,0.1,0.4,0.1,0.6l0,0.3
				c0,0.1,0,0.3,0,0.4c0,0.6-0.2,1.2-0.5,1.8c-0.1,0.3-0.3,0.5-0.4,0.8c-0.2,0.4-0.5,0.8-0.8,1.1C338.7,321.8,338.9,321.7,339,321.5
				C339,321.6,339,321.6,339,321.5z"/>
			<path d="M340.3,321.6c0.3-0.3,0.7-0.6,1.1-0.9c0.7-0.6,0.9-1.3,1.1-2.2c0.3-0.9,0.5-1.8,0.5-2.7c0-0.1,0.1-0.8-0.3-1.7
				c-0.2-0.4-0.5-0.9-1.1-1.2c-1.6-0.8-2.9,0-4.1,0.9c-0.3,0.2-0.6,0.4-0.9,0.6c-0.1,0.1-0.3,0.2-0.4,0.4c0,0.2,0.1,0.4,0.2,0.6
				c0.1,0.1,0.2,0.3,0.4,0.3c0.1,0,0.2-0.1,0.3-0.3c0.4-0.6,0.9-1.1,1.5-1.6c0.6-0.5,1.2-0.5,1.9-0.3c0.4,0.1,0.7,0.3,1,0.5
				c0.3,0.3,0.4,0.6,0.5,0.9c0.2,0.6,0.2,1.1,0.2,1.3c0.1,1.2,0,2.5-0.5,3.6c-0.5,1-1.3,1.8-2.3,2.2c-0.1,0.1-0.3,0.2-0.3,0.3
				c0,0,0.1,0.1,0.1,0.1c0.2,0.1,0.4,0,0.5-0.1c0.1-0.1,0.3-0.2,0.4-0.4C340.2,321.8,340.2,321.7,340.3,321.6z"/>
			<path d="M341.9,321.8c0.4-0.3,0.8-0.5,1.1-0.9c0.4-0.4,0.8-0.9,1-1.5c0.2-0.6,0.4-1.1,0.5-1.7c0.1-0.4,0.2-0.8,0.2-1.3
				c0-0.2,0-0.4,0-0.6c0-0.2,0-0.4-0.1-0.6c0-0.1,0-0.4-0.1-0.8c0-0.2-0.1-0.4-0.2-0.7c-0.1-0.3-0.2-0.5-0.3-0.8
				c-0.4-0.7-0.9-1.2-1.6-1.6c-0.7-0.4-1.6-0.4-2.4-0.5c-0.2,0-0.3,0-0.5,0c-0.3,0.1-0.5,0.3-0.7,0.5c-0.7,0.6-1.4,1.2-2.2,1.6
				c-0.3,0.1-0.6,0.3-0.8,0.5c-0.2,0.2-0.2,0.6,0,0.9c1.2-0.7,2.4-1.3,3.7-1.9c0.5-0.2,1.3-0.7,1.8-0.7c0.4,0,1,0.5,1.3,0.7
				c0.4,0.4,0.6,0.8,0.8,1.1c0.3,0.8,0.4,1.5,0.4,1.8c0.1,0.5,0.1,1.1,0.1,1.7c0,0.5-0.1,1.1-0.2,1.5c-0.1,0.4-0.4,0.8-0.7,1.2
				c-0.5,0.7-1.2,1.4-2.1,1.8c-0.4,0.2-0.8,0.4-1,0.7c0.1,0.1,0.3,0.1,0.5,0.1c0.1,0,0.3-0.1,0.4-0.2
				C341.3,322.2,341.6,322,341.9,321.8z"/>
		</g>
	</g>
	
		<linearGradient id="SVGID_3_" gradientUnits="userSpaceOnUse" x1="300.8213" y1="340.421" x2="319.5859" y2="340.421" gradientTransform="matrix(0.9939 -0.1104 0.1104 0.9939 -35.6456 35.932)">
		<stop  offset="0" style="stop-color:#FFFFFF"/>
		<stop  offset="1" style="stop-color:#39B54A;stop-opacity:0.4"/>
	</linearGradient>
	<path class="st10" d="M309.3,349.7c-0.1,0-0.2,0.1-0.2,0.2c0,0.1,0.1,0.1,0.1,0.1c0.3,0.2,0.6,0.4,0.9,0.3c0.2-0.1,0.4-0.2,0.6-0.4
		c0.6-0.5,1.4-0.6,2.2-0.9c0.3-0.1,0.6-0.2,0.8-0.3c0.9-0.4,1.5-1.3,2.3-1.8c0.3-0.2,0.6-0.3,0.8-0.5c0.8-0.5,1.2-1.4,1.5-2.2
		c0.3-0.9,0.8-1.7,0.9-2.7c0.1-0.4,0.1-0.8,0.2-1.1c0-0.4,0-0.8,0-1.1c0-0.2,0.1-0.7-0.1-1.3c0-0.4-0.1-0.8-0.2-1.2
		c-0.1-0.2-0.1-0.5-0.2-0.7c-0.1-0.2-0.2-0.5-0.3-0.7c-0.5-1-1.3-2.1-2.5-2.9c-1.1-0.8-2.4-1.3-3.7-1.7c-1.4-0.4-3-0.3-4.5-0.6
		c-0.3-0.1-0.5-0.2-0.8-0.2c-0.5,0-1,0.2-1.4,0.4c-1.6,0.8-3.1,1.7-4.6,2.7c-0.4,0.3-0.8,0.6-0.9,1c-0.2,0.6,0.3,1.2,0.9,1.4"/>
	<g>
		<g>
			<path d="M307.4,348.9c0.3-0.8,0.1-1.6,0.2-2.4c0.1-0.8,0.2-1.5,0.3-2.3c0.2-1.5,0.4-1.5,0.2-1.9c0,0,0-0.2-0.1-0.5
				c-0.1-0.3-0.5-0.5-0.9-0.3c-0.2,0.1-0.4,0.1-0.6,0.2c-0.2,0.1-0.3,0.2-0.6,0.4c-0.9,0.7-1.4,1.3-1.1,1.4c0,0.2,1.5-0.9,1.5-0.9
				c0.3-0.1,0.4,0,0.5,0.1c0.1,0.1,0.2,0.2,0.2,0.3c0,0.2-0.1,0.2-0.1,0.2c0.1,0,0.1-0.1,0.2-0.1c0,0,0.1,0,0.1,0c0,0,0,0.2,0.1,0.3
				l0,0.2c0,0,0,0.1,0,0.3l0,0.8c0,0.5,0,1.1,0,1.8c0,0.8,0.2,1.6-0.1,2.4C307.3,348.9,307.3,349,307.4,348.9
				C307.4,349,307.4,349,307.4,348.9z"/>
			<path d="M309,348.9c0.1-0.3,0.1-0.6,0.2-1c0.2-1.2,1.2-2.2,1.6-3.4c0.2-0.6,0.1-1.3,0.2-2c0.1-0.7,0.1-1.4-0.1-2
				c0-0.1-0.1-0.8-0.5-1.5c-0.2-0.4-0.7-0.7-1.2-0.8c-1.5-0.3-3.4,1.3-4.5,2.3c-0.4,0.4-0.9,0.8-0.9,1.3c0,0.5,0.3,0.9,0.5,1.2
				c0.3-0.6,0.6-1.3,1-1.8c0.7-1,1.6-1.5,2.8-1.5c0.6,0,1.1,0.4,1.3,0.8c0.2,0.4,0.3,0.7,0.4,0.9c0.1,0.2,0.2,0.5,0.3,0.8l0.1,0.4
				c0,0.1,0,0.4,0.1,0.6c0.1,0.9,0,1.9-0.3,2.8c-0.1,0.4-0.3,0.9-0.4,1.3c-0.2,0.7-0.5,1.4-1,1.9C308.7,349.4,308.9,349.2,309,348.9
				C309,349,309,348.9,309,348.9z"/>
			<path d="M311.2,348.5c0.4-0.6,0.9-1.2,1.4-1.8c0.9-1.2,1-2.3,1.1-3.7c0.2-1.4,0.2-2.8-0.1-4.2c-0.1-0.2-0.2-1.2-1-2.4
				c-0.4-0.6-1.2-1.1-2.1-1.2c-2.7-0.5-4.5,1.2-6.3,3.1c-0.4,0.4-0.8,0.9-1.2,1.3c-0.2,0.2-0.4,0.5-0.4,0.7c0,0.3,0.2,0.5,0.5,0.7
				c0.2,0.2,0.4,0.3,0.7,0.2c0.2-0.1,0.3-0.3,0.4-0.5c0.5-1,1.1-2,1.9-3c0.8-1,1.7-1.2,3-1.3c0.6,0,1.2,0.1,1.7,0.3
				c0.5,0.3,0.8,0.7,1.1,1c0.5,0.8,0.6,1.5,0.7,1.8c0.6,1.7,0.9,3.7,0.3,5.5c-0.5,1.6-1.6,3.1-3,4.2c-0.2,0.2-0.5,0.4-0.3,0.6
				c0,0,0.1,0.1,0.2,0.1c0.3,0.1,0.6-0.1,0.8-0.3s0.3-0.5,0.5-0.7C311,348.8,311.1,348.6,311.2,348.5z"/>
			<path d="M313.7,348c0.5-0.5,1-1.1,1.5-1.7c0.5-0.8,1-1.7,1.1-2.7c0.1-0.9,0.3-1.8,0.3-2.7c0-0.6,0-1.3-0.1-1.9
				c-0.1-0.3-0.1-0.6-0.2-0.9c-0.1-0.3-0.2-0.6-0.3-0.9c0-0.1-0.1-0.5-0.4-1.1c-0.1-0.3-0.3-0.6-0.5-0.9c-0.2-0.3-0.5-0.7-0.8-1
				c-0.8-0.8-1.8-1.3-3-1.6c-1.2-0.3-2.7,0.1-3.9,0.3c-0.2,0-0.5,0.1-0.7,0.2c-0.4,0.2-0.7,0.6-1,1c-0.8,1.2-1.8,2.3-3,3.3
				c-0.4,0.3-0.8,0.7-1,1.1s-0.2,1,0.2,1.2c1.7-1.6,3.4-3,5.3-4.4c0.7-0.5,1.8-1.6,2.6-1.7c0.7-0.1,1.8,0.2,2.3,0.5
				c0.7,0.4,1.2,0.8,1.6,1.3c0.7,1,1.1,2,1.2,2.4c0.3,0.8,0.5,1.6,0.6,2.4c0.1,0.8,0.3,1.6,0.2,2.3c0,0.6-0.4,1.4-0.7,2
				c-0.6,1.3-1.5,2.6-2.7,3.6c-0.5,0.4-1.1,0.9-1.3,1.5c0.2,0.1,0.5,0.1,0.8-0.1c0.2-0.1,0.4-0.3,0.6-0.4
				C312.9,348.8,313.4,348.4,313.7,348z"/>
			<path d="M316.2,347.4c0.2-0.2,0.5-0.4,0.7-0.6c0.6-0.8,0.9-1.8,1.4-2.6c0.2-0.3,0.4-0.5,0.6-0.8c0.5-0.8,0.6-1.8,0.5-2.7
				c0-1,0-2-0.2-2.9c-0.1-0.4-0.2-0.8-0.2-1.2c-0.1-0.4-0.3-0.7-0.4-1.1c-0.1-0.1-0.2-0.7-0.6-1.3c-0.2-0.3-0.4-0.7-0.7-1.1
				c-0.1-0.2-0.3-0.4-0.5-0.6c-0.2-0.2-0.4-0.4-0.6-0.6c-0.9-0.8-2-1.5-3.5-1.9c-1.4-0.3-2.7-0.4-4.2-0.2c-1.5,0.2-2.9,0.9-4.4,1.1
				c-0.3,0-0.6,0.1-0.8,0.2c-0.5,0.2-0.8,0.6-1.1,0.9c-1.2,1.4-2.2,2.8-3.2,4.3c-0.3,0.4-0.5,0.8-0.5,1.3c0,0.6,0.7,1.1,1.4,1.1
				c0.7,0,1.3-0.5,1.8-1c0.5-0.5,0.7-1.2,1-1.8c0.4-0.9,0.8-1.8,1.2-2.7c0.4-0.9,0.7-1.1,1.7-1.4c1.6-0.6,3.3-0.9,5-0.8
				c1.1,0.1,2.1,0.3,3,0.7c0.9,0.4,1.6,1,2.1,1.6c0.5,0.6,0.9,1.2,1.2,1.7c0.3,0.5,0.5,0.9,0.6,1.2c0.5,0.9,0.7,2,0.9,3.1
				c0,0.4,0.1,0.8,0.1,1.2c0,0.4,0,0.7-0.2,1.1c-0.3,0.7-0.6,1.5-0.9,2.2c-0.7,1.4-1.5,2.8-2.6,3.9c-0.5,0.6-1.2,1.1-1.7,1.6
				c-0.1,0.1-0.2,0.2-0.1,0.3c0,0.1,0.1,0.1,0.2,0.1c0.3,0.1,0.7,0.1,1-0.1c0.2-0.1,0.3-0.4,0.4-0.6
				C314.8,348.4,315.5,347.9,316.2,347.4z"/>
		</g>
	</g>
	<path class="st11" d="M359.3,313.4c1.6,1.2,2.6,3.1,3.1,5c0.5,1.9,0.6,3.9,0.5,5.9"/>
	<path class="st11" d="M356.8,314.3c2.5,2.8,3.8,6.6,3.7,10.3"/>
	<path class="st11" d="M354.6,315.2c0.2,0.1,0.4,0.2,0.6,0.4c2.3,2.6,3.2,6.1,3.7,9.5"/>
	<path class="st11" d="M353.1,316.2c0.4,0.5,0.7,1,1.1,1.4c0.8,1.1,1.6,2.1,2.2,3.3c0.6,1.2,0.9,2.6,0.6,3.9"/>
	<path class="st11" d="M351.5,317.1c0,0.2,0.2,0.4,0.3,0.6c0.9,1.1,2,2,2.8,3.1s1.4,2.5,1.3,3.9"/>
	<path class="st11" d="M349.8,317.9c0.5,0.6,1.2,1.2,1.7,1.8c1.4,1.5,2.2,3.6,2.3,5.7"/>
	<path class="st11" d="M348.5,318.5c1,1.1,2.1,2.1,3.1,3.3c0.9,1.2,1.6,2.6,1.4,4.1"/>
	<path class="st11" d="M347.1,319.4c1.2,1.5,2.3,3,3.3,4.6c0.5,0.8,1,1.8,0.9,2.7"/>
	<path class="st11" d="M345.7,319.9c1.4,1.6,2.5,3.5,3.4,5.5c0.2,0.6,0.4,1.2,0.5,1.8"/>
	<path class="st11" d="M344.7,320.7c0.5,0.7,0.9,1.4,1.4,2.2c1,1.5,2,3.1,2,4.9"/>
	<path class="st11" d="M343.5,321.3c0.1,0.4,0.2,0.8,0.4,1.3c0.4,1.1,0.9,2.2,1.4,3.2c0.4,0.9,1,1.8,1,2.9"/>
	<path class="st11" d="M341.7,322.4c0.8,1.3,1.6,2.6,2.4,3.9c0.2,0.3,0.4,0.6,0.5,1c0.3,0.6,0.4,1.3,0.5,2"/>
	<path class="st11" d="M340.2,323c1,1.1,1.9,2.3,2.4,3.6c0.2,0.5,0.3,1,0.5,1.4c0.2,0.7,0.4,1.4,0.6,2.1"/>
	<line class="st12" x1="351.4" y1="300" x2="221.5" y2="222"/>
	<line class="st12" x1="337.1" y1="313.7" x2="220" y2="275.3"/>
	<line class="st12" x1="303.8" y1="333.2" x2="267.5" y2="332.5"/>
	<line class="st12" x1="351.3" y1="326.7" x2="277" y2="381"/>
</g>
</svg>
