<svg xmlns="http://www.w3.org/2000/svg" viewBox="0 0 283.2955 268.535">
  <title>suprarenal glands</title>
  <g id="Layer_1" data-name="Layer 1">
    <g id="Layer_1-2" data-name="Layer 1-2">
      <path d="M135.6007,47.7107C136,61.99,136,74.99,136.3411,89.0278q.06,3.3345.1229,6.85l.4724,26.3358.5137,28.6407c.0873,1.5915.1749,5.3437.2623,14.1826.0874,7.0074.1745,10.9808.2606,14.97.0861,7.4277.1713,14.8112.2549,15.2848.0835,5.1534.1655,8.2685.2451,12.5876.08,3.2628.157,8.4913.2313,13.3945.0744.4553.1458,6.9984.2135,11.4047.0678-4.4183.1319,7.4686.1917,9.8987.06,10.9808.1153,6.1391.1659,10.0345l.136,7.5817.1021,5.6929L139.6,270.71" transform="translate(0.0048 -3.4521)" fill="none" stroke="#ed1c24" stroke-miterlimit="10"/>
      <path d="M199.1,109.81s-1.7,4.7-9.8,4.5-21-2.7-22.8-4.8,0-15,0-15l-.0625-7.3125-.0412-4.8208c-.0063-1.7322-.0306-3.575-.0468-5.4708L166.1,47.71" transform="translate(0.0048 -3.4521)" fill="none" stroke="#ed1c24" stroke-miterlimit="10"/>
      <path d="M202,112.61a1.82,1.82,0,0,0-1.1,1l-2.2,3.1a30.36,30.36,0,0,1,8.5-.9,3.75,3.75,0,0,0,1.1-.1c.4-.2.7-.8,1.1-1" transform="translate(0.0048 -3.4521)" fill="none" stroke="#ed1c24" stroke-miterlimit="10"/>
      <path d="M208.4,119.31a5.56,5.56,0,0,0-1.7.9c-.1.1-.2.2-.2.3s.3.3.5.3h2.1" transform="translate(0.0048 -3.4521)" fill="none" stroke="#ed1c24" stroke-miterlimit="10"/>
      <path d="M209.3,126.71a21.1191,21.1191,0,0,0-3.1-2.1,8.17,8.17,0,0,0-5.5-1,1.7,1.7,0,0,0-1,.6,1.26,1.26,0,0,0,.2,1.3,4.44,4.44,0,0,0,1.1.8,64.3894,64.3894,0,0,1,9.7,6.7" transform="translate(0.0048 -3.4521)" fill="none" stroke="#ed1c24" stroke-miterlimit="10"/>
      <path d="M165.2,132.01c.1.4.2.8.3,1.3.0333,2.3667.0806,7.7611.1361,15.1083.0278,3.6736.0576,7.8354.0889,12.351.0312,7.2592.0639,11.33.0972,14.474.0333,1.2844.0674,10.2879.1014,12.2543.034,2.4419.0681,12.1562.1014,19.8373.0333,9.53.066,11.4241.0972,16.3617.0312,7.0526.0611,8.7532.0889,14.5466.0278,1.7808.0535,11.1772.0764,12.9948.0229,3.924.0431,7.3955.06,10.28.0333,5.7695.0528,9.1917.0528,9.1917" transform="translate(0.0048 -3.4521)" fill="none" stroke="#ed1c24" stroke-miterlimit="10"/>
      <path d="M197.4,136.01c-.6-.5-1.3-1.1-2-1.6-7.4-5.3-16.9-6.8-26-6.8a4.9,4.9,0,0,0-3.5.9c-.7.7-.8,3.1-.8,3.5" transform="translate(0.0048 -3.4521)" fill="none" stroke="#ed1c24" stroke-miterlimit="10"/>
      <path d="M206.8,143.41c-3.5-1.9-6.3-4.8-9.4-7.4" transform="translate(0.0048 -3.4521)" fill="none" stroke="#ed1c24" stroke-miterlimit="10"/>
      <path d="M154.3,99.51c1.6,3.9,1.7,8.1,1.8,12.3l.4,33.2c0,1.3-.6,3.3-1.9,3.1l-7-1.3c-5.3-14-1.9-29.6-3.3-44.4-.1-.9-.6-2.1-1.4-1.9" transform="translate(0.0048 -3.4521)" fill="none" stroke="#ed1c24" stroke-miterlimit="10"/>
      <path d="M78.6,135.61a2.48,2.48,0,0,0-1.2,1.6c-1,2.5-1.4,5.2-2.6,7.6-2.3,4.5-7.4,7.1-9.1,11.8a4.15,4.15,0,0,0-.3,1.6,4.89,4.89,0,0,0,1.3,2.7l5,6.9,1-.7" transform="translate(0.0048 -3.4521)" fill="none" stroke="#c49a6c" stroke-miterlimit="10" stroke-width="2"/>
      <path d="M139.3,271.41c7.2-.8,14.5-1.6,21.5-.3,1.8.4,4,.8,5.2-.6" transform="translate(0.0048 -3.4521)" fill="none" stroke="#ed1c24" stroke-miterlimit="10"/>
      <path d="M135.2017,47.6118s4.0483.1982,8.0983.3982l8.1.4c5,.2,10.1.5,15.2.4" transform="translate(0.0048 -3.4521)" fill="none" stroke="#ed1c24" stroke-miterlimit="10"/>
      <path d="M211.87,112.61s-12.2-.1-17.2-6.4-16.3-31.3.5-46a62.875,62.875,0,0,1,7.1057-5.4525q1.775-1.1585,3.5518-2.1135a24.0073,24.0073,0,0,1,3.5691-1.6855,34.9987,34.9987,0,0,1,3.5914-1.2637C226.213,45.85,240.1263,50.7225,256.97,65.71c24.5,21.8,36.5,98.5,11.5,118.5-24.3,19.5-40,16-58-6s-3.5-39,1.5-46.3" transform="translate(0.0048 -3.4521)" fill="none" stroke="#c49a6c" stroke-miterlimit="10" stroke-width="2"/>
      <path d="M209.4,112.61a27.54,27.54,0,0,0-.3,8.1,37.12,37.12,0,0,0,3.5,11.3" transform="translate(0.0048 -3.4521)" fill="none" stroke="#c49a6c" stroke-miterlimit="10"/>
      <path d="M89.7,139.21s12.4-3.8,16.4-15.7a22.3056,22.3056,0,0,0,.958-5.7021,43.78,43.78,0,0,0-.2809-7.5289C106,76.99,66,74.99,44.1752,90.194A91.6878,91.6878,0,0,0,34.99,96.4225C14.687,112.064,2.43,135.08,1.1,157.41c-1.8,31,19.8,68.3,48.3,61.3s33.2-28.2,26.2-41.5-4-9.3-4-9.3" transform="translate(0.0048 -3.4521)" fill="none" stroke="#c49a6c" stroke-miterlimit="10" stroke-width="2"/>
    </g>
    <path d="M131.87,131.63a180.9977,180.9977,0,0,0-20.64.15c-9,.77-20.7,12.66-24.37,5.63" transform="translate(0.0048 -3.4521)" fill="none" stroke="#ed1c24" stroke-linecap="round" stroke-miterlimit="10"/>
    <path d="M137.4,148.12s-22.53-3.08-32.2,4.92-38.33,12.34-38.33,19.67" transform="translate(0.0048 -3.4521)" fill="none" stroke="#ed1c24" stroke-miterlimit="10"/>
    <path d="M63.54,163.04s21.33-7,23.33-8.67-18.67-3-23.33,0" transform="translate(0.0048 -3.4521)" fill="none" stroke="#ed1c24" stroke-miterlimit="10"/>
    <path d="M66.87,143.41l20.14,5.93s-10.8-10.53-9.6-12.13" transform="translate(0.0048 -3.4521)" fill="none" stroke="#ed1c24" stroke-miterlimit="10"/>
    <path d="M136.7,128.92c.08-.15-2.24,3.16-4.83,2.72" transform="translate(0.0048 -3.4521)" fill="none" stroke="#ed1c24" stroke-miterlimit="10"/>
    <text transform="translate(62.5122 20.0879)" font-size="24" font-family="MyriadPro-Regular, Myriad Pro">Sup<tspan x="38.7114" y="0" letter-spacing="-0.005em">r</tspan><tspan x="46.4395" y="0">a</tspan><tspan x="58.0073" y="0" letter-spacing="-0.01em">r</tspan><tspan x="65.6152" y="0">enal glands</tspan></text>
  </g>
  <g id="Layer_2" data-name="Layer 2">
    <path d="M67.685,80.1394a55.5267,55.5267,0,0,0,12.2341-4.8027c.9885-.5066,2.1-1.0425,3.1392-1.58s3.6958-1.1607,2.7056-1.591c2.7714-.4745,7.111-.4119,3.4279-1.9329,3.8028,1.4126,4.3991,1.6425,4.2827-1.6148.37,3.16.4314,3.0563-.24-.2593.9271,3.2539,1.7207,2.1155,2.6494-1.6812-1.0389,3.4134-.9618,3.5963,1.1044.7158-1.5918,2.6056,1.2175-.9789,2.63-2.3605-1.3817,1.3884-1.9386,2.4291-.1963,1.1491-.2638.8664,2.5669-.973,4.4273-1.6745-2.1655,1.2429-.9629.8594.1678-.51-.9758,1.3413,3.2863.3068,3.7038.2136s.0827-.3969-.81-1.049c1.8475,1.3094,1.869,1.314,3.5678.0162-1.66,1.3021-1.0661,1.1852,3.5216.8118-2.1.2553-1.68.5226-.4932.8324,1.1984.3321,4.18,4.0343,4.1008,1.0864.5816,3.4561,1.42,6.2409,2.26,2.4318-.6338,3.9461-.797,4.5267.6726,3.16-1.4415,1.4675-1.3588,1.5217,1.2488,2.6762-2.596-1.0389-2.3132-.6019-.4242,2.93-.9282-1.4871-.9418-.9582-.71.2078.2355,1.1909,1.0838,6.9209.7655,4.0306.1512,3.4085.471,5.344-.8272,3.9177,1.2352,1.6786,1.1047,1.8731-.9348,3.98,1.9624-1.7929,1.1451-.1037-.2966,3.2391,1.33-2.4172,1.033-1.774-.9194-.0818,1.8584-1.4185.7972,3.4759.7938,4.221s-.4017.745-1.5747-.25c2.2669,2.2482,1.9339,2.3543-1.869,3.2181,3.68-.547,2.2119.493-.7941,3.1607,2.38-1.436-1.4676,2.6222-1.8928,3.7246s-.8328,2.1772-1.213,3.2171-.7331,2.0448-1.049,3.0074c-2.1307,5.8173-3.7182,9.9806-3.73,8.11a53.8617,53.8617,0,0,0-.6407-6.0043C107,96.99,95,78.99,76.3358,79.8117A42.3169,42.3169,0,0,0,67.685,80.1394Z" transform="translate(0.0048 -3.4521)" fill="none" stroke="#3c3" stroke-miterlimit="10"/>
    <path d="M194.67,106.21a104.1644,104.1644,0,0,1-12.1884-11.8427c-1.2121-1.3934-2.4216-2.87-3.5788-4.4088-1.3131-2.261-2.5344-6.942-3.043-5.0408.1-2.6453-.24-3.0322-2.8769-4.748,2.3557,1.081.2018-1.6734-1.1348-4.4429.366-.3431-1.2063-4.0767-1.1526-5.75.0488-1.5209,1.036-3.72.8045-4.4772,1.1543-1.7125,4.7472-4.2994,2.374-3.7049,2.9793-1.41,3.5655-1.6988,1.6623-3.1974,2.1441,1.2158,2.32.7392,3.0394-2.3585-.0351,1.2022.4223.7841,1.0813-.14a33.64,33.64,0,0,1,2.2905-3.1721c.3346.022,5.5049-2.0841,2.9028-1.4621,3.7355-1.3244,4.9975-1.7562.9334-.8935,4.4381-1.0038,5.3865-1.0916,3.7308-2.2694,1.7111,1.1453,1.7239,1.1493.3454.0675,1.4116,1.0579,1.4452.9691,3.4687-1.2049-1.009,1.086-1.3677,1.3778-.89,1.0979s1.7914-1.1316,4.1276-2.3327c.6455.0284-2.6563,1.5657-2.4744,1.4655s4.5685-2.1132,3.0581-1.7387c1.9087-.455,3.147-.9048.8691.3226,3.4107-1.6057,5.1318-2.5129,3.1606-1.1156,2.1906-1.4455,2.3434-1.521,3.8505-.7232-1.2524-.7958-.737-.7531,2.3153-.4887-2.3621-.302,1.2538-.1274,3.7291-.0662-1.0713-.0961,1.525-.0232,2.4936.0257s1.9849.1357,2.78.2529A15.7215,15.7215,0,0,1,220.5,45c5.4039,2.4445,3.5114,2.0027-.8421,2.0108a41.1014,41.1014,0,0,0-4.9947.2817c-1.819.2263-5.171-.2992-5.6014,1.2579-2.5514-.4642-3.7629,1.0451-5.0119,3.171-.9462-.1535-2.031,1.8146-3.0746,2.6144s-2.1576,1.49-3.1438,2.2553c-1.0915.6486-2.0927,1.3833-3.0868,2.1039-1.0029.7039-1.9736,1.42-2.8931,2.18A18.3575,18.3575,0,0,0,184.73,74.4964c-.1359,1.5107-.6635,3.4314-.0637,5.0036-.475,2.2841.2758,4.4048.646,6.3953a54.25,54.25,0,0,0,1.3325,5.5124C189.5971,101.498,194.67,106.21,194.67,106.21Z" transform="translate(0.0048 -3.4521)" fill="none" stroke="#3c3" stroke-miterlimit="10"/>
  </g>
</svg>
