<?xml version="1.0" encoding="utf-8"?>
<!-- Generator: Adobe Illustrator 19.2.1, SVG Export Plug-In . SVG Version: 6.00 Build 0)  -->
<svg version="1.1" id="Layer_1" xmlns="http://www.w3.org/2000/svg" xmlns:xlink="http://www.w3.org/1999/xlink" x="0px" y="0px"
	 viewBox="0 0 406.5 316.5" enable-background="new 0 0 406.5 316.5" xml:space="preserve">
<g id="XMLID_1_">
	<g>
		<path fill="#A4D5A8" d="M333.6,205c-1.5,0.3-2.8,0.6-3.8,0.9c-11,3.5-3,7.5-2.5,17.5c0,0-1.4-1-3.3-2.4l0,0
			c-3.7-2.7-9.6-7-11.2-8.6c-2.5-2.5-51-22-61.9-27s-72.6-33-80.1-37.1S83.3,88.9,79.3,85.9c-2.6-1.9-12.6-8.4-19.4-12.8
			c-3.8-2.4-6.6-4.2-6.6-4.2c3.1-0.3,13.1,3.3,12.3-2.5h0.1c0,0,59.2,40,66.2,46.5s117,65,124,67.5s42,15,44,15.5s21.9,6.1,33.5,7
			L333.6,205z"/>
	</g>
	<g>
		<path fill="none" stroke="#000000" stroke-width="2" stroke-miterlimit="10" d="M22.8,16.9c0,0-4.5,15,0,25.5s26,27,30.5,26.5
			c3.1-0.3,13.1,3.3,12.3-2.5c-0.3-2.6-2.9-7.2-9.3-15c-20.5-25-18.2-19-13.1-34.5"/>
		<path fill="none" stroke="#000000" stroke-width="2" stroke-miterlimit="10" d="M337.3,240.9c0,0-9.5-7.5-10-17.5
			s-8.5-14,2.5-17.5c1.1-0.4,2.4-0.6,3.8-0.9c13.1-2.4,38.5-1.6,38.7-1.6c3.6,0.1,7-0.9,10.1-0.4c2.1,0.4,4.1,1.5,5.9,4.1
			c3.8,5.7,1.7,13.5,0.9,19.7c-1.2,9,4.5,19.2,1,27.8c-1.9,4.6-6.3,7.5-10.1,10.7c-10.4,8.8-17.3,20.9-24,32.8"/>
		<path fill="none" stroke="#00A651" stroke-width="2" stroke-miterlimit="10" d="M324,221c1.9,1.4,3.3,2.4,3.3,2.4"/>
		<path fill="none" stroke="#00A651" stroke-width="2" stroke-miterlimit="10" d="M53.3,68.9c0,0,2.8,1.8,6.6,4.2
			c6.8,4.4,16.9,10.9,19.4,12.8c4,3,84,58.3,91.5,62.4s69.2,32.1,80.1,37.1c10.9,5,59.4,24.5,61.9,27c1.6,1.6,7.5,5.9,11.2,8.6"/>
		<path fill="none" stroke="#000000" stroke-miterlimit="10" d="M59.8,73.1c0,0,12.4,22.3,18.4,30.3s51.4,56.6,75.4,70.6
			s48.1,27.6,73.7,32.7c20.9,4.1,95.6,14.2,96.6,14.4l0,0"/>
		<path fill="none" stroke="#00A651" stroke-width="2" stroke-miterlimit="10" d="M382.5,202.6"/>
		<path fill="none" stroke="#00A651" stroke-width="2" stroke-miterlimit="10" d="M65.6,66.4c0,0,59.2,40,66.2,46.5s117,65,124,67.5
			s42,15,44,15.5s21.9,6.1,33.5,7"/>
	</g>
</g>
<g>
	
		<circle fill="none" stroke="#000000" stroke-width="2" stroke-linecap="round" stroke-linejoin="round" stroke-dasharray="3.1943,3.1943,3.1943,3.1943,3.1943,2.1295" cx="220.1" cy="102" r="14.4"/>
</g>
<line fill="none" stroke="#070707" stroke-miterlimit="10" x1="208.1" y1="93.9" x2="138.7" y2="66.4"/>
<text transform="matrix(1 0 0 1 96.3389 58.3902)" font-family="'MyriadPro-Regular'" font-size="16px">Deep inguinal ring</text>
<g>
	<g>
		<line fill="none" stroke="#070707" stroke-miterlimit="10" x1="196.7" y1="144" x2="197.9" y2="141.8"/>
		
			<line fill="none" stroke="#070707" stroke-miterlimit="10" stroke-dasharray="9.1816,1.1477" x1="198.5" y1="140.8" x2="203.2" y2="132.3"/>
		
			<line fill="none" stroke="#070707" stroke-miterlimit="10" stroke-dasharray="5.7385,1.1477,9.1816,1.1477" x1="203.5" y1="131.8" x2="211.6" y2="117.2"/>
		<polyline fill="none" stroke="#070707" stroke-miterlimit="10" points="211.8,116.7 213.1,114.6 215.1,116 		"/>
		
			<line fill="none" stroke="#070707" stroke-miterlimit="10" stroke-dasharray="7.6101,0.9513" x1="215.9" y1="116.5" x2="222.5" y2="121.2"/>
		
			<line fill="none" stroke="#070707" stroke-miterlimit="10" stroke-dasharray="4.7563,0.9513,7.6101,0.9513" x1="222.9" y1="121.5" x2="315.6" y2="187.2"/>
		<line fill="none" stroke="#070707" stroke-miterlimit="10" x1="316" y1="187.5" x2="318" y2="189"/>
		<g>
			<polygon fill="#070707" points="195,147.1 199.2,143.7 196.8,143.8 195.6,141.8 			"/>
		</g>
		<g>
			<path fill="#070707" d="M320.5,190.7c-1.5-0.4-3.4-0.7-4.9-0.5l2.1-1.4l0.7-2.4C318.7,187.7,319.6,189.5,320.5,190.7z"/>
		</g>
	</g>
</g>
<text transform="matrix(1 0 0 1 156.1199 123.6998)" font-family="'MyriadPro-Regular'" font-size="16px">2.5 cms</text>
<text transform="matrix(1 0 0 1 5.1 193.8903)" font-family="'MyriadPro-Regular'" font-size="16px">Mid-point of inguinal ligament</text>
<circle cx="194.1" cy="152.5" r="5.4"/>
<g>
	<g>
		<path fill="none" stroke="#070707" stroke-width="2" stroke-miterlimit="10" d="M333.6,205c0,0-0.6-0.6-1.7-1.8"/>
		<path fill="none" stroke="#070707" stroke-width="2" stroke-miterlimit="10" stroke-dasharray="7.7894,0.9737" d="M331.2,202.5
			c-1.4-1.5-3.4-3.6-5.6-6.1"/>
		<path fill="none" stroke="#070707" stroke-width="2" stroke-miterlimit="10" stroke-dasharray="4.8684,0.9737,7.7894,0.9737" d="
			M325.2,196.1c-8.9-9.9-21.3-25.1-18.7-30.7c3.5-7.5,58,25.7,70.5,33.4"/>
		<path fill="none" stroke="#070707" stroke-width="2" stroke-miterlimit="10" d="M377.4,199.1c1.4,0.8,2.1,1.3,2.1,1.3"/>
	</g>
</g>
<text transform="matrix(1 0 0 1 321.0809 126.3264)"><tspan x="0" y="0" font-family="'MyriadPro-Regular'" font-size="16px">Superficial </tspan><tspan x="-5.7" y="19.2" font-family="'MyriadPro-Regular'" font-size="16px">inguinal ring</tspan></text>
<line stroke="#070707" stroke-miterlimit="10" stroke-dasharray="5,1,8,1" x1="230.7" y1="92.2" x2="363.6" y2="190.7"/>
<text transform="matrix(1 0 0 1 38.4667 253.3902)" font-family="'CenturyGothic'" font-size="30px">Surface marking</text>
</svg>
