<svg xmlns="http://www.w3.org/2000/svg" viewBox="0 0 291.72 559.17">
  <title>ureter and bladder</title>
  <g id="Layer_1" data-name="Layer 1">
    <g id="Layer_1-2" data-name="Layer 1">
      <line x1="135.6" y1="0.6" x2="139.6" y2="223.6" fill="none" stroke="#ed1c24" stroke-miterlimit="10"/>
      <path d="M228.9,88.1s-1.7,4.7-9.8,4.5-21-2.7-22.8-4.8,0-15,0-15L195.9,26" transform="translate(-29.8 -25.4)" fill="none" stroke="#ed1c24" stroke-miterlimit="10"/>
      <path d="M231.8,90.9a1.82,1.82,0,0,0-1.1,1L228.5,95a30.36,30.36,0,0,1,8.5-.9,3.75,3.75,0,0,0,1.1-.1c.4-.2.7-.8,1.1-1" transform="translate(-29.8 -25.4)" fill="none" stroke="#ed1c24" stroke-miterlimit="10"/>
      <path d="M238.2,97.6a5.56,5.56,0,0,0-1.7.9c-.1.1-.2.2-.2.3s.3.3.5.3h2.1" transform="translate(-29.8 -25.4)" fill="none" stroke="#ed1c24" stroke-miterlimit="10"/>
      <path d="M239.1,105a21.12,21.12,0,0,0-3.1-2.1,8.17,8.17,0,0,0-5.5-1,1.7,1.7,0,0,0-1,.6,1.26,1.26,0,0,0,.2,1.3,4.44,4.44,0,0,0,1.1.8,64.39,64.39,0,0,1,9.7,6.7" transform="translate(-29.8 -25.4)" fill="none" stroke="#ed1c24" stroke-miterlimit="10"/>
      <path d="M195,110.3c.1.4.2.8.3,1.3.2,14.2.9,137.4.9,137.4" transform="translate(-29.8 -25.4)" fill="none" stroke="#ed1c24" stroke-miterlimit="10"/>
      <path d="M227.2,114.3c-.6-.5-1.3-1.1-2-1.6-7.4-5.3-16.9-6.8-26-6.8a4.9,4.9,0,0,0-3.5.9c-.7.7-.8,3.1-.8,3.5" transform="translate(-29.8 -25.4)" fill="none" stroke="#ed1c24" stroke-miterlimit="10" opacity="0.26" style="isolation: isolate"/>
      <path d="M236.6,121.7c-3.5-1.9-6.3-4.8-9.4-7.4" transform="translate(-29.8 -25.4)" fill="none" stroke="#ed1c24" stroke-miterlimit="10"/>
      <path d="M184.1,77.8c1.6,3.9,1.7,8.1,1.8,12.3l.4,33.2c0,1.3-.6,3.3-1.9,3.1l-7-1.3c-5.3-14-1.9-29.6-3.3-44.4-.1-.9-.6-2.1-1.4-1.9" transform="translate(-29.8 -25.4)" fill="none" stroke="#ed1c24" stroke-miterlimit="10"/>
      <path d="M103.1,145.2a32.32,32.32,0,0,1,15.8-7.8,121,121,0,0,1,17-1.8v109" transform="translate(-29.8 -25.4)" fill="none" stroke="#2e3192" stroke-miterlimit="10"/>
      <path d="M164.1,25.9H133.8l4,79.9s2.5,12.6-6,13.1-24-4.5-24-4.5" transform="translate(-29.8 -25.4)" fill="none" stroke="#2e3192" stroke-miterlimit="10"/>
      <path d="M108.4,113.9a2.48,2.48,0,0,0-1.2,1.6c-1,2.5-1.4,5.2-2.6,7.6-2.3,4.5-7.4,7.1-9.1,11.8a4.15,4.15,0,0,0-.3,1.6,4.89,4.89,0,0,0,1.3,2.7l5,6.9,1-.7" transform="translate(-29.8 -25.4)" fill="none" stroke="#2e3192" stroke-miterlimit="10"/>
      <path d="M136,243.4c-.5,1.5,1,3.1,2.6,3.4s3.3-.2,4.9-.1c2,.1,3.8,1,5.8,1.1a18.41,18.41,0,0,0,4.1-.5,46.2,46.2,0,0,1,15.3-.5" transform="translate(-29.8 -25.4)" fill="none" stroke="#2e3192" stroke-miterlimit="10"/>
      <path d="M169.1,249.7c7.2-.8,14.5-1.6,21.5-.3,1.8.4,4,.8,5.2-.6" transform="translate(-29.8 -25.4)" fill="none" stroke="#ed1c24" stroke-miterlimit="10"/>
      <path d="M165,25.9l16.2.8c5,.2,10.1.5,15.2.4" transform="translate(-29.8 -25.4)" fill="none" stroke="#ed1c24" stroke-miterlimit="10"/>
      <path d="M241.7,90.9s-12.2-.1-17.2-6.4-16.3-31.3.5-46c19-16.7,37.3-16.3,61.8,5.5s36.5,98.5,11.5,118.5c-24.3,19.5-40,16-58-6s-3.5-39,1.5-46.3" transform="translate(-29.8 -25.4)" fill="none" stroke="#c49a6c" stroke-miterlimit="10" stroke-width="2"/>
      <path d="M239.2,90.9a27.54,27.54,0,0,0-.3,8.1,37.12,37.12,0,0,0,3.5,11.3" transform="translate(-29.8 -25.4)" fill="none" stroke="#c49a6c" stroke-miterlimit="10"/>
      <path d="M119.5,117.5s12.4-3.8,16.4-15.7-2.7-53.7-40.8-42.5-62.3,44.5-64.2,76.4c-1.8,31,19.8,68.3,48.3,61.3s33.2-28.2,26.2-41.5-4-9.3-4-9.3" transform="translate(-29.8 -25.4)" fill="none" stroke="#c49a6c" stroke-miterlimit="10" stroke-width="2"/>
      <path d="M163.7,91.4c2.1.4,3.3,2.5,4.5,4.3s3.1,3.6,5.2,3" transform="translate(-29.8 -25.4)" fill="none" stroke="#2e3192" stroke-miterlimit="10"/>
      <path d="M163.5,120.2a11.28,11.28,0,0,1,4.4-6.1,8.55,8.55,0,0,1,7.3-1.1l-1.2-.5" transform="translate(-29.8 -25.4)" fill="none" stroke="#2e3192" stroke-miterlimit="10"/>
      <path d="M186.8,99.8s40.1-.6,42.5,1.1" transform="translate(-29.8 -25.4)" fill="none" stroke="#2e3192" stroke-miterlimit="10"/>
      <path d="M186.8,111.3s34.3-.3,42.1,4.4,7.5,4.4,7.5,4.4" transform="translate(-29.8 -25.4)" fill="none" stroke="#2e3192" stroke-miterlimit="10"/>
      <path d="M228.4,103.7H213s20.4,8.8,23.6,12" transform="translate(-29.8 -25.4)" fill="none" stroke="#2e3192" stroke-miterlimit="10"/>
      <path d="M122.4,138.9a89.28,89.28,0,0,1,0,38.5c-4.7,20.3-2.8,55.7-2.9,60.7" transform="translate(-29.8 -25.4)" fill="none" stroke="#00a651" stroke-miterlimit="10"/>
      <path d="M105.7,178.3s2.7,41.2,2.2,57.2" transform="translate(-29.8 -25.4)" fill="none" stroke="#00a651" stroke-miterlimit="10"/>
      <path d="M220,112.4s-8.4,28.1-12,54.4-2,71.3-2,71.3" transform="translate(-29.8 -25.4)" fill="none" stroke="#00a651" stroke-miterlimit="10"/>
      <path d="M234.2,120.9s-22.6,42.5-21.2,85.9c1,30.9-.9,32.6-.9,32.6" transform="translate(-29.8 -25.4)" fill="none" stroke="#00a651" stroke-miterlimit="10"/>
      <path d="M107.5,234.5s-7,89,7,107,28,40,28,40" transform="translate(-29.8 -25.4)" fill="none" stroke="#00a651" stroke-miterlimit="10"/>
      <path d="M119.5,237.5s-3,27-4,48-1,47,4,54,18,30,27,41" transform="translate(-29.8 -25.4)" fill="none" stroke="#00a651" stroke-miterlimit="10"/>
      <path d="M205.5,237.5s9,76,3,95-21,43-21,43" transform="translate(-29.8 -25.4)" fill="none" stroke="#00a651" stroke-miterlimit="10"/>
      <path d="M212.5,238.5s7,74,4,86-21,45-26,52" transform="translate(-29.8 -25.4)" fill="none" stroke="#00a651" stroke-miterlimit="10"/>
    </g>
    <path d="M119.5,339.5s48-26,86,2" transform="translate(-29.8 -25.4)" fill="none" stroke="#c69c6d" stroke-miterlimit="10"/>
    <path d="M116,327.06s56.48-15.56,92.48,2.44" transform="translate(-29.8 -25.4)" fill="none" stroke="#c69c6d" stroke-miterlimit="10"/>
    <path d="M214.5,332.5s15,19,3,34-45,40-42,46" transform="translate(-29.8 -25.4)" fill="none" stroke="#c69c6d" stroke-miterlimit="10"/>
    <path d="M209.5,344.5s9,12,3,17-37,39-37,45" transform="translate(-29.8 -25.4)" fill="none" stroke="#c69c6d" stroke-miterlimit="10"/>
    <path d="M114.5,341.5s0,34,21,46,28,13,29,19" transform="translate(-29.8 -25.4)" fill="none" stroke="#c69c6d" stroke-miterlimit="10"/>
    <path d="M108.5,329.5s-8,38,6,51,37,19,43,26,6,6,6,6" transform="translate(-29.8 -25.4)" fill="none" stroke="#c69c6d" stroke-miterlimit="10"/>
    <path d="M175.5,406.5c-5.15,7.83-4.71,16.41.88,23.93a27.37,27.37,0,0,1,1.66,2.3,13.26,13.26,0,0,1,1.43,4c1.86,8.47.5,18.09-5,24.82" transform="translate(-29.8 -25.4)" fill="none" stroke="#c69c6d" stroke-miterlimit="10"/>
    <path d="M164.5,406.5c1,9,1.35,16-1.54,24.57-1,3.11-2.36,6.2-2.5,9.47s1,6.68,2.05,9.88l3.72,10.89" transform="translate(-29.8 -25.4)" fill="none" stroke="#c69c6d" stroke-miterlimit="10"/>
    <path d="M175.5,412.5c3.29-1.91,10.12-3.94,13.86-3.22a31.87,31.87,0,0,1,8.55,3.46l5.7,3c4,2.07,8.13,4.33,10.43,8.17,2.53,4.23,2.26,9.71.29,14.22s-5.45,8.2-9.15,11.45a82.19,82.19,0,0,1-29.71,16.68" transform="translate(-29.8 -25.4)" fill="none" stroke="lime" stroke-miterlimit="10"/>
    <path d="M161.85,412.18a46.93,46.93,0,0,1-20,6.39c-2.95.24-6,.23-8.67,1.56a13.17,13.17,0,0,0-5.93,7.13,21.86,21.86,0,0,0-.92,13.14c1.77,7.3,7.34,13.3,14,16.84s18.71,8.94,26.21,9.27" transform="translate(-29.8 -25.4)" fill="none" stroke="lime" stroke-miterlimit="10"/>
    <path d="M174.5,461.5c-2.09,8.27,2.29,16.86,3.35,25.32.88,7.1-.77,14.23-1.87,21.3-1.16,7.42-1.95,35.91-2.29,56.13-.08,4.52,1.85,8.88,1.82,12.25,0,3.16-2,5.42-2,7" transform="translate(-29.8 -25.4)" fill="none" stroke="#c69c6d" stroke-miterlimit="10"/>
    <path d="M166.5,461.5c3,8,4.87,13.38,2.91,21.9s1,21.4.09,30.1c-1.19,11.11-.13,32.78-.1,50.5,0,3.24-2.82,9.61-2.9,12.5-.12,4.35,2.44,5,2,8" transform="translate(-29.8 -25.4)" fill="none" stroke="#c69c6d" stroke-miterlimit="10"/>
    <path d="M105.92,464.17a175.87,175.87,0,0,0,27.27,2.17c9.42,0,19-.72,28.17,1.31" transform="translate(-29.8 -25.4)" fill="none" stroke="#c69c6d" stroke-miterlimit="10"/>
    <path d="M177.17,466.11c3.48.57,7-.11,10.51-.68a154.35,154.35,0,0,1,36.3-1.54" transform="translate(-29.8 -25.4)" fill="none" stroke="#c69c6d" stroke-miterlimit="10"/>
    <path d="M108.94,481.39c3.07,1.65,6.82.66,10.2-.22a121.4,121.4,0,0,1,47.49-2.7" transform="translate(-29.8 -25.4)" fill="none" stroke="#c69c6d" stroke-miterlimit="10"/>
    <path d="M179.33,479a216,216,0,0,1,45.34,3.35" transform="translate(-29.8 -25.4)" fill="none" stroke="#c69c6d" stroke-miterlimit="10"/>
    <path d="M113.89,470.23a160.56,160.56,0,0,0,46.08,1.9" transform="translate(-29.8 -25.4)" fill="none" stroke="#c69c6d" stroke-miterlimit="10"/>
    <path d="M180.69,470.87a191.76,191.76,0,0,0,38.67,1.84" transform="translate(-29.8 -25.4)" fill="none" stroke="#c69c6d" stroke-miterlimit="10"/>
    <path d="M196,467l24,1.43" transform="translate(-29.8 -25.4)" fill="none" stroke="#c69c6d" stroke-miterlimit="10"/>
    <path d="M127.27,468c.57,1.12,2,1.36,3.3,1.47l15.13,1.25a47,47,0,0,0,6.14.24" transform="translate(-29.8 -25.4)" fill="none" stroke="#c69c6d" stroke-miterlimit="10"/>
    <path d="M115.66,476.46q12-.2,24,.11c6.2.16,12.51.41,18.47-1.27" transform="translate(-29.8 -25.4)" fill="none" stroke="#c69c6d" stroke-miterlimit="10"/>
    <path d="M182.14,474.67c13.26,2.38,27.42-2.22,40.16,2.18" transform="translate(-29.8 -25.4)" fill="none" stroke="#c69c6d" stroke-miterlimit="10"/>
    <text transform="translate(108.27 326.12)" font-size="14" font-family="CenturyGothic, Century Gothic">Urinary <tspan x="-2.27" y="16.8">bladder</tspan></text>
    <text transform="translate(192.69 408.12)" font-size="14" font-family="CenturyGothic, Century Gothic">Prostate gland</text>
  </g>
  <g id="Layer_2" data-name="Layer 2">
    <text transform="translate(23.2 72.12)" font-size="14" font-family="CenturyGothic, Century Gothic">Right kidney</text>
    <text transform="translate(193.2 47.12)" font-size="14" font-family="CenturyGothic, Century Gothic">Left kidney</text>
  </g>
</svg>
