<svg xmlns="http://www.w3.org/2000/svg" viewBox="0 0 1003.7539 807.4811">
  <title>urinary bladder</title>
  <g id="Layer_2" data-name="Layer 2">
    <path d="M860.67,348.8894c-34.8845-37.8412-139.5379-74.1564-201.9628-90.6806S522.8413,280.2411,502.645,287.5852,462.2524,368.37,458.58,386.7306,403.5,443.6474,403.5,443.6474" transform="translate(-70 -23.1523)" fill="none" stroke="#231f20" stroke-miterlimit="10" stroke-width="1.2669"/>
    <path d="M390.9045,487.051s0,69.2549,27.8709,94.592,117.3955,77.7006,171.4481,70.944,135.1315-29.56,173.1372-88.68,71.7886-98.6313,87.8355-120.26,25.3372-67.2353,25.3372-67.2353C863.02,401.7493,745.6246,460.8693,679.748,487.8956s-227.19,35.472-255.0607,29.56-33.7829-39.6949-33.7829-39.6949" transform="translate(-70 -23.1523)" fill="none" stroke="#231f20" stroke-miterlimit="10" stroke-width="1.2669"/>
    <path d="M276.0427,186.3835s62.4983,120.7738,82.768,180.7384S459.3423,508.987,466.93,519.1333s-19.4389,15.2138-22.8172,10.9909-38.0057-28.7154-58.2755-57.4309-77.7006-147.8-92.9029-198.4744S245.37,201.5858,245.37,201.5858" transform="translate(-70 -23.1523)" fill="#e6e7e8" stroke="#231f20" stroke-miterlimit="10" stroke-width="1.2669"/>
    <path d="M418.7754,23.3811s36.3166,93.7475,38.85,132.5978,77.6509,118.187,76.7881,118.5262-23.303,9.6579-23.303,9.6579-64.4645-69.9087-67.8428-85.111-16.8914-108.95-33.7829-141.0435L392.5936,25.9149" transform="translate(-70 -23.1523)" fill="#e6e7e8" stroke="#231f20" stroke-miterlimit="10" stroke-width="1.2669"/>
    <path d="M913.6944,284.1631s-57.0086,77.6955-72.2109,74.8374,1.2669,53.6863,41.8063.077,49.4074-58.6768,49.4074-58.6768" transform="translate(-70 -23.1523)" fill="#e6e7e8" stroke="#231f20" stroke-miterlimit="10" stroke-width="1.2669"/>
  </g>
  <g id="Layer_3" data-name="Layer 3">
    <path d="M414.2328,453.6929Q438.01,437.51,462.3921,422.2346c16.2753-10.1393,32.677-20.1037,49.5955-29.17,4.2365-2.2526,8.5027-4.4518,12.8324-6.5272,4.3366-2.0578,8.6935-4.0888,13.2094-5.7576,1.1188-.44,2.2764-.7855,3.4122-1.1824,1.1373-.3946,2.3263-.6462,3.486-.9755,2.3936-.5009,4.7779-.6718,7.1572-.9408l14.2863-1.6294c9.5288-1.0519,19.0538-2.1392,28.5891-3.1378q14.3028-1.4954,28.63-2.7545c19.1012-1.6835,38.2347-3.0815,57.4006-3.8878,19.1631-.82,38.3582-1.1628,57.5432-.6214a430.387,430.387,0,0,1,57.3326,4.9561,212.5759,212.5759,0,0,1,28.0667,6.4018,118.4279,118.4279,0,0,1,13.4792,5.0672,73.4381,73.4381,0,0,1,12.5253,7.0673l-.0728.1037c-7.9317-5.4194-16.9917-8.8513-26.1143-11.64a211.8164,211.8164,0,0,0-28.0278-6.0945c-9.4643-1.426-18.9882-2.4538-28.537-3.14s-19.1122-1.1933-28.6866-1.4164c-19.1478-.46-38.3134-.219-57.46.5061q-28.72,1.1094-57.3906,3.3883-14.33,1.1491-28.6382,2.5585c-9.54.9256-19.0723,1.9327-28.5889,3.0784l-14.2767,1.711c-2.3784.2985-4.7824.5072-7.0778,1.02-1.14.3406-2.3.6-3.4227,1.0057-1.1208.4083-2.2585.7633-3.3646,1.2146a244.2292,244.2292,0,0,0-25.7944,12.5495c-8.4308,4.542-16.7049,9.3741-24.9714,14.2158q-12.3886,7.2838-24.609,14.8563-24.4732,15.0854-48.6016,30.7378Z" transform="translate(-70 -23.1523)" fill="#c49a6c"/>
    <path d="M485.89,306.82c10.4217-4.4972,21.0406-8.5285,31.7577-12.2719,10.7233-3.7264,21.5532-7.1588,32.5005-10.1767,10.96-2.9758,22.03-5.52,33.1525-7.781,11.1376-2.1811,22.3422-4.0584,33.65-5.1967,5.6593-.472,11.3325-.9172,17.0243-.9026,2.8447-.0909,5.6895.0914,8.5362.1435,2.8365.226,5.6937.384,8.5051.748a333.9029,333.9029,0,0,1,33.6966,5.0989c5.5484,1.2448,11.1039,2.52,16.5209,4.278,5.4321,1.6991,10.7641,3.6772,16.0777,5.6524a233.8076,233.8076,0,0,0,32.5485,9.7039l-.0252.1241c-5.5617-1.1105-11.1371-2.2248-16.6027-3.7851-5.48-1.5-10.8841-3.2827-16.2313-5.18-5.3521-1.8858-10.6946-3.7639-16.1191-5.3592-5.4118-1.6379-10.9127-2.9545-16.4382-4.1557-2.78-.5234-5.5452-1.12-8.3371-1.5836-2.795-.4454-5.5791-.9526-8.38-1.3682l-8.4079-1.2129-8.436-1.0285c-2.8123-.3922-5.624-.5453-8.4365-.8217-2.8225-.0972-5.6429-.3255-8.4721-.2811-5.6566-.1077-11.3135.243-16.9626.6208a277.4371,277.4371,0,0,0-33.6229,4.9356c-11.1058,2.2936-22.0638,5.2393-32.9564,8.3617q-32.67,9.4113-64.493,21.555Z" transform="translate(-70 -23.1523)" fill="#c49a6c"/>
    <path d="M480.3795,318.166q18.7-8.5749,38.1185-15.4825a310.5688,310.5688,0,0,1,39.5441-11.4489l5.0785-.8969,2.5391-.4441c.8456-.1515,1.7062-.2166,2.5584-.329l5.1228-.607c1.7136-.1426,3.4387-.1736,5.1559-.2654l2.5776-.108,2.5748.0267c1.7166.0112,3.43.08,5.1448.1176,3.428.1023,6.8546.2182,10.28.3665q20.5487.92,41.0816,2.1025c27.3768,1.5988,54.7347,3.6022,82.0289,6.3175q20.476,1.9769,40.8716,4.7318c6.7956.9269,13.5851,1.911,20.3427,3.1049q5.0706.8769,10.0917,2.03a48.0976,48.0976,0,0,1,9.8113,3.0966l-.059.1121a47.9178,47.9178,0,0,0-9.8381-2.819c-3.3537-.6849-6.7313-1.2492-10.11-1.8025-6.76-1.0959-13.5554-1.9827-20.3558-2.8122-13.6035-1.648-27.2431-2.9926-40.8813-4.3412q-40.9317-3.8809-81.947-6.9256c-13.6715-.9922-27.3549-1.8734-41.0535-2.3564-3.4245-.12-6.8492-.2242-10.2742-.2842-1.7122-.0065-3.4254-.0448-5.1362-.0252l-2.5663.0194-2.5565.1537c-1.7025.1218-3.4083.1833-5.1055.3539l-5.0771.6913c-.8444.1264-1.6951.205-2.5338.37l-2.5173.4856-5.034.9642-4.9963,1.1582c-1.6647.3891-3.3355.7508-4.9816,1.2193-3.3007.8988-6.6166,1.737-9.8922,2.73l-4.9268,1.44-4.8937,1.5529c-3.2711,1.0094-6.5034,2.14-9.7463,3.2377-3.2377,1.1131-6.46,2.2742-9.6867,3.4209-3.2106,1.1918-6.4313,2.3589-9.6219,3.6059-6.3931,2.461-12.7774,4.9576-19.0786,7.6537Z" transform="translate(-70 -23.1523)" fill="#c49a6c"/>
    <path d="M476.3112,327.9395a90.5511,90.5511,0,0,1,10.4174-5.633c1.7762-.8666,3.6124-1.5982,5.4171-2.4045,1.82-.77,3.682-1.4337,5.5223-2.1546,1.8429-.7154,3.7363-1.2863,5.6028-1.9368,1.8633-.6637,3.7641-1.2045,5.6635-1.7516l2.8471-.8283,1.4239-.4142,1.44-.353,5.7651-1.39a227.3379,227.3379,0,0,1,47.0464-5.35c15.8355-.3409,31.5435,1.6715,47.3008,2.1418,7.8795.3494,15.7665.4957,23.6528.6028,7.8865.1113,15.7743.1408,23.662.1608,15.7758.0187,31.5525-.1492,47.3341-.0435,15.7792.1049,31.5739.2963,47.3417,1.4058a214.1218,214.1218,0,0,1,23.5643,2.7221,85.4394,85.4394,0,0,1,11.5549,2.85c.9366.3416,1.8853.6455,2.8107,1.0187l2.7379,1.2255,5.2722,2.6959A443.62,443.62,0,0,1,843.63,344.2657l-.07.1054c-6.6515-4.2367-13.5108-8.1373-20.3891-11.9871q-10.3314-5.7545-20.9-11.0645l-5.2962-2.6263-2.6769-1.1584c-.9067-.3527-1.8432-.6393-2.7626-.9625a84.34,84.34,0,0,0-11.4352-2.67,232.9761,232.9761,0,0,0-23.4424-2.6086c-15.7191-1.0256-31.4927-1.3191-47.2621-1.5175l-47.3278-.4545c-7.889-.0853-15.7783-.18-23.6664-.3568q-11.832-.27-23.6609-.662c-7.8848-.2855-15.7687-.6713-23.6476-1.11l-11.808-.46c-3.9363-.084-7.8752.0447-11.811.0388-1.9693-.0307-3.9344.0851-5.9.1911l-5.8961.3021c-.9821.0573-1.9664.085-2.9466.1665l-2.9372.29-5.8766.5539c-1.9641.1432-3.9073.4567-5.8564.7242l-5.8456.82c-1.9445.2979-3.87.7059-5.8068,1.0534l-2.9011.5426-1.4507.2713-1.4368.3352a198.775,198.775,0,0,0-22.7268,6.35c-1.844.6864-3.703,1.337-5.5371,2.0505-1.8154.7584-3.665,1.4432-5.4549,2.2629a90.332,90.332,0,0,0-10.52,5.3589Z" transform="translate(-70 -23.1523)" fill="#c49a6c"/>
    <path d="M468.2213,358.9565a111.776,111.776,0,0,1,9.05-8.2033c1.5534-1.32,3.1952-2.5286,4.7978-3.7884,1.6568-1.1859,3.2749-2.4308,4.9837-3.5438a128.4675,128.4675,0,0,1,21.3912-11.84,104.3757,104.3757,0,0,1,23.4441-7.0174l6.054-.9052c2.02-.2831,4.0482-.4691,6.0718-.7083,4.0465-.4906,8.1048-.821,12.16-1.1922,16.2313-1.3531,32.4949-2.0931,48.7517-2.8624l24.3917-1.0382,12.2-.4339,12.2027-.3478c16.2714-.4124,32.551-.7273,48.8387-.4236a225.875,225.875,0,0,1,24.4225,1.43c1.0132.1328,2.0326.2336,3.0409.3928l3.0182.5146c2.01.3551,4.0294.6651,6.02,1.1088l5.99,1.2424,5.9518,1.3969c15.8645,3.7615,31.4448,8.56,46.9143,13.633,15.4249,5.1967,30.8387,10.5187,45.7054,17.18l-.0524.1154c-7.4749-3.21-15.1487-5.9247-22.8046-8.6645-7.6677-2.7131-15.39-5.2678-23.1318-7.7585-7.7609-2.4293-15.5292-4.8373-23.3615-7.0179-3.9044-1.132-7.8361-2.16-11.7522-3.2469l-5.9028-1.5164c-1.9674-.5066-3.9357-1.0094-5.9172-1.4532-7.8911-1.9291-15.8707-3.4883-23.8874-4.6169a224.7114,224.7114,0,0,0-24.28-1.5484c-16.2542-.3689-32.5285-.3275-48.7965-.0743l-12.2008.25-12.1992.3358c-8.1314.2659-16.2642.5269-24.3881.9789-8.1271.3768-16.2477.8939-24.3616,1.4756q-12.1721.8547-24.3174,1.994c-4.0462.3893-8.0977.738-12.1278,1.2458-2.0153.2478-4.04.4429-6.0473.7338l-6.0206.8775a103.3274,103.3274,0,0,0-23.2473,6.8149,132.4315,132.4315,0,0,0-21.4014,11.4972c-1.72,1.08-3.3368,2.31-5.0212,3.4449-1.6248,1.216-3.2907,2.3823-4.87,3.6605a111.543,111.543,0,0,0-9.22,7.9662Z" transform="translate(-70 -23.1523)" fill="#c49a6c"/>
    <path d="M471.0973,366.0032a86.5489,86.5489,0,0,1,9.5167-6.8392c3.29-2.1162,6.72-4.004,10.1947-5.8026a142.8455,142.8455,0,0,1,21.725-8.8479l2.7965-.8968c.94-.274,1.889-.5134,2.8331-.7717,1.895-.49,3.7724-1.0551,5.6826-1.4833l5.7421-1.2379,1.4358-.3094,1.4489-.2384,2.8994-.4694,2.9-.4693,1.45-.2324,1.461-.1506,5.8441-.5956c3.8943-.3931,7.7715-.68,11.6578-1.0358q11.6473-1.12,23.2885-2.3984l23.2908-2.4774c3.8853-.3836,7.7676-.7914,11.657-1.1339,3.8894-.3382,7.7705-.7787,11.6675-1.033,3.8954-.268,7.7852-.6294,11.686-.8206,3.9008-.186,7.8-.4307,11.7032-.5685,31.1875-1.2484,62.7653,1.1089,92.9934,9.4418l22.5723,6.2316c7.5214,2.0855,15.0453,4.1625,22.5854,6.1748,7.5381,2.02,15.0905,3.9879,22.6868,5.7581,3.8056.8426,7.6051,1.7341,11.45,2.3616,1.9214.3183,3.8524.5719,5.7924.7349a46.4244,46.4244,0,0,0,5.8376.0431l.009.1264a46.6294,46.6294,0,0,1-5.8633.0928c-1.9534-.1183-3.9-.3281-5.8364-.6028-3.8755-.5421-7.7056-1.3308-11.5267-2.1454-7.6314-1.6786-15.214-3.554-22.781-5.4811q-22.707-5.7646-45.2738-12.0345C714.5333,330.73,683.17,328.0288,652,328.8846c-3.8986.105-7.7943.3168-11.6922.47-3.898.1584-7.787.487-11.6814.7221-7.7833.5532-15.56,1.2372-23.3162,2.1068-15.5253,1.6346-30.9826,3.8423-46.5222,5.484-3.8856.3753-7.7935.6833-11.6641,1.0933-3.8683.4167-7.7438.7672-11.5771,1.4442l-2.8829.4488-1.4409.2281-1.4277.2989-5.7119,1.1955c-1.9.4139-3.7683.9646-5.6544,1.44-.94.2511-1.8849.4832-2.82.75l-2.7839.8746a148.5135,148.5135,0,0,0-21.72,8.5153c-3.4751,1.7537-6.9436,3.5345-10.2721,5.5627a86.3119,86.3119,0,0,0-9.6526,6.58Z" transform="translate(-70 -23.1523)" fill="#c49a6c"/>
    <path d="M438.1671,421.1207q16.5373-10.5251,33.714-20.0076c11.4489-6.3057,23.0518-12.36,34.99-17.7179l4.484-1.99,4.5414-1.8607c1.52-.6041,3.012-1.2759,4.5548-1.8241l4.61-1.6864,2.3042-.8427c.7747-.2626,1.5621-.49,2.3424-.7362l4.69-1.4507c1.5643-.4782,3.1781-.79,4.7642-1.193l2.3887-.5718c.7933-.2055,1.6127-.2725,2.4177-.4156l4.85-.75c1.6166-.248,3.2476-.3694,4.8687-.5761l4.8708-.5585c1.6249-.1717,3.2545-.2894,4.8816-.4368,6.5084-.5993,13.0269-1.0456,19.5461-1.5067q39.1349-2.3666,78.3567-2.6039c13.0668-.168,26.1357-.0436,39.2017.1413,13.0638.2261,26.1374.4932,39.1738,1.4549l-.0084.1264c-6.5252-.2952-13.054-.404-19.5834-.5049-6.5292-.1107-13.06-.1384-19.59-.1594-6.5306.0189-13.0607.0047-19.5909.0871l-19.59.1608c-26.1179.3139-52.2371.8017-78.3306,1.99-6.5173.3812-13.044.6649-19.5464,1.2581-1.6262.1382-3.2557.2468-4.8794.4091l-4.8664.5306c-1.62.1889-3.2493.3252-4.8588.586l-4.8275.7838c-.8007.1484-1.6174.2212-2.4047.4317l-2.3714.5868c-1.5739.4167-3.1764.7248-4.7261,1.23L529.9,375.0368c-.772.26-1.55.5-2.3167.7762l-2.2806.8833-4.56,1.7655c-1.5254.5732-3.0029,1.2712-4.5063,1.9005l-4.4911,1.9361-4.4409,2.0523-4.4459,2.04-4.3985,2.144-4.3966,2.1473-4.3691,2.205c-2.9232,1.45-5.82,2.9513-8.7068,4.4738-2.9,1.4973-5.7706,3.05-8.64,4.6046q-17.2338,9.3-34.1133,19.2624Z" transform="translate(-70 -23.1523)" fill="#c49a6c"/>
    <path d="M455.9589,392.9939a278.7452,278.7452,0,0,1,43.58-21.6447,292.5336,292.5336,0,0,1,46.5964-14.1424l5.9714-1.2194c1.9854-.432,4.0092-.659,6.0114-.9985l6.0206-.9384,1.5049-.2344,1.5148-.162,3.03-.3186c4.0419-.3979,8.07-.9441,12.1306-1.08l6.0778-.3613,3.0385-.1828c1.0129-.0565,2.0281-.0554,3.0421-.086,16.2238-.5893,32.4589-.31,48.6774.2,32.4432,1.0716,64.8217,3.5458,97.1348,6.4987l48.45,4.59c8.0767.7533,16.1519,1.408,24.25,1.7832,4.0524.1731,8.1033.3884,12.1537.6138l6.075.3729,1.5195.1248.3836.0464.1017.0187c-.0108-.14.2049.2242.0316.2469a1.4135,1.4135,0,0,1-.209.022c-.258.0126-.5111.0131-.7656.0145l-3.0439-.0427.0017-.1267,3.04-.0254.7545-.031a1.3954,1.3954,0,0,0,.1685-.02c-.0631.0053.0387.3141-.0257.175l-.0856-.0135-.3722-.0365-1.5146-.09-6.077-.2366-12.16-.3872c-8.1123-.2784-16.2188-.838-24.3033-1.4946-16.1772-1.2866-32.3356-2.7332-48.49-4.2026-32.316-2.8258-64.6377-5.6473-97.044-7.1068-4.0494-.2167-8.1024-.3132-12.155-.4293-4.0529-.0932-8.105-.2908-12.1594-.2747l-12.163-.0808-12.1572.33a263.4937,263.4937,0,0,0-48.1373,6.1689c-1.9736.4478-3.9726.7846-5.925,1.3235l-5.8808,1.5129c-3.9382.9435-7.7946,2.1831-11.6859,3.299l-2.9139.8539-2.8828.9534-5.7642,1.9132c-1.9323.6072-3.81,1.369-5.7165,2.0507-1.8973.7066-3.8055,1.3855-5.6941,2.1149a309.96,309.96,0,0,0-43.8661,20.8465Z" transform="translate(-70 -23.1523)" fill="#c49a6c"/>
    <path d="M423.821,453.6861c1.7338-.8034,3.4013-1.7844,5.0829-2.7146l5.0288-2.8381c3.35-1.8969,6.7047-3.7884,10.0807-5.6406,6.7516-3.7051,13.5251-7.3747,20.3721-10.9054,13.6949-7.0557,27.5616-13.8013,41.7282-19.8764a459.3566,459.3566,0,0,1,43.3172-16.102c14.724-4.4412,29.746-8.4145,45.2039-9.308,7.6978-.4218,15.3906-.6749,23.09-.9279,7.6979-.2377,15.3975-.4387,23.0982-.5441q23.1014-.3718,46.2056-.2428c15.4018.044,30.8013.3174,46.1979.6536q23.0955.4819,46.1826,1.244l-.0025.1266-46.194-.4536-46.1892-.2642c-30.7872-.0244-61.59-.012-92.3514,1.1011a144.08,144.08,0,0,0-22.8135,3.1173c-7.5229,1.5945-14.962,3.5913-22.296,5.9166a424.7034,424.7034,0,0,0-43.03,16.646c-7.0582,3.06-14.0224,6.3314-20.9816,9.6106q-10.4316,4.9356-20.7222,10.1685c-6.8587,3.4891-13.704,7.008-20.4991,10.6247l-10.196,5.4215-5.0995,2.7114c-1.7089.8894-3.389,1.8242-5.1692,2.5948Z" transform="translate(-70 -23.1523)" fill="#c49a6c"/>
    <path d="M431.4249,459.12c16.332-5.3715,32.7164-10.5926,49.2156-15.4463,16.5032-4.8328,33.1027-9.3765,49.8813-13.1893,16.78-3.7948,33.7274-6.877,50.8-8.9768,8.535-1.0669,17.1148-1.7317,25.7084-2.161,2.15-.07,4.3019-.0665,6.4531-.1034,2.1509-.0209,4.3054-.0753,6.4513-.042,4.2951.0431,8.5914.012,12.887-.0366,17.1838-.2338,34.3564-1.0009,51.5161-1.9094q25.74-1.3939,51.42-3.6388c8.5585-.7459,17.1036-1.6286,25.64-2.5778,8.5339-.9625,17.0546-2.0606,25.5185-3.4849,4.2345-.6968,8.4461-1.5232,12.6164-2.5047a50.9377,50.9377,0,0,0,12.09-4.14,127.4513,127.4513,0,0,1,11.767-5.318,64.1827,64.1827,0,0,1,6.1354-2.0284,28.22,28.22,0,0,1,3.1687-.6521,7.3575,7.3575,0,0,1,3.238.0811l-.0612.1109a7.3433,7.3433,0,0,0-3.1487.0006,28,28,0,0,0-3.1274.7129,63.8732,63.8732,0,0,0-6.0576,2.1457c-3.9634,1.64-7.8232,3.5225-11.6291,5.5041a51.6289,51.6289,0,0,1-12.1909,4.3317c-4.1846,1.035-8.4039,1.9122-12.6427,2.659-16.9549,3.0152-34.0707,4.9161-51.2,6.4605-17.1309,1.56-34.2966,2.6913-51.4745,3.5276q-25.7663,1.2652-51.5719,1.4129c-4.3.016-8.6.0144-12.9-.0614-2.1517-.05-4.2949-.0115-6.4418-.007-2.1459.0205-4.2932,0-6.4387.0541l-6.4329.32c-2.1451.0981-4.29.2-6.4269.4224-4.2778.3838-8.5583.75-12.812,1.357a480.7023,480.7023,0,0,0-50.6171,9.564c-33.4514,7.8684-66.3738,17.8255-99.2956,27.7339Z" transform="translate(-70 -23.1523)" fill="#c49a6c"/>
    <path d="M468.2631,502.19c31.28-2.6855,62.41-6.7938,93.41-11.6561l11.62-1.864c3.8781-.5964,7.732-1.3323,11.6-1.99,3.8618-.6918,7.7374-1.3129,11.5848-2.0827l11.55-2.2693c7.6951-1.5375,15.3477-3.286,22.9953-5.04l11.435-2.79,5.7165-1.3971,5.6855-1.5184a919.7228,919.7228,0,0,0,89.5917-28.7264c14.6559-5.5843,29.2137-11.4415,43.547-17.8213,7.1529-3.2181,14.2844-6.49,21.3154-9.9695,7.038-3.4617,14.06-6.9745,20.8895-10.8373l.0649.1088a469.501,469.501,0,0,1-41.8915,21.5335q-21.4006,9.8627-43.4614,18.2071a793.5913,793.5913,0,0,1-89.8822,28.1767l-5.7021,1.472-5.7321,1.35-11.4644,2.696c-3.8237.888-7.6726,1.6644-11.5074,2.502-3.8436.7968-7.6559,1.7414-11.5112,2.4822-15.3773,3.1707-30.7866,6.2093-46.2761,8.8126q-23.2446,3.8321-46.6506,6.575c-15.6,1.8084-31.2408,3.2932-46.92,4.1714Z" transform="translate(-70 -23.1523)" fill="#c49a6c"/>
    <path d="M463.4875,496.2812l2.4445-.5977,2.454-.5266,4.9113-1.0349,9.8344-2.0021,19.6859-3.9044,39.3749-7.7674c26.2732-5.0341,52.5072-10.4124,78.3568-17.31,3.2368-.8374,6.4385-1.8,9.6588-2.6931,1.6055-.4624,3.2211-.8926,4.8179-1.3813l4.7719-1.5223,4.7706-1.5218c1.575-.5459,3.1181-1.1718,4.6781-1.7533,1.5538-.6028,3.1157-1.16,4.6685-1.7836l4.6544-1.9015a381.2978,381.2978,0,0,1,38.0725-12.8518c12.8711-3.7147,25.8944-6.8743,38.9955-9.6334,6.5452-1.4062,13.12-2.6686,19.7025-3.8794q9.8843-1.7638,19.8353-3.1048l.0185.1253a701.5956,701.5956,0,0,0-78.1907,17.7478c-6.43,1.82-12.7935,3.8574-19.146,5.92-3.175,1.0355-6.32,2.1575-9.4775,3.2458-3.12,1.185-6.2817,2.27-9.3694,3.5372l-4.6472,1.8638c-1.5546.6138-3.1469,1.1736-4.7216,1.754-1.5818.5649-3.15,1.1749-4.7417,1.7019l-4.81,1.4613L635.28,459.93c-1.608.4677-3.2318.8761-4.8467,1.317-3.238.85-6.4583,1.7693-9.71,2.5623-12.9907,3.2349-26.0444,6.1777-39.0993,9.1155l-19.5954,4.3514c-6.5427,1.399-13.0762,2.8473-19.6288,4.2006-13.1027,2.7215-26.25,5.2194-39.4,7.6931l-19.7448,3.6025c-6.5738,1.2228-13.1982,2.2511-19.7285,3.6288Z" transform="translate(-70 -23.1523)" fill="#c49a6c"/>
    <path d="M455.9751,483.612Q489.32,473.2443,523.22,464.7863c11.3074-2.7681,22.6522-5.3777,34.0093-7.9247,5.6736-1.2954,11.3685-2.4955,17.05-3.7594,5.71-1.1265,11.3837-2.4393,17.12-3.445,5.7129-1.127,11.4764-1.998,17.2354-2.8793,5.7641-.8,11.5287-1.5967,17.2987-2.3474l34.6-4.6019c11.52-1.61,23.0435-3.19,34.5008-5.1648,5.72-1.0256,11.4377-2.0891,17.08-3.47,5.632-1.3789,11.3-2.8026,16.5905-5.2344l.0555.1139A86.2283,86.2283,0,0,1,712.2667,431.8c-5.6393,1.4806-11.3511,2.6419-17.0662,3.7655-11.4441,2.181-22.9542,3.9773-34.4877,5.5569-11.5275,1.6282-23.0792,3.0528-34.6271,4.49l-17.3242,2.13c-5.7572.7873-11.5158,1.5632-17.24,2.5976-22.952,3.8337-45.5509,9.5369-68.0424,15.4635q-33.7763,8.79-67.4686,17.93Z" transform="translate(-70 -23.1523)" fill="#c49a6c"/>
    <path d="M450.0141,469.2526q33.0665-6.1723,66.2425-11.6777c11.0621-1.8174,22.1448-3.5179,33.191-5.4292,11.0545-1.864,22.08-3.8928,33.0952-5.9776,11.0219-2.0464,22.0212-4.21,33.0273-6.3232,11.0071-2.1194,21.9419-4.495,32.9116-6.84,10.9562-2.3765,21.9387-4.6321,32.92-6.8929,10.9782-2.2738,21.9568-4.5456,32.9608-6.6965l.0264.1239c-10.9144,2.571-21.8542,5.0212-32.7944,7.4692-10.9373,2.4612-21.8732,4.9275-32.8353,7.2729-21.8739,4.96-44,8.7957-66.0936,12.5695-11.0526,1.8833-22.11,3.7349-33.1423,5.727l-33.0891,6.0316q-33.1251,5.8255-66.3991,10.7682Z" transform="translate(-70 -23.1523)" fill="#c49a6c"/>
    <path d="M510.8251,444.3333c7.4962-1.4471,15.0381-2.5685,22.609-3.4622,3.7913-.4025,7.5954-.703,11.3816-1.1408,3.7858-.4414,7.5579-.9909,11.3271-1.5664q11.3027-1.7666,22.6683-3.0562c7.5817-.8054,15.18-1.503,22.8082-1.82l.0118.1261c-7.549,1.1169-15.1022,2.1047-22.6652,3.036-7.57.8661-15.1445,1.7017-22.7374,2.4022-3.7953.36-7.5847.7705-11.3607,1.2856-3.7742.53-7.5306,1.1967-11.2976,1.7789-7.546,1.0727-15.1176,1.944-22.7278,2.542Z" transform="translate(-70 -23.1523)" fill="#c49a6c"/>
    <path d="M403.5566,517.428a48.8726,48.8726,0,0,0,9.0561,11.0286,64.7589,64.7589,0,0,0,11.46,8.4913,82.4579,82.4579,0,0,0,26.7365,9.67,115.5429,115.5429,0,0,0,28.5576,1.707c9.5756-.4384,19.1164-1.4749,28.61-2.7688a566.0039,566.0039,0,0,0,56.42-10.83c9.2872-2.3236,18.5375-4.825,27.6158-7.8561,4.5346-1.5227,9.0466-3.1281,13.4341-5.03,1.0956-.4777,2.1913-.9563,3.2648-1.48,1.0889-.4952,2.1478-1.0463,3.2012-1.6105a30.67,30.67,0,0,0,5.9251-3.9969l.0881.0911a30.915,30.915,0,0,1-5.8162,4.2529c-1.0385.6079-2.0847,1.2038-3.16,1.7427-1.0586.5745-2.1526,1.073-3.2406,1.5855-4.3665,2.017-8.8434,3.7826-13.3743,5.3819-9.0645,3.1973-18.3027,5.8713-27.623,8.1873a448.5233,448.5233,0,0,1-56.6476,10.25c-9.5356,1.0925-19.0941,1.95-28.6736,2.5187a122.6,122.6,0,0,1-28.7687-1.1122,83.5563,83.5563,0,0,1-13.9833-3.6651,75.1989,75.1989,0,0,1-13.0645-6.2033,63.3531,63.3531,0,0,1-11.4205-8.8458,51.674,51.674,0,0,1-4.8058-5.3923,36.3234,36.3234,0,0,1-3.9046-6.0607Z" transform="translate(-70 -23.1523)" fill="#c49a6c"/>
    <path d="M641.8388,496.3413" transform="translate(-70 -23.1523)" fill="none"/>
    <path d="M403.5179,554.5562c7.2741,2.0274,14.6294,3.75,21.99,5.4188,7.3643,1.6586,14.7659,3.1431,22.1872,4.5095,14.8443,2.7237,29.8029,4.8066,44.829,6.1377,7.5143.6528,15.0468,1.0878,22.59,1.2634,7.5414.0949,15.0944-.0192,22.6144-.6639a156.7571,156.7571,0,0,0,22.3465-3.429,111.1314,111.1314,0,0,0,21.3321-7.3077l5.0037-2.6006c1.6049-.9742,3.1733-2.01,4.7608-3.01,3.1391-2.0743,6.21-4.2974,9.3185-6.4389q9.3239-6.4469,18.8368-12.6223a385.94,385.94,0,0,1,39.3152-22.6348c6.7884-3.3508,13.7288-6.37,20.5254-9.6032,6.741-3.3373,13.4414-6.8762,20.1641-10.3044,13.4311-6.9156,26.8632-13.8294,40.3522-20.6336l.0586.1123c-13.29,7.185-26.6375,14.26-39.9856,21.3339-6.69,3.5207-13.3038,7.1244-20.0573,10.5769-3.3906,1.6941-6.8346,3.2544-10.2628,4.8359-3.4241,1.5864-6.8448,3.1729-10.2176,4.8543-6.7655,3.3242-13.3752,6.9534-19.9117,10.7123-6.5482,3.7405-12.9573,7.7256-19.3376,11.7536q-9.5254,6.1157-18.9317,12.4226c-3.1371,2.1047-6.2147,4.276-9.4013,6.3265-1.6188.9935-3.218,2.02-4.8515,2.984l-5.0815,2.5623a111.7132,111.7132,0,0,1-21.5174,7.1658l-5.5607,1.1315c-1.8552.3655-3.7349.5922-5.6008.895l-2.8039.4232-2.8168.3244c-1.88.1976-3.7524.4745-5.6381.6069l-5.6552.4266c-1.885.1472-3.7766.1661-5.6643.2661l-2.8333.1273-2.8351.0469-5.6719.0652q-11.3439-.0876-22.6681-.9227c-7.5354-.6461-15.0641-1.4091-22.55-2.49s-14.9445-2.3268-22.3721-3.7384a442.6622,442.6622,0,0,1-44.0344-10.7623Z" transform="translate(-70 -23.1523)" fill="#c49a6c"/>
    <path d="M456.0129,572.1989c8.0789,2.5326,16.2439,4.7811,24.4162,6.9808,8.1748,2.1947,16.3977,4.2018,24.6432,6.0987q12.3694,2.8421,24.8585,5.101c8.3255,1.4866,16.68,2.8143,25.0795,3.7826a241.8261,241.8261,0,0,0,25.2835,1.7749,113.3485,113.3485,0,0,0,25.2023-2.1449,57.1161,57.1161,0,0,0,12.0132-3.8978,33.9421,33.9421,0,0,0,10.228-7.2684c2.9863-3.0042,5.9308-6.0521,8.986-8.9865l4.5511-4.4344,4.61-4.3722q18.4525-17.4769,37.7277-34.0558c12.8307-11.065,25.8021-21.9692,39.1317-32.444,3.3413-2.61,6.6884-5.2076,10.14-7.6968l5.2-3.6415c1.6982-1.2561,3.4235-2.4718,5.1088-3.7512,6.7781-5.06,13.47-10.249,20.1479-15.4527l19.96-15.7116,19.9316-15.7516.08.0983Q783.776,452.67,763.9094,468.5106c-6.621,5.2826-13.2543,10.549-19.9893,15.6984-1.6758,1.296-3.3876,2.5537-5.0934,3.8154l-5.1973,3.6547c-3.4118,2.47-6.7512,5.072-10.0781,7.681-13.2543,10.5179-26.282,21.3365-39.1627,32.3209-12.8638,11.0045-25.6288,22.1318-38.03,33.6577l-4.64,4.333-4.5806,4.3948c-3.0754,2.9085-6.0389,5.9291-9.0455,8.9075a34.4045,34.4045,0,0,1-10.4142,7.2823A60.9559,60.9559,0,0,1,605.59,594.22a97.03,97.03,0,0,1-12.5862,1.8694c-4.2266.38-8.4706.54-12.7128.5522a235.6381,235.6381,0,0,1-25.3984-1.4372,420.86,420.86,0,0,1-50.04-8.98c-16.4871-3.9305-32.8182-8.5132-48.8793-13.906Z" transform="translate(-70 -23.1523)" fill="#c49a6c"/>
    <path d="M571.58,579.8962c16.6786-8.0707,33.3437-16.1455,49.9381-24.3629,16.63-8.1112,33.24-16.4515,48.6685-26.6833a127.4907,127.4907,0,0,0,11.1187-8.25q5.3611-4.4357,10.8834-8.66,11.0032-8.5,22.2434-16.6773,22.45-16.3909,45.5139-31.9121l.0728.1037-44.8145,32.8623c-7.4465,5.5041-14.9092,10.9852-22.2913,16.57L687.3966,517.1c-1.8459,1.3959-3.6676,2.82-5.48,4.2568a128.4689,128.4689,0,0,1-11.35,8.0734c-7.8535,4.9434-15.9338,9.4847-24.0573,13.941-2.0177,1.1391-4.0687,2.2158-6.1062,3.3181l-6.1072,3.3184c-4.0962,2.1648-8.1766,4.3636-12.3069,6.4636-8.244,4.2346-16.6077,8.2275-24.99,12.1765-8.3962,3.9192-16.8375,7.7423-25.3674,11.3639Z" transform="translate(-70 -23.1523)" fill="#c49a6c"/>
    <path d="M438.2314,579.8987c8.87,4.716,18.0323,8.8587,27.2729,12.7767,9.26,3.8773,18.6654,7.4069,28.2166,10.478a257.4183,257.4183,0,0,0,29.07,7.6788,180.3068,180.3068,0,0,0,29.8,3.5562,105.4129,105.4129,0,0,0,29.7474-3.1356l.9118-.2214.8925-.2875,1.7847-.577c1.1839-.4028,2.394-.7286,3.5576-1.1948,2.3228-.94,4.6881-1.78,6.9612-2.8434l3.4349-1.5347,3.3792-1.6558c2.2649-1.0809,4.4733-2.2733,6.6847-3.46a287.1534,287.1534,0,0,0,25.6374-15.7911C643.88,578.03,651.98,572.085,659.949,565.9736c15.9274-12.2435,31.2977-25.189,46.5571-38.2556l22.8032-19.7124c7.6089-6.5665,15.2227-13.13,23.1-19.4064,3.93-3.1534,8.0732-6.0672,12.0824-9.0366q5.9874-4.5443,11.8083-9.3209c7.7684-6.3548,15.373-12.9177,22.9014-19.5663q11.2778-9.991,22.33-20.2383c7.3715-6.8257,14.7512-13.6461,22.0193-20.5842l.0884.0907q-21.4447,21.1925-43.8264,41.4155c-7.47,6.7269-15.019,13.37-22.7442,19.8154-1.95,1.59-3.8593,3.2274-5.8422,4.778-1.99,1.5422-3.9454,3.1262-5.9637,4.634-4.06,3.0173-8.1367,5.8923-12.041,9.0359-7.8417,6.2483-15.41,12.8619-23.05,19.3831L707.28,528.6243c-15.311,13.0241-30.8716,25.7729-46.91,37.901-16.03,12.1237-32.5909,23.626-50.2151,33.338-2.21,1.2-4.4171,2.4053-6.6826,3.5l-3.38,1.6765-3.4346,1.5645c-2.2674,1.0947-4.6321,1.9678-6.9545,2.94-1.1631.4825-2.381.8275-3.57,1.248l-1.7936.604-.8973.301-.9163.2347a105.3174,105.3174,0,0,1-29.9589,3.5051,173.2917,173.2917,0,0,1-29.9959-3.5152,258.4552,258.4552,0,0,1-29.1514-7.845,333.6812,333.6812,0,0,1-55.25-24.0682Z" transform="translate(-70 -23.1523)" fill="#c49a6c"/>
    <path d="M476.3329,614.9a14.3045,14.3045,0,0,1,1.8083-.1607c.6023.0281,1.2108.0089,1.81.0764l1.7978.2045,1.7834.2917c2.376.4045,4.7241.9393,7.0709,1.4734,4.6862,1.0993,9.3471,2.2887,14.008,3.47,9.3179,2.3776,18.6769,4.5743,28.0944,6.4685,9.421,1.87,18.9143,3.3779,28.4636,4.3415A212.4076,212.4076,0,0,0,589.906,632.16c19.1306-.5663,38.3893-4.1786,55.8017-12.3837a140.106,140.106,0,0,0,24.5231-15.0278,222.2261,222.2261,0,0,0,21.7665-18.8533c13.7266-13.46,26.006-28.2988,37.8276-43.445,5.91-7.58,11.6818-15.27,17.486-22.9426,5.8234-7.6572,11.6475-15.3311,18.0638-22.56,1.6149-1.7975,3.28-3.5568,5.04-5.2313a36.7823,36.7823,0,0,1,5.7163-4.59,17.3423,17.3423,0,0,1,3.3554-1.6386l1.63-.6552c.5372-.2368,1.0582-.5214,1.5883-.7794,1.07-.4955,2.0663-1.1611,3.1052-1.7314,1-.6452,2.0131-1.2726,2.9945-1.9513a132.2263,132.2263,0,0,0,11.29-8.8661c3.6248-3.1411,7.152-6.4013,10.6005-9.7441,6.8985-6.6853,13.549-13.6315,20.05-20.7137,6.4885-7.0932,12.9052-14.26,19.1078-21.6093l.0979.08a552.2623,552.2623,0,0,1-38.6147,42.8987q-5.1357,5.08-10.5417,9.8881a133.324,133.324,0,0,1-11.302,9.06c-.989.6987-2.0152,1.35-3.0286,2.0171-1.0612.5989-2.066,1.2856-3.1809,1.8021-.55.2692-1.0862.5623-1.6478.8112l-1.7155.6931a15.9651,15.9651,0,0,0-3.11,1.5264,35.57,35.57,0,0,0-5.503,4.44c-1.7217,1.6432-3.3625,3.3824-4.9583,5.1649-6.3585,7.1635-12.1253,14.87-17.9862,22.4876-5.8354,7.6428-11.6462,15.3138-17.5987,22.878-11.8914,15.1287-24.4127,29.8314-38.2826,43.2079-13.8339,13.3529-29.19,25.4005-46.5848,33.78a133.3445,133.3445,0,0,1-27.2978,9.35,158.6343,158.6343,0,0,1-28.6557,3.6862c-19.3043.7738-38.5754-1.7029-57.43-5.5329-9.4345-1.9409-18.772-4.3043-28.0681-6.778-4.6526-1.2209-9.2839-2.5182-13.94-3.7081-2.3309-.58-4.6637-1.1608-7.0208-1.611l-1.77-.3262-1.7818-.239c-.5942-.0792-1.1931-.0715-1.79-.1118a14.1983,14.1983,0,0,0-1.7818.1215Z" transform="translate(-70 -23.1523)" fill="#c49a6c"/>
    <path d="M655.9224,624.6535a62.8382,62.8382,0,0,0,12.9291-4.5385c1.0565-.4382,2.0729-.9657,3.0947-1.48,1.02-.5182,2.0489-1.0168,3.06-1.55,1.9789-1.15,3.9978-2.2255,5.9485-3.4185,1.9263-1.2339,3.896-2.3994,5.7855-3.688l5.6149-3.9462,5.4359-4.1923c1.85-1.35,3.5336-2.9083,5.2953-4.37,3.5724-2.8708,6.8745-6.0508,10.2588-9.1443,3.3219-3.1572,6.4916-6.4786,9.6613-9.7925,3.0262-3.4464,6.1157-6.8437,9.0036-10.4077,2.8493-3.5975,5.6887-7.1981,8.4642-10.853,11.0018-14.7076,22.0795-29.3624,33.517-43.74q8.538-10.8144,17.4138-21.3622,4.44-5.2717,9.0608-10.3915,2.31-2.56,4.7477-5.0052c.8165-.8106,1.6432-1.6121,2.5117-2.3709.4344-.3788.8761-.7506,1.3456-1.09a6.7958,6.7958,0,0,1,.7357-.4687,1.3,1.3,0,0,1,.87-.2108l-.04.12a1.2123,1.2123,0,0,0-.7522.2311,6.63,6.63,0,0,0-.6967.4839c-.4476.3514-.8705.7367-1.2859,1.129-.8306.7856-1.6213,1.6152-2.4015,2.4536-1.5573,1.6806-3.0558,3.4166-4.5541,5.152-2.99,3.4779-5.8795,7.0428-8.7782,10.5991-5.7851,7.124-11.4519,14.3456-17.152,21.5408l-33.991,43.3509c-11.3763,14.4206-23.3938,28.4209-37.256,40.5734-3.43,3.074-7.0935,5.8718-10.7574,8.6622l-5.6946,3.9164c-1.916,1.2781-3.9134,2.4335-5.8654,3.6555-1.97,1.1943-4.0413,2.2174-6.0594,3.325-1.032.5121-2.0821.9891-3.1216,1.485-1.0415.4922-2.0767.9969-3.1531,1.4125-1.0685.4314-2.1257.8895-3.2031,1.296l-3.267,1.1259a44.7622,44.7622,0,0,1-6.708,1.6333Z" transform="translate(-70 -23.1523)" fill="#c49a6c"/>
    <path d="M617.8182,614.9551a1.8477,1.8477,0,0,1,.4993-.7441c.1982-.2132.4089-.4107.62-.608.4246-.3911.86-.7678,1.3026-1.1363l2.68-2.1724,5.4207-4.2578,10.8458-8.4963c7.2224-5.6719,14.3556-11.4539,21.49-17.2357,7.14-5.7745,14.2879-11.5483,21.2441-17.5486,6.9876-5.9637,13.8049-12.1245,20.549-18.361,13.4521-12.512,26.9329-25.0174,40.8024-37.0821q10.3666-9.0895,21.0125-17.8575c7.1266-5.8045,14.285-11.588,21.844-16.8342l.0715.1046c-3.6834,2.7379-7.2088,5.6875-10.7518,8.6057-3.5455,2.9171-7.0251,5.9142-10.5272,8.883-6.985,5.9617-13.8723,12.0376-20.7877,18.0807q-20.6642,18.2274-41.1984,36.6142l-20.7271,18.178c-6.9348,6.0286-13.8172,12.1232-20.8641,18.0275-7.051,5.8989-14.267,11.5986-21.561,17.1932-3.6437,2.8018-7.3474,5.5247-11.0405,8.2581l-5.56,4.07-2.7563,2.0615c-.4523.3518-.9068.701-1.3461,1.0668a4.2785,4.2785,0,0,0-1.1351,1.2035Z" transform="translate(-70 -23.1523)" fill="#c49a6c"/>
  </g>
  <g id="Layer_4" data-name="Layer 4">
    <path d="M510.8337,638.2294s56.5863,76.856,90.7915,85.3018,42.6509,21.9589,69.6772-23.648,26.8132-46.4514,30.72-59.12-9.606-16.0469-9.606-16.0469-30.4046,14.78-58.6977,21.1143C606.01,652.0339,593.6017,665.2557,510.8337,638.2294Z" transform="translate(-70 -23.1523)" fill="none" stroke="#8dc63f" stroke-miterlimit="10" stroke-width="1.2669"/>
    <path d="M629.6326,731.78S636.6,782.4545,654.97,795.7565s79.812,50.0409,69.6772,26.604-45.072-25.9706-58.008-49.4074-11.0357-44.5769-11.0357-44.5769" transform="translate(-70 -23.1523)" fill="none" stroke="#a97c50" stroke-miterlimit="10" stroke-width="1.2669"/>
  </g>
  <g id="Layer_5" data-name="Layer 5">
    <text transform="translate(263.1904 215.7227)" font-size="30.4046" fill="#231f20" font-family="CenturyGothic, Century Gothic">Ureters</text>
    <text transform="translate(552.3506 209.8106)" font-size="30.4046" fill="#231f20" font-family="CenturyGothic, Century Gothic">Superior surface</text>
    <text transform="translate(4.2236 536.8399)" font-size="30.4046" fill="#231f20" font-family="CenturyGothic, Century Gothic">Inferolateral surface</text>
    <text transform="translate(0 597.6494)" font-size="30.4046" fill="#231f20" font-family="CenturyGothic, Century Gothic">Inferoposterior surface</text>
    <text transform="translate(244.0088 685.4854)" font-size="30.4046" fill="#231f20" font-family="CenturyGothic, Century Gothic">Prostate gland</text>
    <text transform="translate(789.6006 648.3233)" font-size="30.4046" fill="#231f20" font-family="CenturyGothic, Century Gothic">Neck</text>
    <text transform="translate(710.6064 753.0508)" font-size="30.4046" fill="#231f20" font-family="CenturyGothic, Century Gothic">Urethra</text>
    <text transform="translate(826.3135 509.2158)" font-size="30.4046" fill="#231f20" font-family="CenturyGothic, Century Gothic">Anterior<tspan x="0" y="36.4854">border</tspan></text>
    <text transform="translate(885.4316 335.8477)" font-size="30.4046" fill="#231f20" font-family="CenturyGothic, Century Gothic">Urachus</text>
    <text transform="translate(886.2764 392.9815)" font-size="30.4046" fill="#231f20" font-family="CenturyGothic, Century Gothic">Apex</text>
    <line x1="451.8131" y1="532.309" x2="303.1685" y2="532.309" fill="none" stroke="#939598" stroke-miterlimit="10" stroke-width="1.2669"/>
    <line x1="393.5074" y1="589.5921" x2="333.4996" y2="589.5921" fill="none" stroke="#939598" stroke-miterlimit="10" stroke-width="1.2669"/>
    <line x1="565.9304" y1="293.8987" x2="632.0227" y2="219.8175" fill="none" stroke="#939598" stroke-miterlimit="10" stroke-width="1.2669"/>
    <line x1="820.0464" y1="314.8735" x2="874.9436" y2="325.7371" fill="none" stroke="#939598" stroke-miterlimit="10" stroke-width="1.2669"/>
    <line x1="799.2481" y1="362.0565" x2="875.7882" y2="381.1307" fill="none" stroke="#939598" stroke-miterlimit="10" stroke-width="1.2669"/>
    <line x1="721.9587" y1="498.5262" x2="818.3573" y2="498.5262" fill="none" stroke="#939598" stroke-miterlimit="10" stroke-width="1.2669"/>
    <line x1="549.346" y1="637.0359" x2="737.2784" y2="637.0359" fill="none" stroke="#939598" stroke-miterlimit="10" stroke-width="1.2669"/>
    <line x1="524.4289" y1="682.0727" x2="464.4211" y2="682.0727" fill="none" stroke="#939598" stroke-miterlimit="10" stroke-width="1.2669"/>
    <line x1="578.7521" y1="741.7628" x2="695.0498" y2="741.7628" fill="none" stroke="#939598" stroke-miterlimit="10" stroke-width="1.2669"/>
  </g>
  <g id="Layer_6" data-name="Layer 6">
    <text transform="translate(451.8131 105.6527)" font-size="60" fill="#39b54a" font-family="CenturyGothic, Century Gothic">Urinary bladder</text>
  </g>
</svg>
