<svg id="Layer_1" data-name="Layer 1" xmlns="http://www.w3.org/2000/svg" viewBox="0 0 143.89 195">
  <title>vascular segments</title>
  <path d="M187.5,235.5c.33-7.32,5.47-37.94,9.47-44.08,10.43-16,32.63-47,51-51.42,25-6,81,22,82,84s-63.5,137.5-102.5,98.5C190.45,285.45,185.5,279.5,187.5,235.5Z" transform="translate(-186.62 -138.71)" fill="none" stroke="#000" stroke-miterlimit="10"/>
  <path d="M262,179s-20,96.4-3,110" transform="translate(-186.62 -138.71)" fill="none" stroke="#000" stroke-miterlimit="10" stroke-width="0.77"/>
  <path d="M225.24,155.24S255.5,195.5,314.5,181.5" transform="translate(-186.62 -138.71)" fill="none" stroke="#000" stroke-miterlimit="10"/>
  <path d="M206.73,301s38.53-30.47,95.65,0" transform="translate(-186.62 -138.71)" fill="none" stroke="#000" stroke-miterlimit="10"/>
  <line x1="67.93" y1="97.29" x2="142.76" y2="97.5" fill="none" stroke="#000" stroke-miterlimit="10"/>
  <text transform="translate(50.05 173.81)" font-size="12" font-family="MyriadPro-Regular, Myriad Pro" letter-spacing="-0.01em">L<tspan x="5.5" y="0" letter-spacing="-0.01em">o</tspan><tspan x="12" y="0" letter-spacing="-0.01em">w</tspan><tspan x="20.71" y="0" letter-spacing="0em">er</tspan></text>
  <text transform="translate(62.91 25.81)" font-size="12" font-family="MyriadPro-Regular, Myriad Pro"><tspan letter-spacing="0em">A</tspan><tspan x="7.31" y="0">pical</tspan></text>
  <text transform="translate(89.7 71.81)" font-size="12" font-family="MyriadPro-Regular, Myriad Pro">Upper<tspan x="-4.12" y="14.4">a</tspan><tspan x="1.66" y="14.4" letter-spacing="0em">n</tspan><tspan x="8.27" y="14.4" letter-spacing="-0.01em">t</tspan><tspan x="12.17" y="14.4">e</tspan><tspan x="18.19" y="14.4" letter-spacing="0em">r</tspan><tspan x="22.16" y="14.4" letter-spacing="0em">ior</tspan></text>
  <text transform="translate(80.89 126.81)" font-size="12" font-family="MyriadPro-Regular, Myriad Pro"><tspan letter-spacing="0.01em">M</tspan><tspan x="9.79" y="0">iddle</tspan><tspan x="-2.31" y="14.4">a</tspan><tspan x="3.47" y="14.4" letter-spacing="0em">n</tspan><tspan x="10.09" y="14.4" letter-spacing="-0.01em">t</tspan><tspan x="13.99" y="14.4">e</tspan><tspan x="20" y="14.4" letter-spacing="0em">r</tspan><tspan x="23.97" y="14.4" letter-spacing="0em">ior</tspan></text>
  <text transform="translate(12.06 94.81)" font-size="12" font-family="MyriadPro-Regular, Myriad Pro"><tspan letter-spacing="-0.02em">P</tspan><tspan x="6.08" y="0">os</tspan><tspan x="17.42" y="0" letter-spacing="-0.01em">t</tspan><tspan x="21.32" y="0" letter-spacing="0em">e</tspan><tspan x="27.34" y="0" letter-spacing="0em">r</tspan><tspan x="31.31" y="0">ior</tspan></text>
</svg>
